<?xml version="1.0" standalone="no"?>
<!DOCTYPE svg PUBLIC "-//W3C//DTD SVG 1.1//EN" "http://www.w3.org/Graphics/SVG/1.1/DTD/svg11.dtd" >
<svg xmlns="http://www.w3.org/2000/svg" xmlns:xlink="http://www.w3.org/1999/xlink" version="1.1" viewBox="-10 0 509 1000">
   <path fill="currentColor"
d="M267 728q0 1 -11 11t-30.5 20.5t-37.5 10.5q-3 0 -13 -1t-28.5 -5.5t-35.5 -11.5t-31 -20.5t-17 -30.5q-1 -5 -1 -16q0 -43 26 -87t56 -51q18 -4 25.5 -3.5t36.5 6.5q41 8 57.5 14.5t26.5 19.5q20 26 20 56q0 2 -0.5 4t-0.5 3q0 14 31 43t51 29q7 0 7 -5t12 -7t20 2
q7 4 12 16t5 24q0 38 -44 38q-23 0 -53.5 -20t-35.5 -20q-4 0 -22 -11.5t-22 -11.5q-3 0 -3 4zM117 672q0 3 4 11.5t18 19.5t34 11q17 0 35 -11t28 -21.5t10 -12.5l4 -26q0 -22 -16 -27q-28 -7 -49 -7q-9 0 -15 2q-8 3 -26 24t-18 27q0 3 -1.5 3t-3 -0.5t-3 1t-1.5 6.5z
M196 339q0 -36 -1 -75t-2 -70t-2 -56t-2 -40l-1 -14q0 -12 11 -26q12 -16 30 -12q11 2 21 9.5t10 18.5q0 1 -7 30t-7 109q0 52 4.5 118t4.5 107q0 33 -4.5 46.5t-22.5 13.5q-5 0 -10 -5t-10 -3q-7 3 -19 -2q-6 -3 -8 -5t-2 -6t2 -13q5 -25 7 -31q8 -19 8 -94z" />
</svg>
