<?xml version="1.0" standalone="no"?>
<!DOCTYPE svg PUBLIC "-//W3C//DTD SVG 1.1//EN" "http://www.w3.org/Graphics/SVG/1.1/DTD/svg11.dtd" >
<svg xmlns="http://www.w3.org/2000/svg" xmlns:xlink="http://www.w3.org/1999/xlink" version="1.1" viewBox="-10 0 835 1000">
   <path fill="currentColor"
d="M290 525h-4q-26 -1 -37.5 -1.5t-25.5 -3t-18.5 -8.5t-4.5 -16q0 -9 6 -17.5t12 -13.5t8 -5q46 -4 81 -4q41 0 45 2q2 2 6.5 1.5t8.5 -2t10 -2.5t11 -1t7 -6t2 -31q0 -12 -0.5 -26t-0.5 -27t-0.5 -25.5t-0.5 -23t-0.5 -18.5t-0.5 -13v-5v-18.5t0.5 -30l0.5 -14.5
q0 -32 -2 -32q-6 0 -23 11t-17 15q0 6 -12 15q-14 11 -89 85q-28 27 -40 38.5t-22 22.5t-12 15.5t-2 8.5q0 1 0.5 2.5t0.5 2.5q1 3 1 10q0 31 -43 31q-15 0 -32 -6.5t-22 -6.5q-9 0 -14 -20q-3 -10 -4 -15t-0.5 -8t1.5 -3.5t5 -0.5q7 0 7 -5q0 -3 9 -7t23 -12.5t23 -21.5
q13 -19 18 -19q3 0 21.5 -21t18.5 -25.5t13 -11.5q21 -13 62.5 -54t74 -75t36.5 -34q3 0 9 -6l12.5 -12.5t16 -12.5t19.5 -6q5 0 9 1t10 6t13 12t21 22q37 40 107 108t96 96q23 25 39 34q12 7 20 21t8 28q0 12 -5.5 18.5t-9.5 7.5t-10 1q-14 0 -23.5 -4t-13 -9.5t-7 -9.5
t-7.5 -4t-8.5 -6t-13.5 -19t-19 -23t-18 -19t-11.5 -13t-7.5 -7q-7 -4 -30 -24t-46.5 -42t-43 -40t-21.5 -18q-5 0 -5 32q0 5 3 120l3 115q0 14 2.5 17t17.5 5q18 2 20 2t7 -0.5t7 -0.5q10 0 23 4.5t21 4.5q5 0 18 -4t28 -4q18 0 30 11.5t15 20.5t3 12q0 6 -11 21
q-5 6 -8.5 9t-8.5 4t-14 1q-12 0 -41 -6.5t-67 -6.5q-27 0 -31 3q-8 6 -8 68q0 24 8.5 47.5t8.5 24.5q0 2 -1.5 4t-3.5 6.5t-3 10.5q-5 22 -38 22q-17 0 -31 -7q-10 -4 -12 -8t1 -12q3 -12 9 -112l3 -52l-27 -1q-5 0 -37 -0.5t-51 -0.5z" />
</svg>
