<?xml version="1.0" standalone="no"?>
<!DOCTYPE svg PUBLIC "-//W3C//DTD SVG 1.1//EN" "http://www.w3.org/Graphics/SVG/1.1/DTD/svg11.dtd" >
<svg xmlns="http://www.w3.org/2000/svg" xmlns:xlink="http://www.w3.org/1999/xlink" version="1.1" viewBox="-10 0 877 1000">
   <path fill="currentColor"
d="M213 455q20 0 20 -20q0 -11 -4.5 -17.5t-4.5 -13.5t1 -12l3 -20l-50 1h-18q-42 0 -55 -5.5t-13 -25.5q0 -16 10.5 -26t28.5 -10q14 0 33.5 -2.5t29.5 -2.5q7 0 16.5 1t13 1t7.5 -1q5 -4 10.5 -15.5t5.5 -19.5q0 -6 4.5 -18.5t10.5 -26.5t12 -27t10 -22l5 -9
q0 -4 14 -16.5t14 -17.5q0 -3 10.5 -11t20.5 -14l11 -6q8 -3 32 -3q57 0 102 10q32 7 41 12t28 25q27 27 27 34q0 3 2.5 7t5.5 9.5t8.5 20t9.5 35.5l9 43l46 2q49 2 61 10t12 40q0 12 -8.5 19.5t-17.5 9.5l-9 2q-3 0 -20 -3.5t-28 -3.5h-6l-16 2v56h66q64 0 75.5 2t17.5 14
q7 14 7 22q0 11 -10 30q-8 14 -11.5 16t-14.5 1q-9 -2 -23 -9.5t-34 -9.5q-5 -1 -22 -3t-23 -3l-20 -3l-3 33q-2 34 -5 48q-3 13 -1 14q2 0 6 -2t21.5 -4t31.5 -9q13 -7 25 -7q32 0 32 8q0 5 6 5q11 0 11 26q0 29 -12 37q-5 3 -69 5l-65 3l-13 14q-13 15 -13 21q0 7 -13 14
t-25.5 20t-28 22.5t-45.5 16.5q-50 11 -60 11t-26.5 -8.5t-22.5 -8.5q-28 0 -67.5 -40.5t-39.5 -52.5q0 -8 -44 -8q-13 0 -27.5 3t-34.5 3q-25 0 -37 -3.5t-14 -7.5t-2 -13q0 -13 6 -28q7 -16 15 -20t35 -4q22 -1 33 -3t18 -2h6q14 1 16 -1.5t2 -16.5q0 -22 -7 -27t-45 -5
h-56q-26 0 -38 -1t-22.5 -8.5t-10.5 -23.5q0 -12 13 -21.5t24 -13t14 -3.5l1 1q1 0 3.5 1t7 1.5l13.5 1.5t21 1q20 0 31.5 1t15.5 2t6 1zM523 197q0 -7 -19 -22t-40 -15q-4 0 -11 3t-31 3q-21 0 -39.5 5t-18.5 10q0 3 -6 3q-3 0 -8.5 8t-13 20t-13.5 18q-11 11 -11 17
q0 5 -9 23t-9 25t4 8t25 0q20 -1 34.5 -2.5t22.5 -1.5q19 0 52.5 2.5t48.5 2.5q17 0 46.5 -5t29.5 -9q0 -11 -13 -49t-17 -38t-4 -6zM574 383v-19h-102q-105 0 -143 5l-42 5l-2 19q-2 17 2 34l2 17l36 -4q73 -7 172 -8l80 -2l-1 -14q-2 -16 -2 -33zM586 507
q0 -13 -5.5 -15.5t-29.5 -2.5q-10 0 -18 -0.5t-12.5 -1t-7.5 -1t-4.5 -1t-2.5 -0.5t-2 1q-2 2 -29.5 3.5t-61 4t-45.5 5.5q-18 5 -45 5h-26l2 24q1 18 9 36l5 12l87 -1q45 -1 94 -1q38 0 56 2l25 3v-16q0 -12 5.5 -30.5t5.5 -25.5zM536 646q0 -3 -68.5 -6t-79.5 -3
q-33 0 -33 11q0 5 4 5q3 0 4 3t9 11t25 16q23 11 34 11q10 0 35 -5t33 -9q11 -5 24 -17.5t13 -16.5zM206 156q-3 0 -16 -4.5t-28 -17.5t-15 -30q0 -35 36 -51q23 -10 40 12t17 43q0 17 -12 32.5t-22 15.5zM626 60q0 -15 27 -15q20 0 36.5 10t16.5 27q0 10 4 15t4 9
q0 18 -19 33t-39 15q-12 0 -26 -12q-11 -10 -13.5 -16.5t-2.5 -23.5q0 -23 6 -31t6 -11z" />
</svg>
