<?xml version="1.0" standalone="no"?>
<!DOCTYPE svg PUBLIC "-//W3C//DTD SVG 1.1//EN" "http://www.w3.org/Graphics/SVG/1.1/DTD/svg11.dtd" >
<svg xmlns="http://www.w3.org/2000/svg" xmlns:xlink="http://www.w3.org/1999/xlink" version="1.1" viewBox="-10 0 855 1000">
   <path fill="currentColor"
d="M134 201q0 -33 40 -33q21 0 30 6t9 25t-12 30.5t-28 11.5q-15 0 -27 -12t-12 -28zM614 189q0 -15 14 -25.5t32 -10.5q21 0 36.5 14t15.5 31q0 15 -14.5 26.5t-33.5 11.5t-34.5 -13t-15.5 -34zM124 490q8 0 39.5 1.5t40.5 1.5q17 0 23.5 -3.5t6.5 -13.5q0 -9 -3 -24
q-4 -25 -13.5 -31.5t-42.5 -6.5q-40 0 -72 -10.5t-32 -22.5q0 -3 3.5 -11t4.5 -9q5 -15 35 -15q28 0 91 10q4 1 11 1q25 0 34 -28q14 -48 23 -53q3 -1 7 -18q7 -32 35.5 -61.5t60.5 -38.5q24 -6 33 -11q8 -4 12 -4q7 0 23.5 7t34.5 16.5t22 11.5q16 7 37 25.5t21 25.5
q0 5 19 28q24 30 31 74q3 17 10.5 22.5t31.5 7.5q16 2 32 2q3 0 16 -1t21 -1q36 0 36 27q0 9 -5 18q-7 14 -15.5 17.5t-37.5 3.5q-2 0 -8.5 -0.5t-10.5 -0.5h-56l-1 38q0 4 -0.5 11t-0.5 9q0 17 8 20.5t47 5.5q42 4 53 10q12 7 24 7q31 0 31 35q0 16 -3.5 20t-17.5 4
q-42 0 -105 -11q-33 -5 -40 -5q-5 0 -7 0.5t-3.5 4t-2 6t-1.5 10.5q-2 14 -16 40t-26 39q-8 8 -17 20q-15 20 -24 26.5t-26 9.5q-24 4 -60 4q-68 0 -68 -11q0 -4 -24 -21q-28 -20 -44 -44t-23 -31q-5 -5 -15.5 -27t-10.5 -26q0 -16 -97 -16h-9q-41 0 -52 -4
q-9 -3 -16.5 -10.5t-7.5 -12.5q0 -2 3 -6t3 -8q0 -6 16 -15q14 -8 34 -8zM508 263q-6 -8 -34.5 -31t-36.5 -23q-5 0 -9 6q-5 7 -15 7q-32 0 -58.5 24.5t-31.5 57.5q-1 11 -10.5 22.5t-9.5 23.5q0 16 36 16q14 0 21 -1q77 -7 165 -7q18 0 21.5 -2t3.5 -12q0 -14 -12 -32
q-11 -16 -11 -21t-5 -10q-4 -4 -14 -18zM557 424q-3 -3 -81 -3q-71 0 -135 4q-51 3 -55 9q-2 4 -2 18q0 35 5 40q2 2 54 3.5t104.5 3t54.5 1.5q1 0 5 0.5t7 0.5q9 0 25 -2l23 -3l-1 -34q0 -34 -4 -38zM377 555h-21q-40 0 -40 10q0 6 21 30t22 28q4 11 49 36q12 6 23 6
q3 0 23 -2q21 -2 28.5 -5.5t17.5 -15.5q36 -43 36 -48q0 -2 3 -8.5t5 -12.5t1 -7t-68 -7q-66 -4 -100 -4z" />
</svg>
