<?xml version="1.0" standalone="no"?>
<!DOCTYPE svg PUBLIC "-//W3C//DTD SVG 1.1//EN" "http://www.w3.org/Graphics/SVG/1.1/DTD/svg11.dtd" >
<svg xmlns="http://www.w3.org/2000/svg" xmlns:xlink="http://www.w3.org/1999/xlink" version="1.1" viewBox="-10 0 709 1000">
   <path fill="currentColor"
d="M391 663q0 15 -58 51.5t-90 36.5q-35 0 -71.5 -16.5t-55.5 -33.5q-21 -18 -28.5 -35t-7.5 -45q0 -37 13 -65.5t30.5 -43.5t37 -25t30.5 -12.5t14 -2.5q10 -1 15 -2t6.5 -1.5t3.5 -0.5q13 0 44.5 7t35.5 11q8 8 11 8t19 13t34.5 41.5t18.5 60.5v3q0 3 -0.5 8t-1 11.5
t-0.5 15v16.5zM242 527q-3 0 -11.5 1t-25 6t-30.5 13.5t-25 25t-11 38.5q0 12 3 17.5t15 16.5q41 36 79 36q45 0 76 -28q14 -13 14 -38q0 -26 -11 -41q-34 -47 -72 -47h-1zM430 471q0 -17 10 -35t24 -18q17 0 26.5 14t10.5 22.5t1 14.5q0 2 -1 10.5t-2.5 23t-1.5 30.5
q0 26 4 30q5 3 52 3q38 0 52.5 5t19.5 21q4 18 -3 31q0 -4 -3 -1.5t-7.5 5.5t-10.5 -2q-5 -3 -6 -3t-6.5 1.5t-19 4.5t-34.5 6q-42 5 -45 7q-2 2 -2 16q0 21 4 46t4 37q0 44 -32 44q-19 0 -32.5 -10.5t-13.5 -24.5q0 -3 1.5 -9t1.5 -14q0 -7 -1.5 -29.5t-1.5 -31.5
q0 -13 2 -14q2 -2 3 -10.5t2 -22t4 -23.5q6 -18 6 -48q0 -19 -2.5 -44t-2.5 -32zM235 62q0 -36 4.5 -49t18.5 -13q42 0 42 45q0 8 -3.5 25t-3.5 35v13q3 24 -2 29t0 5q3 0 4 42t2 90.5t3 58.5q2 8 2 10q0 16 -24 20l-26 7q-11 0 -17 -18.5t-6 -37.5q0 -14 3 -15q6 -4 6 -107
q0 -15 -1.5 -66.5t-1.5 -73.5z" />
</svg>
