<?xml version="1.0" standalone="no"?>
<!DOCTYPE svg PUBLIC "-//W3C//DTD SVG 1.1//EN" "http://www.w3.org/Graphics/SVG/1.1/DTD/svg11.dtd" >
<svg xmlns="http://www.w3.org/2000/svg" xmlns:xlink="http://www.w3.org/1999/xlink" version="1.1" viewBox="-10 0 930 1000">
   <path fill="currentColor"
d="M283 545q0 -2 0.5 -3.5t1.5 -3.5t1.5 -13t0.5 -30q0 -54 -3 -66h-6q-6 0 -20 0.5t-30 1.5t-31 1.5t-25 1.5h-11q-5 0 -41 -4q-23 -2 -31.5 -5t-16.5 -12q-9 -11 -9 -16q0 -8 27 -21q23 -10 105 -10q75 0 83 3q7 3 9 0.5t2 -14.5q1 -39 6 -52q5 -15 5 -32l-1 -11
q-1 -12 -2 -27.5t-1 -24.5q-3 -41 -12 -48q-10 -8 -10 -19q0 -4 1.5 -10.5t10.5 -16t25 -9.5q40 0 61.5 5.5t29.5 11.5t14 6t47.5 19t44.5 19q20 0 74.5 56.5t54.5 69.5q0 10 4 20t8 15l4 5q5 4 5 22q0 23 10.5 30t49.5 7q30 0 30 -4q0 -7 -24 -37.5t-45 -51.5l-30 -30
l8 -15q10 -17 28 -17q15 0 29.5 11t22.5 28q4 8 22.5 33t34 46.5t15.5 25.5q0 6 22.5 39.5t22.5 38.5q0 11 -12.5 21.5t-29 18t-17.5 8.5q-17 14 -45.5 44t-38.5 44q-15 21 -27 21q-3 0 -23 -4q-17 -4 -23 -10t-6 -20t20 -29q24 -18 41 -37.5t26 -33t12 -15.5q7 -7 7 -8
q0 -6 -40 -6q-31 0 -37.5 3t-9.5 19q-1 9 -31 76q-7 16 -45 54.5t-62 54.5q-28 18 -41 31q-14 13 -37 17.5t-37 16.5q-13 11 -35.5 16.5t-25.5 7.5q-12 5 -37 3l-27 -2l-7 -21q-4 -15 -3.5 -20t6.5 -14q18 -25 18 -100q0 -14 -2 -30t-2 -19zM501 235q-89 -46 -129 -46
q-7 0 -10.5 5t-7 31t-6.5 80q-3 52 -7 60q0 6 30 7.5t92 4t110 7.5l25 3v-15q0 -26 -31 -72.5t-66 -64.5zM595 449q0 -7 -38 -16t-49 -9q-4 0 -79 5t-79 6q-5 1 -5 49v35q0 50 -2 94l-3 46l34 -4q28 -3 48.5 -12t22.5 -9q6 0 14 -9t24 -24t36 -26q22 -13 22 -16q0 -2 9 -15
t20 -32t15 -32z" />
</svg>
