<?xml version="1.0" standalone="no"?>
<!DOCTYPE svg PUBLIC "-//W3C//DTD SVG 1.1//EN" "http://www.w3.org/Graphics/SVG/1.1/DTD/svg11.dtd" >
<svg xmlns="http://www.w3.org/2000/svg" xmlns:xlink="http://www.w3.org/1999/xlink" version="1.1" viewBox="-10 0 838 1000">
   <path fill="currentColor"
d="M473 572h-19q-18 0 -18 13q0 11 -2 24t-2 24q0 31 8.5 43.5t34.5 16.5q26 5 39 10q20 8 31 1q10 -7 60 -7q61 0 68 10q5 7 5 18q0 16 -6.5 26t-21.5 14t-26.5 5t-34.5 1q-56 0 -86 -7q-26 -7 -46 -7h-2q-15 0 -51.5 -3.5t-49.5 -3.5q-21 0 -28 2q-15 4 -19 1
q-3 -2 -80 -4q-60 -1 -78 -5t-18 -18q0 -13 13 -24.5t27 -11.5h26q14 0 46 -0.5t46 -0.5q29 0 33 3q4 2 6 2q6 0 18 -4t14 -4q7 0 7 -17q0 -11 -1.5 -44t-1.5 -37v-16l-28 3q-11 1 -23.5 4.5t-17.5 3.5q-8 0 -45.5 -8.5t-44.5 -8.5h-5q-17 0 -43 -12t-26 -20q0 -5 -10 -10
q-7 -3 -12.5 -20t-9.5 -21q-6 -6 -6 -12q0 -7 -9 -27q-10 -21 -10 -82q0 -75 17 -81q7 -2 7 -9q0 -6 9.5 -16.5t14.5 -10.5t14 -7q18 -15 124 -18q81 -2 87 -5q9 -3 9 -24q0 -3 -2 -43q-2 -33 -15.5 -38.5t-88.5 -5.5q-61 0 -72.5 -1.5t-20.5 -10.5q-12 -12 -12 -19
q0 -6 5 -16t9 -13q4 -2 77 -2q202 0 259 5q11 1 29 1q14 0 49.5 -9t49.5 -9q7 0 10 3t5 8t4 7q4 4 8.5 14t-0.5 17q-7 5 -12 15q-6 10 -23 13q-18 3 -79 3q-58 0 -85 -3l-30 -3q1 17 2 53t1 53l14 1q16 0 33 5q36 9 85 9q24 0 30 -3t14 -3q5 0 65 10q10 1 28.5 12.5
t23.5 19.5q1 3 4 7.5l7 10.5t6 10q7 11 10.5 30t5 51.5t2.5 40.5q1 9 1 22q0 15 -8 30q-9 18 -9 25q0 4 -7.5 9t-7.5 9q0 5 -8.5 15t-13.5 10q-4 0 -15 9q-26 20 -103 21q-55 1 -68 10q-6 5 -14 5q-3 0 -11 -2t-15 -2zM683 393q0 -4 0.5 -13.5t0.5 -14.5q0 -33 -15 -55
q-9 -12 -33 -17.5t-80 -6.5q-60 -2 -63 -6q-6 -8 -34 -8q-17 0 -22.5 5t-6.5 23q-2 28 -2 90q0 107 3 110q6 6 33 6q21 0 43 -5q29 -7 80 -9t56 -7t14 -5q8 0 8 -7t4 -7t9.5 -17.5t5.5 -28.5q0 -5 -0.5 -14t-0.5 -13zM335 284q-24 0 -56 2.5t-45 2.5q-16 0 -46 4
q-30 5 -43 19t-13 44q0 9 4 41q8 47 23.5 70.5t43.5 28.5q22 4 31 9q14 8 77 8q25 0 36 -3q13 -4 18 -18t5 -57q0 -121 -7 -142q-2 -6 -6.5 -7.5t-21.5 -1.5z" />
</svg>
