<?xml version="1.0" standalone="no"?>
<!DOCTYPE svg PUBLIC "-//W3C//DTD SVG 1.1//EN" "http://www.w3.org/Graphics/SVG/1.1/DTD/svg11.dtd" >
<svg xmlns="http://www.w3.org/2000/svg" xmlns:xlink="http://www.w3.org/1999/xlink" version="1.1" viewBox="-10 0 407 1000">
   <path fill="currentColor"
d="M133 406q0 12 3 26.5t3 34.5q0 18 3.5 31.5t10 27.5t9.5 22q19 51 37 62q14 7 16 15h1q7 0 23.5 11.5t18.5 11.5q9 0 12.5 3.5t6.5 2.5q7 -2 28 7q28 12 28 34q0 16 -17 28t-39 12q-12 0 -41 -20q-14 -11 -35 -21q-8 -2 -14.5 -9t-10.5 -9q-8 -4 -19.5 -23.5t-14.5 -22.5
q-5 -2 -13 -17q-2 -4 -13 -16.5t-12 -21.5v-1q-1 -1 -1.5 -3t-1.5 -3.5t-2 -4t-2 -4.5q-6 -10 -11.5 -33.5t-8.5 -29.5q-8 -21 -8 -63q0 -149 22 -155q4 -5 12 -21.5t8 -20.5q0 -8 22 -39q15 -19 24 -43q3 -15 20 -28q11 -8 14 -14q2 -11 23 -23q14 -8 33 -24q14 -12 18 -12
q9 0 26 16.5t17 25.5q0 14 -28 26q-22 10 -28 19q-9 12 -14 12q-4 0 -11 9t-15.5 22t-14.5 19q-10 8 -10 15q0 9 -7 18q-4 8 -7 19q-5 21 -20 39q-10 12 -10 28q0 12 -5 43.5t-5 41.5z" />
</svg>
