<?xml version="1.0" standalone="no"?>
<!DOCTYPE svg PUBLIC "-//W3C//DTD SVG 1.1//EN" "http://www.w3.org/Graphics/SVG/1.1/DTD/svg11.dtd" >
<svg xmlns="http://www.w3.org/2000/svg" xmlns:xlink="http://www.w3.org/1999/xlink" version="1.1" viewBox="-10 0 825 1000">
   <path fill="currentColor"
d="M340 569q0 -18 8 -30t21 -17t23 -7t20 -2q6 0 14.5 2t21.5 7.5t22 21t9 38.5q0 9 -8 19.5t-15.5 16.5t-9.5 6h-2q-4 0 -11 1t-14.5 2.5t-11.5 1.5q-20 0 -45 -23q-15 -13 -18.5 -19.5t-3.5 -17.5zM644 355q12 0 12 -16q0 -20 -3.5 -44.5t-7 -41.5t-3.5 -19q0 -6 11 -23
q8 -13 13 -16t16 -2q10 1 17 6t10 14t4 16.5t1 19.5v11q0 22 5 32q3 7 7 36t7 32q3 6 5 18.5t-1 14.5q-4 2 -4 12q0 14 -56 14q-40 0 -68.5 -2t-41.5 -4.5t-21.5 -5.5t-15.5 -5t-15 -2q-13 0 -20 -2.5t-7 -3.5t-7 1q-3 2 -41 2q-13 0 -42 -1t-42 -1q-10 0 -92 8t-113 8
q-67 0 -67 -37q0 -2 1.5 -14t1.5 -34q0 -16 -1 -37t-2 -38.5t-2.5 -31t-1.5 -17.5q-3 -12 -1.5 -15t10.5 -6q16 -6 28 -6q21 0 30 14t9 28q0 13 -7.5 28.5t-7.5 36.5q0 24 5 43l4 16h98q99 -1 115 -8q11 -5 17 -5q2 0 9.5 3t29 6t58.5 3l32 -1q26 0 37.5 4.5t23.5 4.5
q7 0 19.5 -1t19.5 -1q14 0 23 4.5t12 4.5z" />
</svg>
