<?xml version="1.0" standalone="no"?>
<!DOCTYPE svg PUBLIC "-//W3C//DTD SVG 1.1//EN" "http://www.w3.org/Graphics/SVG/1.1/DTD/svg11.dtd" >
<svg xmlns="http://www.w3.org/2000/svg" xmlns:xlink="http://www.w3.org/1999/xlink" version="1.1" viewBox="-10 0 941 1000">
   <path fill="currentColor"
d="M854 713q0 31 -37 28q-23 -2 -37 -16.5t-24 -19.5q-14 -7 -14 -12q0 -7 -18 -16t-43.5 -20t-36.5 -19q-1 -1 -24.5 -15t-56 -30.5t-50.5 -21.5q-19 -5 -40.5 -15.5t-27.5 -10.5q-20 0 -70.5 30.5t-63.5 30.5q-7 0 -58.5 30.5t-60.5 30.5q-3 0 -18 14t-20 14q-6 0 -6 5
q0 4 -22 11.5t-33 7.5q-10 0 -22 -11.5t-12 -19.5q0 -17 37 -37.5t46 -20.5q3 0 5 -2.5t13 -9.5t32 -15q23 -9 42 -22t52 -24q43 -15 46 -20q7 -12 47 -27.5t47 -22.5q17 -16 33 -16q8 0 10.5 0.5t9 4.5t15 9.5t32.5 19t56 29.5q93 47 114 61q10 7 23 11t27 15q16 13 24 13
q4 0 19 12t23 12q14 0 28 18t14 37zM240 189q-5 0 -54.5 -25.5t-56.5 -25.5q-10 0 -23 -13.5t-13 -23.5q0 -12 22 -18q23 -6 25 -6q13 0 60 24.5t47 31.5q0 5 5 5q4 0 29 11.5t28 11.5q2 0 14 9t32.5 23t37.5 23q9 5 40 33.5t43 28.5t16 -9.5t11 -9.5t18 -6.5t15 -6.5
t37 -20t47 -24q13 -3 37 -17.5t32 -14.5q32 0 88.5 -38.5t70.5 -38.5q8 0 13 9.5t6 18.5l1 9q0 9 -10.5 22.5t-19.5 13.5q-10 0 -10 3q0 4 -23 16t-36 15q-11 2 -27.5 14.5t-25.5 12.5q-10 0 -22 5.5t-28 14.5t-26 13q-10 5 -17 9.5t-8.5 7.5t-4 4.5t-5.5 1.5q-7 0 -7 7
q0 4 -11.5 10.5t-29 15.5t-26.5 15q-27 20 -42 20q-22 0 -49 -20.5t-31 -22.5q-15 -6 -44.5 -34.5t-63.5 -44.5q-17 -8 -31 -18.5t-20.5 -16t-9.5 -5.5z" />
</svg>
