<?xml version="1.0" standalone="no"?>
<!DOCTYPE svg PUBLIC "-//W3C//DTD SVG 1.1//EN" "http://www.w3.org/Graphics/SVG/1.1/DTD/svg11.dtd" >
<svg xmlns="http://www.w3.org/2000/svg" xmlns:xlink="http://www.w3.org/1999/xlink" version="1.1" viewBox="-10 0 893 1000">
   <path fill="currentColor"
d="M429 654q0 3 -2.5 13t-2.5 26q0 5 0.5 11t0.5 10q0 15 -5.5 21t-18.5 6q-10 0 -23 -2.5t-25.5 -13t-6.5 -27.5q4 -9 4 -36q0 -6 -1.5 -56t-5 -113.5t-7.5 -79.5q-5 -23 -11.5 -32.5t-32.5 -35.5q-64 -62 -97 -109q-14 -19 -18 -19q-5 0 -35 -30.5t-30 -34.5q0 -2 -3 -4.5
t-7 -5t-10.5 -8t-12.5 -13.5q-9 -12 -18.5 -17t-9.5 -13q0 -21 29 -21q23 0 41 11q12 8 37 31.5t25 27.5q0 3 18 21.5t39.5 42t27.5 35.5q8 16 18 22.5t11 10.5q3 9 49.5 48.5t57.5 39.5q16 0 45 -19.5t35 -33.5q6 -13 55 -59t56 -51q35 -24 67.5 -52t48.5 -41t26 -13
q4 0 23.5 -18.5t36.5 -18.5q6 0 18 12t12 26q0 11 -9 23.5t-17 12.5q-4 0 -4 5t-9 5q-6 0 -14.5 7t-12.5 7t-15.5 10t-26 23t-21.5 17q-75 48 -75 55q0 5 -16.5 14t-16.5 12q0 5 -27.5 33t-32.5 28t-5 5q0 6 -31.5 35t-45.5 36q-16 7 -16 12q0 1 -3 13t-7 43t-4 72
q0 32 3 52t5.5 29t2.5 13z" />
</svg>
