<?xml version="1.0" standalone="no"?>
<!DOCTYPE svg PUBLIC "-//W3C//DTD SVG 1.1//EN" "http://www.w3.org/Graphics/SVG/1.1/DTD/svg11.dtd" >
<svg xmlns="http://www.w3.org/2000/svg" xmlns:xlink="http://www.w3.org/1999/xlink" version="1.1" viewBox="-10 0 927 1000">
   <path fill="currentColor"
d="M319 622q0 -29 8 -48.5t16 -28.5t8 -12q0 -1 9 -12.5t19 -25t12 -19.5q2 -7 8 -7q2 0 11 -4t25 -8t36 -4q32 0 54 10t49 37q19 19 23 34t4 75q0 22 -12 33q-8 7 -12.5 17t-6 16t-3.5 6q-1 0 -11.5 8.5t-26.5 16.5t-31 8q-8 0 -21 7.5t-36 7.5q-38 0 -59 -11
q-10 -5 -32 -29.5t-22 -30.5q0 -4 -4.5 -11.5t-4.5 -24.5zM454 512q-13 0 -41 38t-28 60q0 9 18 30l20 23l28 -2q21 -2 31 -5t36 -19q11 -6 11 -24q0 -16 5 -16q7 0 7 -12q0 -17 -15 -38t-42 -28q-23 -7 -30 -7zM318 339q6 0 54 -26.5t63 -26.5q17 0 31.5 6t22.5 12l8 7
q10 0 37.5 16.5t52 33t25.5 16.5q4 0 12 6t19 15t20 13q9 5 22.5 19.5t34.5 26.5q15 8 36.5 22.5t37 24t23.5 11.5q26 7 26 27q0 25 -13 38q-7 7 -12 7.5t-22 -3.5q-25 -5 -51 -30q-53 -51 -65 -51q-3 0 -32 -25.5t-35 -25.5t-35 -19t-31 -19q-1 0 -23 -13t-47 -26t-35 -13
q-6 0 -21.5 7t-33.5 16.5t-35 19t-28 16.5l-12 7q-1 0 -17 10.5t-34.5 21.5t-25.5 13q-10 2 -10 7t-31.5 18t-50.5 13q-40 0 -40 -36q0 -13 8.5 -20.5t23 -14t21.5 -13.5q6 -5 30.5 -11.5t41.5 -17.5q9 -6 42 -27q10 -6 18.5 -13t12.5 -10.5t8.5 -6t8.5 -2.5zM568 233
q0 -6 -2.5 -13.5t-2.5 -18.5q0 -44 50 -81t97 -37q61 0 81 26q7 9 22 41t15 45q0 3 -2 5q-3 1 -5 31.5t-10 39.5q-8 8 -16 28q-5 13 -10.5 17t-25.5 10q-27 8 -47 8q-22 0 -58 -9q-32 -7 -46 -16.5t-30 -32.5q-13 -18 -13 -27q0 -2 1.5 -7t1.5 -9zM671 162q-6 0 -14.5 9
t-16.5 9q-19 0 -19 17q0 11 5.5 26t10.5 20q26 21 74 21q16 0 22 -2t14 -12q16 -19 16 -37q0 -31 -17.5 -50.5t-30.5 -19.5q-10 0 -18 4.5t-8 11.5q0 6 -4 6q-1 0 -6 -1.5t-8 -1.5zM240 85q47 0 83 33.5t36 77.5q0 8 -3 11q-3 1 -2 4q2 10 0 27q-2 14 -8 22t-27 24
q-57 46 -92 46q-13 0 -30 2.5t-22 2.5q-23 0 -39.5 -10t-22 -18.5t-5.5 -10.5q0 -3 -18.5 -29t-18.5 -35q0 -18 26.5 -72.5t44.5 -55.5q10 0 19 -7q5 -4 33 -8t46 -4zM273 156l-13 -4q-14 -4 -28.5 -8.5t-18.5 -4.5t-19.5 14.5t-30.5 14.5h-6q-9 -2 -10.5 0t-1.5 16t-4 21
t-2 13q6 22 24.5 35t36.5 13q14 0 73 -28q23 -11 23 -38q0 -16 -8 -30t-15 -14z" />
</svg>
