<?xml version="1.0" standalone="no"?>
<!DOCTYPE svg PUBLIC "-//W3C//DTD SVG 1.1//EN" "http://www.w3.org/Graphics/SVG/1.1/DTD/svg11.dtd" >
<svg xmlns="http://www.w3.org/2000/svg" xmlns:xlink="http://www.w3.org/1999/xlink" version="1.1" viewBox="-10 0 748 1000">
   <path fill="currentColor"
d="M130 692q-41 0 -41 -26q0 -15 10.5 -28t30.5 -33t33 -39q27 -39 45 -39q15 0 22.5 14t7.5 25q0 13 -48.5 63.5t-48.5 56.5t-11 6zM203 431q-15 0 -47.5 -9.5t-45.5 -9.5h-10q-2 0 -5 0.5t-4 0.5q-29 0 -29 -21q0 -15 32 -33q9 -5 39 -5q64 0 86 14q11 7 13.5 11.5
t0.5 15.5q-1 10 -9.5 23t-20.5 13zM88 166q0 -4 5.5 -12t5.5 -13q0 -13 22 -13q15 0 19 6q2 3 23.5 22.5t21.5 24.5q0 7 24 18.5t33 31.5q6 14 6.5 17.5t-5.5 13.5q-8 13 -16 10q-12 -3 -15 -3q-11 0 -31.5 -15.5t-22.5 -25.5q-2 -12 -36 -30.5t-34 -31.5zM301 544
q0 -6 -2 -8t-2 -5q0 -1 5 -18t6 -37q3 -48 4 -54q4 -27 -1 -27q-4 0 -4 -4q0 -2 1 -8.5t2 -18t1 -26.5l-3 -37l1 -2q1 -2 2 -7t2 -12.5t2 -22t1 -32.5q0 -31 -5.5 -40.5t-5.5 -22.5q0 -27 3.5 -34.5t13.5 -11.5q15 -6 31 -6q13 0 13 5q0 3 5 3q6 0 72 -10q17 -3 27.5 -5
t13.5 -3.5t6 -2t6.5 -1t11.5 -0.5q32 0 84 5.5t59 9.5q5 3 12.5 18t7.5 21q0 14 -94 14h-29q-23 0 -36 4t-47 5q-52 2 -64 5q-10 3 -12.5 8t-4.5 25q-3 27 -8.5 129.5t-9.5 189.5t-4 91q0 14 12 27l14 14l104 -2q104 -1 111 -7q4 -2 8 -2q16 0 39.5 13.5t23.5 39.5
q0 16 -8 19.5t-26 3.5q-3 0 -17.5 -0.5t-21.5 -0.5h-4q-4 1 -12.5 1.5t-20.5 1t-29.5 1t-39 1t-50.5 1t-61 0.5q-23 0 -33.5 -0.5t-24 -3t-21 -9t-12.5 -17.5q-4 -11 -4 -17t5 -12.5t5 -14.5q0 -3 -2 -14.5t-2 -27.5q0 -21 3 -45t3 -27z" />
</svg>
