<?xml version="1.0" standalone="no"?>
<!DOCTYPE svg PUBLIC "-//W3C//DTD SVG 1.1//EN" "http://www.w3.org/Graphics/SVG/1.1/DTD/svg11.dtd" >
<svg xmlns="http://www.w3.org/2000/svg" xmlns:xlink="http://www.w3.org/1999/xlink" version="1.1" viewBox="-10 0 888 1000">
   <path fill="currentColor"
d="M61 700q5 0 8.5 -3.5t6.5 -8t17.5 -8t39.5 -3.5q9 0 27 0.5t25 0.5q34 0 34 -10q0 -6 7 -11.5t7 -18.5q0 -12 12.5 -37.5t17.5 -43.5l3 -6l5.5 -16.5t7.5 -23t7.5 -27.5t5.5 -28q3 -16 14.5 -44t13.5 -40t12 -28t10 -24q0 -10 4 -14q12 -11 27 -67.5t16 -57.5
q5 -3 0.5 -10t-4.5 -12q0 -13 17.5 -40t35.5 -27q13 0 26 10t17 25q20 83 22 100q2 14 11 37.5t9 28.5q0 2 -1 3.5t-1 2.5q0 2 2.5 5t6 10t5.5 17q3 15 12 35t13 36q4 18 12 33t10 26q18 80 21 96q10 61 32 104q5 10 50 13.5t56 9.5q8 4 14 4q3 0 9 -2.5t13 -2.5q22 0 34 17
t12 32q0 6 -4 6q-5 0 -7 8q-3 8 -18.5 13.5t-32.5 5.5q-20 0 -27 -7q-8 -8 -69 -9q-54 -1 -67 -6t-13 -24q0 -14 -5 -21t-5 -14q0 -8 -11.5 -44t-11.5 -45t-5 -22.5t-5 -21.5q0 -16 -4.5 -19.5t-4.5 -15.5t-11.5 -40.5t-11.5 -33.5q0 -11 -19 -53.5t-19 -49.5q0 -5 -1.5 -7
t-5.5 -9t-9 -22q-13 -40 -24 -40q-7 0 -7 11q0 5 -7.5 16t-8.5 21q-2 14 -6 22.5t-16.5 37t-27.5 78.5q-9 29 -19 56.5t-14.5 40.5t-4.5 23q0 8 -11 29.5t-12 44.5q-1 11 -5 23.5t-4 44.5q0 41 -6 46q-5 3 -62 3q-119 0 -134 -6q-30 -11 -30 -45q0 -7 4 -7z" />
</svg>
