<?xml version="1.0" standalone="no"?>
<!DOCTYPE svg PUBLIC "-//W3C//DTD SVG 1.1//EN" "http://www.w3.org/Graphics/SVG/1.1/DTD/svg11.dtd" >
<svg xmlns="http://www.w3.org/2000/svg" xmlns:xlink="http://www.w3.org/1999/xlink" version="1.1" viewBox="-10 0 825 1000">
   <path fill="currentColor"
d="M110 725q-12 0 -30 -15t-18 -25q0 -3 1.5 -12.5t5.5 -22t10 -14.5q7 -2 27 -22t29 -24q11 -6 26.5 -21.5t15.5 -20.5q0 -8 31.5 -31t37.5 -33q6 -11 23 -23t19 -17q2 -7 25.5 -30t28.5 -23q4 0 4 -9q0 -5 -21 -21.5t-28 -16.5q-2 0 -45 -42t-51 -45q-9 -3 -34.5 -27
t-41.5 -32q-1 0 -13 -7.5t-24.5 -20t-12.5 -22.5q0 -15 4 -19t18 -8q24 -6 25 -6q3 0 19 16t21 16q4 0 16.5 12t32.5 30.5t36 30.5q10 7 18 13.5t11.5 10.5t6 6.5t4 3.5t3.5 1q4 0 43 35t47 38q8 2 8 6q0 3 19 12.5t21 20.5q2 9 3 14.5t1 6.5l1 2q0 8 -11 25.5t-16 17.5
q-4 0 -4 6q0 4 -16.5 16.5t-16.5 15.5q0 5 -4 2q-1 0 -1 -0.5t-1 -0.5q-4 0 -111 97q-69 63 -93 89t-24 44q0 8 -8.5 15.5t-16.5 7.5zM311 119q0 -12 10 -23t25 -11q21 0 57.5 29t68.5 60.5t37 33.5q10 4 35.5 25.5t47.5 40t24 18.5q3 0 11.5 12.5t18.5 15.5q9 3 24 14.5
t37 22.5q40 20 40 44q0 3 -1 9.5t-1.5 9.5t0.5 5q2 2 -1.5 7.5t-10 10.5t-12.5 6q-14 3 -14 7q0 2 -13 8.5t-28 15t-18 14.5q-4 8 -19.5 18t-17.5 13q-5 5 -61 43.5t-81 74.5q-7 10 -13 10q-7 0 -7 7t-5 7q-4 0 -4 7q0 4 -4 7t-12 10.5t-16 19.5q-13 20 -25 20
q-11 0 -28 -18.5t-17 -28.5q0 -19 34 -43t36 -27q8 -11 47 -51.5t43 -40.5q2 0 19 -12t20 -12t10 -11.5t12 -11.5q7 0 7 -5q0 -4 6 -4q5 0 40 -33l34 -33l-18 -18q-14 -13 -34 -25t-25 -19q-4 -6 -14.5 -13t-18 -12.5t-7.5 -9.5q0 -5 -14.5 -16.5t-42 -30.5t-43.5 -32
q-32 -26 -67 -51q-2 -1 -6 -4q-39 -30 -44 -42q-1 -4 -1 -8z" />
</svg>
