<?xml version="1.0" standalone="no"?>
<!DOCTYPE svg PUBLIC "-//W3C//DTD SVG 1.1//EN" "http://www.w3.org/Graphics/SVG/1.1/DTD/svg11.dtd" >
<svg xmlns="http://www.w3.org/2000/svg" xmlns:xlink="http://www.w3.org/1999/xlink" version="1.1" viewBox="-10 0 871 1000">
   <path fill="currentColor"
d="M381 441q0 -14 9.5 -22.5t23.5 -8.5q12 0 21 8t9 21q0 14 -11.5 25t-26.5 11q-11 0 -18 -10.5t-7 -23.5zM638 550q-16 0 -16 9q0 13 48 38q32 18 58 42q25 23 32 23t23 21t16 31q0 12 -13 25q-12 13 -27 10q-24 -5 -57 -40q-53 -55 -71 -63q-15 -8 -17 -11t-33 -20
q-27 -14 -35 -26t-8 -41q0 -16 23 -33.5t42 -22.5q38 -11 38 -27q0 -10 -35 -39q-28 -22 -28 -29t-8 -10q-9 -3 -23.5 -17.5t-14.5 -24.5q0 -20 5.5 -29t25.5 -27q58 -50 58 -61q0 -4 22 -19q14 -9 31 -23.5t33 -24.5q23 -14 29 -14t15.5 9t9.5 14q0 7 -6.5 17.5t-14.5 16.5
q-11 9 -21 29t-26 28q-17 8 -34 31q-19 24 -25 26q-5 2 -10.5 9t-5.5 15q0 21 36 44q12 8 22 16t21 18.5t19 16.5q9 7 10.5 12t-0.5 16q-3 12 -5.5 16t-9 9t-12.5 12q-14 15 -29 23q-15 7 -20 16t-12 9zM95 145q7 -2 18 -2q17 0 34 17q14 14 56 52q12 11 32 29q43 38 51 48
t8 24v8q0 16 -6 24t-23 17q-20 10 -45 36.5t-25 37.5q0 7 32 30q75 52 75 91q0 29 -19 34q-7 2 -37.5 18t-35.5 18q-9 4 -21 24q-12 21 -17 21t-24 23q-15 17 -21 20.5t-22 3.5q-15 0 -20.5 -2.5t-11.5 -12.5q-7 -10 -7 -17q0 -14 41 -58q11 -12 30 -32.5t23 -24.5
q15 -17 22 -17q6 0 17 -9l10 -8l-16 -16q-16 -16 -28 -23q-13 -7 -13 -13t-14 -10q-12 -2 -22.5 -13.5t-10.5 -22.5q0 -19 12.5 -41t22.5 -22q5 0 38 -31l32 -30l-17 -16q-33 -29 -43 -38q-26 -23 -26 -27q0 -5 -31 -38q-16 -16 -16 -22q0 -7 6.5 -17.5t11.5 -12.5z" />
</svg>
