<?xml version="1.0" standalone="no"?>
<!DOCTYPE svg PUBLIC "-//W3C//DTD SVG 1.1//EN" "http://www.w3.org/Graphics/SVG/1.1/DTD/svg11.dtd" >
<svg xmlns="http://www.w3.org/2000/svg" xmlns:xlink="http://www.w3.org/1999/xlink" version="1.1" viewBox="-10 0 664 1000">
   <path fill="currentColor"
d="M451 426q-35 0 -53.5 0.5t-27 2.5t-10 4t-1.5 7q0 4 3.5 31.5t3.5 49.5q0 17 -2 28t-3.5 15.5t-1.5 5.5q0 2 3 6q3 2 2.5 4.5t-2 3.5t-2.5 8t0 19q0 1 0.5 4t0.5 5q0 19 -9 26t-32 7q-12 0 -17 -1t-9.5 -7t-4.5 -19q0 -6 7 -44t7 -77q0 -12 -2 -50l-2 -27l-50 -3
q-10 0 -43.5 -1t-45.5 -2q-34 -1 -59.5 -6t-29.5 -12q-9 -14 -1 -34q2 -6 13.5 -13t17.5 -7h1t4 0.5t6.5 1.5t11 1.5t16.5 1.5l9.5 1t23 2.5t30.5 3.5t32 3.5t27 2.5t16 1l21 1v-73q1 -73 2.5 -86t10.5 -24q10 -12 26 -12q6 0 12.5 2t13.5 11t7 23q0 26 -9 66t-9 58
q0 24 6 28t39 4q32 0 59 -0.5t43 -1.5t26.5 -2.5t16 -2l5.5 -0.5q12 0 25.5 13t13.5 27q0 9 -6.5 17t-15 12.5t-15.5 4.5q-5 0 -7 -2q-5 -6 -92 -6z" />
</svg>
