<?xml version="1.0" standalone="no"?>
<!DOCTYPE svg PUBLIC "-//W3C//DTD SVG 1.1//EN" "http://www.w3.org/Graphics/SVG/1.1/DTD/svg11.dtd" >
<svg xmlns="http://www.w3.org/2000/svg" xmlns:xlink="http://www.w3.org/1999/xlink" version="1.1" viewBox="-10 0 959 1000">
   <path fill="currentColor"
d="M206 287q23 0 23 31q0 18 -20 37l-17 16l21 3q41 6 185 9l23 1l5 -32q6 -31 4 -33l-2 -26t-4 -53.5t-3 -32.5q-4 -13 -16 -3q-6 6 -8 14q-2 13 -8 13q-3 0 -4.5 1.5t-3.5 4t-8 8.5t-16 13q-20 15 -27 11q-7 -5 -18 -5q-15 0 -15 -15q0 -16 26 -42.5t55 -58t34 -57.5
q4 -21 21 -36.5t32 -15.5q10 0 13 9q1 4 4 6.5t6.5 4.5t11.5 8.5t18 17.5q15 16 39.5 34t35.5 31q16 18 31 29q13 9 23.5 27.5t10.5 31.5q0 26 -30 26q-16 0 -29 -17q-19 -25 -56 -58t-46 -33q-8 0 -8 108l1 46v16v23l-1 11q0 29 11 29q2 0 13.5 -2.5t18.5 -2.5l14 4
q13 3 61 3q168 0 168 -4q0 -3 -27.5 -28t-30.5 -25q-12 0 -12 -22q0 -17 7.5 -27.5t17.5 -10.5q13 0 50.5 37t40.5 37q6 0 24 28t18 47q0 15 -9.5 24t-30 21.5t-34.5 27.5q-19 21 -26 21q-5 0 -15 14t-31 14q-34 0 -34 -24q0 -19 21 -44l17 -21h-54q-56 0 -107 -3l-68 -3
l1 54q2 125 10 125q10 0 40 -26.5t45 -26.5q9 0 25 17t16 23q0 5 -28.5 30.5t-41.5 32.5q-21 11 -57 46t-48 37l-23 6q-8 0 -21.5 -18.5t-13.5 -29.5q0 -8 -10.5 -14t-16.5 -13q-4 -5 -7 -7.5t-5.5 -4t-13 -9.5t-25.5 -23l-31 -30l6 -17q8 -21 30 -21q26 0 26 12
q0 7 37.5 33.5t41.5 26.5q8 0 8 -30v-1q0 -1 -0.5 -3t-1 -5.5t-1 -10t-1 -15.5t-0.5 -22.5v-29.5q0 -74 -5 -79q-15 -13 -188 -13q-40 0 -40 9q0 4 13.5 27.5t19.5 30.5q13 15 13 30q0 12 -6.5 20t-18.5 8q-16 0 -28 -9.5t-29 -35.5q-24 -35 -26 -35t-2 -1
q0 -13 -33.5 -37.5t-33.5 -35.5q0 -9 3 -9q4 0 15 -16.5t17 -31.5q7 -17 26 -31q11 -8 23.5 -19t20 -17t10.5 -6q1 0 2 0.5t4 1.5t8 1q1 0 4 -0.5t5 -0.5z" />
</svg>
