<?xml version="1.0" standalone="no"?>
<!DOCTYPE svg PUBLIC "-//W3C//DTD SVG 1.1//EN" "http://www.w3.org/Graphics/SVG/1.1/DTD/svg11.dtd" >
<svg xmlns="http://www.w3.org/2000/svg" xmlns:xlink="http://www.w3.org/1999/xlink" version="1.1" viewBox="-10 0 840 1000">
   <path fill="currentColor"
d="M435 524q0 6 -1.5 14.5t-11.5 21.5t-28 13q-22 0 -36.5 -13t-14.5 -24q0 -19 11.5 -45t28.5 -26q19 0 35.5 18t16.5 41zM510 413q0 -11 17.5 -32.5t36.5 -21.5q13 0 26 21.5t13 39.5q0 37 -43 37q-21 0 -35.5 -12.5t-14.5 -31.5zM215 396q0 -17 14.5 -32t25.5 -15
t33 13.5t22 33.5q0 25 -16.5 34.5t-33.5 9.5q-18 0 -31.5 -14t-13.5 -30zM350 114q12 0 19 -4t38 -4q91 0 126 13.5t102 67.5q21 17 34.5 34.5t23.5 36t17 26.5q10 12 18 49t8 70q0 45 -11.5 80.5t-39.5 85.5q-17 30 -61 64t-63 34q-6 0 -14 4t-20 8.5t-52.5 8.5t-103.5 4
q-50 0 -70 -4.5t-45 -19.5q-1 -1 -9.5 -5.5t-14.5 -7.5q-11 -5 -14.5 -9t-10.5 -14.5t-19 -22.5q-26 -26 -47 -68q-17 -35 -25 -53.5t-15 -48t-7 -62.5q0 -27 8 -53.5t15.5 -43.5t7.5 -20q0 -7 7 -15t9 -16q2 -9 14 -16t12 -11q0 -20 75 -54t108 -34zM356 175q-7 0 -20.5 7
t-22.5 7q-22 0 -70 26.5t-48 37.5q0 4 -6 11.5t-15 21.5t-13 32l-5 10q-6 10 -11 26.5t-5 36.5q0 22 15 62.5t21 49.5q9 16 13 25q5 12 29.5 38t30.5 26q3 0 9 5t15 11.5t38 11.5t73 5q14 0 44 -1t77 -8t56 -19q2 -3 16 -10.5t29.5 -22t25.5 -37.5q9 -22 18 -31
q11 -12 18.5 -41t7.5 -57q0 -18 -6 -39.5t-12 -34.5t-9 -13q-4 0 -4 -7q0 -5 -21 -34.5t-30 -37.5q-29 -23 -66.5 -40t-62.5 -17h-16v41q0 37 -6 74t-6 42q0 6 5 17.5t5 27.5q0 53 -41 53q-16 0 -24 -8.5t-9.5 -19t-1.5 -32.5q0 -33 4 -72t4 -59q0 -64 -23 -64z" />
</svg>
