<?xml version="1.0" standalone="no"?>
<!DOCTYPE svg PUBLIC "-//W3C//DTD SVG 1.1//EN" "http://www.w3.org/Graphics/SVG/1.1/DTD/svg11.dtd" >
<svg xmlns="http://www.w3.org/2000/svg" xmlns:xlink="http://www.w3.org/1999/xlink" version="1.1" viewBox="-10 0 721 1000">
   <path fill="currentColor"
d="M566 497q0 -9 -1.5 -24t-1.5 -23q0 -25 10 -36.5t24 -11.5q11 0 18.5 6t7.5 15q0 4 4 13t4 26q0 8 -0.5 11t-1.5 4t-3 4t-4.5 8t-6 19.5t-7.5 36.5q-3 16 -8.5 26.5t-13 20.5t-12.5 20q-9 20 -40.5 49.5t-39.5 29.5q-4 0 -15.5 9t-24.5 11t-53.5 18.5t-56.5 16.5
q-23 0 -48 -9.5t-32 -10.5q-29 -5 -54.5 -29.5t-29.5 -24.5q-5 0 -25 -20.5t-20 -26.5q0 -5 -14 -27t-14 -26q0 -1 -8 -21t-16 -51t-8 -58q0 -14 6.5 -22t12.5 -9l7 -1q4 0 9.5 4.5t11.5 4.5q10 0 17.5 29t13 61t9.5 36q3 2 20 31t20 30q1 0 3 4.5t7 11.5t13.5 14.5t24.5 16
t37 15.5q30 10 36 10q11 0 51.5 -9.5t65.5 -22.5q12 -6 23.5 -10.5t15 -6t3.5 -4.5q0 -5 7 -5q12 0 42 -40t30 -55q0 -2 -1 -3q-2 -2 -1 -3.5t2.5 -1.5t3 -5.5t1.5 -14.5zM94 215q0 -12 7.5 -19t13.5 -8t9 -1q11 0 36.5 22.5t29.5 23.5q4 0 9 6t15 15t22 15q14 7 18.5 12.5
t17.5 30.5q3 5 0 8t-6.5 3.5t-6.5 0.5q-11 0 -25.5 -7t-17.5 -14q-2 -6 -8 -6t-27.5 -8t-52.5 -32q-21 -16 -26 -16q-2 0 -5 -9t-3 -17zM590 146q0 -4 9 -8t19 -4q24 0 24 19q0 11 -5.5 26t-9.5 15q-8 0 -30.5 19t-27.5 31q-6 13 -16 23t-10 16t-10.5 19.5t-15.5 13.5
t-20.5 -8.5t-20.5 -14.5q-11 -12 0 -29.5t27.5 -34t16.5 -21.5q0 -8 22 -28.5t35 -24.5t13 -9zM346 117q0 -32 2.5 -38.5t13.5 -6.5q18 0 29 13.5t12.5 24t1.5 20.5q0 4 -2.5 20t-2.5 39l1 22q0 62 -29 62q-30 0 -30 -25q0 -7 2.5 -32t2.5 -31v-5q0 -4 -0.5 -11t-0.5 -15.5
v-18.5v-18z" />
</svg>
