<?xml version="1.0" standalone="no"?>
<!DOCTYPE svg PUBLIC "-//W3C//DTD SVG 1.1//EN" "http://www.w3.org/Graphics/SVG/1.1/DTD/svg11.dtd" >
<svg xmlns="http://www.w3.org/2000/svg" xmlns:xlink="http://www.w3.org/1999/xlink" version="1.1" viewBox="-10 0 807 1000">
   <path fill="currentColor"
d="M205 121q0 -10 9.5 -20t18.5 -10q13 0 35.5 22.5t26.5 32.5q3 10 8 10q4 0 4 5q0 9 46.5 59t58.5 50q7 0 33 -26.5t26 -29.5q0 -5 31 -35.5t36 -30.5q6 0 31 -12t47 -12q21 0 40.5 6.5t29.5 14.5t10 13l4 6q3 5 7.5 14t9 20t8 24.5t3.5 25.5q0 21 -12 58.5t-36 62.5
q-19 20 -30 25t-37 5q-57 0 -92.5 -7.5t-48 -15t-14.5 -7.5q-5 0 -13 8q-11 10 -15.5 31t-10.5 27q-4 4 -4 9q0 15 38 32q9 4 43.5 36t50.5 39q13 6 45 35.5t38 33.5q12 7 16 13q3 4 17.5 6.5t26 12t11.5 30.5q0 14 -12 25.5t-26 11.5q-13 0 -34 -12.5t-24 -21.5
q-2 -7 -34 -33.5t-37 -26.5q-4 0 -25.5 -17.5t-48 -38.5t-41.5 -27q-13 -6 -19 -13t-10 -7q-10 0 -23.5 25t-16.5 27q-2 1 -12 19.5t-33 33.5q-26 17 -26 24t-7 7q-3 0 -35 13t-54 13t-68 -29t-46 -70q0 -19 1.5 -33.5t3.5 -21t3.5 -10.5t3 -5.5t1.5 -2.5l-2 -4
q-3 -4 4.5 -17t7.5 -17q0 -5 13.5 -20.5t18.5 -15.5q3 0 5 -3t11.5 -10t25.5 -15q25 -12 78 -12q52 0 63 7q18 12 35 12q21 0 21 -17q0 -6 11 -28t11 -34q0 -13 -10 -13q-6 0 -59 -50.5t-58 -65.5q-2 -7 -14 -15.5t-16 -17.5t-15 -29q-8 -15 -8 -26zM672 262
q0 -36 -16.5 -54.5t-36.5 -18.5q-49 0 -88 46q-10 12 -19.5 21t-13.5 12.5t-6 6.5t-2 6q0 7 -4 7t-9 11q-4 8 -1.5 11t19.5 10q26 10 30 10q2 0 8.5 3.5t40.5 3.5q62 0 80 -12t18 -63zM320 491q0 -16 -33.5 -24.5t-55.5 -8.5q-27 0 -62.5 21.5t-36.5 42.5q0 8 -3.5 14.5
t-3.5 14.5q0 12 3.5 24.5t7.5 12.5q7 0 7 5q0 8 17.5 15.5t38.5 7.5h28l40 -40q40 -40 40 -45q0 -3 6.5 -18t6.5 -22z" />
</svg>
