<?xml version="1.0" standalone="no"?>
<!DOCTYPE svg PUBLIC "-//W3C//DTD SVG 1.1//EN" "http://www.w3.org/Graphics/SVG/1.1/DTD/svg11.dtd" >
<svg xmlns="http://www.w3.org/2000/svg" xmlns:xlink="http://www.w3.org/1999/xlink" version="1.1" viewBox="-10 0 851 1000">
   <path fill="currentColor"
d="M146 616q18 0 23 4t10 4q18 0 21 -28q0 -3 2.5 -11.5t13 -19.5t26.5 -11q18 0 25.5 8t7 17t3.5 17t16 8q10 0 16 -6.5t8 -16.5t5.5 -21.5t7.5 -21.5t15.5 -16.5t28.5 -6.5q13 0 19 15.5t8 33.5t16 33.5t41 15.5q13 0 25.5 -23.5t12.5 -35.5v-7q-1 -4 -1 -9q0 -3 5 -13.5
t5 -36.5q0 -20 -3.5 -44t-3.5 -29q0 -18 27 -18q26 0 38 10q7 7 7 57q0 43 -5 85t-12 46q-4 2 -4 14q0 11 -6 15q-14 9 -22 27.5t-18 28.5q-12 12 -20 12q-2 0 -9.5 -2t-15.5 -2q-5 0 -11.5 1t-10.5 1q-14 0 -25 -9t-15 -9q-3 0 -14 -13l-10 -12l-23 8q-14 5 -23 10.5
t-11.5 8t-10 4.5t-21.5 2h-32q-25 0 -38.5 9.5t-27.5 9.5q-16 0 -40 -13.5t-26 -13.5q-9 0 -11.5 -0.5t-3.5 -3t-1 -8.5q0 -5 2 -12t5 -12.5t7 -10.5t8 -6q7 -3 20 -3zM664 341q0 -10 -2.5 -30.5t-2.5 -26.5q0 -9 6 -14t8 -11q1 -5 12 -5q19 0 32 10q12 9 15.5 35t3.5 63.5
t4 56.5q2 11 3.5 109t5.5 118q4 17 4 33q0 13 -2.5 19.5t-12 11t-27.5 4.5q-23 0 -30 -8t-7 -39l0.5 -10t0.5 -25.5t0.5 -33.5t1 -38t0.5 -35q0 -152 -10 -165q-3 -3 -3 -19zM534 284q0 1 -6 13t-6 17q0 6 -10 15.5t-16 9.5q-10 0 -25.5 -17.5t-15.5 -34.5q0 -9 4 -14
q3 -4 4 -9t0 -8.5t-2.5 -6t-3.5 -4.5l-1 -1q0 3 -13.5 13t-31.5 24.5t-26 26.5q-17 23 -60 51t-58 42q-24 22 -27 22q-2 0 -18 14.5t-20 14.5q-5 0 -15 9.5t-18 21.5t-8 17q0 8 -10.5 14.5t-21.5 8.5l-10 2q-8 0 -26.5 -10.5t-23.5 -22.5q-3 -9 -0.5 -14t15.5 -16
q50 -44 79 -63q21 -14 21 -21q0 -6 4 -6q2 0 18 -14t23 -16q6 -2 43 -35.5t42 -33.5q7 0 18.5 -8t11.5 -13q0 -9 30 -30t30 -23q0 -8 -33 -8q-27 0 -40 -6.5t-13 -24.5q0 -13 11 -21t18 -9t12 -1q3 0 9 2q5 2 10.5 -2.5t11.5 -2.5q5 2 31 3t53 2.5t34 3.5q4 1 7 3t5 5t4 7.5
t3 10.5t1.5 13.5t0.5 17.5q0 9 -1 25t-1 26q0 13 1 21.5t2.5 11.5l2.5 5t1 3zM619 130q0 -32 23 -60t42 -25q7 1 20.5 8.5t28.5 29t15 48.5q0 23 -20 32.5t-46 11t-30 3.5q-2 1 -3.5 -0.5t-3 -4t-4 -5t-5.5 -2.5q-7 0 -12 -10.5t-5 -25.5z" />
</svg>
