<?xml version="1.0" standalone="no"?>
<!DOCTYPE svg PUBLIC "-//W3C//DTD SVG 1.1//EN" "http://www.w3.org/Graphics/SVG/1.1/DTD/svg11.dtd" >
<svg xmlns="http://www.w3.org/2000/svg" xmlns:xlink="http://www.w3.org/1999/xlink" version="1.1" viewBox="-10 0 818 1000">
   <path fill="currentColor"
d="M313 350q28 0 46 -6t20 -6q19 0 65 8.5t61 8.5q12 0 33 -3t31 -3q9 0 25.5 4.5t33.5 4.5q27 0 41 3.5t18 8t9 15.5q7 15 7 22q0 3 -5.5 10t-5.5 20q0 28 10 74t11 57q2 24 6 47.5t4 27.5q0 6 -5.5 14.5t1.5 11.5q5 5 5.5 13t-4.5 11q-10 5 -47 5q-21 0 -27 -4t-54 -4
q-52 0 -102.5 0.5t-89 1.5t-72.5 2t-58.5 2t-42.5 2t-27 2h-10q-7 0 -22 -7.5t-20 -13.5q-5 -7 -21 -7q-31 0 -31 -22q0 -5 2.5 -28t2.5 -32q0 -13 -2 -39t-4.5 -53.5t-5.5 -52.5t-5 -42l-2 -17q0 -10 8.5 -14t12.5 -2q6 2 22 -14l16 -16l63 1q43 1 73 5t36 4zM525 410
q-13 0 -27.5 -0.5t-26.5 -2t-24 -2.5t-21.5 -2.5t-16.5 -3t-11 -1.5l-4 -1q-1 0 -5.5 2.5t-15 5.5t-27.5 3q-10 0 -45.5 -2t-65.5 -2q-87 0 -87 14v2l1 2q2 5 4.5 67t5.5 66q3 5 3 23.5t3 33.5t12 15q1 0 14.5 -4.5t18.5 2.5q8 5 91 5q60 0 89.5 -3.5t37.5 -3.5q2 0 29 1
t67 1q119 0 128 -6q5 -3 5 -23q0 -21 -5.5 -47t-12.5 -35q-3 -4 -7.5 -40.5t-8.5 -43.5q-5 -8 -31 -14t-56 -6h-11zM350 230q0 -34 17.5 -58t42.5 -24q24 0 72 39q23 19 23 50q0 17 -18 27t-48 10q-67 0 -67 -17q0 -7 -9 -7q-13 0 -13 -20z" />
</svg>
