<?xml version="1.0" standalone="no"?>
<!DOCTYPE svg PUBLIC "-//W3C//DTD SVG 1.1//EN" "http://www.w3.org/Graphics/SVG/1.1/DTD/svg11.dtd" >
<svg xmlns="http://www.w3.org/2000/svg" xmlns:xlink="http://www.w3.org/1999/xlink" version="1.1" viewBox="-10 0 838 1000">
   <path fill="currentColor"
d="M113 523q0 -3 -22.5 -33.5t-22.5 -43.5q0 -17 17 -32.5t28 -19.5q21 -8 56 -45.5t39 -38.5q9 -4 9 -10q0 -4 5 -9.5t13.5 -15.5t15.5 -22t22 -29.5t26 -31t11 -17.5q0 -8 35 -30t43 -34q5 -8 10 -9.5t22 0.5q29 4 41.5 13.5t59.5 62.5q11 12 31.5 42.5t58.5 71.5
q37 41 37 46q0 6 7 6q6 0 8.5 5t4 12t8 16.5t17.5 17.5q12 8 22.5 23t20.5 22q17 11 17 25t-17.5 38.5t-17.5 25.5t-14 17.5t-14 25.5q0 8 -16.5 25t-16.5 23q0 14 -16 37t-29 26q-10 2 -18 12.5t-25 7.5q-67 -10 -93 -10l-14 1q-14 0 -35.5 1t-45.5 2t-48.5 1.5t-40.5 0.5
q-54 0 -72 -7.5t-18 -28.5q0 -12 -3.5 -23.5t-8 -17.5t-6.5 -6t-5 -7t-13.5 -23t-26.5 -33q-26 -28 -26 -30zM535 302q0 -12 -49 -71.5t-61 -59.5q-2 0 -2 3q0 1 -30.5 24.5t-30.5 29.5q0 3 -40 44t-40 51q0 7 -4 7t-22 25.5t-20 25.5t-7 7.5t-15.5 18t-23.5 17.5
q-34 16 -34 39q0 15 23.5 45t31.5 48q7 16 21.5 29t25 20.5t10.5 12.5q0 7 28 7q19 0 28 2.5t36 2.5q48 0 75 -3.5t42 -1.5q70 11 72 11q8 0 19 -12q18 -21 22 -24q8 -8 13 -22.5t8 -16.5q4 -2 4 -11q0 -6 7 -11t7 -16q0 -8 3 -12.5t6.5 -5t6 -2t0.5 -6.5q-2 -6 5 -10.5
t7 -13.5q0 -8 -7 -24t-7 -23q0 -6 -8.5 -16t-25.5 -28t-30 -34t-24.5 -26.5t-15.5 -13.5t-4 -6z" />
</svg>
