<?xml version="1.0" standalone="no"?>
<!DOCTYPE svg PUBLIC "-//W3C//DTD SVG 1.1//EN" "http://www.w3.org/Graphics/SVG/1.1/DTD/svg11.dtd" >
<svg xmlns="http://www.w3.org/2000/svg" xmlns:xlink="http://www.w3.org/1999/xlink" version="1.1" viewBox="-10 0 856 1000">
   <path fill="currentColor"
d="M443 84h2t6.5 0.5t10.5 1t15 0.5h20l43 1l42 27q45 29 82.5 62t44.5 52q6 13 8 13t11.5 15t22 57.5t16.5 96.5q1 8 2.5 13.5t2 6t-1.5 5.5q-12 18 -12 39q0 18 -11 43t-13 40q-2 16 -37 49.5t-35 36.5q0 5 -9 5t-11 5q-2 6 -37 25.5t-97 40t-119 20.5q-59 0 -122 -18
q-26 -8 -37 -14.5t-28 -23.5t-31.5 -27t-24 -18t-19.5 -25q-17 -28 -27 -40q-19 -23 -19 -118q0 -25 1 -43.5t2 -27.5t2.5 -14.5t2.5 -7l2 -3t1 -3.5q0 -13 29 -94q8 -24 18 -37t33 -29q8 -6 20.5 -17t21 -19t10.5 -8q7 0 29 -11.5t24 -11.5q20 -1 45 -7t30 -10
q8 -7 43.5 -17.5t47.5 -10.5zM652 255q0 -11 -57 -57t-89 -46q-14 0 -31.5 10t-25.5 10q-4 0 -10.5 -3t-23.5 -3t-24.5 1.5t-19.5 5t-34 6.5q-37 5 -72 22.5t-35 35.5q0 8 -9 8q-7 0 -13.5 5.5t-12.5 8.5q-8 3 -19 24t-16 26q-8 9 -14.5 56t-13.5 56q-7 7 -7 48q0 30 5 31
q5 2 3.5 9.5t1.5 13.5q5 8 8 18q4 17 45 54.5t65 45.5q8 3 30 15t46 15q28 3 75 3q67 0 77 -5q47 -25 59 -25q1 0 16 -8t37.5 -24.5t44 -37.5t39 -50t20.5 -59q3 -29 3 -55q0 -30 -5 -56.5t-12 -43.5t-14 -29t-12 -18.5t-5 -7.5z" />
</svg>
