<?xml version="1.0" standalone="no"?>
<!DOCTYPE svg PUBLIC "-//W3C//DTD SVG 1.1//EN" "http://www.w3.org/Graphics/SVG/1.1/DTD/svg11.dtd" >
<svg xmlns="http://www.w3.org/2000/svg" xmlns:xlink="http://www.w3.org/1999/xlink" version="1.1" viewBox="-10 0 763 1000">
   <path fill="currentColor"
d="M212 302q1 0 15.5 -9.5t25.5 -9.5q9 0 12 -2.5t5.5 -6t24.5 -9t63 -10.5q23 -3 40 -3q33 0 64 12.5t52 25t29 12.5t31.5 19.5t44.5 43.5q25 28 40.5 64.5t19 54.5t3.5 24q0 17 -31 17q-33 0 -40 -6.5t-7 -32.5q0 -22 -6.5 -31t-6.5 -12q0 -10 -27 -43t-56 -41
q-16 -5 -25.5 -12.5t-12.5 -7.5t-35 -12.5t-51 -12.5q-8 0 -21 5.5t-27 5.5q-21 0 -25 4q-3 2 -22 10t-30 16q-4 3 -12.5 8t-10.5 7q-8 4 -26 34t-18 39q0 5 -7.5 13t-7.5 16q0 11 -19 17q-9 2 -17.5 5.5t-13 5t-8.5 1.5q-6 0 -17 -3t-14 -3q-6 0 -7.5 -1t-3.5 -7
q-1 -3 -2.5 -10t-2.5 -9q-3 -7 3 -7q7 0 15.5 -23.5t14.5 -25.5q4 -2 9 -10.5t14 -22t20 -23.5q58 -54 64 -54z" />
</svg>
