<?xml version="1.0" standalone="no"?>
<!DOCTYPE svg PUBLIC "-//W3C//DTD SVG 1.1//EN" "http://www.w3.org/Graphics/SVG/1.1/DTD/svg11.dtd" >
<svg xmlns="http://www.w3.org/2000/svg" xmlns:xlink="http://www.w3.org/1999/xlink" version="1.1" viewBox="-10 0 873 1000">
   <path fill="currentColor"
d="M394 534q0 -5 -3.5 -14.5t-3.5 -13.5q0 -1 3 -10t4 -26l1 -26l-28 -3q-7 -1 -27 -1q-76 0 -76 7q0 3 -35 1q-8 -1 -20 -1q-17 0 -33 9.5t-32 9.5q-20 0 -31 -11.5t-11 -21.5t-1 -12.5t-9 -7.5q-7 -6 -9 -11t0 -19q2 -15 8.5 -31t6.5 -44q0 -22 -2.5 -99.5t-6.5 -83.5
q-2 -4 0 -13t-2 -13q-8 -10 -8 -23q0 -6 2 -13t12.5 -15.5t28.5 -8.5q25 0 25 -4q0 -5 4 -3q3 1 130 7.5t133 6.5q20 0 43 -3t39 -3q23 0 61.5 4.5t56.5 4.5q14 0 54 -2t53 -2q23 0 32 14t10 64q6 183 8.5 221t10.5 53q5 12 5 20q0 19 -15 25t-55 6q-42 0 -117.5 -7.5
t-101.5 -7.5q-17 0 -24.5 1t-9 3t-1.5 6q0 11 -2.5 46t-2.5 54q0 40 6 73t12 50.5t6 22.5q0 9 -9.5 23.5t-28.5 14.5q-22 0 -36 -18t-16 -47l-2 -22q-1 -21 -2.5 -44t-1.5 -26q0 -16 4 -25t4 -11zM370 102q-24 -4 -82 -4q-33 0 -53.5 3t-36.5 4q-29 1 -35.5 12.5t-10.5 64.5
q-3 45 -3 82q0 59 8 73q6 18 8 26l6 22l38 -2q42 -2 97 -2q46 0 76 -3l17 -2l-2 -76q-2 -76 -2 -92q0 -22 1 -36t2 -19t1 -7q0 -3 -4 -18q-4 -16 -7.5 -20t-17.5 -6zM708 362q0 -3 -1.5 -7t-3.5 -6.5t-3 -5t0.5 -3.5t5.5 -1q10 0 10 -18q0 -5 -4 -36t-6 -70q-4 -72 -13 -87
t-52 -17q-19 -1 -34 -4t-16 -4t-5 1q-1 2 -41 2h-20l-57 -1l-2 25q-1 19 -6 42.5t-5 25.5l1 10q0 11 1 28t2.5 38t2 47t0.5 50q0 6 22 3q12 -2 51 -2q14 0 34 1t39 2t35.5 2.5t26.5 2.5l11 1q27 0 27 -19z" />
</svg>
