<?xml version="1.0" standalone="no"?>
<!DOCTYPE svg PUBLIC "-//W3C//DTD SVG 1.1//EN" "http://www.w3.org/Graphics/SVG/1.1/DTD/svg11.dtd" >
<svg xmlns="http://www.w3.org/2000/svg" xmlns:xlink="http://www.w3.org/1999/xlink" version="1.1" viewBox="-10 0 909 1000">
   <path fill="currentColor"
d="M396 328q0 -17 18.5 -45t41.5 -28q24 0 41 18.5t17 46.5q0 24 -20 37.5t-40 14.5l-19 2q-17 0 -32 -9.5t-15 -17.5q0 -1 4 -7t4 -12zM96 439q0 -9 -1 -12t-1 -7q0 -2 3 -14t3 -31q0 -50 -9 -50q-4 0 -4 -74q0 -29 2 -36.5t11 -14.5q13 -11 22 -11q10 0 24 13t14 21v1
q-1 1 -1.5 4.5t-0.5 8.5t-0.5 14.5t-0.5 21.5v69q0 30 -2.5 45.5t-4.5 20t-2 6.5q0 13 12 20t25 7q3 0 15.5 -2t25.5 -2q27 0 65 8.5t48 8.5q9 0 21 -2t19 -2q12 0 42.5 8t47.5 8q8 0 20 -5.5t43 -6.5q144 -5 184 -13q17 -5 17 -30v-5q0 -14 3 -41t3 -34q0 -11 -4.5 -15
t-4.5 -7q0 -2 3.5 -16t3.5 -38q0 -38 1 -38q4 0 9 -12q5 -11 25 -11q19 0 30 13t13 22t2 14q0 9 -6.5 18t-4.5 14q1 6 -2 9q-3 2 -3 52q0 67 6 102t6 37q1 18 -0.5 22t-11.5 8t-126 9.5t-187 5.5q-28 0 -78.5 -4.5t-125.5 -4.5q-113 0 -122 6q-14 3 -29 3q-41 0 -41 -32
q0 -7 2 -22.5t2 -26.5z" />
</svg>
