<?xml version="1.0" standalone="no"?>
<!DOCTYPE svg PUBLIC "-//W3C//DTD SVG 1.1//EN" "http://www.w3.org/Graphics/SVG/1.1/DTD/svg11.dtd" >
<svg xmlns="http://www.w3.org/2000/svg" xmlns:xlink="http://www.w3.org/1999/xlink" version="1.1" viewBox="-10 0 809 1000">
   <path fill="currentColor"
d="M250 339q5 0 14 -6.5t20.5 -13.5t44 -13.5t80.5 -6.5q24 0 37.5 3.5t17 7t7.5 7t10 3.5q11 0 32 16.5t35 36.5q18 27 23 27q3 0 9 22t9 23q4 2 63 2q43 0 52.5 2t20.5 13q13 13 13 19q0 4 -2 10t-15.5 15t-37.5 9q-12 0 -33 -2t-29 -2q-16 0 -21.5 5.5t-7.5 21.5
q-4 35 -15 74t-17 43q-4 3 -4 13q0 7 -1 7l-1 -1h-4q-7 0 -19 18q-11 17 -51.5 27.5t-50.5 17.5q-17 12 -65 12q-61 0 -88 -15q-9 -4 -21.5 -20.5t-12.5 -23.5q0 -5 -21.5 -28t-23.5 -40t-14.5 -46t-12.5 -65q0 -22 1.5 -35.5t4 -17t4 -6.5t1.5 -6q0 -7 17 -32.5t17 -42.5
q0 -27 15 -27q3 0 5 1q7 2 7 -1q0 -5 8 -5zM253 456q7 0 40 5.5t48 5.5q36 0 90 -4t65 -4t17 2q7 4 8.5 2.5t1.5 -12.5q0 -16 -8 -26q-9 -11 -41.5 -34.5t-39.5 -23.5q-4 0 -15 -6.5t-33 -6.5q-32 0 -69 9q-24 6 -51.5 35t-27.5 47q0 11 13 11h1h1zM240 577q0 1 -1 2.5
t-1 2.5q0 3 6.5 14.5t8.5 20.5q3 11 22 25t21 18q2 7 9 7q2 0 18 10t39 10q35 0 100 -34q26 -13 32.5 -20t19.5 -32q25 -48 25 -75q0 -8 -8 -8q-4 0 -17 3t-20 3t-12.5 -3t-13.5 -3q-7 0 -25 3t-25 3q-8 0 -10 -2q-3 -2 -4.5 -2t-3 1t-8 2.5t-17.5 1.5q-16 0 -16 -3
q0 -4 -7 -6t-9 0t-39.5 4.5t-60.5 2.5h-5l-16 -1l3 22q1 10 4 16.5t5 9t4 4.5t2 3zM60 150q0 -16 12.5 -23t21.5 -7q13 0 34 28q10 14 28 35t27.5 34.5t9.5 21.5q0 24 -16 30q-16 7 -42.5 -27t-36.5 -34q-5 0 -6.5 -0.5t-1.5 -2.5t-0.5 -5t-3.5 -8t-10 -11q-16 -15 -16 -31z
M550 283q-15 0 -28 -12t-13 -30q0 -32 37 -63q18 -16 46 -44q19 -19 27 -24t18 -5q31 0 31 32q0 17 -20 37q-48 46 -58.5 57.5t-10.5 22.5q0 13 -8.5 21t-20.5 8zM313 177q0 -7 6 -21t6 -20q0 -4 -4 -17.5t-4 -30.5q0 -45 30 -45q12 0 22 10q14 16 14 105q0 63 -31 63
q-10 0 -20.5 -7.5t-10.5 -15.5q0 -6 -4 -11t-4 -10z" />
</svg>
