<?xml version="1.0" standalone="no"?>
<!DOCTYPE svg PUBLIC "-//W3C//DTD SVG 1.1//EN" "http://www.w3.org/Graphics/SVG/1.1/DTD/svg11.dtd" >
<svg xmlns="http://www.w3.org/2000/svg" xmlns:xlink="http://www.w3.org/1999/xlink" version="1.1" viewBox="-10 0 864 1000">
   <path fill="currentColor"
d="M258 619q0 -19 11 -27.5t21 -8.5q16 0 37.5 27t38.5 58l18 30q7 8 10 8t15 -6q17 -8 56 -52.5t56 -56.5q17 -11 17 -19q0 -6 14 -16.5t16 -21.5q1 -8 2.5 -11.5t6 -5.5t14.5 -2q53 0 53 37q0 6 -4 11t-4 10q0 6 -34 27t-38 28q-10 18 -44 55.5t-62.5 67.5t-28.5 35
q0 4 -4 10.5t-16.5 13t-30.5 6.5q-14 0 -19 -4q-7 -5 -17.5 -27t-10.5 -30q0 -11 -15.5 -38.5t-28.5 -38.5q-29 -26 -29 -59zM374 189q11 0 30.5 -8.5t41.5 -8.5q23 0 63 22t48 36q8 13 20 17q15 4 31.5 47.5t16.5 66.5q0 36 -24.5 87t-56.5 66q-11 5 -37.5 11t-39.5 6
q-2 0 -4 -1h-2q-5 -1 -6.5 0t-5.5 2.5t-9 1.5q-30 0 -94 -26.5t-64 -42.5q0 -12 -14.5 -41.5t-14.5 -39.5q0 -4 1 -6q3 -8 5.5 -32.5t11 -48.5t28.5 -43q15 -13 10 -13q-10 0 1 -20q5 -9 28 -20.5t36 -11.5zM473 245q-2 0 -5 -2.5t-7 -5t-14.5 -5t-24.5 -2.5
q-15 0 -26.5 12.5t-13.5 12.5q-6 0 -31 29.5t-25 36.5q0 3 -6.5 15.5t-6.5 35.5q0 24 5 26q3 2 11 16t26 19q10 3 48 20.5t55 17.5q3 0 9 -2.5t12 -2.5q32 0 57 -21q25 -22 25 -102q0 -25 -22.5 -49.5t-42.5 -36.5t-23 -12zM126 555q-40 0 -40 -37q0 -10 7.5 -30t7.5 -29
v-74q0 -12 6.5 -51t12.5 -73l6 -34q0 -4 17.5 -21.5t25.5 -34.5q7 -16 25 -31.5t26 -31.5q11 -22 18 -22q6 0 21 -9.5t21 -9.5t20 -10t18 -11q21 -4 55.5 -17t47.5 -13q2 0 16 2q29 3 32 -5q1 -4 5.5 -6t8 -1t3.5 5q0 5 15 5q11 0 22 5.5t27 7.5q22 2 42.5 11.5t31.5 17.5
l12 9q2 0 22.5 18t43 46.5t24.5 50.5q2 18 9.5 55.5t7.5 43.5q0 7 5.5 59t5.5 80q0 13 -1.5 16.5t-1.5 7.5q0 16 3.5 36t7 34.5t3.5 16.5q0 22 -30 22q-34 0 -45 -9q-7 -6 -7 -32q0 -18 3.5 -53.5t3.5 -55.5q0 -13 -5.5 -86t-10.5 -79q-3 -3 -7.5 -26.5t-9.5 -27.5
q-7 -5 -7 -10q0 -10 -32.5 -39.5t-46.5 -32.5q-7 -1 -16 -5t-25 -6.5t-47 -2.5q-54 0 -93 6.5t-56.5 13t-19.5 6.5q-11 0 -11 5q0 4 -5 4q-8 0 -44.5 33t-47.5 60q-6 15 -20 37q-20 29 -22 102q0 15 -7 144q-1 34 -7.5 45t-23.5 11z" />
</svg>
