<?xml version="1.0" standalone="no"?>
<!DOCTYPE svg PUBLIC "-//W3C//DTD SVG 1.1//EN" "http://www.w3.org/Graphics/SVG/1.1/DTD/svg11.dtd" >
<svg xmlns="http://www.w3.org/2000/svg" xmlns:xlink="http://www.w3.org/1999/xlink" version="1.1" viewBox="-10 0 813 1000">
   <path fill="currentColor"
d="M148 664q5 0 14.5 -3t17.5 -3q13 0 13 -3l-10 -13q-10 -13 -10 -26q0 -21 -10.5 -35.5t-10.5 -15.5t1 -1t-4.5 -12t-13 -23.5t-9.5 -11.5q-1 0 -1 -7q0 -14 4 -110q4 -87 17 -95q9 -5 9 -10q0 -2 13 -13.5t13 -19.5q0 -7 20.5 -21.5t34.5 -16.5q9 -1 12.5 -4t2 -5.5
t-0.5 -4.5t7 -2q17 0 10 -16q-2 -4 -2 -11q0 -20 29 -37l12.5 -7.5t13.5 -7.5t9 -5q14 -10 38 -13.5t42.5 -4.5t20.5 -3t29 -2q68 0 106 17q20 9 44 33.5t29 40.5q4 11 8 20t6 14t2 14q0 15 -6.5 26.5t-6.5 15.5q0 8 19 20q33 19 54 48.5t21 54.5q0 16 -8.5 29.5t-8.5 15.5
q0 6 -8 6q-3 0 -15 15.5t-34 19.5q-18 5 -18 6q0 3 11.5 22t14.5 29q2 7 9.5 23.5t7.5 31.5q0 19 -52 71q-15 12 -49.5 30.5t-41.5 18.5q-10 0 -46.5 13t-36.5 17t-2 1q-7 -8 -13 -5q-5 3 -35 4t-34 5q-6 3 -6.5 2t-5 -4.5t-14.5 -3.5q-14 0 -34.5 -12t-54.5 -12
q-1 0 -39 0.5t-65 0.5q-29 0 -43 3l-14 3q-42 0 -42 -31q0 -6 1 -13.5t11.5 -20t29.5 -12.5q6 0 23.5 3t24.5 3zM317 187q0 5 38.5 18t38.5 18q0 4 8 0h1q8 0 27.5 20.5t22.5 32.5q3 9 22 9q6 0 16 -0.5t28 -1.5t33 -2q22 -1 34.5 -12t12.5 -27q0 -2 -1 -7.5t-6 -17
t-12.5 -22.5t-22 -21.5t-32.5 -16.5q-24 -8 -74 -8q-13 0 -21 1.5t-8.5 2.5t-6.5 0h-2q-13 0 -54.5 12.5t-41.5 21.5zM272 639q11 0 36 -27.5t25 -35.5q0 -7 -14 -7q-10 0 -15 3.5t-13 3.5q-51 0 -51 -29q0 -15 13 -34t21 -23q31 -14 107 -26q16 -2 20 -5.5t9 -20.5
q8 -26 8 -34q0 -6 -3.5 -7.5t-14.5 0.5q-13 2 -28 5t-20 3q-26 0 -26 -24q0 -21 24 -50t36 -29q3 0 7.5 -2.5t4.5 -5.5q0 -8 -28 -24l-27 -16q-4 -4 -15 -4q-20 0 -51 8.5t-41 17.5q-14 12 -17 12t-9.5 11.5t-14.5 25.5t-13 19q-9 8 -9 56v15q0 57 -4 65q-5 5 0 11t5 12
q0 7 11.5 30t11.5 28t10 13t16 21q8 17 23 30.5t25 13.5h1zM589 468q19 0 52 -27t33 -46q0 -10 -11 -24.5t-24 -21.5q-16 -8 -51 -8q-25 0 -43.5 5t-65.5 29q-1 1 -2 11t-3 21.5t-5 16.5q-9 15 -2 25q1 2 4 1q7 -2 59.5 8t58.5 10zM626 589q0 -8 -12.5 -24.5t-19.5 -21.5
q-9 -6 -27 -6q-14 0 -18.5 1t-6.5 2.5t-22 5.5t-57 8l-38 4l-27 30q-70 76 -70 83q0 6 11.5 9t29.5 5.5t27 7.5q12 5 29 5q42 0 99.5 -20.5t77.5 -43.5q24 -28 24 -45z" />
</svg>
