<?xml version="1.0" standalone="no"?>
<!DOCTYPE svg PUBLIC "-//W3C//DTD SVG 1.1//EN" "http://www.w3.org/Graphics/SVG/1.1/DTD/svg11.dtd" >
<svg xmlns="http://www.w3.org/2000/svg" xmlns:xlink="http://www.w3.org/1999/xlink" version="1.1" viewBox="-10 0 809 1000">
   <path fill="currentColor"
d="M654 323q-56 0 -85.5 6t-86.5 6q-22 0 -35 -8t-15.5 -13.5t-2.5 -8.5q0 -10 15 -25q10 -11 15.5 -13t15.5 0q15 3 33 3q14 0 21 -2t8 -4t1 -7t-1 -15t-8 -29t-18 -28q-51 -45 -69 -53.5t-65 -8.5q-39 0 -57.5 9.5t-22.5 9.5t-29.5 12t-30.5 12q-7 0 -7 8q0 10 -10 18
q-22 20 -38.5 61t-16.5 91t6 85t12 48.5t18 33.5q19 32 54 66t48 34q9 0 14 4.5t10 4.5q4 0 10 4t22.5 10.5t42.5 11.5q15 3 33.5 7.5t30.5 7.5l11 3q8 0 22.5 -12.5t22.5 -15.5q24 -7 46 -37t37 -60.5t20 -34.5q8 -6 28 -2q9 2 12.5 3t6 5.5t2.5 13.5q0 23 -25.5 66
t-44.5 50q-9 4 -9 9q0 3 -7 9.5t-20.5 17t-23.5 20.5q-8 9 -14 12.5t-22.5 5.5t-48.5 2q-94 0 -112 -14q-14 -13 -52.5 -26t-47.5 -21q-13 -11 -17 -11q-5 0 -27 -24t-28 -36q-2 -4 -21.5 -27.5t-27.5 -46.5q-10 -31 -16 -41q-4 -8 -6 -23t-3 -26t-3 -13q-5 -2 -1 -35
q1 -7 1 -19q0 -16 -3.5 -27t-3.5 -13q0 -5 6 -21t6 -23q0 -6 7 -15.5t5 -14.5t5 -13t7 -14q0 -8 5 -11q6 -5 39 -54q11 -16 63.5 -47t83.5 -37q24 -3 44 -3q4 0 27 1t45 1l22 1h2q8 0 13.5 5.5t9.5 13t15.5 18t28.5 17.5q10 4 26.5 23.5t18.5 29.5q2 9 13.5 24.5t11.5 26.5
q0 36 17 36q21 0 28 3q16 6 49 13q42 9 42 25q0 4 -2 12l-5 13h-70z" />
</svg>
