<?xml version="1.0" standalone="no"?>
<!DOCTYPE svg PUBLIC "-//W3C//DTD SVG 1.1//EN" "http://www.w3.org/Graphics/SVG/1.1/DTD/svg11.dtd" >
<svg xmlns="http://www.w3.org/2000/svg" xmlns:xlink="http://www.w3.org/1999/xlink" version="1.1" viewBox="-10 0 716 1000">
   <path fill="currentColor"
d="M523 208q0 -35 -4.5 -41.5t-4.5 -21.5q0 -21 12 -33q18 -20 22 -3q2 8 19 16q12 5 14.5 9.5t2.5 21.5q0 12 2 19.5t4 8t2.5 3t-2.5 4.5q-3 3 -3 60q0 119 5 127q2 2 6.5 51.5t8.5 57.5q5 8 7.5 72t9.5 85q11 31 11 37q0 5 -3 5q-6 0 -13 13l-8 14l-158 -1
q-202 -2 -228 -18q-1 -1 -27.5 -8t-35.5 -15q-27 -23 -39 -23q-4 0 -18.5 -8.5t-30 -30t-15.5 -46.5q0 -10 2 -22.5t4.5 -20.5t4.5 -8q3 0 3 -9t5 -9q3 0 7 -13q3 -14 27 -24q22 -10 35.5 -17t19.5 -10t22 -7q12 -3 20 -3t23.5 3.5t28.5 3.5q25 0 30 -9q5 -8 5 -107
q0 -32 -1 -48.5t-2 -19.5t-3 -10t-3 -21q-2 -20 -7 -29t-5 -14q0 -14 11.5 -27.5t25.5 -13.5q15 0 22 9t9 31q2 14 6 66.5t7.5 97t3.5 45.5q1 2 5.5 47t4.5 46q0 14 -11 21t-21 7q-6 0 -44.5 -5t-66.5 -5q-27 0 -43.5 4t-21 8l-9 8t-9.5 4q-8 0 -15.5 13t-7.5 25q0 14 21 35
t28 21q8 0 38 16q22 11 57 16.5t59.5 6t83.5 0.5q56 0 124 -12q18 -3 21 -5.5t1 -11.5q-1 -1 -9.5 -114.5t-8.5 -114.5q-1 -1 -4 -35.5t-6 -79t-3 -64.5z" />
</svg>
