<?xml version="1.0" standalone="no"?>
<!DOCTYPE svg PUBLIC "-//W3C//DTD SVG 1.1//EN" "http://www.w3.org/Graphics/SVG/1.1/DTD/svg11.dtd" >
<svg xmlns="http://www.w3.org/2000/svg" xmlns:xlink="http://www.w3.org/1999/xlink" version="1.1" viewBox="-10 0 674 1000">
   <path fill="currentColor"
d="M100 451q0 -23 8.5 -31t33.5 -8q28 0 64.5 6t79.5 6q24 0 48.5 -0.5t44 -1.5t37 -2.5t30.5 -3t22.5 -2.5t15.5 -2h5q7 0 22 6.5t15 10.5q0 2 14 9t16 15q9 41 9 61q0 45 -7 75t-15 39.5t-15 18t-7 16.5q0 17 -44.5 41t-57.5 24q-5 0 -23.5 5.5t-42.5 5.5q-32 0 -61 -6
t-29 -15q0 -4 -19 -4q-8 0 -14 -2t-24 -16.5t-48 -44.5q-3 -3 -12 -8t-9 -11q0 -5 -10.5 -13.5t-11.5 -24.5q0 -4 -4 -29t-7.5 -56.5t-3.5 -57.5zM501 554q0 -4 -4 -15.5t-4 -23.5q0 -15 -10 -21q-13 -7 -223 -7q-55 0 -72 3t-17 13q0 2 9 39l9 37q0 6 27.5 31t47.5 37
l30 18h57q57 0 63 -6t16 -6q9 0 29 -21t20 -31q0 -5 11 -20.5t11 -26.5zM579 271q-1 31 -27 31q-18 0 -24 -3q-11 -4 -15.5 -21t-7 -39.5t-7.5 -33.5q-7 -14 -9.5 -27.5t-7.5 -19.5q-7 -8 -10.5 -5t-4.5 11l-1 7q0 1 -12.5 20.5t-12.5 37.5q0 10 -6.5 18t-9.5 21
q-4 24 -31 24q-13 0 -25 -7t-17 -7q-9 0 4 -30q11 -27 14 -41q1 -8 22 -41.5t22 -72.5q0 -10 3.5 -19.5t17 -19.5t35.5 -10q52 0 52 26q0 9 23.5 82.5t23.5 78.5q0 8 5.5 20.5t5.5 19.5zM191 31q2 0 11.5 2t18.5 2q23 0 23 28q0 12 4.5 20.5t7.5 25.5q4 24 7 24
q4 0 9.5 13.5t11.5 29.5t10 20q7 7 7 9q0 1 7.5 19.5t7.5 30.5q0 33 -38 33q-23 0 -33 -14q-10 -13 -10 -21q0 -4 -3 -10t-4 -20t-10.5 -38t-14.5 -24q-4 0 -14 17.5t-10 24.5t-12 29t-17 25q-4 2 -4 18q0 7 -1 10.5t-9.5 7t-24.5 3.5q-14 0 -22.5 -9t-10 -16t-1.5 -13
q0 -14 20.5 -36t20.5 -28q0 -10 4 -10q3 0 12 -16t11 -16q5 0 9 -13.5t8 -30.5t8 -21q4 -5 5.5 -15t1.5 -18.5t3 -15.5t11 -7z" />
</svg>
