<?xml version="1.0" standalone="no"?>
<!DOCTYPE svg PUBLIC "-//W3C//DTD SVG 1.1//EN" "http://www.w3.org/Graphics/SVG/1.1/DTD/svg11.dtd" >
<svg xmlns="http://www.w3.org/2000/svg" xmlns:xlink="http://www.w3.org/1999/xlink" version="1.1" viewBox="-10 0 777 1000">
   <path fill="currentColor"
d="M278 128q3 0 13 -6t37 -12.5t71 -6.5q24 0 87 7q36 4 44.5 7.5t24.5 19.5q22 22 22 25q0 4 7 4t7 4t21 20t21 19q0 2 5.5 14.5t12 28.5t8.5 27q3 18 7 20q4 3 4 53q0 28 -1.5 43t-3.5 17t-3 5t-1 9q0 9 -7 16.5t-7 11.5q0 5 -30.5 45t-30.5 44t26 32.5t26 30.5t16 21.5
t16 26.5q0 6 17.5 26.5t17.5 34.5q0 35 -21 35q-23 0 -33.5 -9t-10.5 -18q0 -5 -18 -26t-18 -23q-4 -9 -24.5 -33.5t-41.5 -45t-25 -20.5l-3 2.5t-12 6.5t-24 6q-6 1 -13 3.5t-20.5 4t-39.5 1.5q-53 0 -95 -5t-50 -5q-11 0 -20 10t-16 21t-12 13q-6 1 -6 11q0 5 -2 8t-8 8.5
t-11 13.5t-16 20.5t-18.5 22.5t-8.5 17q-4 15 -8 15q-5 0 -18.5 -2.5t-26 -6t-13.5 -4.5q-4 -3 -5 -21q-2 -12 0.5 -17t13.5 -13q22 -17 40.5 -37.5t23.5 -31.5q0 -2 14.5 -31.5t18.5 -31.5q4 -3 4 -6t-12 -11t-13.5 -14t-19 -27.5t-17.5 -23.5t-7 -11q-8 -7 -16 -38t-8 -49
v-5.5t0.5 -13t0.5 -12.5q0 -17 19 -52.5t27 -38.5q12 -5 25.5 -29t16.5 -24q1 0 45 -35t55 -35zM503 184q-23 -12 -40.5 -15t-69.5 -3q-30 0 -42 6.5t-27 6.5q-35 0 -79.5 31t-76 75.5t-31.5 79.5q0 13 9 26.5t9 18.5q0 7 19.5 29.5t29.5 26.5q7 3 16.5 17t16.5 15
q9 2 25.5 9.5t24.5 14.5q7 7 33.5 12.5t53 7.5t45.5 2q31 0 56.5 -10t39 -20.5t15.5 -10.5q6 0 17 -9t11 -14q0 -2 2 -4t6 -5t12 -15t18 -31q11 -24 14.5 -34t3.5 -24q0 -22 -3.5 -38t-7.5 -25.5t-14 -31.5q-13 -26 -22 -38.5t-12.5 -13t-7.5 -2.5t-7 -9q-4 -8 -37 -25z" />
</svg>
