<?xml version="1.0" standalone="no"?>
<!DOCTYPE svg PUBLIC "-//W3C//DTD SVG 1.1//EN" "http://www.w3.org/Graphics/SVG/1.1/DTD/svg11.dtd" >
<svg xmlns="http://www.w3.org/2000/svg" xmlns:xlink="http://www.w3.org/1999/xlink" version="1.1" viewBox="-10 0 965 1000">
   <path fill="currentColor"
d="M301 720q-10 0 -21 2t-18 4.5t-8 2.5q-3 0 -30 -6t-55 -6q-21 0 -44 19.5t-39 19.5q-8 0 -17.5 -4.5t-9.5 -13.5q0 -15 29 -44l28 -28l-4 -19q-8 -32 -8 -39q0 -13 11.5 -43t22.5 -40q5 -5 8.5 -13t6.5 -13t7 -5q7 0 7 -4q0 -7 39.5 -14.5t47.5 -7.5q96 16 96 30
q0 2 11.5 9.5t11.5 14.5q0 8 13 18q-1 0 -1 1t3.5 8t7 20.5t3.5 28.5q0 23 -8 43t-8 24q0 5 -10.5 10.5t-10.5 11.5q0 10 19 26q11 8 13.5 14t2.5 22q0 40 -23 40q-10 0 -10 -5q0 -4 -6 -4q-4 0 -17 -23.5t-18 -23.5t-7.5 -6.5t-14.5 -6.5zM307 547q-9 -9 -17 -11.5
t-37 -2.5q-28 0 -40.5 5.5t-19.5 21.5q-7 18 -15 18q-6 0 -6 7q0 5 -5.5 8t-1.5 20q5 19 30 37q24 17 44 17q46 0 56 -10q7 -7 17 -11q7 -2 20 -21.5t13 -27.5q0 -12 -38 -50zM540 593q0 -63 53 -108t116 -45q59 0 63 6q4 5 13 9t19 15.5t22 37.5q29 63 29 72q0 15 -5 36
t-10 28q-13 16 -13 24q0 9 33.5 40.5t33.5 48.5q0 7 -5 20q-5 12 -21 12q-13 0 -23 -8.5t-13.5 -16t-3.5 -10.5q0 -7 -7 -7t-19 -12q-11 -11 -17.5 -12t-50.5 -2q-15 0 -29.5 -1.5t-24.5 -2.5t-17.5 -2.5l-12.5 -2.5l-4 -1q-7 0 -19 7.5t-20.5 15.5t-8.5 9q0 2 -6.5 5
t-17.5 8t-19 10q-12 8 -20 8q-6 0 -9.5 -4.5t-4.5 -7.5t-1 -5q0 -17 25.5 -48t25.5 -35q0 -2 -7.5 -11t-15.5 -27.5t-8 -42.5zM720 661q15 0 29 -9.5t20.5 -18t6.5 -11.5q0 -4 1.5 -6t4 -2.5t4.5 -2t3.5 -7.5t1.5 -17q0 -38 -26 -63.5t-63 -25.5q-19 0 -22 8q-8 25 -30 25
q-10 0 -24.5 9.5t-19.5 9.5q-6 0 -11.5 7.5t-5.5 18.5q0 33 50.5 59t80.5 26zM260 195q0 -14 9 -38.5t18.5 -43t11.5 -18.5q4 0 4 -6t19 -13t19 -9t7 -4t16.5 -5t14.5 -8q6 -5 17 -4.5t16 -2.5q2 -2 21 -2q42 0 69 13t57 42q19 19 25 28t8 25q2 17 6 26t4 22q0 65 -24 85
q-7 6 -7 12q0 8 24 34q17 17 22.5 27.5t5.5 31.5q0 12 -10 12q-20 0 -33.5 -8.5t-33.5 -28.5l-33 -33l-22 10q-22 11 -48 11q-20 0 -54 -5t-40 -5q-14 0 -29 13t-20 24q-9 18 -22 18q-10 0 -20 -12t-10 -24q0 -15 19.5 -36.5t19.5 -32.5q0 -6 -8.5 -26t-8.5 -31
q0 -10 -5 -21.5t-5 -16.5zM370 272q7 0 9 1.5t3 4t15.5 4t43.5 1.5q4 0 13.5 -1.5t31.5 -10.5t39 -24q6 -5 8.5 -8.5t4 -12.5t1.5 -26q0 -34 -23 -64.5t-62 -30.5q-21 0 -26.5 6.5t-18.5 6.5t-37 6t-29 11q-25 25 -25 57q0 15 6.5 25t6.5 17q0 8 15.5 23t23.5 15z" />
</svg>
