<?xml version="1.0" standalone="no"?>
<!DOCTYPE svg PUBLIC "-//W3C//DTD SVG 1.1//EN" "http://www.w3.org/Graphics/SVG/1.1/DTD/svg11.dtd" >
<svg xmlns="http://www.w3.org/2000/svg" xmlns:xlink="http://www.w3.org/1999/xlink" version="1.1" viewBox="-10 0 746 1000">
   <path fill="currentColor"
d="M227 220q13 0 27 3t25.5 7t21.5 7.5t15 6.5l6 3q7 0 7 -28q0 -32 -7.5 -64t-7.5 -48q0 -28 12 -42.5t25 -14.5q9 0 15 7.5t8 14.5l2 8q1 14 5 50.5t5 95.5q1 54 5.5 66t26.5 17q15 3 31.5 10t22.5 7q30 0 70 -8q35 -7 39 -91q0 -11 11 -26q8 -10 11.5 -10.5t16.5 4.5
q8 3 11.5 5.5t7 11.5t3.5 24q0 52 -27 101l-1 1q-34 53 -106 58h-12q-19 0 -36 -1.5t-28 -3.5t-19 -4t-13 -3l-4 -2q-6 0 -9 75l-3 46l23 10q18 8 36.5 11t27.5 7q7 4 15 4q26 0 52 -14t41.5 -31.5t29 -31.5t17.5 -14l9 -2q2 -1 3 -1q9 0 21 9.5t12 22.5q0 15 -14 32.5
t-14 19.5q0 8 -32 30.5t-34 27.5q-3 6 -9.5 7.5t-19.5 3t-25 5.5q-17 7 -37 7q-18 0 -47.5 -10t-33.5 -10q-2 0 -4 2l-1 2v4q0 28 5.5 66t5.5 53q0 47 -18 47q-9 0 -24 -7.5t-20 -18.5q-4 -9 -4 -42q0 -16 1.5 -27t2.5 -16.5t1 -6.5q0 -2 -2 -4.5t-4.5 -6.5t-6 -20t-5.5 -41
q-1 -9 -11.5 -19t-18.5 -10q-3 0 -26.5 -13t-43.5 -13q-11 0 -22 7.5t-16.5 15t-5.5 8.5q0 3 -16 24.5t-16 31.5q0 2 1 6t1 7q0 14 -11 20.5t-18 6.5q-17 0 -27 -17t-12 -29t-2 -18q0 -20 25.5 -47.5t29.5 -38.5q5 -17 34.5 -31t73.5 -14q17 0 23 7t10 7t8 4.5t6.5 7.5
t4.5 1t9.5 0.5t8.5 2.5q13 0 13 -100q0 -33 -8 -43q-7 -7 -39.5 -25t-42.5 -18q-12 0 -31.5 5.5t-19.5 9.5q0 2 -16.5 13t-16.5 17q0 5 -8 12.5t-9 17.5q0 9 -6 33t-17 24q-3 0 -12 -3t-21 -11.5t-14 -19.5q-2 -8 -2 -22q0 -18 20 -47.5t24 -39.5q5 -14 25.5 -25.5
t21.5 -13.5q1 -3 32 -12t33 -9z" />
</svg>
