<?xml version="1.0" standalone="no"?>
<!DOCTYPE svg PUBLIC "-//W3C//DTD SVG 1.1//EN" "http://www.w3.org/Graphics/SVG/1.1/DTD/svg11.dtd" >
<svg xmlns="http://www.w3.org/2000/svg" xmlns:xlink="http://www.w3.org/1999/xlink" version="1.1" viewBox="-10 0 361 1000">
   <path fill="currentColor"
d="M182 584q0 -13 16 -30.5t27 -17.5q27 0 36 22q6 14 6 108q0 43 -3.5 49t-3.5 11q0 8 -7 16t-7 11q0 7 -25 28.5t-33 21.5q-43 0 -84 -22t-41 -45q0 -13 22 -29t31 -16q5 0 22 18t33 18q13 0 19.5 -7.5t7.5 -14t1 -19.5q0 -52 -6 -57q-5 -3 0 -11q4 -6 0.5 -18t-8.5 -12
q-3 0 -3 -4zM187 348q0 -21 -1.5 -37t-2.5 -24t-1 -10q0 -41 6 -51q3 -6 6 -148q0 -12 9 -19t17 -9l9 -1q26 0 26 78q0 57 -6 106t-6 60q0 13 0.5 26.5t1.5 25.5t2 23t2 19.5t2 15t1 10.5l1 4q0 11 -11 24.5t-26 13.5q-4 0 -10 -1t-15.5 -9t-9.5 -22q0 -18 3 -44t3 -31z" />
</svg>
