<?xml version="1.0" standalone="no"?>
<!DOCTYPE svg PUBLIC "-//W3C//DTD SVG 1.1//EN" "http://www.w3.org/Graphics/SVG/1.1/DTD/svg11.dtd" >
<svg xmlns="http://www.w3.org/2000/svg" xmlns:xlink="http://www.w3.org/1999/xlink" version="1.1" viewBox="-10 0 774 1000">
   <path fill="currentColor"
d="M357 174q0 -2 -2 -5t-2 -8q0 -3 5 -20.5t5 -34.5q0 -9 -1 -23t-1 -22q0 -18 8 -29.5t13.5 -13.5t8.5 -2q6 0 19 15.5t14 23.5q2 36 2 42q0 19 -3 35.5t-5.5 26.5t-2.5 12q0 4 5 4q18 0 57 20t40 30q0 4 7.5 8.5t18.5 17t18 33.5q3 8 14 8t44.5 -4t34.5 -4q19 0 32.5 13
t13.5 28q0 12 -8 17.5t-18 8t-12 4.5q-5 5 -7 5q-1 0 -9.5 -3t-19.5 -3q-6 0 -24 2t-25 2q-13 0 -16.5 2t-8.5 14q-7 16 -7 27q0 22 -28 36q-15 7 -42.5 26.5t-27.5 22.5q0 8 36 57t47 49q5 0 11.5 13.5t7.5 14.5q2 1 16 20t28.5 37t17.5 18q4 0 13.5 21t9.5 30
q0 16 -22.5 25.5t-60.5 9.5l-13 -1q-11 0 -18.5 0.5t-11 1.5t-5.5 2.5t-2.5 2t-1.5 0.5q-2 0 -5 -2q-14 -7 -27 -10.5t-57 -6.5t-120 -3q-48 0 -81 3.5t-43 7t-10 4.5q0 5 -13 6.5t-19 -3.5q-4 -3 -13.5 -7.5t-15 -8.5t-5.5 -8q0 -7 -4 -7q-1 0 -1 -2q0 -7 10.5 -24.5
t22 -33.5t11.5 -17q3 -8 10 -8q5 0 10.5 -12t12.5 -17q48 -33 48 -39q0 -4 13.5 -17t13.5 -19q0 -13 8.5 -13t8.5 -7q0 -3 7 -8.5t12 -20.5q3 -9 7.5 -16.5t7.5 -11.5t3 -5t-2 -1q-4 0 -26 -20q-24 -23 -28.5 -52t-5.5 -30q-5 -5 -85 -5q-34 0 -42 2t-10 2q-32 0 -32 -18
q0 -23 22.5 -34.5t49.5 -12.5t51.5 -2t26.5 -4q2 -2 3 -2t5.5 2t6.5 2q8 0 13 -23q5 -28 34 -62t47 -34q38 -3 38 -15zM290 325q0 17 0.5 26.5t4.5 25.5t11.5 25t23.5 16t38 7q35 0 51.5 -5.5t37.5 -19.5q26 -17 36.5 -32.5t10.5 -40.5q0 -23 -9.5 -42.5t-23.5 -22.5
q-9 -2 -16.5 -10t-22.5 -12q-5 -1 -20.5 -5.5t-28.5 -8.5l-13 -4q-14 4 -27 16t-16 12q-5 0 -21 18q-12 13 -14 20t-2 37zM437 587q0 -8 -34.5 -48t-41.5 -40q-2 0 -8.5 6.5t-10.5 6.5t-12.5 7.5t-8.5 14.5q0 4 -28.5 34t-28.5 35t-10 10.5t-10 14.5q0 16 -4 16
q-5 0 -25.5 23.5t-20.5 30.5q0 4 39 4q29 0 119.5 1.5t121.5 1.5h32q23 0 23 -3q0 -5 -7 -17.5t-11 -12.5q-2 0 -5.5 -7t-10.5 -18t-17 -17t-18 -16t-12.5 -16t-6.5 -6q-4 0 -4 -5z" />
</svg>
