<?xml version="1.0" standalone="no"?>
<!DOCTYPE svg PUBLIC "-//W3C//DTD SVG 1.1//EN" "http://www.w3.org/Graphics/SVG/1.1/DTD/svg11.dtd" >
<svg xmlns="http://www.w3.org/2000/svg" xmlns:xlink="http://www.w3.org/1999/xlink" version="1.1" viewBox="-10 0 810 1000">
   <path fill="currentColor"
d="M621 562q0 -1 -1 -2l-1 -2q0 -2 14 -11.5t14 -20.5q0 -6 -3.5 -7.5t-25.5 -3.5h-3q-7 0 -19 4t-17 4q-4 0 -6 -1q-10 -4 -121.5 -9.5t-129.5 -10.5q-12 -4 -15 -7.5t-3 -13.5q0 -12 4.5 -16.5t13.5 -8.5t15 -10q11 -11 35 -11q6 0 8 3q1 4 91 9t150 5q33 0 47.5 -5.5
t30.5 -5.5q22 0 22 11q0 4 6.5 18t6.5 21q0 1 -14 41l-15 40q-6 16 -43.5 54t-57.5 47q-10 4 -38 21q-15 10 -70 21t-81 11q-64 0 -103 -11t-63 -26.5t-39 -18.5q-10 -2 -23.5 -8t-13.5 -8q1 -1 2 -1l1 -1q0 -2 -6 -8t-15.5 -16t-15.5 -20q-5 -8 -10.5 -15t-9 -10.5t-5.5 -7
t-2 -7.5q0 -9 -5 -9q-2 0 -8.5 -8t-14.5 -32.5t-8 -57.5q0 -40 6 -57t6 -19q0 -6 9.5 -24.5t9.5 -23.5q0 -17 25 -52t37 -35q7 0 9 -4q3 -8 24 -20t35 -14q17 -3 29 -10.5t15 -7.5q34 0 75 -42q41 -41 63 -53.5t75 -23.5q2 -1 13 -1q34 0 60 8t36 15.5t10 11.5q0 5 9.5 13
t9.5 17q0 8 7.5 26t7.5 33q0 21 -14.5 54.5t-14.5 37.5q0 7 -4 7q-2 0 -17 11.5t-21 11.5t-13 6t-15 13.5t-32.5 13.5t-61.5 6q-21 0 -34.5 -2.5t-17 -5l-7 -5t-6.5 -2.5q-2 0 -16 -14.5t-29 -33.5t-18 -29q-3 -12 -12 -12q-2 0 -16.5 2.5t-34.5 8t-29 12.5q-16 10 -18 10
q-9 0 -42.5 45.5t-33.5 57.5q0 3 -3.5 10t-3.5 22q0 1 1 31l2 30q0 9 6.5 20.5t6.5 15.5q0 5 27.5 37.5t32.5 32.5t9.5 3t14.5 9t25 11q14 5 21.5 10.5t10.5 8t7 2.5q7 0 7 5q0 8 42 14.5t70 6.5q26 0 60.5 -7.5t43.5 -11.5q66 -34 74 -45q3 -4 10.5 -12t12 -13.5t4.5 -8.5z
M576 216q0 -9 2.5 -14t2.5 -6q0 -10 -13.5 -33.5t-17.5 -23.5q-10 0 -18 -2.5t-12.5 -5t-5.5 -2.5t-13 3t-27.5 8t-20.5 10q-6 6 -14.5 11.5t-13 8.5t-4.5 6t-11.5 20t-11.5 22q0 4 -4 9t-5 7t3 5q6 2 6 9q0 12 24 28.5t46 16.5q36 0 72 -25.5t36 -51.5z" />
</svg>
