<?xml version="1.0" standalone="no"?>
<!DOCTYPE svg PUBLIC "-//W3C//DTD SVG 1.1//EN" "http://www.w3.org/Graphics/SVG/1.1/DTD/svg11.dtd" >
<svg xmlns="http://www.w3.org/2000/svg" xmlns:xlink="http://www.w3.org/1999/xlink" version="1.1" viewBox="-10 0 964 1000">
   <path fill="currentColor"
d="M730 640q0 3 13.5 19.5t13.5 30.5q0 29 -31 29q-17 0 -32 -9t-15 -20q0 -23 -32 -53l-19 -17l9 -17q13 -25 29 -25q24 0 30 13q3 6 11.5 17t10.5 18q3 8 7 8q5 0 5 6zM880 554q0 9 -2 14t-11 9.5t-27 4.5q-26 0 -36 -8q-6 -5 -23 -15.5t-29 -20t-12 -17.5q0 -5 6.5 -13
t15.5 -8q5 0 7.5 0.5t5 1.5t12 3.5t25.5 4.5q25 4 35.5 6.5t21.5 12t11 25.5zM732 384q0 -17 24 -28.5t48.5 -17t24.5 -9.5t11 -4q9 0 14 -4.5t7 -4.5q8 0 15 12.5t7 25.5q0 19 -18.5 29t-36.5 14t-18 8q-1 4 -3.5 2t-8.5 -1.5t-12 8.5q-8 10 -24 10l-21 -3
q-2 -2 -5.5 -15.5t-3.5 -21.5zM315 387q-26 0 -51 -32t-25 -52q0 -11 10.5 -19t27.5 -8q69 0 69 72q0 18 -4.5 27t-10 10.5t-16.5 1.5zM176 334q0 18 -3 29.5t-10 16t-11.5 5.5t-13.5 1q-41 0 -41 -55q0 -18 2.5 -25t12.5 -17q10 -11 14 -12t18 4q32 13 32 53zM257 114
q0 -3 15.5 -11t20.5 -8q4 0 14.5 17.5t10.5 25.5q0 3 -15 21.5t-41 47.5t-33 38q-15 18 -25 18q-22 0 -45.5 -15t-23.5 -23q0 -5 -36 -40t-36 -43q0 -5 12 -20t24 -15q19 0 35 17.5t29.5 35t25.5 17.5q11 0 39.5 -29t28.5 -34zM261 475q17 0 29.5 -2t18.5 -4.5t8 -4t2.5 -1
t0.5 2.5q0 3 15 3q5 0 12.5 -0.5t13.5 -1l12 -1t9 -0.5l4 -1q3 -1 12.5 3.5t19.5 4.5q6 0 23 -2t33 -2q7 0 13 0.5t9 0.5q16 0 37.5 -9t26.5 -9q6 0 6 -5q0 -7 -14 -27t-32 -46t-25 -41q-6 -13 -9 -13q-4 0 -4 -8q0 -6 -9.5 -17t-9.5 -15q0 -7 -5 -7t-19 -20.5t-14 -27.5
q0 -8 -4 -8q-2 0 -2.5 -1t0 -2.5t-1.5 -5.5t-7 -9q-27 -27 -27 -31q0 -1 -11.5 -20t-25 -40.5t-18.5 -26.5q-9 -9 -9.5 -13t5.5 -16q5 -11 13.5 -18t14.5 -8l6 -1q10 0 36.5 46.5t27.5 46.5q3 2 3 8q0 4 21.5 30t21.5 32l38 46q37 47 37 57q0 2 9 15.5t9 17.5t21.5 36
t21.5 35t7 7.5t7 9.5q0 6 25 31q18 17 22.5 26t4.5 33q0 14 -13.5 18t-42.5 4q-15 0 -74 10q-10 2 -124.5 4.5t-138.5 2.5l-34 -1l-3 17q-1 3 -1 12q0 12 3.5 30.5t3.5 23.5q0 4 -2 8t-2 11q0 10 3 32t3 32q0 4 -2.5 9.5t-0.5 16.5q1 3 1 9q0 15 -9 23.5t-19 8.5
q-9 0 -33 -8q-9 -3 -11 -7.5t-2 -21.5q0 -11 -1.5 -54.5t-6 -101t-10.5 -65.5q-1 -1 -1 -5q0 -5 2 -13t15.5 -20t36.5 -12q13 0 22.5 5t31.5 5z" />
</svg>
