<?xml version="1.0" standalone="no"?>
<!DOCTYPE svg PUBLIC "-//W3C//DTD SVG 1.1//EN" "http://www.w3.org/Graphics/SVG/1.1/DTD/svg11.dtd" >
<svg xmlns="http://www.w3.org/2000/svg" xmlns:xlink="http://www.w3.org/1999/xlink" version="1.1" viewBox="-10 0 670 1000">
   <path fill="currentColor"
d="M308 479v-51q0 -88 -3 -103q-1 -3 -2.5 -22t-3 -35.5t-3.5 -16.5q-4 0 -8 8q-5 8 -29 24t-44 24q-25 10 -64 21t-50 11q-43 0 -43 -40q0 -9 8 -13t31 -8q70 -11 96 -27q22 -14 35 -18q9 -2 24.5 -18t24.5 -31q14 -24 19 -86q3 -43 9 -49q7 -5 19 -5q13 0 25.5 5t12.5 12
q0 6 5 6q4 0 2 15q-10 65 -10 263q0 114 5 127q3 7 11 7q11 0 28 -15q35 -31 69 -31q12 0 15 -5q2 -4 10 -3t12 -1q6 -5 30 -12t33 -7q11 0 20 14.5t9 30.5q0 13 -9 17t-31 5h-8q-67 6 -98 27q-68 46 -72 100q-1 9 -4 26t-3 29q0 33 -7 44q-5 8 -10 9.5t-21 0.5
q-23 -2 -28 -7.5t-5 -30.5q0 -12 3.5 -42.5t3.5 -44.5q0 -10 -1 -13q-3 -9 -3 -91z" />
</svg>
