<?xml version="1.0" standalone="no"?>
<!DOCTYPE svg PUBLIC "-//W3C//DTD SVG 1.1//EN" "http://www.w3.org/Graphics/SVG/1.1/DTD/svg11.dtd" >
<svg xmlns="http://www.w3.org/2000/svg" xmlns:xlink="http://www.w3.org/1999/xlink" version="1.1" viewBox="-10 0 884 1000">
   <path fill="currentColor"
d="M149 451q11 0 26 0.5t28.5 1t25.5 1t19 0.5l8 1q64 0 69 -24q3 -13 15.5 -37t18.5 -28q4 -3 12.5 -19.5t20.5 -19.5q66 -19 98 -19q57 0 94 7.5t50 15t25 20.5q20 22 20 26t4 4q5 0 18.5 54.5t13.5 68.5q0 8 -4 26t-4 25t-16.5 24t-16.5 21q0 6 -4 6q-3 0 -15.5 12
t-14.5 12q-1 0 -23 13.5t-32 13.5q-8 0 -24.5 4t-28.5 4q-21 0 -76 -11q-34 -7 -76.5 -38t-42.5 -48q0 -5 -4.5 -10.5t-6.5 -19.5l-3 -18q-7 -1 -18 -1q-170 0 -190 5q-13 3 -13 -2q0 -3 -1.5 -3.5t-8 -3.5t-14.5 -9l-13 -10l10 -20q9 -18 19.5 -21.5t54.5 -3.5zM388 527
q0 20 51.5 47t73.5 27q19 0 51.5 -10.5t37.5 -24.5q2 -4 9 -6t17.5 -9.5t18.5 -25.5q6 -13 6 -25q0 -4 -0.5 -13.5t-5 -29.5t-11.5 -37t-21.5 -32.5t-33.5 -19.5q-42 -8 -86 -8q-23 0 -36 13t-20 13q-18 0 -42.5 36.5t-24.5 57.5q0 6 8 23t8 24zM347 274q-6 0 -13 -5t-7 -14
q0 -20 -59 -62q-20 -15 -20 -29q0 -19 11 -28.5t22 -9.5q10 0 50.5 41.5t45.5 53.5q7 16 -1 29q-15 24 -29 24zM809 131q0 10 -9 19.5t-9 12.5q0 4 -51.5 31.5t-51.5 32.5q0 3 -21.5 10.5t-30.5 7.5q-7 0 -13 -8.5t-6 -17.5q0 -12 33 -36.5t71 -48t44 -29.5q8 -8 16 -8
q10 0 19 11t9 23zM542 176q0 20 -10 35t-17 15t-17 -8.5t-7 -14.5q2 -4 2 -6l-2 -10q-2 -10 -2 -23q0 -66 21 -87q15 -15 29 -2q9 9 9 37q0 20 -3 30.5t-3 18.5v9v6z" />
</svg>
