<?xml version="1.0" standalone="no"?>
<!DOCTYPE svg PUBLIC "-//W3C//DTD SVG 1.1//EN" "http://www.w3.org/Graphics/SVG/1.1/DTD/svg11.dtd" >
<svg xmlns="http://www.w3.org/2000/svg" xmlns:xlink="http://www.w3.org/1999/xlink" version="1.1" viewBox="-10 0 665 1000">
   <path fill="currentColor"
d="M243 411q6 0 65 -2t135 -2q80 0 96 1.5t27 9.5q10 7 12.5 12t0.5 16q-1 9 -9 22t-11 73q-4 69 -7 75q-6 14 -7 18q-1 5 -15 26t-16 27t-16.5 14t-33.5 15t-37.5 12.5t-31.5 9.5l-13 4q-9 6 -54 6q-73 0 -80 -10q-1 -3 -24 -12q-15 -5 -37.5 -23.5t-22.5 -24.5
q0 -2 -4.5 -4t-12.5 -9.5t-14 -19.5q-5 -12 -11 -20t-8 -12t-2 -11q0 -9 -7 -25.5t-7 -23.5q0 -6 -5.5 -15t-5.5 -35q0 -32 5 -42.5t33 -38.5q11 -13 70 -13q9 0 20.5 1t27.5 1zM497 475q-17 -11 -143 -11q-40 0 -78 3t-70 4l-49 2l-1 25q0 27 7.5 47t34.5 72q16 30 61 50
t97 20q33 0 45.5 -4.5t30.5 -20.5q17 -14 26 -19q11 -6 23.5 -28.5t15.5 -25.5q7 -6 7 -56q0 -54 -7 -58zM490 136q12 0 18.5 8.5t6.5 17.5q0 10 -12 25t-19 33l-10 24l27 31q34 40 34 58q0 24 -39 24q-12 0 -21 -8.5t-12.5 -16t-3.5 -9.5q0 -6 -12 -14q-8 -5 -10.5 -4.5
t-7.5 8.5q-4 6 -4 21q0 8 -11 14.5t-24 6.5q-34 0 -34 -23q0 -10 16 -44t22 -38q1 -1 1 -2q0 -2 -26.5 -32t-26.5 -56q0 -12 6.5 -21t13.5 -13l6 -3q3 0 23.5 22.5t20.5 25.5q0 4 14 4t14 -5q0 -8 17.5 -21t32.5 -13zM96 180q0 -12 8 -26t8 -16q0 -6 10 -6q21 0 38 15l15 14
l23 -23q23 -23 34 -23q16 0 16 7q0 6 7 11q6 4 7 15.5t-4 13.5q-6 2 -17.5 19.5t-11.5 24.5q0 12 14 34.5t30 36.5q25 22 25 34q0 5 -6 9.5t-8 10.5q-3 8 -13 8q-11 0 -31.5 -15t-26.5 -27q-9 -19 -26 -19q-3 0 -6.5 6t-7.5 14t-8 12q-6 6 -6 17q0 9 -8.5 15t-20.5 6
q-37 0 -37 -32q0 -18 16.5 -34.5t16.5 -18.5t12 -22l12 -18l-12 -12q-7 -7 -15.5 -11.5t-14 -6t-9 -4.5t-3.5 -9z" />
</svg>
