<?xml version="1.0" standalone="no"?>
<!DOCTYPE svg PUBLIC "-//W3C//DTD SVG 1.1//EN" "http://www.w3.org/Graphics/SVG/1.1/DTD/svg11.dtd" >
<svg xmlns="http://www.w3.org/2000/svg" xmlns:xlink="http://www.w3.org/1999/xlink" version="1.1" viewBox="-10 0 860 1000">
   <path fill="currentColor"
d="M623 417q0 9 -2 17.5t-10.5 17.5t-21.5 9q-15 0 -21 -8t-22 -24q-14 -15 -14 -26q0 -5 6.5 -12.5t6.5 -14.5q0 -9 15 -9q2 0 6.5 0.5t15.5 4t19 8.5t15 14.5t7 22.5zM458 362q16 0 32.5 14.5t16.5 27.5q0 55 -32 55q-20 0 -33 -27.5t-13 -43.5q0 -11 8 -18.5t21 -7.5z
M130 606q-5 0 -10 -1t-12 -5t-11.5 -14t-4.5 -25q0 -20 10.5 -37.5t23.5 -30.5t15 -20q4 -11 19 -29l15 -20l-11 -24q-8 -17 -30 -45.5t-33 -35.5q-6 -4 -13 -20q-6 -12 -6 -16t8 -11q10 -12 10 -17t9 -5q18 0 43.5 15t34.5 30q24 45 29 52.5t12 7.5q5 0 18 -11.5
t26.5 -24.5t19.5 -15q5 -1 16 -13.5t28 -19.5q22 -9 22 -14q0 -2 5 -4.5t12 -5t15 -4.5t13 -2q6 0 23.5 -8t20.5 -12q4 -6 61 -6q45 0 72 6.5t41 13.5t24 8q14 1 26 8.5t14 7.5q3 0 10.5 4.5t14.5 11t12.5 13t5.5 9.5q0 7 5 12q5 3 17.5 30.5t13.5 37.5q4 49 4 53
q0 15 -6 28t-6 20q0 6 -6 15.5t-14 16.5t-13 7q-9 0 -62 42q-14 11 -24 17t-32.5 14.5t-58.5 12.5t-87 4q-28 0 -41 -2.5t-13 -5t-2 -5t-10 -2.5q-7 0 -21 -7t-33 -13q-22 -6 -47.5 -28t-45 -40.5t-26.5 -18.5q-5 0 -22.5 28t-17.5 35t-18.5 32.5t-31.5 25.5zM532 283
q-25 0 -39 1.5t-16.5 3t-4.5 3t-7 1.5q-9 0 -9 5t-16 5q-15 0 -37 9t-22 15q0 8 -34 26t-35 28q-1 9 -19 25.5t-18 22.5q0 2 1 6t8 14.5t18.5 21t35 24t54.5 24.5q36 13 53.5 16t53.5 3q43 0 63 -4q16 -5 58.5 -25t42.5 -24t9 -6t21 -26.5t12 -40.5q0 -30 -25 -68
q-10 -14 -20 -21.5t-35 -19.5q-30 -14 -42 -16.5t-51 -2.5z" />
</svg>
