<?xml version="1.0" standalone="no"?>
<!DOCTYPE svg PUBLIC "-//W3C//DTD SVG 1.1//EN" "http://www.w3.org/Graphics/SVG/1.1/DTD/svg11.dtd" >
<svg xmlns="http://www.w3.org/2000/svg" xmlns:xlink="http://www.w3.org/1999/xlink" version="1.1" viewBox="-10 0 862 1000">
   <path fill="currentColor"
d="M124 647q-8 0 -17.5 -3.5t-9.5 -6.5q0 -6 -17 -10q-8 -2 -11 -3.5t-5.5 -6t-2.5 -13.5t6.5 -17.5t30.5 -31.5q75 -72 95 -92.5t20 -29.5q0 -7 -23.5 -23.5t-25.5 -22.5q-1 -2 -26 -36.5t-39 -64.5q-7 -17 -12 -17q-1 0 2.5 -6.5t11 -12.5t17.5 -6q27 0 45 19t26.5 38
t11.5 19q4 0 4 7q0 5 11.5 16t11.5 14q0 4 17 21t21 17q6 0 26.5 -12t29.5 -21t54 -33.5t49 -29.5q5 -7 16 -7q1 0 38.5 -14t93.5 -14q43 0 73 8t41 15.5t26 21.5q27 25 33.5 43t11.5 23q18 16 18 66q0 36 -7 58.5t-12.5 27t-7.5 4.5q-3 0 -7 11q-3 11 -22.5 23.5
t-39.5 15.5q-24 4 -93 4q-46 0 -66 -2.5t-56 -13.5q-29 -9 -56 -15q-60 -12 -116 -54l-23 -16l-13 11q-6 5 -24 26.5t-33 30.5q-19 11 -19 19q0 4 -1.5 5.5t-4 3.5t-8 9t-11.5 19q-13 24 -18.5 31.5t-13.5 7.5zM452 510h5q6 0 15.5 5.5t27.5 5.5q20 0 56.5 6t44.5 6
q7 0 9 -2t23 -3t44 -10.5t34 -32.5q3 -6 6 -9.5t5 -4.5t3.5 -2t2 -4t0.5 -9q0 -22 -8 -40q-20 -41 -42.5 -60t-65.5 -29q-24 -6 -34 -6q-43 5 -89.5 23t-76.5 36t-55 35t-27 18q-11 5 -11 9t9 10t21 12.5t17 11.5t39.5 19.5t46.5 14.5z" />
</svg>
