<?xml version="1.0" standalone="no"?>
<!DOCTYPE svg PUBLIC "-//W3C//DTD SVG 1.1//EN" "http://www.w3.org/Graphics/SVG/1.1/DTD/svg11.dtd" >
<svg xmlns="http://www.w3.org/2000/svg" xmlns:xlink="http://www.w3.org/1999/xlink" version="1.1" viewBox="-10 0 742 1000">
   <path fill="currentColor"
d="M305 398q7 0 50 -1t83 -2l41 -1q104 0 136 5q22 4 29 8t14 17q5 10 5 17q0 11 -13.5 31t-13.5 38q0 41 -16.5 87.5t-29.5 46.5q-4 0 -35.5 27.5t-45.5 30.5q-13 2 -13 14q0 10 -2.5 12t-16.5 3q-1 0 -41 7t-56 7q-23 -3 -41 -3q-41 -1 -78 -17.5t-42 -17.5
q-20 -4 -39.5 -15t-24.5 -22q-3 -6 -30 -46t-28 -49l-1 -3q-1 -3 -3 -8.5t-4 -12.5t-4.5 -17t-4.5 -21t-3 -24.5t-1 -26.5q0 -25 16 -43t30 -21q5 -1 61 -1l60 1h62zM584 485q0 -10 -8.5 -16t-27 -8.5t-32.5 -3t-40 -0.5q-93 0 -151 6t-145 7h-32l2 25q4 25 -1 30
q-5 6 13 32q15 23 27 44q8 13 22.5 24t22.5 11q9 0 9 2q0 5 16.5 14t50 17t71.5 8q33 0 58.5 -12t26.5 -12q2 0 15.5 -12t28.5 -14q19 -3 19 -14q0 -9 9 -14.5t11 -10.5q1 -4 8 -15t13.5 -27t9.5 -35zM133 168q18 0 41.5 19t42.5 38.5t27 19.5q9 0 18 13.5t9 27.5
q0 24 -24 24q-16 0 -40 -16t-29 -18q-6 -2 -14.5 -11.5t-22.5 -13.5q-12 -4 -29.5 -16.5t-17.5 -21.5q0 -6 1 -13.5t11 -19.5t27 -12zM451 253q0 -2 0.5 -4.5t2 -9.5t4 -12.5t8.5 -10t14 -4.5q11 0 56.5 -46.5t59.5 -52.5q9 -3 21 -3h1q26 0 26 34q0 16 -26 33
q-14 9 -41.5 36t-50.5 49t-29 22q-13 -8 -21 -8q-25 0 -25 -23zM316 120q0 -9 -2 -26t-2 -26q0 -16 8.5 -27t16 -15t11.5 -4l12 6q16 6 16 96q0 60 -3.5 76t-16.5 16q-21 0 -29.5 -10.5t-10 -23t-4.5 -13.5q-4 -1 -4 -5q0 -2 4 -16t4 -28z" />
</svg>
