<?xml version="1.0" standalone="no"?>
<!DOCTYPE svg PUBLIC "-//W3C//DTD SVG 1.1//EN" "http://www.w3.org/Graphics/SVG/1.1/DTD/svg11.dtd" >
<svg xmlns="http://www.w3.org/2000/svg" xmlns:xlink="http://www.w3.org/1999/xlink" version="1.1" viewBox="-10 0 805 1000">
   <path fill="currentColor"
d="M488 231q0 -9 5 -21t5 -19q0 -5 -4 -17t-4 -26q0 -22 10 -32.5t21 -10.5q29 0 29 44q0 32 5 37t0.5 10.5t1.5 10.5q3 3 6 3q5 0 29 -22t49 -22q33 0 33 29q0 17 -11 25t-22 11.5t-11 8.5q0 6 -14.5 20t-14.5 16q0 4 25.5 8.5t54 9.5t33.5 9q12 10 12 23q0 6 -6 13t-6 12
t-6.5 7t-14.5 0q-3 -1 -19 -3t-38.5 -5.5t-39.5 -6.5q-15 -3 -23 -3q-9 0 -9 3q0 2 7.5 8.5t7.5 10.5t8 21t9 22l2 10q2 10 5 24.5t6.5 30t5.5 28.5t2 18q0 21 -21 54l-20 33q-2 8 -25.5 26t-23.5 20q0 4 -11 4q-13 0 -15 4q-4 5 -38 10t-70 5h-7h-16t-21.5 -0.5t-23.5 -0.5
h-21q-129 0 -129 15q0 5 -11 5q-7 0 -23 11t-31 11q-10 0 -25 -14t-15 -22q0 -5 34 -32.5t34 -33.5l6 -15q5 -14 10.5 -43.5t5.5 -67.5l-1 -22q0 -38 8 -88t14 -50q4 0 4 -10q0 -8 24.5 -40.5t30.5 -32.5q4 0 23 -12.5t41 -12.5q12 0 17.5 -3.5t16.5 -3.5q27 0 75 12t61 27
q4 4 5.5 6t3 2.5t2.5 -0.5t2 -4q2 -6 2 -8t-0.5 -6.5t-0.5 -7.5zM527 422q0 -14 -11.5 -30t-11.5 -19q0 -7 -34.5 -36t-57.5 -40t-37 -14t-49 -3q-31 0 -41.5 4t-33.5 25q-28 25 -28 38q0 17 -5 23q-5 7 -7 107.5t-5 110.5l-3 13h72q34 0 59.5 1t38 2t16.5 1q29 0 62.5 -5.5
t45.5 -12.5l1 -1q52 -39 52 -99q0 -22 -7 -31t-7 -12q0 -6 -4 -6q-5 0 -5 -16z" />
</svg>
