<?xml version="1.0" standalone="no"?>
<!DOCTYPE svg PUBLIC "-//W3C//DTD SVG 1.1//EN" "http://www.w3.org/Graphics/SVG/1.1/DTD/svg11.dtd" >
<svg xmlns="http://www.w3.org/2000/svg" xmlns:xlink="http://www.w3.org/1999/xlink" version="1.1" viewBox="-10 0 976 1000">
   <path fill="currentColor"
d="M350 84q0 -16 -3.5 -36.5t-3.5 -22.5q0 -19 20 -28t29 -6q2 1 16.5 4.5t19.5 7.5q6 5 6 22q0 9 -2 14.5t-2 7.5q0 9 5.5 25.5t9.5 20.5q3 3 48 3t45 4q0 5 8 5q11 0 34.5 7.5t28.5 12.5q8 8 55 38q20 13 62.5 81t47.5 97q4 17 6 17t33.5 -8t43.5 -8q17 0 25 15
q15 29 15 33t-7 11q-11 11 -60 14t-51 5t-9 46.5t-14 50.5q-4 3 -4 13t-17 26q-14 13 -23 30t-13 23l-10 14l9 19q7 15 19.5 26.5t12.5 16.5q0 6 11.5 25.5t11.5 24.5q0 1 16.5 21.5t16.5 38.5q0 26 -34 26q-46 0 -46 -32q0 -9 -4.5 -15.5t-4.5 -13.5q0 -6 -4.5 -14.5
t-14 -25t-17.5 -33.5q-13 -28 -23 -28q-5 0 -10.5 3.5t-15 8.5t-47 9.5t-99.5 5.5h-4q-26 0 -63 -5.5t-43 -9.5q-11 -1 -11 18q0 26 5 59t5 37q0 14 -17.5 16t-17.5 9h-1q-6 0 -32 -13q-19 -9 -19 -26q0 -4 5.5 -30.5t5.5 -58.5q0 -28 -2 -36.5t-11 -14.5
q-17 -11 -46.5 -43.5t-38.5 -49.5q-7 -15 -10.5 -18.5t-10.5 -3.5q-16 0 -38.5 8.5t-35.5 8.5q-31 0 -31 -19q0 -12 31 -35.5t57 -23.5h2q4 0 4 -8q0 -10 -4 -22.5t-6.5 -18t0.5 -9.5q5 -3 5 -14q0 -7 2.5 -12.5t7 -14t8.5 -19.5q5 -14 14.5 -30t9.5 -21q0 -6 5 -11t5 -10
q0 -3 2 -11t9.5 -19t18.5 -13q15 -3 16 -13q2 -10 26 -34.5t33 -24.5q11 0 15.5 -6t15.5 -8q18 -5 18 -52zM569 173q-3 0 -21 -4t-35 -8l-17 -4q-7 0 -7 7q0 10 11 38.5t21.5 53t9.5 26.5q-2 3 21 47.5t29 52.5q10 12 17 7q1 -1 1 -3q0 -5 81 -12l36 -3l-3 -12
q-3 -9 -9 -19.5t-9 -19.5q-2 -9 -15.5 -27.5t-22.5 -37.5q-13 -25 -18 -29q-6 -4 -33.5 -27.5t-36.5 -25.5zM428 195q-9 -19 -15 -19q-10 0 -13 31q0 4 -6 25.5t-6 36.5v10q0 32 -4 55.5t-6 27.5t1 17q4 12 0 16t-7 17l-4 15l25 -4q16 -2 39 -8q9 -3 30 -4t38 -2t18 -2
q2 -2 -8.5 -25.5t-23.5 -53t-16 -40.5q-2 -10 -9 -25.5t-17.5 -36t-15.5 -31.5zM290 437q31 0 31 -81q0 -20 -5 -23q-4 -3 0 -3q7 0 11.5 -33t5.5 -65l1 -33q-9 10 -19 21q-14 15 -28 22.5t-20 18.5q-6 9 -13.5 17.5t-11.5 13.5t-4 9q0 1 -20 48t-20 79q0 22 11 22l5 -2
q6 -1 14 -2.5t18.5 -3.5t22 -3.5t21.5 -1.5zM641 541q0 14 7 14q8 0 30 -31t22 -43q0 -11 3 -11q4 0 7.5 -10.5t3.5 -20.5q0 -16 -9 -15q-3 0 -41 4q-61 5 -61 12q0 11 9.5 35t19 44t9.5 22zM608 589q0 -3 -14 -26.5t-14 -30.5t-11.5 -23t-13.5 -26q-8 -35 -29 -35
q-7 0 -26.5 7.5t-36.5 10.5q-84 16 -100 24q-7 4 -5.5 15t-2.5 21q-5 9 -5 50q0 28 3 30q5 5 41 10t68 5q48 0 97 -10.5t49 -21.5zM293 566q4 0 5 -36l1 -32l-18 1q-51 2 -46 17q2 4 9 10q12 9 12 16q0 5 15 14.5t22 9.5z" />
</svg>
