<?xml version="1.0" standalone="no"?>
<!DOCTYPE svg PUBLIC "-//W3C//DTD SVG 1.1//EN" "http://www.w3.org/Graphics/SVG/1.1/DTD/svg11.dtd" >
<svg xmlns="http://www.w3.org/2000/svg" xmlns:xlink="http://www.w3.org/1999/xlink" version="1.1" viewBox="-10 0 912 1000">
   <path fill="currentColor"
d="M580 670q0 -9 7.5 -19t15 -15.5t8.5 -5.5l45 -5q45 -5 64 -5h3q20 0 20 -6q0 -4 -13.5 -19t-13.5 -21q0 -4 -6 -8.5t-6 -11.5q0 -3 -17.5 -23.5t-17.5 -24.5q0 -5 -23.5 -43.5t-23.5 -41.5q0 -5 -15 -24t-34 -44t-25 -42q-5 -13 -10 -21t-7.5 -11t-2.5 -5q0 -5 -21 -35.5
t-29 -30.5q-2 0 -11.5 17.5t-18.5 38.5t-9 29t-18 45.5t-24 61.5q-15 61 -30.5 89t-18.5 42q-3 15 -13.5 41t-24.5 74t-48 48h-4q-3 -1 -11 -1.5t-18.5 -1t-28.5 -1t-39 -1.5q-33 -1 -47 -2t-29 -5t-20 -11.5t-5 -21.5q0 -16 12 -26.5t21 -12.5t13 -2h2q1 1 4.5 1.5t8 1
t12.5 1t17.5 1t23.5 1t30 0.5q36 0 46.5 -5t10.5 -20q0 -14 23.5 -64t23.5 -54q0 -9 8 -27t14 -22t6 -13t-5 -12q-7 -4 3 -7q10 -4 22.5 -43t12.5 -46q0 -5 6.5 -14.5t9.5 -26.5q2 -13 4 -18t6 -11.5t8 -20.5q5 -16 11.5 -34t9.5 -27t3 -15q0 -5 -2.5 -13t-2.5 -14
q0 -14 8 -23t16 -10l9 -2q5 0 20.5 10.5t15.5 13.5q0 4 18.5 25t18.5 28q0 4 1.5 6l6 8t9.5 16t13 24t12.5 22.5t4.5 12.5t8 16.5t17.5 27.5t12.5 21q9 21 23.5 40.5t24 29.5t9.5 13q0 6 4 14.5t8.5 13.5t5.5 5q2 0 23.5 40t28.5 42q8 2 8 12q0 11 28.5 40t28.5 35
q0 5 18.5 28t18.5 39q0 18 -18 29t-49 11q-7 0 -16 -1t-18 -1q-21 0 -57.5 4.5t-43.5 10.5q-8 7 -19 7q-8 0 -15.5 -3.5t-7.5 -6.5t-9 -14.5t-9 -20.5z" />
</svg>
