<?xml version="1.0" standalone="no"?>
<!DOCTYPE svg PUBLIC "-//W3C//DTD SVG 1.1//EN" "http://www.w3.org/Graphics/SVG/1.1/DTD/svg11.dtd" >
<svg xmlns="http://www.w3.org/2000/svg" xmlns:xlink="http://www.w3.org/1999/xlink" version="1.1" viewBox="-10 0 737 1000">
   <path fill="currentColor"
d="M344 142q11 0 27.5 -7t21.5 -7q9 0 14 -7q3 -4 9.5 -5t13.5 -0.5t15 1.5t14 3t10.5 3l4.5 1q4 2 22 6.5t32 13.5q16 12 22 12q3 0 11 4.5t16 10.5t14.5 11.5t6.5 7.5t4 9.5t9.5 16t11.5 21t8 22.5q3 11 5.5 17.5t4 7.5t3 3.5t2.5 6t2.5 13.5t3.5 28q1 7 1 18
q0 10 -4.5 20t-8 15.5t-1.5 7.5t-3 12t-12.5 22.5t-9.5 16.5q-1 4 -10.5 8.5t-21.5 9t-16 7.5q-6 4 -30 10l-24 5l-6 30q-7 44 -27 82.5t-41 45.5q-8 4 -8 10q0 4 -6 6t-17 6t-19 11q-33 27 -115 27q-38 0 -70.5 -6t-42.5 -15q-15 -15 -36 -33q-14 -13 -19 -19.5t-8.5 -16
t-8.5 -33.5q-3 -15 -11 -32t-6 -27q2 -9 -1 -24t-1 -24q13 -41 17 -50t9 -16q6 -7 14.5 -18.5t13.5 -17.5t8 -6q4 0 24.5 -19t32.5 -19q14 0 34 -10q11 -6 14.5 -9t5.5 -8.5t3 -20.5q3 -25 8.5 -47t8.5 -22t5 -6q1 -1 6.5 -7.5t14.5 -16t19 -18.5t20 -15.5t17 -6.5zM561 253
q0 -5 -12 -12t-12 -11q0 -3 -5 -7.5t-12 -8t-12 -3.5q-9 0 -11.5 -1.5t-10 -7t-23.5 -12.5q-21 -9 -44 -9q-11 0 -17 3q-19 10 -67 28q-11 4 -23.5 19.5t-12.5 25.5q0 14 -2.5 18t-2.5 17v18l26 5q25 5 36 5q7 0 24.5 12t23.5 14q7 2 30 23.5t25 21.5q4 0 4 6q0 5 9 12.5
t19 7.5q8 0 28 -7.5t38 -19t18 -19.5q0 -4 5.5 -13t5.5 -21q0 -20 -12.5 -50.5t-12.5 -33.5zM305 372h-4q-16 0 -37.5 -2t-23.5 -2q-8 0 -13.5 4.5t-17.5 15.5t-31 22q-16 10 -23.5 17.5t-15.5 25.5q-12 24 -12 38q0 5 3.5 22t17.5 50t35 55l18 19l54 1q4 0 11 0.5t10 0.5
q34 0 47 -5q51 -19 61 -31q2 -2 22 -18.5t26 -31.5q9 -19 9 -46q0 -22 -7 -31t-14 -21q-4 -9 -10.5 -16.5t-17.5 -17t-33 -24.5q-22 -16 -31.5 -20.5t-22.5 -4.5z" />
</svg>
