<?xml version="1.0" standalone="no"?>
<!DOCTYPE svg PUBLIC "-//W3C//DTD SVG 1.1//EN" "http://www.w3.org/Graphics/SVG/1.1/DTD/svg11.dtd" >
<svg xmlns="http://www.w3.org/2000/svg" xmlns:xlink="http://www.w3.org/1999/xlink" version="1.1" viewBox="-10 0 693 1000">
   <path fill="currentColor"
d="M112 657q0 -1 68 -76t68 -78q0 -4 18.5 -27t18.5 -29q0 -7 -20 -12t-24 -12q-5 -9 -9 -9q-2 0 -17.5 -13t-31 -30.5t-15.5 -27.5q0 -11 -11 -26q-5 -6 -7 -10.5t-3.5 -18.5t-1.5 -40q0 -35 4.5 -43.5t4.5 -12.5q0 -12 27 -53q10 -15 17 -20.5t21 -9.5q51 -14 55 -25
q2 -6 22 -19t36 -19q14 -6 56 -6q53 0 62 7q3 2 38 14.5t51 28.5t30 28q10 9 15 24.5t7 16.5q4 2 4 9q0 4 9.5 26.5t9.5 57.5q0 82 -32 108q-12 10 -28 26.5t-16 19.5q0 6 -28.5 22.5t-47.5 21.5l-26 7l7 12q30 53 30 59t21 35.5t45 62t29 42.5q9 18 12 18q4 0 10.5 18.5
t6.5 30.5q0 16 -15 22t-38 7t-30 4q-6 2 -17 2q-23 0 -53.5 -5.5t-48.5 -5.5q-13 0 -44 2t-52 2q-12 0 -118 -4q-68 -2 -88.5 -8t-20.5 -25q0 -18 10 -33t20 -24t10 -12zM496 137q-32 -24 -54 -26l-24 -3l-1 33q-1 13 -1 33q0 31 5 41.5t20 10.5q13 0 56.5 -4.5t44.5 -5.5
q2 -2 -7 -29q-5 -18 -11.5 -26.5t-27.5 -23.5zM324 139q-25 0 -45.5 6.5t-33.5 16t-22 20t-12.5 18t-3.5 11.5t15 5.5t32.5 1.5t20.5 1q9 6 70 6q12 0 16 -4.5t2 -9.5l-2 -5q-5 -5 -5 -17q0 -8 -4.5 -16t-5.5 -19q-1 -10 -4.5 -12t-16.5 -3h-1zM350 395q6 0 8 -3.5t3.5 -17
t1.5 -41.5v-42l-36 -2h-16q-15 0 -25 2t-35 2h-10q-31 0 -31 9q0 5 4.5 10.5t12.5 12.5t13 15q7 13 17 13q7 0 12 4.5t11 4.5q7 0 11 9.5t16 9.5q9 0 23.5 7t19.5 7zM536 310q0 -17 -88 -17q-13 0 -13 1q-3 8 -5 64q-1 17 0.5 22t8.5 5q4 0 13.5 -7t21.5 -11q14 -5 38 -26
t24 -31zM412 541q0 -7 -15.5 -28.5t-22.5 -21.5q-10 0 -35.5 22t-46.5 44t-21 23q0 3 -23.5 30.5t-23.5 32.5q0 4 -9 11.5t-9 11.5q0 6 -5 6t-5 6q0 13 68 13q6 0 19 -0.5t27 -0.5t26.5 -0.5t21.5 -1.5h9q33 0 69 5.5t48 5.5q18 0 18 -9q0 -6 -5 -11t-5 -9q0 -7 -10 -15
q-11 -10 -36 -47.5t-25 -44.5q0 -5 -4.5 -10.5t-4.5 -11.5z" />
</svg>
