<?xml version="1.0" standalone="no"?>
<!DOCTYPE svg PUBLIC "-//W3C//DTD SVG 1.1//EN" "http://www.w3.org/Graphics/SVG/1.1/DTD/svg11.dtd" >
<svg xmlns="http://www.w3.org/2000/svg" xmlns:xlink="http://www.w3.org/1999/xlink" version="1.1" viewBox="-10 0 813 1000">
   <path fill="currentColor"
d="M395 95q0 -6 9.5 -12t18.5 -9l9 -2q4 0 10 11t6 19q0 17 7 25q7 7 10 21.5t12 28.5q11 18 11 26q0 9 15.5 41t32.5 64l18 31l6 13q6 14 15.5 33.5t19 39.5t18.5 35.5t13 18.5q8 6 8 10q0 7 23.5 51t23.5 49q0 8 3 8q2 0 5 7t8.5 17t10.5 16q4 5 7.5 10.5t5 9.5t3 7t3.5 3
q5 0 5 12q0 25 -12 41q-8 12 -13.5 15t-19.5 3q-22 0 -30 -5q-10 -6 -191.5 -10t-191.5 -9q-6 -3 -29 -3q-13 0 -48.5 2t-53.5 2q-70 0 -70 -32q0 -10 7.5 -27.5t15 -31t9.5 -13.5q5 0 16 -13t11 -18q0 -7 3 -7t9.5 -12t6.5 -19q0 -6 4 -6q2 0 5.5 -5.5t10 -17t14.5 -20.5
q7 -7 18.5 -27.5t20 -38t8.5 -18.5t-0.5 -1t-0.5 -1q0 -2 9.5 -14t11.5 -20q2 -11 7 -11q4 0 4 -7q0 -5 7 -10t7 -10q0 -6 38 -73.5t38 -78.5q0 -9 11.5 -27t11.5 -25q0 -9 9.5 -20t9.5 -16zM474 328q0 -4 -9 -14t-9 -15q0 -7 -4 -7q-2 0 -3.5 16.5t-3 39.5t-3.5 34
q-4 16 0 22q3 4 31 8t34 7q14 8 14 0t-11.5 -30t-23.5 -41t-12 -20zM332 414q26 0 34.5 -13.5t8.5 -41.5v-21q0 -8 2.5 -21.5t2.5 -16.5t-2 -3q-4 0 -17 19.5t-13 25.5q0 2 -17 25.5t-17 34.5q0 12 18 12zM314 491q-11 0 -19.5 -1.5t-12 -4t-6 -4t-3.5 -1.5q-4 0 -11.5 9
t-7.5 14t-16.5 25.5t-16.5 24.5t-11.5 13t-11.5 13t-12 29l-12 24q0 1 18.5 3t45.5 5.5t42 7.5l5 1q5 1 12.5 2t16 2.5t17.5 2.5t16 1q15 0 15 -5t-4 -9.5t-4.5 -6.5t5.5 -11q7 -7 7 -18q0 -4 -4 -40.5t-5 -61.5q-1 -19 -17 -19l-12 2q-3 3 -14 3zM567 490h-34q-33 0 -62 -3
l-38 -4l-3 16q-2 10 -2 30q0 25 1 38q4 68 11.5 80t46.5 13q27 1 48 6t40 5l32 4q5 0 20.5 -10t15.5 -14q0 -3 -20.5 -51t-26.5 -54q-8 -8 -18 -32z" />
</svg>
