<?xml version="1.0" standalone="no"?>
<!DOCTYPE svg PUBLIC "-//W3C//DTD SVG 1.1//EN" "http://www.w3.org/Graphics/SVG/1.1/DTD/svg11.dtd" >
<svg xmlns="http://www.w3.org/2000/svg" xmlns:xlink="http://www.w3.org/1999/xlink" version="1.1" viewBox="-10 0 863 1000">
   <path fill="currentColor"
d="M472 417q0 1 -5 43.5t-10 86.5t-5 49q0 2 1.5 4.5t3 9t1.5 19.5v6v7q0 19 2.5 29.5t2.5 12.5v4t-1 8.5t-3 10.5t-4.5 10t-7 8t-10.5 3q-2 0 -6 -0.5t-13 -3.5t-16.5 -8t-13.5 -16t-6 -26q0 -1 3.5 -12t3.5 -42q0 -33 3 -44t3 -30q0 -16 7.5 -64.5t7.5 -72.5q0 -31 -8 -37
q-3 -3 -63 -6t-71 -8q-6 -4 -23 -10t-29 -14q-6 -5 -18.5 -9t-44.5 -25q-12 -8 -24 -21t-20.5 -25t-10.5 -13q-14 -13 -20 -42t-8.5 -56t-5.5 -32q-6 -10 3 -28q4 -7 5.5 -9.5t4.5 -5t6.5 -3t10.5 -0.5q8 0 31 1.5t59.5 7t48.5 14.5q37 26 53 26q6 0 17 6t30 18t35 20
q21 11 37 27t21.5 25.5t5.5 11.5q0 5 5 5q4 0 9 12l5 11l13 -9q8 -5 20 -16.5t20 -20t11 -8.5h2q5 0 39.5 -36.5t42.5 -36.5q9 0 36.5 -12.5t30.5 -12.5h2q3 0 17 -5t18 -5l2 1q2 1 2.5 0t0.5 -3q0 -5 15 -5q19 0 34 7q12 5 15 10t3 19q0 23 0.5 26.5t2.5 3.5q5 0 5 59
q0 63 -11 63q-12 0 -12 22q0 6 -28 28.5t-28 24.5q0 11 -72.5 29.5t-112.5 18.5q-18 0 -28 1t-15 4t-5 9q0 2 0.5 4.5t0.5 6.5zM392 292q0 -15 -9 -33t-20 -18q-4 0 -11 -12.5t-14 -14.5q-9 -2 -9 -6q0 -2 -28.5 -17t-57 -29.5t-29.5 -14.5q-14 -7 -46 -7q-5 0 -6.5 0.5
t-5 2t-5 6t-1.5 12.5q0 16 7 34.5t16 27.5q3 2 12.5 12t20.5 19.5t20 13.5q5 2 20 10.5t19 11.5q15 8 23 10t28 2q71 0 75 -4q1 -1 1 -6zM524 325q34 0 75 -12t66 -24t25 -16q0 -3 13.5 -22t13.5 -32q0 -4 -0.5 -12.5t-3 -23.5t-9.5 -25.5t-17 -10.5q-16 0 -37.5 11.5
t-37.5 23.5t-18 12q-6 0 -32.5 27.5t-32 39.5t-9.5 12t-4 8q0 6 -9 17.5t-9 16.5q0 10 26 10z" />
</svg>
