<?xml version="1.0" standalone="no"?>
<!DOCTYPE svg PUBLIC "-//W3C//DTD SVG 1.1//EN" "http://www.w3.org/Graphics/SVG/1.1/DTD/svg11.dtd" >
<svg xmlns="http://www.w3.org/2000/svg" xmlns:xlink="http://www.w3.org/1999/xlink" version="1.1" viewBox="-10 0 732 1000">
   <path fill="currentColor"
d="M566 610q0 -1 1.5 -4t1.5 -6q0 -16 -11.5 -34t-23 -30t-11.5 -14q0 -4 -20.5 -18.5t-25.5 -14.5t-17.5 -11t-37 -22t-59.5 -11q-18 0 -56 3.5t-72 5.5q-67 3 -67 19q0 1 3.5 18t3.5 29q0 1 -5 39.5t-5 86.5q0 28 7 34t7 17q0 4 -1.5 12t-10 20t-23.5 12q-9 0 -24 -6
l-18 -8l2 -78q4 -103 4 -135q0 -13 -3 -26.5t-3 -54.5v-14.5v-16t0.5 -14.5t0.5 -11v-4q0 -23 -3 -32q-5 -16 -7.5 -101.5t-9.5 -95.5q-4 -5 -4 -14q0 -18 18 -31q9 -7 12.5 -6.5t20.5 9.5q26 14 26 34q0 6 -2.5 12.5t-2.5 7.5l1 2q0 3 0.5 8t1 12.5t1 20.5t0.5 29t-2 21.5
t-2 24.5q0 29 4 64.5t8 40.5q3 4 8 4q2 0 24.5 -3t48.5 -4q29 -1 43 -4t30 -3t31 -2.5t26 -5.5t20.5 -6.5t15.5 -7t10.5 -6.5t6.5 -5l2 -2q10 0 43.5 -30.5t33.5 -39.5q0 -5 5 -5q4 0 8 -5.5t8 -14t7 -12.5q15 -20 15 -50q0 -19 -4 -52l-3 -24l18 -7q18 -7 21 -7q6 0 20 11
l14 11l-1 62q-2 61 -5 64t-5 8q-4 19 -23.5 46t-29.5 27q-3 0 -9 11.5t-9 11.5q-5 0 -5 6q0 5 -21 18t-21 15q0 3 -6 3q-3 1 -6 3t-6.5 8.5t9.5 15.5q13 11 19 11q5 0 41 32.5t38 32.5q3 0 25 27.5t22 31.5q0 5 6 11q5 6 11 36t6 52q0 16 6.5 32t6.5 19q0 7 -11.5 21
t-25.5 14q-16 0 -31 -7t-15 -15q0 -5 -3.5 -10.5t-5 -7.5t1.5 -6q5 -2 5 -36q0 -11 -1 -19t-2.5 -10.5t-2.5 -4t-1 -2.5z" />
</svg>
