<?xml version="1.0" standalone="no"?>
<!DOCTYPE svg PUBLIC "-//W3C//DTD SVG 1.1//EN" "http://www.w3.org/Graphics/SVG/1.1/DTD/svg11.dtd" >
<svg xmlns="http://www.w3.org/2000/svg" xmlns:xlink="http://www.w3.org/1999/xlink" version="1.1" viewBox="-10 0 731 1000">
   <path fill="currentColor"
d="M165 14q4 0 5 -1t1.5 -3t11 -3t31.5 -1h32q29 0 33 -2t141.5 -6.5t150.5 -19.5q6 -6 17 -6q22 0 42 17q11 9 12 12.5t-3 12.5q-7 17 -6 32q5 85 7 154q1 27 7 35t6 31q0 21 -3 25q-8 12 -129 15.5t-128 10.5q-10 10 -10 53q0 9 1 15.5t2.5 8.5t2.5 4t1 2.5t-1 3.5
q-4 6 2 15t14 9q17 0 47.5 12t40.5 22q20 20 27 26q12 10 12 18q0 5 2 5.5t6.5 2t16 21.5t27.5 57q3 9 5.5 45.5t8.5 40.5q6 5 1 7q-6 3 -6 46q0 31 -2 38t-10 11q-6 6 -19.5 2.5t-16.5 -3.5h-1q-20 0 -20 -36q0 -9 1 -29.5t1 -31.5q0 -20 -2 -20q-3 0 -4 -15.5t-2.5 -33.5
t-5.5 -23q-18 -22 -18 -26q0 -8 -21 -30t-34 -27q-45 -18 -62 -18q-10 0 -44.5 16.5t-38.5 16.5q-7 0 -37.5 35.5t-37.5 50.5q-8 19 -8 43q0 52 7.5 85t7.5 42q0 19 -5 26q-9 11 -40 11q-10 0 -10 -3q0 -4 -5 -4q-6 0 -12.5 -7t-4.5 -11q1 -1 1 -5q0 -15 -43.5 -57
t-43.5 -58q0 -26 33 -26q16 0 33.5 18.5t19.5 18.5t2.5 -4t1.5 -17t4 -28q14 -61 17 -63q7 -7 19 -28q15 -26 29 -37.5t53 -30.5l46 -21l-3 -30q-3 -27 -3 -56l2 -28q0 -5 -22 -5q-19 0 -52.5 4.5t-51.5 4.5q-10 0 -14 -1q-14 -2 -18 0t-10 14q-8 17 -19 17q-10 0 -23 -12
t-13 -22l-2 -17l-1 2q-1 -1 -1 -4q0 -2 3 -14.5t6.5 -39t3.5 -63.5q0 -28 -2.5 -45t-5.5 -22.5t-3 -6.5t1.5 -4t1.5 -6q0 -4 -7.5 -21t-7.5 -29q0 -11 8 -25t8 -19q0 -6 10.5 -10.5t24.5 -4.5q8 0 19.5 2.5t14.5 2.5zM567 59q-2 -10 -5.5 -12.5t-15.5 -2.5q-9 0 -20.5 2.5
t-52.5 4.5q-51 2 -67.5 6t-19.5 15q-4 13 -4 109q0 61 6 67q5 5 17 6t16 -3q2 -2 22.5 -3t52.5 -2t53 -3l34 -4v-44q0 -43 -4 -43q-4 -1 -4 -14q0 -41 -8 -79zM160 247q0 14 3 20t7 7t14 1q6 0 15.5 -0.5t27 -1.5t31.5 -2q45 -3 57 -5t12 -7l-1 -2q0 -2 -1 -6t-2 -9.5
t-1.5 -14.5t-0.5 -20q0 -27 -2.5 -72t-2.5 -55v-18h-23q-2 0 -23.5 2t-50.5 6t-42 7l-25 5v41q0 30 5.5 60t5.5 37q0 3 -1.5 11.5t-1.5 15.5z" />
</svg>
