<?xml version="1.0" standalone="no"?>
<!DOCTYPE svg PUBLIC "-//W3C//DTD SVG 1.1//EN" "http://www.w3.org/Graphics/SVG/1.1/DTD/svg11.dtd" >
<svg xmlns="http://www.w3.org/2000/svg" xmlns:xlink="http://www.w3.org/1999/xlink" version="1.1" viewBox="-10 0 669 1000">
   <path fill="currentColor"
d="M181 236q20 0 20 47v7q0 17 4 58.5t8 74.5t5 34t-3.5 6.5t-2.5 16.5q2 9 -2 16t-1 20q2 8 2 51v19q0 34 3 34q1 0 1 49q0 19 8 28q21 24 11 29q-5 3 -5 16q0 33 -41 33q-20 0 -26.5 -3.5t-14.5 -17.5t-3 -32q3 -10 3 -40q0 -9 -1.5 -35t-1.5 -40q0 -36 7.5 -92.5
t7.5 -85.5q0 -12 -11 -75.5t-11 -80.5q0 -28 20 -28q7 0 14 -4.5t10 -4.5zM101 117q-38 0 -38 -28q0 -30 18.5 -36t104.5 -6q181 0 205 6q79 16 103.5 26.5t43.5 35.5q7 10 28 35q10 12 10 20q0 7 4 11t4 18q0 11 2.5 37.5t2.5 34.5q0 14 -6 32.5t-6 24.5q0 4 1 6
q3 10 -4 10q-8 0 -8 10t-29.5 43t-42.5 38q-6 2 -18.5 8t-31.5 9q-51 10 -51 14t-6 4q-9 0 -18 15q-2 3 -1 4q4 0 -9 13q-20 20 -20 92l1 13q0 19 -14.5 31.5t-27.5 12.5q-4 0 -12 -2t-19.5 -13t-11.5 -29q0 -20 8 -51.5t9 -44.5q1 -15 7 -25t6 -15q0 -16 36 -42t65 -31
q88 -20 109 -45q17 -21 17 -41t6.5 -32t6.5 -28q0 -7 -2 -18.5t-8.5 -32.5t-24 -39t-43.5 -26q-87 -28 -184 -28q-33 0 -88 4.5t-74 4.5z" />
</svg>
