<?xml version="1.0" standalone="no"?>
<!DOCTYPE svg PUBLIC "-//W3C//DTD SVG 1.1//EN" "http://www.w3.org/Graphics/SVG/1.1/DTD/svg11.dtd" >
<svg xmlns="http://www.w3.org/2000/svg" xmlns:xlink="http://www.w3.org/1999/xlink" version="1.1" viewBox="-10 0 699 1000">
   <path fill="currentColor"
d="M198 513q0 -3 -11.5 -15t-11.5 -17q0 -6 -5 -6q-4 0 -11 -13t-34 -40.5t-39 -33.5q-10 -6 -15.5 -18t-5.5 -18q0 -8 18 -27q17 -19 35.5 -44.5t18.5 -30.5t5 -5q4 0 44 -39.5t40 -44.5t7 -5q2 0 30 -40t50 -40q3 0 4.5 0.5t2.5 2t5 5t12 7.5q13 7 13 16q0 18 -62 79.5
t-62 66.5q0 6 -9 11q-12 7 -31 38t-19 42q17 33 22 33q2 0 2.5 0.5t0 3t-0.5 5.5t3 8.5t8 11.5q4 4 26 36.5t22 33.5q0 3 12.5 21t27 39t17.5 29q5 14 22.5 19.5t58.5 5.5q48 0 59 6t49 6h14q15 0 31.5 -0.5t21.5 -0.5q39 0 45 6q12 15 12 31q0 26 -22 32.5t-70 6.5
q-53 0 -86 -5.5t-39 -5.5q-1 0 -35.5 5.5t-61.5 5.5q-15 0 -24.5 -15t-13.5 -30.5t-5 -15.5q-4 0 -4 -7t-5 -7q-3 0 -5 -4.5t-10.5 -19.5t-20.5 -32q-20 -29 -20 -33z" />
</svg>
