<?xml version="1.0" standalone="no"?>
<!DOCTYPE svg PUBLIC "-//W3C//DTD SVG 1.1//EN" "http://www.w3.org/Graphics/SVG/1.1/DTD/svg11.dtd" >
<svg xmlns="http://www.w3.org/2000/svg" xmlns:xlink="http://www.w3.org/1999/xlink" version="1.1" viewBox="-10 0 1088 1000">
   <path fill="currentColor"
d="M701 741q-13 0 -23 -11.5t-13.5 -20.5t-3.5 -12q0 -2 3 -5t6 -13.5t3 -31.5q0 -25 -4 -44.5t-8 -29.5t-4 -13l1 -1v-2q2 -4 -1 -8.5t-3 -7.5q0 -19 18 -32q14 -9 18 -10t15 4q16 6 25 39t10 52.5t1 30.5v37q0 20 1.5 31t1.5 12q0 36 -43 36zM678 325q0 -14 12 -28.5
t28 -14.5q17 0 32 17t15 32q0 8 -3 20l-5 23l-26 -1q-23 -1 -36 -12t-15 -19.5t-2 -16.5zM581 365q0 -3 -15 -13t-15 -23q0 -17 25 -40q9 -9 24 -10t28.5 14t13.5 47q0 17 -15.5 26t-29.5 9q-16 0 -16 -10zM502 599q0 -9 -9.5 -21.5t-9.5 -19.5q0 -5 -3.5 -14t-3.5 -12
q0 -10 13 -26q6 -9 25 -1q34 14 34 36q0 9 7 18t7 16t7.5 18t9.5 23q4 30 23.5 59t19.5 42q0 9 -9 24l-9 16l-144 -3q-232 -5 -259 -12q-16 -4 -32 -7q-8 -1 -15.5 -6.5t-13.5 -5.5q-9 0 -9 -4q0 -5 -9 -5q-4 0 -5.5 -1t-1 -3t-2.5 -5t-10 -7q-14 -7 -14 -14q0 -5 -5.5 -11
t-11.5 -23.5t-6 -51.5q0 -18 4.5 -23t4.5 -12q0 -15 20 -60q4 -10 23 -31.5t23 -21.5h1q0 1 1 1q7 0 13.5 -3t13 -6.5t28 -6.5t55.5 -3q51 0 63 5q13 5 17.5 1.5t4.5 -16.5q0 -9 2.5 -25t2.5 -21q0 -6 -2 -10t-2 -5t1.5 -3.5t5.5 -10.5t8 -21q8 -28 19 -50t20 -35t10 -16
q11 -28 37 -53.5t45 -37t21 -11.5q6 0 11 -8q8 -11 28 -25t28 -15q6 -1 28 -8.5t43 -10.5q26 -3 26 -8q3 -4 15 -1.5t27 7.5l16 6q1 0 4.5 -0.5t6.5 -0.5q11 0 24 10q15 13 18 35t9.5 49.5t29.5 51.5q21 21 21 27q0 4 53 59.5t53 57.5t13.5 9t15.5 14q2 9 12 9q9 0 17 12.5
t8 25.5q0 11 -7.5 22t-14.5 11q-5 0 -14 9q-13 15 -63 47.5t-59 32.5q-13 0 -13 11q0 6 4 17t4 14v5l-1 -2q-1 -3 -1 2q-1 7 -1 30q0 29 2.5 49.5t5 30t2.5 12.5q0 4 -14.5 22.5t-21.5 18.5q-4 0 -13 -3t-21 -17t-12 -36q0 -4 2.5 -31.5t2.5 -48.5q0 -24 -5.5 -38.5
t-5.5 -51.5q0 -17 3 -23.5t14 -18.5q15 -17 22 -19q5 -1 12 -5t10 -5t8 4q1 2 5 2q7 0 29 -13.5t31 -17.5q12 -5 12 -13q0 -15 -64 -76q-82 -80 -98.5 -98.5t-20.5 -38.5q-5 -23 -5 -41q0 -12 -7.5 -18t-7.5 -14q0 -7 -3 -8.5t-16 0.5q-31 4 -41 7t-31 6t-42 17t-23 14
q-1 0 -18 13.5t-37.5 34t-27.5 34.5q-11 21 -17 21q-4 0 -6.5 5t-5.5 14.5t-6 15.5q-3 5 -3 15q0 1 -5 1q-8 0 -8 21t-5 21t-5 12t5 12q1 0 1 1l-8 27q-9 27 -9 47l1 13v2q0 3 -2.5 9t-2.5 16q0 1 4 38t4 79v66l30 1h8q21 0 43.5 -5.5t28.5 -5.5q5 0 8 1q9 2 10 1t-1 -9
t-10 -16t-8 -14v-6q0 -6 -6 -18t-6 -14zM145 637q0 10 22 22t37 12q10 0 13 -9.5t3 -35.5q0 -55 -1 -66q0 -6 2.5 -13t2.5 -10q0 -16 -15 -31q-6 -4 -7 2q0 4 -14 4q-9 0 -21 9.5t-12 16.5q0 2 -11.5 31t-11.5 44q0 11 6.5 15.5t6.5 8.5zM286 657q0 12 1 16.5t6 8.5t16 4
q12 0 13 -24q1 -12 3.5 -22t4 -24.5t1.5 -44.5v-7l-1 -54l-24 -2q-27 -3 -27 4l1 34q2 35 4 71t2 40z" />
</svg>
