<?xml version="1.0" standalone="no"?>
<!DOCTYPE svg PUBLIC "-//W3C//DTD SVG 1.1//EN" "http://www.w3.org/Graphics/SVG/1.1/DTD/svg11.dtd" >
<svg xmlns="http://www.w3.org/2000/svg" xmlns:xlink="http://www.w3.org/1999/xlink" version="1.1" viewBox="-10 0 920 1000">
   <path fill="currentColor"
d="M156 686q-10 0 -30 3.5t-29 3.5q-28 0 -28 -22q0 -10 6 -28t9 -18q2 0 22.5 -8.5t21.5 -8.5q3 -1 23 -9q15 -6 48.5 -38.5t33.5 -40.5q0 -7 10 -15q14 -12 58 -81q1 -2 9.5 -10.5t15 -16.5t6.5 -12q0 -7 12 -29q27 -51 27 -102q0 -65 -9 -90q-7 -23 -7 -34t7.5 -21
t8.5 -18q4 -18 27 -18q20 0 25 13q2 8 19 16q16 7 16 10l-6 -1l9 9l4 4l18 15l-3 43q-1 12 -1 29q0 13 8.5 27t8.5 25q0 14 5 17q5 1 0 5.5t-2 8.5q5 8 13 28q9 23 28 49q6 8 22.5 34t31 46.5t25.5 29.5q24 21 30 27q14 14 19 14t10 7q5 6 20 10q11 2 31.5 16.5t29.5 17.5
q19 6 23 12q5 7 14 7q8 0 27 17q17 16 17 25q0 26 -9.5 36.5t-30.5 10.5q-27 0 -54 -15.5t-98 -71.5q-18 -14 -35.5 -21.5t-44.5 -15.5t-44 -14l-34 -13l-27 8q-28 8 -41 8h-1q-29 0 -78 32q-33 22 -63 26q-13 1 -23.5 9.5t-46.5 43.5q-22 21 -29.5 25t-24.5 4zM458 356
q0 -4 -13 -17t-18 -13q-6 0 -9 16q-4 25 -28.5 71t-44.5 66q-21 21 -21 27q0 1 2 1q3 0 10 -4t39.5 -10t35.5 -7q10 -2 38 -2h19q28 0 50 -2l24 -3l-9 -16q-7 -12 -22.5 -28t-20.5 -16q-3 0 -17.5 -29t-14.5 -34z" />
</svg>
