<?xml version="1.0" standalone="no"?>
<!DOCTYPE svg PUBLIC "-//W3C//DTD SVG 1.1//EN" "http://www.w3.org/Graphics/SVG/1.1/DTD/svg11.dtd" >
<svg xmlns="http://www.w3.org/2000/svg" xmlns:xlink="http://www.w3.org/1999/xlink" version="1.1" viewBox="-10 0 913 1000">
   <path fill="currentColor"
d="M273 601v-10q0 -13 14 -40q15 -27 15 -36q0 -4 10 -18q10 -12 4 -24q-5 -13 2 -21q8 -10 8 -11q0 -5 5 -16t9 -11q8 0 14.5 5.5t6.5 9.5q0 3 28 33.5t28 32.5q0 4 8 10q9 7 33 43q22 33 46 57q17 17 17 24t-19 21q-13 10 -28 4q-14 -5 -44 -5q-57 0 -108 18q-26 9 -38 9
q-23 0 -23 -36q0 -8 6 -19t6 -20zM417 619q18 0 18 -5q0 -7 -18 -34q-23 -34 -39 -52l-19 -20l-7 16q-7 16 -7 20q0 2 -20.5 31.5t-20.5 32.5q0 5 45.5 8t67.5 3zM387 242q0 -4 -15 -30.5t-15 -32.5q-2 -23 -12 -23q-4 0 -12 18.5t-17 46t-11 31.5q-1 2 -7.5 19t-12 28
t-9.5 15t-5.5 16t-5.5 24q-39 116 -61 159q-19 38 -19 47q0 10 -14 28q-14 17 -14 22q0 3 -7 10.5t-7 11.5q0 6 -16 40t-23 44q-8 10 -21 10q-18 0 -18 -18q0 -8 7 -24t8 -22q3 -12 17 -45q13 -30 13 -32t13 -22.5t13 -21.5t13 -29q10 -21 15 -42q3 -12 7.5 -25t7.5 -24
q2 -6 15 -43q56 -137 61 -178q4 -28 21 -63.5t37 -56.5q18 -21 27 -21q5 0 5 8q0 17 13 4q6 -6 10 2q7 10 21 16q21 11 29 49q2 10 16 39t16 39q4 15 10 20q6 4 6 10q0 4 21 39q13 22 26.5 47.5t26 46.5t34.5 52q14 19 14 25q0 3 4 5t21 25t17 27q0 3 9.5 17.5t14.5 19.5
q3 2 15.5 22t14.5 22q5 5 10 17q4 9 23 36t23 34q9 18 21 30q7 8 11 15t5 10.5t5.5 7t14 6t28.5 5.5l23 4l2 21q1 21 -7 25q-16 6 -81 6q-33 0 -33 -3t-14 -3q-17 0 -60 5q-14 1 -14 -4q0 -3 -11 -3q-22 0 -30 4q-1 1 -129 1t-134 -5q-4 -4 -5 -3.5t1 5.5q0 3 0.5 4.5
t-2.5 1.5h-5.5t-6.5 -0.5t-7 -0.5q-9 0 -33 2t-34 2q-4 0 -11.5 -1.5t-11 -2t-6.5 1.5q-3 5 -8 2q-3 -2 -54 -4q-46 -2 -56 -5t-10 -17q0 -36 28 -36q19 0 25 4q10 6 14 6q11 0 22 -12q13 -14 41 -14q5 0 18 0.5t20 0.5q21 0 30 -3q20 -4 85 -4q203 0 255 12q20 5 60 5
q24 0 24 -3q0 -12 -48 -75q-22 -29 -22 -35q0 -3 -14 -25q-3 -5 -14 -21.5t-16 -23.5q-36 -53 -54 -70q-14 -14 -28 -44q-15 -31 -19 -31t-58 -92q-24 -42 -41 -66q-9 -13 -9 -19z" />
</svg>
