<?xml version="1.0" standalone="no"?>
<!DOCTYPE svg PUBLIC "-//W3C//DTD SVG 1.1//EN" "http://www.w3.org/Graphics/SVG/1.1/DTD/svg11.dtd" >
<svg xmlns="http://www.w3.org/2000/svg" xmlns:xlink="http://www.w3.org/1999/xlink" version="1.1" viewBox="-10 0 968 1000">
   <path fill="currentColor"
d="M666 582q0 19 8 67t16 89l7 40q0 34 -40 34q-13 0 -27.5 -12t-14.5 -22q0 -8 -8.5 -17t-25.5 -26t-31 -38q-15 -23 -40 -45t-35 -22q-5 0 -21.5 15.5t-16.5 20.5q0 3 -19.5 19.5t-41.5 40.5t-28 44q-5 18 -10.5 23.5t-20.5 9.5q-20 5 -36 5q-25 0 -44 -8.5t-19 -16.5
q0 -4 12.5 -55.5t12.5 -63.5q0 -27 -25 -37q-13 -5 -36 -15.5t-33 -14.5q-11 -4 -28.5 -18.5t-20.5 -14.5q-5 0 -16.5 -18t-11.5 -26q0 -6 9 -25t9 -28q0 -25 52 -25q21 0 49.5 -7t33.5 -7q20 0 20 -33q0 -18 -9.5 -47.5t-9.5 -40.5q-1 -12 -7.5 -21t-8.5 -19
q-8 -41 -25 -67.5t-17 -32.5q0 -12 13.5 -20.5t23.5 -8.5q12 0 39 16t32 16q7 0 19 12q10 10 36 22.5t35 12.5q5 0 10 3t8 3q8 0 19 -6t15 -13q1 -3 7 -27t14 -36q18 -26 25.5 -42t17.5 -28q11 -15 11 -23q0 -6 7.5 -10.5t7.5 -9.5q0 -8 20 -8q36 0 36 11q0 5 8.5 10.5
t8.5 11.5l-1 1q0 2 -1 5t-2 8.5t-2 15t-2 22t-1.5 31.5t-0.5 42q0 37 2 53.5t5.5 19.5t11.5 3h1q26 0 40.5 -4.5t26 -12.5t21.5 -11q11 -3 24 -9t21.5 -10t11.5 -4q4 0 18 -7t23 -7q13 0 25.5 12t12.5 23q0 15 -25 41q-17 19 -32.5 48.5t-15.5 43.5q0 21 45 64t79 54
q27 8 27 50q0 31 -25.5 39t-101.5 8h-57q-31 0 -37 1.5t-6 8.5zM292 502q-4 0 -20 -4t-32 -4q-12 0 -28.5 5t-32.5 7q-26 3 -26 9q0 8 25 28.5t35 20.5q9 0 32.5 14t39.5 14q15 0 20 10.5t5 41.5q0 17 -1 29.5t-2 18.5t-2 10t-2 5.5t-1 2.5t1 1q5 0 20.5 -16.5t26.5 -34.5
q10 -16 30.5 -27t31.5 -32q3 -7 10.5 -18t20.5 -23.5t22 -12.5q18 0 41 11t30 24q3 6 14 13t18 21q9 17 26 35.5t24 18.5q3 0 5 -4t1 -11t-7 -14q-6 -8 -6 -25q0 -11 -10.5 -36.5t-10.5 -34.5q0 -7 5.5 -13.5t6.5 -10.5t42 -7t84.5 -7t49.5 -10q3 -3 -5.5 -12.5t-13.5 -9.5
q-2 0 -16.5 -8.5t-35 -27t-31.5 -38.5q-11 -21 -11 -30q0 -10 13 -35t13 -42q0 -6 -3 -6q-1 0 -8 4.5t-21 11.5t-30 11t-30.5 12.5t-22.5 14.5t-10 6q-3 0 -14.5 -4.5t-25 -16t-13.5 -25.5q0 -5 1 -7q2 -8 -1.5 -14.5t0.5 -19.5q2 -10 2 -23q0 -14 -2 -38t-4.5 -42.5
t-3.5 -18.5t-9 15t-16 34.5t-8 28.5q0 29 -4 33q-7 5 -7 14q0 6 -18 24t-24 18q-3 0 -22 -12t-30 -14q-10 -2 -15.5 -9t-12.5 -7t-14.5 -7.5t-19.5 -9.5q-9 -2 -25.5 -10.5t-21.5 -8.5q-6 0 -6 4t7 26.5t15.5 56t11.5 60.5q2 25 15 32q16 10 16 17q0 5 -6.5 18.5t-6.5 16.5
l2 5q3 4 3 11q0 27 -17 27z" />
</svg>
