<?xml version="1.0" standalone="no"?>
<!DOCTYPE svg PUBLIC "-//W3C//DTD SVG 1.1//EN" "http://www.w3.org/Graphics/SVG/1.1/DTD/svg11.dtd" >
<svg xmlns="http://www.w3.org/2000/svg" xmlns:xlink="http://www.w3.org/1999/xlink" version="1.1" viewBox="-10 0 804 1000">
   <path fill="currentColor"
d="M504 102q0 -6 5.5 -10.5t12.5 -4.5q10 0 19.5 7t9.5 16q0 2 5 2t15 11t10 16q0 3 -3.5 11t-3.5 15q0 10 -4 10q-5 0 -11 24t-6 42q0 8 2 12q1 2 8.5 34t11.5 34q2 1 2 10q0 5 12.5 18t12.5 15q0 3 24.5 26.5t27.5 23.5q4 0 24 13q18 12 32 14q24 3 24 32q0 17 -9.5 23.5
t-34.5 6.5t-36 5.5t-18 21.5q-6 15 -22 22t-16 12q0 4 -26 19q-25 14 -44 32.5t-19 27.5q0 7 -5 12.5t-5 11.5q0 3 -10.5 35.5t-10.5 37.5t-22 13t-35 8q-10 0 -22 -14t-16 -14t-13 -18q-8 -16 -21 -31q-8 -9 -15 -26t-15 -26q-12 -12 -12 -20t-35 -37q-5 -4 -43 -13.5
t-42 -11.5q-15 -7 -28 -7q-11 0 -31.5 6.5t-24.5 10.5t-11 4q-9 0 -19 -13t-10 -23q0 -9 11 -26.5t23 -28.5q32 -29 36 -68q1 -10 12.5 -31t11.5 -34q0 -71 -11 -84q-6 -6 -11 -27q-4 -17 -9 -17q-4 0 -8.5 -9t-9.5 -9q-8 0 -8 -15q0 -23 13 -45q7 -13 12.5 -16.5t16.5 -3.5
q15 0 39 14.5t28 26.5q4 10 18 13q14 4 14 9q0 6 48 6q17 0 43 2t32 2q20 0 47 -10t38 -21q15 -15 33 -30q22 -18 22 -24zM625 460q0 -8 -13 -8q-7 0 -29 -12q-13 -8 -18 -14t-9 -19q-5 -21 -9 -21q-7 0 -27.5 -23t-22.5 -32q-13 -65 -13 -75q0 -26 -3 -28q-2 -1 -5 -1
q-5 0 -21.5 12.5t-22.5 12.5h-2h-1q-1 -1 -2 -1q-12 0 -38 7q-28 9 -83 9q-56 0 -81 -10q-16 -7 -20 -7q-2 1 -0.5 6t5 12t6.5 11q6 6 6 20q0 17 -8 27q-6 6 -8 30q-1 14 -10.5 55t-9.5 57q0 4 0.5 7t1 5.5t2 4.5t2 3.5t3.5 2.5l4.5 1.5t5.5 1t6 0.5t7.5 0.5t8.5 0.5
q29 2 56 12.5t38 23.5q12 14 17 14q6 0 11 10q10 19 33.5 42t32.5 23q10 0 33 -15t30 -26q12 -17 31 -37t24 -20t20 -11q4 -4 23.5 -14.5t34 -20.5t14.5 -16z" />
</svg>
