<?xml version="1.0" standalone="no"?>
<!DOCTYPE svg PUBLIC "-//W3C//DTD SVG 1.1//EN" "http://www.w3.org/Graphics/SVG/1.1/DTD/svg11.dtd" >
<svg xmlns="http://www.w3.org/2000/svg" xmlns:xlink="http://www.w3.org/1999/xlink" version="1.1" viewBox="-10 0 841 1000">
   <path fill="currentColor"
d="M741 386q0 13 7 63t7 76q0 17 -12 42t-15 56q-1 8 -25 35.5t-30 27.5q-3 0 -14.5 7.5t-29 18.5t-30.5 17t-32 18.5t-45 21.5q-42 14 -88 14q-54 0 -179 -30q-9 -2 -29 -20.5t-22 -18.5q-12 0 -59 -60.5t-47 -74.5q0 -11 -5.5 -18t-7.5 -17q-1 -10 -5 -17q-2 -3 -2 -49
q0 -27 1 -43.5t10 -42t27 -44.5q16 -18 22 -18q3 0 10.5 -6t19.5 -15.5t22 -14.5q14 -8 19 -13q2 -4 49 -4q35 0 47 7q21 12 50 27q22 11 22 16q0 2 4 -4q21 -32 21 -46q0 -8 5 -8q8 0 8 -10q0 -7 7 -16.5t7 -15.5q0 -14 40 -65t56 -51q11 0 25.5 11t14.5 19t-8 21t-13 13
q-7 0 -7 7q0 4 -27 34.5t-32 49.5q-2 8 -0.5 10t10.5 2q10 0 40 -7.5t56 -7.5q49 0 76 25q12 12 23.5 19t16.5 9.5t5 4.5q0 3 7 3q6 0 15.5 21.5t11.5 21.5t2 13v6zM652 629q4 0 14 -9.5t21 -39.5t11 -72q0 -78 -18 -121q-5 -13 -24.5 -33.5t-25.5 -20.5q-5 0 -8.5 -6.5
t-18.5 -5.5q-21 1 -46 6t-25 8q0 4 -7 4q-14 0 -43.5 23.5t-29.5 44.5q0 12 -4 12q-5 0 -5 7q0 6 -7 6q-9 0 -33 -4q-20 -4 -25 -7t-7 -12q-1 -7 -5 -10.5t-12.5 -8.5t-16.5 -13q-12 -14 -17 -14q-3 0 -12 -4.5t-23 -8.5t-31 -4q-22 0 -26 6q-3 5 -29 17.5t-43 38.5
q-15 24 -15 46q0 45 10 75q12 36 15 47q8 29 66 81t117 55q40 2 55 2q56 0 91.5 -9t51.5 -17.5t26 -8.5q2 0 2.5 0.5t1.5 0.5q8 0 26.5 -10.5t23.5 -18.5q14 -22 25 -22z" />
</svg>
