<?xml version="1.0" standalone="no"?>
<!DOCTYPE svg PUBLIC "-//W3C//DTD SVG 1.1//EN" "http://www.w3.org/Graphics/SVG/1.1/DTD/svg11.dtd" >
<svg xmlns="http://www.w3.org/2000/svg" xmlns:xlink="http://www.w3.org/1999/xlink" version="1.1" viewBox="-10 0 494 1000">
   <path fill="currentColor"
d="M304 676q0 6 20 12t44.5 11.5t44.5 19t20 31.5q0 20 -30 20q-3 0 -23.5 -3.5t-49 -10.5t-40.5 -15q-17 -12 -31 -15q-7 -3 -10.5 -1.5t-4.5 6t-3 17.5q-7 50 -14 50q-1 0 -15 -4.5t-23 -4.5t-15 -8t-6 -20q0 -7 -2 -8t-9 1q-13 4 -36 3q-11 -1 -15.5 -4t-8.5 -14
q-5 -12 -4.5 -16t7.5 -16q7 -11 17 -16t16.5 -6t6.5 -4q0 -1 -41.5 -13.5t-41.5 -28.5q0 -15 15.5 -27.5t28.5 -12.5q7 0 35 8.5t36 8.5q3 0 3 -6q0 -4 -2.5 -19t-2.5 -23q0 -29 18 -41q15 -9 20 -9q8 0 22 15t14 27q0 1 -1 6t-2.5 17.5t-1.5 29.5q0 21 2 21l7 -4
q7 -5 18 -12t23.5 -14t26 -11.5t23.5 -4.5q9 0 17.5 10.5t8.5 21.5q0 14 -15.5 25.5t-30.5 19t-15 11.5zM180 348q0 -2 1 -5.5t2.5 -9t2.5 -26t1 -53.5q0 -86 -5 -86l-1 -12q-1 -12 -2.5 -29.5t-3.5 -28.5q-2 -13 -0.5 -17t10.5 -12q14 -11 35 -11q13 0 17 5q4 7 6 129.5
t8 128.5q4 4 4 12q0 13 -7 27t-15 14q-4 0 -8 -4q-7 -4 -8.5 -4t-6 2.5t-8.5 2.5q-8 0 -15 -7t-7 -16z" />
</svg>
