<?xml version="1.0" standalone="no"?>
<!DOCTYPE svg PUBLIC "-//W3C//DTD SVG 1.1//EN" "http://www.w3.org/Graphics/SVG/1.1/DTD/svg11.dtd" >
<svg xmlns="http://www.w3.org/2000/svg" xmlns:xlink="http://www.w3.org/1999/xlink" version="1.1" viewBox="-10 0 685 1000">
   <path fill="currentColor"
d="M607 608q0 4 -3 12t-3 14q0 10 -27 24.5t-48 14.5q-13 0 -20 -4t-21 -18q-19 -20 -19 -32q0 -25 18 -49t30 -26q16 -2 21 -2q33 0 52.5 22.5t19.5 43.5zM212 261q0 32 -12 50t-20 20.5t-13 2.5q-11 0 -30.5 -10t-23.5 -11q-23 -8 -23 -54q0 -29 -1 -34q-3 -13 4 -13
l16 -11q16 -11 38 -11q18 0 42 23q17 17 20 23.5t3 24.5zM203 590q0 3 -16.5 15.5t-16.5 22.5q0 11 -13 19q-14 9 -24 17.5t-13.5 12t-7.5 3.5q-3 0 -12.5 -9t-21.5 -12q-15 -4 -15 -19q0 -10 10 -20.5t24.5 -20.5t18.5 -15q3 -4 11 -11.5t30.5 -30.5t54.5 -59
q35 -39 84 -85q20 -18 20 -22q0 -2 14 -12t36 -27t36 -33t39 -37t50 -51q19 -24 32 -35t18 -13t13 -2q17 0 27 14t10 27q0 17 -17 26q-13 7 -25.5 18.5t-12.5 16.5q0 3 -4 6q-21 14 -58 51q-37 36 -82 71t-61 56q-5 6 -38.5 37t-39.5 44q-5 9 -17.5 22t-22.5 22.5t-10 12.5z
" />
</svg>
