<?xml version="1.0" standalone="no"?>
<!DOCTYPE svg PUBLIC "-//W3C//DTD SVG 1.1//EN" "http://www.w3.org/Graphics/SVG/1.1/DTD/svg11.dtd" >
<svg xmlns="http://www.w3.org/2000/svg" xmlns:xlink="http://www.w3.org/1999/xlink" version="1.1" viewBox="-10 0 904 1000">
   <path fill="currentColor"
d="M319 373h3q4 0 45 -13t63 -13q15 0 55 6q43 6 65 18.5t52 47.5q4 4 7 15t6 19t7 8q6 0 6 14q0 10 7.5 17.5t7.5 22.5q0 13 5 26t5 23q0 22 -12.5 49t-12.5 34q0 9 -7 14t-7 9q0 5 -19.5 22t-25.5 17q-4 0 -9.5 12t-25.5 17q-12 3 -25 8t-21 8t-10 3q-124 0 -141 -11
q-10 -6 -24 -10q-20 -5 -37.5 -21t-32 -35t-18.5 -22q-14 -12 -16 -40q-1 -8 -3 -23t-2 -18q-2 -10 2.5 -15.5t4.5 -12.5q0 -36 42 -109q15 -26 21.5 -33t15.5 -7q8 0 16.5 -13.5t12.5 -13.5zM549 453q0 -22 -51.5 -36.5t-78.5 -14.5q-6 0 -6 2q0 3 -7.5 5t-21 5t-22.5 7
q-14 7 -27 7q-10 0 -13.5 4.5t-6 13t-7.5 14.5q-4 5 -9.5 19.5t-13.5 22.5q-8 10 -6 10t2 1t-4.5 7.5t-9 19.5t-4.5 30q0 27 11.5 54.5t11.5 30.5q0 7 11 7q1 0 26.5 8t59.5 16t55 8q12 0 34 -6q42 -10 63 -26t35 -46q15 -32 17.5 -41t2.5 -27q0 -16 -6.5 -20t-6.5 -13
t-5 -14t-5 -10t-9 -19t-9 -19zM530 274q0 -13 13 -24t26 -18t13 -12q0 -4 3 -6.5t10 -6t12 -9.5q7 -9 19 -9q7 0 13 -7t18 -9t29.5 -16t27.5 -14q3 0 16 1.5t31 5.5t22 9q5 7 11 7q3 0 9.5 6.5t13 18t6.5 23.5q0 23 -6.5 44.5t-13 34t-6.5 15.5q0 8 -5.5 15.5t-5.5 17.5
q0 7 -16 29.5t-23 43.5q-6 18 -13.5 25t-22.5 7q-22 0 -33.5 -11t-11.5 -22q0 -8 4 -9q7 -2 27 -30t20 -35t7 -19.5t7 -15.5q0 -7 14 -36t14 -40q0 -10 -10.5 -15.5t-20.5 -6.5h-11q-34 0 -74.5 41t-44.5 55q-4 9 -13 7q-9 -3 -23 -3q-13 0 -22.5 -9.5t-9.5 -22.5zM119 114
q15 0 38 10t38.5 20.5t15.5 11.5q0 2 11 7.5t25.5 13.5t20.5 15q11 11 15 11q2 0 28 24q18 17 21 24t3 26q0 29 -10 29t-63.5 -44.5t-56.5 -44.5q-1 0 -26 -16.5t-33 -16.5t-8 16q0 36 12 62q12 29 14 37q3 11 15 31t12 40q0 19 -8.5 30t-13.5 12.5t-9 1.5q-8 0 -18 -13
t-10 -23q0 -6 -12.5 -24t-14.5 -32l-3 -13q-4 -13 -9.5 -32t-11 -40t-9 -41.5t-3.5 -31.5q0 -16 8 -24t8 -10q0 -5 11.5 -10.5t22.5 -5.5z" />
</svg>
