<?xml version="1.0" standalone="no"?>
<!DOCTYPE svg PUBLIC "-//W3C//DTD SVG 1.1//EN" "http://www.w3.org/Graphics/SVG/1.1/DTD/svg11.dtd" >
<svg xmlns="http://www.w3.org/2000/svg" xmlns:xlink="http://www.w3.org/1999/xlink" version="1.1" viewBox="-10 0 893 1000">
   <path fill="currentColor"
d="M62 313q0 -11 49 -56t49 -54q0 -6 12 -26t14 -28t9 -13t7 -10q0 -7 7 -7q6 0 6 -8t3.5 -16t15.5 -8q2 0 11 1t15.5 1t6.5 -2q0 -3 33 -3h29q29 0 49 -2t27 -2l13 1q14 1 35.5 3t46.5 4t54 3t51 1q5 0 20.5 -0.5t25.5 -0.5q43 0 43 26q0 8 14 27t14 23q0 7 4 9
q2 1 11 18.5t23.5 43t28.5 41.5q10 12 14 18t8 17t4 25q0 38 -16 38q-4 0 -17 17.5t-13 23.5q0 5 -4 5q-3 0 -38.5 52t-37.5 52l-4 6q-4 6 -12.5 19t-21 29t-33.5 40.5t-45 50.5q-8 9 -22.5 36.5t-17.5 29.5t-2.5 7t1 7.5t-3.5 3.5q-4 0 -19.5 20.5t-34.5 20.5q-38 0 -38 -8
q0 -3 -13.5 -9t-13.5 -17q0 -9 -10.5 -31.5t-14.5 -22.5q-2 0 -8 -9t-17 -23t-24 -23q-19 -14 -24 -24q-2 -7 -29.5 -34t-31.5 -27q-2 0 -15.5 -16t-25.5 -32l-12 -16q0 -2 -18.5 -28t-18.5 -28q0 -4 -35 -39.5t-38 -45.5q0 -2 -12.5 -16.5t-12.5 -34.5zM689 419
q0 -6 7 -14.5t7 -12.5t11.5 -13t11.5 -17q0 -14 8 -27l9 -15l-15 -14q-15 -15 -15 -23q0 -7 -9.5 -21t-11.5 -20q-3 -8 -24 -30.5t-21 -25.5q0 -5 -16 -17q-13 -10 -28 -12.5t-113 -7.5q-71 -4 -128 -4q-68 0 -72 9q-2 3 -4.5 4t-4.5 0t-3 -0.5t-1 2.5q0 3 -5 4.5t-13 6
t-13 13.5q-9 14 -12 14q-2 0 -19.5 25t-17.5 29q0 6 -4 8q-8 3 -21.5 28.5t-13.5 42.5t29.5 54t33.5 46q6 12 11.5 18.5t8.5 8t3 4.5q0 5 25 32.5t30 27.5q6 0 6 6q0 5 16.5 24t16.5 20t35 36t35 41q0 8 8 14q6 5 15 16.5t16.5 18.5t14.5 7q6 0 10 -2.5t9.5 -11.5t13 -21
t26 -35t43.5 -49q37 -39 39 -47t7 -8q3 0 9 -9.5t17 -26t21 -28.5q7 -8 11 -14.5t4.5 -9.5t0.5 -5.5t1.5 -4t5.5 -2.5q9 -4 9 -12z" />
</svg>
