<?xml version="1.0" standalone="no"?>
<!DOCTYPE svg PUBLIC "-//W3C//DTD SVG 1.1//EN" "http://www.w3.org/Graphics/SVG/1.1/DTD/svg11.dtd" >
<svg xmlns="http://www.w3.org/2000/svg" xmlns:xlink="http://www.w3.org/1999/xlink" version="1.1" viewBox="-10 0 965 1000">
   <path fill="currentColor"
d="M685 742q-7 0 -13.5 8.5t-27 17t-61.5 8.5q-17 0 -30 -1q-18 -2 -48.5 -19t-47.5 -36q-13 -15 -23 -15q-5 0 -12.5 7t-13.5 7q-4 0 -17 10t-41 13q-21 2 -37.5 8t-23.5 6q-11 0 -43 -7.5t-42 -12.5q-20 -11 -40 -37.5t-34 -51.5t-17 -28q-13 -12 -13 -44q0 -35 14.5 -62
t14.5 -30q0 -5 -4.5 -14t-11 -19t-13.5 -19.5t-12 -15.5l-4 -6h1q1 0 1 -1l-7 -18q-7 -18 -7 -32q0 -10 3 -17.5t9.5 -21t11.5 -29.5q7 -19 18 -33l10 -14q4 -7 22 -18t24 -17q12 -10 21 -10q7 0 37 -9t54 -9q34 0 47 13q21 20 23 2q2 -20 9.5 -36.5t14 -23.5t7.5 -7
q6 0 6 -5q0 -4 7 -4t7 -6q0 -5 38.5 -15t39.5 -14q3 -5 46 -5q35 0 35 -3q3 0 16 7.5t23 7.5q14 0 41 28q24 25 30 37.5t14 47.5q6 25 6 38q0 9 -2.5 20t-2.5 14q0 6 6 8.5t28 5.5q17 3 38 3q13 0 27 13.5t17 13.5q4 0 27 19.5t23 23.5q0 5 14 22q10 12 12.5 24.5t2.5 56.5
q0 33 -6 40q-4 5 -9.5 14.5t-9.5 15.5t-8 8q-3 1 -14.5 10.5t-19.5 9.5t-25.5 7t-23.5 8q-8 1 -9.5 17t-4 42t-11.5 45q-8 17 -28 38t-28 21zM686 625q0 -24 -27.5 -39.5t-27.5 -38.5q0 -16 13 -26t22.5 -12.5t13.5 -2.5q3 0 20.5 5.5t33.5 5.5q13 0 18 -4.5t11 -4.5
q13 0 34 -14t21 -40q0 -19 -12.5 -41t-22.5 -26q-12 -6 -19 -11q-19 -13 -69 -15q-3 0 -30.5 12t-40.5 12q-18 0 -30 -20.5t-3 -29.5q8 -9 18 -31t10 -31q0 -11 3.5 -15t3.5 -16q0 -18 -5 -32t-5 -23q0 -4 -11 -16t-37.5 -24.5t-59.5 -12.5q-47 0 -63 19q-5 6 -18.5 11.5
t-23 17.5t-14.5 38q-2 14 -2 16q0 6 7 17t7 40q0 21 -4 33q-4 13 -7.5 15.5t-18.5 2.5q-18 0 -28.5 -9t-11.5 -14.5t-1 -9.5q5 -18 5 -23q0 -12 -25 -28.5t-32 -16.5q-10 3 -48 12q-42 10 -57.5 21.5t-26.5 39.5q-10 28 -10 41q0 19 9 35t20 20q8 2 8 7t10 15q9 9 37 9h21
q25 0 30 4.5t5 26.5t-8 30t-47 11q-17 2 -26 3.5t-21.5 12.5t-12.5 31q0 35 40 80.5t87 45.5q9 0 36 -8q31 -9 56.5 -31.5t40.5 -39.5t26 -17q9 0 17.5 8.5t8.5 18.5q0 26 24.5 45.5t45 26.5t25.5 7q1 0 3.5 -1.5t9 -2.5t17.5 0h9q35 0 57 -23t22 -46z" />
</svg>
