<?xml version="1.0" standalone="no"?>
<!DOCTYPE svg PUBLIC "-//W3C//DTD SVG 1.1//EN" "http://www.w3.org/Graphics/SVG/1.1/DTD/svg11.dtd" >
<svg xmlns="http://www.w3.org/2000/svg" xmlns:xlink="http://www.w3.org/1999/xlink" version="1.1" viewBox="-10 0 834 1000">
   <path fill="currentColor"
d="M664 510q0 37 -8.5 63t-17.5 40.5t-9 22.5q0 7 -31.5 35t-45.5 34q-3 1 -13 8.5t-20 13.5t-18 6t-41.5 6t-55.5 6q-50 0 -89 -21q-87 -48 -91 -63q-1 -7 -14 -24q-8 -10 -12 -11t-15 3l-6 2q-6 2 -15.5 4.5t-20 5t-21.5 4.5t-19 2q-31 0 -31 -34q0 -21 11.5 -29t44.5 -14
q24 -3 40 -10q9 -4 10 -7t-3 -18q-4 -16 -4 -28q0 -11 6 -41q5 -21 11 -31t30 -35q35 -36 57 -43q30 -9 43 -25t20 -18q11 -2 41 -14.5t40 -12.5l6 1l15 2h10q14 0 50 10.5t59 20.5q15 7 39.5 26t26.5 26q3 8 9 8q8 0 49 -11t52 -11q6 0 14.5 16t8.5 24t-7 16t-14 8
q-5 0 -12.5 3l-20 8t-23.5 9q-13 4 -16.5 8.5t-3.5 19.5q0 8 2.5 15.5t2.5 23.5zM550 396q-11 -22 -57.5 -33t-85.5 -11q-17 0 -40 9.5t-35.5 17.5t-14.5 10q-5 4 -28 16.5t-41 29.5q-22 22 -22 37q0 16 -3 25q-3 11 4 11q6 0 6 15t11 15t47.5 -22t51.5 -25q11 -2 27 -12.5
t37 -16.5t36 -15t24 -11q47 -10 72 -23q16 -9 11 -17zM420 680q31 0 50.5 -5.5t26.5 -11t9 -5.5q14 0 43 -24.5t29 -35.5q0 -4 11 -22.5t11 -24.5l3 -26q-2 -3 -2.5 -18.5t-3 -28t-9.5 -12.5q-3 0 -8.5 3t-18 9t-29.5 10q-34 9 -82.5 33t-63.5 24q-18 0 -53.5 21t-49.5 26
q-19 5 -19 10q0 8 19.5 26t58 35t78.5 17zM92 154q7 0 23.5 8.5t16.5 12.5q0 3 4 6.5t18 18.5t31 38q28 37 34 41q2 1 2 7q0 8 -4.5 15t-11.5 7q-14 0 -64 -43t-59 -47q-19 -10 -19 -22q0 -17 9 -29.5t20 -12.5zM603 278q-10 0 -14.5 -4t-5 -6.5t-0.5 -7.5q0 -29 21 -53
t70 -62q28 -22 36 -22q3 0 10 1.5t16 7.5t9 15q0 13 -10.5 30t-22.5 21q-26 9 -73 58q-21 22 -36 22zM357 104q0 -14 10.5 -24.5t19.5 -10.5q10 0 22.5 13t12.5 33q0 11 -4.5 31t-4.5 27q0 2 2.5 12t1.5 22q-1 13 -3.5 15t-14.5 2q-15 0 -20.5 -10t-8.5 -41
q-2 -23 -7.5 -42.5t-5.5 -26.5z" />
</svg>
