<?xml version="1.0" standalone="no"?>
<!DOCTYPE svg PUBLIC "-//W3C//DTD SVG 1.1//EN" "http://www.w3.org/Graphics/SVG/1.1/DTD/svg11.dtd" >
<svg xmlns="http://www.w3.org/2000/svg" xmlns:xlink="http://www.w3.org/1999/xlink" version="1.1" viewBox="-10 0 645 1000">
   <path fill="currentColor"
d="M395 740q-9 0 -26 -13.5t-17 -21.5q0 -6 9 -19.5t17 -18.5q24 -18 91 -85q8 -8 8.5 -18.5t6.5 -13.5q8 -5 9 -24t2 -21q1 -1 1 -5q0 -16 -21 -48.5t-32 -32.5q-5 0 -16 -10.5t-28 -25.5t-31 -23q-16 -10 -16 -15q0 -4 -6.5 -15.5t-6.5 -26.5q0 -16 4 -34.5t9 -30t9 -11.5
q3 0 34 -40t33 -40t12 -16.5t12 -16.5q3 0 3 -6t18 -16t25 -10q8 0 20 8t13 14q1 9 1 19q0 12 -12 20q-15 10 -32.5 28t-17.5 23q0 4 -33 41t-33 49q0 4 3.5 10.5t9.5 13.5t13.5 15t15 15.5t15.5 14.5t13.5 12t9.5 8l4 3q32 24 47.5 45.5t20 39t7.5 21.5q2 4 2 21
q0 6 -1.5 33t-1.5 29q-1 10 -9.5 14.5t-8.5 9.5q0 8 -4 8q-5 0 -7 8q-4 14 -49 55.5t-45 44.5q0 4 -2 4q-3 0 -6.5 9.5t-12.5 9.5q-10 0 -15 6t-8 6zM160 135q0 -13 34 -37.5t52 -24.5q3 0 6.5 6.5t8.5 6.5q9 0 9 16q0 10 -31.5 42.5t-31.5 37.5q0 4 -16.5 19t-16.5 19
q0 3 -5.5 8t-11 15t-5.5 28q0 11 11 29t11 23t16.5 14t16.5 13q0 5 33 39t33 37l7 19q8 19 8 53q0 29 -4.5 47t-10 28t-6.5 15q-1 10 -15 26t-22 16q-9 0 -9 9t-17.5 25.5t-39.5 33t-24 18.5q-9 9 -33 6q-26 -4 -33 -4q-11 0 -11 -15q0 -22 6.5 -31t16 -10.5t29.5 -11.5
t39 -30q25 -25 25 -30q0 -4 10.5 -13t21 -23.5t10.5 -31.5q0 -10 3 -15t3 -8q0 -11 -4 -20.5t-10.5 -21.5t-10.5 -21q-7 -20 -38.5 -37t-31.5 -23q0 -3 -11 -15t-11 -16q0 -8 -1.5 -11.5t-4 -3t-4 -1t-1.5 -7.5t-4 -6t-8 -19t-4 -33q0 -8 3.5 -13.5t3.5 -12.5t7 -15.5
t9 -18.5q2 -11 28 -38.5t26 -30.5z" />
</svg>
