<?xml version="1.0" standalone="no"?>
<!DOCTYPE svg PUBLIC "-//W3C//DTD SVG 1.1//EN" "http://www.w3.org/Graphics/SVG/1.1/DTD/svg11.dtd" >
<svg xmlns="http://www.w3.org/2000/svg" xmlns:xlink="http://www.w3.org/1999/xlink" version="1.1" viewBox="-10 0 573 1000">
   <path fill="currentColor"
d="M123 365q0 -10 -6 -32t-6 -31q0 -8 -6 -22.5t-6 -25.5q0 -27 16 -30q10 -2 24.5 -13.5t26.5 -11.5q17 0 39 5t32 5q11 0 27 -1.5t27 -1.5q10 0 15.5 2t20.5 2q7 0 28 -1t30 -1q11 0 32.5 -10t28.5 -10q12 0 28 21l12 15l-11 21q-10 19 -14 52l-1 7q-1 8 -2.5 18.5
t-2.5 22t-2 22t-1 15.5q0 17 3.5 45t3.5 40q0 13 11 37.5t11 37.5q0 28 -31 28q-15 0 -15 9q0 6 7 16q5 7 7 26t5 21t1 12t3 16q4 5 3 10t5 11q4 4 5 6.5t0 2.5q-2 1 -1 4t2.5 9t1.5 9q0 10 -8 27q-4 9 -6.5 12.5t-6.5 8t-10 6t-16 1.5q-37 0 -37 -47q0 -8 2 -16t2 -13
q0 -9 -4.5 -19.5t-4.5 -12.5t1 -3t1 -2q0 -4 -21 -52q-5 -13 -22.5 -22.5t-33.5 -9.5q-80 0 -94 153q-4 41 -13.5 58t-29.5 17q-41 0 -49 -42q-2 -9 -12.5 -23t-16.5 -27q-10 -19 -18 -31q-6 -7 -6 -18q0 -26 40 -26q28 0 28 13q0 5 7.5 14t12.5 9q3 0 3 -5q0 -9 10 -37.5
t10 -29.5q0 -4 8.5 -21.5t8.5 -21.5q0 -5 -34 -5q-21 0 -27 -2.5t-15 -14.5q-10 -14 -10 -26q0 -3 0.5 -7t0.5 -5q0 -4 -2.5 -7t-2.5 -6t2 -12t4.5 -27.5t3.5 -42.5q4 -19 4 -42zM381 271h-1q-2 0 -5.5 0.5t-9 1t-16 0.5h-24.5h-25t-28.5 -0.5t-25.5 -0.5h-20h-7l-40 -1
l1 75q0 15 0.5 32.5t1 26.5t0.5 15q0 14 -3 35q-2 14 -0.5 17.5t10.5 7.5q15 6 74 12t93 6q27 0 32.5 -8.5t5.5 -42.5q0 -5 -0.5 -22t-0.5 -28q-2 -116 -5 -122q-2 -4 -7 -4zM182 133q-4 0 -16 16.5t-15 16.5q-8 0 -26 -11.5t-18 -16.5q0 -6 -19 -21q-12 -9 -15.5 -15
t-3.5 -19q0 -19 11 -27q17 -12 26 -1q3 4 13 9.5t17.5 10t7.5 8.5t19.5 25.5t19.5 23.5q0 1 -1 1zM373 159q-7 0 -14 -6t-12 -6q-6 0 -6 -14q0 -23 10 -29q5 -2 52 -43t54 -41q10 0 17.5 10t7.5 24t-8.5 25.5t-16 16t-9.5 4.5t-5.5 6t-9.5 13.5t-14 10.5q-11 4 -25 16.5
t-21 12.5zM287 138q0 5 2 8.5t2 7.5q0 8 -7 14.5t-17 6.5q-15 0 -15 -6t-10 -12q-9 -6 -9 -34t5 -28q3 0 3 -15q0 -9 -1.5 -27t-1.5 -24q0 -11 6.5 -18t13.5 -8l6 -1q7 0 20.5 13t13.5 28q0 20 -5.5 54t-5.5 41z" />
</svg>
