<?xml version="1.0" standalone="no"?>
<!DOCTYPE svg PUBLIC "-//W3C//DTD SVG 1.1//EN" "http://www.w3.org/Graphics/SVG/1.1/DTD/svg11.dtd" >
<svg xmlns="http://www.w3.org/2000/svg" xmlns:xlink="http://www.w3.org/1999/xlink" version="1.1" viewBox="-10 0 867 1000">
   <path fill="currentColor"
d="M334 84q30 0 55.5 -12t38.5 -12q7 0 26.5 2t28.5 2q14 0 21 -4q8 -4 12 -2.5t15 11.5q10 9 12.5 15t2.5 24v38q0 119 5 127q7 10 43 10q21 0 46 -6t35 -6t12.5 2.5t2.5 9.5q0 10 6.5 12.5t15 1.5t18.5 4t16 18q5 13 5 28q0 9 -2.5 42t-2.5 53q0 3 1.5 29t5 58t7.5 39
q14 28 14 114q0 25 -5 37.5t-20 27.5t-65 15q-29 0 -94 -8t-262 -8q-74 0 -116.5 1t-50 2t-11 2t-9.5 1q-35 0 -44 -13t-14 -58q-2 -20 -2 -25q0 -9 6 -26t6 -51q0 -18 -1.5 -34.5t-1.5 -17.5q0 -38 26 -59q9 -8 45 -8q46 0 90 3.5t55 3.5q2 0 28 -2t75 -2h12l78 1l-2 -54
q-2 -54 -7 -59q-8 -9 -26 -9l-12 2q-11 3 -33.5 5.5t-49.5 2.5q-47 0 -47 -15q0 -4 -17.5 -17t-17.5 -27q0 -39 -2 -40q-2 -2 -2 -8q0 -4 1 -16t1 -17t-1.5 -15.5t-3.5 -22t-4.5 -22t-3.5 -17.5l-2 -7q0 -44 44 -44h20zM483 137q-4 -4 -22 -4q-43 0 -76 11q-21 8 -28.5 17.5
t-7.5 31.5q0 6 2 30q5 46 7 54.5t11 11.5q11 4 35 4q11 0 21.5 -2.5t34.5 -3.5h32l-3 -74q-4 -71 -6 -76zM154 585q0 3 1 7.5t1 8.5q0 5 -2.5 14.5t-2.5 16.5q0 8 3 21l5 24l120 -2l127 -3l14 4q13 5 30 5h4h13q23 0 47.5 0.5t45 1.5t39.5 2t34 2.5t26.5 2.5t18.5 2h6
q14 0 19 -9.5t11 -41.5v-5q0 -42 -20 -104q-2 -6 -5 -52t-3 -62q0 -46 2 -72l2 -19h-29h-15q-8 0 -12 0.5t-15 2t-31 3.5l-39 4l-3 18q-1 5 -1 14q0 8 3.5 23t4.5 29l2 15q2 14 4 30t2 20q0 36 -28 36q-1 0 -20 6t-60 6q-17 0 -24.5 -2.5t-55.5 -2.5q-10 0 -32 0.5t-46 0.5
t-46.5 0.5t-38.5 1.5h-15q-11 0 -19.5 4.5t-8.5 11.5q0 5 -6.5 16.5t-6.5 20.5z" />
</svg>
