<?xml version="1.0" standalone="no"?>
<!DOCTYPE svg PUBLIC "-//W3C//DTD SVG 1.1//EN" "http://www.w3.org/Graphics/SVG/1.1/DTD/svg11.dtd" >
<svg xmlns="http://www.w3.org/2000/svg" xmlns:xlink="http://www.w3.org/1999/xlink" version="1.1" viewBox="-10 0 840 1000">
   <path fill="currentColor"
d="M316 549q0 -5 2 -14t14 -22.5t33 -13.5q8 0 32.5 9t28.5 14q12 14 12 32q0 22 -16 27q-6 2 -19.5 8t-18.5 6q-9 0 -38.5 -14.5t-29.5 -31.5zM147 393q0 4 2 15.5t2 19.5q0 4 -0.5 8t-0.5 5q0 3 2.5 7t3 5.5t-2.5 4.5q-3 2 -3 46q0 92 10 112q8 16 4 23q-3 6 -3 17l3 44
q0 15 -9.5 24t-23.5 9q-11 0 -24.5 -8t-13.5 -22l1 -7q0 -7 0.5 -20.5t1 -32t1 -46.5t0.5 -59q0 -66 -7 -100t-7 -83q0 -20 4.5 -29t12.5 -16.5t12 -18.5q5 -14 30 -3q22 9 124 9h12.5t8.5 -0.5t5 -0.5h3q19 0 83 6.5t75 6.5l4 -1q4 0 11 -0.5t17 -1t24.5 -1.5t31 -1.5
t38.5 -1t46 -0.5h13q44 0 47 -5q4 -6 13.5 -4t18.5 10q13 13 13 44q0 12 -0.5 18.5t-1 7.5t-1.5 2.5t-2.5 3.5t-2.5 11.5t-1.5 24.5t-1 45t-0.5 72q0 15 1.5 29.5t3.5 25.5t2 15q1 7 10.5 18t9.5 16q0 4 -4 8q-6 7 -7 32t-5 35t-7.5 11t-19.5 -1q-20 -3 -25 -6t-11 -15
q-5 -10 -5 -18q0 -7 3 -26t3 -27q0 -3 -3.5 -14t-3.5 -66q0 -1 1 -42v-41q0 -74 -3 -83l-5 -14l-76 1q-14 0 -33 1t-36 2.5t-32.5 2.5t-24.5 2l-10 1q-32 0 -61 -6.5t-69 -6.5q-32 0 -41 -4q-8 -3 -10 -3q-1 0 -6.5 1.5t-19.5 3t-36 1.5h-20q-29 0 -29 5q0 9 -1.5 14.5
t-1.5 8.5zM143 90q22 0 81.5 6t75.5 6q14 0 16 -4q3 -3 4 -1t6.5 6t12.5 4t47 -9t69 -9q38 0 43 -3q6 -3 55 -3q115 0 142 8q15 4 23.5 15.5t9.5 17.5t1 10q0 13 -15 21t-33 8l-3 -1q-3 0 -8 -1t-12 -2.5t-16 -3t-19 -2.5t-21.5 -1.5t-23.5 -0.5q-7 0 -48.5 5.5t-71.5 6.5
q-23 1 -45.5 3.5t-26.5 2.5t-8 -1.5t-11 -3t-39.5 -3t-86.5 -2.5q-107 -1 -129 -5.5t-22 -27.5q0 -18 11 -27t42 -9z" />
</svg>
