<?xml version="1.0" standalone="no"?>
<!DOCTYPE svg PUBLIC "-//W3C//DTD SVG 1.1//EN" "http://www.w3.org/Graphics/SVG/1.1/DTD/svg11.dtd" >
<svg xmlns="http://www.w3.org/2000/svg" xmlns:xlink="http://www.w3.org/1999/xlink" version="1.1" viewBox="-10 0 805 1000">
   <path fill="currentColor"
d="M528 663q-4 0 -21.5 -1t-24.5 -1q-11 0 -20 2t-10 2q-6 0 -20 -15q-27 -28 -35 -42t-8 -36q0 -24 12 -44t27 -20q9 0 24 -13.5t26 -13.5q8 0 26 9q15 8 42.5 36.5t28.5 38.5q3 36 3 40q0 15 -3 20.5t-14 11.5q-14 7 -17 17q-1 4 -2 5.5t-4.5 2.5t-9.5 1zM483 609
q17 0 31 -7.5t14 -19.5q0 -17 -9 -24t-27 -10q-15 -3 -15 6t-8 15q-7 5 -7 21q0 19 21 19zM559 501q-15 0 -15 -35q0 -10 12 -23q10 -11 14.5 -13t14.5 0q19 4 19 14q0 4 -5 16q-18 41 -40 41zM450 430q0 -16 10 -27.5t26 -11.5q8 0 11 2.5t3 9.5q0 13 9 31t2 28t-20 10
q-17 0 -29 -12t-12 -30zM374 393q7 -4 11.5 -2.5t14.5 12.5q23 23 23 33q0 6 -6 12l-10 10l-24 -11q-16 -8 -21.5 -14t-5.5 -20q0 -11 18 -20zM694 277q0 23 1 44t2.5 33.5t1.5 14.5q0 5 -2 23.5t-2 25.5q0 2 2.5 14t-1.5 20q-5 25 -5 35q0 24 4.5 96.5t4.5 95.5q2 65 4 69
q2 8 2 10q0 22 -37 22q-4 0 -10 -1.5t-10.5 -1t-9.5 4.5q-6 5 -24 5q-22 0 -26 -7q-5 -8 -58 -8q-25 0 -27 3q-4 7 -18 7q-17 0 -23 -7q-8 -8 -38 -11t-115 -3h-25q-87 0 -125 7q-4 1 -12 1t-12 -3.5t-7 -16t-4 -29t-2 -50.5q-3 -88 -12 -160q-4 -42 -4 -96
q-2 -128 -10 -149q-6 -14 -6 -53q0 -36 -6 -64q-4 -13 -4 -24q0 -14 9 -44.5t14 -34.5t27 -4q65 0 111 12q19 5 162 7q142 2 161 7q12 3 21 3q4 0 11 -0.5t10 -0.5q7 0 20.5 4t22.5 4q13 0 21 7.5t8 18.5q0 3 -3 10t-3 10q0 11 9 35q8 22 9.5 40t2.5 79zM440 119
q-41 0 -61 3.5t-50 3.5q-71 0 -76 -4q-3 -2 -11 1.5t-11 2.5t-38 -5l-32 -3l3 39q6 72 11 88q3 6 5 139q1 75 4.5 151.5t4.5 93.5q1 39 8 47q6 6 8 19q3 18 50 18q2 0 6 -0.5t6 -0.5h29l1 -66v-17q0 -50 -8 -74q-11 -34 -16 -117q-2 -22 -7 -43q-1 -5 -9 -42.5t-14 -54.5
q-4 -12 -4 -22q0 -19 18 -27q74 -37 90 -37q7 0 10 -4q3 -3 37 -14q23 -7 42.5 -17t41.5 -23t38 -21q22 -11 26 -14q2 -5 -7 -5q-15 0 -18 3q-2 2 -67 2h-10zM596 166q-3 0 -21 11.5t-20 11.5q-4 0 -23 14q-14 10 -29 15t-26 12q-17 11 -25 11q-4 0 -9.5 4.5t-9.5 3.5
q-5 -2 -15 4q-2 1 -14.5 4.5t-22.5 7t-10 6.5q0 5 18 9t41 7.5t28 5.5q16 5 61 9q76 6 92 17q7 4 8 2.5t2 -16.5q3 -42 3 -54q0 -21 -11 -51q-13 -34 -17 -34zM626 465v-18q0 -39 -2 -55q-1 -8 -2 -10.5t-3.5 -2t-8.5 4.5q-5 4 -15 4q-14 0 -86 -18q-18 -5 -72 -12.5
t-81 -18.5q-10 -4 -19.5 -4.5t-10.5 3.5q-4 18 8 29q6 6 9 52q3 48 14 114t14 111l4 59q9 9 100 9h24q93 -1 113 -12q2 -1 10 -3.5t11 -6.5t1 -12q-8 -43 -8 -213z" />
</svg>
