<?xml version="1.0" standalone="no"?>
<!DOCTYPE svg PUBLIC "-//W3C//DTD SVG 1.1//EN" "http://www.w3.org/Graphics/SVG/1.1/DTD/svg11.dtd" >
<svg xmlns="http://www.w3.org/2000/svg" xmlns:xlink="http://www.w3.org/1999/xlink" version="1.1" viewBox="-10 0 835 1000">
   <path fill="currentColor"
d="M368 363q0 -34 17 -34q7 0 34 14q10 6 10 21q0 11 -3 17q-4 11 -8 13t-18 0q-19 -2 -25.5 -8t-6.5 -23zM606 315q6 0 13 4.5t7 12.5q0 10 -6.5 25t-11.5 15t-10 12q-6 12 -19 12q-21 0 -32 -22q-5 -10 4 -25t14 -15q3 0 19 -9.5t22 -9.5zM519 351q0 34 -25 34
q-14 0 -22.5 -16t-8.5 -43q0 -35 13 -39q10 -2 19 2.5t9 11.5q0 8 8 21q7 11 7 29zM689 115q0 6 2 20.5t2 25.5q0 8 -1 23.5t-1 22.5q0 20 6 35q7 20 9 60q1 28 5 44.5t6 35.5q2 18 4 29.5t3 22.5t2 40q5 124 11 169q5 42 7 94l1 35l-21 6q-17 5 -48 5q-17 0 -69.5 -2
t-57.5 -2q-8 0 -38.5 -6t-40.5 -6q-32 0 -36 -1q-46 -12 -170 -12q-42 0 -60 17q-13 13 -31 13q-23 0 -29.5 -16.5t-6.5 -51.5q0 -32 4 -54q2 -13 -3 -16t-5 -43v-10q0 -38 -4.5 -101.5t-7.5 -68.5q-2 -5 -4 -21q-1 -5 -7.5 -31t-6.5 -40q0 -29 -2 -31q-4 -5 -4 -19
q0 -43 -11 -83q-2 -8 -2 -28q0 -7 -3.5 -42t-3.5 -43q0 -10 5 -16t12 -3q3 1 4.5 -0.5t1.5 -5.5q0 -6 8 -18q5 -9 20 -10.5t91 -1.5q103 0 106 -3q2 -2 7 -2q2 0 34.5 2t69.5 4t48 2q15 0 38 -3t33 -3q11 0 15 3q10 5 51 5q3 0 15 -1t19 -1q8 0 12 2t7.5 5t7.5 5
q5 2 10 16.5t5 24.5q0 7 -4 14t-4 15zM452 162q0 4 54 4h37q70 0 72 -2t-2 -25q-3 -18 -11 -22.5t-43 -8.5q-13 -2 -21 -4q-7 -4 -17 0.5t-13 12.5q-5 12 -25 20q-12 5 -21.5 13t-9.5 12zM376 110q0 -5 -38 -5q-25 0 -28 3q-1 1 -72 4.5t-72 4.5t-1 15q0 1 8 102
q1 19 4.5 34t4.5 29q1 10 5.5 48t8.5 77q0 10 4 14t4 36q0 34 4 38t6 96l1 92h52l1 -98v-42q0 -61 -1 -64q-3 -6 -5 -35q-2 -30 -11 -64q-8 -31 -8 -74v-36q1 -76 13 -103t45 -33q14 -2 44.5 -17.5t30.5 -21.5zM455 241q-16 0 -53 -4t-49 -4h-8t-5.5 1t-4 1.5t-3 3t-2 3.5
l-2.5 5l-3 6q-7 13 -7 38q0 40 7.5 106.5t13.5 75.5q4 5 2 18q-1 11 1 11q1 1 4 -4q3 -4 12 -29q6 -19 19.5 -32.5t25.5 -13.5q11 0 21 -4q8 -5 87 -5q24 0 34.5 2.5t31.5 13.5q32 16 51.5 35.5t19.5 35.5q0 24 8 24q3 0 3 -22q0 -55 -13 -121q-6 -36 -6 -46q0 -13 -4 -27.5
t-5 -26.5q-2 -20 -10 -27.5t-27 -7.5q-4 0 -15.5 0.5t-17.5 0.5q-14 0 -16 -3q-3 -5 -36 -5q-11 0 -31 0.5t-23 0.5zM560 487q0 -24 -82 -24q-24 0 -38 14q-7 7 -18 7q-24 0 -24 30q0 24 23 46q19 18 25 18q2 0 2 -3q0 -4 -7 -17q-15 -27 -15 -39q0 -10 10.5 -20t19.5 -10
t16.5 7.5t7.5 15.5q0 13 6 13q8 0 15 -23q2 -10 7.5 -12t22.5 2q10 2 18.5 11.5t8.5 17.5q0 5 -3 6q-5 3 -5 9q0 18 -23 33q-19 12 -19 17q0 1 3 1q15 0 39 -16t24 -23q0 -3 5 -15.5t5 -17.5q0 -15 -15 -20q-9 -2 -9 -8zM542 645q-4 0 -33.5 13.5t-30.5 13.5q-10 0 -68 -30
q-9 -5 -22.5 -24.5t-15.5 -22.5q-7 -7 -21 -33q-9 -16 -10 -15v2q2 11 -2 13q-4 3 -4 51q0 53 4 56q5 5 5 15q0 12 8 12q56 4 203 4q47 0 74 5q20 5 31 0q8 -3 9.5 -7.5t-0.5 -21.5q-2 -24 -2 -46q0 -2 0.5 -4t0.5 -3q0 -21 -5.5 -51.5t-9.5 -30.5q-1 0 -4 7t-6 14.5t-4 8.5
q-28 33 -28 47q0 5 -6.5 9.5t-16.5 9.5t-13 7q-13 10 -24 4q-5 -3 -9 -3z" />
</svg>
