<?xml version="1.0" standalone="no"?>
<!DOCTYPE svg PUBLIC "-//W3C//DTD SVG 1.1//EN" "http://www.w3.org/Graphics/SVG/1.1/DTD/svg11.dtd" >
<svg xmlns="http://www.w3.org/2000/svg" xmlns:xlink="http://www.w3.org/1999/xlink" version="1.1" viewBox="-10 0 795 1000">
   <path fill="currentColor"
d="M471 459q0 -6 14.5 -18t20.5 -12q9 0 15 10.5t6 22.5t-4 15q-2 1 -2 9q0 9 -32.5 25t-37.5 16q-14 0 -34 -28t-20 -50q0 -16 19 -16q24 0 34 17q15 22 20 14q1 -2 1 -5zM138 30h4q15 0 31.5 -4t26.5 -4q1 0 5 0.5t6 0.5q53 7 118 7q15 0 50 -0.5t43 -0.5q9 0 24.5 0.5
t45 1t54.5 0.5q79 1 101.5 4.5t27.5 17.5q4 16 4 100q0 53 -8 66q-9 12 -6 17q3 7 5 50q1 28 6.5 64.5t5.5 71.5q0 12 -1 38t-1 39q0 18 2 20q5 3 12 97q4 37 4 86q0 36 -3 42q-11 21 -30 21q-13 0 -49 -11q-53 -16 -140 -16h-74q-141 0 -152 -8q-8 -4 -33 -4
q-15 0 -33.5 10.5t-33.5 10.5q-33 0 -33 -34q0 -7 5 -48.5t5 -49.5q0 -16 -7 -54q-15 -74 -15 -121v-31q0 -38 -5.5 -102.5t-6.5 -86.5q-1 -14 -2 -29t-2 -24t-1 -14q0 -9 4 -19.5t8 -10.5t13 9q9 8 21 6q10 -2 12 1.5t2 20.5q0 16 4.5 25t4.5 22q0 16 4 32q8 23 12 184
q0 28 10.5 98.5t10.5 99.5v40q0 11 3 12.5t22 0.5q30 -2 44 -6q18 -5 22 -17t4 -62q0 -100 -13 -152q-7 -25 -7 -54q0 -21 -9.5 -69t-9.5 -59q0 -3 -3.5 -22.5t-3.5 -26.5q0 -19 9.5 -29.5t26.5 -10.5h6q14 0 39.5 -11t34.5 -13q18 -5 44 -17q24 -11 28 -11q6 0 30 -13
t24 -16q0 -2 -14 -2q-53 0 -73 9q-14 7 -48 7q-16 0 -30 -5.5t-30 -5.5q-5 0 -13.5 2.5t-13 2t-7.5 -5.5q-4 -7 -13 -7q-10 0 -39.5 4t-34.5 4q-40 3 -46 13q-3 5 -17 -1q-10 -4 -16.5 -17t-6.5 -25q0 -28 55 -28zM607 112q-12 -15 -23 -1q-6 7 -60 33t-74 31q-59 15 -59 23
q0 2 25 13q19 8 39 11t81 7q47 4 53 7q4 2 6 2q6 0 8 -14.5t2.5 -32t3.5 -21.5t3 -23q0 -28 -5 -35zM319 268q0 9 6.5 48.5t6.5 46.5q0 5 2 5t25 -23q40 -39 69 -39q13 0 27.5 3.5t35.5 10t30 9.5q27 7 41 21q11 12 25 36.5t17 37.5q4 14 8 14q6 0 6 -25q0 -20 -7 -67
q-4 -28 -7 -33.5t-17 -12.5q-21 -10 -62 -11q-46 -1 -84.5 -7.5t-47.5 -13.5q-6 -4 -30 -10.5t-33 -6.5q-11 0 -11 17zM519 377q-9 -5 -22 -5q-19 0 -33 12t-28 12q-12 0 -25 -8q-7 -5 -9 -5q-7 0 -22 18t-15 25q0 20 16 60.5t25 40.5q6 0 13 7q10 8 35 8q42 0 63 -16
q11 -9 18 -9q6 0 6 -5t12 -17q13 -13 13 -31q0 -17 -11 -42q-16 -34 -36 -45zM443 676q23 0 64 -1.5t60 -1.5q27 0 38 4q7 3 14 3q17 0 17 -13q0 -51 -20 -159q-4 -28 -8 -28q-1 0 -3 14q-2 26 -16.5 50t-32.5 27q-11 2 -24 9q-20 11 -69 11q-15 0 -17 -3q-3 -5 -11 -5
q-9 0 -38 -15t-31 -20t-6.5 -6.5t-8 1.5t-3.5 8q0 14 4 53.5t4 46.5q1 17 3 20t14 4q20 1 70 1z" />
</svg>
