<?xml version="1.0" standalone="no"?>
<!DOCTYPE svg PUBLIC "-//W3C//DTD SVG 1.1//EN" "http://www.w3.org/Graphics/SVG/1.1/DTD/svg11.dtd" >
<svg xmlns="http://www.w3.org/2000/svg" xmlns:xlink="http://www.w3.org/1999/xlink" version="1.1" viewBox="-10 0 839 1000">
   <path fill="currentColor"
d="M583 526q0 25 -25 43.5t-58 18.5q-17 0 -22.5 -2.5t-12.5 -15.5q-11 -19 -11 -33q0 -7 7 -37t25 -44q14 -11 24 -11q9 0 28 13q45 32 45 68zM433 463q-14 0 -24.5 -9.5t-10.5 -24.5q0 -10 5 -19.5t14.5 -20t11.5 -14.5q4 -6 27.5 -17.5t36.5 -11.5h3l2 1q3 1 15.5 5
t22.5 7.5t14 6.5q6 6 15 6q7 0 24 18.5t17 25.5q0 3 3.5 13.5t3.5 15.5q0 10 -8 18.5t-20 8.5q-18 0 -28 -23q-7 -15 -26 -26.5t-40 -14.5l-23 -3l-7 17q-2 4 -4.5 14t-4 14.5t-6.5 8.5t-13 4zM99 752q0 -1 2.5 -25.5t4.5 -58.5t2 -57q0 -17 -3 -20q-5 -5 -5 -48
q0 -19 -1 -33t-1 -17q0 -6 3 -30q5 -38 5 -112q0 -65 -4 -68t-4 -40q0 -12 0.5 -39.5t0.5 -30.5v-40q0 -86 5 -91q4 -4 55 -4q49 0 132 1t106 1q126 0 153 -7q13 -4 32 -4t28 4q6 2 42 2h13q37 0 42 3q11 7 23 45q3 7 -5 19q-7 11 -2 31q2 8 2 38q0 24 -4.5 60.5t-4.5 60.5
q0 62 6 83q3 12 3 29q0 13 -2 36.5t-2 31.5q0 11 2.5 22.5t2.5 29.5q0 41 -5 64q-6 25 -2 34q5 9 8 51q3 38 12 71q5 20 5 24q0 13 -12 21t-26 8q-12 0 -20 -5q-13 -8 -33 -8q-14 0 -17 5q-3 6 -10 0q-4 -3 -66 -9t-66 -8q-6 -2 -15 -2q-11 0 -37 3.5t-33 3.5q-18 0 -26 -5
q-7 -4 -43 -4q-9 0 -34 0.5t-35 0.5q-35 0 -37 -2q-2 -3 -18 -3q-45 0 -59 9q-10 7 -27 7q-16 0 -23.5 -6t-7.5 -22zM431 230h11q22 0 52.5 8.5t44.5 9.5q10 1 29.5 5t33.5 4q44 0 49 -8q2 -4 6 -28.5t4 -30.5q0 -10 -4.5 -39t-4.5 -31q0 -10 -30 -20q-28 -9 -37 -9
q-7 0 -13 8t-18.5 16t-19.5 8t-13 10q-5 9 -17 12q-25 7 -48 29q-11 11 -33 18t-31 12q-13 8 -25 8q-10 0 -10 5t23 9t51 4zM283 677q0 -12 -2 -52.5t-2 -53.5q0 -7 0.5 -15t0.5 -12q0 -12 -5 -26q-6 -18 -6 -41q0 -7 -3 -17t-3 -17q0 -5 1.5 -17.5t1.5 -18.5v-6
q-9 -50 -9 -99v-12q0 -11 -12 -24q-13 -14 -13 -26q0 -46 25 -60q16 -9 16 -13q0 -3 17 -9t25 -6q11 0 28 -5q21 -7 24 -7t8.5 -4.5t10 -9t3.5 -5.5t-42 -7.5t-42 -6.5q-10 -5 -95 -5q-21 0 -25 1q-11 2 -13 5.5t-1 20.5q0 2 0.5 6.5t0.5 7.5q0 13 -2 43t-2 44
q0 25 4.5 75.5t4.5 73.5q0 27 -4.5 64t-4.5 63q0 39 2 84.5t4 74t3 30.5q1 3 26 3q74 0 79 -7q1 -1 1 -14zM660 479q0 -20 2 -51.5t2 -35.5q0 -20 -5 -28q-6 -9 -6 -19t-10.5 -19.5t-20.5 -9.5q-5 0 -16 3t-17 3q-10 0 -35 -8.5t-34 -12.5q-14 -8 -54 -8q-14 0 -35.5 6.5
t-39.5 6.5q-16 0 -33 -8q-22 -10 -28 -10q-4 0 -4 28q0 13 3 42.5t3 44.5q0 9 -2 25t-2 23q0 14 4 22q11 26 12 102q0 57 9 79q9 23 3 32q-3 4 -3 8q0 12 90 13q162 4 174 16q5 5 25 5q22 0 30 5q6 3 7 1.5t-1 -12.5q-16 -98 -16 -131q0 -11 1 -37.5t1 -38.5q0 -13 -2 -20
t-2 -16z" />
</svg>
