<?xml version="1.0" standalone="no"?>
<!DOCTYPE svg PUBLIC "-//W3C//DTD SVG 1.1//EN" "http://www.w3.org/Graphics/SVG/1.1/DTD/svg11.dtd" >
<svg xmlns="http://www.w3.org/2000/svg" xmlns:xlink="http://www.w3.org/1999/xlink" version="1.1" viewBox="-10 0 845 1000">
   <path fill="currentColor"
d="M481 420q12 -10 35 -10q13 0 24 4q17 6 32 32.5t15 50.5q0 1 -0.5 4t-0.5 4q-12 71 -37 80q-15 5 -66 5q-27 0 -44 -9q-11 -7 -13 -15t-8 -15q-10 -11 -10 -51t6 -54q4 -8 8.5 -10.5t17.5 -2.5q20 0 23 -7q2 -5 7.5 -4.5t10.5 -1.5zM503 531q14 0 23 -11.5t9 -25.5
q0 -16 -22 -26q-11 -6 -26 3q-21 12 -21 33q0 11 12 19t25 8zM125 133q-7 0 -14.5 -13t-7.5 -22q0 -17 13 -30t30 -13q4 0 24 4.5t24 4.5q6 0 14 -5q11 -7 59 -7q11 0 47 0.5t49 0.5q57 0 78 -6q20 -6 61 -6q6 0 22 0.5t23 0.5q41 0 45 -3q4 -2 14 -2q19 0 53 8q12 3 20 3
q7 0 19 -6q11 -6 15.5 -5.5t14.5 7.5q18 12 18 28q0 21 -25 31q-17 6 -12 15q6 12 11.5 74t5.5 115q0 26 -2 50q-4 25 0 27q2 2 1.5 6.5t-2 11t-1.5 7.5q0 4 1.5 14.5t1.5 16.5q0 8 -1 23t-1 23q0 18 2 36q13 82 13 209q0 15 -11.5 24.5t-26.5 9.5q-13 0 -21 -7
q-7 -6 -31 -6q-18 0 -31 -5q-8 -4 -80 -6q-70 -2 -77 -7q-4 -4 -34 -4q-49 0 -55 9q-4 7 -20 7q-2 0 -27.5 -2t-58.5 -3.5t-53 -1.5q-17 0 -25 9q-19 21 -55 21q-17 0 -28.5 -11.5t-11.5 -27.5q0 -8 6 -34q8 -33 8 -98v-35q0 -71 4 -111q5 -35 5 -49q0 -1 -0.5 -20.5
t-0.5 -51v-62.5q0 -122 9 -130q6 -4 2 -6zM612 110h-16q-32 0 -35 5q-11 18 -41 18q-8 0 -23 6t-27 11.5t-32.5 16.5t-25.5 13q-43 22 -43 38q0 6 16 11q3 1 19.5 6t31 9t20.5 4q5 0 23.5 8t24.5 8q18 0 90 24q27 9 40 9h13l1 -83q1 -83 8 -94q7 -10 7 -15q0 -13 -13 0
q-5 5 -38 5zM300 652q0 -24 -6.5 -89t-6.5 -89q0 -15 -2 -22.5t-5.5 -16.5t-5.5 -22q-6 -30 -9 -35q-11 -20 -11 -87q0 -35 5 -70q1 -5 27.5 -32.5t30.5 -27.5t26 -18t31 -20q10 -2 10 -9t-43 -7q-31 0 -60 4t-46 5q-32 2 -46 10q-14 7 -25 7t-15 5q3 3 7 4q17 0 20.5 25.5
t4.5 143.5v55q0 97 -2 123q-4 44 -4 61q0 32 4 67q5 58 21 58q2 0 6.5 -0.5t8.5 -0.5q8 0 32 2t31 2q13 0 17.5 -5.5t4.5 -20.5zM650 400q0 -36 -7 -36q-1 0 -6.5 1t-9.5 1q-35 0 -53 -16q-11 -10 -37.5 -17t-51.5 -7q-34 0 -37 -5q-4 -6 -15 -10.5t-20 -4.5q-15 0 -21 -5
q-12 -8 -49 -8q-22 0 -22 8q0 27 20 85q18 53 18 115v5q0 45 4 51q5 5 10 87l1 21l41 1q18 0 71 4.5t77 4.5q9 0 27.5 -2t22.5 -2q3 0 6.5 0.5t10 1.5t11.5 2l23 3l-3 -30q-13 -145 -13 -186q0 -16 1 -33.5t1 -28.5z" />
</svg>
