<?xml version="1.0" standalone="no"?>
<!DOCTYPE svg PUBLIC "-//W3C//DTD SVG 1.1//EN" "http://www.w3.org/Graphics/SVG/1.1/DTD/svg11.dtd" >
<svg xmlns="http://www.w3.org/2000/svg" xmlns:xlink="http://www.w3.org/1999/xlink" version="1.1" viewBox="-10 0 825 1000">
   <path fill="currentColor"
d="M564 588q0 10 -11 23t-30 13q-11 0 -32 -7q-19 -7 -31 -30q-7 -14 -8 -19.5t1 -6t5 -2t3 -7.5q0 -1 5 -8.5t15.5 -16t22.5 -8.5q29 0 44.5 23.5t15.5 45.5zM91 181q0 -75 4 -85q0 -6 -15 -15t-15 -15q0 -4 1.5 -9.5t10.5 -14.5t24 -9q12 0 61.5 3.5t111.5 4.5
q71 1 87.5 10t76.5 10q5 0 21.5 0.5t36.5 1t39.5 1t32.5 0.5l14 1q35 0 62 -10.5t29 -10.5q10 0 21.5 14t11.5 32q0 8 -4 21.5t-4 15.5l1 2q1 1 3.5 106t4.5 108t3.5 57t5 119.5t10.5 91.5q1 4 6 47.5t10 53.5q2 3 2 12q0 25 -20 30q-8 2 -101 4.5t-97 5.5q-5 3 -36 3h-18
q-57 0 -63 10q-5 9 -11 1q-5 -8 -45 -8q-33 0 -97.5 -5t-81.5 -6q-36 -2 -50 -8.5t-14 -21.5q0 -11 -7.5 -26t-7.5 -20q0 -3 3.5 -8.5t3.5 -16.5q0 -5 -1 -14t-1 -13q0 -7 1 -10.5t2 -4.5t2.5 -1t3 -1t2 -3.5t0 -9t-1.5 -17.5q-9 -65 -9 -161q0 -10 1 -17.5t1 -15.5
q0 -33 -5.5 -91.5t-5.5 -117.5zM351 695q0 -37 -10.5 -90t-10.5 -61t-12 -49t-16 -72q-7 -47 -12 -61.5t-19 -25.5q-15 -12 -15 -20t9 -23q10 -18 24.5 -23t60.5 -14.5t100 -30.5q78 -30 82 -34q7 -7 13 -7q3 0 27 -9.5t39 -10.5q9 -1 12.5 -1.5t5 -3t1.5 -7.5q0 -12 -3 -17
q-3 -4 -44 -7t-98.5 -6t-83.5 -7q-24 -3 -38 -3q-10 0 -20.5 -3.5t-46.5 -3.5h-16q-42 0 -80 -2l-39 -3v18q0 10 -4 69.5t-4 97.5q0 28 2 32q1 2 -3 6t0 14q4 11 4 28q0 14 1.5 46.5t3 69t3.5 71t3.5 57.5t1.5 24q0 10 -0.5 18.5t-0.5 13.5q0 21 12 27.5t52 9.5q19 1 51.5 6
t46.5 5t17.5 -3t3.5 -15zM633 229q-9 0 -43 13t-38 13t-22 9t-31 11q-5 1 -36 16t-53 15q-10 0 -10 4q0 5 9 12.5t15 7.5q5 0 16 7t17 7q5 0 10.5 7t18.5 7q11 0 22.5 6.5t29.5 9.5q18 2 53 17t50 15q6 0 6 -3q0 -9 3 -13t1 -13q-2 -8 -3.5 -27t-3 -34.5t-2.5 -18.5
q-1 -2 3 -7.5t1 -20.5q-4 -18 -4 -28q0 -12 -9 -12zM674 671q0 -4 -8 -48t-8 -84q0 -46 -3 -52q-5 -8 -11 -7.5t-16 4.5t-11 4q-6 0 -12 -4.5t-9 -9t-3 -5.5q0 -7 -18 -16.5t-41 -14.5q-76 -16 -87 -24q-11 -7 -36 -19.5t-34 -12.5q-11 0 -11 21t7.5 58t13.5 44q4 6 4 34
t9.5 49t9.5 27q0 5 5 23.5t7 40.5q2 28 4 30h6q21 0 49 -2t54 -5t48.5 -6t36.5 -5l15 -2q39 -2 39 -18z" />
</svg>
