<?xml version="1.0" standalone="no"?>
<!DOCTYPE svg PUBLIC "-//W3C//DTD SVG 1.1//EN" "http://www.w3.org/Graphics/SVG/1.1/DTD/svg11.dtd" >
<svg xmlns="http://www.w3.org/2000/svg" xmlns:xlink="http://www.w3.org/1999/xlink" version="1.1" viewBox="-10 0 933 1000">
   <path fill="currentColor"
d="M443 84q11 0 28 21t17 25q0 2 22 38.5t26 40.5q7 7 23 37.5t29.5 57t16.5 26.5q4 0 4 10q0 12 25 43.5t28 40.5q6 17 38 17q16 0 45 -5.5t36 -5.5l31 -3q17 0 32.5 11t15.5 25t-14 27.5t-27 13.5q-10 0 -29 -6l-18 -5q-10 0 -32 3t-22 5q0 6 18.5 38t23.5 35q4 2 6.5 5.5
t5 9t11.5 20t21 33.5l27 41l-6 25q-7 30 -20.5 39.5t-61.5 9.5q-19 0 -46 -2t-59 -2l-15 1q-15 0 -38.5 0.5t-50 1.5t-54.5 1.5t-48 0.5q-11 0 -31 -0.5t-41.5 -1t-41 -0.5h-32.5l-14 -1q-80 0 -92 6q-4 2 -10 2q-16 0 -33.5 -12t-17.5 -29q0 -8 7 -35t15 -41
q8 -13 29.5 -57t21.5 -47q0 -2 9 -21t9 -24t-21.5 -5t-56 -2.5t-57.5 -14.5q-7 -3 -7 -19q0 -21 13.5 -30.5t29.5 -9.5q14 0 61 11t57 11q14 0 17 -16q2 -11 18.5 -47t16.5 -42q0 -8 5 -8q3 0 14.5 -21t14.5 -21q4 0 4 -6q0 -1 21 -37t21 -45q0 -2 3.5 -11t9.5 -22.5
t10 -23.5q9 -23 26.5 -38.5t32.5 -15.5zM568 381q-3 0 -8 -18.5t-7 -18.5t-14.5 -22.5t-26.5 -48t-20 -30.5q-9 -9 -9 -15t-5 -6q-2 0 -3 -1t-1.5 -3.5t-4 -9t-9.5 -14.5l-13 -16l-10 12q-6 8 -14.5 29t-15.5 37.5t-9 16.5q-4 0 -4 7q0 4 -7.5 15t-18 27t-15.5 28
q-7 17 -25.5 44t-18.5 34q0 5 64 5q18 0 40.5 -1t44.5 -1q9 0 24.5 0.5t32 1t31 1t24.5 0.5l10 1q17 0 17 -2q0 -5 -12.5 -28.5t-16.5 -23.5zM589 700q31 0 84 -4.5t62 -4.5q7 0 8.5 -3.5t1.5 -16.5q0 -14 -6.5 -25t-18.5 -26t-20 -32l-8 -13q-9 -13 -17.5 -29t-8.5 -23
q0 -6 -18 -17q-12 -7 -26.5 -9.5t-67.5 -4.5q-103 -5 -112 -5h-20q-107 9 -126 12.5t-22 13.5v1q-4 15 -20.5 46.5t-19.5 31.5q-4 0 -4 12t-4 12q-3 0 -12 21t-9 30q0 12 23 15t66.5 3.5t68.5 4.5q56 10 226 10z" />
</svg>
