<?xml version="1.0" standalone="no"?>
<!DOCTYPE svg PUBLIC "-//W3C//DTD SVG 1.1//EN" "http://www.w3.org/Graphics/SVG/1.1/DTD/svg11.dtd" >
<svg xmlns="http://www.w3.org/2000/svg" xmlns:xlink="http://www.w3.org/1999/xlink" version="1.1" viewBox="-10 0 732 1000">
   <path fill="currentColor"
d="M244 715q0 -25 9 -42.5t18.5 -26.5t9.5 -15q0 -5 7 -9q6 -3 18.5 -21t12.5 -23q0 -4 14 -20l14 -16l-18 -3q-18 -3 -34 -3q-25 0 -34.5 8.5t-18.5 8.5q-23 0 -44 -29q-11 -15 -12 -18.5t4 -12.5q10 -15 22 -18t58 -4q63 0 63 -5q0 -14 -31 -47q-11 -12 -23 -35.5
t-12 -34.5q0 -7 7.5 -15.5t22.5 -8.5q17 0 27.5 21t13.5 21q5 0 49 75l15 26l10 -16q7 -11 7 -21q0 -7 25 -27t25 -25q0 -3 7.5 -11t20.5 -15.5t25 -7.5q14 0 24 9q10 8 10.5 12t-4.5 20q-7 22 -22 29q-12 7 -27.5 21.5t-15.5 19.5q0 3 -10 7t-8 11q1 6 17 7t50.5 2.5
t64.5 7.5q28 3 28 33q0 8 -1 9q-5 5 -47.5 9t-82 7.5t-39.5 6.5q0 10 27.5 46.5t47 74t3.5 56.5q-9 12 -20 12t-21 -9t-18 -19.5t-9 -11.5q-4 -3 -4 -6q0 -1 1 -4t1 -5q0 -8 -14 -19q-13 -10 -20 -29t-17 -30t-14.5 -12t-13.5 5q-10 6 -26 29.5t-20 25.5q-5 1 -16.5 25
t-11.5 32q0 6 -13 15.5t-21 9.5q-36 -4 -36 -27zM78 118q3 -5 17 -3.5t17 7.5t18.5 13t15.5 12q0 6 24 31t30 25q4 0 10 14.5t6 22.5v3q-1 3 -1 6v10q2 23 -32 -4q-12 -9 -36 -31q-28 -26 -32 -26q-3 0 -16 -17t-20 -21t-7 -15zM656 124q0 28 -12 28q-4 0 -16.5 8
t-30.5 18.5t-32 15.5q-18 6 -22.5 13.5t-15.5 12.5q-12 5 -19 5q-21 0 -21 -22q0 -26 50 -54q14 -8 34 -21.5t34 -22.5t18 -11q4 -1 9.5 -2t14.5 6.5t9 25.5zM330 112q0 -25 8.5 -44t18.5 -19q3 0 7.5 1.5t11.5 11t7 25.5q0 6 -0.5 16t-0.5 17q0 17 3 37.5t5 32.5l2 11
q-1 0 -9 6q-7 5 -23 -5q-11 -7 -15 -14t-9 -29q-6 -27 -6 -47z" />
</svg>
