<?xml version="1.0" standalone="no"?>
<!DOCTYPE svg PUBLIC "-//W3C//DTD SVG 1.1//EN" "http://www.w3.org/Graphics/SVG/1.1/DTD/svg11.dtd" >
<svg xmlns="http://www.w3.org/2000/svg" xmlns:xlink="http://www.w3.org/1999/xlink" version="1.1" viewBox="-10 0 776 1000">
   <path fill="currentColor"
d="M224 387q0 -23 -6.5 -53t-6.5 -58t2 -45t4 -23.5t2 -8.5q0 -4 -1 -6q-2 -6 1 -11.5t5 -8.5t0 -3l-1 -1q0 -2 14 -22.5t15 -28.5q0 -10 6 -12q3 -1 26 -20t37 -19q8 0 24 -5t20 -5q5 0 7 5q1 3 18.5 6t38 6.5t25.5 7.5q13 11 20.5 26t13.5 21q7 6 7 20q0 5 17.5 52
t17.5 106q0 91 -27 152q-2 5 -6 18.5t-8 22t-8 10.5q-6 2 -4.5 12t-4.5 12q-7 4 -7 8q0 13 -24 46.5t-24 38.5q0 11 36 25.5t77 14.5q22 0 55.5 -27t33.5 -37q0 -4 9 -13t9 -11q5 -32 26 -32q7 0 14 6t11 6q3 0 4 8.5t1.5 17.5t2.5 11t-2 5t-9 8.5t-5 10.5q0 7 -11.5 19.5
t-11.5 14.5q0 6 -28.5 33t-37.5 30t-20.5 11t-23.5 8q-60 0 -106 -21q-18 -8 -37 -15t-27 -10t-9 -7q-2 -6 -8.5 -6t-8.5 6q-2 4 -14 8.5t-31.5 11.5t-32.5 14q-33 18 -82 18q-13 0 -28 -8t-18 -8q-7 0 -22.5 -12t-17.5 -20q-2 -7 -11 -17.5t-9 -16.5t-11.5 -22t-11.5 -29
q0 -14 8.5 -23.5t21.5 -9.5q10 0 20 7t15 14t5 10q0 7 15 26t26 26q13 9 39 9q36 0 71.5 -11t35.5 -20q0 -2 -11.5 -19t-11.5 -20t-15 -30.5t-16 -33.5q-2 -20 -16.5 -53t-15.5 -40q-2 -14 -6.5 -21t-4.5 -10q0 -4 1 -7q0 -1 0.5 -4t0.5 -5zM425 142q-3 0 -4.5 -1.5l-3 -3
t-12 -4t-29.5 -3.5q-11 -1 -26 -1q-24 0 -44.5 25.5t-25.5 58.5q-3 18 -3 54q0 109 9 131q2 4 6.5 18t8 23.5t7.5 12.5q7 5 7 12q0 12 15.5 54t23.5 52q12 14 12 18t7 4q5 0 22.5 -22.5t17.5 -28.5q0 -5 4 -5q5 0 17 -24t12 -33q0 -11 8 -19q19 -21 19 -157
q0 -44 -6.5 -69.5t-12.5 -35.5t-6 -14q0 -2 0.5 -4.5t0.5 -3.5q0 -6 -8.5 -17t-8.5 -13q0 -4 -7 -4z" />
</svg>
