<?xml version="1.0" standalone="no"?>
<!DOCTYPE svg PUBLIC "-//W3C//DTD SVG 1.1//EN" "http://www.w3.org/Graphics/SVG/1.1/DTD/svg11.dtd" >
<svg xmlns="http://www.w3.org/2000/svg" xmlns:xlink="http://www.w3.org/1999/xlink" version="1.1" viewBox="-10 0 697 1000">
   <path fill="currentColor"
d="M303 551q3 -1 12.5 -8t15.5 -5q22 6 27.5 15.5t5.5 49.5q0 26 3.5 60.5t7.5 37.5q5 3 -0.5 8t-3.5 9v2q0 12 -30 12q-17 0 -22.5 -4t-11.5 -21q-7 -15 -4 -27t0 -24q-6 -24 -6 -78q0 -25 6 -27zM444 569q0 -8 13.5 -23t17.5 -15q5 0 27 21.5t22 26.5t21 21.5t21 19.5
q0 2 0.5 3t2.5 1.5t4.5 2t6.5 6t9 12.5q10 16 21 27q7 9 6 9t-7 4.5t-8 12.5q-2 11 -9 11q-3 0 -6.5 0.5t-5.5 1.5l-3 1q-8 0 -26 -15t-18 -22q0 -5 -25.5 -29.5t-39.5 -32.5q-24 -14 -24 -44zM225 532q15 0 22.5 11t7.5 21q0 23 -24 42q-10 8 -23 23q-8 9 -29 23.5
t-26 14.5q-3 0 -18 17q-7 8 -10 11t-11.5 5.5t-22.5 2.5q-16 0 -21.5 -5.5t-5.5 -19.5q0 -35 38 -50q15 -6 35.5 -21.5t20.5 -20.5q0 -8 23.5 -31t43.5 -23zM550 452q-16 0 -21.5 3.5t-41.5 3.5q-21 0 -37.5 3.5t-18.5 5t-9 -1.5q-8 -8 -95 -11l-87 -3q-4 -1 -65 2l-54 3
l-11 -13q-14 -16 -14 -91q0 -18 4.5 -30t28.5 -62q12 -24 23.5 -38.5t51.5 -54.5q59 -60 99 -60q27 0 31 -3q5 -4 15 -2.5t20 -1.5q9 -3 26 -3q30 0 36 5q7 5 30 15t43 24.5t31 35.5q6 12 15.5 22.5t12.5 21.5t7.5 16.5t4.5 11.5q0 5 5.5 11t6.5 22q0 3 2.5 32.5t4.5 48.5
l6 61l-15 13q-15 14 -35 14zM336 389q64 0 76 3.5t18 3.5q23 0 51 -7q34 -8 42 -13t8 -19q0 -55 -25.5 -112t-59.5 -72q-48 -22 -65 -22q-2 0 -7.5 1t-15.5 2.5t-24 1.5q-24 1 -46.5 10t-23.5 9q-7 0 -28.5 24t-23.5 33q-1 6 -3 9.5t-3.5 5.5t-6.5 8t-11 15q-14 21 -15 22
q-13 11 -13 57q0 23 6 27q13 13 140 13h30z" />
</svg>
