<?xml version="1.0" standalone="no"?>
<!DOCTYPE svg PUBLIC "-//W3C//DTD SVG 1.1//EN" "http://www.w3.org/Graphics/SVG/1.1/DTD/svg11.dtd" >
<svg xmlns="http://www.w3.org/2000/svg" xmlns:xlink="http://www.w3.org/1999/xlink" version="1.1" viewBox="-10 0 1000 1000">
   <path fill="currentColor"
d="M261 602q9 0 19.5 14t13.5 14t14 -21t16 -21q27 0 27 14q0 5 4.5 10.5t2.5 13.5q-2 12 -2 16q0 1 -10.5 15t-27.5 28.5t-29 14.5q-11 0 -25 -7t-19.5 -16.5t-8.5 -33.5q-2 -17 -1 -23t8 -11q10 -7 18 -7zM187 738q-3 0 -14.5 -15t-23.5 -43t-12 -54q0 -19 6.5 -35.5
t7.5 -21.5q1 -7 9 -18t19 -23.5t15 -18.5q5 -7 19.5 -13t36 -12.5t33.5 -12.5q20 -10 26 -7t62 14q13 2 47 36q28 27 34.5 41.5t6.5 51.5q0 46 -4 67.5t-18 38.5q-13 16 -20 26q-25 34 -119 34q-34 0 -58.5 -8.5t-37 -17.5t-15.5 -9zM221 572q-11 0 -19 18.5t-8 31.5
q0 8 23 52q10 18 36 29t55 11q22 0 39.5 -7t24 -13.5t8.5 -11.5q17 -40 17 -60q0 -19 -2 -30t-14 -27t-37 -28q-22 -10 -36 -10q-26 0 -50 22.5t-37 22.5zM667 461q3 0 10.5 -6.5t28 -13t55.5 -6.5q18 0 30.5 2t17 4t8 4t6.5 2q5 0 24 13t25 15q11 3 25.5 37t18.5 38
q11 13 11 61q0 31 -17.5 59t-32.5 40.5t-18 12.5l-21 15q-22 14 -29 14q-4 0 -27 8t-43 8q-21 0 -46 -13t-30 -13q-4 0 -16.5 -9.5t-18.5 -9.5q-18 0 -36 -35.5t-18 -69.5q0 -10 2 -17t2 -25q0 -27 39.5 -71t49.5 -44zM653 564q0 51 27 51t27 -11q0 -4 7 -11t13 -22
q18 -40 70 -40q24 0 32 5q9 5 9 -1q0 -4 -4 -14q-5 -13 -28 -19t-42 -6q-44 0 -77.5 26t-33.5 42zM848 631q-5 -2 -23.5 -20.5t-22.5 -18.5q-11 0 -29.5 32t-27.5 38q-7 5 -15.5 11.5t-13 9.5t-8.5 3q-6 0 -6 4q0 5 9 11.5t20 6.5q13 0 56 -20.5t58 -41.5q9 -13 3 -15z
M456 504q-4 0 -10 -5t-10 -5q-6 0 -11.5 -6.5t-4.5 -11.5q2 -5 -4 -13q-6 -7 -2 -16t13 -9q10 0 21 -7.5t11 -13.5q0 -12 20 -12q16 0 24.5 13t8.5 28q0 16 -6 18q-7 3 -24.5 21.5t-25.5 18.5zM65 428q0 -28 19 -28q16 0 41.5 26t25.5 39q0 9 -7.5 19t-13.5 12q-8 2 -18 0
t-10 -6q0 -3 -14 -20.5t-14 -21.5q0 -6 -4 -6q-5 0 -5 -14zM260 441q-12 0 -18 -11t-6 -20q0 -3 4.5 -19t14.5 -34t22 -18q4 0 5.5 0.5t1 2t0 4.5t3.5 7q10 12 10 28q0 4 -3.5 9.5t-5.5 18.5q-6 32 -28 32zM364 248q0 -27 7.5 -40.5t7.5 -18.5q0 -8 8 -21.5t8 -15.5l-1 -2
q-9 -9 24.5 -37t54.5 -32q6 -1 23 -1q29 0 59.5 10t39.5 10q15 0 51.5 29t43.5 59q3 11 7.5 17t4.5 16q0 22 -10.5 42.5t-21 33.5t-10.5 16q0 5 -22.5 25t-33.5 24q-7 2 -23 11t-31 9q-16 0 -46.5 -4t-30.5 -7q0 -4 -8 -4q-11 0 -33 -9.5t-32 -18.5q-36 -33 -36 -91z
M422 246q0 21 23 43t72 22q54 0 63 -14q1 -3 14 -7q9 -3 27 -29t18 -37q0 -13 -13 -33.5t-21 -20.5q-2 0 -11 -7.5t-28 -9.5q-17 -2 -27.5 -8.5t-20.5 -6.5q-15 0 -22.5 14t-24.5 14q-12 0 -15.5 3t-7 10.5t-11.5 13.5q-15 11 -15 53z" />
</svg>
