<?xml version="1.0" standalone="no"?>
<!DOCTYPE svg PUBLIC "-//W3C//DTD SVG 1.1//EN" "http://www.w3.org/Graphics/SVG/1.1/DTD/svg11.dtd" >
<svg xmlns="http://www.w3.org/2000/svg" xmlns:xlink="http://www.w3.org/1999/xlink" version="1.1" viewBox="-10 0 424 1000">
   <path fill="currentColor"
d="M77 68q0 -7 16 -20.5t23 -13.5q10 0 38 15t29 22q1 1 3 1q4 0 8.5 4t8 9t7.5 10l3 5q16 3 47 49q13 21 21 26q10 8 10 19q0 5 16 25q17 22 17 38q0 9 5.5 18t6.5 19q10 107 10 132q0 18 -1 30t-2 17t-3.5 14.5t-3.5 16.5q-1 6 -20 51t-20 51q-2 11 -18 29
q-13 15 -27.5 35t-15.5 24q-1 11 -26.5 32.5t-43.5 29.5q-8 4 -17 11t-18.5 10t-26.5 3q-21 0 -29 -7.5t-8 -28.5q0 -36 36 -47q10 -3 47.5 -27.5t50.5 -37.5q16 -16 16 -22q0 -9 9 -17t9 -10q0 -10 6 -16q3 -4 7.5 -21t8.5 -21q10 -10 20 -53q1 -2 2.5 -55.5t4.5 -59.5
q-5 -3 -5 -14q-1 -12 -6 -33.5t-8 -25.5q-6 -5 -6 -14q0 -2 -12 -28.5t-12 -32.5v-1q-9 -3 -9 -12q0 -2 -3 -2q-8 0 -14 -8t-16 -29q-2 -5 -7 -10q-7 -1 -21 -13q-31 -29 -61 -40q-8 -3 -17 -11t-9 -15z" />
</svg>
