<?xml version="1.0" standalone="no"?>
<!DOCTYPE svg PUBLIC "-//W3C//DTD SVG 1.1//EN" "http://www.w3.org/Graphics/SVG/1.1/DTD/svg11.dtd" >
<svg xmlns="http://www.w3.org/2000/svg" xmlns:xlink="http://www.w3.org/1999/xlink" version="1.1" viewBox="-10 0 779 1000">
   <path fill="currentColor"
d="M466 695q0 -5 2.5 -14t14 -20.5t29.5 -11.5q26 0 26 14q0 2 8 13t8 27q0 14 -4 21t-9 8t-17 1q-27 0 -42.5 -10.5t-15.5 -27.5zM525 428l-6 2q-6 3 -15.5 6.5t-20.5 7t-23.5 6t-21.5 2.5q-18 0 -28.5 5t-27.5 5q-26 0 -55.5 -6.5t-35.5 -14.5t-16 -8q-29 0 -72 41.5
t-43 58.5v1l1 2q5 5 -4 7q-4 2 -10 9t-12 26t-6 44q0 15 2.5 21t13.5 16q13 12 22 14.5t44 2.5q29 0 47.5 -10t38.5 -28.5t38 -27.5q11 -6 31.5 -24.5t37.5 -34t22 -15.5q3 0 18 -9.5t33 -12.5q19 -3 35.5 -12.5t29.5 -9.5q6 0 18.5 1.5t40 12.5t46.5 30t24 19q8 0 20 49
t12 82q0 35 -13 46q-10 9 -15 9q-2 0 -10.5 -3t-19 -12.5t-10.5 -21.5q0 -8 2.5 -22t2.5 -21q0 -55 -39 -86q-15 -12 -22.5 -15t-24.5 -3q-35 0 -55.5 8t-49.5 33l-9 6q-8 6 -19.5 14.5t-23 17.5t-19.5 17t-8 12q0 3 -20 16t-24 25q-4 8 -8 8q-1 0 -14.5 8t-41.5 16t-66 8
q-42 0 -69 -9.5t-39 -28.5t-16 -37t-4 -43q0 -52 10 -85t19.5 -48t9.5 -24q0 -10 5 -10q3 0 16 -12.5t32.5 -30.5t34.5 -27q18 -11 22 -18t4 -18q0 -17 -6.5 -34.5t-6.5 -29.5q0 -43 17 -85.5t34 -64.5t22 -22q4 0 2 -7q-1 -4 4 -7.5t20 -8.5q26 -9 73 -9q67 0 76 5
q7 3 14 -1t17 2q8 4 19.5 6.5t17.5 8.5t27.5 16.5t37 22.5t15.5 27q0 7 6 15t12.5 26t6.5 48q0 17 -2.5 35.5t-5 29.5t-4.5 11t-9 14.5t-14 16.5q-9 2 -9 8q0 4 -8.5 13t-13.5 9q-2 0 -18.5 14t-19.5 14zM414 140l-17 5q-17 5 -35.5 9.5t-22.5 4.5q-3 0 -6.5 -0.5t-4.5 -0.5
q-18 0 -41.5 38t-23.5 69q0 29 14 67t27 45q28 15 44.5 19t48.5 4q35 0 45 -4.5t12 -4.5q23 0 61 -29.5t38 -47.5q0 -8 7 -14.5t7 -15.5q0 -8 3 -16t3 -10q0 -5 -4 -10q-5 -8 -7 -22t-10 -27t-31 -29q-21 -14 -30 -25q-8 -7 -8.5 -6.5t-7.5 4t-17 3.5q-9 0 -24.5 -3
t-19.5 -3z" />
</svg>
