<?xml version="1.0" standalone="no"?>
<!DOCTYPE svg PUBLIC "-//W3C//DTD SVG 1.1//EN" "http://www.w3.org/Graphics/SVG/1.1/DTD/svg11.dtd" >
<svg xmlns="http://www.w3.org/2000/svg" xmlns:xlink="http://www.w3.org/1999/xlink" version="1.1" viewBox="-10 0 819 1000">
   <path fill="currentColor"
d="M57 764q0 -16 22.5 -41.5t43.5 -43t23 -17.5q4 0 4 -4q0 -5 14 -26q9 -13 14.5 -17t16.5 -4q23 0 34 19.5t11 33.5q0 17 -10 17q-3 0 -16.5 11t-36.5 28.5t-44 29.5q-8 4 -16 28.5t-26 24.5q-12 0 -20.5 -10t-11 -18t-2.5 -11zM413 628q0 -12 9.5 -21.5t18.5 -9.5
q14 0 30 28t17 28q2 0 20.5 17.5t38.5 42.5t23 41q0 4 1.5 8.5l2.5 7.5l1 2q0 5 -10.5 13.5t-16.5 8.5q-7 0 -27 -10q-13 -7 -16 -11.5t-3 -15.5q0 -16 -14 -30.5t-32 -28t-23 -23.5q-20 -40 -20 -47zM274 638q0 -5 1 -12t9 -18t23 -11q16 0 22 10q10 18 10 112q0 59 -28 59
q-30 0 -30 -40q0 -15 -0.5 -30.5t-1.5 -27.5t-2.5 -21.5t-2.5 -14.5v-6zM507 141q0 -6 -0.5 -19.5t-0.5 -25.5v-11q0 -20 2.5 -26.5t10.5 -15.5q13 -13 30 -13q18 0 18 3q0 6 33 36.5t47 38.5q16 8 40 22.5t38 21.5q22 13 22 25q0 4 -1 9.5t-8.5 15t-20.5 9.5
q-14 0 -24 -4.5t-21.5 -12.5t-21.5 -12q-17 -7 -17 -12q0 -4 -11 -4q-8 0 -21 -10t-14 -10t-1 1q0 3 -8 3q-4 0 -6 2.5t-4.5 23t-2.5 59.5v42q0 51 -7.5 79.5t-7.5 30.5q0 20 -35 62t-62 54q-20 9 -67 10t-54 8q-5 5 -34 5q-28 0 -39 -6t-15 -6q-11 0 -38 -17.5t-42 -34.5
q-46 -51 -54.5 -65t-8.5 -41q0 -26 4 -71.5t4 -62.5q0 -2 -1 -47v-45q0 -34 5 -48t22 -14q13 0 25.5 9.5t12.5 20.5q0 3 -0.5 4.5t-1.5 2.5t-2 3t-2 8t-2 15t-1.5 27t-0.5 42q0 158 10 158q2 0 3.5 5.5t6.5 14t14 14.5q14 9 14 15t18 20.5t25 14.5q5 0 6.5 1.5t4 3.5
t17.5 3.5t43 1.5q61 0 89 -9t54 -36q22 -24 22 -30q0 -9 5 -25q12 -34 12 -211z" />
</svg>
