<?xml version="1.0" standalone="no"?>
<!DOCTYPE svg PUBLIC "-//W3C//DTD SVG 1.1//EN" "http://www.w3.org/Graphics/SVG/1.1/DTD/svg11.dtd" >
<svg xmlns="http://www.w3.org/2000/svg" xmlns:xlink="http://www.w3.org/1999/xlink" version="1.1" viewBox="-10 0 794 1000">
   <path fill="currentColor"
d="M318 363q17 0 28.5 -10.5t14.5 -18.5t3 -11q0 -11 48.5 -48.5t76.5 -37.5q9 0 29.5 -3.5t34.5 -3.5q26 0 37.5 5.5t26.5 20.5q5 5 35 32q44 40 44 55q0 7 7 21.5t7 17.5q0 1 -2 3q-3 2 -4.5 13t-3.5 26.5t-6 24.5q-6 11 -10 31q-2 13 -19 34.5t-34 32.5q-2 2 -16 8
t-40.5 13.5t-49.5 7.5q-42 0 -82.5 -17t-62 -35t-21.5 -26q0 -3 -7 -15.5t-7 -26.5v-16l-79 2q-107 2 -112 7q-3 3 -27 3q-18 0 -37.5 -8.5t-19.5 -24.5q0 -10 10 -23q9 -11 16 -13t31 -2q34 0 45.5 -8t19.5 -8q1 0 4.5 0.5t5.5 0.5h6q16 0 38 -4.5t30 -4.5q5 0 18.5 3
t23.5 3zM394 393q0 4 3.5 11t3.5 18q0 20 28 45q8 7 18 19q20 23 76 23q38 0 49 -2t20 -9q11 -9 16 -10q8 -3 22.5 -29.5t14.5 -38.5q0 -27 -9 -47.5t-20 -32t-37 -34.5q-14 -13 -21.5 -15.5t-27.5 -2.5q-25 0 -37.5 6.5t-15.5 6.5t-22 11t-40 34t-21 47z" />
</svg>
