<?xml version="1.0" standalone="no"?>
<!DOCTYPE svg PUBLIC "-//W3C//DTD SVG 1.1//EN" "http://www.w3.org/Graphics/SVG/1.1/DTD/svg11.dtd" >
<svg xmlns="http://www.w3.org/2000/svg" xmlns:xlink="http://www.w3.org/1999/xlink" version="1.1" viewBox="-10 0 873 1000">
   <path fill="currentColor"
d="M618 631q0 3 14 18t27.5 36.5t13.5 41.5q0 16 -28 16q-9 0 -26.5 -4.5t-39.5 -4.5l-11 1q-11 1 -29.5 2t-41.5 2.5t-52.5 2.5t-56.5 2q-112 1 -129 12q-3 2 -13 2q-31 0 -45 -14.5t-14 -28.5q0 -8 -5 -13t-5 -14q0 -14 6.5 -30.5t15.5 -20.5q4 -2 4.5 -3.5t1 -4.5t4.5 -8
q19 -21 31 -42.5t18 -37.5t9 -19q9 -11 9 -16q0 -3 7 -12.5t9 -19.5q2 -13 15.5 -29t24.5 -44q7 -18 7 -23q0 -10 -23 -10h-18q-14 0 -72 -8q-13 -1 -46 -20t-47 -33q-49 -45 -49 -60l-2 -7q-2 -8 -5 -19.5t-6.5 -24.5t-5.5 -28.5t-2 -26.5q0 -16 6.5 -33.5t6.5 -18.5
q3 -8 36 -9.5t36 -4.5q1 -1 16 -1q4 0 19.5 0.5t39.5 2t41.5 5.5t17.5 9q0 3 1.5 3.5t4 -0.5t6 0t7.5 4q5 5 13 5q12 0 48 35t36 42q0 5 17 30.5t20 25.5q4 0 11.5 -8.5t7.5 -12.5q0 -3 6.5 -8t19.5 -15.5t23 -21.5t23.5 -20t22.5 -14t10 -8q3 -5 14 -5q10 0 32 -8t22 -11
q0 -2 29 -9.5t40 -7.5q6 0 14.5 4t13.5 4q2 0 59 23q18 7 18 31q0 13 -9.5 34t-9.5 30t-5 16t-3 18v6q0 10 -7.5 15.5t-7.5 8.5q0 1 0.5 2.5t0.5 2.5q0 4 -5.5 8.5t-16 12.5t-17.5 14q-9 8 -31.5 17t-23.5 13q-2 6 -12 6q-7 0 -30.5 10t-60.5 11q-17 0 -28 1.5t-15.5 2.5
t-7.5 1t-13.5 -2t-17 -2t-6.5 4q0 11 15 30.5t16 20.5q2 5 14.5 26.5t24 44t14.5 35.5q0 1 6.5 8t13 16.5t8.5 18.5q2 11 16.5 30.5t14.5 21.5zM298 310q7 0 20 1t24 2l10 1q13 0 22 -7.5t11.5 -13.5t2.5 -8q0 -6 -6.5 -12t-6.5 -22q0 -10 -11 -24l-12 -14q0 -1 1 -1
q2 0 -7 -10.5t-20.5 -21t-15.5 -10.5q-3 0 -9.5 -7.5t-26.5 -13.5q-31 -10 -82 -10q-30 0 -44.5 4t-16.5 8.5t-2 14.5q0 56 46.5 95.5t77.5 39.5q7 0 15.5 4t29.5 5zM725 176q0 -11 -5.5 -17.5t-12.5 -6.5q-4 0 -6 2t-22.5 5t-24.5 6q-10 7 -38 13q-24 6 -35 14t-51 47
q-53 53 -53 60q0 12 67 12q52 0 100 -22.5t57 -39.5q24 -49 24 -73zM492 521q0 -6 -19 -31.5t-19 -27.5q0 -5 -22 -29l-23 -24l-6 12q-5 12 -10 12t-5 7q0 6 -7 10t-7 10t-16 33.5t-16 31.5q0 5 -7 10q-8 5 -27 49t-21 46q-5 4 -13 19.5t-8 21.5q0 3 96 3q200 0 200 -18
q0 -2 -13.5 -24.5t-16.5 -35.5q-4 -19 -10 -20q-4 -2 -17 -25t-13 -30z" />
</svg>
