<?xml version="1.0" standalone="no"?>
<!DOCTYPE svg PUBLIC "-//W3C//DTD SVG 1.1//EN" "http://www.w3.org/Graphics/SVG/1.1/DTD/svg11.dtd" >
<svg xmlns="http://www.w3.org/2000/svg" xmlns:xlink="http://www.w3.org/1999/xlink" version="1.1" viewBox="-10 0 851 1000">
   <path fill="currentColor"
d="M270 106q22 0 33 -8.5t30 -8.5q6 0 16 0.5t28 1.5t33 2q67 4 75 24q5 11 12 11q2 0 14 9.5t32.5 35t35.5 58.5q3 6 5 8t10.5 3.5t27.5 1.5q26 0 60.5 -4.5t41.5 -4.5q8 0 18.5 2t23.5 12t13 27l-3 29q0 5 -17 1q-4 -1 -18 -1t-33.5 2.5t-29.5 2.5h-5l-3 -1
q-2 -1 -12 -0.5t-19 2.5q-15 3 -19 6t-2 10q2 6 8 41t8 41t2 9t-1.5 11t-3 24.5t-2.5 38.5q-1 26 -12.5 55.5t-22 46t-11.5 16.5q-5 2 -30 27t-25 28q0 5 -18.5 22.5t-24.5 17.5t-22 11.5t-20 11.5q-3 0 -8 3t-11.5 7t-24.5 7t-44 3q-39 0 -74.5 -7t-46.5 -19q-6 -8 -14 -8
q-6 0 -6 -4q0 -3 -12 -9.5t-12 -11.5q0 -3 -1.5 -4.5t-4.5 -3.5t-9.5 -10t-14.5 -20q-16 -25 -21 -28q-9 -5 -27.5 -53t-20.5 -69q-1 -11 -4 -19q-4 -8 -4 -124q0 -42 6 -69.5t12.5 -35.5t12.5 -14t6 -11q0 -7 15 -27.5t20 -20.5q2 0 28 -28.5t42 -28.5q4 0 13 -8.5t32 -8.5
zM199 263q17 0 36 3t20 3t23.5 -7t67.5 -7q9 0 24.5 1t32 2t32 2t25.5 2l10 1q11 0 27 -4l21 -5l-7 -14q-5 -10 -17.5 -18.5t-12.5 -13.5q0 -9 -14.5 -23.5t-45 -27t-65.5 -12.5q-12 0 -22.5 7t-29.5 7h-7q-20 0 -29.5 8t-16.5 8q-16 0 -59 39.5t-43 50.5q0 3 4 3
q2 0 6.5 -1t14.5 -2.5t25 -1.5zM132 372q0 15 5.5 42.5t5.5 47.5q0 26 9.5 41.5t11.5 25.5q2 11 23 43t31 40q3 3 24.5 30t41.5 35q9 4 44 4q24 0 38 -2t18.5 -4t6.5 -2q3 0 5 1h2q11 0 54 -32t48 -43q4 -8 25 -24.5t21 -26.5q0 -8 7.5 -15t9.5 -13q6 -15 6 -88
q0 -21 -1.5 -27.5t-4.5 -13t-5 -21.5q-4 -25 -8.5 -35t-11.5 -11.5t-18 1.5q-8 2 -16 2q-2 0 -15 -1.5t-46.5 -2.5t-86.5 -1q-72 0 -73 3q-1 4 -20.5 4.5t-46.5 1t-41 4.5q-16 4 -27 4q-5 0 -7.5 1t-5.5 9t-3 23z" />
</svg>
