<?xml version="1.0" standalone="no"?>
<!DOCTYPE svg PUBLIC "-//W3C//DTD SVG 1.1//EN" "http://www.w3.org/Graphics/SVG/1.1/DTD/svg11.dtd" >
<svg xmlns="http://www.w3.org/2000/svg" xmlns:xlink="http://www.w3.org/1999/xlink" version="1.1" viewBox="-10 0 842 1000">
   <path fill="currentColor"
d="M258 330l0.5 -4.5t0.5 -11t0.5 -13.5t0.5 -14.5v-11.5q1 -21 6 -29t19 -8q4 0 11 1t27 2t56 1q24 0 45.5 -0.5t36 -1.5t26 -2t19 -2t12 -2t6.5 -1.5l2 -0.5q12 0 20.5 6.5t12 15.5t3.5 19t-9 23t-9 34q0 7 1.5 21t1.5 24q0 11 -3.5 45t-3.5 58q0 26 -0.5 31t-6.5 9
q-15 14 -54 14h-3t-8.5 -0.5t-13 -1t-18 -1t-22 -1t-26 -1t-29.5 -0.5h-6l-39 -1.5t-30.5 -2.5t-25.5 -7t-8 -13q0 -14 8 -40t8 -63q0 -35 -4 -49t-4 -21zM481 341q0 -20 -3 -30t-6.5 -11.5t-10.5 -1.5q-9 0 -29 -1.5t-41 -1.5q-5 0 -16.5 0.5t-17.5 0.5l-43 1l1 43
q1 71 7.5 99.5t21.5 32.5q26 6 50 6q12 0 12 -2q0 -3 30 -7q21 -2 31 -5t14.5 -8t4.5 -15q1 -8 2 -17.5t2 -16.5t2 -12.5t1.5 -9l0.5 -3.5q0 -7 -3 -12.5t-6.5 -12t-3.5 -16.5zM174 88q17 0 93 3t145.5 6l69.5 3q37 0 57.5 -3t66.5 -5q30 -1 50.5 -3.5t27.5 -4.5t12.5 -4
t8.5 -2q5 0 18 13l13 14l-1 76q0 1 -0.5 21t-1.5 50.5t-2 63.5t-2 65.5t-1 51.5q0 181 8 244l4 27l-26 5q-22 4 -46 4l-126.5 -7t-150.5 -7q-30 0 -66.5 1t-68.5 2.5t-59 3.5t-43.5 3t-17.5 1q-18 0 -24.5 -17t-6.5 -66q0 -28 0.5 -61t0.5 -61v-51.5v-37.5v-14q0 -44 -6 -58
q-7 -13 -4 -19l0.5 -2t0.5 -4q0 -18 -3.5 -43.5t-7.5 -44.5t-4 -21q0 -4 -4.5 -10t0.5 -17q4 -13 4 -26q0 -15 -5 -16q-5 -2 7 -15q8 -9 8 -12q0 -5 12 -17l13 -12zM673 573q0 -12 1 -83t2 -136.5t1 -66.5q0 -75 -1.5 -100t-8.5 -37q-3 -5 -10.5 -6.5t-32.5 -1.5
q-12 0 -70 5t-116 5h-14t-30 -0.5t-22 -0.5h-39h-23h-23.5h-23t-21.5 -0.5t-19 -0.5h-16h-12.5h-8.5h-3q-26 0 -37 4.5t-11 15.5q0 1 3 14.5t3 30.5q1 7 2 17.5t2 22t3 23.5t3.5 22.5t3 19t2 14l0.5 5.5q0 8 2.5 14t2.5 15q0 14 -3.5 46.5t-3.5 47.5q0 3 0.5 8t1 18.5
t0.5 35.5v31q0 12 8 47t19 39q1 0 2.5 0.5t4.5 0.5h6q1 0 17 -0.5t40 -1.5t50.5 -2t51 -1.5t36.5 -0.5t105 2.5t140 2.5q17 0 25 -1t10 -2t2 -4v-0.5v-1v-2.5v-4v-6.5t-0.5 -10.5t-0.5 -15.5v-20.5z" />
</svg>
