<?xml version="1.0" standalone="no"?>
<!DOCTYPE svg PUBLIC "-//W3C//DTD SVG 1.1//EN" "http://www.w3.org/Graphics/SVG/1.1/DTD/svg11.dtd" >
<svg xmlns="http://www.w3.org/2000/svg" xmlns:xlink="http://www.w3.org/1999/xlink" version="1.1" viewBox="-10 0 801 1000">
   <path fill="currentColor"
d="M88 249q0 -5 2.5 -14t2.5 -34q0 -9 -3 -43t-3 -51q0 -27 10 -32.5t49 -5.5q85 0 174 9t162 9q22 0 71 -7.5t91 -7.5q14 0 19.5 3.5t10 26t4.5 70.5q0 18 -2 34t-4.5 25.5t-2.5 11.5q0 51 1 59.5t6 8.5q1 0 1.5 44t3.5 102.5t9 87.5l27 124q5 13 4.5 20.5t2.5 8.5
q5 6 -3 15.5t-8 12.5q0 7 -15 18.5t-24 11.5q-24 0 -29 -56q-10 -102 -13.5 -127t-7.5 -28q-4 -2 -23 -2q-8 0 -19.5 0.5t-18.5 0.5q-21 0 -27 -3q-5 -2 -7.5 -2.5t-2.5 1.5q0 3 -12 3q-16 0 -36.5 -4.5t-23.5 -4.5q-9 0 -13.5 7.5t-8.5 28.5q-3 20 -3 32t4.5 36.5t4.5 41.5
q0 53 -30 53q-43 0 -43 -56q0 -6 1 -24t1 -31q0 -24 -7 -76q-1 -6 -11.5 -13t-14.5 -5h-1q-1 1 -2 1q-2 0 -13.5 -2.5t-35.5 -5.5t-58 -3q-40 0 -40 4q0 5 -8 5q-7 0 -4 17q3 20 3 75q0 69 -5 92q-4 18 -12.5 29.5t-17.5 11.5q-8 0 -15 -7t-10 -16t-5.5 -19.5t-3 -16
t-0.5 -7.5q0 -4 1 -5q2 -4 -3 -12t2 -9q5 -2 5 -21q0 -5 -1 -37.5t-1 -50.5q0 -12 -1 -20.5t-2.5 -12t-2.5 -6t-1 -3.5q0 -2 2.5 -5.5t2.5 -15.5q0 -8 -2.5 -21t-6 -55t-5.5 -116q-1 -21 -3 -33.5t-2 -13.5zM600 472q16 0 19 -1t3 -9q0 -4 -2.5 -27t-2.5 -42l2 -39
q0 -11 -4 -16.5t-6.5 -7.5t-0.5 -5q2 -6 2 -49v-71q0 -46 -2.5 -58.5t-13.5 -12.5l-22 3q-22 3 -56 6.5t-62 3.5q-6 0 -90.5 -6t-88.5 -8q-13 -5 -49 -5q-52 0 -62 7q-6 5 -7.5 19t-1.5 69q0 56 5 61q2 2 2 5q0 4 -4 16t-4 18q0 4 1 6q2 5 3 21t2 38.5t3 35.5l3 21l60 2
q80 1 87 6q3 2 25.5 6t26.5 7q5 5 98 5q15 0 22 -0.5t23 -0.5h6q7 0 17.5 0.5t22.5 1t24.5 0.5h21.5z" />
</svg>
