<?xml version="1.0" standalone="no"?>
<!DOCTYPE svg PUBLIC "-//W3C//DTD SVG 1.1//EN" "http://www.w3.org/Graphics/SVG/1.1/DTD/svg11.dtd" >
<svg xmlns="http://www.w3.org/2000/svg" xmlns:xlink="http://www.w3.org/1999/xlink" version="1.1" viewBox="-10 0 873 1000">
   <path fill="currentColor"
d="M433 478q-4 0 -21 26t-17 31q0 3 -2.5 5t-8 9t-10.5 20q-15 36 -20 46q-9 19 -9 26q0 2 1 4v2q0 2 -2 4q-2 3 -5 21t-11 32.5t-24 14.5q-19 0 -40 -14t-21 -26q0 -6 8 -14.5t8 -13.5t5.5 -10.5t8.5 -12.5q6 -13 33 -62t50.5 -92.5t23.5 -48.5t-8 -5q-22 0 -108 6.5
t-102 6.5q-25 0 -44 -3t-29 -6.5t-16 -7.5t-7.5 -6.5t-1.5 -3.5q0 -8 7.5 -21t13.5 -15q28 -10 163 -10h11q75 0 75 -5t-13.5 -20t-18.5 -15t-5 -8q0 -9 -13 -20q-8 -7 -23.5 -25t-27.5 -30.5t-16 -12.5h-4.5t-0.5 -4q0 -8 -7 -8t-7 -12q0 -15 8.5 -25.5t22.5 -10.5t34.5 17
t34 34t13.5 19q0 4 29 42t37 45q6 5 11 13t9 13t7 5q7 0 17.5 -12.5t17.5 -25t8 -12.5q2 0 15.5 -25t32.5 -60.5t32 -54.5q13 -18 13 -24q0 -5 17 -19.5t28 -14.5q6 0 9 5q2 3 12.5 8.5t10.5 15.5t-5 19t-13.5 18t-24 31t-30.5 51q-14 25 -29.5 47.5t-23 33t-7.5 13.5
q0 5 11.5 9t17.5 0q8 -5 116 -8t121 -7q8 -2 12 -2q15 0 25 9.5t10 22.5q0 25 -29.5 32.5t-91.5 7.5h-16q-67 0 -115.5 6.5t-54.5 6.5q-14 0 -14 6q0 10 30 43t30 38q0 4 18.5 23t19.5 25q1 5 4 7t6.5 1.5t6.5 2t3 8.5t22.5 29t22.5 27q0 6 4 6q5 0 6.5 12t-2.5 22
q-5 11 -15.5 11.5t-20 -5t-19.5 -11.5t-13 -6q-6 0 -20 -12q-9 -7 -10 -10.5t-1 -16.5q0 -10 -8 -25t-13 -15q-2 0 -7.5 -7.5t-17 -22t-23.5 -27.5q-11 -11 -22.5 -24.5t-16 -18.5t-7.5 -5z" />
</svg>
