<?xml version="1.0" standalone="no"?>
<!DOCTYPE svg PUBLIC "-//W3C//DTD SVG 1.1//EN" "http://www.w3.org/Graphics/SVG/1.1/DTD/svg11.dtd" >
<svg xmlns="http://www.w3.org/2000/svg" xmlns:xlink="http://www.w3.org/1999/xlink" version="1.1" viewBox="-10 0 533 1000">
   <path fill="currentColor"
d="M88 44q14 0 37.5 22t40.5 43t17 23q0 3 8 11t20 20.5t19 21.5q11 15 55.5 62t52.5 52t8 9t46.5 46t55.5 47q10 5 8 24q-2 20 -20.5 37t-18.5 21q0 3 -30 25.5t-31 22.5q-5 0 -5 6t-10.5 16.5t-15.5 10.5q-6 0 -6 5q0 4 -7 4q-4 0 -10 10.5t-17 14.5q-13 5 -13 11
q0 7 -4 7t-19.5 15t-35.5 36t-28 28q-33 29 -33 43q0 15 -11.5 24t-19 10t-14.5 1q-14 0 -27 -8.5t-16 -9.5q-7 -3 -7 -13q0 -12 9.5 -26.5t22.5 -21.5q13 -6 32.5 -27.5t25.5 -26.5q22 -19 45 -43t23 -27t11.5 -12.5t31.5 -26t34 -30.5q78 -79 78 -86q0 -2 -13.5 -14.5
t-29.5 -26t-18 -15.5q-37 -40 -37 -44q0 -3 -47 -50t-47 -51q0 -3 -16.5 -14.5t-16.5 -18.5t-43.5 -47.5t-43.5 -51.5q0 -12 9 -25t21 -13z" />
</svg>
