<?xml version="1.0" standalone="no"?>
<!DOCTYPE svg PUBLIC "-//W3C//DTD SVG 1.1//EN" "http://www.w3.org/Graphics/SVG/1.1/DTD/svg11.dtd" >
<svg xmlns="http://www.w3.org/2000/svg" xmlns:xlink="http://www.w3.org/1999/xlink" version="1.1" viewBox="-10 0 943 1000">
   <path fill="currentColor"
d="M394 702q0 -6 2 -20t2 -22q0 -11 -5 -11q-1 0 -9.5 4t-14 5t-9.5 -4q-3 -9 -165 -12q-39 -1 -55 -1.5t-22.5 -3t-12.5 -7.5q-11 -11 -11 -22q0 -9 9 -21.5t26 -12.5q3 0 34 2.5t79 5t92 2.5q56 0 60 -4q3 -3 1 -23l-3 -20l-45 -6q-37 -5 -98 -5.5t-102 -2t-50 -8.5
q-2 -2 -5 -4.5t-5 -4t-3 -1.5l1 -2.5t3 -6t4.5 -7.5t4 -8.5t1.5 -6.5q0 -16 30 -16q18 0 138 8t127 8q17 0 27.5 -7t24.5 -7q34 0 34 34q0 13 -3.5 21.5t-7.5 12t-4 4.5t1 2t1 3q0 1 -2.5 8t-5 22.5t-2.5 38.5q0 25 2.5 42.5t5.5 23.5l5 10t2 6l-1 6v-1q-1 -2 -2 2l-1 23
q0 11 -10.5 17t-25.5 6q-37 0 -37 -39zM851 616q0 14 0.5 26t1 21t0.5 16.5t0.5 12.5t1 8.5t0.5 5v1.5q0 13 -7 20.5t-13.5 9t-12.5 1.5q-7 0 -16 -3.5t-17.5 -14t-8.5 -25.5q0 -26 6 -40.5t6 -18.5q0 -8 -5.5 -9.5t-41.5 -3.5h-6q-5 0 -35.5 6t-81.5 6q-33 0 -47 -3
q-6 -2 -12.5 -8.5t-10.5 -15t-4 -16.5q0 -6 2 -11.5t9 -11.5t19 -6q6 0 29 3t44.5 3t40.5 -4.5t52 -5.5l42 -1l-3 -27q-2 -21 -2.5 -24.5t-3.5 -3.5q-12 0 -73.5 7t-84.5 7q-5 0 -13 -1t-21 -4.5t-22 -12t-9 -20.5q0 -8 5 -15t14 -11.5t21 -4.5q3 0 37.5 5t62.5 5
q38 0 66.5 -5.5t43.5 -11t21 -5.5q31 0 31 34v4t-0.5 11.5t-1 17.5t-1 23t-1 27t-1 30.5t-0.5 32.5zM499 221q0 -14 15 -41t15 -33q0 -7 21 -27t27 -20q4 0 28.5 -10.5t42.5 -10.5q22 0 63 13.5t50 21.5q9 7 19 11q9 2 22 23.5t16 38.5q2 8 4 12.5t3.5 5.5t2 4t0.5 9
q0 23 -9.5 60.5t-17.5 37.5q-2 0 -5 6t-9.5 15t-17.5 19t-34.5 18.5t-55.5 12.5q-30 3 -43 3q-27 0 -53 -22t-39 -42t-13 -24q0 -2 -8 -18t-8 -22q0 -7 -4 -7t-8 -11t-4 -23zM701 151q-3 -1 -8 -4q-9 -4 -11 -4t-5 4q-4 6 -27 3q-1 0 -4.5 -0.5t-5.5 -0.5q-17 0 -36 6
t-29 15q-14 12 -14 46q0 24 20.5 58.5t38.5 44.5q17 9 42.5 9t55 -16.5t41.5 -40.5l11 -21l-9 -36q-6 -28 -15.5 -38t-44.5 -25zM350 223q14 0 17.5 -4.5t3.5 -14.5v-7q0 -53 -13 -53l-2 0.5t-7.5 1t-13 1.5t-20.5 1.5t-29 1t-40 1t-52 0.5q-42 0 -61.5 -7.5t-19.5 -28.5
q0 -17 13 -28.5t23 -11.5h2q17 5 42 7t41.5 2.5t18.5 2.5q2 3 31 3q20 0 51 -1t53.5 -2.5l22.5 -1.5q13 0 22.5 12t9.5 29l-4 35q-5 35 -5 74v20q0 9 -0.5 14.5t-3 14t-9.5 13t-18 4.5q-4 0 -29.5 -4.5t-38.5 -4.5q-10 0 -17.5 -2.5t-17.5 -5t-27 -2.5q-19 -1 -32 -5.5
t-31 -4.5q-17 0 -22 4t-5 22l2 20l30 6q66 14 116 14q32 0 63 -6q11 -2 17.5 -0.5t16.5 9.5q11 8 14 14t3 17q0 18 -9.5 24t-45.5 6q-28 0 -139.5 -3t-114.5 -7q-3 -3 -15 -10q-15 -8 -15 -34l2 -21q4 -2 4 -20q0 -22 -5.5 -47t-5.5 -26q0 -2 1 -3q37 -27 44 -27h1
q1 0 48.5 5t98 9.5t56.5 4.5z" />
</svg>
