<?xml version="1.0" standalone="no"?>
<!DOCTYPE svg PUBLIC "-//W3C//DTD SVG 1.1//EN" "http://www.w3.org/Graphics/SVG/1.1/DTD/svg11.dtd" >
<svg xmlns="http://www.w3.org/2000/svg" xmlns:xlink="http://www.w3.org/1999/xlink" version="1.1" viewBox="-10 0 930 1000">
   <path fill="currentColor"
d="M495 283q0 -29 16 -57t35 -28q9 0 22 -3.5t20 -3.5q34 0 44 19q19 35 19 59q0 13 -11 29.5t-22 19.5q-13 3 -19 14.5t-7 25t-9.5 34.5t-24.5 39q-24 25 -33 32.5t-20 9.5q-14 3 -23 9t-20 6q-9 0 -16 -1q-64 -8 -82 -17.5t-64 -55.5q-17 -17 -21.5 -32.5t-6 -26
t-13.5 -18.5q-35 -23 -35 -84q0 -54 36 -54q10 0 19 -4.5t13 -4.5q25 0 55.5 31t30.5 62q0 20 -19 43.5t-19 27.5t8.5 17.5t28.5 28.5t42 17l32 4q13 0 35.5 -11.5t27.5 -21.5q6 -9 9 -11q8 -15 8 -27q0 -9 -9 -13t-9 -9q0 -7 -9 -18.5t-9 -26.5zM319 276q0 -8 -7.5 -19
t-18.5 -11q-8 0 -15.5 5.5t-7.5 13.5q0 9 10.5 16t25.5 7q13 0 13 -12zM588 260q0 -5 -14 -5q-10 0 -12 2t-2 12q0 14 6 14t14 -8.5t8 -14.5zM127 769q0 -16 22 -26t34 -10q7 0 14.5 5t45.5 5q24 0 69 -1.5t70 -1.5q34 0 65 3.5t77 3.5q7 0 23 -0.5t33 -0.5t33 -0.5t27 -1.5
h11q47 0 66 9.5t19 40.5q0 19 -7 24t-23 5q-10 0 -30 -4.5t-95 -5.5q-83 -1 -122.5 -8.5t-47.5 -7.5t-27.5 4.5t-37.5 4.5q-9 0 -23.5 -2t-21.5 -2q-11 0 -27.5 4.5t-23.5 4.5q-6 0 -14 -3q-9 -3 -38.5 -4.5t-50 -8.5t-20.5 -26zM119 327q0 -5 -10 -24t-20 -54.5t-10 -82.5
q0 -22 8.5 -43.5t10.5 -34.5q4 -19 11 -30q6 -10 31.5 -31.5t35.5 -25.5q9 -4 9 -8q0 -3 15.5 -5.5t32 -4t18.5 -3.5q1 -1 6 -1q7 0 22.5 1t39 7.5t26.5 17.5q2 7 17.5 13t24.5 15q22 22 26 25q6 5 10.5 11t6.5 10t4 4q3 0 13 -10.5t16 -10.5q4 0 7 -3t11.5 -9t21.5 -12
q14 -7 33.5 -21.5t29.5 -15.5q2 0 31.5 -7.5t102.5 -7.5q51 0 56 3q27 15 51 48.5t35 71.5q6 20 6 80q0 45 -8.5 74.5t-17.5 44t-9 23.5q0 20 -18.5 39t-18.5 24t-28.5 34t-28.5 32q0 2 -7 10t-7 13q0 8 -27 40t-34 32q-2 0 -2.5 0.5t-2 3.5t-3.5 6.5t-8 11.5t-14 17
q-21 23 -21 27q0 5 34 5q61 1 77.5 6.5t24.5 28.5q6 17 -4 23q-10 7 -10 14q0 6 -13 6q-12 0 -28 -3.5t-19 -6.5q-6 -5 -58 -7t-55 -3h-1q-4 0 -20 19t-25 19q-21 0 -39 -12t-42 -15t-149 -11q-9 -1 -21 -1q-18 0 -24 5t-14 5q-10 0 -29.5 -8.5t-30.5 -9.5q-32 -3 -32 -34
q0 -16 7 -16q6 0 12.5 -9.5t17.5 -9.5q2 0 57 5.5t94 5.5q25 0 25 -4q0 -7 -12 -30t-20 -31q-17 -17 -27 -31t-12.5 -18.5t-5.5 -4.5q-5 0 -5 -7t-4 -7q-3 0 -7.5 -9t-9.5 -9q-7 0 -7 -8q0 -6 -21 -30t-21 -26q0 -3 -28.5 -35t-28.5 -40zM743 68q0 -18 -95 -18q-20 0 -39 8
t-31 17t-14 9q-10 1 -35.5 14.5t-34.5 21.5q-7 7 -21.5 32.5t-29.5 45t-29 19.5q-27 0 -27 -34q0 -12 -5 -20t-7 -23q-5 -34 -44 -59t-61 -25q-21 0 -47.5 6t-36.5 15q-5 4 -17 28.5t-12 30.5q0 3 -6 16t-6 21q0 17 10.5 46t10.5 31q10 35 17 39q7 3 7 8q0 6 25.5 40.5
t32.5 38.5q8 4 24.5 33t19.5 32q6 6 6 12q0 5 9 13.5t14 8.5t5 6q0 5 18.5 20t18.5 19t14 26.5t14 24.5q0 5 26 29q18 18 25.5 21.5t26.5 3.5q18 0 25.5 -3t21.5 -18q21 -21 21 -24q0 -4 26 -31t57.5 -61.5t41.5 -55.5q13 -27 18 -27q4 -1 30.5 -35t30.5 -43l3 -5
q3 -4 7 -11t8 -15.5t7 -19t3 -19.5q0 -15 6 -21q10 -10 10 -30q0 -14 -3 -23.5t-4 -30.5q-1 -26 -8.5 -38t-7.5 -15q0 -5 -9.5 -16.5t-9.5 -14.5z" />
</svg>
