<?xml version="1.0" standalone="no"?>
<!DOCTYPE svg PUBLIC "-//W3C//DTD SVG 1.1//EN" "http://www.w3.org/Graphics/SVG/1.1/DTD/svg11.dtd" >
<svg xmlns="http://www.w3.org/2000/svg" xmlns:xlink="http://www.w3.org/1999/xlink" version="1.1" viewBox="-10 0 903 1000">
   <path fill="currentColor"
d="M237 680q0 -20 14.5 -39t31.5 -19q18 0 38 20.5t7 46.5q-12 27 -53 27q-16 0 -25.5 -8.5t-11 -15t-1.5 -12.5zM629 603q34 0 34 61q0 11 -8 23.5t-15 12.5q-6 0 -16 5.5t-16 5.5q-14 0 -34 -17.5t-20 -28.5q0 -2 0.5 -5.5t3.5 -12t7.5 -15.5t14 -14t22.5 -10q25 -5 27 -5
zM150 471q-20 0 -32 -2.5t-17 -9.5t-6 -12.5t-1 -17.5q0 -11 3.5 -16.5t15.5 -17.5q15 -15 25 -15q16 0 45.5 18t29.5 34q0 19 -18 27q-25 12 -45 12zM483 430q0 7 -2 16t-9.5 19.5t-20.5 10.5q-9 0 -24 -4.5t-17 -6.5q-2 -3 -15.5 -10t-24.5 -17.5t-11 -23.5
q0 -11 6.5 -19.5t14.5 -12.5t18 -6t14.5 -2.5t6.5 -0.5q7 0 13 4t16 4q15 0 25 15t10 34zM698 422q0 -19 22.5 -39t40.5 -20q4 0 10.5 1.5t17 13.5t10.5 33q0 23 -13 36q-14 14 -36 14q-17 0 -33 -6.5t-17 -13.5q-2 -14 -2 -19zM565 142q0 -7 13.5 -14.5t27.5 -7.5
q13 0 26.5 11t16.5 11q5 0 5 12q0 8 4 13t4 10q0 18 -11 34q-11 17 -65 17q-44 0 -44 -30q0 -17 11.5 -35t11.5 -21zM263 231q-14 0 -25 -13t-11 -37q0 -20 8 -36t20 -19q9 -2 19 -7t13 -5q7 0 24.5 23t17.5 38q0 24 -23 40t-43 16z" />
</svg>
