<?xml version="1.0" standalone="no"?>
<!DOCTYPE svg PUBLIC "-//W3C//DTD SVG 1.1//EN" "http://www.w3.org/Graphics/SVG/1.1/DTD/svg11.dtd" >
<svg xmlns="http://www.w3.org/2000/svg" xmlns:xlink="http://www.w3.org/1999/xlink" version="1.1" viewBox="-10 0 406 1000">
   <path fill="currentColor"
d="M101 306q19 0 48 35.5t29 44.5q0 4 2.5 6t7 0t8.5 -6q7 -7 13 -10q3 -1 16.5 -21t31 -38.5t31.5 -18.5q10 0 22.5 11.5t12.5 22.5q0 35 -13 35q-7 0 -43.5 39.5t-36.5 44.5q0 4 -21 23.5t-25 19.5q-6 0 -22.5 -8t-20.5 -13q-3 -3 -12.5 -35t-34.5 -60q-8 -9 -15.5 -23.5
t-7.5 -22.5q0 -6 9.5 -16t20.5 -10z" />
</svg>
