<?xml version="1.0" standalone="no"?>
<!DOCTYPE svg PUBLIC "-//W3C//DTD SVG 1.1//EN" "http://www.w3.org/Graphics/SVG/1.1/DTD/svg11.dtd" >
<svg xmlns="http://www.w3.org/2000/svg" xmlns:xlink="http://www.w3.org/1999/xlink" version="1.1" viewBox="-10 0 789 1000">
   <path fill="currentColor"
d="M337 115q0 -7 26 -10.5t43 -3.5q53 0 53 14q0 3 9 3q7 0 39 15q22 12 28 17.5t11 20.5q6 18 6 41q0 2 -0.5 7.5t-0.5 8.5q-2 39 -6 46.5t-24 17.5q-24 10 -24 16t10 21q27 40 27 56q0 10 7 15q6 4 19 27q12 20 18.5 26.5t16.5 6.5h6q11 0 21 7.5t10 15.5q0 6 8 6
q18 0 44 36t26 60q0 8 -5 26q-14 50 -34.5 64.5t-75.5 14.5q-45 0 -49 -4q-2 -5 -11 -5q-5 0 -25 -9.5t-25 -9.5q-8 0 -14 -11q-16 -25 -118 -29l-61 -3l-6 14q-7 16 -29 30q-23 15 -56 15q-31 0 -57 -9q-34 -12 -44 -19t-14 -20q-2 -7 -6 -16t-6.5 -17t-2.5 -20
q0 -51 17 -82q7 -13 25 -23.5t37 -10.5q2 0 8 0.5t10 0.5l36 1l17 -33q6 -11 11.5 -23.5t8.5 -17t9 -11.5t17 -16q20 -17 32 -49l13 -33l-10 -13q-9 -12 -9 -56q0 -31 1.5 -40t10.5 -20q13 -17 13 -25q0 -7 10 -7q9 0 9 -4zM478 241q0 -3 8.5 -13t8.5 -15q0 -18 -19 -24
q-12 -4 -21 -18q-18 -23 -55 -23q-18 0 -37.5 16.5t-19.5 32.5q0 31 33 47q30 14 47 14q8 0 24 -6.5t22 -6.5q9 0 9 -4zM520 493q0 -3 -11.5 -20t-11.5 -21q0 -8 -5 -13q-7 -7 -40 -70q-18 -34 -25 -41q-11 -10 -31 -10q-16 0 -28 6.5t-12 17.5t-5 11t-7 9q-2 8 -26 34
q-20 22 -35.5 47t-15.5 35q0 9 9 18q9 7 17 29q7 18 20 23.5t50 5.5q6 0 20 -0.5t21 -0.5q43 0 50 3q8 2 11.5 -0.5t9.5 -15.5q9 -19 27 -31q18 -13 18 -16zM131 556q0 12 20.5 31.5t37.5 19.5q33 0 47 -19q12 -16 12 -35q0 -13 -6 -18.5t-23 -6.5q-8 0 -19.5 -2t-16.5 -2
q-9 0 -22 8t-15 14q-2 4 -9 4q-6 0 -6 6zM583 542q-7 0 -18 5t-15 5q-6 0 -18 11.5t-12 17.5q0 4 5 17l7 20l45 4q12 1 32 1q25 0 35 -8.5t10 -32.5q0 -9 -1 -14l-3 -22h-24q-7 0 -22 -2t-21 -2z" />
</svg>
