<?xml version="1.0" standalone="no"?>
<!DOCTYPE svg PUBLIC "-//W3C//DTD SVG 1.1//EN" "http://www.w3.org/Graphics/SVG/1.1/DTD/svg11.dtd" >
<svg xmlns="http://www.w3.org/2000/svg" xmlns:xlink="http://www.w3.org/1999/xlink" version="1.1" viewBox="-10 0 853 1000">
   <path fill="currentColor"
d="M638 253q0 4 -2.5 14.5t-12.5 24.5t-26 14q-9 0 -15 -1q-26 -3 -32 -6.5t-7 -13.5q-2 -11 -4.5 -18t-2.5 -10q0 -10 10 -23t14 -14q6 -2 21 -2q25 0 41 9.5t16 25.5zM401 245q10 -27 32 -27q37 1 43 7q14 14 14 55q0 26 -25 26q-15 0 -30 -11.5t-16 -11.5q-2 0 -10 -16.5
t-8 -21.5zM326 265v5.5t-1.5 11.5t-4.5 14.5t-9 12t-14 5.5q-21 0 -41.5 -28.5t-20.5 -45.5q0 -29 49 -29q14 0 16 3l13 20q13 20 13 31zM172 615q0 20 7.5 29t7.5 21q0 15 -9 28.5t-18 13.5q-1 0 -4.5 -1t-10 -2t-13.5 -1q-15 -1 -19.5 -9.5t-4.5 -36.5q1 -40 1 -41
q0 -36 -4 -44q-5 -8 -5 -161v-18.5v-14t0.5 -9.5t0.5 -6v-2q0 -3 -0.5 -19t-1.5 -41.5t-1 -48.5l-3 -103l-13 -11q-16 -15 -16 -28q0 -4 1.5 -9t12.5 -12t29 -7h17q18 1 38.5 1.5t27.5 0.5q23 0 40 -2.5t53 -2.5q37 0 78 2t74 4.5t60 5t43 4.5l16 2q7 0 17.5 -3t31.5 -3h18
q25 0 46 -6.5t30 -6.5q15 0 26.5 13.5t11.5 30.5q0 6 -2 14.5t-2 14.5q0 7 2.5 14t2.5 9t-2.5 6t-5 12.5t-2.5 19.5q0 7 4 17t4 28q0 17 -5 38t-5 40q0 22 6.5 47.5t6.5 40.5t-4 23t-4 19q0 27 16.5 120.5t16.5 115.5q0 21 -33 21q-30 0 -37 -11.5t-9 -60.5q-2 -66 -2 -70
q0 -8 -4.5 -41.5t-7.5 -33.5q-9 0 -30 8.5t-27 8.5l-32 8q-33 7 -65 7q-9 0 -14.5 -1.5t-6.5 -3t-2.5 -1.5t-2.5 2q-3 3 -3.5 99t-6.5 103q-5 6 -21 6q-20 0 -33 -8l-13 -7l3 -73v-15v-30q0 -29 -2 -51.5t-2 -23.5q0 -5 1.5 -10t1.5 -9q0 -6 -6 -13t-19.5 -20t-23.5 -25
q-17 -20 -32 -29.5t-23 -11t-22 -1.5q-21 0 -39.5 6.5t-18.5 13.5q0 4 -6 4q-5 0 -30.5 25.5t-28.5 25.5q-5 0 -5 28q0 24 5 47.5t5 40.5v10zM665 317q0 -4 4 -13t4 -19q0 -14 -6 -20t0 -6t4 -5q-6 -29 -6 -47q0 -13 4 -13q5 0 1 -5q-1 -2 -2 -3t-2 -3t-1.5 -4t-0.5 -4
q0 -16 -24 -22t-56 -6.5t-38 -2.5q-1 -1 -139 -4.5t-144 -3.5q-10 0 -44 8t-39 8q-9 0 -9 13q0 10 -7.5 24t-7.5 52q0 66 1 107l1 58l17 -3q14 -2 44.5 -27.5t59.5 -25.5q48 0 81.5 16.5t69.5 52.5q27 27 46.5 35.5t56.5 8.5q52 0 68 -3.5t42 -19.5l32 -19l-1 -35
q-1 -24 -5 -45t-4 -24z" />
</svg>
