<?xml version="1.0" standalone="no"?>
<!DOCTYPE svg PUBLIC "-//W3C//DTD SVG 1.1//EN" "http://www.w3.org/Graphics/SVG/1.1/DTD/svg11.dtd" >
<svg xmlns="http://www.w3.org/2000/svg" xmlns:xlink="http://www.w3.org/1999/xlink" version="1.1" viewBox="-10 0 812 1000">
   <path fill="currentColor"
d="M93 335q0 -21 19 -31t72.5 -15t158.5 -5h93q31 0 60.5 -0.5t51.5 -0.5t41 -0.5t32 -1.5t22 -1h14l5 -1q23 0 35 12t12 39q0 32 -7.5 78.5t-7.5 76.5q0 15 5.5 48.5t7.5 65.5q2 44 11.5 62t9.5 24q0 4 -1 9t-10 14t-25 9q-24 0 -36.5 -18t-12.5 -36q0 -34 -4.5 -41.5
t-4.5 -16.5q0 -3 1 -6.5t1 -4.5q0 -2 -7.5 -10t-7.5 -15q0 -6 -11.5 -21t-37 -30.5t-55.5 -15.5q-26 0 -37 5t-12 5q-6 0 -23 17.5t-17 31.5q0 7 1.5 20t3 27t3.5 27t4 21l1 9q0 9 -11.5 17t-25.5 8q-16 0 -26 -11.5t-10 -30.5v-17l-20 7q-18 6 -48 6q-27 0 -50.5 -5.5
t-33.5 -11t-11 -7.5q-1 -4 -8 -4q-4 0 -4 24q0 15 1.5 25t3.5 13.5t3.5 6t1.5 3.5t-1 2q-2 4 -1.5 7t2 8t1.5 8q0 14 -12 26t-25 12q-10 0 -21.5 -7.5t-11.5 -13.5q0 -4 -5.5 -7t-1.5 -9q5 -7 5 -89q0 -72 -6 -97.5t-8 -59.5q-3 -56 -8 -59q-4 -3 -4 -6q0 -2 1.5 -7t1.5 -9
q0 -11 -7 -19q-9 -16 -9 -33zM360 515q0 -14 -2.5 -44t-2.5 -40q0 -23 7 -31.5t24 -8.5q18 0 25.5 8.5t7.5 28.5q0 35 1 36q3 3 17 -8q10 -8 29.5 -13.5t31.5 -7t15 -1.5q16 0 38.5 4.5t22.5 8.5q0 5 7 5q5 0 23.5 8.5t22.5 8.5q3 0 4.5 -12t2.5 -36.5t3 -40.5q2 -21 -6 -26
q-8 -4 -204 -4q-54 0 -149 4.5t-102 6.5q-4 1 -6 2t-2.5 3.5t0 5.5t1.5 11l1 7q1 6 2 16t2 22t2 24.5t1 22.5q0 35 39 72q16 16 32 22t54 6q12 0 18.5 -3.5t18.5 -16.5q21 -22 21 -40zM116 175q-3 0 -24 -19t-21 -25q0 -4 7.5 -13.5t12.5 -12.5q7 -5 11 -4.5t17 9.5
q50 31 68.5 46.5t32.5 38.5q6 12 5.5 14.5t-4 7t-3.5 10.5q0 10 -10 10q-9 0 -23 -7.5t-18 -14.5q-5 -9 -25 -24.5t-26 -15.5zM595 48q8 0 16.5 -11.5t19.5 -11.5q12 0 26 10.5t14 22.5q0 11 -17 27.5t-42.5 35t-31.5 24.5q-16 15 -28 22t-15 10q-5 8 -23 8q-19 0 -19 -22
q0 -18 37 -54.5t37 -39.5q0 -6 9.5 -13.5t16.5 -7.5zM314 147q0 -7 6 -26t6 -31q0 -6 -2 -15t-2 -12t3 -7q2 -1 2 -10v-15q0 -39 33 -39q31 0 31 41q0 19 -11 83q-6 31 -11.5 42.5t-16.5 11.5q-38 -2 -38 -23z" />
</svg>
