<?xml version="1.0" standalone="no"?>
<!DOCTYPE svg PUBLIC "-//W3C//DTD SVG 1.1//EN" "http://www.w3.org/Graphics/SVG/1.1/DTD/svg11.dtd" >
<svg xmlns="http://www.w3.org/2000/svg" xmlns:xlink="http://www.w3.org/1999/xlink" version="1.1" viewBox="-10 0 831 1000">
   <path fill="currentColor"
d="M421 713q-116 0 -145 5t-54 5h-28.5t-24.5 0.5t-18 1t-13 0.5h-4q-23 0 -40 -18l-16 -18l8 -24q8 -22 10.5 -80t3 -107t3.5 -52q2 -2 2 -28l-1 -33q-1 -33 -2 -81t-1 -80l-1 -101l26 -26l86 3q55 2 97 2h4q4 0 11.5 -0.5t18.5 -0.5h28t37.5 -0.5t50 -0.5h61.5h20.5
t24.5 0.5t22 1t17 0.5h7q19 0 33.5 -1.5t20 -3t9.5 -3t7 -1.5q2 0 10 2t11 2q7 0 14.5 19t7.5 35q0 6 -2 12.5t-2 11.5t2.5 19.5t2.5 38.5q0 15 -1.5 41t-3.5 52.5t-4 50.5t-4 40l-1 16q0 5 1 12t1 14q0 12 -1 21q0 2 -0.5 7t-0.5 8q0 36 7.5 92t16.5 80q10 26 4 32
q-3 4 -2 10.5t-3 9.5q-9 8 -123.5 11.5t-160.5 3.5zM647 489q0 -19 2 -53.5t4.5 -69.5t5.5 -67.5t5 -54.5l2 -21q0 -11 -5 -24.5t-7 -29.5l-4 -22l-40 -1q-53 -1 -275 -1q-145 0 -151 1q-13 1 -16 12q-6 21 -6 184q0 29 0.5 56.5t1 46t0.5 32v21.5l1 7q0 14 -5.5 43t-5.5 73
q0 21 9 26t54 5q35 0 35 -3q0 -2 50 -2h33.5t28.5 0.5t23 1t18.5 1t12.5 1t8 0.5h3q19 0 59.5 -5.5t64.5 -5.5q6 0 13 0.5t14 0.5q26 0 55.5 -4.5t29.5 -8.5q0 -2 -9 -53.5t-9 -85.5z" />
</svg>
