<?xml version="1.0" standalone="no"?>
<!DOCTYPE svg PUBLIC "-//W3C//DTD SVG 1.1//EN" "http://www.w3.org/Graphics/SVG/1.1/DTD/svg11.dtd" >
<svg xmlns="http://www.w3.org/2000/svg" xmlns:xlink="http://www.w3.org/1999/xlink" version="1.1" viewBox="-10 0 730 1000">
   <path fill="currentColor"
d="M213 177q0 -18 16 -35t16 -22q0 -6 15 -17.5t22 -11.5q5 0 5 -5q0 -4 2.5 -4t14.5 4q14 5 24 23l11 19l-11 14q-10 14 -13 14q-1 0 -10 7t-18.5 18t-9.5 19q0 7 -2 10t-12 13.5t-23 29.5q-13 21 -29 39t-24 27.5t-8 18.5q0 4 41 4h28h30.5t27.5 0.5t21 0.5h8h77
q8 0 34.5 2.5t42.5 2.5q53 0 62 -9q7 -6 9 -157l2 -70l19 -10q16 -8 26 -8q13 0 13 8q0 4 5.5 8t5.5 21q0 5 -7 76t-7 154q0 7 2 69.5t6 136.5t7 88l3 15q0 33 -24 33q-30 0 -46 -11q-8 -5 -9.5 -9.5t0.5 -17.5q4 -26 4 -77q0 -62 -5 -132q-1 -23 -3 -28t-11 -6q-4 -1 -7 -1
t-5.5 0.5t-4.5 1.5t-3.5 2t-2.5 1.5t-1.5 0t-0.5 -1.5q0 -3 -120.5 -7.5t-135.5 -4.5q-10 0 -48 2q-22 2 -30 5t-8 11q0 7 19.5 38t28.5 40q6 5 6.5 11t-1 8t2.5 3q5 0 5 5q0 6 8 22.5t18 33t16 21.5q11 9 12.5 17.5t10.5 21.5q15 21 15 40q0 13 -4.5 19.5t-9 7.5t-13.5 1
q-17 0 -28 -4t-15.5 -10.5t-6 -10.5t-1.5 -8v-4q1 -3 1 -6t-3 -4t-8.5 -7.5t-11.5 -20.5q-5 -15 -12 -25.5t-11 -15t-4 -7.5t-16.5 -22t-16.5 -23q0 -3 -3.5 -8t-9.5 -13.5t-10 -18.5q-4 -12 -21 -33.5t-17 -26.5q0 -3 -5.5 -6t-10.5 -7.5t-4 -10.5q2 -6 -3 -11.5t-5 -11.5
t-3.5 -9t-3.5 -4.5t6 -12.5q11 -15 11 -22q0 -5 1.5 -7t7.5 -8t12 -17q8 -13 23.5 -30.5t19.5 -26.5q6 -13 10 -13q3 0 29 -35.5t30 -37.5q4 -1 4 -5z" />
</svg>
