<?xml version="1.0" standalone="no"?>
<!DOCTYPE svg PUBLIC "-//W3C//DTD SVG 1.1//EN" "http://www.w3.org/Graphics/SVG/1.1/DTD/svg11.dtd" >
<svg xmlns="http://www.w3.org/2000/svg" xmlns:xlink="http://www.w3.org/1999/xlink" version="1.1" viewBox="-10 0 689 1000">
   <path fill="currentColor"
d="M110 602q3 0 31 -26t32 -26q5 0 5 -7t4 -7q5 0 5 -8q0 -6 12.5 -22.5t16.5 -16.5q3 0 31.5 -29t28.5 -32q0 -1 -8.5 -5t-23.5 -12t-27 -19q-25 -23 -44 -39q-32 -27 -44 -48.5t-27 -77.5q-4 -16 -4.5 -24t-2.5 -13q-9 -23 -9 -56q0 -10 18 -27l19 -18l52 3q45 3 69.5 5.5
t29.5 4t21.5 2.5t54.5 1h14q14 0 34.5 -0.5t42.5 -1t42 -0.5h30q32 0 45.5 1.5t27.5 11.5t25 31q11 24 5 26q-2 0 -8.5 6t-14.5 22t-8 36q0 21 -7 34.5t-7 18.5q0 9 -15 39q-15 29 -49 52t-34 29q0 3 -3.5 3t-11.5 -0.5t-20 2.5q-26 7 -6 25q4 3 14.5 24t14.5 24q3 2 9 12
t15 25.5t18 26.5q14 19 14 21q0 5 15 29.5t23 31.5q12 10 12 16q0 4 12.5 19t12.5 27q0 8 -7 19l-10 13l-111 -2h-47q-51 0 -78 4t-90 4q-76 0 -96 -4.5t-25 -20.5q-3 -9 -19 -9q-15 0 -32 -10.5t-17 -19.5q0 -13 20 -40.5t30 -27.5zM206 290q0 3 15.5 21.5t49 38.5t70.5 20
q21 0 49 -8t38 -18t20 -10q11 0 31.5 -19t25.5 -35q8 -25 14 -49.5t8 -28.5q4 -9 -1 -19q-3 -7 -18.5 -8.5t-86.5 -2.5q-25 0 -58.5 -1.5t-63.5 -3.5t-56 -4t-42 -3l-16 -2q-17 0 -20.5 2.5t-3.5 10.5q0 17 7 49q8 40 27 55q11 9 11 15zM443 651h25q21 0 21 -8
q0 -7 -21 -37.5t-26 -33.5q-7 -5 -7 -10q0 -4 -9.5 -16.5t-11.5 -22.5t-18.5 -23t-16.5 -22q0 -17 -10 -17q-9 0 -44 23.5t-35 27.5q0 2 -7.5 9.5t-19.5 20.5t-20 24q-14 20 -39 46t-32 28q-9 4 -9 10q0 14 120 14q85 0 115 -6.5t45 -6.5z" />
</svg>
