<?xml version="1.0" standalone="no"?>
<!DOCTYPE svg PUBLIC "-//W3C//DTD SVG 1.1//EN" "http://www.w3.org/Graphics/SVG/1.1/DTD/svg11.dtd" >
<svg xmlns="http://www.w3.org/2000/svg" xmlns:xlink="http://www.w3.org/1999/xlink" version="1.1" viewBox="-10 0 746 1000">
   <path fill="currentColor"
d="M67 548q0 -10 10.5 -24.5t29.5 -14.5q26 0 60 5.5t45 5.5q24 1 87 4t76 3q12 0 27 -2t20 -2q9 0 19 4.5t14 3.5q3 -1 75 -2t88 -7t29 2q19 13 19 32q0 31 -37 31h-5q-4 0 -12 -0.5t-18.5 -0.5h-25h-29.5h-21.5h-17t-11 0.5t-7.5 0.5h-2l-16 -1q-17 0 -42 -0.5t-53.5 -1
t-58 -1t-48.5 -0.5h-23t-18.5 0.5t-12.5 0.5h-8h-3q-8 0 -46 -3.5t-50 -4.5q-34 -3 -34 -28zM304 333q0 -4 5 -16t19.5 -25t33.5 -13q26 0 44 30t18 50q0 19 -20 31t-41 12t-40 -24.5t-19 -44.5z" />
</svg>
