<?xml version="1.0" standalone="no"?>
<!DOCTYPE svg PUBLIC "-//W3C//DTD SVG 1.1//EN" "http://www.w3.org/Graphics/SVG/1.1/DTD/svg11.dtd" >
<svg xmlns="http://www.w3.org/2000/svg" xmlns:xlink="http://www.w3.org/1999/xlink" version="1.1" viewBox="-10 0 880 1000">
   <path fill="currentColor"
d="M717 623q0 -5 -2 -9t-2 -11q0 -8 2.5 -24.5t2.5 -20.5v-2l-1 -2q-1 -2 -5.5 -82.5t-9.5 -83.5q-4 -2 -2 -11v-3q1 -2 1 -3q0 -28 -20 -90t-44 -86q-12 -12 -37.5 -25.5t-35.5 -13.5q-9 0 -8 -2l4 -2q10 -5 -4 -6q-10 0 -24 -2q-8 -1 -35.5 7.5t-52 18.5t-24.5 12
q0 4 -14 8q-10 2 -28 17.5t-18 21.5q0 2 -3 5.5t-8.5 14t-9.5 27.5q0 1 -15.5 55.5t-16.5 55.5q-6 12 -6 113q0 96 8 128t8 102q0 21 -1.5 30.5t-9.5 17.5t-26 8q-27 0 -39 -24q-5 -9 -17.5 -22t-19.5 -27q-11 -18 -14 -18q-4 0 -4 -5q0 -6 -17 -31t-21 -25t-4 -6t-40 -45.5
t-40 -58.5q0 -16 10 -26t26 -10q18 0 49 38.5t57 77.5t32 39q7 0 7 -29q0 -4 -1 -25.5t-2 -55.5t-1 -68q0 -36 1 -44.5t8 -13.5q4 -4 8 -33t7 -32q5 -5 5 -28q0 -13 3 -25.5t6.5 -20t3.5 -8.5l-1 -1l1 -5l1 -1q6 -8 22 -41.5t16 -38.5t9.5 -9.5t9.5 -9.5q0 -4 20.5 -20
t53 -31.5t57.5 -15.5h7q16 0 26 -4.5t29 -4.5q26 0 53 9t41.5 18.5t15.5 12.5q2 5 8 5q5 0 26 21.5t32 37.5q16 23 31.5 69.5t15.5 47.5q2 4 2 11q0 2 -0.5 6t-0.5 6q0 7 3.5 17t8 28.5t8 89t3.5 182.5q0 5 3 30.5t3 38.5q0 24 -7.5 38.5t-13.5 18t-10 3.5q-10 0 -30 -17
q-11 -9 -13 -16.5t-2 -33.5q0 -25 3 -50t3 -28z" />
</svg>
