<?xml version="1.0" standalone="no"?>
<!DOCTYPE svg PUBLIC "-//W3C//DTD SVG 1.1//EN" "http://www.w3.org/Graphics/SVG/1.1/DTD/svg11.dtd" >
<svg xmlns="http://www.w3.org/2000/svg" xmlns:xlink="http://www.w3.org/1999/xlink" version="1.1" viewBox="-10 0 904 1000">
   <path fill="currentColor"
d="M406 419q0 -8 15.5 -14t27.5 -6q23 0 38.5 20t15.5 31q0 9 -2 18.5t-13.5 20.5t-30.5 11q-21 0 -40.5 -7.5t-20.5 -17.5q-2 -20 -2 -24q0 -14 6 -20t6 -12zM74 467q0 -3 3 -5.5t3 -12.5q0 -4 -0.5 -15t-0.5 -17q0 -10 1 -15q2 -9 23.5 -32t27.5 -23q5 0 23.5 -20.5
t23.5 -20.5q7 0 15 -10q13 -14 46 -27.5t53 -13.5q18 0 40 -10.5t53 -10.5q45 0 85.5 2.5t43.5 2.5q12 0 21 -3.5t13 -3.5q18 0 83.5 22.5t74.5 32.5q1 1 17 13.5t33 26t32.5 33.5t18.5 37q4 17 7 17t5.5 17.5t2.5 28.5q0 14 -18.5 42t-18.5 34t-36.5 36t-41.5 30q-6 0 -6 3
q0 4 -26.5 9t-64 11.5t-52.5 11.5q-31 10 -129 10q-118 0 -133 -12q-2 -2 -44.5 -9.5t-52.5 -16.5q-1 -1 -18 -10.5t-33.5 -22.5t-20.5 -26q-4 -9 -7 -9q-5 0 -5 -9q0 -6 -8.5 -17.5t-13.5 -11.5q-1 0 -5.5 -6.5t-9 -15.5t-4.5 -14zM213 541q2 0 29 13t37 13q16 0 18 1
q40 21 105 21q25 0 81.5 -4.5t60.5 -7.5t27.5 -6.5t31.5 -6.5q3 -1 10 -3t18 -5.5t19 -5.5q39 -11 64.5 -38.5t31 -44t5.5 -22.5q0 -16 -21 -49t-29 -36q-7 -2 -25 -18q-24 -22 -84.5 -35t-86.5 -13q-10 0 -77.5 4.5t-73.5 7.5q-9 5 -27.5 8.5t-21.5 6.5q-4 4 -15 4
q-16 0 -41.5 18.5t-28.5 18.5q-5 0 -63 54q-16 15 -15 32q2 19 6 26t17 15q16 11 16 17q0 5 13.5 20t18.5 15z" />
</svg>
