<?xml version="1.0" standalone="no"?>
<!DOCTYPE svg PUBLIC "-//W3C//DTD SVG 1.1//EN" "http://www.w3.org/Graphics/SVG/1.1/DTD/svg11.dtd" >
<svg xmlns="http://www.w3.org/2000/svg" xmlns:xlink="http://www.w3.org/1999/xlink" version="1.1" viewBox="-10 0 759 1000">
   <path fill="currentColor"
d="M169 174q0 3 -6 7t-6 17q0 10 -3 35.5t-3 41.5q0 19 3.5 33t3.5 19q0 1 -3 23.5t1 29.5q3 13 6.5 39t7.5 45.5t11 29.5q8 12 8 19q0 9 5 9t5 6t22.5 26.5t38.5 28.5q10 5 26 15.5t27.5 17.5t15.5 7q1 0 29.5 6.5t56.5 6.5q31 0 52 -8t23 -8q5 0 28 -23t23 -27q0 -2 5 -8
t12.5 -17.5t12.5 -27.5q6 -19 13 -27t7 -12t-1 -8q-3 -12 2.5 -21t3.5 -13v-2q-1 -2 -1 -4q0 -8 4.5 -46t4.5 -78q0 -17 -0.5 -30.5t-2 -20t-2.5 -11t-2.5 -5.5t-2 -2t-0.5 -2q0 -2 1 -5q2 -5 -2.5 -10.5t-2.5 -20.5q1 -4 1 -10q0 -9 -6.5 -21.5t-6.5 -26.5q0 -9 1.5 -16
t13 -15.5t32.5 -8.5q29 0 31 50q1 14 4.5 56.5t3.5 86.5q0 48 -4.5 92t-8.5 63t-5 22q-3 5 -5 41.5t-15 50.5q-10 12 -10 18q0 7 -5 7t-5 6t-23.5 37t-28.5 31q-2 0 -5.5 3.5t-14.5 11t-28 14.5q-25 11 -77 11q-48 0 -48 3q0 1 -8 0.5t-19 -2.5q-18 -4 -66 -27t-51 -29
q-1 -2 -21 -15.5t-44.5 -34.5t-35.5 -40q-19 -36 -32 -92t-13 -87v-9q0 -30 -3.5 -64t-3.5 -44q0 -2 2 -22t2 -44q0 -25 -2 -25q-7 0 -7 -21q0 -25 24 -25q49 0 49 13q0 6 8.5 19t8.5 18z" />
</svg>
