<?xml version="1.0" standalone="no"?>
<!DOCTYPE svg PUBLIC "-//W3C//DTD SVG 1.1//EN" "http://www.w3.org/Graphics/SVG/1.1/DTD/svg11.dtd" >
<svg xmlns="http://www.w3.org/2000/svg" xmlns:xlink="http://www.w3.org/1999/xlink" version="1.1" viewBox="-10 0 757 1000">
   <path fill="currentColor"
d="M74 460q0 -1 3 -4t1 -15v-8q0 -24 11.5 -57t25.5 -61t15 -32q6 -17 37.5 -38.5t33.5 -27.5t10.5 -11t12.5 -13q3 -8 16 -12.5t18 -12.5q4 -7 14 -12t23.5 -9.5t20.5 -7.5q7 -4 30 -4q31 0 67 6t42 14q3 5 21 5q23 0 53 19q12 8 28 18q10 5 36.5 37.5t26.5 39.5
q0 6 7.5 10.5t7.5 9.5q0 7 6 11q5 3 13.5 20t8.5 25q0 3 4 11t4 34q0 33 -7 72t-15.5 63.5t-13.5 24.5q-1 0 -8 14.5t-19.5 31t-25.5 21.5q-8 4 -8 10q0 7 -5 7t-23 16q-17 16 -53 24q-81 16 -91 16q-16 0 -27 12t-18 12q-12 0 -28.5 -7t-18.5 -12q-2 -8 -32 -16
q-29 -8 -73 -30t-44 -28t-30 -36.5t-32 -44.5q-2 -13 -13.5 -46t-11.5 -39zM313 339q1 -20 2 -39t2.5 -32.5t3 -25.5l2.5 -20t2.5 -13t2.5 -8v-3q0 -4 -6 -4q-10 0 -25 9t-20 19q-6 11 -44.5 50.5t-40.5 45.5q-3 8 -6 5q-2 -2 -7 1.5t-9 9.5t-4 10q0 6 -10 15t-12 30l-2 21
l12 -9q10 -7 18 -7q2 0 26.5 4t54.5 4q56 0 57 -10t3 -53zM578 309q0 -5 -11.5 -17t-11.5 -16q0 -6 -17 -18.5t-36 -25t-22 -15.5q-7 -8 -69 -16l-15 -2l-2 29q-1 15 -4 34.5t-5 39t-2 49.5q0 35 4 41.5t24 6.5q42 0 81 -4.5t62.5 -8.5t28.5 -4q23 0 23 -4q0 -8 -8.5 -31
t-12.5 -27q-7 -5 -7 -11zM602 455q0 -8 -15 -8q-9 0 -32 6.5t-56 9.5q-44 4 -56 6h-1q-7 0 -23 -2.5t-22 -2.5q-7 0 -9 2q-4 4 -4 87q0 79 6 79q1 0 21.5 -3t43 -8t25.5 -8q5 -7 15 -7t42.5 -32t37.5 -46q6 -16 9 -16t10.5 -23.5t7.5 -33.5zM258 467q-17 0 -33 -1t-27.5 -2
t-21.5 -2.5t-16 -3t-10.5 -2.5t-7.5 -2l-2 -1q-3 0 -3 6q0 5 4 24t17 46t31 35q17 8 49 35.5t55 28.5l18 1l-1 -163l-47 1h-5z" />
</svg>
