<?xml version="1.0" standalone="no"?>
<!DOCTYPE svg PUBLIC "-//W3C//DTD SVG 1.1//EN" "http://www.w3.org/Graphics/SVG/1.1/DTD/svg11.dtd" >
<svg xmlns="http://www.w3.org/2000/svg" xmlns:xlink="http://www.w3.org/1999/xlink" version="1.1" viewBox="-10 0 881 1000">
   <path fill="currentColor"
d="M76 558q0 -10 9.5 -22.5t24.5 -12.5q10 0 44.5 9t63.5 9q16 0 43 -2t34 -2q18 0 28.5 13t10.5 21q0 32 -94 32q-23 0 -65 -3t-55 -3q-16 0 -30 -12.5t-14 -26.5zM575 521q4 0 8 -1t6 -1q3 0 6.5 2t15.5 4t34 2q71 0 82 -9q5 -3 11 -3q17 0 49 16q16 16 16 34q0 20 -35 20
q-9 0 -32.5 -1t-33.5 -1q-20 0 -26.5 5t-21.5 5q-9 0 -47.5 -2.5t-59.5 -2.5q-20 0 -23 2q-2 2 -7 -2t-14 -2h-3q-10 0 -22 -9t-12 -16q0 -1 3 -6t3 -10q0 -4 4 -10t17 -12.5t32 -6.5q10 0 27 2.5t23 2.5zM78 338q0 -12 9 -21.5t20 -9.5q15 0 33.5 13.5t45 36.5t43.5 35
q23 15 21 21q-3 12 -3 23q0 23 -21 23q-11 0 -24 -9.5t-31.5 -27t-32.5 -26.5q-34 -24 -38 -24q-5 0 -13.5 -11t-8.5 -23zM661 258q12 0 20 11.5t8 21.5q0 5 -3 11.5t-8.5 14t-12.5 15t-14.5 15t-15 14.5t-15 13.5t-12.5 10.5t-8 7l-4 3q-30 23 -44 60q-5 11 -26 11
q-39 0 -39 -23q0 -14 12 -31.5t59 -67.5q55 -55 73 -70.5t30 -15.5zM386 459q-37 -4 -37 -26q0 -5 3.5 -23t3.5 -31q0 -9 -2 -24t-2 -26v-14q0 -1 -4.5 -23.5t-4.5 -53.5q0 -10 1.5 -16t11.5 -13.5t30 -7.5q14 0 14 4q0 2 1.5 4.5t4 6t4 18t1.5 37.5q0 20 0.5 38.5t1 32.5
t1.5 26.5t2 21t1.5 15t0.5 9.5l1 3q0 13 -9 27.5t-24 14.5z" />
</svg>
