<?xml version="1.0" standalone="no"?>
<!DOCTYPE svg PUBLIC "-//W3C//DTD SVG 1.1//EN" "http://www.w3.org/Graphics/SVG/1.1/DTD/svg11.dtd" >
<svg xmlns="http://www.w3.org/2000/svg" xmlns:xlink="http://www.w3.org/1999/xlink" version="1.1" viewBox="-10 0 822 1000">
   <path fill="currentColor"
d="M350 401q0 -13 12 -21t22 -8q18 0 31 19.5t13 33.5q0 8 -6 8q-2 0 -2 5q0 4 2.5 22.5t2.5 29.5q0 16 -7.5 34.5t-7.5 35.5q0 13 4 13q8 0 8 19q0 28 -22 28h-1q-22 0 -37 -10t-19.5 -19t-4.5 -14l2 -5q3 2 3 -1l1 -10q0 -3 3 -10.5t5.5 -26t2.5 -47.5q0 -9 -0.5 -19.5
t-1.5 -20t-1.5 -18t-1.5 -13.5v-5zM740 316q0 27 -25 27q-1 0 -32 -2t-77 -2h-56q-21 0 -36 -3t-22 -6t-11 -7.5t-4 -6v-3.5q3 -6 3 -14q0 -2 3.5 -8t12.5 -13.5t21 -7.5q1 0 44 5.5t64 5.5q15 0 33.5 -4.5t31.5 -4.5q26 0 38 13.5t12 30.5zM185 247q18 0 22.5 5.5t5.5 5.5
t4 -1.5t11 -3t19 -1.5h4q98 0 98 39q0 12 -10 18.5t-20 7.5l-10 1q-9 0 -42 -5t-50 -5q-1 0 -12 1.5t-31 3t-43 1.5q-29 0 -38.5 -4t-16.5 -18q-5 -9 -5 -20q0 -14 14 -23.5t32 -9.5q12 0 20 4.5t18 4.5q4 0 14.5 -0.5t15.5 -0.5z" />
</svg>
