<?xml version="1.0" standalone="no"?>
<!DOCTYPE svg PUBLIC "-//W3C//DTD SVG 1.1//EN" "http://www.w3.org/Graphics/SVG/1.1/DTD/svg11.dtd" >
<svg xmlns="http://www.w3.org/2000/svg" xmlns:xlink="http://www.w3.org/1999/xlink" version="1.1" viewBox="-10 0 771 1000">
   <path fill="currentColor"
d="M551 461q0 6 15 22.5t30 41t15 49.5q0 10 -15 42q-21 40 -34.5 51.5t-56.5 25.5q-27 8 -32 13q-5 4 -67.5 6t-64.5 4q-1 1 -5 1q-34 0 -89.5 -33.5t-56.5 -52.5q0 -8 -3 -26.5t-3 -25.5q0 -11 13.5 -40t13.5 -41q0 -10 -25 -16q-14 -3 -33 -13t-19 -14q0 -2 -2 -4
t-9.5 -12t-16.5 -27q-16 -30 -19 -33q-4 -4 -4 -19q0 -10 -7 -49t-7 -57q0 -20 6 -27q1 -1 8 -13t21.5 -30.5t33.5 -37.5q39 -39 74 -52q18 -5 32 -14q8 -4 90.5 -6t84.5 -4q3 -3 11 -3q11 0 53 10.5t54 16.5q18 9 41 10q11 0 11 6q0 10 19 15t19 11t21.5 24.5t25.5 25.5
q6 11 9 13q10 8 10 40l-1 5q-1 5 -2.5 13.5t-3.5 18.5t-3 22.5t-1 23.5q0 8 -4 10q-5 3 -14.5 24t-10.5 29q0 10 -5 10q-4 0 -10 9t-21 20t-38 16q-6 1 -10.5 5t-6 7.5t-3 5.5t-3.5 1h-2q-3 0 -3 2zM568 166q-2 0 -7 -4t-16.5 -10t-30.5 -12t-56.5 -10t-86.5 -4
q-54 0 -82 12q-11 5 -19.5 6t-24.5 10q-21 12 -32 12q-10 0 -42.5 29.5t-40.5 45.5q-6 11 -6 25q0 12 5.5 19.5t-0.5 12.5q-4 10 5 33q16 43 31.5 61.5t55.5 30t118 11.5q113 0 132 -10q48 -24 56 -24q3 0 7 -7t10 -7q13 0 36 -20.5t23 -31.5q0 -2 13.5 -24.5t13.5 -44.5
q0 -23 -14.5 -47.5t-28.5 -38t-19 -13.5zM261 551q0 10 -5.5 15t-5.5 8q0 14 22 39.5t36 25.5q5 0 11 4.5t16 4.5h29q57 0 85.5 -8t64.5 -31q20 -12 24 -18.5t4 -22.5q0 -14 -9 -26t-19.5 -19t-19.5 -14.5t-9 -11.5t-0.5 -5t-3 -2t-8.5 -1t-17 2.5t-57 4.5q-34 2 -57 6
t-33 7t-14 3q-10 0 -22 14t-12 25z" />
</svg>
