<?xml version="1.0" standalone="no"?>
<!DOCTYPE svg PUBLIC "-//W3C//DTD SVG 1.1//EN" "http://www.w3.org/Graphics/SVG/1.1/DTD/svg11.dtd" >
<svg xmlns="http://www.w3.org/2000/svg" xmlns:xlink="http://www.w3.org/1999/xlink" version="1.1" viewBox="-10 0 857 1000">
   <path fill="currentColor"
d="M370 224q2 0 6 2t10 2q11 0 30 -4.5t28 -4.5q7 0 19.5 2t27.5 2q10 0 20.5 -1t16.5 -1q12 0 42 11.5t33 14.5q6 6 20 12.5t20 6.5q2 0 4 -1.5t10.5 -13t22.5 -34.5q27 -43 27 -97q0 -28 1.5 -34.5t9.5 -14.5q12 -12 25 -12q14 0 14 4q0 1 14 25.5t14 36.5
q0 13 -15.5 60.5t-30.5 65.5q-9 11 -22.5 32.5t-20.5 28.5q-18 18 -2 25q7 2 7 11l18 43q18 43 18 65q0 15 -5.5 50.5t-9.5 45.5q-6 15 -38 79q-10 21 -28 34.5t-54 28.5q-79 33 -100 33q-7 0 -16 -3t-21 -3q-7 0 -21 1.5t-24 1.5q-45 0 -76 -17q-16 -9 -31.5 -16t-21.5 -10
t-9 -8q-1 -1 -31.5 -22t-40.5 -38q-5 -7 -15.5 -27t-24.5 -61.5t-14 -74.5q0 -1 2 -10.5t3 -27.5q2 -28 12 -55l11 -27l-12 -9q-7 -5 -17 -17.5t-17.5 -21.5t-10.5 -9q-12 0 -30.5 -34t-24.5 -68q-2 -14 -4.5 -24t-3.5 -13t-2 -6.5t-1 -8.5q0 -16 9 -27t24 -11q23 0 33 45
t11 46q5 5 5 13q0 4 4 10t11.5 16.5t13.5 20.5q7 13 25.5 28t29.5 15q7 0 11.5 -8t13.5 -8q8 0 29.5 -10t32.5 -11q10 -1 30 -7.5t26 -6.5zM424 656q26 0 52 -3t45.5 -8t35 -9.5t25 -7.5t10.5 -3q7 0 23 -15.5t16 -21.5q0 -7 9 -14q9 -8 18 -43t9 -57q0 -18 -8 -48
q-8 -27 -14.5 -38.5t-28.5 -33.5q-18 -18 -18 -24q0 -13 -39 -30t-68 -17q-16 0 -26 -0.5t-13 -1t-5 -1t-3 -0.5q-4 0 -10 1q-38 6 -63.5 12t-34 9.5t-15.5 6t-14 2.5q-9 0 -22.5 9t-26.5 20t-14 12q-6 3 -12.5 25t-6.5 39t-3 17q-2 0 -2 10q0 79 67 146t137 67z" />
</svg>
