<?xml version="1.0" standalone="no"?>
<!DOCTYPE svg PUBLIC "-//W3C//DTD SVG 1.1//EN" "http://www.w3.org/Graphics/SVG/1.1/DTD/svg11.dtd" >
<svg xmlns="http://www.w3.org/2000/svg" xmlns:xlink="http://www.w3.org/1999/xlink" version="1.1" viewBox="-10 0 673 1000">
   <path fill="currentColor"
d="M590 286q0 24 -6 34.5t-6 17.5t-17.5 28.5t-39.5 46t-27 32.5q-3 5 -40.5 24t-50.5 22q-21 6 -21 34v10l2 22l65 1q64 1 73.5 2t17.5 9q9 9 9 21q0 13 -10 24t-25 11q-16 0 -16 5q0 6 -6 1q-7 -5 -44 -5q-70 0 -74 15q-2 7 1.5 12t6 6.5t-0.5 4.5q-3 4 -2.5 7t2 11.5
t1.5 13.5q0 7 -2.5 16.5t-13 20.5t-27.5 7q-22 -4 -27.5 -9t-5.5 -24q0 -6 0.5 -23t0.5 -28q0 -17 -1 -17q-6 0 -49 -1t-79 -3.5t-44 -7.5q-16 -10 -16 -28q0 -15 11 -26t26 -11h2q2 1 5.5 1.5t8.5 1.5t12.5 1.5t16.5 1t21.5 1t26.5 0.5q46 0 54 -4.5t8 -26.5q0 -34 -15 -34
q-3 0 -6 1t-6 1q-25 0 -81 -26t-56 -40q0 -3 -13 -20t-28.5 -42t-19.5 -46q-12 -60 -12 -67q0 -68 34 -104q73 -79 85 -82q11 -4 11 -7t8 -7t19.5 -10.5t18.5 -12.5q11 -9 45 -10t42 -6q5 -4 20 -4q42 0 98 21t74 54q9 17 13 17t20.5 33t16.5 40q0 5 7.5 22t7.5 30
q0 5 -1.5 20t-1.5 27zM533 237q0 -23 -8 -31t-8 -15q0 -8 -9.5 -18.5t-9.5 -14.5t-11.5 -13t-13.5 -15q-8 -19 -49 -34.5t-91 -15.5l-4 1q0 2 -23.5 8t-33.5 6q-6 0 -11 10t-15 12t-36 23t-29 21t-15 11t-25 34t-13 46q0 57 18 68q3 2 3 13q0 7 6.5 18t10.5 11t4 7
q0 3 13.5 19t47 34t73.5 18q55 0 73 -9q9 -4 21 -7.5t19.5 -6t10.5 -6.5t22.5 -15.5t24.5 -23.5q4 -10 13.5 -18t9.5 -12q0 -6 15 -19t16 -37l2 -24q2 -12 2 -25z" />
</svg>
