<?xml version="1.0" standalone="no"?>
<!DOCTYPE svg PUBLIC "-//W3C//DTD SVG 1.1//EN" "http://www.w3.org/Graphics/SVG/1.1/DTD/svg11.dtd" >
<svg xmlns="http://www.w3.org/2000/svg" xmlns:xlink="http://www.w3.org/1999/xlink" version="1.1" viewBox="-10 0 1050 1000">
   <path fill="currentColor"
d="M554 197q3 0 7 -3t11 -3q12 0 43 13t36 13q12 0 48.5 36t49.5 60q34 67 34 153q0 60 -12 76q-10 13 -10 22q0 2 -10 16.5t-36.5 38.5t-59.5 40q-39 19 -59 19q-98 0 -103 -8q-3 -5 -40 -12t-39 -10t-23 -14.5t-43.5 -29t-30.5 -34.5q-5 -10 -10.5 -17.5t-7.5 -11.5
t-2 -10q0 -4 -5 -18.5t-7 -42.5q-4 -35 -5 -38q-1 -2 3 -6t-1 -12q-3 -6 -3 -11t3 -14.5t3 -12.5t-2 -5.5t-2 -3.5t3 -3t6 -10t4 -22q2 -28 14.5 -48t30.5 -36.5t24 -25.5q9 -14 22 -14q10 0 19 -7t14 -7q6 0 27 -3t41 -3q22 0 37 2t22 4.5t9 2.5zM672 311q0 -2 -3.5 -7.5
t-15.5 -15t-30 -18t-53 -15t-80 -6.5h-9q-49 0 -76 13q-14 7 -35.5 28t-21.5 28q0 6 -6 8t-7 50.5t-3 51.5q-1 1 -1 4q0 2 1.5 6t4.5 14.5t6 23.5q3 16 9.5 27.5t10.5 17t4 8.5q0 8 27.5 28.5t38.5 20.5q9 0 18.5 7.5t17.5 8.5q6 1 23.5 5.5t33 7.5t26.5 3q50 0 56 -3
q3 -2 22 -7q2 0 10.5 -4t22.5 -14.5t27 -25.5t22.5 -40t9.5 -55t-5 -56t-12.5 -42t-15 -27.5t-12.5 -17.5t-5 -7zM172 771q0 10 -6.5 18.5t-17.5 8.5q-7 0 -15 -3.5t-13 -6.5l-4 -4q-6 -7 -11.5 -27t-5.5 -33q0 -2 6 -21t6 -30t-5 -16q-8 -4 -3.5 -14t3.5 -16q-7 -70 -7 -77
q0 -5 -5 -33t-5 -60q0 -171 13 -198q7 -14 7 -21q0 -4 9.5 -17.5t9.5 -19.5q0 -4 6 -10.5t15.5 -17t15.5 -23.5q11 -23 36 -49.5t33 -31.5q139 -79 276 -79q58 0 66 8q1 1 10 0t20 7q7 5 23.5 11.5t21.5 6.5h2q0 -1 10 4t24.5 11t23.5 6q16 0 20 4q1 1 55.5 32.5t61.5 44.5
q2 3 9 16.5t11 20.5q14 27 11 27h-1l4 5q4 4 9.5 13.5t9.5 22.5q3 12 6.5 18t5.5 7t3.5 3.5t2.5 11t1 26.5q0 26 7 40t7 20q0 1 -0.5 3.5t-0.5 4.5v5q0 13 4.5 36t4.5 29v6q0 4 3 33t6 81t4 109q1 31 4 44t3 26q0 18 -7 28t-12.5 11.5t-9.5 1.5q-7 0 -13 -4t-9 -8l-3 -4
q-6 -11 -10 -17q-5 -6 -5 -26q0 -17 -4 -87t-8 -77q-1 -1 -1 -5q0 -3 3 -13t3 -15q0 -6 -3 -11q-6 -4 -2 -14.5t4 -15.5q0 -6 -4.5 -34.5t-5.5 -51.5q-1 -28 -8 -58.5t-12 -30.5q-2 0 -2 -3q-3 -20 -19 -54q-17 -38 -17 -39q0 -3 -9 -16.5t-26.5 -30.5t-34.5 -21
q-10 -2 -47 -23.5t-49 -21.5q-3 0 -5 1.5t-5 1.5q-4 0 -33 -14.5t-54 -15.5q-17 -1 -24.5 -7t-19.5 -6q-9 0 -21 5.5t-39 6.5q-33 1 -65 14.5t-46 16.5q-61 13 -89 51q-33 44 -33 46l-15 19q-14 19 -14 32q0 6 -6.5 12t-6.5 13q0 6 -4.5 10.5t-4.5 18.5v11q-1 11 -2 29.5
t-2 40t-1.5 47t-0.5 46.5q0 83 10 101q4 8 3.5 16t1.5 16q3 8 -0.5 13t-1.5 8q5 7 5 67q0 17 -0.5 29t-1.5 18.5t-2 10.5t-1.5 5.5t-0.5 2.5v12z" />
</svg>
