<?xml version="1.0" standalone="no"?>
<!DOCTYPE svg PUBLIC "-//W3C//DTD SVG 1.1//EN" "http://www.w3.org/Graphics/SVG/1.1/DTD/svg11.dtd" >
<svg xmlns="http://www.w3.org/2000/svg" xmlns:xlink="http://www.w3.org/1999/xlink" version="1.1" viewBox="-10 0 880 1000">
   <path fill="currentColor"
d="M246 391q0 -28 15.5 -61t26.5 -33q1 0 14.5 -12t28 -29t15.5 -27q1 -6 18 -22.5t28 -16.5q6 0 18.5 9.5t22.5 11.5q7 2 19 8t21 11.5t10 5.5q4 0 30.5 31t33.5 44t23 39q16 27 16 66q0 20 -11 37t-20.5 24t-11.5 7q-5 0 -15 14l-10 13l11 17q12 18 12 19l13 29
q13 29 13 52q0 15 -5 33q-5 17 -11 23t-29 18q-32 17 -52 17q-10 0 -21 -7q-5 -4 -12 -6t-12.5 -1t-5.5 4q0 6 -25 11.5t-51 5.5q-28 0 -39 -3.5t-27 -14.5q-44 -30 -44 -87q0 -28 13 -51q36 -62 46 -69q15 -10 -10 -22q-15 -7 -24 -30t-10.5 -37t-1.5 -21zM516 414
q0 -11 -6.5 -25.5t-6.5 -17.5q0 -5 -7 -13.5t-7 -14.5q0 -17 -32.5 -40t-54.5 -23q-6 0 -10.5 6.5t-11.5 8.5q-22 7 -43 43t-21 57q0 10 6 10q8 0 8 6q0 5 5.5 8.5t12.5 3.5q1 0 8.5 -15.5t22.5 -31t33 -15.5q13 0 21.5 9t8.5 23t12.5 23t21.5 10.5t13 1.5q27 0 27 -14z
M483 638q21 0 21 -20q0 -23 -42.5 -80.5t-51.5 -57.5q-6 2 -15 7.5t-9 7.5q0 3 -11.5 8.5t-11.5 10.5q0 6 -20 22q-15 12 -30.5 40.5t-15.5 42.5q0 6 5 6q4 0 4 7q0 17 42 17q15 0 18.5 -4.5t4.5 -22.5q1 -20 11.5 -32.5t25.5 -12.5t26.5 11.5t14.5 23.5q2 8 12.5 17t21.5 9
zM99 694q0 -5 -3 -10.5t-3 -11.5q0 -3 2 -15.5t2 -25.5q0 -6 -0.5 -25t-0.5 -32v-24q0 -5 -0.5 -18t-1 -27t-0.5 -27.5v-23.5l-1 -9q0 -28 13.5 -87.5t14.5 -67.5q0 -2 7.5 -23t24.5 -54t36 -53q15 -15 23 -37q4 -13 15.5 -25t19.5 -12q5 0 43 -19t65 -19q17 0 33 -5.5
t47 -5.5q41 0 75 14q16 6 40 14q21 7 53 30t39 37q2 4 10.5 11t21 22.5t24.5 42.5q19 43 28 77.5t11.5 52t5.5 23.5q2 3 3 17.5t5 54.5t12 89q0 9 7.5 52.5t15.5 83.5l7 39q0 13 -8.5 31t-24.5 18q-13 0 -28 -16q-8 -9 -14.5 -89t-12.5 -88q-3 -4 -5 -26t-3 -41.5t-3 -19.5
t-2 -16.5t-2 -46t-9 -52.5l-15 -57q-1 -2 -7.5 -24t-14.5 -30q-6 -6 -15.5 -24t-17.5 -22q-9 -4 -9 -11q0 -5 -14.5 -13t-32.5 -17t-23 -16q-5 -9 -15 -9q-1 0 -32 -10t-58 -10q-5 0 -14 3t-28 3q-11 0 -18.5 1t-10 3t-4 3t-3.5 1q-1 0 -4 -1t-4 -1q-6 0 -15 9t-14 9
q-10 0 -27 13.5t-23 25.5q-5 9 -10.5 15.5t-8 10t-2.5 6.5q0 4 -5 8t-13 14t-13 28q-4 15 -8.5 26.5t-6 16t-1.5 11.5q0 9 -4.5 14t-4.5 11q0 2 -5.5 13t-10.5 46t-5 94q0 135 11 153q4 7 4.5 27t2.5 25t-2.5 11.5t-4.5 18.5q0 13 -4.5 16t-28.5 7q-4 1 -10 1
q-10 0 -21.5 -16t-11.5 -30v-10z" />
</svg>
