<?xml version="1.0" standalone="no"?>
<!DOCTYPE svg PUBLIC "-//W3C//DTD SVG 1.1//EN" "http://www.w3.org/Graphics/SVG/1.1/DTD/svg11.dtd" >
<svg xmlns="http://www.w3.org/2000/svg" xmlns:xlink="http://www.w3.org/1999/xlink" version="1.1" viewBox="-10 0 902 1000">
   <path fill="currentColor"
d="M83 771q-25 0 -25 -21q0 -12 8 -28q9 -16 31 -22q14 -4 40 -16t46 -21.5t22 -9.5l10 -5q10 -6 30.5 -16t41.5 -18q46 -18 77 -35t40.5 -26.5t17.5 -15.5t17 -6q13 0 22 7.5t15 9.5t71.5 42t78.5 40q8 0 8 4t11 8q6 2 149 59q40 11 40 40q0 19 -12 35q-6 8 -10.5 8.5
t-21.5 -3.5q-17 -5 -64 -31.5t-58 -26.5q-5 0 -83 -37.5t-84 -37.5q-4 0 -6 -1.5t-3.5 -4.5t-9 -8.5t-19.5 -11.5q-17 -9 -24 -9q-1 0 -38.5 14t-80.5 32t-55 26q-56 39 -61 45q-8 8 -18 8q-7 0 -43.5 16.5t-59.5 16.5zM405 414q0 -31 8 -47t16 -18.5t23 -2.5q19 0 35.5 7
t26.5 17.5t17 21.5t10 18.5t3 10.5q0 25 -27 40.5t-45 15.5q-16 0 -35 -6.5t-19 -12.5q0 -5 -6.5 -16.5t-6.5 -27.5zM112 83q0 -4 1 -10t9 -15.5t21 -9.5q17 0 41.5 17t29.5 19q8 3 14 6.5t12.5 8.5t28 17.5t55.5 28.5q34 17 59.5 33t33.5 20q21 11 32 6q14 -6 23 -6
q11 0 26 -13q19 -17 109 -57t111 -57q15 -13 20 -13q3 0 21.5 -14t43.5 -14q12 0 15 3.5t6 21.5q0 1 0.5 3.5t0.5 3.5q0 11 -6 20t-13 9q-3 0 -6.5 3t-13 8.5t-25.5 10.5q-23 8 -31.5 19.5t-20.5 15.5q-9 3 -20.5 8.5t-35.5 13.5q-36 12 -96 49.5t-67 41.5q-15 7 -15 11
q0 5 -12.5 9.5t-25.5 4.5q-14 0 -28 -9t-51 -39q-13 -11 -34.5 -25.5t-24.5 -14.5t-40.5 -18t-80 -41t-53.5 -35q-13 -13 -13 -21z" />
</svg>
