<?xml version="1.0" standalone="no"?>
<!DOCTYPE svg PUBLIC "-//W3C//DTD SVG 1.1//EN" "http://www.w3.org/Graphics/SVG/1.1/DTD/svg11.dtd" >
<svg xmlns="http://www.w3.org/2000/svg" xmlns:xlink="http://www.w3.org/1999/xlink" version="1.1" viewBox="-10 0 682 1000">
   <path fill="currentColor"
d="M334 465q-28 0 -50.5 -23t-22.5 -38q0 -6 6.5 -14.5t8.5 -16.5q3 -9 16.5 -19t27.5 -10q7 0 30 7q17 6 27 21t11 27l1 12q0 24 -16 39t-39 15zM84 677q0 -9 1.5 -30t3 -44t3.5 -45t4 -37l1 -15l-1 -6v-15.5v-18.5q0 -44 6.5 -102t8.5 -150q2 -83 8 -111t31 -28q8 0 13 1
l15 3l-1 33q0 20 -2.5 59t-5.5 80.5t-6.5 79.5t-6.5 63l-2 26q0 15 1.5 44.5t1.5 45.5q0 8 -3 28.5t-4 70.5q-1 74 -9 92l-7 17l-20 -5q-21 -4 -25.5 -9.5t-4.5 -26.5zM505 351q0 -7 -2 -21t-2 -22q0 -6 2 -18.5t4 -41t2 -73.5q1 -72 5.5 -87t25.5 -17q4 0 8.5 -1t7.5 -1.5
t4 -0.5q19 0 19 48q0 17 -5 58t-7 91t-5 55q-3 4 0 10q1 1 7.5 152.5t9.5 157.5q4 8 -1.5 16t0.5 14q4 4 4 17q0 45 -30 45q-23 0 -34 -11q-6 -6 -7.5 -48.5t-1.5 -104.5t-3 -93q-4 -43 -4 -81q0 -15 1.5 -27t1.5 -16z" />
</svg>
