<?xml version="1.0" standalone="no"?>
<!DOCTYPE svg PUBLIC "-//W3C//DTD SVG 1.1//EN" "http://www.w3.org/Graphics/SVG/1.1/DTD/svg11.dtd" >
<svg xmlns="http://www.w3.org/2000/svg" xmlns:xlink="http://www.w3.org/1999/xlink" version="1.1" viewBox="-10 0 535 1000">
   <path fill="currentColor"
d="M143 329q-8 0 -8 49q0 29 6.5 60t14 50.5t14.5 36.5l8 17q4 13 7 13q1 0 8 13.5t18 31t21 24.5q9 7 9 12q0 4 24.5 29t24.5 43q0 7 -3.5 13t-7 9t-4.5 3q-3 0 -10 1.5t-9 1.5q-11 0 -27 -7.5t-16 -12.5q0 -3 -9.5 -13t-9.5 -14t-14 -19t-14 -23q0 -3 -3 -7.5t-6.5 -6.5
t-4.5 -1q-2 2 -2.5 -1.5t-3 -12.5t-7.5 -16q-16 -23 -24 -51.5t-10 -30.5q-5 -5 -5 -17q0 -5 -8.5 -38.5t-8.5 -45.5l-1 -31q2 -2 2 -8q0 -4 -4 -23t-4 -34v-5t0.5 -13.5t0.5 -22.5v-39q0 -38 13 -64q8 -18 18 -31.5t25.5 -31.5t27.5 -34q20 -29 29 -29q7 0 27 -7.5t41 -8.5
q16 0 16 -5q0 -2 8 -2q5 0 17.5 1.5t32.5 7t27 14.5q4 5 6.5 6t5 1t11.5 1.5t22 5.5q61 20 61 89q0 47 -14 112q-6 26 -22 36t-22 21q-7 13 -26 19q-43 12 -53 16q-21 8 -55 8q-38 0 -67.5 -10t-44.5 -19.5t-18 -9.5zM291 103q-41 0 -70.5 17t-39 30.5t-9.5 17.5
q0 13 -16 41q-4 8 -4 20t5 12q3 0 26.5 21t28.5 21q3 0 16 7.5t31 7.5q7 0 14 -2.5t12 -0.5t10 -2t14 -2q1 0 3.5 0.5t3.5 0.5q22 0 54 -32q16 -16 19 -24t3 -37q0 -40 -7.5 -60t-16 -24.5t-29.5 -7.5q-23 -4 -48 -4z" />
</svg>
