<?xml version="1.0" standalone="no"?>
<!DOCTYPE svg PUBLIC "-//W3C//DTD SVG 1.1//EN" "http://www.w3.org/Graphics/SVG/1.1/DTD/svg11.dtd" >
<svg xmlns="http://www.w3.org/2000/svg" xmlns:xlink="http://www.w3.org/1999/xlink" version="1.1" viewBox="-10 0 588 1000">
   <path fill="currentColor"
d="M108 601l-2 -7q-1 -7 -3.5 -18t-5 -24t-4 -27.5t-1.5 -25.5q0 -9 4 -31t4 -33v-2q-1 -2 -1.5 -6.5t-1.5 -10.5t-2 -15t-1.5 -19.5t-1 -24.5t-0.5 -30q0 -5 1 -23.5t4.5 -42t7.5 -26.5q5 -3 9.5 -24t7.5 -24t11.5 -16t19 -26.5t22.5 -21.5q11 -7 32 -25q9 -8 24.5 -13.5
t17.5 -10.5q3 -7 21 -7q14 0 25 -4.5t15 -4.5q12 0 32.5 7t25.5 12q4 6 21 12t24 14q9 11 15 11q10 0 42 39t34 54q4 21 4 50q0 61 -15 69q-6 3 -6 10q0 14 -40.5 55.5t-53.5 41.5q-4 0 -32.5 13.5t-55.5 13.5q-47 0 -74.5 -5.5t-38 -11t-15.5 -5.5q-7 0 -9 9t-2 38
q0 40 2 70.5t4.5 46.5t2.5 21q0 2 -3 15.5t-2 23.5q1 5 1 18q0 53 -12 68q-8 10 -30 10q-40 0 -40 -32q0 -7 3.5 -14.5t4.5 -19.5q1 -11 5 -22.5t4 -13.5q0 -1 -1 -2.5t-1 -4.5q0 -5 2 -23.5t2 -24.5zM412 185q-41 -39 -60 -49.5t-56 -10.5q-18 0 -35.5 7.5t-26.5 15
t-10 10.5q-3 7 -22.5 22.5t-19.5 21.5q0 5 -11.5 22.5t-13.5 30.5q0 1 -2.5 5t-3 6t1.5 5q3 2 3.5 14t5.5 19q6 8 6 17t7 9t9.5 18.5t20.5 26.5q37 17 70 17q47 0 57 -8q7 -7 28 -13q30 -9 57.5 -41.5t28.5 -60.5q0 -5 0.5 -12t0.5 -10q0 -19 -6.5 -29.5t-28.5 -32.5z" />
</svg>
