<?xml version="1.0" standalone="no"?>
<!DOCTYPE svg PUBLIC "-//W3C//DTD SVG 1.1//EN" "http://www.w3.org/Graphics/SVG/1.1/DTD/svg11.dtd" >
<svg xmlns="http://www.w3.org/2000/svg" xmlns:xlink="http://www.w3.org/1999/xlink" version="1.1" viewBox="-10 0 852 1000">
   <path fill="currentColor"
d="M111 420v-14q0 -6 -1.5 -14t-1.5 -18q0 -85 17 -97q4 -2 23 -48.5t37 -60.5q13 -9 30.5 -26.5t30 -27t23.5 -9.5q15 0 33.5 -19t24.5 -19t25.5 -9t69.5 -9q40 0 64.5 3.5t31 8t13.5 8t17 3.5q6 0 31 18.5t33 18.5q5 0 52 48t49 56q2 6 6.5 15.5t9.5 26.5q2 9 11 32.5
t9 38.5q0 38 -17.5 102.5t-35.5 75.5q-9 6 -1 7q6 1 16 -3q11 -4 15 -2.5t15 14.5q21 23 21 48q0 4 -6 24t-6 35q0 12 6 24t6 16t-9 22q-10 20 -15.5 25t-17.5 5q-22 0 -35.5 -10t-13.5 -27q0 -7 3.5 -17t3.5 -15q0 -3 -1 -7t-1 -8q0 -7 2.5 -21t2.5 -17q0 -9 -7 -11.5
t-28 -2.5q-24 0 -32 -3l-7 -4q-12 0 -47 15t-54 18q-15 2 -23.5 6t-13.5 7t-28.5 5t-68.5 2t-45 -4q0 -5 -10 -5q-17 0 -73.5 -22t-68.5 -22q-9 0 -15.5 5.5t-6.5 10.5q0 1 -4 12t-5 42q0 4 -1 13.5t-3.5 26t-9.5 28t-17 11.5q-20 0 -30 -5t-11.5 -9.5t-1.5 -12.5v-7
q1 -7 2 -18t1.5 -24t1.5 -27t1 -25q2 -53 12 -75.5t31 -22.5q15 0 17.5 -0.5t2.5 -5.5q0 -9 -7 -9t-7 -23q0 -22 -7 -26t-7 -15zM243 522q7 0 26 10t55 19.5t82 9.5q34 0 62.5 -7t48.5 -15.5t23 -9.5q18 -5 50.5 -22.5t42.5 -28.5t20 -30.5t16.5 -33.5t8.5 -14q3 0 3 -41
q0 -66 -11 -81q-10 -13 -10 -16q0 -13 -22.5 -45.5t-31.5 -32.5q-8 0 -15 -9q-11 -12 -38.5 -29.5t-35.5 -17.5q-7 0 -16 -5.5t-25 -8.5q-44 -8 -55 -8q-4 0 -7 3q-3 4 -16 4q-11 0 -24.5 3.5t-13.5 6.5q0 7 -18 20.5t-29 15.5q-25 5 -41 13.5t-38 29.5q-29 28 -40 54
q-23 55 -30 55q-4 0 -4 28q0 25 3.5 35.5t3.5 21.5q0 13 7 22.5t7 17.5q0 16 25.5 51t36.5 35z" />
</svg>
