<?xml version="1.0" standalone="no"?>
<!DOCTYPE svg PUBLIC "-//W3C//DTD SVG 1.1//EN" "http://www.w3.org/Graphics/SVG/1.1/DTD/svg11.dtd" >
<svg xmlns="http://www.w3.org/2000/svg" xmlns:xlink="http://www.w3.org/1999/xlink" version="1.1" viewBox="-10 0 705 1000">
   <path fill="currentColor"
d="M479 417l4 9.5t9.5 23.5t11 29.5t9.5 30.5t4 24l-2 6.5t-6 21.5t-8 31q-10 39 -26 67.5t-35 38.5q-22 12 -48 20t-45 12.5t-24 6.5q-3 2 -7 2q-1 0 -3.5 -1t-5.5 -2.5t-10 -2.5t-17 -2q-32 -3 -60 -14t-42.5 -22t-26 -20t-16.5 -9q-7 0 -7 -6q0 -3 -7.5 -13t-17.5 -23
t-19 -35t-11 -45q-3 -33 2 -33q6 0 6 -13q0 -6 6.5 -23.5t14.5 -33.5t11 -19q2 -1 5 -7t8.5 -13t26.5 -19t54 -25q22 -8 66.5 -15t71.5 -7q12 0 17.5 1.5t7.5 1.5q10 0 28.5 -20t21.5 -32q4 -15 8 -15t4 -9t7 -9q8 0 25.5 -21.5t29.5 -45.5l13 -27l-13 -1q-23 -1 -27 -4.5
t-24 -3.5t-40 3.5t-25 3.5q-13 0 -37 -8t-28.5 -12t-5.5 -17q0 -12 1 -16t7 -5q9 -2 9 -6q0 -2 8 -2q3 0 10.5 0.5t11.5 0.5l1.5 -0.5t4.5 -0.5t7.5 -0.5t12.5 -1.5t17.5 -1t24 -0.5t31.5 -0.5q100 0 133.5 6.5t33.5 27.5q0 6 -2 24t-2 26q0 9 3 16.5t4 8.5t-3 5q-4 3 -4 40
q0 13 1 39.5t1 40.5q0 15 -0.5 23.5t-2.5 18.5t-7.5 14.5t-14.5 4.5q-5 0 -13 -6t-16 -6q-7 0 -8.5 -6.5t-1.5 -41.5q0 -101 -7 -101q-4 0 -15 12t-11 18q0 1 -11.5 18.5t-23.5 38t-12 28.5q0 6 -5 6q-6 0 -15 13t-9 18q0 7 17 23.5t17 18.5zM316 391q-12 0 -48.5 16
t-52.5 16q-49 0 -69 45q-4 13 -12 20q-6 6 -6 29q0 26 7.5 43.5t30.5 41.5q1 1 4.5 5t6.5 7.5t5.5 7t2.5 5.5t16 10.5t16 11.5q0 4 11 4q12 0 12 4q0 1 3 3t9 4t13 4t17 3t20 1q43 0 80.5 -17t48.5 -44q14 -33 14 -76q0 -18 -4.5 -29t-4.5 -13q0 -7 -0.5 -8t-3.5 -1
q-4 0 -4 -10q0 -25 -38 -54t-74 -29z" />
</svg>
