<?xml version="1.0" standalone="no"?>
<!DOCTYPE svg PUBLIC "-//W3C//DTD SVG 1.1//EN" "http://www.w3.org/Graphics/SVG/1.1/DTD/svg11.dtd" >
<svg xmlns="http://www.w3.org/2000/svg" xmlns:xlink="http://www.w3.org/1999/xlink" version="1.1" viewBox="-10 0 995 1000">
   <path fill="currentColor"
d="M103 729q8 -11 8 -46q0 -36 -3.5 -56t-7.5 -26.5t-4 -10.5q0 -14 -4 -19.5t-4 -13.5q0 -12 14 -25q8 -7 20 -9t61 -2q46 0 68.5 4t58.5 4q34 0 34 -3q0 -2 -37.5 -37t-37.5 -40q0 -4 -12 -13.5t-12 -14.5t-9 -11t-9 -26q0 -13 -3.5 -21t-3.5 -11q0 -14 10.5 -40t10.5 -27
q0 -3 11 -16l12 -12l-19 -22q-34 -40 -34 -101q0 -41 19 -66q11 -14 18 -26q5 -9 33 -16.5t53 -7.5q39 0 77 22t45 22q5 0 22 -15q11 -10 20 -15t35 -9.5t68 -4.5q21 0 44 6.5t35.5 12.5t13.5 7q12 9 19.5 35.5t7.5 51.5q0 23 -8 34.5t-8 15.5q0 6 -7.5 13.5t-9.5 14.5
q-4 11 -12 21q-7 8 -7 11t7 19q25 56 25 73q0 13 -3.5 30t-8.5 31t-10 26t-9 20l-3 7q0 5 -25 33.5t-28 40.5q-3 6 -1 8t4.5 2t11.5 -2q12 -2 61.5 -5.5t63.5 -6.5q7 -2 18 -2q4 0 9.5 0.5t8.5 0.5q9 0 25 -7.5t30 -7.5q23 0 37.5 14.5t14.5 27.5q0 11 -11 20q-15 11 -15 98
q0 25 6.5 33t6.5 20q0 10 -5.5 21t-5.5 15q0 6 -10.5 13t-20.5 7q-11 0 -26.5 -8t-15.5 -21q0 -5 6 -16t3 -31q-3 -12 -3 -32q0 -7 0.5 -13t0.5 -11q0 -19 -4.5 -39.5t-4.5 -24.5q0 -7 -3 -8.5t-18 -1.5q-14 0 -30 5t-45 7q-78 6 -85 12q-5 4 -13 -1t-12 -2q-13 8 -49 8
q-7 0 -56 -4.5t-57 -4.5q-16 0 -32.5 3.5t-19.5 3.5q-5 0 -8.5 -3t-10.5 -3q-5 0 -19.5 2t-24.5 2q-13 0 -29 -2.5t-32 -2.5q-12 0 -32 2t-33 2h-8.5t-10.5 1.5t-7 4.5t1 9q5 7 5 109q0 27 -9 35q-10 8 -18 8q-7 0 -23 -9t-16 -17zM611 214q0 -5 7.5 -16t14 -19.5t4.5 -8.5
q-3 0 8 -15q10 -14 10 -30q0 -2 -2 -30q0 -2 -7 -4.5t-14.5 -5t-9.5 -4.5q-2 -4 -12 -4q-6 0 -25 2t-43.5 10t-24.5 19q0 5 -11 11.5t-15 14.5q-6 13 -23 13q-10 0 -23.5 -5t-22 -10.5t-8.5 -7.5q0 -5 -13 -17t-22 -16q-12 -5 -45 -5q-16 0 -25 1.5t-19 12.5t-10 33
q0 42 21 61q11 11 16 20q8 13 28 13q16 0 38 11t36 21.5t14 12.5q0 6 13 13q10 5 14.5 4t17.5 -10q61 -43 103 -43q16 0 16 -7t7 -7t7 -8zM632 333q0 -12 -2.5 -18.5t-15.5 -12t-37 -5.5q-10 0 -32.5 11t-33.5 21q-7 7 -16 25.5t-11 29.5q-1 9 -21 10q-21 1 -30 -11
q-5 -7 -11.5 -22.5t-12 -25.5t-12.5 -10q-3 0 -6 -4t-9.5 -10t-16.5 -11q-15 -7 -23 -7q-6 0 -11 4.5t-10 4.5q-12 0 -20 15.5t-8 33.5t7 26q1 1 14.5 17.5t22.5 26.5q16 20 41.5 47t40 43.5t14.5 19.5q0 5 43 5h44l11 -20q7 -13 33 -45t31 -46q5 -15 13 -23t8 -11
q0 -2 8 -19.5t8 -38.5z" />
</svg>
