<?xml version="1.0" standalone="no"?>
<!DOCTYPE svg PUBLIC "-//W3C//DTD SVG 1.1//EN" "http://www.w3.org/Graphics/SVG/1.1/DTD/svg11.dtd" >
<svg xmlns="http://www.w3.org/2000/svg" xmlns:xlink="http://www.w3.org/1999/xlink" version="1.1" viewBox="-10 0 1043 1000">
   <path fill="currentColor"
d="M719 288q17 -10 30 7q9 12 9 27q0 33 -26 38.5t-42 -15.5q-11 -13 -11 -16q0 -4 16 -20.5t24 -20.5zM616 349q-14 0 -28 -11t-14 -27q0 -13 11 -26q9 -10 12.5 -10.5t20.5 3.5q30 8 30 33q0 14 -8 26t-24 12zM190 292q-17 0 -29.5 21t-12.5 36q0 25 43 45
q29 13 38.5 38.5t-6.5 35.5q-8 7 -17 7q-6 0 -9.5 -3.5t-16 -11.5t-33.5 -16q-66 -24 -66 -78q0 -37 22 -76.5t49 -49.5q24 -10 83 -10q30 0 42 5q9 5 35 12l24 7l5 -14q5 -16 40 -48.5t58 -43.5q19 -9 33.5 -11t64.5 -2h72l-3 -12q-3 -12 -14 -26q-12 -16 -12 -52
q0 -65 60 -65q15 0 30 13t23 13t34 23.5t27 23.5q5 0 26 22t21 27q0 7 4 7q3 0 10 13t15 34t13 39q5 23 18 27q25 9 48 25.5t23 24.5q0 4 11 18.5t15 47.5q5 27 0.5 41t-28.5 23q-17 6 -42 25.5t-31 19.5q-7 0 -17 9.5t-17 9.5q-4 0 -17.5 4.5t-41.5 6.5q-27 2 -38.5 8.5
t-17.5 6.5q-8 0 -45 6t-50 6q-23 0 -50.5 21t-28.5 21q-11 4 -11 29q0 9 12 29t12 29q0 8 5 13t5 11q0 12 5 17t36.5 9.5t97.5 4.5q36 0 47 -4t26 -4q17 0 27 9t11.5 15.5t1.5 11.5q0 14 -13.5 24.5t-33.5 11.5q-25 1 -55 3t-55.5 4.5t-46.5 4.5t-34 4l-13 1q-14 3 -18 1.5
t-11 -10.5q-9 -13 -9 -20q0 -5 -5 -10t-5 -12q0 -14 -34 -71.5t-34 -67.5q0 -2 3.5 -14t1.5 -15q-3 -4 6 -8q11 -4 24.5 -15.5t13.5 -16.5q0 -7 -8 -7q-11 0 -29.5 -7t-32.5 -14t-16 -7q-7 0 -41.5 -33.5t-40.5 -55.5q-3 -14 -1.5 -25t-4.5 -14q-7 -11 -5 -16.5t0 -12.5
t-14 -15q-15 -11 -31 -11q-11 0 -24.5 -6t-24.5 1q-13 5 -28 5zM781 195q0 -13 -13.5 -33.5t-13.5 -23.5q0 -1 -14 -17t-34 -35.5t-32 -27.5q-27 -16 -28 -10q0 12 19 40t19 29q0 8 21 38t21 37q0 5 5 13.5t2 20.5q-5 18 -17 18q-13 0 -44 -17q-33 -18 -56 -23.5t-66 -5.5
q-65 0 -92 13q-23 10 -33 27t-16 22q-11 11 -11 20q0 6 -7 18t-7 30q0 21 7 34t28.5 35t27.5 22q5 0 12 9.5t14 9.5q5 0 10.5 3.5t35.5 3.5q55 0 140 -8.5t96 -15.5t24 -7q26 0 55.5 -15t33.5 -16q13 -3 29 -17.5t16 -23.5q0 -16 -18 -43t-28 -27q-21 11 -45 11
q-12 0 -24 -9.5t-12 -16.5v-1l1 -2q3 -4 -3 -18.5t-4 -30.5q0 -2 0.5 -5.5t0.5 -4.5z" />
</svg>
