<?xml version="1.0" standalone="no"?>
<!DOCTYPE svg PUBLIC "-//W3C//DTD SVG 1.1//EN" "http://www.w3.org/Graphics/SVG/1.1/DTD/svg11.dtd" >
<svg xmlns="http://www.w3.org/2000/svg" xmlns:xlink="http://www.w3.org/1999/xlink" version="1.1" viewBox="-10 0 933 1000">
   <path fill="currentColor"
d="M631 289q3 -3 11 -3q24 0 43 13q11 7 11 20.5t-5.5 23.5t-10.5 13q-12 10 -33 5q-22 -5 -25 -18.5t-6 -15.5q-1 0 -1 -3q0 -15 16 -35zM510 321q0 -10 11.5 -24t28.5 -14q11 0 22 8t12 17q0 4 2 12t2 12q0 13 -7.5 20.5t-19.5 7.5q-17 0 -34 -13t-17 -26zM335 215
q0 -14 35.5 -31.5t47.5 -17.5q6 0 6 -5q0 -9 75 -11l29 -1l-1 -15q-3 -29 30.5 -47t60.5 -18q10 0 27 18t28 20q10 2 26 15t16 19q0 2 7.5 8.5t17 20.5t14.5 33q3 11 33 26.5t35 20.5q5 4 11.5 7.5t9.5 6.5t3 7q0 5 5.5 15.5t5.5 23.5q0 20 -6 20q-5 0 -5 13q0 12 -15 27
q-9 8 -22.5 22.5t-22 22.5t-12.5 8q-7 0 -7 5q0 7 -27.5 13.5t-61.5 13t-42 10.5q-17 7 -20.5 6.5t-7.5 -4.5t-11 -4q-3 0 -29 8.5t-42 8.5q-11 0 -15.5 1t-6.5 5t-3 8.5t-7 15t-17 22.5q-18 19 -18 25q0 8 11 21.5t11 16.5q0 7 4 7q5 0 5 6q0 7 12.5 29t19.5 27q8 6 13 14
q6 9 31 9q13 0 45 -1t35 -1q74 0 74 7q0 4 7 12.5t6 25.5q0 17 -8.5 23t-30.5 6q-41 0 -44 4q-5 5 -70 5h-66l-21 -21q-18 -18 -18 -29q0 -17 -53 -78t-51 -66q2 -6 2 -15t6 -9t33 -34t27 -41q0 -3 -35 -9q-34 -6 -52 -22t-22 -16t-4 -7q0 -6 -7 -10t-7 -9q0 -4 -5.5 -17.5
t-6.5 -24.5q-4 -73 -9.5 -88t-33.5 -15q-34 0 -71.5 22t-37.5 45t11.5 44.5t11.5 23.5q0 3 3.5 9.5t20 15.5t42.5 9q10 0 21 -1t17 -1q16 0 22 6t6 22q0 18 -7 18t-7 4q0 13 -61 13q-34 0 -59.5 -7t-25.5 -16q0 -4 -7 -9.5t-12 -13.5q-5 -9 -20 -29q-12 -15 -14.5 -34.5
t-6.5 -29.5q-6 -15 -6 -27q0 -13 9.5 -32.5t28.5 -41.5t55.5 -37.5t82.5 -15.5q14 0 36.5 9t22.5 15q0 4 12 4q11 0 11 -7zM648 156q-1 0 -20.5 -14t-33.5 -14q-5 0 -5 2q0 11 25 50t25 50q0 6 -1 10q-2 13 -5 16t-14 3q-12 0 -25.5 -9t-14.5 -9t-14 -9.5t-21 -9.5
q-7 0 -16.5 -5.5t-20.5 -5.5q-19 0 -37.5 9.5t-26.5 7.5q-10 -3 -17 5t-11 5q-1 -1 -4 -1q-13 0 -31.5 23.5t-18.5 48.5q0 5 1.5 16.5t8 30t17.5 24.5q13 7 13 11t11.5 3t11.5 1q0 6 16.5 12t32.5 6q1 0 10 -0.5t24 -1.5t30 -1q73 0 81 -4q2 -2 39 -4t41 -6q3 -2 20 -7.5
t22 -12.5q3 -4 24.5 -17.5t30.5 -33.5q5 -11 -8 -27q-13 -17 -30.5 -15.5t-31.5 -4.5q-10 -6 -19.5 -26t-9.5 -35q0 -12 -7 -17t-7 -9q0 -5 -14.5 -20t-19.5 -15z" />
</svg>
