<?xml version="1.0" standalone="no"?>
<!DOCTYPE svg PUBLIC "-//W3C//DTD SVG 1.1//EN" "http://www.w3.org/Graphics/SVG/1.1/DTD/svg11.dtd" >
<svg xmlns="http://www.w3.org/2000/svg" xmlns:xlink="http://www.w3.org/1999/xlink" version="1.1" viewBox="-10 0 1096 1000">
   <path fill="currentColor"
d="M690 345q14 0 26.5 16t12.5 31q0 10 -2 16q-4 11 -8 13t-27 2q-22 0 -26.5 -2t-8.5 -12q-5 -14 -10 -14q-3 -1 -0.5 -3.5t5 -7t0.5 -7.5t3.5 -10.5t15.5 -14.5t19 -7zM771 378q0 -20 9 -33.5t23 -13.5q19 0 30.5 18.5t11.5 32.5q0 11 -14 23.5t-26 12.5q-4 0 -10 -1.5
t-15 -11.5t-9 -27zM449 297q3 0 15 -12t15 -12q2 0 8 -6.5t20 -11.5q13 -4 22 -10.5t18 -7.5q4 0 35.5 -11.5t106.5 -17.5q34 -2 41 -2q34 0 99.5 13t82.5 26q6 4 35.5 12.5t35.5 23.5q26 60 26 87q0 11 -6.5 19t-6.5 15q0 9 -16.5 29.5t-23.5 20.5q-4 0 -12 7t-16 7
t-21.5 9t-17.5 9t-18 10t-42 25t-61 25q-2 1 -16 6.5t-29.5 11.5t-36.5 11.5t-38 6.5q-11 1 -26 6.5t-29 3.5q-47 -7 -61 -13q-19 -8 -33 -15t-18.5 -10t-8 -5t-7.5 -2q-9 0 -9 -6q0 -4 -15 -19t-31 -39t-18 -49q-2 -20 -7 -27t-34 -26q-27 -18 -33 -24q-2 -2 -37 -12.5
t-36 -10.5q-21 0 -49 19q-20 13 -31 17q-18 8 -18 19q0 41 44 78l5 5l6.5 6.5l4.5 4.5q6 8 16 8q7 0 13.5 8.5t6.5 18.5q0 7 -6 15.5t-19 8.5q-14 0 -41.5 -14t-30.5 -14q-4 0 -18 -13t-14 -17q0 -1 -9.5 -13t-8.5 -27q1 -11 -3 -23t-4 -15q0 -8 8 -35.5t8 -34.5q0 -9 5 -9
t24.5 -12t51.5 -24t68 -12q62 0 96 23q45 31 65 31q3 0 3 -1q2 -7 14.5 -20t16.5 -13zM947 365q0 -6 -6 -16.5t-6 -15.5q0 -7 -20.5 -21t-33.5 -16q-42 -7 -67 -14t-31 -10t-18.5 -5t-37.5 -2q-50 0 -103 12t-62 21q-8 8 -15 8t-40.5 31.5t-33.5 47.5q0 4 5.5 12t2.5 17
q-2 8 -2 13q0 44 49 69t95 25q25 0 50.5 -11t45.5 -15q28 -6 69.5 -26.5t71.5 -37.5t35 -17q7 0 7 -7q0 -5 22.5 -17t22.5 -25z" />
</svg>
