<?xml version="1.0" standalone="no"?>
<!DOCTYPE svg PUBLIC "-//W3C//DTD SVG 1.1//EN" "http://www.w3.org/Graphics/SVG/1.1/DTD/svg11.dtd" >
<svg xmlns="http://www.w3.org/2000/svg" xmlns:xlink="http://www.w3.org/1999/xlink" version="1.1" viewBox="-10 0 1029 1000">
   <path fill="currentColor"
d="M590 413q-13 0 -20.5 -11.5t-8.5 -18.5t-1 -12q0 -7 14 -22q10 -10 15 -12t16 0q30 6 30 26q0 5 -15 37q-6 13 -30 13zM679 365q0 -7 6 -13t6 -13q0 -10 18 -13q1 0 11 7t20 17.5t10 18.5q0 23 -6.5 31t-21.5 8t-29 -14.5t-14 -28.5zM261 238q22 0 39 4.5t23.5 8.5t6.5 5
q0 3 8 3q6 0 18 -17t24 -23q10 -4 19.5 -15t22.5 -14q22 -6 44.5 -10.5t39.5 -6.5t30.5 -3t20.5 -2h7q4 -4 54.5 8.5t82.5 27.5q20 9 57 20.5t43 14.5q5 3 34 10.5t41 19.5q8 7 16 12.5t12.5 7.5t8 6.5t5.5 12.5q2 9 5.5 16t4.5 8.5t0 5.5q-2 3 2.5 7t9.5 10.5t5 15.5
q0 31 -58 78q-40 33 -66.5 36t-38.5 9q-11 5 -21.5 7t-18.5 5t-17 12q-15 14 -51.5 23.5t-48.5 14.5q-19 9 -45 9q-6 0 -10.5 -2t-5.5 -2.5t-7 3.5q-7 5 -32 2q-27 -3 -27 7q0 7 -9 18t-9 34q0 18 4.5 25.5t4.5 12.5q0 6 7 12t9 15q4 13 14 25q8 10 18.5 12t56.5 2
q39 0 54 -7q13 -7 20.5 -4t10.5 2q2 -1 7 -1q12 0 23 11t11 23q0 5 -11 27q-3 6 -22 6q-5 0 -13 -0.5t-13 -0.5q-9 0 -53 10.5t-91 10.5q-34 0 -40 -15q-2 -5 -11.5 -16t-9.5 -18q0 -19 -18.5 -48t-20.5 -35q-4 -13 -9 -17t-8 -2.5t-6 -2.5t-5 -16q-3 -18 8.5 -33.5
t11.5 -17.5q0 -1 12 -13.5t12 -21.5q0 -7 -5 -7q-10 0 -45 -40.5t-35 -52.5q0 -5 -3.5 -10.5t-4.5 -13.5q-3 -26 -4 -37t-4.5 -30.5t-7.5 -28t-10.5 -19t-16 -14t-22.5 -3.5q-58 0 -81 24q-47 48 -47 80q0 24 19.5 48.5t28.5 26.5q21 6 42 17q8 4 22 -3.5t21 -7.5
q18 0 18 38q0 18 -8.5 27t-17.5 9q-1 0 -16.5 -2.5t-33.5 -5.5t-24 -5q-17 -5 -42 -22t-37 -32q-12 -14 -23 -35t-11 -28q0 -2 1 -2q0 4 0.5 -1t0.5 -18t4 -26t9.5 -25.5t6.5 -17.5q5 -17 23 -35q15 -15 30 -33q9 -12 39 -19.5t62 -7.5zM423 332q0 12 -13 24t-13 28
q0 3 2 13.5t11.5 29.5t24.5 35.5t45.5 29t69.5 12.5q34 0 61 -7q45 -11 57 -13q25 -4 47.5 -20.5t29.5 -16.5q11 0 44.5 -12t43.5 -14q17 -4 17 -7q0 -5 11 -9q9 -4 14 -14t0 -14q-1 -1 -11.5 -15t-24.5 -16q-15 -3 -22 -10.5t-7 -15t-2.5 -13.5t-10.5 -6q-15 0 -44 -13
t-32 -14q-7 -2 -45 -17t-79 -24q-23 -5 -40 -5q-37 0 -87.5 14.5t-50.5 24.5q0 5 -8 10q-7 7 -4 11.5t9.5 18t6.5 25.5z" />
</svg>
