<?xml version="1.0" standalone="no"?>
<!DOCTYPE svg PUBLIC "-//W3C//DTD SVG 1.1//EN" "http://www.w3.org/Graphics/SVG/1.1/DTD/svg11.dtd" >
<svg xmlns="http://www.w3.org/2000/svg" xmlns:xlink="http://www.w3.org/1999/xlink" version="1.1" viewBox="-10 0 1014 1000">
   <path fill="currentColor"
d="M569 442q0 -7 5 -19t15 -22t20 -10q13 0 23 13.5t10 27.5q0 15 -9.5 25.5t-24.5 10.5q-12 0 -25.5 -8.5t-13.5 -17.5zM703 391q0 -11 19 5q13 13 17 13t7.5 11t3.5 22q0 17 -8 22.5t-31 7.5q-12 1 -16.5 -1.5t-12.5 -13.5q-11 -16 -11 -33q0 -7 1.5 -10.5t4.5 -6t10 -5.5
q16 -7 16 -11zM558 263q20 0 46 6t27 6q8 0 9.5 -6.5t1.5 -26.5q0 -28 15.5 -41.5t57.5 -22.5q12 -2 16.5 -0.5t15.5 12.5q9 9 17.5 13t13 4.5t9.5 6t10 19.5q6 14 13 22t12 14.5t8 17.5q5 17 19 30.5t26.5 22t13.5 12.5q2 6 11 17.5t16 24t7 23.5q0 15 -8 33t-21 34t-29 25
q-7 4 -11.5 8.5t-6.5 7.5t-4 4.5t-5 1.5l-8.5 3.5t-23 9t-32.5 11.5t-42 10t-47 5q-13 0 -22 3t-10 3.5t-7 -1.5q-6 -5 -18.5 -5t-15.5 4q-1 2 -4 2.5t-6 -0.5t-9 -0.5t-13 2.5q-6 2 -13 2q-20 0 -39.5 -9t-32 -17.5t-16.5 -8.5t-11.5 -4.5t-14.5 -9t-10.5 -4.5t-12.5 -13.5
t-20.5 -30t-18.5 -21.5q-11 -9 -11 -17q0 -11 -7 -28t-22.5 -37.5t-46 -34.5t-70.5 -14q-23 0 -41.5 4t-18.5 9q0 3 -18.5 21t-18.5 30q0 1 1.5 6t5.5 14.5t9.5 19.5t15 20t19.5 17q17 10 17 42q0 10 -4.5 13.5t-15.5 3.5q-10 0 -20 -6.5t-33 -30.5l-36 -37l-1 -29
q0 -19 -3 -33.5t0 -21.5q3 -18 26 -44t23 -28t9.5 -5.5t21 -7.5t13.5 -6q11 -7 59 -7q32 0 65 13t48 23t18 14l18 16l34 -29q46 -39 81 -39q9 0 22.5 -5t27.5 -5zM806 475q11 0 24 -11.5t16 -11.5q5 0 9.5 -4t7 -10t2.5 -12q0 -8 -8.5 -20t-19 -21t-14.5 -9q-2 0 -9 -6
t-14.5 -14t-13.5 -15t-6 -10l0.5 -1.5t0.5 -3.5q0 -6 -2 -17.5t-5 -21t-5 -9.5q-3 0 -4.5 -6t-7 -14t-19.5 -12q-16 -5 -21 -5q-3 0 -5.5 2t-4 4.5t-3 6t-2 7t-1 6t-0.5 4.5l-1 2q0 8 10.5 23.5t10.5 21.5q0 5 -6 15.5t-12 18.5l-6 8q-7 10 -10.5 10.5t-9.5 -4.5
q-6 -6 -20 -11t-19 -8q-16 -12 -34 -17.5t-53 -5.5q-26 0 -35 6q-5 4 -14 7.5t-15.5 6t-12 5.5t-5.5 5t-20 25q-7 7 -4 7q4 0 2 7q-1 1 -1 5q0 19 26 53q19 25 40 37.5t51.5 16.5t87.5 4q65 0 94 -5.5t41 -19.5q8 -9 20 -9z" />
</svg>
