<?xml version="1.0" standalone="no"?>
<!DOCTYPE svg PUBLIC "-//W3C//DTD SVG 1.1//EN" "http://www.w3.org/Graphics/SVG/1.1/DTD/svg11.dtd" >
<svg xmlns="http://www.w3.org/2000/svg" xmlns:xlink="http://www.w3.org/1999/xlink" version="1.1" viewBox="-10 0 722 1000">
   <path fill="currentColor"
d="M105 378q17 0 55 2t60 2q7 0 20 -0.5t18 -0.5l60 -2l6 -17q6 -19 25.5 -44t23.5 -32q11 -18 24 -21q14 -3 14 -6q0 -2 11 -8.5t11 -9.5q0 -6 17.5 -34t22.5 -33q3 -3 7 -4.5t6.5 -1.5t8.5 1t8 1q9 0 9 23q0 9 -4 23.5t-7 14.5q-4 0 -13 15q-16 26 -87 97q-16 16 -16 25
q0 11 25 11h8q56 0 101 -8q62 -11 85 -11q3 0 10 1.5t12 2.5t5 0q0 -3 7 7l2 2q9 12 9 29q0 31 -17 31q-20 0 -28 43q-2 14 -15.5 39.5t-16.5 35.5q-3 14 -10 27.5t-11 13.5t-13 18q-12 23 -56 55q-15 11 -55 21.5t-69 10.5q-26 0 -52.5 -4t-28.5 -8t-13 -4q-12 0 -31 -10
t-28 -21q-11 -12 -20 -18q-10 -6 -30 -33q-21 -28 -21 -45q0 -18 -8 -26q-17 -17 -31 -55q-2 -4 -5 -13t-5.5 -15.5t-4.5 -10.5q-7 -14 -7 -24t-4 -10q-5 0 -5 -7q0 -15 41 -15zM206 443q-6 -3 -9.5 -4t-5.5 -1t-8 1l-12 2q-18 2 -18 5q0 9 6 28t10 24q4 4 9.5 19t10.5 19
q6 4 6 12t31.5 38t42.5 32q6 1 17.5 4.5t21 5t21.5 1.5q30 0 64 -8q24 -6 40 -16.5t46 -39.5q15 -15 22 -15q6 0 12.5 -11t3.5 -16q0 -1 -1 -3q0 -10 9.5 -32t16.5 -26q9 -7 9 -16q0 -8 -13 -8q-14 0 -26 1q-143 9 -227 9q-69 0 -79 -5z" />
</svg>
