<?xml version="1.0" standalone="no"?>
<!DOCTYPE svg PUBLIC "-//W3C//DTD SVG 1.1//EN" "http://www.w3.org/Graphics/SVG/1.1/DTD/svg11.dtd" >
<svg xmlns="http://www.w3.org/2000/svg" xmlns:xlink="http://www.w3.org/1999/xlink" version="1.1" viewBox="-10 0 534 1000">
   <path fill="currentColor"
d="M97 320q0 -4 -2.5 -15t-2.5 -16q0 -17 6.5 -57.5t10.5 -51.5q8 -18 13 -38q5 -17 21 -30.5t33 -19.5t37.5 -10t29.5 -4.5t13 -0.5q17 0 54 7t37 11q0 2 9.5 13t20.5 27t14 28q3 10 12 31.5t9 25.5t7 11t5 10v1q-1 2 -1 4l1 10q1 9 2 25t2.5 36.5t3 44t2.5 47t2 47.5t1 42
t-0.5 34t-1.5 28t-2 22t-2.5 17t-2.5 12t-2 7v3q0 3 -4.5 14.5t-19 29.5t-33.5 28q-37 19 -37 30q0 3 -19.5 6t-34.5 3q-6 0 -15 -2.5t-28 -4.5q-32 -3 -70.5 -30t-50.5 -55q-19 -46 -19 -73q0 -5 0.5 -15t0.5 -19q0 -15 -2 -29.5t-2 -15.5q0 -4 3 -8t3 -5t-3 -7.5
t-5.5 -22.5t-2.5 -42q0 -37 5 -59.5t5 -23.5zM295 146q-8 -8 -47 -8q-26 0 -44.5 11t-28.5 26t-16 44t-7.5 51.5t-2.5 61.5l-1 47l39 -1q127 -5 141 -8q18 -3 28 2t14.5 0t2.5 -19q0 -1 -3 -31.5t-7.5 -58.5t-9.5 -39q-26 -56 -41 -65q-10 -6 -17 -13zM214 443
q-14 0 -26 8.5t-19 8.5q-5 0 -8.5 -3t-5 -6t-2.5 -3q-2 0 -2 23v20q0 77 14 105q12 24 20 24t13 9q7 9 25.5 19t28.5 10h37q38 0 61.5 -33t23.5 -86v-73l1 -29l-22 3q-24 4 -30 4q-7 0 -29 -2.5t-31 -2.5q-10 0 -13.5 3.5t-8.5 3.5q-3 0 -12 -1.5t-15 -1.5z" />
</svg>
