<?xml version="1.0" standalone="no"?>
<!DOCTYPE svg PUBLIC "-//W3C//DTD SVG 1.1//EN" "http://www.w3.org/Graphics/SVG/1.1/DTD/svg11.dtd" >
<svg xmlns="http://www.w3.org/2000/svg" xmlns:xlink="http://www.w3.org/1999/xlink" version="1.1" viewBox="-10 0 666 1000">
   <path fill="currentColor"
d="M256 91q48 0 88.5 -0.5t67.5 -2t48.5 -3t33.5 -2.5t20 -2.5t12 -2.5h3q21 0 37 16t16 30q0 9 -8 19t-9 43q-2 88 -4 110t-10 30q-11 11 -11 17q0 21 -33.5 49.5t-33.5 29.5l-6 14q0 8 35 43q25 26 32 37t13 33q26 95 26 211q0 36 -29 36q-6 0 -18 -2q-4 -1 -8.5 -21.5
t-4.5 -41.5v-10q0 -20 -3 -36t-4 -35q-2 -35 -17 -70t-32 -46q-9 -6 -9 -16q0 -6 -14.5 -17.5t-22.5 -11.5q-4 0 -24 -8.5t-37 -8.5q-25 0 -69.5 36.5t-44.5 49.5q0 5 -9.5 20.5t-9.5 48.5q0 2 1 51l1 49q0 27 -4 36.5t-17 9.5q-8 0 -31 -5q-11 -3 -11 -17
q0 -18 -23.5 -55.5t-23.5 -41.5q0 -3 -25.5 -34.5t-25.5 -47.5q0 -27 31 -27h22l23 36q19 31 26 31q3 0 6 -16t7 -35t9 -25q6 -6 22.5 -31.5t38.5 -44.5q22 -18 26 -18t4 -3q0 -6 -12.5 -18t-18.5 -12q-4 0 -12 -7.5t-20 -12.5q-16 -7 -34 -39q-39 -70 -46.5 -86.5
t-8.5 -32.5q-1 -27 -4.5 -50t-6.5 -35t-3 -13q0 -36 7.5 -45.5t26.5 -9.5q6 0 13 3t31 6.5t71 3.5zM488 320q7 0 11.5 -15.5t6 -37t2 -34t0.5 -17.5q0 -33 -4.5 -44t-18.5 -14q-24 -4 -95 -4q-5 0 -32.5 1t-89.5 2l-86 2l1 32q1 24 10 60t17 46q7 9 8 14q2 7 34 33t57 42
q22 14 50 14q26 0 40.5 -5.5t26.5 -14t23 -12.5q8 -4 21.5 -20.5t13.5 -22.5q0 -5 4 -5z" />
</svg>
