<?xml version="1.0" standalone="no"?>
<!DOCTYPE svg PUBLIC "-//W3C//DTD SVG 1.1//EN" "http://www.w3.org/Graphics/SVG/1.1/DTD/svg11.dtd" >
<svg xmlns="http://www.w3.org/2000/svg" xmlns:xlink="http://www.w3.org/1999/xlink" version="1.1" viewBox="-10 0 796 1000">
   <path fill="currentColor"
d="M366 629h-15q-27 0 -39 -6q-14 -7 -28 -3q-62 19 -92 19q-11 0 -23.5 -5.5t-12.5 -10.5q0 -9 5.5 -23.5t10.5 -19.5q6 -6 42 -16q25 -7 61 -7q51 0 140 11.5t94 26.5q2 7 13 7q12 0 72 28q5 2 35.5 13t43.5 21.5t13 28.5q0 14 -14 21.5t-31 7.5q-7 0 -17 -4.5t-17 -4.5
q-9 0 -12 -2t-2 -4.5t-0.5 -5t-8.5 -4.5q-15 -4 -29 -15q-13 -10 -36 -19.5t-33 -9.5q-7 0 -15 -6q-7 -7 -41 -12.5t-64 -5.5zM437 201q0 -9 9 -16.5t20 -7.5t24.5 10.5t53.5 47.5q11 11 17 4q50 -61 59 -66q10 -6 15 -6q6 0 27 11q3 2 3 22q0 17 -3 17q-4 0 -34.5 36.5
t-30.5 41.5q0 7 34 42t51 46q16 10 26.5 24.5t10.5 25.5q0 20 -33 20q-26 0 -69 -39q-25 -22 -40 -35l-23 -18l-10 12q-3 3 -25 31q-15 19 -30 19t-21.5 -3t-6.5 -14q0 -23 14 -35q9 -7 9 -11q0 -2 21 -27.5t21 -28.5q0 -6 -17 -23q-45 -42 -58.5 -57t-13.5 -23zM277 157
q11 0 22 9.5t11 20.5q0 13 -12 26q-9 10 -21 29.5t-22 30.5q-15 17 -15 26t15 24.5t23 15.5q9 0 9 7q0 5 18 17q15 9 26 20t11 17l-5 20q-2 10 -5.5 11t-17.5 -1q-20 -3 -36 -19t-21 -16q-6 0 -33 -25l-28 -26l-18 20q-19 21 -24 34q-8 19 -30 19q-20 0 -20 -25
q0 -10 9 -27.5t16 -20.5q4 -2 4 -6q0 -2 8 -15t8 -19q0 -16 -49 -54q-20 -15 -25 -19q-8 -5 -8 -16q0 -18 22 -24q18 -6 34 5q12 7 28 24t26 24l17 11l11 -13q12 -13 17 -28q6 -16 9 -16q4 0 15 -18q13 -23 31 -23z" />
</svg>
