<?xml version="1.0" standalone="no"?>
<!DOCTYPE svg PUBLIC "-//W3C//DTD SVG 1.1//EN" "http://www.w3.org/Graphics/SVG/1.1/DTD/svg11.dtd" >
<svg xmlns="http://www.w3.org/2000/svg" xmlns:xlink="http://www.w3.org/1999/xlink" version="1.1" viewBox="-10 0 855 1000">
   <path fill="currentColor"
d="M258 480q0 -9 -9 -16t-9 -12t-14.5 -20t-14.5 -24t9 -21t20 -12q12 0 30 17t20 17t18.5 -30.5t29.5 -30.5q21 0 35.5 8t14.5 19q0 5 -6 12.5t-6 9.5q0 3 -14 19t-14 18q0 3 -10 14t-10 20q0 13 19 34.5t37 29.5q24 11 24 26q0 34 -25 34q-15 0 -47.5 -26.5t-34.5 -26.5
q-3 0 -21 21.5t-36 21.5q-23 0 -29 -33q-2 -11 -1 -14.5t7 -3.5q9 0 23 -18t14 -33zM522 355q0 -13 10 -26t24 -13q7 0 20 5q15 5 15 22q0 18 -19.5 57.5t-19.5 52.5q0 14 13.5 26t27 26.5t13.5 34.5q0 13 -6.5 18.5t-23.5 5.5q-19 0 -27 -6t-18 -26q-11 -24 -14 -24
q-11 1 -33.5 44.5t-31.5 43.5q-13 0 -24.5 -13t-11.5 -22q14 -38 20 -45q7 -8 26 -41l8 -14l-28 -27q-26 -25 -26 -36q0 -26 16 -41q9 -8 13.5 -9.5t15.5 2.5q9 3 19.5 13.5t17.5 19t9 8.5q3 0 9 -15t6 -21zM263 114q3 0 10 -9.5t14 -9.5q9 0 9 -3q0 -4 17.5 -12t27.5 -8
q7 0 13.5 -4t19.5 -5q18 0 20 -2t14 0.5t17 6.5q6 4 31 4q27 0 30 5q1 3 31 17.5t35 14.5q1 0 25.5 16.5t29.5 16.5q6 0 39.5 33.5t39.5 45.5q5 12 20.5 34t27 46t14.5 54q2 24 9.5 51t11.5 27t0 27q-7 52 -8 62q-2 23 -7 39t-9 22.5t-7 11t-3 6.5q0 7 -1 10t-3 4t-7 8
t-11 19q-7 16 -35.5 45.5t-39.5 33.5q-9 2 -9 7t-5 5t-20 11q-37 29 -162 29q-81 0 -150 -22q-40 -13 -102.5 -70t-70.5 -89q-3 -13 -9.5 -27.5t-10.5 -23.5t-4 -13q0 -6 -8 -22q-8 -15 -8 -62q0 -57 2.5 -75.5t12.5 -38.5q11 -23 16 -39q2 -7 18 -29t31 -41t15 -20
q0 -4 42.5 -45.5t46.5 -41.5zM483 147q-3 0 -7.5 -4.5t-20 -8.5t-46.5 -4q-64 0 -85 13q-12 6 -16.5 9t-8 7t-3.5 10q0 12 -4.5 18.5t-21.5 18.5q-11 7 -32.5 23.5t-34.5 25.5t-15 9q-4 0 -4 10q0 11 -7 18q-8 9 -21.5 38t-13.5 37q0 9 -8 13q-7 4 -10 54l-2 49l19 40
q19 38 19 45q0 4 30 34.5t50 46.5q84 63 201 63q62 0 94 -10q20 -7 57 -29t41 -30l21 -28q22 -28 30 -44q22 -42 22 -111q0 -30 -8 -53t-8 -34q0 -19 -24 -66t-35 -50q-9 -2 -14 -17t-13 -19q-11 -6 -37 -28.5t-36 -22.5t-10 -3t-16 -11.5t-22 -8.5z" />
</svg>
