<?xml version="1.0" standalone="no"?>
<!DOCTYPE svg PUBLIC "-//W3C//DTD SVG 1.1//EN" "http://www.w3.org/Graphics/SVG/1.1/DTD/svg11.dtd" >
<svg xmlns="http://www.w3.org/2000/svg" xmlns:xlink="http://www.w3.org/1999/xlink" version="1.1" viewBox="-10 0 931 1000">
   <path fill="currentColor"
d="M557 514q0 4 -5 14t-5 13t4 3q7 0 35.5 -13.5t34.5 -13.5t6 -4t14 -9q11 -4 50 -42t42 -48q1 -5 19 -16.5t22 -18.5q8 -14 21.5 -27t20.5 -13t24 16t17 23q0 1 -5.5 11t-15 22t-16.5 16q-9 4 -26 21.5t-21 17.5q-5 0 -5 4t-19 17t-19 16t-4 7.5t-13 15.5t-17 23
q-14 20 -40 27q-16 4 -51.5 17.5t-49.5 15.5q-8 1 -39.5 14t-61.5 13q-7 0 -15 -1.5t-11 -2.5t-7 0q-2 1 -80 7.5t-85 9.5q-9 5 -15 0q-5 -5 -82 -9q-56 -3 -67 -5t-17 -10q-12 -17 -12 -29q0 -9 11 -18t20.5 -13t11.5 -4l1 1q0 2 5.5 0t11.5 -3.5t12 1.5q7 4 47.5 9t67.5 5
q36 0 36 -9q0 -4 -6 -10t-15.5 -19t-15.5 -31q-5 -16 -11.5 -26.5t-10 -15t-3.5 -8.5q0 -2 1 -4.5t1 -4.5q0 -9 -12 -33.5t-12 -32.5q0 -4 13.5 -38.5t19.5 -39.5q7 -5 7 -12q0 -9 11.5 -27t25.5 -31q33 -30 37 -34q10 -10 23 -18t21.5 -12t10.5 -7q3 -5 22 -5q27 0 51 9.5
t44 9.5q26 0 26 5q0 3 16.5 12.5t16.5 13.5q0 2 14 23t28 52t14 57q0 18 -5 43t-12 47t-13.5 41.5t-11.5 32.5zM399 558q11 0 26 -8.5t21 -8.5q8 0 27.5 -20t25.5 -35q7 -19 10 -20q8 -7 17 -48.5t9 -75.5q0 -16 -4 -30t-10 -23.5t-11.5 -16.5t-9.5 -12l-5 -4
q-7 -16 -39.5 -27t-55.5 -11q-14 0 -34 9t-20 16t-6 7t-25.5 22t-19.5 28t-13 31t-13 47q0 19 10 34t12 28q7 39 44 78.5t64 39.5z" />
</svg>
