<?xml version="1.0" standalone="no"?>
<!DOCTYPE svg PUBLIC "-//W3C//DTD SVG 1.1//EN" "http://www.w3.org/Graphics/SVG/1.1/DTD/svg11.dtd" >
<svg xmlns="http://www.w3.org/2000/svg" xmlns:xlink="http://www.w3.org/1999/xlink" version="1.1" viewBox="-10 0 668 1000">
   <path fill="currentColor"
d="M206 378q0 7 -1.5 15.5t-12.5 20t-30 11.5q-72 0 -86 -16q-7 -7 -7 -26q0 -56 29 -77q19 -14 31 -14q22 0 49.5 28.5t27.5 57.5zM305 697q0 -4 1.5 -15t1.5 -24q-1 -20 -1 -61q0 -37 3.5 -54.5t4.5 -54.5q1 -27 3.5 -48t4 -31.5t1.5 -14.5q0 -3 -2 -9q-4 -7 0 -17.5
t2 -14.5q-3 -4 3.5 -12t-0.5 -11q-4 -3 -4 -17q0 -7 1 -19.5t1 -22.5q0 -34 -6 -76.5t-13 -56.5q-4 -8 -2.5 -13t11.5 -16q11 -13 17 -15t30 -2q34 0 42 -4t55 -4q68 0 85 2t24 12q8 11 8 22q0 12 -12.5 27t-30.5 15q-2 0 -14 -1.5t-38.5 -3t-63.5 -1.5q-20 0 -23.5 0.5
t-3.5 4.5q0 9 2 37t2 45v9q-1 8 -2 21.5t-2 29t-2 33t-2 31.5q0 1 -4 62t-8.5 125.5t-4.5 73.5q0 15 9 18t59 3q15 0 30 -0.5t25.5 -1.5t18.5 -1.5t13 -1.5h4q16 0 42 16.5t26 33.5q0 25 -18 25q-8 0 -12.5 6t-11.5 -1q-7 -4 -71 -4h-53l-51 1q-45 0 -59.5 -4.5t-14.5 -19.5
z" />
</svg>
