<?xml version="1.0" standalone="no"?>
<!DOCTYPE svg PUBLIC "-//W3C//DTD SVG 1.1//EN" "http://www.w3.org/Graphics/SVG/1.1/DTD/svg11.dtd" >
<svg xmlns="http://www.w3.org/2000/svg" xmlns:xlink="http://www.w3.org/1999/xlink" version="1.1" viewBox="-10 0 928 1000">
   <path fill="currentColor"
d="M241 420q3 0 6.5 -4.5t3.5 -7.5t9.5 -16.5t9.5 -20.5q0 -9 4 -9q6 0 16 -27t13 -53q9 -80 37 -80q5 0 13 5q4 2 14.5 33t16.5 37q2 2 11.5 21.5t21.5 45.5t23.5 51.5t19.5 44.5l9 18q6 14 12 15q4 0 4 -9q0 -3 9.5 -29t11.5 -48q2 -26 11.5 -53t9.5 -35q0 -9 5 -25.5
t5 -30.5q0 -9 13.5 -21t23.5 -12q5 0 14.5 5.5t9.5 15.5q0 4 8 21.5t21 46t21 52.5q15 45 27 45q5 0 10 -8q14 -19 22.5 -39.5t13.5 -29t17 -8.5q8 0 20.5 11t12.5 18t4 9q3 1 30 42t27 44q0 1 9 11t9 28q0 34 -19 34q-10 0 -35.5 -26t-27.5 -39q-1 -10 -11 -16.5t-20 -6.5
q-13 0 -13 12q0 6 -7 30.5t-9 32.5q-1 8 -9 14t-16 6q-4 0 -9 -3.5t-10 -3.5q-10 0 -19.5 -13t-11.5 -29q-3 -24 -17 -48t-18 -34q-5 -13 -14 -25.5t-14 -12.5t-5 22q0 19 -5 29q-9 16 -25.5 97.5t-16.5 92.5q0 12 -2.5 16.5t-13.5 9.5q-12 5 -22 5q-9 0 -24 -5
q-13 -5 -20 -77q-2 -17 -21 -57.5t-19 -47.5q0 -9 -13.5 -29t-13.5 -23q0 -5 -12.5 -22.5t-16.5 -17.5q-3 0 -7.5 19t-14.5 51t-25 57q-14 24 -14 31q0 26 -41 26q-6 0 -8.5 -1t-7 -6t-9.5 -16q-8 -18 -23 -40t-19 -22q-5 0 -16.5 12.5t-11.5 18.5q0 2 -2.5 9t-11 15.5
t-20.5 8.5q-15 0 -28 -9.5t-13 -22.5q0 -8 15 -25t28 -24q16 -8 25.5 -40t12.5 -35q9 -9 26 -9q5 0 19.5 5t14.5 13q0 5 12 35t20 30z" />
</svg>
