<?xml version="1.0" standalone="no"?>
<!DOCTYPE svg PUBLIC "-//W3C//DTD SVG 1.1//EN" "http://www.w3.org/Graphics/SVG/1.1/DTD/svg11.dtd" >
<svg xmlns="http://www.w3.org/2000/svg" xmlns:xlink="http://www.w3.org/1999/xlink" version="1.1" viewBox="-10 0 985 1000">
   <path fill="currentColor"
d="M438 594q0 -27 18.5 -44.5t45.5 -17.5h5.5t11 2t13.5 5.5t11 11.5t5 18q0 31 -25 52t-47 21q-5 0 -13 -3.5t-16.5 -15.5t-8.5 -29zM417 261q12 -3 98 -3l86 -1l10 -31q8 -25 20 -41.5t14 -19.5q7 -13 16 -13q7 0 42 -9t49 -9q27 0 63.5 11t54.5 31q15 17 26 46.5t11 50.5
q0 9 -3.5 17.5t-3.5 13.5q0 13 -12 31.5t-26 26.5q-19 11 -19 18q0 6 -44.5 18t-44.5 20q0 4 1.5 5t4 2.5t4 15.5t1.5 41q0 95 -10 107q-3 3 -13.5 32t-21.5 46t-40.5 44.5t-42.5 31.5q-29 11 -121 11q-31 0 -73.5 -7.5t-49.5 -12.5l-11 -4q-10 -3 -26 -9.5t-34 -15t-35 -21
t-27 -26.5q-4 -5 -23 -30q-24 -30 -26 -130q-1 -47 -4 -56t-19 -9q-9 0 -23.5 -9.5t-18.5 -9.5q-6 0 -24 -18q-12 -12 -30 -27q-24 -21 -24 -44q0 -3 2 -12.5t2 -25.5q0 -46 2 -48l6 -16q6 -16 18 -34.5t28 -27.5q72 -40 123 -40q37 0 73 14.5t52 36.5q11 16 18.5 32
t9.5 25.5t4 17t4 11t7 3.5zM232 180q-18 0 -53 26l-35 26q-16 12 -16 41q0 18 5.5 36t12.5 19q8 2 8 7q0 4 6 4q3 0 10 6.5t22.5 12.5t37.5 6q20 0 48.5 -16.5t41.5 -28t19 -17.5q8 -10 8 -22q0 -16 -11.5 -46.5t-24.5 -30.5q-1 0 -25 -11.5t-54 -11.5zM845 271
q0 -3 -1.5 -9.5t-7.5 -19t-16 -22.5t-29.5 -18t-44.5 -8q-40 0 -76 38q-9 10 -4 21q5 16 6 31q2 23 23 37t51 14q41 0 70 -20.5t29 -43.5zM354 377q-4 0 -16 11.5t-15 11.5q-5 0 -20 10q-13 8 -17.5 18.5t-7.5 41.5q-3 26 -3 46q0 60 33 94q13 13 36 28t35 17q3 1 25 8.5
t56.5 13.5t77.5 6q60 0 81 -12q10 -6 35 -29t25 -27q0 -2 13.5 -26t13.5 -35q0 -22 2 -27q4 -12 -2 -15.5t1 -9.5q3 -3 3 -14q0 -18 -13 -65q-4 -13 -16.5 -25t-22.5 -12q-7 0 -7 -5q0 -3 -2.5 -4t-11.5 -6.5t-20 -15.5q-21 -19 -40 -25.5t-72 -6.5q-41 0 -64.5 4.5t-33 10
t-27.5 21.5q-20 18 -26 18z" />
</svg>
