<?xml version="1.0" standalone="no"?>
<!DOCTYPE svg PUBLIC "-//W3C//DTD SVG 1.1//EN" "http://www.w3.org/Graphics/SVG/1.1/DTD/svg11.dtd" >
<svg xmlns="http://www.w3.org/2000/svg" xmlns:xlink="http://www.w3.org/1999/xlink" version="1.1" viewBox="-10 0 445 1000">
   <path fill="currentColor"
d="M99 582q0 -9 11.5 -20.5t18.5 -11.5q6 0 41.5 26.5t77 61t63.5 55.5q18 16 23 16q2 0 2.5 0.5t-0.5 2.5t-1.5 4.5t-1.5 8t0 11.5q1 10 -0.5 13t-7.5 3t-10.5 2.5t-9.5 2.5q-11 0 -22.5 -3t-18.5 -6t-7 -5q0 -1 3 -1q1 0 1 -1q0 -5 -15.5 -24.5t-24.5 -24.5
q-7 -4 -11.5 -9t-5.5 -8t-2.5 -5.5t-4.5 -2.5q-6 0 -26 -10.5t-20 -13.5t-13 -9q-11 -4 -25 -22.5t-14 -29.5zM94 430q0 -1 0.5 -3.5t3 -7t7 -8.5t13 -7t20.5 -3q26 0 88 4.5t64 4.5q11 0 20.5 -2t13.5 -2q7 0 17 3q14 4 17 9t3 28q0 31 -51 31q-30 0 -59 -1.5t-49 -4
t-35.5 -5t-24 -4l-8.5 -1.5q-6 0 -13.5 -3t-13 -7.5t-9.5 -10t-4 -10.5zM221 147q0 -18 32 -18q19 0 24 3.5t9 17.5q5 14 5 19t-7 14q-7 10 -26 21t-30 23q-30 32 -89 83q-15 14 -25 14q-8 0 -20 -4q-8 -2 -11.5 -4t-5.5 -5.5t-3 -11.5q-4 -17 2 -25q3 -5 60.5 -44.5
t59.5 -48.5q2 -7 13.5 -17t11.5 -17z" />
</svg>
