<?xml version="1.0" standalone="no"?>
<!DOCTYPE svg PUBLIC "-//W3C//DTD SVG 1.1//EN" "http://www.w3.org/Graphics/SVG/1.1/DTD/svg11.dtd" >
<svg xmlns="http://www.w3.org/2000/svg" xmlns:xlink="http://www.w3.org/1999/xlink" version="1.1" viewBox="-10 0 825 1000">
   <path fill="currentColor"
d="M314 676q-12 0 -34 -18.5t-25 -18.5q-5 0 -5 -7q0 -6 -6 -7.5t-6 -15.5q0 -34 18 -50q16 -14 30 -28q27 -28 57 -28q20 0 47 20.5t31 39.5q2 8 4.5 16t2.5 13q0 10 -3 21.5t-7 11.5q-2 0 -9 14t-15 14q-2 0 -41 11zM359 571q-6 -2 -9 -1t-20 17l-20 18l12 3q3 1 8 1
q13 0 25 -7t12 -16q0 -11 -8 -15zM514 646q-13 0 -25.5 -3t-25 -16t-12.5 -34q0 -28 14 -62t28 -38q8 -2 12 -2q14 0 29.5 7t24.5 14t10 10q22 44 22 62q0 28 -21 43.5t-34 17t-22 1.5zM528 575q6 -6 -5 -10.5t-11 3.5q0 4 6.5 7t9.5 0zM335 366q7 -2 9.5 -13.5t8.5 -21.5
t22 -10q14 0 46.5 14.5t43.5 32.5q11 17 17 20q7 2 5 27q-2 17 -6.5 25t-22.5 24q-33 30 -66 30q-27 0 -45 -21q-20 -24 -20 -77q0 -27 8 -30zM382 403q0 7 6 17.5t13 10.5q6 0 15 -7.5t9 -15.5q0 -12 -24 -16h-6q-13 0 -13 11zM409 66q0 2 10 13.5t10 31.5q0 7 6.5 21.5
t6.5 17.5q0 4 9.5 13.5t9.5 14.5t14.5 30t18.5 28q2 1 8 20.5t14 29.5q10 12 10 16q0 3 14 28t14 30q0 4 14 32.5t14 33.5q0 4 13.5 19.5t16.5 26.5q3 10 24.5 41t26.5 42q14 28 36.5 59.5t35 51t12.5 32.5q0 16 -15 26t-30 10q-5 0 -12.5 -3t-9.5 1q-13 10 -126 10h-25
h-25.5t-21 -0.5t-15.5 -0.5h-6q-5 0 -114 7t-109 8q-35 5 -60 5q-28 0 -32 -7q-3 -4 -24 -14q-26 -11 -31.5 -16t-5.5 -19q0 -8 5 -29t5 -35q0 -16 9.5 -30.5t9.5 -18.5q0 -5 14 -23t14 -25q0 -5 5.5 -14t15.5 -24.5t18 -29.5q12 -24 17 -24q2 0 4 -6.5t5.5 -16.5t8.5 -16
q9 -11 30.5 -56t21.5 -53q0 -3 16 -42t21 -45q4 -5 5.5 -10.5t0.5 -9t0.5 -6t6.5 -2.5q7 0 7 -11q0 -5 10 -28.5t11 -40.5q2 -28 8.5 -42t11 -16t13.5 -2q11 0 20.5 5t9.5 12zM455 292q-3 0 -15.5 -28t-16.5 -28q-2 0 -4 -4t-6 -14t-11 -19l-11 -16l-15 33q-10 23 -18 38
t-11 19.5t-6.5 13.5t-9.5 25q-7 22 -12 22q-2 0 -2 9q0 12 -22 50t-22 42t-7 11.5t-7 13.5t-28 53.5t-28 52.5q0 11 -12.5 33t-12.5 25q0 1 0.5 2t0.5 2q0 4 -8.5 21.5t-8.5 24.5q0 6 3 7q13 8 134 8q99 0 113 -7q16 -10 193 -10q48 0 48 -20q0 -5 -7 -15.5l-18 -27
t-17 -31.5q-10 -24 -29 -51t-32.5 -44.5t-13.5 -24.5t-13 -29.5t-18 -35.5q-12 -34 -29 -67.5t-21 -33.5z" />
</svg>
