<?xml version="1.0" standalone="no"?>
<!DOCTYPE svg PUBLIC "-//W3C//DTD SVG 1.1//EN" "http://www.w3.org/Graphics/SVG/1.1/DTD/svg11.dtd" >
<svg xmlns="http://www.w3.org/2000/svg" xmlns:xlink="http://www.w3.org/1999/xlink" version="1.1" viewBox="-10 0 766 1000">
   <path fill="currentColor"
d="M285 373q0 -1 1 -2t1 -3q0 -16 -61 -80q-16 -18 -53 -25.5t-71 -9.5t-39 -5t-5 -20q0 -14 12.5 -29t23.5 -15q7 0 28.5 -16t26.5 -16q8 0 42.5 -23t34.5 -28q0 -6 6 -6q5 0 60 -6.5t58 -6.5q17 0 60 11.5t65 21.5q30 14 58 25q20 7 37.5 18t17.5 18q0 6 16 22
q24 24 49.5 90.5t25.5 109.5q0 115 -32 157q-58 80 -68 86q-3 2 -21.5 18t-38.5 28.5t-34 12.5q-6 0 -15 7t-19 7q-11 0 -31 8q-17 8 -97 8h-80l-47 -20q-44 -20 -73 -44t-29 -42q0 -28 11.5 -39.5t35.5 -11.5q9 0 16.5 -6t16.5 -6q1 0 4 0.5t5 0.5q1 0 4 0.5t5 0.5
q11 0 27 -15q13 -12 40 -32q40 -29 40 -86q0 -12 -7 -33.5t-7 -23.5zM202 633q0 3 6.5 9t40 14.5t87.5 8.5q30 0 41.5 -4.5t26.5 -5.5q28 -1 50 -10t32 -17t11 -8q5 0 29.5 -23t43.5 -45q29 -35 37.5 -60.5t8.5 -99.5q0 -11 -1 -15.5t-2.5 -6t-4 -11.5t-4.5 -29q0 -2 -1 -5
q-2 -17 -11 -27l-2 -2q-7 -8 -15 -26t-26 -39q-23 -27 -55 -42.5t-96 -30.5q-41 -10 -66 -10q-31 0 -62.5 9.5t-49 20t-17.5 16.5q0 3 39 21t43 31q3 7 13 20t10 16q0 6 9 12q12 7 24 32.5t12 42.5q0 15 3.5 35.5t3.5 22.5l-1 3q0 1 -5 67q-1 15 -34 49.5t-33 35.5
q0 4 -13 14t-18 10q-6 0 -6 4t-14.5 12t-22.5 8q-11 0 -11 3z" />
</svg>
