<?xml version="1.0" standalone="no"?>
<!DOCTYPE svg PUBLIC "-//W3C//DTD SVG 1.1//EN" "http://www.w3.org/Graphics/SVG/1.1/DTD/svg11.dtd" >
<svg xmlns="http://www.w3.org/2000/svg" xmlns:xlink="http://www.w3.org/1999/xlink" version="1.1" viewBox="-10 0 810 1000">
   <path fill="currentColor"
d="M240 390q-5 0 -10.5 -1.5t-8.5 -1.5q-10 0 -16.5 7t-15.5 26q-29 59 -29 76q0 3 4 9.5t2 22.5q-1 4 -1 10q0 10 7 19t9 21q4 17 11 24q9 9 17 20q15 20 42 33.5t49.5 19t23.5 6.5q3 4 24 9t38 5q16 0 48 -9t45 -11q25 -3 55 -20t35 -31q2 -8 10 -8t14 -37.5t6 -48.5
q0 -6 -6 -11q-2 -2 2 -4q1 0 1 -4q0 -16 -13.5 -59t-19.5 -43q-2 0 -3.5 -4t-7.5 -11t-18 -13q-38 -19 -56 -60q-13 -27 -13 -39q0 -5 5.5 -14t6.5 -26q0 -19 5 -24q5 -4 12.5 -20.5t7.5 -25.5q0 -1 1 -5.5t6.5 -12.5t13.5 -15t24.5 -12t38.5 -5q38 0 38 7q0 4 12 4
q20 0 39 15t28.5 29t9.5 17q0 6 4.5 11.5t7.5 16.5q3 14 7 14q2 0 2 7q0 40 -19 78q-12 24 -32.5 40.5t-34.5 25.5t-14 16q0 8 11 17q10 9 13 25.5t6 81.5q1 12 1 31q0 31 -8.5 47t-8.5 22t1 10q0 1 0.5 3t0.5 3q0 10 -20 26q-65 53 -81 61.5t-77 21.5q-49 11 -98 11
q-35 0 -55.5 -4t-33.5 -10.5t-22 -8.5q-11 -2 -27 -13.5t-39 -22.5q-32 -15 -32 -20q0 -4 -14.5 -20.5t-16.5 -28.5q-4 -15 -7 -15q-4 0 -4 -9q0 -7 -6 -7q-7 0 -11.5 -17t-6.5 -40t-3 -38t-1 -19q0 -18 9 -42t9 -32q0 -11 7 -16q7 -6 6.5 -16.5t-7.5 -13.5q-4 -1 -4.5 -2.5
t0 -2.5t-2 -5.5t-8.5 -11.5q-13 -14 -22 -38.5t-9 -43.5q0 -3 3.5 -17.5t10.5 -33.5t14 -27q8 -9 8 -16q0 -8 14.5 -27t25.5 -24q9 -4 30.5 -7t38 -4t17.5 -3q1 -1 28 2t57 14.5t35 28.5q2 9 7 9q4 0 4 11q0 9 10 19q9 8 9 40q0 72 -31 103q-22 23 -57 39.5t-57 16.5z
M321 245q0 -10 -2.5 -20t-9.5 -25t-25 -24.5t-44 -9.5q-61 0 -61 10q0 6 -10 22t-20 26q-13 14 -13 36q0 21 14 35q14 13 20 17.5t19 8.5t34 4q18 0 45 -14q31 -15 42 -28.5t11 -37.5zM665 254q0 -21 -21 -44.5t-57 -23.5q-7 0 -35 10q-11 4 -17.5 29.5t-6.5 48.5t24 37
t45 14q33 0 50.5 -24.5t17.5 -46.5z" />
</svg>
