<?xml version="1.0" standalone="no"?>
<!DOCTYPE svg PUBLIC "-//W3C//DTD SVG 1.1//EN" "http://www.w3.org/Graphics/SVG/1.1/DTD/svg11.dtd" >
<svg xmlns="http://www.w3.org/2000/svg" xmlns:xlink="http://www.w3.org/1999/xlink" version="1.1" viewBox="-10 0 728 1000">
   <path fill="currentColor"
d="M377 679q0 25 -2.5 41t-8 22t-9.5 7.5t-10 1.5q-3 0 -6.5 -0.5t-6.5 -1.5t-6 -3l-6 -4t-5 -4t-3.5 -5t-2.5 -6t-1 -6l2 -11t1 -19q-1 -14 -1 -50q0 -40 4 -80t5 -84q0 -22 2 -51.5t3.5 -55.5t3.5 -49t3 -37l1 -14q0 -15 -2 -39t-2 -34q0 -54 29 -54q23 0 29.5 12.5
t6.5 45.5q0 4 -5.5 72.5t-11 149t-5.5 113.5q0 19 2 21q4 3 3.5 13.5t-4.5 15.5q-6 6 -6 35q0 22 4.5 32.5t4.5 25.5zM159 647q0 4 -3.5 11.5t-3.5 17.5v11q0 33 -30 29q-20 -2 -25 -10.5t-5 -40.5q0 -51 6 -92t6 -110q0 -21 -0.5 -43.5t-2 -41t-2.5 -36t-2.5 -31
t-2.5 -23.5t-1.5 -16l-0.5 -6q0 -5 1.5 -13t1.5 -24q0 -47 -7 -56q-6 -7 1.5 -10.5t7.5 -8.5q0 -3 2 -5.5t4.5 -3.5t6 -1t6.5 1q1 0 5 1.5t8 2.5t7 1q7 1 14 8t11.5 16t4.5 15q0 4 -2.5 7t-3 3.5t3.5 4.5q6 3 -1 8q-6 4 -6 55v10v27t0.5 37.5t0.5 47.5v52v46.5t-0.5 39.5
t-0.5 31.5t-0.5 24.5t-0.5 17v10.5v3.5q0 12 1.5 22t1.5 11zM574 247q0 -7 2.5 -22.5t2.5 -32.5l-1 -19q0 -16 7.5 -29.5t17.5 -13.5q2 0 8 1.5t10 1.5t11.5 16.5t7.5 26.5q0 1 -1 4.5t-2.5 12t-2.5 19.5q-7 81 -11 86q-10 12 -10 172q0 96 1 125t6 45q0 1 0.5 3t0.5 4
q0 13 -7.5 24t-21.5 11q-10 0 -25 -6l-15 -5l3 -34q3 -25 3 -39l-0.5 -3t-0.5 -9v-15q0 -43 2 -114t4 -83t4 -34l3.5 -38.5t4.5 -21.5q2 -3 2 -8q0 -2 -1.5 -10t-1.5 -15z" />
</svg>
