<?xml version="1.0" standalone="no"?>
<!DOCTYPE svg PUBLIC "-//W3C//DTD SVG 1.1//EN" "http://www.w3.org/Graphics/SVG/1.1/DTD/svg11.dtd" >
<svg xmlns="http://www.w3.org/2000/svg" xmlns:xlink="http://www.w3.org/1999/xlink" version="1.1" viewBox="-10 0 453 1000">
   <path fill="currentColor"
d="M58 606q0 -28 37 -28q25 0 25 12q0 7 4 7q2 0 10 32.5t16 32.5q3 0 6 -8q5 -14 55 -44q33 -20 61 -20q30 0 50 19.5t27.5 43.5t14.5 49t12 31q7 7 7 18q0 6 4.5 12.5t4.5 20.5q0 27 -23 27t-40 -14q-13 -10 -16 -39t-6 -35q-2 -3 -6 -23q-4 -21 -15.5 -33t-27.5 -12
q-15 0 -34 13.5t-23 14.5q-9 3 -21.5 31.5t-12.5 45.5q0 7 -1 11t-5 11t-15 10.5t-29 3.5q-8 0 -11.5 -1.5t-6 -10t-2.5 -26.5q0 -25 -4 -45t-10 -36t-7 -22q-3 -15 -10.5 -26.5t-7.5 -22.5zM193 274q0 -20 -12 -90t-12 -92q0 -17 15 -29q11 -9 25 -2q15 7 16 10q2 4 9.5 85
t14 161.5t6.5 81.5q1 3 6.5 49.5t5.5 48.5q0 16 -6.5 24t-11.5 9t-13 1q-12 0 -19.5 -2t-13.5 -12t-6 -29q0 -6 2 -23.5t2 -34.5q0 -23 -4.5 -69t-4.5 -67q0 -8 0.5 -12t0.5 -8z" />
</svg>
