<?xml version="1.0" standalone="no"?>
<!DOCTYPE svg PUBLIC "-//W3C//DTD SVG 1.1//EN" "http://www.w3.org/Graphics/SVG/1.1/DTD/svg11.dtd" >
<svg xmlns="http://www.w3.org/2000/svg" xmlns:xlink="http://www.w3.org/1999/xlink" version="1.1" viewBox="-10 0 756 1000">
   <path fill="currentColor"
d="M99 287q0 -5 -4.5 -10.5t-4.5 -12.5q0 -4 6 -40q1 -13 12.5 -37t21.5 -35q11 -11 11 -8q0 5 8 -3q7 -7 23.5 -14t24.5 -7q19 0 28 -2q12 -2 17 -2q8 0 29.5 6t27.5 6q13 0 32 12q22 12 21 5v-4q0 -4 9 -24q14 -32 52 -40q2 -1 10 12.5t7 15.5q-1 1 -5 17q-2 10 -0.5 12
t8.5 0q4 -1 22.5 -8t24.5 -7t10 -4q3 -4 27 -4q57 0 82 9q19 7 26.5 16t25.5 46q6 14 6 28q0 26 -20 50q-13 15 -31 43q-15 22 -22 22q-4 0 -30.5 18.5t-30.5 18.5q-9 0 -30 20q-7 7 -23.5 13.5t-25.5 6.5h-2l-1 -1q-3 0 -3 7q0 13 8.5 38t17.5 37q10 14 10 23
q0 8 19.5 41.5t19.5 34.5q3 8 12 17q10 10 10 14t9 15t9 16q0 6 9.5 14t9.5 12q0 5 9 9q13 3 13 28q0 19 -12 30t-29 11q-14 0 -22 -7q-4 -3 -12.5 -2t-11.5 -3q-4 -4 -65 -6q-261 -4 -285 -14q-15 -6 -25 -16.5t-10 -20.5q0 -17 45 -52q27 -20 34 -37q8 -17 31.5 -56
t30.5 -46q5 -5 5 -13.5t6 -13.5q7 -5 7 -17q0 -11 5 -14q6 -4 4.5 -10t-8.5 -6q-13 0 -45 -14q-6 -2 -29 -7q-19 -3 -33 -17q-16 -14 -18 -14q-4 0 -17 -14t-13 -18q0 -3 -14 -20.5t-14 -22.5zM598 215q0 -16 -14.5 -26.5t-36.5 -10.5q-24 0 -52 5.5t-37 12.5q-3 3 -17.5 13
t-24.5 19.5t-14 16.5q-10 18 -29 18q-23 0 -40 -35q-8 -17 -13.5 -22.5t-21.5 -10.5q-23 -7 -31 -13q-6 -5 -23 -2q-54 12 -66.5 19t-16.5 26q-1 3 -1 9q0 33 19 57q8 10 25 22t24 12t7 5q0 4 9 4q8 0 20 6q8 5 33 5q32 0 34 3q3 5 14 5q14 0 23 -6q9 -7 17 -7
q69 -5 117 -23.5t56 -41.5q6 -16 12 -16q4 0 9 -7t9.5 -16t6.5 -11q3 -5 3 -10zM270 658q18 0 33 4t41 4q72 1 72 4q0 5 -1 5q1 0 6 -4q7 -6 14 -6q3 0 31 4.5t33 4.5q6 0 -12 -18q-14 -14 -25.5 -33.5t-11.5 -29.5q0 -9 -4 -13q-3 -3 -15 -32t-15 -32q-6 -6 -8.5 -17
t-6.5 -17q-7 -9 -7 -16q0 -4 -5 -9.5t-10 -5.5q-6 0 -27 25q-61 73 -61 80q0 3 -14 21q-14 17 -28 44q-10 20 -10 26q0 11 31 11z" />
</svg>
