<?xml version="1.0" standalone="no"?>
<!DOCTYPE svg PUBLIC "-//W3C//DTD SVG 1.1//EN" "http://www.w3.org/Graphics/SVG/1.1/DTD/svg11.dtd" >
<svg xmlns="http://www.w3.org/2000/svg" xmlns:xlink="http://www.w3.org/1999/xlink" version="1.1" viewBox="-10 0 705 1000">
   <path fill="currentColor"
d="M179 574q0 -4 16.5 -22t16.5 -20q0 -3 11 -16q21 -24 25 -39q1 -2 12.5 -24.5t21.5 -44.5t10 -27q0 -4 -3 -9t-7 -7t-6 0q-3 3 -65 5q-67 2 -76 6q-13 5 -34 5q-17 0 -23 -3q-16 -11 -16 -39q0 -7 3.5 -19.5t3.5 -20.5q0 -18 4 -24q1 -2 1 -19q0 -13 20 -49t36 -52
q12 -12 52.5 -41.5t55.5 -37.5q12 -6 40.5 -13.5t43.5 -7.5q8 0 45 5q72 12 88 26q5 4 20 11t26 14.5t11 16.5q0 2 9.5 12t9.5 14q0 6 10 14q11 11 19 29q9 20 12 20q4 0 10 18q9 30 24 62.5t20 32.5q4 0 4 3q0 8 -17 28l-16 19l-34 -10q-27 -8 -85 -8q-72 0 -72 3
q0 5 8.5 25.5t12.5 23.5q6 5 15 20.5t11 23.5q3 11 19.5 36t23.5 29q7 3 7 11q0 7 4 7q5 0 7 8q8 23 32 49q13 15 13 20t19 24q27 29 27 46q0 4 -2.5 11.5l-3.5 10.5q-4 19 -58 19q-25 0 -32 5q-5 5 -26 0q-20 -4 -144 -4h-51q-120 0 -121 -3q-2 -2 -5 -1.5t-10 2t-11 1.5
q-47 0 -47 -28q0 -11 13 -30q16 -23 16 -26q0 -4 14 -18t14 -22t5 -8t14 -9t9 -14zM361 296q12 0 35.5 1t35.5 1q87 0 94 -10q3 -4 3 -12q0 -14 -14 -36q-12 -17 -12 -27t-30 -40q-29 -29 -58.5 -41t-78.5 -12q-19 0 -63 12q-15 4 -68 53q-11 9 -15 9q-9 0 -31 42.5
t-22 59.5q0 13 28 13h13q80 0 100 -5q33 -8 83 -8zM360 424q-3 -10 -7 -10t-12.5 13.5t-18 31t-12.5 20.5q-5 7 -5 20q0 5 -6.5 17t-13.5 23t-15 23t-9 13q-3 4 -21 25q-33 37 -33 59q0 3 1 4q6 4 156 4q130 0 137 -3q7 -2 6 -11t-9 -16q-5 -5 -10.5 -20.5t-11.5 -20.5
q-7 -5 -22 -30q-6 -9 -28.5 -36.5t-30.5 -45.5q-4 -11 -17.5 -30.5t-17.5 -29.5z" />
</svg>
