<?xml version="1.0" standalone="no"?>
<!DOCTYPE svg PUBLIC "-//W3C//DTD SVG 1.1//EN" "http://www.w3.org/Graphics/SVG/1.1/DTD/svg11.dtd" >
<svg xmlns="http://www.w3.org/2000/svg" xmlns:xlink="http://www.w3.org/1999/xlink" version="1.1" viewBox="-10 0 686 1000">
   <path fill="currentColor"
d="M73 684q0 -16 16.5 -30.5t32.5 -14.5q29 0 63 -39t34 -85q0 -36 -13.5 -75.5t-13.5 -69.5q0 -15 8.5 -25.5t21.5 -10.5q26 0 47.5 61.5t21.5 108.5q0 69 -18 91l-29 50q0 1 2 1q4 0 22.5 -10.5t23.5 -10.5t10.5 -5t16 -13t22.5 -14q21 -10 34 -28q9 -13 19 -23
q6 -6 6 -13q0 -5 8.5 -17t8.5 -14q0 -3 2.5 -8t5.5 -25.5t3 -60.5v-44q0 -15 6 -22t24 -12q3 -1 7 -2t6.5 -2t3.5 -1q2 0 8 3.5t12.5 10.5t6.5 13q0 9 3 43.5t3 44.5q0 8 -5 19.5t-5 17.5q0 12 -28 64t-40 63q-5 5 -14 16.5t-15.5 20.5t-9.5 9q-8 0 -12 8t-8 8
q-10 0 -44.5 20.5t-45.5 24.5q-23 9 -25 14q-1 4 -34 4q-16 0 -29.5 3.5t-19.5 3.5q-3 0 -63 -11q-2 0 -10 -3.5t-17.5 -13t-9.5 -20.5zM67 161q0 -12 9.5 -22t24.5 -10q23 0 33 18q1 2 20 21q13 13 25 39t12 42q0 20 -19 20q-16 0 -43.5 -36t-41.5 -43q-20 -9 -20 -29z
M622 118q0 14 -20.5 28.5t-39 21.5t-21.5 7q-9 0 -30.5 12.5t-21.5 17.5t-8 11t-15 6q-8 0 -16 -11.5t-8 -22.5q0 -28 38 -46q19 -9 46 -25.5t44 -26t24 -9.5q8 0 18 12t10 25zM278 118q0 -22 7.5 -36t14.5 -18t12 -4q12 0 20.5 15.5t8.5 36.5q0 10 -3 23t-3 22q0 8 2 17.5
t2 16.5q0 14 -6 21t-13 7q-15 0 -28.5 -32t-13.5 -69z" />
</svg>
