<?xml version="1.0" standalone="no"?>
<!DOCTYPE svg PUBLIC "-//W3C//DTD SVG 1.1//EN" "http://www.w3.org/Graphics/SVG/1.1/DTD/svg11.dtd" >
<svg xmlns="http://www.w3.org/2000/svg" xmlns:xlink="http://www.w3.org/1999/xlink" version="1.1" viewBox="-10 0 749 1000">
   <path fill="currentColor"
d="M345 497q0 -36 33 -36q15 0 21 8q6 7 11.5 25t5.5 27v1.5t-0.5 5.5t-1.5 10.5t-2 19.5t-2 30q-2 60 -6 80.5t-15 20.5l-4.5 -1t-11 -3.5t-13 -6.5t-11 -11t-4.5 -15t4.5 -26.5t4.5 -31.5t-4.5 -48.5t-4.5 -48.5zM527 362q40 0 70.5 -6.5t37.5 -6.5q27 0 34 27
q4 13 3 17.5t-8 8.5q-8 7 -22 7q-3 0 -6.5 1t-6 2t-3.5 2l-3 3t-3 1.5t-1 -3.5q0 -4 -12 -4q-17 0 -37 7.5t-31 7.5q-9 0 -20 1.5t-19 3t-12 1.5q-12 0 -24.5 -14t-15.5 -23q-1 -5 0 -8.5t4 -6t10 -7.5q12 -7 23.5 -9t41.5 -2zM245 409q-10 0 -18.5 5.5t-28 10.5t-56.5 5
q-35 0 -43.5 -2t-19.5 -13q-10 -10 -11.5 -14t2.5 -15q11 -24 38 -24q12 0 28 4t20 4q6 0 30 -12.5t48 -12.5q5 0 10 1t15.5 4t16.5 12t6 22q0 25 -37 25zM326 137q0 -13 3.5 -21.5t10 -11.5t10.5 -3.5t10 -0.5q11 0 16.5 3.5t9.5 17t5 38t1 68.5v14.5t-1 15.5t-3 15.5
t-5.5 12t-9.5 9.5t-14 3q-5 0 -11.5 -2.5t-12.5 -9.5t-6 -16q0 -3 2 -22.5t2 -39.5q0 -27 -3.5 -47t-3.5 -23z" />
</svg>
