<?xml version="1.0" standalone="no"?>
<!DOCTYPE svg PUBLIC "-//W3C//DTD SVG 1.1//EN" "http://www.w3.org/Graphics/SVG/1.1/DTD/svg11.dtd" >
<svg xmlns="http://www.w3.org/2000/svg" xmlns:xlink="http://www.w3.org/1999/xlink" version="1.1" viewBox="-10 0 989 1000">
   <path fill="currentColor"
d="M281 146q0 -2 1.5 -4.5t1.5 -13.5q0 -6 13 -10.5t27 -4.5q18 0 23.5 8.5t7.5 44.5q1 13 4 43t5 55l3 24v17l27 4q16 2 44 3t47.5 2t24.5 4q7 3 17 -1.5t16 -2.5h1l2 1q3 0 3 -9q0 -58 -9 -76q-4 -8 -7.5 -36.5t-4.5 -48.5t-1 -25q0 -47 31 -47q1 0 3 0.5t3 0.5
q14 2 16.5 3t2.5 6q0 7 2 7h1q8 0 9 48q2 48 7 103q4 41 6 51t9 14q14 7 75 7q24 0 53 -6.5t50 -6.5q49 0 49 49q0 21 -5 26.5t-21 5.5q-24 0 -46 -6t-35 -6q-9 0 -47.5 3.5t-61.5 3.5l-22 1v52q0 52 4 60q3 4 36 8t60 4q14 0 22.5 -2.5t26.5 -2.5q6 0 14.5 0.5t13.5 0.5
q22 0 35.5 -4.5t23.5 -4.5q2 0 8 0.5t17.5 3t21 7t17 13t7.5 19.5q0 38 -43 38q-4 0 -34 -3t-67 -3q-145 0 -150 7q-3 6 -3 28q0 30 6.5 63.5t6.5 44.5q0 18 -8.5 24.5t-27.5 6.5q-42 0 -42 -26v-1q0 -2 0.5 -5t1 -8t1 -12.5t1 -16.5t0.5 -22v-27q0 -52 -2 -54
q-4 -4 -118 -7l-47 -1l2 44q1 29 3 38t10 17q11 11 6 20q-4 7 -4 20q0 27 -44 27q-27 0 -27 -3q-2 -14 -2 -22q0 -13 2.5 -27.5t2.5 -22.5q0 -12 -5.5 -42t-5.5 -39q0 -7 -3.5 -8.5t-21.5 -0.5q-12 1 -49 1q-106 0 -143.5 -7t-37.5 -29q0 -5 3 -13q9 -21 23 -26t56 -5
t73.5 6t66.5 6q29 0 31 -4t2 -24q0 -8 -1 -21t-2.5 -25.5t-3 -24.5l-2.5 -20l-1 -7q0 -5 -116 -10q-107 -4 -119 -11q-9 -5 -9 -26q0 -8 2.5 -12.5t20 -10.5t50.5 -6q47 0 113 5l58 4l-3 -18q-2 -10 -6.5 -22.5t-6.5 -33.5q-3 -24 -7.5 -41.5t-8 -25.5t-3.5 -11zM399 370
q-24 0 -24 13q0 6 3 28.5t3 33.5q0 19 8 40q6 16 9 19t15 2q10 0 19.5 -3.5t18.5 -3.5q7 0 27.5 3t24.5 2q4 0 20.5 -2t20.5 -3q5 0 5 -18q0 -9 -1.5 -32t-2.5 -42l-1 -19q-1 -4 -30.5 -10t-46.5 -6q-26 2 -30 2q-10 0 -21 -2t-17 -2z" />
</svg>
