<?xml version="1.0" standalone="no"?>
<!DOCTYPE svg PUBLIC "-//W3C//DTD SVG 1.1//EN" "http://www.w3.org/Graphics/SVG/1.1/DTD/svg11.dtd" >
<svg xmlns="http://www.w3.org/2000/svg" xmlns:xlink="http://www.w3.org/1999/xlink" version="1.1" viewBox="-10 0 851 1000">
   <path fill="currentColor"
d="M528 433q0 -17 -26 -45t-68 -28l-25 3q-6 3 -12 18t-6 25q0 6 6 22t6 18l-1 1q-2 0 2 4t9.5 12t5.5 15q0 15 -14 20q-6 2 -8 -3q-2 -6 -10 -6q-9 0 -22 -10t-14 -17q-1 -6 -6.5 -32t-5.5 -33q0 -13 13 -39t25 -39q18 -21 48 -21q38 0 77.5 18.5t52.5 43.5q5 12 14 14
q6 1 15 19t9 28q0 5 3 12t4 10t-2 4q-3 0 -10 21t-12 21q-6 0 -18 27.5t-21 30.5t-40 24q-15 10 -57.5 27.5t-53.5 17.5q-8 0 -14.5 -4.5t-18.5 -4.5q-11 0 -35 -7.5t-30 -7.5q-9 0 -9 -4q0 -5 -16 -21.5t-20 -16.5q-12 0 -14 -1t0 -6q2 -7 -1 -7q-1 0 -8.5 -12.5t-15 -36
t-7.5 -45.5q0 -25 3.5 -38.5t3.5 -25.5q0 -16 10.5 -44t16.5 -28q3 0 5.5 -7.5t9 -20t17.5 -21.5q18 -16 34 -32q17 -17 27 -17q7 0 14 -4.5t14 -5.5t20 -9.5t17 -8.5t29 -11t40 -11q13 0 44.5 8.5t37.5 8.5q14 0 56 26t53 30q19 6 19 14q0 7 42 49q27 26 34.5 37t9.5 25
q4 21 8 21q5 0 -2 9q-2 4 -2 5t2 4.5t3.5 13.5t1.5 26q0 47 -7 64q-16 47 -21 57.5t-20 26.5q-35 41 -40 47q-13 17 -38 36.5t-29 26.5q-7 12 -50.5 27t-50.5 19q-15 9 -56 9q-45 0 -67 -3t-76 -17q-25 -6 -49 -21.5t-38 -27.5t-17 -12q-2 0 -20.5 -16t-39 -39t-24.5 -36
q-4 -17 -15.5 -39.5t-19.5 -51t-8 -72.5q0 -53 6 -72.5t6 -20.5q0 -12 4 -14q3 -2 20 -35q13 -27 20.5 -37.5t30.5 -36.5q31 -34 60.5 -58.5t50 -35t36 -16.5t24.5 -7.5t10 -3.5q2 -4 15 -4t78 -15.5t76 -15.5q23 0 39 6.5t31 8.5q24 2 52 13.5t39 22.5q13 13 18 13
q7 0 13 12t6 25q0 14 -8.5 22.5t-17.5 9.5l-8 2q-11 0 -29 -14.5t-22 -14.5q-2 0 -11.5 -9.5t-23.5 -12.5q-10 -2 -22.5 -7t-27 -7.5t-38.5 -2.5q-43 0 -105.5 24t-77.5 24q-6 0 -9 2t-12.5 9.5t-25.5 15.5t-25.5 17t-13.5 13t-7 4q-5 0 -29.5 23t-24.5 28q0 4 -7.5 11.5
t-16 18.5t-16 39.5t-7.5 68.5q0 31 3 52t6.5 28t6.5 12t3 9q0 11 37 53t47 42q4 0 33 23t35 23l4 2q3 1 9.5 3.5t15.5 5.5t21.5 6t26 5.5t30.5 4t35 1.5q31 0 63.5 -11.5t35.5 -11.5q31 0 129 -114q18 -19 24 -34t6 -39q0 -94 -16 -112l-3 -4q-3 -3 -8 -8.5t-11.5 -12
l-13.5 -13.5l-14 -14t-13 -12.5t-11 -8.5t-7 -3q-3 0 -10 -7t-14 -7q-6 0 -17 -9t-20 -11q-7 -1 -21 -5.5t-33.5 -8t-46.5 -3.5q-30 0 -40 7t-15 7q-7 0 -30 12t-25 17q-1 3 -8 3q-4 0 -11 12t-14 14q-6 2 -10 10t-9.5 20.5t-11.5 20.5q-7 8 -9.5 13t-4.5 17t-2 33
q0 48 10 55l3 4q4 5 9.5 11.5t13 15t18.5 16.5t22.5 15t26.5 11t31 4q13 0 18 -4.5t11 -4.5q12 0 31.5 -10.5t34.5 -21.5l15 -10q3 0 13 -19.5t10 -26.5q0 -6 5 -6t5 -9z" />
</svg>
