<?xml version="1.0" standalone="no"?>
<!DOCTYPE svg PUBLIC "-//W3C//DTD SVG 1.1//EN" "http://www.w3.org/Graphics/SVG/1.1/DTD/svg11.dtd" >
<svg xmlns="http://www.w3.org/2000/svg" xmlns:xlink="http://www.w3.org/1999/xlink" version="1.1" viewBox="-10 0 565 1000">
   <path fill="currentColor"
d="M254 590q0 -16 -4 -90.5t-7 -74.5q-4 0 -20.5 13.5t-18.5 13.5t-24.5 14t-25.5 14q-5 0 -7 8t-12.5 11t-16.5 -3q-7 -7 -18 -10q-13 -3 -13 -15q0 -25 50 -51q18 -9 47.5 -31t29.5 -27q0 -2 17 -21l17 -18l-3 -75q-7 -126 -7 -127q0 -15 11 -27.5t25 -12.5q21 0 29 26
q5 16 3 20q-7 9 -7 95v16q1 62 2.5 73.5t9.5 15.5q8 3 18 17q8 11 44.5 43.5t64.5 54.5q17 13 22.5 22t5.5 26q0 19 -19 19q-24 0 -38 -17q-13 -13 -46 -40t-45 -34q-6 -3 -9 -3q-9 0 -9 26q0 17 1 29q2 24 3 81.5t6 92.5q4 25 4 45q0 30 -16 30q-9 0 -9 -5q0 -6 -17 -4
q-11 1 -15.5 -1t-9.5 -11q-9 -14 -5 -21t8 -38t4 -49z" />
</svg>
