<?xml version="1.0" standalone="no"?>
<!DOCTYPE svg PUBLIC "-//W3C//DTD SVG 1.1//EN" "http://www.w3.org/Graphics/SVG/1.1/DTD/svg11.dtd" >
<svg xmlns="http://www.w3.org/2000/svg" xmlns:xlink="http://www.w3.org/1999/xlink" version="1.1" viewBox="-10 0 760 1000">
   <path fill="currentColor"
d="M593 161q0 -56 33 -56q13 0 25.5 11.5t12.5 27.5t-6 45t-7 89q0 1 -2.5 82.5t-5 169.5t-2.5 104q0 33 -3 45.5t-14 25.5q-8 8 -47 8q-25 0 -132.5 -2.5t-149.5 -2.5q-64 0 -115.5 6.5t-66.5 6.5q-10 0 -15.5 -1t-11.5 -8.5t-6 -21.5q0 -10 3 -25q9 -40 12.5 -150.5
t4.5 -116.5l2 -14q2 -15 4 -36.5t4.5 -45t4.5 -47t2 -36.5l-1 -20v-32q0 -20 -4 -20q-6 0 7 -15q6 -8 10 -8t7.5 -5.5t8.5 -1.5q3 2 17 2q19 0 19 36q0 21 -5.5 83.5t-11 117t-5.5 56.5q0 13 3 15t20 2q11 0 43 -1t47 -1q25 0 46 1l40 2l7 -49q5 -35 5 -52q0 -5 -1.5 -17
t-1.5 -19q0 -3 1 -11.5t2 -25t2 -36.5q2 -44 8.5 -65.5t13.5 -25.5t22 -4q17 0 24 12t7 23q0 1 -2 15.5t-5 32t-5 23.5q-4 12 -6.5 86t-4.5 78v2q-1 2 -1 3q0 12 7.5 24.5t25.5 12.5q7 0 17 -3t15 -3q7 0 11 2q13 5 77 5q4 0 6.5 -3t4 -15t2.5 -34.5t1 -61.5q0 -85 5 -90
q3 -7 2.5 -9t-2.5 -21.5t-2 -42.5zM515 645q7 0 17.5 1t16.5 1q16 0 21.5 -6.5t7.5 -25.5q3 -24 3 -35q0 -51 -3 -63t-14 -15t-131 -5.5t-127 -4.5q-11 -2 -12 -1q-2 2 -37.5 2.5t-68.5 4.5t-33 15l3 12q3 12 3 29q0 20 -7 34t-7 31q0 9 1 13l3 13l45 -3q52 -4 57 -4
q18 0 46.5 1.5t56 3t52 3.5t40.5 4l16 1q10 0 22 -3t29 -3z" />
</svg>
