<?xml version="1.0" standalone="no"?>
<!DOCTYPE svg PUBLIC "-//W3C//DTD SVG 1.1//EN" "http://www.w3.org/Graphics/SVG/1.1/DTD/svg11.dtd" >
<svg xmlns="http://www.w3.org/2000/svg" xmlns:xlink="http://www.w3.org/1999/xlink" version="1.1" viewBox="-10 0 853 1000">
   <path fill="currentColor"
d="M156 510q0 2 -1 5t-1 5q0 1 2.5 9.5t2.5 20.5q-1 20 -1 34q0 18 6 26q6 7 0 9.5t-2 9.5q7 14 -4 49.5t-41 35.5q-4 0 -11 -1t-17 -8t-10 -19q0 -14 4 -14q1 0 5.5 -14t8 -32t3.5 -27q0 -7 -4.5 -26t-4.5 -42q0 -7 1 -23t1 -22q0 -8 -3.5 -25.5t-3.5 -23.5q0 -5 2 -9.5
t2 -8.5v-12q0 -14 5 -24q6 -13 14 -55.5t13 -48.5q5 -5 10.5 -20.5t25.5 -32.5q19 -16 19 -21q0 -7 15.5 -21t24.5 -16q7 -2 18 -13t27.5 -21t38.5 -12q2 0 48 -12t82 -12q39 0 86 4q8 1 46 20t43 26q3 3 10.5 9t13.5 11t6 8t7.5 11.5t21 25.5t24.5 38q19 35 22 37
q6 4 15.5 39t17.5 68l7 33q9 14 9 125q0 50 -11 114q-6 36 -10 42t-23 6h-5q-19 0 -24.5 -2.5t-10.5 -12.5q-7 -13 -7 -25q0 -11 7.5 -15.5t7.5 -19.5v-13q0 -12 3 -23t3 -15q0 -5 -3 -12t-3 -10l6 -12q5 -12 5 -35q0 -10 -2.5 -21t-2.5 -13t3.5 -6t3.5 -15q0 -15 -7 -40.5
t-7 -32.5q0 -9 -6.5 -20.5t-6.5 -18.5q0 -11 -18.5 -47.5t-33.5 -55.5q-19 -24 -38 -42.5t-24 -18.5t-15.5 -8.5t-41 -16.5t-84.5 -8q-55 0 -72 9q-20 10 -28 10q-7 0 -17.5 9.5t-15.5 9.5t-19 12.5t-30.5 28t-22.5 19.5q-10 7 -10 13t-4 6q-7 0 -19 24t-12 37q0 17 -4 20
q-5 4 -9 40t-4 70q0 12 0.5 20.5t1.5 13t2 7t2 3t1.5 1t0.5 1.5z" />
</svg>
