<?xml version="1.0" standalone="no"?>
<!DOCTYPE svg PUBLIC "-//W3C//DTD SVG 1.1//EN" "http://www.w3.org/Graphics/SVG/1.1/DTD/svg11.dtd" >
<svg xmlns="http://www.w3.org/2000/svg" xmlns:xlink="http://www.w3.org/1999/xlink" version="1.1" viewBox="-10 0 468 1000">
   <path fill="currentColor"
d="M368 245q0 4 14.5 25t14.5 34q0 7 -11 16t-18 9q-8 0 -29 -10t-21 -15q0 -9 -6 -24t-13.5 -27.5t-8.5 -14.5q-6 -24 -13 -1q-7 24 -10 109q0 1 -2.5 54.5l-2.5 53.5q0 29 6 72.5t10 47.5q1 1 1 25q0 49 -2.5 75t-5.5 32t-9 11q-14 12 -24 9q-13 -3 -18 -11.5t-5 -34.5
l0.5 -24t0.5 -27q0 -21 -3 -33t-4 -47l-2.5 -66.5t-2.5 -68.5q0 -22 2 -95t2 -94q0 -34 -5 -34q-3 0 -10.5 5.5t-7.5 10t-14 18t-14 16.5q0 8 -28.5 41t-44.5 33q-7 0 -18 -11q-8 -8 -9 -12t4 -17q7 -14 16.5 -23t27.5 -46q10 -19 33.5 -45t40.5 -38q14 -8 25.5 -21.5
t20 -21t20.5 -7.5q13 0 22 9t10 14q1 3 12 22t24 39.5t18 25.5q6 6 12 16t9.5 18t7 13.5t4.5 5.5q4 0 4 9z" />
</svg>
