<?xml version="1.0" standalone="no"?>
<!DOCTYPE svg PUBLIC "-//W3C//DTD SVG 1.1//EN" "http://www.w3.org/Graphics/SVG/1.1/DTD/svg11.dtd" >
<svg xmlns="http://www.w3.org/2000/svg" xmlns:xlink="http://www.w3.org/1999/xlink" version="1.1" viewBox="-10 0 631 1000">
   <path fill="currentColor"
d="M505 653q-7 0 -53 -13t-62 -13q-13 -1 -34.5 -7.5t-24.5 -6.5q-8 0 -11 -3q-2 -2 -19.5 -5t-32 -10t-14.5 -21q0 -18 6 -24q5 -5 23.5 -11.5t26.5 -6.5h3q7 7 22 13t29.5 9.5t15.5 4.5q10 6 12.5 4t-2.5 -12q-9 -17 -70 -84q-1 -1 -37 -41l-36 -39q-20 -20 -55 -47
t-41 -27q-2 0 -19 -17q-71 -71 -71 -92q0 -32 26 -32q7 0 17 7.5t18 15.5t19.5 20.5t14.5 15.5q15 15 25.5 21t35.5 30l49 46q49 45 50 46q16 16 66 69t65 68q21 21 26 21q4 0 5.5 -10.5t-1.5 -13.5t-3 -18v-11q0 -14 -2 -16q-3 -3 -6 -24t-3 -41q0 -25 5 -34.5t24 -9.5
q12 0 15.5 2t8.5 15q5 11 5 21v8q0 16 12 51q10 30 10 75q0 12 -3 31t-3 29q0 6 1 16.5t1 14.5q0 15 -9.5 25.5t-24.5 10.5z" />
</svg>
