<?xml version="1.0" standalone="no"?>
<!DOCTYPE svg PUBLIC "-//W3C//DTD SVG 1.1//EN" "http://www.w3.org/Graphics/SVG/1.1/DTD/svg11.dtd" >
<svg xmlns="http://www.w3.org/2000/svg" xmlns:xlink="http://www.w3.org/1999/xlink" version="1.1" viewBox="-10 0 617 1000">
   <path fill="currentColor"
d="M540 206q0 8 -13 53.5t-13 61.5q-1 13 -7.5 34.5t-6.5 24.5q0 8 -3 11t-7.5 27.5t-14.5 34.5q-3 3 -14 3q-18 0 -24 -6q-5 -5 -11.5 -23.5t-6.5 -26.5v-3q7 -7 13 -22t9.5 -29.5t4.5 -15.5q6 -10 4 -12t-12 3q-17 9 -84 70q-1 0 -40.5 35.5t-39.5 36.5q-20 20 -47 55.5
t-27 41.5q0 1 -17 18q-72 72 -92 72q-32 0 -32 -27q0 -9 9.5 -20.5t29 -29t20.5 -18.5q15 -15 21 -26t30 -36l45 -49q46 -49 47 -50q16 -16 69 -66t68 -65q21 -21 21 -25t-10.5 -5.5t-13.5 1.5q-2 2 -18 2h-11q-13 0 -16 3t-24 6t-41 3q-25 0 -34.5 -5t-9.5 -24
q0 -12 2 -15.5t15 -8.5q13 -6 21 -6q1 0 3.5 0.5t4.5 0.5q13 0 51 -13q30 -10 75 -10q12 0 31 3t29 3q6 0 16.5 -0.5t14.5 -0.5q15 0 25.5 9.5t10.5 24.5z" />
</svg>
