<?xml version="1.0" standalone="no"?>
<!DOCTYPE svg PUBLIC "-//W3C//DTD SVG 1.1//EN" "http://www.w3.org/Graphics/SVG/1.1/DTD/svg11.dtd" >
<svg xmlns="http://www.w3.org/2000/svg" xmlns:xlink="http://www.w3.org/1999/xlink" version="1.1" viewBox="-10 0 631 1000">
   <path fill="currentColor"
d="M81 183q0 -15 9.5 -25.5t24.5 -10.5q9 0 15 3q4 3 46 13t54 10q13 1 34.5 8t24.5 7q8 0 11 3t27.5 7t34.5 14q3 3 3 14q0 18 -6 24q-5 5 -23.5 12t-26.5 7q-2 0 -3 -1q-7 -7 -21.5 -12.5t-29 -9.5t-15.5 -5q-10 -6 -12.5 -3.5t2.5 12.5q9 17 70 84q0 1 35.5 40.5
t36.5 39.5q20 20 55.5 46.5t41.5 26.5q1 0 18 17q72 72 72 92q0 33 -27 33q-9 0 -20.5 -9.5t-29 -29t-18.5 -20.5q-15 -15 -26 -21.5t-36 -30.5l-49 -46q-49 -45 -50 -46q-16 -16 -66 -68.5t-65 -67.5q-21 -21 -25 -21t-5.5 10.5t1.5 13.5q2 2 2 18v10q0 13 3 16t6 24t3 41
q0 25 -5 34.5t-24 9.5q-12 0 -15.5 -2t-8.5 -15q-6 -13 -6 -20q0 -1 0.5 -4t0.5 -5q0 -13 -13 -51q-10 -30 -10 -74q0 -13 3 -32t3 -29q0 -6 -0.5 -16.5t-0.5 -14.5z" />
</svg>
