<?xml version="1.0" standalone="no"?>
<!DOCTYPE svg PUBLIC "-//W3C//DTD SVG 1.1//EN" "http://www.w3.org/Graphics/SVG/1.1/DTD/svg11.dtd" >
<svg xmlns="http://www.w3.org/2000/svg" xmlns:xlink="http://www.w3.org/1999/xlink" version="1.1" viewBox="-10 0 619 1000">
   <path fill="currentColor"
d="M103 629q-15 0 -25.5 -10t-10.5 -25q0 -8 3 -14q3 -4 13 -46t10 -54q1 -13 8 -34.5t7 -24.5q0 -8 3 -11q2 -2 4.5 -19.5t9.5 -32t21 -14.5q18 0 24 6q5 5 12 23.5t7 26.5q0 2 -1 3q-7 7 -13 22t-9.5 29.5t-4.5 15.5q-6 10 -3.5 12.5t12.5 -2.5q17 -9 84 -70q1 -1 40 -37
l40 -36q20 -20 46.5 -55t26.5 -41q0 -2 17 -19q71 -71 92 -71q33 0 33 26q0 7 -7.5 17t-15.5 18t-20.5 19.5t-15.5 14.5q-15 15 -21.5 25.5t-30.5 35.5l-46 49q-45 49 -46 50q-16 16 -68.5 66t-67.5 65q-21 21 -21 26q0 4 10.5 5.5t13.5 -1.5t18 -3h11q13 0 15 -2
q3 -3 24 -6t41 -3q25 0 34.5 5t9.5 24q0 12 -2 15.5t-15 8.5q-11 5 -20 5h-9q-16 0 -51 12q-30 10 -74 10q-13 0 -32 -3t-29 -3q-6 0 -16.5 1t-14.5 1z" />
</svg>
