<?xml version="1.0" standalone="no"?>
<!DOCTYPE svg PUBLIC "-//W3C//DTD SVG 1.1//EN" "http://www.w3.org/Graphics/SVG/1.1/DTD/svg11.dtd" >
<svg xmlns="http://www.w3.org/2000/svg" xmlns:xlink="http://www.w3.org/1999/xlink" version="1.1" viewBox="-10 0 468 1000">
   <path fill="currentColor"
d="M89 555q0 -4 -14.5 -24.5t-14.5 -34.5q0 -7 11 -16t18 -9q8 0 29 10.5t21 14.5q0 9 6.5 24t14 28t7.5 14q6 24 13 1q7 -24 10 -109l2 -54l3 -54q0 -29 -6 -72.5t-10 -47.5q-1 -1 -1 -25q0 -48 2.5 -74.5t5.5 -32.5t9 -11q14 -11 24 -9q14 3 18.5 11.5t4.5 34.5v24
q-1 25 -1 27q0 21 3 33.5t4 46.5l2 67q3 66 3 68q0 23 -2 95.5t-2 93.5q0 34 5 34q4 0 11 -5.5t7 -9.5t14 -18t14 -17q0 -8 29 -41t44 -33q7 0 18 11q9 8 9.5 12t-4.5 17q-6 14 -16 23t-28 46q-10 20 -33 46t-41 37q-13 8 -31.5 29t-34.5 21q-13 0 -22 -8.5t-10 -14.5
q-1 -5 -23.5 -42t-30.5 -45q-7 -8 -14.5 -21.5t-12 -22.5t-6.5 -9q-4 0 -4 -9z" />
</svg>
