<?xml version="1.0" standalone="no"?>
<!DOCTYPE svg PUBLIC "-//W3C//DTD SVG 1.1//EN" "http://www.w3.org/Graphics/SVG/1.1/DTD/svg11.dtd" >
<svg xmlns="http://www.w3.org/2000/svg" xmlns:xlink="http://www.w3.org/1999/xlink" version="1.1" viewBox="-10 0 1128 1000">
   <path fill="currentColor"
d="M67 499q0 -11 18 -14t40 -3.5t27 -5.5t18 -5q8 0 17 3t20.5 8.5t13.5 6.5q9 4 9 17q0 12 -17.5 15.5t-71.5 5.5l-68 2l-4 -18q-2 -10 -2 -12zM903 493q0 -16 20 -28t46 -12q65 0 75 8t10 31q0 20 -24 20q-15 0 -20 5t-16 1q-14 -5 -48 -8q-43 -4 -43 -17zM470 341l26 1
q25 2 49 2q94 0 101 -4q10 -6 18 -3q20 5 81 7q11 0 24 10q4 3 6.5 6t4.5 6t4 8.5t3.5 9t3 11t2 11t2 13t2.5 14.5q3 18 6.5 29t5 19.5t1.5 31.5q0 75 -7 87q-14 25 -49 25q-13 0 -31 6q-17 5 -70 5q-42 0 -111.5 -5.5t-117.5 -5.5h-33q-51 0 -72 -4.5t-37 -18.5
q-16 -15 -17 -39q0 -5 -3 -38t-3 -48q0 -13 7 -38t7 -34q0 -12 13 -25t25 -13t16 -4t65 -13t78 -9zM721 559q15 0 18.5 -5.5t3.5 -20.5v-10q0 -15 -4 -34t-5 -31q-3 -52 -15 -57q-18 -8 -35 -8q-2 0 -20 1t-49.5 2.5t-64.5 1.5q-88 1 -111 3t-48 10q-28 10 -46 10
q-2 0 -5 -0.5t-4 -0.5q-6 0 -7.5 5.5t-6.5 33.5q-4 20 -4 49q0 17 10 43l6 13h84q82 0 117 5q33 5 56 5q27 0 54 -2.5t41.5 -5t15.5 -3.5q4 -4 19 -4zM527 238q0 6 11 30t11 29q0 19 -22 19q-25 0 -40.5 -24t-15.5 -50q0 -66 16 -80q4 -3 11 -3q12 0 23 10.5t11 23.5
q0 5 -2.5 21.5t-2.5 23.5z" />
</svg>
