<?xml version="1.0" standalone="no"?>
<!DOCTYPE svg PUBLIC "-//W3C//DTD SVG 1.1//EN" "http://www.w3.org/Graphics/SVG/1.1/DTD/svg11.dtd" >
<svg xmlns="http://www.w3.org/2000/svg" xmlns:xlink="http://www.w3.org/1999/xlink" version="1.1" viewBox="-10 0 875 1000">
   <path fill="currentColor"
d="M389 595q-1 0 -4 -2t-10.5 -4t-20.5 -2q-36 0 -70.5 9t-38.5 9q-41 0 -81 -21q-45 -23 -57.5 -52t-14.5 -107q-2 -64 -7.5 -79t-5.5 -25q0 -36 16 -54q9 -9 19 -27q10 -19 25 -24t67 -5h53q61 0 79.5 -3.5t41.5 -3.5q60 -1 125.5 -9t75.5 -8q27 0 57 10.5t35 10.5
q12 0 28.5 7t23.5 7q15 0 29 20q10 14 19.5 72.5t9.5 102.5q0 14 -2 31t-2 30v19q0 17 -6 27t-6 21q0 2 0.5 5t0.5 4q0 5 -13 5q-12 0 -16.5 4.5t-7.5 2.5h-2q-4 0 -47 11.5t-61 11.5q-2 0 -4 -1t-11 -2t-27 -1q-29 0 -49.5 2.5t-30 4.5t-12.5 2q-2 0 -14.5 -3.5t-36.5 -3.5
q-16 0 -26.5 2t-15 4t-5.5 2zM705 414q0 -1 3.5 -7.5t3.5 -19.5q0 -8 -2 -34.5t-2 -35.5q0 -37 -26 -42q-8 -1 -18.5 -6t-29.5 -7q-35 -5 -66 -5l-6 1q-7 1 -19 2.5t-29 3t-41.5 3.5t-52.5 3.5t-65 3t-76 1.5q-100 2 -110 8q-5 4 -5 18q0 10 -4 10q-3 0 -3 38q0 108 8 134
q5 14 17.5 24t25.5 10q9 0 18 4.5t19 4.5q13 0 47.5 -4.5t55.5 -4.5q13 0 56 1.5t77 1.5q63 0 117.5 -3.5t57.5 -8.5q4 -6 11 -2h4q8 0 20.5 -7t16.5 -14q4 -8 4 -31q0 -17 -4 -28z" />
</svg>
