<?xml version="1.0" standalone="no"?>
<!DOCTYPE svg PUBLIC "-//W3C//DTD SVG 1.1//EN" "http://www.w3.org/Graphics/SVG/1.1/DTD/svg11.dtd" >
<svg xmlns="http://www.w3.org/2000/svg" xmlns:xlink="http://www.w3.org/1999/xlink" version="1.1" viewBox="-10 0 1006 1000">
   <path fill="currentColor"
d="M689 529l5 1q4 1 6 1q4 0 14.5 23t10.5 30q0 4 -4 4t-6.5 8t-5.5 19.5t-8 16.5q-4 4 -9 11.5t-11.5 14t-18.5 12.5q-18 8 -26 8q-14 0 -47.5 -6.5t-39.5 -12.5q-7 -5 -10 -5q-2 0 -19.5 7t-38.5 7q-33 0 -52 -17q-29 -27 -34 -37t-5 -43v-40l17 1q17 2 17 6q0 2 6.5 13.5
t6.5 18.5q0 8 4 8q3 0 4 4t6.5 11t18.5 13q15 6 24 6t9 -8q0 -4 7 -9t8 -15q2 -22 25 -22q10 0 17.5 4.5t7.5 9.5q0 12 27 30q39 27 50 1q3 -8 3 -19q0 -25 15.5 -40t25.5 -15zM402 273q12 0 17.5 -3.5t8.5 -7t23.5 -7t58.5 -3.5q109 0 126 13q3 3 28 11.5t29 12.5
q1 1 30 24t40 38q16 20 33 37q20 20 20.5 44.5t10.5 46.5q10 21 10 68q0 78 -8 93q-7 14 -7 21q0 10 -12.5 33t-20.5 28q-10 5 -10 13q0 4 -5 7.5t-15.5 10.5t-18.5 16q-11 12 -24.5 16.5t-21.5 5t-8 3.5q0 4 -16.5 6.5t-34.5 5.5t-20 7q-1 2 -5 2q-2 0 -11 -1.5t-27 -3.5
t-41 -2q-35 -1 -65.5 -8t-49.5 -17.5t-32.5 -20.5t-21 -17t-9.5 -7t-18.5 -24t-21.5 -26t-12.5 -18t-10.5 -18t-6 -23.5t-9 -27.5q-8 -8 -13 -35.5t-6.5 -46.5t-1.5 -24q0 -17 7 -34t15 -29.5t9 -16.5q2 -10 11.5 -24.5t9.5 -18.5q0 -3 16.5 -19t16.5 -21q0 -18 23.5 -35.5
t23.5 -18.5q0 -5 16 -5zM782 548q0 -20 -3 -35t-5 -19l-2 -5q1 0 -3 -9.5t-8.5 -21.5t-4.5 -18q0 -13 -28.5 -43t-57.5 -48q-17 -11 -17 -14q0 -4 -25 -11q-25 -8 -101 -8q-51 0 -64.5 1.5t-19.5 7.5t-18 11.5t-14 11.5t-27 27t-30 31q-7 13 -11 13q-3 0 -1.5 9.5t-2.5 9.5
q-5 0 -15 16.5t-10 24.5q0 10 -4 13.5t-4 16.5q0 15 5.5 30t5.5 20v6q0 7 6 18t6 15t14.5 21.5t14.5 22.5q0 6 4 6q5 0 5 7t25.5 32.5t35.5 28.5q13 4 26 12q29 17 110 17q33 0 53.5 -6.5t23.5 -7.5q58 -9 90 -44q22 -25 30 -37t14.5 -37t6.5 -65zM283 114q10 0 48 35.5
t38 49.5q0 7 -5.5 14t-10.5 10t-7 3q-9 0 -67.5 -49t-67.5 -49q-3 0 -23.5 -9t-35.5 -9q-16 0 -19 3t-2 14t6.5 24t5.5 17q0 13 14 37.5t22 32.5q10 8 10 13q0 3 11.5 13.5t11.5 15.5q0 4 10 13.5t10 21.5q0 3 -1.5 9t-2 9t0.5 6q2 3 -14 14l-17 10l-19 -19q-11 -11 -22 -25
t-17 -22.5t-10 -10.5q-7 -4 -7 -10q0 -5 -13.5 -17.5t-13.5 -13.5h1q1 0 1 -1t-8 -15t-16 -38t-8 -50q0 -21 4 -37q8 -34 17.5 -43t40.5 -13q24 -3 33 -1q37 11 72.5 28.5t39.5 27.5q5 11 10 11zM834 333q-9 0 -22.5 -6t-13.5 -18q0 -11 12 -37t19 -32q7 -5 7 -11
q0 -7 6 -13q7 -7 16.5 -36t9.5 -42q0 -55 -41 -55q-12 0 -17.5 3t-17 11.5t-29.5 16.5q-20 9 -39.5 27.5t-19.5 28.5q0 5 -16.5 19t-22.5 14q-10 0 -20.5 -11t-10.5 -21q0 -13 13.5 -32t29.5 -29q9 -6 36 -32t37 -28q1 0 38.5 -14.5t53.5 -14.5q15 0 30 7t22 13.5t7 8.5
q0 4 11 17q20 21 20 82q0 5 -8.5 25.5t-8.5 30.5q0 8 -6 15.5t-6 11.5q-3 22 -7 27.5t-11 12t-14 25.5q-13 36 -37 36z" />
</svg>
