<?xml version="1.0" standalone="no"?>
<!DOCTYPE svg PUBLIC "-//W3C//DTD SVG 1.1//EN" "http://www.w3.org/Graphics/SVG/1.1/DTD/svg11.dtd" >
<svg xmlns="http://www.w3.org/2000/svg" xmlns:xlink="http://www.w3.org/1999/xlink" version="1.1" viewBox="-10 0 844 1000">
   <path fill="currentColor"
d="M341 132q0 -7 -2 -11t-2 -6q0 -11 13 -24.5t24 -13.5q25 0 36 17q6 9 6 46q0 2 -4.5 25.5t-4.5 86.5q0 33 8 118q2 27 6.5 34.5t18.5 7.5q11 0 32 -3t31 -3q93 0 155 11q13 2 37.5 12t27.5 15q2 2 8 10t10.5 14.5t4.5 10.5q0 9 7 28.5t7 44.5q0 78 -11 91q-8 10 -8 18
q0 13 -36.5 33t-54.5 20t-26 5q-8 4 -124 10.5t-167 6.5q-49 0 -127 -4q-59 -4 -74 -6.5t-19 -9.5q-15 -28 -15 -49q0 -5 1 -7q2 -8 1.5 -10.5t-3.5 -6.5q-2 -4 3 -4t4 -27q-2 -40 -2 -49v-56q0 -3 -0.5 -8t-0.5 -11q0 -9 2.5 -15.5t2.5 -8.5t-2 -8.5t-2 -15.5q0 -5 0.5 -14
t0.5 -12q0 -10 -5 -10q-8 0 2 -5q11 -7 8 -15q0 -3 -3 -3t-3.5 -40.5t-2 -84t-6.5 -49.5q-6 -6 -6 -48q0 -81 39 -81q6 0 20.5 16t14.5 26q0 3 -2 15.5t-2 17.5l1 17q1 17 2.5 43.5t3.5 56t3 60.5t1 51v26q0 165 7 175q3 5 -2.5 18t0.5 15q5 3 3 18q-2 11 1 13.5t22 4.5
q8 1 20 1q7 0 13.5 -1t7.5 -1q2 0 7 3q4 3 53.5 6.5t83.5 3.5q24 0 51 -1t50 -2t45.5 -2.5t40.5 -3.5t31.5 -3t21.5 -2l8 -1q20 0 28 -11.5t14 -11.5q8 0 16.5 -8.5t8.5 -17.5q0 -7 4.5 -14t-0.5 -17q-4 -15 -2 -18q3 -5 -1 -16.5t-9 -11.5q-4 0 -4 -8q0 -11 -31.5 -19
t-63.5 -11l-32 -4q0 -1 -13 -1q-29 0 -58 3.5t-69 3.5q-27 0 -55 -2q-12 -1 -14.5 -4.5t-7.5 -19.5q-6 -23 -4 -26q1 -2 5 -52.5t4 -65.5q0 -56 -8 -61q-4 -3 -4 -41q0 -28 2.5 -54t2.5 -28z" />
</svg>
