<?xml version="1.0" standalone="no"?>
<!DOCTYPE svg PUBLIC "-//W3C//DTD SVG 1.1//EN" "http://www.w3.org/Graphics/SVG/1.1/DTD/svg11.dtd" >
<svg xmlns="http://www.w3.org/2000/svg" xmlns:xlink="http://www.w3.org/1999/xlink" version="1.1" viewBox="-10 0 427 1000">
   <path fill="currentColor"
d="M354 630q0 25 -9 42t-18 25t-9 11q0 5 -24.5 29.5t-40.5 36.5q-23 17 -90 17q-28 0 -28 -7q0 -3 -26 -17t-36 -31.5t-10 -50.5q0 -58 32 -89q18 -18 22 -18t6 -9q0 -2 7 -10t24.5 -17.5t38.5 -9.5q27 0 61 8t67 31.5t33 58.5zM124 673q0 11 13.5 30.5t37.5 19.5
q40 0 52.5 -6.5t33.5 -34.5q25 -33 25 -48q0 -10 -3.5 -16t-8.5 -8.5t-15 -6.5q-22 -9 -44 -9q-9 0 -20.5 3.5t-19 7.5t-7.5 6q0 3 -9 7q-7 2 -15.5 15.5t-8.5 22.5q0 4 -5.5 7.5t-5.5 9.5zM213 61q7 0 18 3l11 3q3 0 6.5 18.5t3.5 33.5v8q0 16 1.5 35.5t1.5 30.5
q0 29 -4.5 80t-4.5 81q0 15 1 26t1.5 17t0.5 7q-3 36 -21 36q-3 0 -9 -3q-11 -6 -14 1.5t-17 -1.5q-12 -7 -12 -21q0 -4 6.5 -20.5t7.5 -58.5q0 -29 3.5 -66.5t3.5 -69.5q0 -4 -6 -42t-6 -56q0 -42 28 -42z" />
</svg>
