<?xml version="1.0" standalone="no"?>
<!DOCTYPE svg PUBLIC "-//W3C//DTD SVG 1.1//EN" "http://www.w3.org/Graphics/SVG/1.1/DTD/svg11.dtd" >
<svg xmlns="http://www.w3.org/2000/svg" xmlns:xlink="http://www.w3.org/1999/xlink" version="1.1" viewBox="-10 0 625 1000">
   <path fill="currentColor"
d="M172 154q0 -33 64 -33q8 0 23.5 1.5t22.5 1.5t65.5 6t68.5 6q1 0 46 -7.5t62 -7.5q13 0 22.5 15t9.5 32q0 11 -4 14q-4 2 -15 59q-8 51 -24 75q-9 18 -27.5 39t-34.5 24q-7 2 -14 6.5t-16 4.5q-26 0 -74.5 -20.5t-48.5 -30.5q0 -3 -19 -24t-19 -23q0 -4 -4 -4q-3 0 -3 28
q0 7 1.5 31t1.5 39q0 14 -3 37l-3 31l23 11q55 27 72 43q12 11 21.5 32t9.5 34q0 26 1 30q2 10 2 13q0 20 -39 59q-25 25 -43 35.5t-47 16.5q-24 4 -28 4q-19 0 -79 -15q-8 -2 -34.5 -29.5t-34.5 -43.5q-9 -17 -9 -38q0 -77 52 -110q28 -18 38 -28q12 -12 21 -12
q10 0 10 -44q0 -6 -0.5 -24.5t-0.5 -28.5q0 -32 4 -44q5 -12 0 -17t-7 -46q-2 -44 -9 -90q0 -2 -0.5 -4t-0.5 -4zM290 198q0 4 11 27t11 25q0 7 14 22.5t31 27.5q24 16 54 16q21 0 28.5 -2.5t17.5 -12.5q15 -15 16 -38q0 -5 6 -11q5 -5 7 -28l1 -23l-46 -3q-3 0 -51 -3.5
t-71 -3.5h-6q-23 0 -23 7zM119 580q0 29 28 55.5t67 26.5q48 0 83 -33q19 -19 19 -35q0 -29 -28.5 -50t-61.5 -25q-21 -3 -31 9q-7 7 -27 13t-34.5 14t-14.5 25z" />
</svg>
