<?xml version="1.0" standalone="no"?>
<!DOCTYPE svg PUBLIC "-//W3C//DTD SVG 1.1//EN" "http://www.w3.org/Graphics/SVG/1.1/DTD/svg11.dtd" >
<svg xmlns="http://www.w3.org/2000/svg" xmlns:xlink="http://www.w3.org/1999/xlink" version="1.1" viewBox="-10 0 737 1000">
   <path fill="currentColor"
d="M72 442l4 -6q3 -5 7.5 -13.5t9 -17.5t8 -18t3.5 -14q0 -7 19 -27t23 -30q3 -7 7 -11.5t7.5 -6t6 -3t2.5 -3.5q0 -4 26 -17t26 -16q0 -2 8 -5t18.5 -8t14.5 -9t12 -5t12 0t5 -2q0 -3 37 -3q38 0 49.5 4.5t14.5 4.5q9 0 28 7.5t21 12.5q1 3 7 3q5 0 18.5 7t19.5 7
q11 0 30 -27.5t34 -35.5q18 -9 18 -14t25 -29.5t33 -24.5q12 0 25 9.5t13 16.5q0 1 -3.5 6t-3.5 13q0 5 -2 8t-10.5 9t-20 14.5t-35.5 30t-53 49.5l-19 20l12 14q40 48 40 106q0 24 -9.5 56t-19.5 55.5t-10 26.5q0 8 -13 16q-6 4 -27.5 22t-34.5 25q-8 4 -14.5 9t-9 7.5
t-5 4.5t-5.5 2l-4 2q-4 2 -11 4.5t-16 6t-20.5 7t-23.5 6t-26.5 4.5t-27.5 2q-28 0 -65.5 -15t-51.5 -29q-33 -31 -38 -36.5t-5 -11.5q0 -5 -3 -9t-9 -11.5t-11 -19.5q-5 -11 -13 -21t-12 -19t-4 -24q0 -19 -4 -37t-4 -19zM443 325q0 -15 -39 -31t-80 -16q-60 0 -94 34
q-9 11 -25.5 26.5t-28 26t-11.5 13.5l-4 6q-4 5 -9.5 13.5t-11.5 19.5t-10 24t-4 25q0 26 14 46.5t45 52.5q34 35 48 39q10 2 33 12.5t35 10.5q4 0 13 -3.5t14 -1.5q6 2 12 2q23 0 53.5 -20t39.5 -24q18 -7 33 -25.5t22.5 -38t12.5 -40.5t6.5 -32t1.5 -14q0 -35 -16 -53
l-13 -15l-14 10q-10 8 -16 20.5t-13 12.5t-43 33t-42 35q-9 4 -9 10t-19 26.5t-19 26.5q0 11 -23 11q-22 0 -33 -8.5t-12.5 -15.5t-1.5 -18q0 -18 -7 -32q-17 -35 -18 -45t10 -20q13 -13 23 -13q8 0 21 12t13 20q0 3 4 7.5t8 4.5q9 0 34 -19.5t30 -28.5q5 -8 47.5 -32.5
t42.5 -33.5z" />
</svg>
