<?xml version="1.0" standalone="no"?>
<!DOCTYPE svg PUBLIC "-//W3C//DTD SVG 1.1//EN" "http://www.w3.org/Graphics/SVG/1.1/DTD/svg11.dtd" >
<svg xmlns="http://www.w3.org/2000/svg" xmlns:xlink="http://www.w3.org/1999/xlink" version="1.1" viewBox="-10 0 737 1000">
   <path fill="currentColor"
d="M343 87q8 0 19.5 5t15.5 5q3 0 10 -5.5t20 -5.5t28.5 7t20.5 7q7 0 9 4q3 6 17 13.5t26.5 13t12.5 7.5q0 4 19 28.5t26 28.5q3 2 16.5 23.5t29 64t15.5 82.5q0 35 -5.5 60.5t-11 37.5t-5.5 13q0 3 -14 28t-14 30q0 6 -6.5 9.5t-6.5 6.5q0 6 23 35t23 32q0 4 16.5 25
t29.5 33q14 14 11 29q-2 15 -10 20.5t-27 5.5q-26 0 -34 -6.5t-11 -27.5q-5 -30 -58 -78l-19 -17l-17 10q-18 11 -82.5 23t-111.5 12q-29 0 -48 -7.5t-23 -7.5q-13 0 -44 26t-31 45q0 4 1 6t1 3q0 6 -13.5 18t-23.5 12q-4 0 -12.5 -2t-20.5 -11.5t-12 -25.5
q0 -10 22.5 -38.5t27.5 -45.5q2 -8 15.5 -16.5t13.5 -16.5q0 -12 -33 -45l-29 -30l1 -49q1 -55 12 -70t54 -21q34 -4 54.5 -11t26 -12t10 -9t10.5 -4q5 0 17 -11.5t16 -11.5q1 0 10 -9.5t18.5 -26.5t9.5 -32q0 -29 -7 -67t-7 -46q0 -6 1 -13.5t8 -18.5t20 -11zM555 418
q0 -2 5 -17t5 -31q0 -10 -2 -16.5t-3.5 -8.5t-2.5 -4t1 -3v-4q0 -8 -5 -22.5t-8 -14.5q-4 0 -4 -16q0 -15 -18 -32q-4 -3 -31 -34q-12 -15 -36 -31t-41 -24t-19 -8q-4 0 -4 12t5 35t5 31q0 4 -3.5 10.5t-3.5 18.5q0 21 -18.5 51t-36.5 49t-21 20q-8 2 -8 7q0 3 -16 10
t-36.5 16.5t-27.5 16.5q-5 5 -25 9t-36.5 9t-16.5 14q0 1 4 7.5t4 11.5q0 9 40 44.5t60 43.5q17 8 50 8q26 0 67.5 -8.5t48.5 -8.5t10.5 -3.5t5.5 -6.5t4 -1q1 1 5 1q14 0 41.5 -29t43.5 -62q18 -38 18 -40z" />
</svg>
