<?xml version="1.0" standalone="no"?>
<!DOCTYPE svg PUBLIC "-//W3C//DTD SVG 1.1//EN" "http://www.w3.org/Graphics/SVG/1.1/DTD/svg11.dtd" >
<svg xmlns="http://www.w3.org/2000/svg" xmlns:xlink="http://www.w3.org/1999/xlink" version="1.1" viewBox="-10 0 660 1000">
   <path fill="currentColor"
d="M554 143q30 0 30 31q0 8 -7 15.5t-7 11.5q0 5 -11 9q-9 2 -22.5 22t-13.5 31q0 4 -11 21.5t-14 29.5q-2 11 -40 58.5t-38 57.5q0 4 -14 23.5t-14 24.5t-6.5 11t-6.5 12q0 3 -8.5 12.5t-21 24t-18.5 26.5t-19 31t-22.5 32.5t-9.5 17.5q0 5 -5 10t-5 14q0 12 -12.5 19.5
t-21 8.5t-13.5 1q-9 0 -21.5 -19.5t-18.5 -22.5q-6 -4 -6 -10q0 -4 -36 -42.5t-42 -52.5q-5 -11 -17.5 -27.5t-13.5 -34.5l-2 -21l21 -7q11 -4 21 -4q23 0 33 14.5t17 35t19 29.5q10 7 16 18t18 20l16 13l15 -13q14 -12 14 -19q0 -3 41 -59.5t46 -74.5q2 -8 12.5 -17.5
t17.5 -22.5t16.5 -21t14.5 -19q7 -16 12 -16q3 0 10.5 -13.5t18 -32.5t16.5 -27q11 -15 11 -26q1 -12 19 -40t30 -35q12 -8 33 -8z" />
</svg>
