<?xml version="1.0" standalone="no"?>
<!DOCTYPE svg PUBLIC "-//W3C//DTD SVG 1.1//EN" "http://www.w3.org/Graphics/SVG/1.1/DTD/svg11.dtd" >
<svg xmlns="http://www.w3.org/2000/svg" xmlns:xlink="http://www.w3.org/1999/xlink" version="1.1" viewBox="-10 0 804 1000">
   <path fill="currentColor"
d="M80 443q0 -9 10 -28.5t10 -27.5q0 -10 5 -10t5 -6q0 -7 9.5 -13t19.5 -10l10 -4q2 -3 13.5 -9.5t35 -14t47.5 -7.5q30 0 58.5 8t44 18t15.5 16l11 13q12 14 12 28q0 9 2 11t7 0q34 -14 34 -17t4 -4.5t10 -4t10 -6.5q5 -5 31.5 -18t31.5 -13q3 0 24.5 -9t40.5 -9
q47 0 68 14q4 3 10.5 5.5t9.5 4t3 4.5q0 4 23 38.5t23 48.5q0 5 -1.5 19t-11 43t-25.5 49q-15 18 -22 33q-6 12 -17 16t-11 7q0 4 -11 11.5t-27 17t-23 15.5q-23 20 -41 31t-23.5 13t-5.5 4t-5.5 4.5t-15.5 10t-17 20.5q-7 14 -21.5 25t-23.5 11q-6 0 -6 -6q-1 -4 -3 -3
t-9 0.5t-13 -6.5q-41 -38 -41 -43q0 -4 -6 -4q-4 0 -22.5 -14.5t-28.5 -16.5q-13 -3 -13 -6q0 -4 -11.5 -8t-26 -10.5t-20.5 -13.5q-7 -9 -18 -13q-20 -7 -61 -48t-41 -67q0 -4 -8 -29t-8 -40zM394 501q-18 0 -32.5 -14.5t-14.5 -26.5q0 -1 4 -9.5t-4 -17.5q-7 -14 -7 -21
t-8 -7q-5 0 -21 -12t-22 -12q-5 0 -14 -1t-14 -1q-17 0 -28 3t-16.5 6t-7.5 3q-4 0 -13.5 7t-15.5 7q-7 0 -20 17t-13 28q0 20 24.5 59.5t40.5 43.5q10 3 10 7t5 4q3 0 14.5 8t26.5 19t25 15t23.5 12.5t23 14.5t11.5 6q1 0 14 11.5t19 11.5q5 0 15 12.5t13 12.5l5 -7
q5 -7 12.5 -14.5t13.5 -7.5q5 0 12 -4.5t19 -13t23 -14.5q54 -29 111 -82q19 -17 26.5 -33.5t11.5 -45.5q3 -23 0.5 -27.5t-7 -7t-4.5 -8.5q0 -3 -6 -10t-19 -14t-29 -7q-28 0 -57.5 18.5t-34.5 18.5q-13 0 -30.5 14.5t-28.5 28t-11 14.5q-6 16 -25 16zM110 112
q17 -24 34 -24q13 0 22 13q7 11 41.5 42.5t37.5 31.5q2 0 10.5 18.5t8.5 23.5q0 1 -2 5t-7.5 8t-12.5 4q-14 0 -29.5 -12t-68.5 -61q-34 -32 -34 -49zM580 151q8 -13 36 -41.5t42 -28.5q6 0 22 14t16 19q0 7 -6 15.5t-11 8.5q-4 0 -15.5 14.5t-22.5 18.5q-8 3 -12.5 7.5
t-7.5 9.5t-18.5 17.5t-42.5 29.5q-16 10 -29 10q-21 -1 -21 -18q0 -11 11 -26q8 -12 18 -19.5t15.5 -10.5t5.5 -6q0 -4 6 -4q7 0 14 -10zM388 226q-29 0 -29 -46q0 -2 0.5 -6t0.5 -6q1 -6 1 -14q0 -9 -3 -14.5t-3 -9.5q0 -15 9.5 -30.5t23.5 -15.5h3q18 5 19 8q0 5 1.5 6
t3.5 2t3.5 11t1.5 30q0 51 -7.5 68t-24.5 17z" />
</svg>
