<?xml version="1.0" standalone="no"?>
<!DOCTYPE svg PUBLIC "-//W3C//DTD SVG 1.1//EN" "http://www.w3.org/Graphics/SVG/1.1/DTD/svg11.dtd" >
<svg xmlns="http://www.w3.org/2000/svg" xmlns:xlink="http://www.w3.org/1999/xlink" version="1.1" viewBox="-10 0 777 1000">
   <path fill="currentColor"
d="M659 489q0 6 -17.5 30.5t-35.5 46.5l-18 21q0 3 -11.5 10t-11.5 10t-16.5 20t-19.5 17t-33 30q-22 22 -26 29t-4 27v26h-17q-18 0 -36 -18.5t-21 -18.5q-4 0 -22 -13.5t-38.5 -29.5t-26.5 -20q-45 -28 -87 -64.5t-63 -61t-21 -28.5q0 -2 -11.5 -28t-11.5 -50q0 -18 5 -23
q3 -4 1 -6q-1 0 6.5 -13t16 -29.5t8.5 -23.5q0 -9 -7 -9q-4 0 -10.5 -8t-17 -22t-20.5 -23q-27 -23 -27 -85q0 -23 22 -66q5 -11 18.5 -21.5t13.5 -15.5t19 -14.5t48.5 -17.5t54.5 -8q27 0 43.5 7t23.5 14t10 7q5 0 35 28l30 28l10 -9q11 -9 15 -9q3 0 7.5 -7t9.5 -7t17 -12
q4 -4 22 -13.5t52.5 -20t67.5 -10.5q21 0 37 11.5t20 11.5q15 0 33.5 44t18.5 71q0 17 -13 33.5t-13 20.5q0 7 -21 32t-21 27q0 4 11 14.5t16 10.5q6 0 6 5q0 2 10 19.5t10 51.5q0 27 -5 55.5t-11 34.5q-4 4 -4 12zM607 116q-2 -15 -30 -15q-17 0 -44.5 8t-47 17t-19.5 12
t-11.5 9t-11.5 9q0 4 -16.5 21t-20.5 17q-3 0 -31.5 -14t-33.5 -14t-3.5 -5t-1.5 -5q-2 0 -3 -2t-2.5 -6t-11 -11t-25.5 -15q-31 -15 -48 -15t-32.5 5.5t-17.5 5.5h-2l-2 -1h-2q-5 0 -18.5 7t-27.5 23t-14 35q0 16 5 25.5t34 51.5q7 10 21 18t23 8q3 0 14 -5.5t29 -5.5
q46 0 74 10.5t41 20.5t24 10q2 0 53.5 -24.5t67.5 -24.5q6 0 16.5 1t14.5 1q9 0 18.5 -7.5t15 -15t5.5 -9.5q0 -5 10.5 -17t10.5 -16q0 -5 5 -5q4 0 4 -6q0 -4 7 -11.5t7 -19.5q0 -19 -11.5 -31t-11.5 -14zM520 337q-14 0 -45.5 15.5t-34.5 21.5q0 1 -8 11t-18.5 20.5
t-16.5 10.5q-4 0 -12 -2t-19.5 -11.5t-12.5 -24.5q-1 -17 -12.5 -24t-25 -9t-16.5 -7q-3 -4 -12 -4q-2 0 -7.5 0.5t-17.5 4t-23.5 9t-24.5 17t-21 26.5q-13 24 -13 40q0 22 25 54t49.5 53t28.5 21q3 0 5 2t11 10t24 18q25 16 40 31q12 11 31 18.5t28 7.5q8 0 22 -12.5
t16 -20.5q4 -11 9 -11q6 0 32 -26t26 -32q0 -4 20 -15.5t24 -18.5q8 -12 18 -29q8 -12 14 -32t8.5 -33t2.5 -15q0 -31 -14 -43q-5 -4 -32.5 -12.5t-47.5 -8.5z" />
</svg>
