<?xml version="1.0" standalone="no"?>
<!DOCTYPE svg PUBLIC "-//W3C//DTD SVG 1.1//EN" "http://www.w3.org/Graphics/SVG/1.1/DTD/svg11.dtd" >
<svg xmlns="http://www.w3.org/2000/svg" xmlns:xlink="http://www.w3.org/1999/xlink" version="1.1" viewBox="-10 0 723 1000">
   <path fill="currentColor"
d="M164 415q8 -11 20.5 -14t42.5 -3h6l41 1l40 27q38 26 46 34q14 16 20 16q7 0 20 -13q31 -29 69 -37q2 0 16.5 -4.5t31.5 -4.5q67 0 82 41q2 6 7 17t7.5 20t2.5 20q0 31 -10 41q-9 9 -13 21q-3 9 -28 36q-15 16 -78 86q-7 7 -7 12q0 4 -14 16q-13 12 -18 21q-5 11 -28 11
q-39 0 -51 -28q-8 -17 -13 -17q-3 0 -31 -24q-41 -36 -60 -47q-7 -3 -33 -26.5t-34 -27.5q-12 -5 -21 -12q-7 -6 -20 -27t-15 -29q-1 -4 -6 -16.5t-5 -22.5q0 -34 16 -48q14 -14 17 -19zM412 541q0 3 -7 7t-13 4q-26 0 -65 -37q-29 -27 -79 -44q-17 -5 -21 -5q-7 0 -14 9
t-7 17q0 12 17 28.5t43.5 35.5t31.5 24q15 14 49.5 33t49.5 34q6 6 10 6q6 0 22 -16q17 -17 22 -14q2 1 2.5 0.5t-0.5 -2.5q-3 -4 9 -13q13 -8 36 -31t23 -28q0 -4 3 -4q9 0 9 -30q0 -28 -35 -28q-16 0 -33 7q-16 7 -34.5 23.5t-18.5 23.5zM125 198q-3 0 -9 -11.5t-8 -11.5
q-5 0 -11.5 -23t-6.5 -35q0 -11 5 -27t11 -23q9 -11 69 -35q14 -6 22 -6q6 0 35 9t34 9t16 9t15 9q5 0 25 22q20 20 34 20q8 0 14 -7t22.5 -17.5t26.5 -13.5q80 -23 92 -23q17 0 28 2.5t16 5t14.5 9.5t18.5 12q19 11 25.5 20.5t6.5 28.5q-4 42 -8 52.5t-21 28.5
q-23 25 -27 25q-5 0 -27.5 25.5t-26.5 35.5q-5 12 -27 22t-30 26q-7 15 -15 21q-7 5 -5 15q2 9 -13 26q-10 11 -14.5 13t-13.5 0q-15 -4 -33 -24q-13 -14 -26.5 -26t-22.5 -18.5t-28 -20t-31 -22.5q-36 -27 -42 -27q-14 0 -31.5 -13.5t-30.5 -32.5q-19 -29 -22 -29zM267 133
q0 -5 -34 -18.5t-41 -13.5q-9 0 -16 7q-4 4 -6 10t-1.5 10.5t3.5 4.5q5 0 8 12q4 16 22 37t32 26q13 4 36 19q22 14 24 14q5 0 7 6t15 10q14 4 40 23q22 17 28 17q7 0 14 -13q13 -25 49 -50q59 -41 59 -51q0 -3 19 -22q18 -18 18 -30q0 -8 -4 -9.5t-25 -0.5q-15 0 -75 9
q-18 4 -18 8q0 5 -13 18q-19 19 -29 43q-7 18 -36 18q-10 0 -16 -2.5t-8 -5.5t-5 -10.5t-5 -10.5q-5 -12 -5 -18q0 -8 -19 -21q-18 -13 -18 -16z" />
</svg>
