<?xml version="1.0" standalone="no"?>
<!DOCTYPE svg PUBLIC "-//W3C//DTD SVG 1.1//EN" "http://www.w3.org/Graphics/SVG/1.1/DTD/svg11.dtd" >
<svg xmlns="http://www.w3.org/2000/svg" xmlns:xlink="http://www.w3.org/1999/xlink" version="1.1" viewBox="-10 0 914 1000">
   <path fill="currentColor"
d="M473 423q41 -30 98 -30q75 0 107 45q16 22 16 42q0 28 -24 28q-11 0 -25.5 -9.5t-17.5 -17.5q-4 -11 -20.5 -19t-36.5 -8q-27 0 -42.5 7t-31.5 26l-17 18l-16 -7q-16 -8 -16 -23q0 -20 4.5 -29.5t21.5 -22.5zM65 295q0 -10 11 -23t20 -13q7 0 21.5 8t14.5 12q0 3 13 23.5
t21 29.5q5 6 6 11t5 10q1 1 7 9t11 13.5t11.5 10.5t11.5 5q29 0 60 -29q14 -14 19 -14q6 0 19 -10q9 -6 42 -21t41 -20q42 -26 140 -31q60 -2 78 -4q13 -2 18 2q3 2 28 6q21 3 35 13q13 9 17 9q7 0 47 43.5t48 58.5q13 28 13 61q0 36 -12.5 69t-32.5 43q-9 5 -12.5 8.5l-9 9
t-15.5 12.5q-42 33 -82 33q-17 0 -29 5t-56 5q-54 0 -96 -10q-59 -15 -68 -23q-9 -9 -29 -16q-17 -7 -49.5 -27.5t-39.5 -28.5q-8 -8 -15 -8q-9 0 -14 -9t-26 -19l-21 -11l-12 11q-11 11 -33.5 48t-38.5 48q-14 10 -29 6q-2 0 -5 -1q-13 -3 -14 -10q-1 -4 -1 -16
q0 -38 6 -38q9 0 42.5 -39.5t33.5 -52.5q0 -8 -9.5 -24t-14.5 -18q-6 -1 -15 -15t-9 -22q0 -7 -25 -30q-27 -24 -27 -40zM646 330q-27 -5 -79 -5q-56 0 -101 11q-3 1 -11.5 6.5t-12.5 5.5q-5 0 -71 30q-18 8 -41 26t-33 24q-25 16 -25 18q0 3 18 15q4 3 23 18t36 27t26 14
q12 4 28 14q43 27 98 33q35 5 47 9q15 5 21 5q9 0 37 -6t36 -6q16 0 26 -8q7 -6 16 -6q7 0 27.5 -15t20.5 -20q0 -8 6 -9q9 -4 16.5 -21t7.5 -33q0 -5 -2 -31q0 -7 -42 -49q-31 -30 -40.5 -36.5t-31.5 -10.5zM726 240q-18 0 -25 -4.5t-7 -18.5q0 -8 5.5 -14.5t23.5 -19.5
q25 -18 45 -36.5t20 -23.5t22 -3l22 1v19q0 18 -8 28q-35 40 -53 52q-11 6 -11 13t-34 7zM301 144q0 -10 10.5 -19.5t20.5 -9.5q12 0 15 14q3 11 28 36q24 24 24 29q0 6 -14 18q-15 13 -30 11q-17 -2 -17 -6q0 -3 -19 -32q-18 -27 -18 -41zM526 88q11 -5 14.5 -5t12.5 6
q17 12 17 27q0 16 -18 63q-13 33 -31 33q-13 0 -19 -19q-5 -13 -9 -13q-1 0 4.5 -19t12.5 -39l6 -20q0 -9 10 -14z" />
</svg>
