<?xml version="1.0" standalone="no"?>
<!DOCTYPE svg PUBLIC "-//W3C//DTD SVG 1.1//EN" "http://www.w3.org/Graphics/SVG/1.1/DTD/svg11.dtd" >
<svg xmlns="http://www.w3.org/2000/svg" xmlns:xlink="http://www.w3.org/1999/xlink" version="1.1" viewBox="-10 0 879 1000">
   <path fill="currentColor"
d="M425 632q-5 0 -10.5 2t-9.5 2q-7 0 -22 -7.5t-28 -10.5q-10 -2 -18 -5.5t-8 -4.5t-2 1l-1 1q-1 0 -15.5 -11t-19.5 -11q-6 0 -36 -19t-32 -19q-5 0 -16 13t-11 19q0 5 -6 12t-17 20t-19 26q-21 37 -44 37q-3 0 -25 -10q-13 -7 -16.5 -11.5t-3.5 -15.5q0 -18 6 -33t14 -18
q8 -2 25 -18t20 -16t31 -41q5 -7 4.5 -11t-7.5 -16q-8 -13 -26.5 -27.5t-18.5 -19.5t-15 -26t-21 -36l-8 -20l15 -14q16 -14 23 -14q11 0 57 58t58 58q9 0 12.5 -5.5t14.5 -19t35 -27.5q31 -18 45 -27q12 -8 89 -45q9 -4 33 -9t42 -8t20 -3q6 0 31 3t58 11.5t37 19.5
q1 3 22.5 13t21.5 20q0 4 19 17.5t19 17.5t6 10t12 19.5t6 34.5q0 33 -14 73q-12 33 -38 47t-61.5 23.5t-56.5 25.5q-14 11 -47 11q-29 0 -62.5 -8t-40.5 -8zM308 468q0 6 -13.5 14t-13.5 15q0 13 76 48q33 15 73.5 25t60 12.5t24.5 2.5q6 0 16.5 -2.5t26 -7t26.5 -6.5
q26 -6 45.5 -18t28.5 -23t14 -24t6 -19t1 -10q0 -15 -8.5 -25t-8.5 -12q0 -7 -3.5 -11.5t-20.5 -15.5q-24 -16 -37.5 -22.5t-37.5 -12.5t-56 -6q-18 0 -37 6t-40.5 15.5t-32.5 12.5q-14 4 -29.5 16.5t-19.5 12.5q-7 0 -7 5t-10.5 14t-16.5 9t-6 7zM235 181q0 -13 12.5 -27
t26.5 -14q19 0 42.5 27.5t25.5 27.5q4 0 6 4t6 11.5t10 12.5q8 7 8 21q0 13 -6.5 23.5t-16.5 10.5q-14 0 -51 -34t-46 -39q-17 -9 -17 -24zM681 241q-6 0 -9.5 6t-6 13.5t-12.5 13.5t-26 6q-37 0 -37 -27q0 -17 10 -26.5t58 -39.5q12 -8 42 -33t39 -36q9 -9 29 -9
q13 0 20.5 7.5t8.5 13t1 8.5q0 18 -45.5 54.5t-58.5 36.5q-6 0 -6 4q0 8 -7 8zM495 236q-38 0 -38 -39l1 -3q0 -3 0.5 -9t1.5 -12.5t1.5 -16t1.5 -18.5q2 -32 6 -42.5t15 -17.5q8 -4 11 -4q4 0 10 7t11.5 21t5.5 31q0 28 -3.5 50.5t-7 33.5t-3.5 13q0 6 -13 6z" />
</svg>
