<?xml version="1.0" standalone="no"?>
<!DOCTYPE svg PUBLIC "-//W3C//DTD SVG 1.1//EN" "http://www.w3.org/Graphics/SVG/1.1/DTD/svg11.dtd" >
<svg xmlns="http://www.w3.org/2000/svg" xmlns:xlink="http://www.w3.org/1999/xlink" version="1.1" viewBox="-10 0 632 1000">
   <path fill="currentColor"
d="M155 153q1 11 2 11l3 4v23q0 24 -2.5 70.5t-2.5 56.5q0 21 2 21q6 0 17 -10.5t11 -16.5q0 -9 7.5 -21t7.5 -17t16.5 -34.5t16.5 -40.5q0 -5 7 -17t7 -22q0 -6 10 -23.5t21.5 -34t16.5 -18.5q4 -2 14 -2q8 0 15 3t10.5 8.5t3.5 11.5q0 4 -3.5 12t-3.5 13t-7 14.5t-7 17.5
t-10 24t-10 30q0 8 -15.5 35.5t-15.5 31.5q0 3 -15.5 30.5t-15.5 37.5q0 2 1 2q4 0 8.5 -5t8.5 -7t15 3q7 4 15 4q9 0 31.5 -7t38.5 -7q12 0 41 13t48 26q8 6 29 18q9 5 23.5 25.5t27 45t15.5 40.5q4 20 4 40q0 23 -3.5 43.5t-3.5 21.5q0 4 2 5.5t2 4.5q0 14 -16.5 44
t-16.5 33q0 6 -4 6q-3 0 -11 8t-23 18t-34 14q-8 2 -44.5 17.5t-58.5 15.5q-18 0 -40.5 -10.5t-28.5 -10.5q-5 0 -21 -11.5t-26 -13.5q-12 -3 -35 -28t-36 -31q-12 -6 -22.5 -36t-10.5 -54q0 -11 3 -17t3 -10q0 -1 -12 -59t-12 -72q0 -11 -4 -11q-3 0 -6 -9t0 -11
q3 -1 3 -52q0 -29 7.5 -77.5t7.5 -82.5q0 -13 -5 -24t-5 -29q0 -22 6.5 -30t21.5 -8q22 0 31.5 16t9.5 26q0 1 -2 10t-2 15zM398.5 414q-4.5 0 -9.5 -4t-16.5 -8.5t-32.5 -4.5q-27 0 -45.5 6.5t-26.5 13t-11 6.5q-7 0 -29.5 25.5t-22.5 33.5q0 2 -16.5 35.5t-16.5 55.5
q0 15 12 36t22 25q8 3 17 11.5t36 23.5q41 21 71 21q20 0 52 -9t40 -9q11 0 25.5 -12t22.5 -27q10 -19 10 -68q0 -35 -6.5 -59t-14 -34t-24.5 -26q-32 -32 -36.5 -32z" />
</svg>
