<?xml version="1.0" standalone="no"?>
<!DOCTYPE svg PUBLIC "-//W3C//DTD SVG 1.1//EN" "http://www.w3.org/Graphics/SVG/1.1/DTD/svg11.dtd" >
<svg xmlns="http://www.w3.org/2000/svg" xmlns:xlink="http://www.w3.org/1999/xlink" version="1.1" viewBox="-10 0 802 1000">
   <path fill="currentColor"
d="M668 292q0 5 11 16.5t22 31.5t11 44q0 9 -6 40t-11 35q-6 6 -19 24.5t-13 22.5q0 9 -22 20t-48.5 21t-31.5 14q-6 4 -50 9t-74 5q-23 0 -56 -5.5t-39 -10.5q-3 -3 -18 -7t-36.5 -12t-38.5 -19q-16 -10 -53 -24.5t-86 -57.5q-18 -16 -22 -16q-1 0 -6.5 -4.5t-11 -15
t-5.5 -21.5q0 -6 1 -9l3 -16l27 3q27 4 41 19q14 16 19 16q3 0 23.5 17t35.5 22q15 4 48 23t62 28q77 23 93 23q4 0 4 -3q0 -8 -23.5 -34.5t-24.5 -45.5q-1 -12 -3 -25t-2 -17q0 -21 13 -49t30 -43q11 -10 55 -23t64 -13q26 0 26 -1l-2 -2q2 -1 11 -1q18 0 43.5 7t29.5 14
q2 3 15.5 8t13.5 12zM479 461q2 0 24 20t34 20q33 0 56 -19q39 -32 50.5 -49t11.5 -43q0 -17 -3.5 -23t-16.5 -19q-33 -30 -92 -30q-5 0 -11 3t-21 5q-24 3 -42 16t-18 26q0 14 -5 17.5t-5 10.5q0 14 17.5 33.5t17.5 23.5q0 8 3 8z" />
</svg>
