<?xml version="1.0" standalone="no"?>
<!DOCTYPE svg PUBLIC "-//W3C//DTD SVG 1.1//EN" "http://www.w3.org/Graphics/SVG/1.1/DTD/svg11.dtd" >
<svg xmlns="http://www.w3.org/2000/svg" xmlns:xlink="http://www.w3.org/1999/xlink" version="1.1" viewBox="-10 0 853 1000">
   <path fill="currentColor"
d="M124 503q1 0 8 0.5t16 0.5q64 0 156.5 -2.5t94.5 -4.5q2 -3 -6 -13q-9 -11 -9 -49q0 -29 2 -33q3 -4 18 -49t18 -55q1 -10 8 -10q4 0 20 -21q7 -11 14 -17t25.5 -11.5t46.5 -5.5q24 0 45 2t33.5 4.5t21.5 4.5t14 4t6 2q8 0 37 23.5t33 23.5t14 14t18.5 34.5t8.5 33.5
q0 27 -6 48.5t-12 33t-6 15.5q0 8 -24 36t-33 31q-7 2 -42 8t-42 11q-4 2 -194.5 4t-197.5 13l-2 2q-1 0 -5.5 -2t-15 -4t-24.5 -2q-12 1 -18 1q-62 0 -74 -15q-9 -10 -5 -15q4 -6 4 -17q0 -9 5.5 -14t17.5 -7.5t31 -2.5zM709 403q0 -3 -0.5 -7.5t-4.5 -15t-10.5 -20
t-20 -20.5t-32 -18.5t-48.5 -13t-66 -5.5q-11 0 -14 2.5t-6.5 8.5t-12.5 12q-15 8 -32.5 50t-17.5 56q0 5 2 9q7 11 49.5 33.5t65.5 22.5q35 0 65 -9t45 -20t15 -18q0 -4 7 -9.5t7 -13.5q0 -9 4.5 -14t4.5 -10z" />
</svg>
