<?xml version="1.0" standalone="no"?>
<!DOCTYPE svg PUBLIC "-//W3C//DTD SVG 1.1//EN" "http://www.w3.org/Graphics/SVG/1.1/DTD/svg11.dtd" >
<svg xmlns="http://www.w3.org/2000/svg" xmlns:xlink="http://www.w3.org/1999/xlink" version="1.1" viewBox="-10 0 694 1000">
   <path fill="currentColor"
d="M153 324q4 0 5.5 1t3.5 1q5 0 20 -10t24 -10q8 0 14 -4.5t18 -4.5q8 0 37.5 -10.5t57.5 -10.5q23 0 38 9q8 5 31.5 11.5t41.5 11.5t18 8q0 2 20 22t41.5 51t25.5 59q1 11 7 32t6 30q0 7 -2.5 25t-13.5 49.5t-28 46.5q-14 12 -14 17q0 3 -7 7.5t-7 8.5q0 7 -26 29.5
t-43 30.5q-27 11 -112 11q-57 0 -82 -5.5t-49 -23.5q-15 -11 -22 -11q-4 0 -7.5 -3t-11.5 -10.5t-21 -14.5q-14 -8 -17 -12t-1 -14q2 -11 12 -25.5t10 -17.5t13 -5t27.5 -4.5t17.5 -5.5q5 -5 13 -5q3 0 15.5 -6t27 -22t14.5 -35t-9.5 -40.5t-22.5 -30.5q-7 -5 -18.5 -15.5
t-20 -17t-12.5 -6.5q-5 0 -17 -9.5t-15 -9.5q-5 0 -10 -10.5t-5 -19.5q0 -12 12.5 -22t22.5 -10zM402 358q-7 0 -14.5 -5.5t-16.5 -5.5q-5 0 -28 -6t-31 -6q-4 0 -5 1q-2 2 -24.5 3t-43.5 4.5t-21 10.5q0 8 23 25q16 11 34 35t18 33q0 5 10 22t10 51q0 36 -6 42q-5 7 -2 7
q2 0 -5 7t-16 16.5t-12 14.5q-4 8 -30 25l-25 16l18 8q17 8 64 8q28 0 47 -3.5t27.5 -7t11.5 -3.5t4 1h2q9 0 28.5 -10.5t19.5 -15.5q0 -4 9 -14t19.5 -21t19.5 -31t9 -42q0 -29 -7.5 -49.5t-7.5 -25.5q0 -14 -36 -49t-43 -35zM173 217q-12 0 -24 -11.5t-14 -11.5
q-1 0 -18.5 -14.5t-36 -36.5t-18.5 -36q0 -11 10 -17.5t19 -6.5q16 0 42 26t35 31q11 6 20.5 23t9.5 31q0 10 -7 16.5t-18 6.5zM521 91q4 0 33 -18t40 -18q30 9 30 33q0 14 -7.5 20.5t-27.5 16.5q-19 9 -37 20t-27 16t-13 5q-15 0 -22 35q-2 10 -6.5 12.5t-20.5 2.5
q-17 0 -27 -9t-14 -9t-4 -6q0 -13 11 -29t17 -16t37 -28t38 -28zM326 201q-8 0 -20 -11t-12 -30q0 -100 28 -123q14 -11 21 -11q6 0 13 9t7 23q0 19 -6 40.5t-7 45.5q-2 57 -24 57z" />
</svg>
