<?xml version="1.0" standalone="no"?>
<!DOCTYPE svg PUBLIC "-//W3C//DTD SVG 1.1//EN" "http://www.w3.org/Graphics/SVG/1.1/DTD/svg11.dtd" >
<svg xmlns="http://www.w3.org/2000/svg" xmlns:xlink="http://www.w3.org/1999/xlink" version="1.1" viewBox="-10 0 787 1000">
   <path fill="currentColor"
d="M390 251q13 0 22.5 6.5t15 15t8.5 18.5t4 15.5t1 6.5q0 15 -13 24.5t-22.5 11t-13.5 1.5q-11 0 -23.5 -5t-16.5 -11q-1 -1 -1 -11q0 -24 9.5 -48t29.5 -24zM633 283q0 14 -1 27.5t-2 24.5t-2.5 21t-3 17t-2.5 12.5t-2 8.5l-1 3q0 14 15 37t30 39t18 16t13.5 9.5
t14.5 10.5q3 1 3 7q0 12 -9 28t-20 16q-8 0 -33 -13.5t-25 -17.5q0 -3 -3 -6t-10.5 -11t-15.5 -18q-9 -11 -12.5 -12.5t-13.5 3.5q-3 2 -23.5 17t-41.5 22q-26 9 -26 13t-11 4q-12 0 -28 7q-12 5 -14 9t-1 18q1 12 3 22.5t2 11.5q0 15 -6 33l-8 28l-24 1q-22 2 -29 -3
q-4 -3 -6 -29t-2.5 -56t-1.5 -34q0 -1 -20.5 -12.5t-44.5 -23t-32 -11.5q-9 0 -21 11t-30 28t-33 26q-8 4 -30.5 25t-42.5 21q-10 0 -18 -5t-11 -9.5t-3 -6.5q0 -9 5 -9q4 0 4 -11q0 -15 5.5 -25.5t13.5 -10.5q9 0 9 -5q0 -3 8 -8.5t25 -18t33 -27.5l25 -25l-7 -15
q-2 -3 -10 -26.5t-20 -36.5q-11 -13 -13.5 -19.5t-2.5 -28.5q0 -53 5 -69t29 -16q11 0 22.5 50.5t12.5 51.5q2 1 5.5 9.5t10 20.5t16.5 22q16 16 16 20t7 4q4 0 9 5t11 11.5t20.5 13.5t34.5 11q5 1 24.5 10.5t49.5 9.5q27 0 38.5 -7t14.5 -7q6 0 19.5 -9.5t17.5 -9.5
q5 0 18 -16t13 -23q0 -4 4.5 -10t4.5 -14q0 -11 3 -14q5 -5 12.5 -30.5t7.5 -37.5q0 -15 10 -37q7 -13 11 -16.5t15 -3.5q16 0 22 8.5t6 29.5z" />
</svg>
