<?xml version="1.0" standalone="no"?>
<!DOCTYPE svg PUBLIC "-//W3C//DTD SVG 1.1//EN" "http://www.w3.org/Graphics/SVG/1.1/DTD/svg11.dtd" >
<svg xmlns="http://www.w3.org/2000/svg" xmlns:xlink="http://www.w3.org/1999/xlink" version="1.1" viewBox="-10 0 834 1000">
   <path fill="currentColor"
d="M683 730q-16 0 -126.5 -11.5t-197.5 -11.5q-26 0 -45.5 3.5t-70.5 5.5q-20 1 -37.5 2.5t-29 2.5t-20.5 2.5t-13 2l-4 0.5q-26 0 -38 -18q-9 -13 -9 -67q0 -8 7 -50t8 -65q0 -2 -2 -2.5t-5.5 -1t-9 -4t-10.5 -10.5q-8 -10 -8 -14.5t5 -15.5q6 -13 18.5 -19t14.5 -11
q3 -11 6.5 -58t3.5 -72q0 -3 -3.5 -32.5t-6.5 -58l-3 -28.5l-9 -90l9 -14q8 -12 22 -12q5 0 10 1.5t9.5 4.5t8.5 7t6.5 7.5t3.5 7.5q2 7 6 12t4.5 5t-3.5 4q-5 2 -5 49q0 13 0.5 71t0.5 91v22t-0.5 25.5t-0.5 24v18.5v7q0 18 1 19t46 8.5t100.5 14.5t78.5 7q22 0 22 -5
q0 -1 1 -1t4 0.5l9 1.5t15 2t24 2t34 2q14 0 33 1t40.5 2t29.5 1l48 3l2 -22q5 -42 5 -217v-27.5v-23.5t-0.5 -18.5t-0.5 -15v-10.5v-6.5v-2.5q0 -21 4.5 -36.5t12.5 -24t18 -8.5q3 0 10 2t15 10.5t8 21.5l-0.5 14.5t-1.5 40.5t-2 59.5t-2.5 80.5t-1.5 95q0 46 -5 46
q-2 0 -2 9q0 17 5 31.5t5 41.5q0 8 -0.5 18.5t-0.5 18.5q0 32 7 66t7 35q0 2 -1 4.5t-2.5 4.5t-3.5 6t-4 9q-9 20 -16.5 25t-26.5 5zM361 545q-9 0 -74 -5.5t-88 -5.5q-25 0 -32 7q-8 8 -10 81q0 14 2 16t16 4q98 10 112 10q22 0 40.5 -4t41.5 -4q19 0 95.5 7t85.5 12
q18 10 73 10q12 0 26 -2q7 -1 8 -8t1 -41q0 -48 -7 -55q-9 -9 -127 -15.5t-152 -6.5h-11z" />
</svg>
