<?xml version="1.0" standalone="no"?>
<!DOCTYPE svg PUBLIC "-//W3C//DTD SVG 1.1//EN" "http://www.w3.org/Graphics/SVG/1.1/DTD/svg11.dtd" >
<svg xmlns="http://www.w3.org/2000/svg" xmlns:xlink="http://www.w3.org/1999/xlink" version="1.1" viewBox="-10 0 748 1000">
   <path fill="currentColor"
d="M363 496q0 -6 14.5 -13t28.5 -7q37 0 37 42q0 19 -9.5 40.5t-32.5 21.5q-17 0 -27 -6.5t-13 -14t-7 -23.5q-7 -25 1 -29t8 -11zM658 482q0 14 6.5 19.5t6.5 11.5q0 10 -7 19.5t-19 22.5t-19 24t-14.5 17.5t-11 9.5t-3.5 6q0 9 -25 27.5t-50 28.5q-16 7 -27.5 12.5
t-15.5 8t-9 5t-13 3.5q-28 5 -82 5q-31 0 -41 -3l-9 -3q-6 0 -12 1q-20 3 -20 -2q0 -4 -7 -4t-7 -5q0 -2 -7 -4t-18.5 -6t-18.5 -9t-26 -11t-33.5 -11t-14.5 -10t-56 -64q-29 -29 -29 -78q0 -17 17.5 -29t20.5 -19q3 -6 16 -13t31.5 -15.5t28.5 -16.5q39 -31 77 -38
q14 -3 38 -9.5t45.5 -10.5t45.5 -4q38 0 61.5 6t39.5 6q15 0 79.5 39t70.5 64q4 13 7 13q4 0 4 16zM524 433q-1 0 -19.5 -8t-51 -16t-68.5 -8q-25 0 -82.5 19t-66.5 26q-9 8 -22 12q-10 3 -33.5 25.5t-23.5 28.5q0 3 7 12t16.5 20.5t12.5 17.5q2 4 29 21.5t82.5 37.5
t110.5 20q22 0 44 -4t35.5 -9.5t13.5 -9.5t14 -11.5t14 -12.5q0 -6 5 -6q3 0 11.5 -17t15.5 -21q2 0 10.5 -7t16 -20t2.5 -25q-5 -14 -9 -14q-2 0 -30 -25.5t-34 -25.5zM80 256q0 -19 1 -28t6.5 -18.5t17.5 -10.5q11 0 16 17q3 10 20.5 26.5t28.5 19.5q1 0 7.5 3t13.5 10.5
t7 16.5q0 14 -17 30q-13 12 -15.5 12.5t-7.5 -5.5q-5 -9 -13 -9q-3 0 -5.5 -2.5t-5 -7t-10.5 -12t-20 -15.5q-24 -16 -24 -27zM579 186q0 -2 6 -9.5t17.5 -16t23.5 -8.5q23 0 23 29q0 19 -13 37t-75 86q-12 12 -22 12t-18 -7t-5 -14q2 -5 -2 -12t-4 -11q0 -21 29 -34
q14 -6 24 -19.5t13 -22t3 -10.5zM400 162q0 26 -1 39.5t-10 27.5t-27 14q-19 0 -19 -17l1 -10q2 -11 2 -34q0 -4 -0.5 -18t-1.5 -27v-13q0 -31 28 -31q18 0 23 13t5 56z" />
</svg>
