<?xml version="1.0" standalone="no"?>
<!DOCTYPE svg PUBLIC "-//W3C//DTD SVG 1.1//EN" "http://www.w3.org/Graphics/SVG/1.1/DTD/svg11.dtd" >
<svg xmlns="http://www.w3.org/2000/svg" xmlns:xlink="http://www.w3.org/1999/xlink" version="1.1" viewBox="-10 0 788 1000">
   <path fill="currentColor"
d="M566 527q13 0 39.5 -27t26.5 -40q0 -8 3 -8q2 0 4.5 -8t5 -20t2.5 -20q0 -18 -12.5 -44t-12.5 -34q0 -9 -23 -31t-27 -22q-2 0 -15.5 -5.5t-28 -15.5t-14.5 -20q0 -26 41 -26q19 0 37 9t26.5 17t8.5 9q0 2 6 6t15 12t15 18q11 19 12 20t8 18.5t14.5 44.5t7.5 46
q0 71 -18 105q-11 21 -30.5 42t-30.5 25q-12 4 -28 18.5t-24 18.5q-18 9 -36.5 -4t-18.5 -26q0 -8 7 -23t7 -19q0 -5 11.5 -10.5t21.5 -5.5zM428 528q0 5 3 13.5t3 17.5q0 44 -39 44q-22 0 -41 -11t-30.5 -22t-15.5 -11q-6 0 -19.5 -9t-17.5 -9q-5 0 -5 -5q0 -3 -3 -4.5
t-12 -6.5t-20 -13q-14 -11 -29 -16t-18 -9t-25 -16t-32 -21q-11 -10 -31 -14q-31 -6 -31 -41q0 -17 18.5 -29.5t18.5 -13.5q3 -4 44.5 -25.5t50.5 -30.5q8 -8 14 -8t32.5 -23.5t30.5 -23.5t35 -28.5t45 -28.5q58 0 58 109q0 27 -1.5 47.5t-1.5 21.5q0 4 4 24.5t4 45.5
q0 40 8 53.5t8 21.5q0 5 -2.5 11t-2.5 10zM352 471q0 -143 -5 -173q-3 -15 -10 -15q-6 0 -15 8t-23 20t-27 19q-13 6 -20 14.5t-9.5 13t-5.5 4.5q-7 0 -33 14t-26 20q0 7 10 17.5t20 12.5q9 2 32.5 16.5t34.5 18.5t27 13.5t26 11.5l20 6q4 0 4 -21z" />
</svg>
