<?xml version="1.0" standalone="no"?>
<!DOCTYPE svg PUBLIC "-//W3C//DTD SVG 1.1//EN" "http://www.w3.org/Graphics/SVG/1.1/DTD/svg11.dtd" >
<svg xmlns="http://www.w3.org/2000/svg" xmlns:xlink="http://www.w3.org/1999/xlink" version="1.1" viewBox="-10 0 829 1000">
   <path fill="currentColor"
d="M135 78q1 0 7.5 0.5t17.5 1.5t25.5 2t36 1.5t44.5 0.5q39 0 49 -2t15 -2q26 0 58 8.5t45 8.5h7h8q20 0 54.5 4.5t48.5 4.5q8 0 25.5 -3t32.5 -3q17 0 24 -6t40 -6q35 0 46.5 7t15.5 30q4 22 0 22t-8.5 20.5t-4.5 34.5q0 2 0.5 4t0.5 3t0.5 2.5t0.5 2.5q0 2 -3.5 18t-7 57
t-3.5 105q0 36 5 128.5t12 132.5l8 50l-11 9q-15 12 -37 12q-2 0 -15 -4t-41 -4q-18 0 -31.5 -1.5t-29 -3t-81.5 -3t-176 -1.5q-149 0 -164 3q-13 3 -16 -2q-1 -1 -22 -12.5t-21 -31.5q0 -8 5 -30t5 -61q0 -17 -1.5 -70.5t-1.5 -96.5q0 -54 0.5 -100.5t1.5 -77.5t2 -55.5
t1.5 -39t1.5 -24t2 -13.5v-4q0 -16 29 -16zM312 641q3 0 6 1t5 1q6 0 9 -5t8.5 -17t14.5 -22q8 -9 17.5 -24.5t16.5 -27.5t9 -14q4 -2 4 -13q0 -9 9.5 -19.5t9.5 -14.5t7 -12t7 -16t10.5 -22t10.5 -18q0 -2 -0.5 -4t-2.5 -8.5t-4 -7t-6 0.5q-4 3 -39.5 4.5t-45.5 5.5
q-7 3 -19 3q-8 0 -41 5.5t-50 5.5q-36 0 -36 -27q0 -11 15 -40t22 -35q7 -5 7 -12q0 -4 12 -29t12 -29q0 -2 8 -14.5t16.5 -29t9.5 -27.5q1 -5 2.5 -9t4 -6.5l4.5 -4.5t2.5 -3t-0.5 -2q-9 -6 -52 -6l-2 1q-2 0 -6 0.5t-10 1t-17 1t-24 0.5l-51 2l-4 51l-3 40
q-2 41 -4.5 83.5t-2.5 49.5q0 31 1 62.5t3 55.5t4 43t3 30l1 10q-3 21 -3 29q0 11 8 15.5t9 5.5q1 2 15 3t36 3.5t38 6.5t25 4q7 0 12 -3t9 -3zM657 548q0 -19 -0.5 -37t-1.5 -30.5t-2 -23t-2 -17.5t-2 -12t-1 -8l-1 -2q0 -1 0.5 -2.5t1.5 -6t2 -12t2 -21t2 -30.5
q1 -38 5.5 -57.5t4.5 -43.5q0 -46 -6 -67l-5 -18h-91q-121 0 -160 -8q-5 0 -5.5 5.5t-1.5 14.5t-9 14q-9 5 -9 10q0 9 -29.5 64.5t-37.5 60.5q-4 4 -1 11q3 8 51 8q41 0 85 -7t62 -7q59 0 59 43q0 13 -10 22.5t-10 11.5q0 1 -11.5 20.5t-27.5 44.5t-25 36q-13 15 -18 31
q-2 10 -25 44.5t-29 38.5q-5 2 -5 11q0 13 41 13q12 0 40 -2.5t44 -2.5l31 1q31 1 51 1q54 0 54 -9q0 -1 -3.5 -6t-6.5 -17t-3 -28q0 -8 1.5 -11.5t1.5 -19.5z" />
</svg>
