<?xml version="1.0" standalone="no"?>
<!DOCTYPE svg PUBLIC "-//W3C//DTD SVG 1.1//EN" "http://www.w3.org/Graphics/SVG/1.1/DTD/svg11.dtd" >
<svg xmlns="http://www.w3.org/2000/svg" xmlns:xlink="http://www.w3.org/1999/xlink" version="1.1" viewBox="-10 0 497 1000">
   <path fill="currentColor"
d="M145 691q0 -10 -5 -16.5t-5 -11.5q0 -11 -2 -12l-3 3q-4 7 -5 -5q-1 -6 -1 -16q0 -9 -8.5 -33.5t-8.5 -35.5q0 -28 -5 -57.5t-5 -77.5q0 -43 -4.5 -62.5t-4.5 -32.5q0 -14 -3 -33.5t-3 -23.5q0 -3 2 -9q3 -5 4.5 -27.5t4 -53t5.5 -47.5q5 -23 5 -40t9 -26q12 -12 7 -12
q-2 0 6 -8.5t19 -18t15 -11.5q6 -2 38 -2q60 0 67 9q5 8 11 8q4 0 8.5 7t10.5 7q8 0 28.5 23.5t21.5 33.5q0 2 7 12.5t8 17.5q0 2 8 38t10 70q7 143 17 150q3 2 1.5 6t-3.5 9.5t1 13.5q6 15 6 91q0 136 -10 146q-5 5 -5 16q0 23 -28 48t-81 25q-2 0 -37.5 -7t-36.5 -8
q-1 -2 -13.5 -7.5t-21.5 -14.5q-11 -11 -16 -11t-5 -14zM331 612q0 -27 5 -43.5t5 -28.5q0 -2 -2 -35.5t-4.5 -70t-4.5 -39.5q-6 -9 -9 -95q-4 -89 -19.5 -128.5t-65.5 -85.5q-13 -12 -31 -12q-21 0 -32 14q-4 5 -10.5 24t-13 57.5t-6.5 80.5q0 14 1 14t4 33t6.5 90.5
t5.5 113.5q1 44 6 62t30 73q5 12 10.5 19t26 16t52.5 9q33 0 33 -13q0 -9 4 -9q3 0 7 -10t3 -16q-1 -5 -1 -20z" />
</svg>
