<?xml version="1.0" standalone="no"?>
<!DOCTYPE svg PUBLIC "-//W3C//DTD SVG 1.1//EN" "http://www.w3.org/Graphics/SVG/1.1/DTD/svg11.dtd" >
<svg xmlns="http://www.w3.org/2000/svg" xmlns:xlink="http://www.w3.org/1999/xlink" version="1.1" viewBox="-10 0 720 1000">
   <path fill="currentColor"
d="M604 483q6 0 12 2.5t14 2.5q2 0 5.5 5.5t7 14t3.5 15.5t-4 11q-8 7 -55.5 22t-55.5 21q-18 12 -42 24q-44 22 -87 61.5t-49 54.5q-4 12 -8 14t-21 2q-18 0 -32 -6.5t-14 -14.5q0 -4 -7 -9t-7 -12q0 -8 -7 -16.5t-20.5 -23t-22.5 -30.5q-16 -26 -53 -41q-1 0 -20.5 -10
t-40 -22t-20.5 -16v-6q0 -16 6.5 -25.5t16.5 -9.5q12 0 61 20q27 11 40.5 21.5t49.5 47.5q52 54 52 58q0 11 19 -2q9 -6 11 -6q4 0 12 -7t14 -7t30 -20.5t33 -23.5q10 -3 26 -17t20 -14q11 0 61.5 -29t71.5 -29zM190 339q20 0 76.5 52.5t66.5 52.5h2q39 -22 58 -40t21.5 -25
t4.5 -7t12 -6l25 -15t26 -14q15 -6 26 -20.5t24 -16.5q21 -3 24 -3q9 0 19 10.5t10 28.5q0 15 -9 21t-31 13.5t-39 19.5q-37 24 -42 26q-14 7 -39 36t-32 34q-8 5 -17.5 20t-21.5 22q-12 6 -16 6t-17 -6t-25.5 -24.5t-28.5 -32.5q-14 -13 -23 -25.5t-12 -17.5t-6 -5
q-2 0 -53.5 -23t-61.5 -23q-13 0 -21.5 -8.5t-8.5 -22.5q0 -29 26 -29q2 0 14.5 1.5t29.5 5t23 7.5q12 8 16 8zM93 110q18 0 73 8.5t55 14.5q0 3 14 11q24 12 34.5 19.5t28.5 26.5q27 27 31 27q7 0 52.5 -43.5t60.5 -49.5t41 -23t30 -23q2 -3 7.5 -4.5t17.5 -3t23 -5.5
q18 -6 26 -6q6 0 12.5 1.5t16 14t9.5 34.5q0 7 -11.5 13t-24.5 6q-7 0 -14 4.5t-22 7.5q-37 6 -71.5 27t-51 38.5t-16.5 22.5q0 4 -5.5 10.5t-19 19.5t-23.5 24q-20 23 -45 23q-17 0 -25 -9t-11 -22t-17 -31t-40 -31q-10 -5 -18 -10t-11 -7t-8 -4.5t-14 -4.5
q-71 -19 -73 -19q-37 -6 -37 -29q0 -2 1.5 -8t8 -13t16.5 -7z" />
</svg>
