<?xml version="1.0" standalone="no"?>
<!DOCTYPE svg PUBLIC "-//W3C//DTD SVG 1.1//EN" "http://www.w3.org/Graphics/SVG/1.1/DTD/svg11.dtd" >
<svg xmlns="http://www.w3.org/2000/svg" xmlns:xlink="http://www.w3.org/1999/xlink" version="1.1" viewBox="-10 0 800 1000">
   <path fill="currentColor"
d="M177 602q0 -5 7 -20.5t7 -23.5q0 -18 31 -65.5t32 -51.5q4 -18 27.5 -35t43 -25.5t22.5 -8.5q11 0 22.5 -3t33.5 -3q27 0 45 4t26.5 7.5t11.5 3.5q5 0 5 4t17 10q13 4 38 24.5t25 27.5q0 3 7 7t7 10q0 9 6 15q8 9 20 51.5t12 62.5t6.5 53.5t11.5 44.5q5 9 0 9t-5 13
t-4.5 18t-19.5 13q-13 6 -16 6.5t-13 -5.5q-9 -5 -9 -15q0 -1 -1 -3.5t-2 -8t-2.5 -14t-2.5 -26t-2 -39.5q-1 -62 -9 -79q-4 -9 -7.5 -20t-5.5 -17t-5 -8q-4 -2 -4 -11q0 -4 -13.5 -21t-36 -35t-41.5 -22q-10 -2 -22.5 -7.5t-22.5 -5.5q-20 0 -43.5 10t-35.5 24l-16 11
q-17 10 -17 17q0 6 -7 13.5t-7 12.5q0 4 -4 11.5t-7.5 13t-1.5 5.5q1 0 -3.5 7.5t-10.5 20t-6 20.5q0 4 -7.5 33.5t-7.5 49.5q0 1 1.5 19.5t1.5 28.5q0 20 -9.5 31.5t-15.5 13t-10 1.5q-11 0 -24 -9.5t-13 -17.5q0 -6 -6 -13.5t-6 -9.5q-1 -11 -5.5 -25t-6.5 -14
q-4 0 -23 -25t-19 -30q0 -2 -14 -15t-14 -26q0 -12 8.5 -19.5t22.5 -7.5q13 0 44.5 34t37.5 34q4 0 4 -10zM81 244q0 -10 7 -18t20 -8q22 0 65 42t46 42q1 0 2.5 3t3 8t1.5 10q0 18 -21 18q-16 0 -32 -10.5t-34.5 -27t-30.5 -23.5q-27 -16 -27 -36zM620 278q-5 0 -31 27
t-35 27t-9 -14q0 -27 15.5 -48t51.5 -53q83 -74 100 -74q5 0 12.5 7.5t7.5 19.5q0 18 -22.5 40.5t-44 35.5t-23.5 13q-4 0 -10.5 9.5t-11.5 9.5zM329 184q0 -6 0.5 -16t0.5 -17q0 -23 -4.5 -37t-4.5 -15q0 -6 5 -16q5 -11 9 -13.5t14 -1.5q19 1 24 12q1 3 -1 5q-1 1 -1 2
t8 10.5t8 20.5q0 2 -3 32.5t-3 52.5q0 37 -14 37q-6 0 -13 -2t-16 -16t-9 -38z" />
</svg>
