<?xml version="1.0" standalone="no"?>
<!DOCTYPE svg PUBLIC "-//W3C//DTD SVG 1.1//EN" "http://www.w3.org/Graphics/SVG/1.1/DTD/svg11.dtd" >
<svg xmlns="http://www.w3.org/2000/svg" xmlns:xlink="http://www.w3.org/1999/xlink" version="1.1" viewBox="-10 0 786 1000">
   <path fill="currentColor"
d="M187 717q0 -34 41 -34l12 1q11 0 29.5 1t39.5 1.5t44 1.5t40 1q39 1 59 2.5t38 5.5t25 11.5t7 20.5q0 9 -7.5 15t-14.5 7l-8 1q-9 0 -19.5 4.5t-18.5 4.5q-17 0 -31 -9t-30 -9q-13 0 -81 3.5t-72 6.5q-4 2 -9 2q-4 0 -12.5 -1.5t-20 -11t-11.5 -25.5zM304 652
q-2 0 -18 2.5t-59 2.5q-76 0 -109 -11q-50 -18 -50 -38q0 -4 2.5 -11t14 -16t29.5 -9q13 0 38.5 5.5t29.5 5.5q3 0 3 -2q0 -3 -11 -16t-25 -29t-18 -23q-8 -14 -17 -26q-17 -23 -17 -98q0 -54 1.5 -66t10.5 -21q12 -12 12 -19t28 -63q4 -10 34 -38t58 -42q7 -4 12 -7.5
t6.5 -6t3.5 -4.5t3 -2t5 1q1 0 3 1q3 0 14.5 -8.5t28.5 -11.5q6 -1 42.5 -13t79.5 -12q31 0 42 6q8 4 21.5 8.5l22.5 7.5t9 6q0 4 9 4q10 0 10 4q0 3 30.5 22t30.5 22t11.5 15t11.5 16q0 5 8 11q14 11 33 67.5t19 92.5q0 14 -5.5 29t-5.5 16l1 2q-12 61 -17 63t-5 11
q0 6 -4.5 11t-6.5 14q-4 15 -24 39.5t-33 30.5q-16 7 -16 14t12 8.5t29.5 2t24.5 4.5q14 7 22 7q7 0 4 7q-3 6 -3 23q0 7 -1.5 11.5t-13 9.5t-33.5 5q-35 0 -64.5 -10.5t-93.5 -10.5q-117 0 -123 6q-3 3 -9 3q-3 0 -12.5 -1.5t-15.5 -1.5zM604 461q0 -2 15 -44.5t15 -67.5
t-13 -59.5t-24.5 -55t-13.5 -22.5q-4 -11 -76 -62q-22 -15 -66 -15q-60 0 -69 7q-3 2 -31.5 8t-39.5 21q-4 5 -17 10.5t-17 12.5q-5 9 -12 9q-4 0 -10.5 6t-15.5 15t-18 14q-14 7 -14 12q0 2 -17 28t-21 51q-2 18 -7 26.5t-5 28.5q0 36 6 46q4 7 11 25q7 21 42 52.5t70 49.5
q34 17 86 17q4 0 30.5 -2.5t60 -8t40.5 -11.5q6 -6 21.5 -9.5t22.5 -8.5q11 -7 20 -7q7 0 15.5 -8.5t8.5 -15.5q0 -5 11.5 -20t11.5 -22z" />
</svg>
