<?xml version="1.0" standalone="no"?>
<!DOCTYPE svg PUBLIC "-//W3C//DTD SVG 1.1//EN" "http://www.w3.org/Graphics/SVG/1.1/DTD/svg11.dtd" >
<svg xmlns="http://www.w3.org/2000/svg" xmlns:xlink="http://www.w3.org/1999/xlink" version="1.1" viewBox="-10 0 756 1000">
   <path fill="currentColor"
d="M346 811q-12 0 -16 -2t-10 -2q-8 0 -35 6t-40 6q-9 0 -17.5 -3t-13 -7t-4.5 -6q0 -5 -9 -5q-10 0 -16 -10t-7 -20l-1 -11q0 -10 16.5 -26.5t18.5 -26.5t14 -22t12 -17q0 -4 10.5 -16t25.5 -32.5t24 -41.5q3 -9 12 -15q8 -6 20 -30.5t12 -34.5t-13 -10q-7 0 -22 6t-36 6
q-73 0 -131 -34q-17 -10 -24.5 -22t-15.5 -42q-7 -27 -13 -27q-3 -1 -1.5 -3t5.5 -9.5t4 -15.5q0 -4 0.5 -11t0.5 -9q1 -14 49.5 -19t49.5 -6q2 -2 20 -2q31 0 49 2.5t25.5 5.5t22.5 12q27 17 33 17q3 0 12.5 16.5t15.5 16.5q3 0 8 -6q3 -5 21.5 -15.5t23.5 -14.5
q11 -9 36.5 -16.5t46.5 -7.5q30 0 36 -5t23 -5q25 0 48.5 9.5t28.5 9.5q10 0 16 13t6 31q0 23 -11 36t-11 14q0 2 -9.5 15.5t-29 31t-38.5 22.5q-72 19 -80 19h-2q-10 0 -23.5 10t-13.5 18q0 6 9 20t11 26t21.5 43.5t19.5 35.5t3 7t9 10.5t11 17.5q6 12 27 35.5t21 37.5
q0 44 -90 44q-33 0 -84 4t-61 4zM163 379q0 21 34 41.5t57 20.5q6 0 19 -1t31 -6.5t18 -13.5q0 -2 -1.5 -7t-7 -14.5t-14.5 -17.5t-26.5 -14.5t-40.5 -6.5q-20 0 -68 16q-1 1 -1 3zM588 370q0 -7 -39 -7q-8 0 -34 4.5t-30 8.5q-5 5 -18 5q-17 0 -30.5 17.5t-13.5 32.5
q0 13 11 13q5 0 17.5 -5.5t15.5 -3.5q1 1 6 1q10 0 22 -3t22.5 -7t19 -7.5t13.5 -6.5l6 -3q8 0 20 -15t12 -24zM477 698q0 -2 -12 -16t-12 -18t-13 -25.5t-27 -42t-14 -21.5t-16 -5q-11 -2 -13 -1t1 9l1 1v2q0 8 -7.5 16.5t-15.5 8.5q-5 0 -13.5 15.5t-8.5 24.5q0 7 -5 7
q-4 0 -3 6.5t-7 9.5q-9 2 -9 12q0 7 -4.5 12.5t-4.5 11.5q0 7 -14 19t-14 14q0 1 14 3t35 4.5t35 2.5q11 0 19 -2q8 -3 63.5 -6t59.5 -7q2 -2 2 -4q0 -6 -8.5 -17.5t-8.5 -13.5zM69 128q0 -7 8.5 -13t16.5 -8l9 -2q13 0 38.5 28.5t31.5 31.5q9 4 20.5 14t11.5 14q0 5 -13 12
t-23 7q-15 0 -34.5 -11.5t-33 -23t-14.5 -11.5q-4 0 -11 -14.5t-7 -23.5zM506 210q-9 0 -14.5 -7t-6.5 -15l-1 -7q0 -22 37 -55q15 -13 46 -44q13 -13 19.5 -16.5t19.5 -3.5t17 3t9 15q3 10 3 14.5t-2 5t-4 1.5t-2 5q0 5 -22 25.5t-28 20.5q-8 0 -20 12.5t-17 25.5
q-8 20 -34 20zM373 173q0 19 -3.5 33t-7.5 21t-9.5 11t-8 4.5t-3.5 0.5q-15 0 -28 -21.5t-13 -49.5q0 -6 4 -16.5t6 -34.5q3 -42 8.5 -55t24.5 -13q12 0 23 7.5t11 22.5q0 1 -2 25.5t-2 50.5v14z" />
</svg>
