<?xml version="1.0" standalone="no"?>
<!DOCTYPE svg PUBLIC "-//W3C//DTD SVG 1.1//EN" "http://www.w3.org/Graphics/SVG/1.1/DTD/svg11.dtd" >
<svg xmlns="http://www.w3.org/2000/svg" xmlns:xlink="http://www.w3.org/1999/xlink" version="1.1" viewBox="-10 0 574 1000">
   <path fill="currentColor"
d="M92 594q0 -4 -3.5 -12.5t-3.5 -36.5q0 -47 6 -48q7 -1 0.5 -12t-1.5 -16l7 -19q7 -20 13 -40l6 -19q-1 0 -1 -1t6 -18t6 -28t6.5 -29.5t11.5 -22.5q1 0 8.5 -13.5t15 -31t7.5 -26.5q0 -1 -0.5 -3t-0.5 -4q0 -7 9 -31t11 -37q3 -17 14.5 -35t11.5 -20q0 -6 12 -6
q5 0 14.5 1t12.5 1h2h2q7 0 14 15t7 31t7.5 36t13.5 20q4 0 4 7t4 7q3 0 5.5 9t10.5 26t21 32q15 18 24.5 41.5t19.5 32.5q14 12 14 25q0 8 12 30t14 35q3 17 15 23q7 4 15 19t8 26q0 12 3 14.5t3 24.5q0 76 -12 102q-4 10 -5.5 17.5t-3.5 13t-9 14.5q-12 16 -12 18t-17 19
q-30 29 -103 29q-16 0 -46.5 -8.5t-39.5 -13.5q-12 -6 -26.5 -8.5t-28.5 -8.5q-29 -12 -56.5 -57.5t-27.5 -63.5zM348 381q0 -7 -21 -38t-21 -42q0 -4 -16 -23t-20 -30q-3 -9 -9 -16t-11 -7q-7 0 -25 38.5t-18 48.5t-6 15.5t-6 13.5q0 3 -7.5 14.5t-7.5 18.5q0 12 -1 12
q-2 0 -10.5 17.5t-17.5 54.5t-9 77q0 24 4 39.5t8.5 21t9.5 12.5t7 13q5 20 63 43.5t101 23.5q22 0 30.5 -4t19.5 -17q34 -41 34 -96t-14 -81q-3 -5 -13.5 -29.5t-21 -43.5t-16.5 -23q-6 -3 -6 -13z" />
</svg>
