<?xml version="1.0" standalone="no"?>
<!DOCTYPE svg PUBLIC "-//W3C//DTD SVG 1.1//EN" "http://www.w3.org/Graphics/SVG/1.1/DTD/svg11.dtd" >
<svg xmlns="http://www.w3.org/2000/svg" xmlns:xlink="http://www.w3.org/1999/xlink" version="1.1" viewBox="-10 0 721 1000">
   <path fill="currentColor"
d="M92 200q0 -13 -5.5 -29.5t-5.5 -21.5q0 -9 12 -24q8 -11 12.5 -13t14.5 0q15 3 23 12.5t9 18t1 23.5l-1 32q0 41 6 77.5t6 58.5q0 15 -2 47.5t-2 49.5v2q0 2 0.5 5.5t1 8.5t1 13.5t1 18.5t0.5 24.5v30.5q0 87 2 89q9 9 140 9h47t93.5 -0.5t52.5 -0.5q114 0 120 2
q6 3 12 3q5 1 11 19.5t6 33.5q0 2 -1 7.5t-5 13t-11 7.5q-3 0 -33 -9.5t-60 -9.5q-11 0 -29.5 2t-31.5 2h-4q-4 -1 -10.5 -1.5t-15.5 -1t-21.5 -1t-25.5 -0.5h-12q-11 1 -25 1.5t-21 0.5q-83 0 -197 8l-41 2l-6 -14q-4 -10 -4 -27q0 -26 5.5 -45.5t5.5 -41.5v-7
q0 -7 -0.5 -17.5t-1 -22t-0.5 -22.5v-17q0 -22 1.5 -70t1.5 -67q0 -76 -14 -99q-2 -3 2 -5.5t0 -16.5q-3 -9 -3 -16q0 -3 0.5 -10.5t0.5 -11.5z" />
</svg>
