<?xml version="1.0" standalone="no"?>
<!DOCTYPE svg PUBLIC "-//W3C//DTD SVG 1.1//EN" "http://www.w3.org/Graphics/SVG/1.1/DTD/svg11.dtd" >
<svg xmlns="http://www.w3.org/2000/svg" xmlns:xlink="http://www.w3.org/1999/xlink" version="1.1" viewBox="-10 0 606 1000">
   <path fill="currentColor"
d="M219 298q0 -6 -1 -24t-1 -23q0 -28 35 -63q5 -5 12.5 -19.5t17.5 -19.5q14 -8 29 -23q17 -17 20 -17q5 0 20.5 8t15.5 11q0 2 10 16l9 12l13 -15q11 -12 33.5 -23.5t40.5 -11.5q26 0 26 26q0 31 -32 37q-29 5 -47 29q-6 9 -1 18.5t14 9.5q7 0 21 -9q25 -15 57 -15
q21 0 21 16q0 11 -13 24t-34 20l-26 10l1 22q2 25 8 32q3 4 3 13q0 15 -15 30.5t-37 20.5q-44 11 -75 11q-20 0 -45.5 -7t-33.5 -15q-6 -6 -11 -6t-26 11q-35 18 -78 68q-9 10 -9 32q0 17 5 30.5t15.5 31t13.5 24.5q12 24 24 34q14 10 14 16q0 4 11 21q12 18 6 30
q-13 30 -34 30q-12 0 -23.5 -14t-11.5 -26q0 -5 -13 -22q-7 -9 -27 -39q-15 -22 -20 -22q-7 0 -3 -4q3 -3 -7 -25q-9 -20 -11 -44q-1 -8 -4 -21t-3 -18q0 -9 26 -49q19 -29 61 -65t56 -36q3 0 3 -18zM357 335h13q32 0 32 -14q0 -16 -21 -54t-34 -52l-15 -17l-16 12
q-13 10 -22 30t-9 38q0 20 13 36t28 19q12 2 31 2z" />
</svg>
