<?xml version="1.0" standalone="no"?>
<!DOCTYPE svg PUBLIC "-//W3C//DTD SVG 1.1//EN" "http://www.w3.org/Graphics/SVG/1.1/DTD/svg11.dtd" >
<svg xmlns="http://www.w3.org/2000/svg" xmlns:xlink="http://www.w3.org/1999/xlink" version="1.1" viewBox="-10 0 640 1000">
   <path fill="currentColor"
d="M320 107q0 -9 8 -19.5t21 -10.5q14 0 29 14t15 26q0 6 -23 37t-23 38q0 6 -9 15t-9 13q0 3 -7 11.5t-11 22.5q-6 18 -20 26q-15 9 -37.5 31.5t-22.5 29.5t-7 7q-6 0 -14.5 12t-4.5 16q3 3 85.5 4t85.5 3q5 3 5 0q0 -5 109 -5h5q18 0 26 1t17 5.5t12 14.5t3 27
q0 14 -11 24t-11 12t-14.5 18t-14.5 20q0 7 -13.5 25t-13.5 23q0 4 -6.5 9.5t-17.5 13.5t-17 14q-8 8 -26 40t-18 39q0 4 -9 11t-9 25q0 10 -2.5 15t-5.5 6t-7.5 4t-8.5 10q-8 15 -33 15q-23 0 -37 -12.5t-14 -28.5q0 -12 17.5 -31t26.5 -36q9 -18 29 -36.5t22 -30.5
q1 -4 37 -42.5t39 -50.5q4 -14 10 -24q5 -7 4 -9t-12 -4q-27 -5 -72 -5q-57 0 -82 5.5t-26 5.5q-13 0 -52.5 -3t-61.5 -3h-20q-17 0 -31 -12.5t-14 -25.5q0 -5 12 -32q4 -10 10 -10.5t9 -6.5q6 -10 14 -10q9 0 25 -19q9 -11 30.5 -34t37 -40t15.5 -21q0 -7 9 -12
q10 -6 18.5 -15t18 -21.5t18.5 -21.5q8 -8 13.5 -25t7.5 -18q4 -2 4 -14z" />
</svg>
