<?xml version="1.0" standalone="no"?>
<!DOCTYPE svg PUBLIC "-//W3C//DTD SVG 1.1//EN" "http://www.w3.org/Graphics/SVG/1.1/DTD/svg11.dtd" >
<svg xmlns="http://www.w3.org/2000/svg" xmlns:xlink="http://www.w3.org/1999/xlink" version="1.1" viewBox="-10 0 945 1000">
   <path fill="currentColor"
d="M674 95q39 0 66 6t39 12l12 6q6 0 21 14.5t15 20.5q0 4 9 12t9 13q0 2 11 21.5t11 49.5q0 33 -13 61.5t-13 30.5q0 8 -25.5 44t-40.5 50q-19 17 -19 23q0 7 -6 7q-5 0 -12.5 11.5t-9.5 11.5t-79.5 60t-81.5 66q-5 8 -23.5 25.5t-22.5 17.5q-7 0 -26.5 23.5t-19.5 31.5
q0 7 -3 8.5t-18 1.5q-16 0 -28 -8t-12 -18q0 -7 -16.5 -24t-28.5 -23q-18 -9 -50.5 -43.5t-45.5 -38.5q-10 -4 -18 -13.5t-12 -9.5t-17.5 -15t-24.5 -20q-8 -4 -16.5 -13t-23 -26t-30.5 -32q-61 -61 -61 -146q0 -19 10 -52t21 -47q29 -36 54.5 -54.5t40 -24.5t19.5 -13
q8 -11 34 -11q23 0 49 7t32 16q0 1 20 12.5t46 34.5t41 53l9 18l44 -43q31 -30 64 -52t49 -24q8 0 8 -4q0 -1 4 -4t20 -6.5t39 -3.5zM266 156q-16 0 -31.5 9.5t-17.5 9.5q-8 0 -72 72q-15 17 -15 42q0 23 11 49.5t23 45.5l13 18q2 6 7.5 10.5t22 19t36.5 34.5q42 43 77 70
q34 26 38 30q7 7 13 7t6 5q0 3 7 8.5t20 15t21 16.5q14 12 23 12q17 0 80.5 -59t66.5 -59q7 0 7 -3q0 -4 33 -30.5t36 -26.5q8 0 53.5 -49t45.5 -57q0 -4 14.5 -21t14.5 -23t2.5 -11t2.5 -16q0 -28 -8 -52t-17 -27q-5 -2 -10 -11.5t-23 -14.5q-41 -11 -49 -11
q-4 0 -11.5 0.5t-10.5 0.5q-7 0 -9 -2t-4 -2q-6 0 -31 9.5t-30 9.5q-7 0 -19.5 10t-12.5 16q0 8 -7 10q-9 3 -50 43t-41 57q0 1 1 2t1 3q0 9 -6 21t-18 12q-42 0 -54 -56q-3 -15 -7.5 -27t-7.5 -18.5t-3 -9.5q0 -4 -9.5 -13.5t-11.5 -18.5t-27.5 -27t-35.5 -18
q-6 0 -15 -2.5t-12 -2.5z" />
</svg>
