<?xml version="1.0" standalone="no"?>
<!DOCTYPE svg PUBLIC "-//W3C//DTD SVG 1.1//EN" "http://www.w3.org/Graphics/SVG/1.1/DTD/svg11.dtd" >
<svg xmlns="http://www.w3.org/2000/svg" xmlns:xlink="http://www.w3.org/1999/xlink" version="1.1" viewBox="-10 0 907 1000">
   <path fill="currentColor"
d="M398 171q0 -2 16.5 -23.5t41.5 -43.5t42 -22q11 0 32 10q15 7 20.5 12.5t10.5 18.5q4 11 8.5 34.5t18.5 54.5l27 64q3 4 47.5 89t53.5 96q6 8 6 18q0 7 7 15t7 10q0 6 9.5 26t13.5 22q5 3 5 11q0 5 17.5 28t22.5 38q5 14 19.5 36t14.5 34q0 4 -1.5 9.5t-11.5 14t-27 8.5
q-69 0 -79 -8q-4 -3 -61 -7t-101 -4q-9 0 -60 1t-112.5 4t-67.5 7q-10 5 -140 5q-81 0 -91 -3q-9 -3 -18 -18t-9 -28q0 -10 21.5 -35t48 -59t35.5 -63q5 -14 19.5 -31t16.5 -27q3 -13 6 -13q4 0 30.5 -39.5t26.5 -43.5q0 -3 16 -18t16 -19t15.5 -20t15.5 -19q0 -7 13 -23.5
t13 -21.5q0 -4 14 -19t14 -21t9 -20t9 -17zM347 378q0 16 31.5 60.5t40.5 44.5q10 0 26 -23q7 -9 30 -33t42 -44t20 -25q2 -7 13.5 -13t21.5 -6q9 0 9 -3q0 -2 -10 -20t-21 -38.5t-13 -27.5q-2 -8 -7.5 -14.5t-6.5 -14.5q0 -8 -8.5 -22t-8.5 -22q0 -14 -5 -14t-21 15t-16 20
q0 8 -28 43l-28 35q0 1 -14 21t-14 26q0 5 -16.5 27t-16.5 28zM610 397q-14 0 -54.5 39t-43.5 39q-6 0 -6 6t-24 36l-24 29l10 10q6 6 26 41.5t37 41.5q16 7 152 7q46 0 46 -7q0 -13 -27.5 -63t-30.5 -61q-5 -17 -30.5 -67.5t-30.5 -50.5zM341 490q-9 -9 -19 -20.5t-15 -17
t-9 -5.5q-9 1 -26 31.5t-18 30.5q-3 1 -24 32.5t-24 31.5q-4 0 -4 12q0 8 -10.5 19.5t-15.5 32.5l-3 14l51 -1q47 -2 61 -4q7 -1 19 -16t12 -23t8.5 -10.5t10.5 -9.5q2 -5 17.5 -20.5t15.5 -28.5q0 -22 -27 -48zM436 620q-1 -1 -3.5 -6t-5 -8.5t-6.5 -3.5q-5 1 -25.5 20
t-20.5 23t45 4h12l23 -1l-8 -12q-7 -12 -11 -16z" />
</svg>
