<?xml version="1.0" standalone="no"?>
<!DOCTYPE svg PUBLIC "-//W3C//DTD SVG 1.1//EN" "http://www.w3.org/Graphics/SVG/1.1/DTD/svg11.dtd" >
<svg xmlns="http://www.w3.org/2000/svg" xmlns:xlink="http://www.w3.org/1999/xlink" version="1.1" viewBox="-10 0 702 1000">
   <path fill="currentColor"
d="M440 707q0 22 -39 22q-5 0 -15 -2.5t-15 -0.5q-6 3 -83.5 5.5t-91.5 2.5q-16 0 -25.5 -1t-23.5 -4t-20.5 -12t-6.5 -23q0 -10 8.5 -17.5t8.5 -12.5q0 -6 19 -6q13 0 26.5 3.5t18.5 3.5q7 0 20 -6t19 -6q17 0 17 -36q0 -12 -1.5 -28t-4 -57.5t-4.5 -103.5q-4 -122 -9 -152
q-2 -10 -5.5 -46.5t-7.5 -50.5q-4 -12 -7.5 -15t-16.5 -5q-28 -4 -69 -4q-9 0 -17 1t-16 1h-10q-34 0 -34 -24q0 -7 3 -15q7 -20 15.5 -24.5t37.5 -5.5q28 -1 37.5 -3.5t21.5 -2.5q17 0 48 4t77 4q15 0 31.5 -0.5t29 -1.5t22.5 -2t16 -2h6q14 0 64 13t52 16q2 5 17 12
t39 30.5t24 30.5q0 8 4 8q2 0 7 7t10.5 21.5t5.5 29.5q0 37 -11 69.5t-11 33.5q0 5 -5 10t-5 11q0 10 -31.5 41t-49.5 39q-61 27 -147 27q-28 0 -39 -6l-10 -6q-6 0 -6 17q0 25 8 62.5t8 51.5q0 16 4.5 24t4.5 9t-1 4t-1 6q0 12 26 12q20 0 45.5 4t28.5 8q9 13 9 38z
M560 272q0 -4 -3 -12.5t-3 -18.5q0 -11 -8 -20.5t-43 -42.5q-22 -19 -31 -19q-2 0 -8.5 -2.5t-23 -5.5t-41.5 -3q-54 0 -96 10q-16 4 -16 40q0 11 2 38t4.5 57.5t5 59.5t4.5 49l2 20q1 2 4.5 1.5t8.5 -3t8 -5.5q8 -8 29 -5q9 2 33 2q62 0 94.5 -16.5t54.5 -53.5
q23 -41 23 -70z" />
</svg>
