<?xml version="1.0" standalone="no"?>
<!DOCTYPE svg PUBLIC "-//W3C//DTD SVG 1.1//EN" "http://www.w3.org/Graphics/SVG/1.1/DTD/svg11.dtd" >
<svg xmlns="http://www.w3.org/2000/svg" xmlns:xlink="http://www.w3.org/1999/xlink" version="1.1" viewBox="-10 0 667 1000">
   <path fill="currentColor"
d="M543 217q-27 0 -54.5 -22t-27.5 -41q0 -12 7 -27.5t16 -22.5q13 -9 49 -9q23 0 35 5q10 6 18.5 30t8.5 46q0 41 -52 41zM248 423q26 0 33.5 -5.5t7.5 -22.5v-20l-1 -38l-14 -3q-3 -1 -9 -1q-9 0 -42 5t-56 5q-18 0 -29 -9t-11 -21q0 -48 24 -48q1 0 13 2.5t29 2.5
q21 0 46.5 -3t40.5 -6t16 -4q2 -1 2.5 -33t1.5 -67.5t3 -41.5q2 -9 16 -18.5t23 -9.5q31 0 31 32q0 7 -5 55t-5 67q0 13 5.5 17.5t25.5 4.5q8 0 27.5 -1t28.5 -1q17 0 24.5 1.5t13 9t5.5 24.5q0 11 -4 15q-21 21 -85 21q-3 0 -12.5 -0.5t-14.5 -0.5q-16 0 -20.5 4t-4.5 24
q0 13 3 35l2 21l59 -3q57 -3 84 -3h4q55 0 58 34q1 11 -2 16.5t-13 12.5q-12 9 -26.5 11t-80.5 3l-90 1l-4 12q-2 10 -2 28q0 3 0.5 8t0.5 7l1 29l42 -1q30 -1 66 -1q61 0 61 27q0 21 -27 32q-21 9 -124 11q-11 0 -10 4q0 1 1 2q3 5 3 53q0 37 -2 39t-4 15q-2 11 -30 11
q-23 0 -30 -10.5t-7 -30.5q0 -14 2.5 -37t2.5 -31q0 -23 -18 -23q-2 0 -20.5 2t-43.5 2q-39 0 -53 -4.5t-14 -15.5q0 -9 -5 -9q-2 0 0 -6.5t6 -14t7 -9.5q1 -1 24 -4t53.5 -6t44.5 -3q17 0 17 -27q0 -46 -27 -46q-3 0 -6.5 2t-15 4.5t-33.5 3.5l-45 3q-45 3 -47 3
q-17 0 -27 -9.5t-11.5 -15.5t-1.5 -10q0 -13 14.5 -26.5t31.5 -13.5q4 0 11.5 2t18.5 2q35 0 64.5 -6t33.5 -6zM139 195q-19 0 -33.5 -5t-21 -11t-10 -13.5t-4 -11t-0.5 -5.5q0 -5 5 -9.5t7 -17.5q0 -3 4 -12.5t15.5 -21t26.5 -11.5q16 0 41 15q19 11 23 17.5t4 26.5
q0 59 -57 59z" />
</svg>
