<?xml version="1.0" standalone="no"?>
<!DOCTYPE svg PUBLIC "-//W3C//DTD SVG 1.1//EN" "http://www.w3.org/Graphics/SVG/1.1/DTD/svg11.dtd" >
<svg xmlns="http://www.w3.org/2000/svg" xmlns:xlink="http://www.w3.org/1999/xlink" version="1.1" viewBox="-10 0 916 1000">
   <path fill="currentColor"
d="M776 448q-26 0 -48.5 -13t-22.5 -34q0 -22 15 -37t27.5 -19.5t18.5 -4.5q19 0 43 16.5t24 33.5q0 13 -1 20t-6 17.5t-17.5 15.5t-32.5 5zM94 517q0 -1 2 -20t2 -31q0 -10 -1.5 -31.5t-4 -46t-4.5 -47.5t-4 -39l-1 -15q0 -10 13 -21t26 -11q11 0 24 7l14 7l-3 48
q-3 58 -3 70q0 46 3 57.5t13 16.5q9 4 35.5 8.5t43.5 4.5h5q4 -1 12 -2t19.5 -1.5t27.5 -1.5t34 -2t41 -1.5t47 -0.5q71 0 82.5 -5.5t11.5 -38.5v-6q0 -2 0.5 -17.5t0.5 -25.5q2 -65 3 -77t11 -35q4 -10 23 -10q13 0 17 2.5t9 14.5q7 15 7 43q0 9 -5.5 44t-5.5 85
q0 23 3.5 37.5t7 20t3.5 8.5q0 2 -2.5 9t-13 15.5t-25.5 8.5q-7 0 -45 -8t-74 -8q-23 0 -39 4.5t-17 4.5q-3 0 -10 -3l-7 -3l-14 1q-13 1 -34.5 2.5t-46.5 3.5t-52.5 3t-48.5 1q-51 0 -65.5 -3.5t-14.5 -15.5z" />
</svg>
