<?xml version="1.0" standalone="no"?>
<!DOCTYPE svg PUBLIC "-//W3C//DTD SVG 1.1//EN" "http://www.w3.org/Graphics/SVG/1.1/DTD/svg11.dtd" >
<svg xmlns="http://www.w3.org/2000/svg" xmlns:xlink="http://www.w3.org/1999/xlink" version="1.1" viewBox="-10 0 839 1000">
   <path fill="currentColor"
d="M664 480q0 -4 -2 -13.5t-2 -18.5q0 -12 2 -25.5t2 -21.5q0 -9 -2.5 -17t-2.5 -22q0 -2 2 -32t5.5 -64t6.5 -38t3 -25q0 -13 2 -37.5t2 -33.5q0 -11 8.5 -21t15.5 -10q4 0 4 4q0 3 18 5q13 1 16 5.5t3 24.5t-6.5 53t-6.5 36v5q-1 5 -2 15t-2.5 23.5t-2.5 32.5t-2 40.5
t-1.5 49.5t-0.5 58q0 4 2.5 51.5t6.5 103.5t7 67q7 18 0 26.5t-12 10.5t-11 2q-10 0 -21.5 -6.5t-47.5 -6.5q-93 0 -287.5 12t-195.5 12l-50 1l-10 -14q-9 -12 -9 -28q6 -119 6 -179v-72q0 -30 0.5 -62t1.5 -56.5t2 -44.5t1 -32l1 -11q0 -25 -5 -58.5t-5 -39.5
q0 -11 10 -16.5t20 -5.5q14 0 22 4t11.5 13.5t4 17.5t0.5 25q0 21 -2 118.5t-2 117.5v128q0 85 1.5 101.5t9.5 18.5q9 3 85 3q81 0 108.5 -6t146.5 -6q131 0 139 -7q8 -6 8 -30v-41l-1 -40q0 -14 4 -26t4 -18z" />
</svg>
