<?xml version="1.0" standalone="no"?>
<!DOCTYPE svg PUBLIC "-//W3C//DTD SVG 1.1//EN" "http://www.w3.org/Graphics/SVG/1.1/DTD/svg11.dtd" >
<svg xmlns="http://www.w3.org/2000/svg" xmlns:xlink="http://www.w3.org/1999/xlink" version="1.1" viewBox="-10 0 545 1000">
   <path fill="currentColor"
d="M378 751q0 5 -14.5 13.5t-41 15.5t-53.5 7t-57 -10q-29 -10 -38.5 -18t-14.5 -26q-4 -14 -23 -38t-22 -47q-4 -25 -8 -28q-7 -4 -14.5 -32.5t-7.5 -60.5q0 -48 9.5 -80.5t22.5 -53.5t16 -31q2 -8 15 -24t22 -36q21 -48 21 -74q0 -23 -13 -43q-6 -10 -8.5 -15.5t-4.5 -20
t-2 -39.5q0 -38 4 -45q7 -11 8 -18q3 -9 42.5 -27t45.5 -18q4 0 24 7t29 7q8 0 21.5 13t13.5 21q0 5 10 17.5t10 37.5q0 49 -12.5 70t-12.5 37q0 19 12 34t12 24q0 4 9.5 15t13.5 25t11.5 23.5t7.5 14.5q0 3 19 47.5t19 76.5q0 39 -4.5 66.5t-10 44.5t-6.5 25
q-3 21 -20 73.5t-24 59.5q-6 6 -6 10zM276 161q27 0 27 -15q0 -8 5 -8q7 0 7 -15q0 -28 -20 -48q-10 -5 -26 -5q-8 0 -15 3.5t-14 3.5q-23 0 -23 32q0 19 8 31t18 12q5 0 11 4.5t22 4.5zM286 211q-19 -7 -33 0q-6 2 -6 21t12 21q11 3 23 0q12 -2 12 -21q0 -18 -8 -21z
M377 535q0 -3 -1.5 -4.5t-1.5 -2.5q8 -2 8 -38q0 -38 -10 -61q-10 -20 -22 -50q-7 -18 -20 -34t-22 -25.5t-9 -12.5q0 -5 -7 -5q-6 0 -21 4.5t-18 4.5q-11 0 -19 13q-5 7 -12.5 16.5t-12 15.5t-4.5 11q0 6 -7 14.5t-7 13.5q0 8 -4 12q-8 8 -18.5 31.5t-10.5 33.5
q0 11 -4 18.5t-4 17.5q0 19 10.5 66t19.5 57q10 11 18 30t18.5 31.5t32.5 18.5q20 5 31 5q22 0 36 -17.5t16 -17.5q4 0 4 -9q0 -6 7 -14t7 -14t7 -14.5t7 -18.5q0 -9 6.5 -39t6.5 -37z" />
</svg>
