<?xml version="1.0" standalone="no"?>
<!DOCTYPE svg PUBLIC "-//W3C//DTD SVG 1.1//EN" "http://www.w3.org/Graphics/SVG/1.1/DTD/svg11.dtd" >
<svg xmlns="http://www.w3.org/2000/svg" xmlns:xlink="http://www.w3.org/1999/xlink" version="1.1" viewBox="-10 0 712 1000">
   <path fill="currentColor"
d="M115 309l1 -1q0 -2 1 -5.5t1.5 -8t1 -13t0.5 -18.5q0 -25 2 -32.5t13 -18.5q13 -13 18 -23t29 -26.5t36 -18.5q6 -2 26 -10q24 -12 31 -1q3 5 21 5q12 0 15.5 -2t3.5 -10q0 -10 -12 -22.5t-25 -15.5q-32 -7 -32 -31q0 -4 1.5 -11.5t11 -18t24.5 -10.5q42 0 62 22
q11 12 24 45t13 48l1 15q4 0 21 -9t23 -14q13 -10 38 -10q20 0 29 -4.5t22 -4.5q33 0 58.5 9t28.5 20q2 8 8 8q3 0 5 3.5l6 10.5t10 13q14 14 14 46q0 9 -4.5 28.5t-7.5 49.5q-4 40 -17.5 65.5t-26.5 33.5t-23.5 14.5t-10.5 12.5t-11 15.5t-25 15.5q-23 10 1 24
q10 6 25 27.5t21 27.5q12 11 17 44t10 123l3 60l-16 7q-12 5 -23 5q-20 0 -28 -10q-5 -6 -7 -89.5t-18 -110.5q-12 -21 -20.5 -29t-33.5 -25q-22 -14 -30.5 -17t-29.5 -3q-23 0 -33.5 4t-39.5 22q-16 10 -25 22.5t-12.5 21t-5.5 9.5q-8 6 -22.5 51t-14.5 75q0 13 6 37l9 32
l-10 7q-20 17 -41 17t-33 -37q-8 -24 -25.5 -33.5t-25.5 -22.5q-6 -11 -31.5 -34t-25.5 -36q0 -10 11 -15.5t22 -5.5q23 0 48 23t26 23q5 0 11.5 -18.5t17.5 -46t23 -43.5q13 -18 28 -41t18 -27q6 -6 -13 -14q-25 -10 -56 -35.5t-50.5 -47t-19.5 -26.5q0 -4 -6 -17.5
t-6 -18.5zM573 197q-15 -16 -33 -16q-72 0 -93 17q-65 52 -83 52q-15 0 -30 -7.5t-20 -18.5q-6 -13 -18 -22t-26 -2q-45 23 -57 31q-9 7 -16 24t-7 32q0 14 5.5 26t10 17t15.5 14q22 18 35 31q14 14 45.5 21t109.5 12l43 2l45 -30q44 -30 51 -37q4 -4 22 -38t18 -46
q0 -2 -3.5 -15t-1.5 -20q3 -9 -12 -27z" />
</svg>
