<?xml version="1.0" standalone="no"?>
<!DOCTYPE svg PUBLIC "-//W3C//DTD SVG 1.1//EN" "http://www.w3.org/Graphics/SVG/1.1/DTD/svg11.dtd" >
<svg xmlns="http://www.w3.org/2000/svg" xmlns:xlink="http://www.w3.org/1999/xlink" version="1.1" viewBox="-10 0 738 1000">
   <path fill="currentColor"
d="M576 365q0 -42 44 -42q34 0 34 24q0 4 -1 13t-7.5 32.5t-17.5 46.5t-35 53.5t-56 55.5q-7 6 -56.5 25t-57.5 19q-7 0 -33 2t-37 2q-35 0 -67 -10t-52.5 -20.5t-26.5 -10.5t-6 -5q0 -4 -19 -23t-24 -19q-4 0 -25.5 -31t-21.5 -37q0 -4 -5 -9.5t-9 -19.5q-3 -10 -14.5 -37
t-11.5 -34q0 -4 7 -19.5t14 -15.5q3 0 8 6q3 3 5 2l6 -3t7 -2q15 0 20 30q2 15 19 50.5t30 53.5q19 26 36.5 39t70.5 39q32 15 73 15q81 0 139 -46q24 -18 33 -24q7 -5 16.5 -30t15 -46.5t5.5 -23.5z" />
</svg>
