<?xml version="1.0" standalone="no"?>
<!DOCTYPE svg PUBLIC "-//W3C//DTD SVG 1.1//EN" "http://www.w3.org/Graphics/SVG/1.1/DTD/svg11.dtd" >
<svg xmlns="http://www.w3.org/2000/svg" xmlns:xlink="http://www.w3.org/1999/xlink" version="1.1" viewBox="-10 0 1059 1000">
   <path fill="currentColor"
d="M477 531q0 -31 17 -31q11 0 32 9q17 7 17 30q0 16 -6.5 21.5t-23.5 5.5q-36 0 -36 -35zM398 486q3 0 10 1.5t11 1.5q7 0 19 12q13 11 9 27q-6 27 -29 27q-39 0 -39 -41q0 -28 19 -28zM286 398q-12 0 -21.5 -6t-9.5 -17q0 -4 5 -31q6 -24 6 -96q0 -22 -6 -34
q-8 -16 -8 -22q0 -11 -29 -44.5t-39 -33.5q-7 0 -23.5 31t-21.5 55q-7 37 -7 56q0 55 35 96q19 23 19 34q0 21 -6 30t-23 10q-11 1 -15.5 -2t-11.5 -14q-4 -6 -11 -14.5t-11.5 -15.5t-7.5 -16q-3 -11 -8 -16q-1 -1 -5.5 -11.5t-9 -28.5t-4.5 -33q0 -65 20.5 -127.5
t53.5 -101.5q17 -21 20 -21q2 0 18.5 13t26.5 23q11 11 19 11q7 0 14 12q4 6 6 7.5t5 1t11 -4.5q11 -6 34 -6q29 0 43 8q35 19 42 19q2 0 2 -5q0 -8 10 -26q22 -42 88 -42q18 0 29 4q44 15 87 48q23 19 31 19q4 0 16 -5q21 -10 61 -10q25 0 34 6q12 7 30 32.5t18 36.5
q0 7 6.5 22t6.5 21q0 7 6 19q7 11 19 34q10 18 16.5 22t23.5 4h10q22 0 38 -13q14 -12 30 -12q8 0 19 7q8 6 6 32q-1 13 -3.5 21t-6 15t-5.5 14q-5 17 -23 39t-26 22t-23 13q-16 13 -35 14q-8 0 -20.5 3t-18.5 3q-13 0 -32.5 -5.5t-26.5 -12.5q-6 -6 -19 -6q-22 0 -59 -36
q-15 -15 -24 -15q-4 0 -4 3q0 1 2 5q16 35 24 104l4 26l33 -1q4 0 10.5 -0.5t9.5 -0.5q23 0 33 4.5t19 18t15 19.5q31 31 31 87q0 13 -1.5 22.5t-6.5 18.5l-7.5 13.5t-11 14.5t-11.5 14q-4 5 -8.5 9.5t-8 7.5t-10.5 6.5l-10 5t-12 5t-11 4.5q-28 13 -146 13q-41 0 -44 4
q-2 3 -9.5 -0.5t-10.5 -1.5q-5 4 -11 -2q-9 -6 -48 -13q-28 -5 -50 -16.5t-36 -15.5q-26 -9 -27 -12q-2 -5 -12 -5q-8 0 -28 -8q-13 -5 -15.5 -9t-2.5 -17q0 -17 9 -29t22 -12q7 0 31 12t30 12q11 0 27 9q17 9 60 22q45 13 116 13q66 0 99 -8q8 -2 18 -4t16 -3l5 -1
q4 0 15 -13.5t11 -17.5q0 -6 6 -8q5 -1 5 -15q0 -19 -9 -33.5t-25 -14.5q-11 0 -22 6t-11 13t-16.5 16.5t-26.5 9.5q-21 0 -31 -7t-10 -25q0 -13 2.5 -44t2.5 -41q0 -47 -10 -57q-5 -5 -5 -14q0 -8 -4 -8q-6 0 -13 -27q-7 -23 -17 -45t-14 -22q-6 0 -14.5 16.5t-10.5 31.5
q-5 38 -37 38q-14 0 -33 -14t-27 -30q-24 -48 -66 -48q-36 0 -48 37q-4 10 -6.5 15t-8 9t-14.5 4zM307 162q0 7 10 42t10 40q0 7 0.5 10.5t3 5t6.5 1.5q3 0 13.5 -1.5t14.5 -1.5q13 0 56 24q18 10 34 26q14 14 21 14t24 -18q10 -12 15 -12t31 -12q36 -15 60 -15q17 0 21 8
q6 10 10 10q3 0 13 8q44 42 65 52q18 9 24 17q5 7 15 7q4 0 29 8t32 8q6 0 24 -5q37 -11 37 -21q0 -4 -9 -4q-6 0 -26 -7t-27 -7q-12 0 -22 -10t-13 -24q-2 -11 -6.5 -21t-6.5 -22q-3 -20 -18 -49t-28 -40q-15 -12 -31 -11q-11 1 -16 5t-13 20q-12 25 -19.5 32.5t-20.5 7.5
q-15 0 -20 -7.5t-8 -32.5q-2 -20 -6.5 -28t-21.5 -24q-25 -23 -49 -36q-22 -12 -28 -12q-4 0 -16.5 9t-15.5 9q-5 0 -14 19t-9 29q0 24 -2 31q-10 31 -36 31q-13 0 -26 -11.5t-13 -21.5q0 -4 -16 -13.5t-16 -12.5q0 -8 -9 -3q-7 4 -7 9z" />
</svg>
