<?xml version="1.0" standalone="no"?>
<!DOCTYPE svg PUBLIC "-//W3C//DTD SVG 1.1//EN" "http://www.w3.org/Graphics/SVG/1.1/DTD/svg11.dtd" >
<svg xmlns="http://www.w3.org/2000/svg" xmlns:xlink="http://www.w3.org/1999/xlink" version="1.1" viewBox="-10 0 750 1000">
   <path fill="currentColor"
d="M60 180q0 -1 2 -7t3.5 -11.5t0.5 -5.5q-3 0 2 -5q4 -4 34.5 -7t66.5 -6t39 -3q20 -3 30 4q5 4 19 4q8 0 18 7.5t10 13.5q0 5 -12.5 19t-12.5 17q0 2 -0.5 6t-1 5.5t-1 4.5t-1.5 4.5t-2.5 3.5t-3.5 3.5t-5 2.5q-6 2 -11.5 9.5t-8.5 14t-8 18t-6 14.5q-4 9 -5 22.5t-7 22.5
q-5 7 -4.5 18.5t-5.5 14.5q-5 4 -7 16t-3.5 27t-3.5 20q-3 11 7 32q6 12 6 29q0 11 10.5 36t19.5 34q15 17 22 31q8 17 17 17q6 0 11 5t10 5q9 0 22 10q10 7 32.5 14t34.5 7q19 0 20 1q3 2 11 2q26 0 75 -23.5t74 -49.5q19 -20 19 -29q0 -5 4.5 -11t4.5 -13q0 -11 4 -13
q3 -1 3 -24q0 -120 -51 -181q-12 -14 -12 -21q0 -5 -3 -7q-4 -2 -17 -19.5t-13 -21.5t-12 -14.5t-16 -10.5q-5 0 -5 -14t-4 -14q-6 0 -16 -14.5t-10 -22.5q0 -33 91 -36q23 0 58.5 -4.5t55.5 -4.5q31 0 44.5 7t13.5 27q0 22 -18 29q-19 8 -80 8q-27 0 -36 -3q-21 -7 -21 5
q0 27 53 96q13 17 18 26q16 38 22 38q4 0 0 2q-5 3 1 22q6 16 8 44q1 16 5 33t4 42q0 49 -6 55q-3 3 -3.5 5t0.5 4.5t1 4.5q0 16 -19 43q-12 16 -13 21q-2 7 -38.5 35t-50.5 34q-16 6 -22 6q-9 0 -15 6q-21 21 -75 21q-13 0 -50.5 -5.5t-49.5 -5.5t-23 -7q-21 -14 -58 -31
q-14 -7 -23 -14t-13 -13l-11 -16.5t-16 -19.5q-4 -5 -10 -19t-11 -18q-6 -4 -6 -16q0 -7 -6.5 -12.5t-4.5 -15.5q4 -11 -4 -27q-6 -15 -6 -58q0 -46 4 -67.5t17 -48.5q3 -5 13 -31.5t16 -34.5q10 -15 10 -36q0 -19 -16 -8q-9 6 -24 6q-25 0 -47 -9t-22 -26z" />
</svg>
