<?xml version="1.0" standalone="no"?>
<!DOCTYPE svg PUBLIC "-//W3C//DTD SVG 1.1//EN" "http://www.w3.org/Graphics/SVG/1.1/DTD/svg11.dtd" >
<svg xmlns="http://www.w3.org/2000/svg" xmlns:xlink="http://www.w3.org/1999/xlink" version="1.1" viewBox="-10 0 1243 1000">
   <path fill="currentColor"
d="M712 565q0 13 -14.5 23t-33.5 10q-24 0 -24 -27q0 -40 30 -46q14 -3 19 -1.5t11 11.5q12 17 12 30zM806 559q0 17 -7 23t-25 6q-17 0 -26.5 -9t-9.5 -24q0 -29 23 -35q15 -4 17 -8q1 -2 4 -2q7 0 15.5 17t8.5 32zM104 299q8 0 24.5 1.5t27.5 1.5q8 0 25 -0.5t22 -0.5
q16 0 30 6t30.5 17t22.5 14q14 7 20.5 12t17.5 17t17 19q24 24 44 54q16 24 34.5 59t18.5 42q0 5 24 27q12 11 17 17t7 12.5t2 16.5q0 12 -5.5 16t-22.5 4q-15 0 -29 -5q-12 -5 -34 -28t-24 -33q-2 -12 -8 -18q-5 -5 -17 -33q-7 -18 -19.5 -33.5t-53.5 -60.5
q-31 -34 -59 -34q-6 0 -9 1q-7 2 -8 7.5t5 9.5q5 3 5 12q0 29 26 67t51 38q3 0 6.5 -1.5t5.5 -1.5q11 0 21.5 15t10.5 31q0 11 -9.5 23t-18.5 12q-14 0 -14 21q0 10 3.5 21.5t10.5 22.5t15 18q18 13 45 13q19 0 35 -8q18 -9 26 -9h10t7 1q2 2 11 -7q7 -6 9.5 -6t7.5 6
q13 16 13 37q0 18 -25 30q-13 7 -13 10q0 7 -28.5 15t-52.5 8q-13 0 -19 -4t-35 -15q-19 -8 -40.5 -24t-21.5 -23q0 -5 -9 -12q-19 -19 -19 -60q0 -30 12 -48q5 -8 4 -10t-10 -7q-16 -9 -23 -16q-10 -9 -21.5 -35.5t-17.5 -52.5q-11 -56 -36 -75q-16 -12 -19 -12
q-5 0 -16 -13q-7 -9 -21 -17q-6 -3 -6 -7t4 -15q6 -16 13.5 -23t22.5 -7zM777.5 740q5.5 0 19.5 -2t20 -2q8 0 29 3t28 3q9 0 15 -3q12 -6 34 -11q73 -17 73 -42q0 -7 5 -12t1 -23l-3 -18l-23 3q-26 4 -33 8q-5 5 -14.5 0t-14.5 -5q-21 0 -21 -26q0 -6 1.5 -21t1.5 -22
q0 -38 -18 -73q-9 -19 -7 -21t2 -4q0 -7 -13 -12t-29.5 -9t-21.5 -7q-9 -6 -26 -6q-6 0 -27.5 1t-28.5 1q-27 0 -34 -5.5t-13 -30.5q-1 -4 -1 -11q0 -33 52 -33q51 0 112 25q19 8 19 4q1 -2 -3 -7q-5 -9 0 -27q9 -30 47 -30q17 0 25 -7q5 -4 24.5 -7t42 -5.5t27.5 -3.5
t10 -1.5t7.5 0t4 -1t1.5 -4.5q0 -7 -9 -7q-6 0 -24 -10q-8 -5 -18 -8.5t-16 -4t-23 -2t-25 -2.5q-46 -4 -46 -26q0 -15 20 -47q14 -23 14 -28q0 -4 -6 -4q-10 0 -81.5 20t-90.5 28q-56 23 -79 48q-7 8 -9 18.5t-3 47.5q0 45 -6 57t-28 12q-18 0 -26 -7t-8 -26
q0 -8 2.5 -19.5t4.5 -23t2 -17.5q0 -39 -26 -95.5t-62 -93.5q-14 -12 -15 -6q0 11 -7 25q-4 11 -9 43.5t-5 53.5q0 34 16 54l10 14q0 4 9 24q7 14 7.5 19.5t-5.5 15.5q-13 24 -31 24q-9 0 -12 -8q-3 -9 -12 -19q-5 -5 -12.5 -28t-12.5 -28q-7 -7 -7 -17q0 -11 -5 -16
q-3 -3 -3 -34q0 -59 7 -94q4 -17 14.5 -41t15.5 -27q4 -2 4 -16q0 -10 5 -17.5t13 -11.5t18 -4q17 0 27 12q20 23 46 48q33 33 49 56t23 48q6 20 11 20q1 0 2 -1q5 -5 12 -5q8 0 77 -37q31 -16 72.5 -26t118.5 -21q42 -6 64 -6q26 0 35 8t9 28q0 10 -2 14.5t-7 7.5t-22 11
q-30 14 -30 22q0 10 46 23q19 5 39 17q19 11 21 11q6 0 42 35.5t39 45.5q5 11 1 29q-2 11 -6.5 16t-15.5 11q-16 9 -37 9q-16 0 -31 -6q-16 -6 -53 -6l-38 -1l1 13q2 14 10 27q10 16 10 19q0 7 6 13q10 12 10 34q0 35 -37 35q-2 0 -18 -2.5t-22 -2.5q-4 0 -4 1q0 6 17 27
t26 25q11 6 35 10l22 3l20 40q19 38 19 57q0 16 -11 40q-7 16 -15 24t-26 19q-29 18 -35 24q-5 5 -37.5 12.5t-36.5 8.5q-11 5 -53 5q-48 0 -106.5 -7.5t-79.5 -16.5q-12 -6 -40 -14q-24 -7 -38 -11t-23.5 -8.5t-13.5 -9t-7 -10.5q-4 -10 -4 -17q0 -19 10 -21q40 -4 43 -7
q1 -1 17 7t16 6q0 -4 7 6q4 5 10.5 8.5t12 5t16 3.5t15.5 3q21 5 41 7q8 1 14 2.5t9 3t7.5 3t10 1.5z" />
</svg>
