<?xml version="1.0" standalone="no"?>
<!DOCTYPE svg PUBLIC "-//W3C//DTD SVG 1.1//EN" "http://www.w3.org/Graphics/SVG/1.1/DTD/svg11.dtd" >
<svg xmlns="http://www.w3.org/2000/svg" xmlns:xlink="http://www.w3.org/1999/xlink" version="1.1" viewBox="-10 0 1322 1000">
   <path fill="currentColor"
d="M502 528q0 -11 10 -18t23 -7t18.5 5t5.5 19q0 37 -21 37q-10 0 -23 -11.5t-13 -24.5zM578 531q0 -32 32 -32q12 0 27 9t15 18q0 8 -9 23q-9 14 -19 14q-46 0 -46 -32zM67 343q0 -20 11.5 -35.5t30.5 -15.5q41 0 109 72q48 51 61 60q7 4 19 27.5t26 57.5l15 34q8 16 8 27
t-4 24q-7 27 -35 27q-16 0 -29.5 -11.5t-16.5 -30.5q-11 -72 -27 -98q-14 -25 -24 -27q-8 -2 -8 -7t-6 -5q-15 0 -20 41q-2 20 7 28q1 1 13.5 12t20.5 19q17 16 21.5 25t4.5 27q0 29 -28 29q-3 0 -9.5 -0.5t-10.5 -0.5q-7 0 -7 6q0 12 11 29.5t20 17.5q5 0 6 -4
q13 -24 34 -24q36 0 36 29q0 33 -11 49.5t-39 16.5q-53 0 -71 -22q-17 -19 -21.5 -25t-8 -13t-3.5 -15q0 -11 3 -38t5 -30q2 -7 -12 -20q-25 -23 -25 -65q0 -25 8 -35q7 -7 7 -14t5.5 -19.5t9.5 -12.5q3 0 3 -18q0 -19 -15.5 -32.5t-32.5 -13.5q-1 0 -5 1t-6 0.5t-2 -2.5
q0 -5 -9 -7q-9 -3 -9 -18zM775 348q-5 0 -14.5 -1t-13.5 -1q-10 0 -10 7q0 3 12 34q11 30 13 57q2 29 7 39q16 28 69 41q31 7 44 16q16 12 32 45t16 56q0 21 -9 44.5t-19 30.5q-4 3 -14.5 20.5t-16.5 20.5q-4 2 -15 12.5t-19 10.5q-9 0 -14 5q-3 3 -35 7.5t-35 6.5
q-6 5 -47 5q-44 0 -91 -10q-74 -15 -84 -15h-3q-6 0 -23 -9t-28 -17q-9 -8 -26.5 -14.5t-25.5 -11.5q-13 -8 -27 -8q-20 0 -37.5 -17t-17.5 -37q0 -16 6 -20.5t26 -4.5q17 0 44 18q29 19 35 19t34 13q19 9 64.5 21.5t55.5 15.5q21 7 78 7q94 0 108 -13q7 -7 14 -7
q15 0 30.5 -23t15.5 -46q0 -18 -3.5 -27t-14.5 -23q-10 -13 -24 -13q-10 0 -30.5 1.5t-25.5 1.5q-25 0 -31 -11t-11 -57q-1 -10 -2 -16q-5 -49 -27 -99q-12 -27 -12 -42q0 -3 0.5 -9.5t0.5 -8.5q0 -6 -4 -8t-25 -6q-1 0 -4 -0.5t-5 -0.5q-25 0 -65.5 15.5t-58.5 31.5
q-28 27 -47 27q-14 0 -20.5 -17t-6.5 -35q0 -12 6.5 -35.5t6.5 -37.5q0 -39 -16 -80.5t-40 -64.5q-16 -14 -21 -27q-3 -9 -8 -9q-11 0 -22 31t-11 49q0 79 9 90q4 3 10 23q3 9 22 30.5t19 42.5q0 8 -7.5 23.5t-12.5 15.5q-13 0 -39.5 -28t-27.5 -42q0 -4 -7 -16t-7 -16
q0 -2 -11 -28t-11 -31q0 -1 -4.5 -31t-4.5 -36q0 -2 1 -6t2 -11t2 -13q5 -45 40 -80q10 -10 18 -32q8 -27 26 -27q11 0 23 7t14 16q2 7 27.5 29.5t28.5 27.5q6 10 22 26q15 15 24 33q6 13 11 13t17 -12q37 -37 70 -60q25 -17 88 -17q33 0 72.5 11t52.5 18q20 10 26 10t12 4
q1 1 45 25q29 15 41.5 25t32.5 34q13 15 15 15q5 0 21 18.5t16 23.5t12 35q32 78 32 167q0 26 -6.5 80t-6.5 76q0 17 2 25t5.5 15.5t5.5 16.5q4 16 22 32q19 18 45 18h18q12 -1 26.5 -21t14.5 -36q0 -13 -9.5 -18.5t-33.5 -6.5q-22 -1 -29.5 -4.5t-7.5 -15.5q0 -28 9 -38.5
t35 -13.5q10 -1 27 -1q38 0 62 23q15 14 18 21t3 28q0 29 -12 52q-12 24 -12 27q0 7 -33.5 40t-40.5 33q-9 0 -13 6q-2 3 -20 3q-46 0 -63 -8.5t-38 -40.5q-31 -48 -42.5 -74.5t-11.5 -54.5q0 -17 5 -49q9 -54 9 -119q0 -37 -19 -115q-3 -12 -13 -30t-10 -24q0 -4 -9.5 -15
t-9.5 -16q0 -4 -16.5 -15.5t-16.5 -14.5q0 -5 -5 -5q-3 0 -22 -14t-24 -14q-8 0 -21 -9q-33 -25 -84 -31q-23 -2 -39 -11q-10 -6 -20 -6q-11 0 -18 2q-17 4 -63 26t-55 31q-6 6 -12.5 31.5t-6.5 42.5q0 21 13 21q9 0 27 -6q28 -9 107 -9h80l32 16q31 16 31 24q0 4 4 10t4 9
q0 23 -40 23z" />
</svg>
