<?xml version="1.0" standalone="no"?>
<!DOCTYPE svg PUBLIC "-//W3C//DTD SVG 1.1//EN" "http://www.w3.org/Graphics/SVG/1.1/DTD/svg11.dtd" >
<svg xmlns="http://www.w3.org/2000/svg" xmlns:xlink="http://www.w3.org/1999/xlink" version="1.1" viewBox="-10 0 775 1000">
   <path fill="currentColor"
d="M393 364q1 0 8.5 1.5t10.5 1.5q8 0 20.5 15t12.5 28q0 14 -11 29t-29 15q-15 0 -32 -11.5t-17 -29.5q0 -14 12.5 -31.5t24.5 -17.5zM252 261q0 -21 -18.5 -49.5t-35.5 -46t-19 -17.5q-4 0 -16 15t-12 20q0 1 -8 20t-8 47q0 31 14 50q35 45 35 64q0 3 -1 8t-8 13.5
t-19 8.5q-33 0 -40 -28q-2 -10 -12 -26.5t-11 -27.5q-1 -9 -7.5 -22t-6.5 -38q0 -36 12.5 -73.5t13.5 -43.5q3 -18 12.5 -30t12.5 -23q8 -25 35 -25q14 0 48.5 32t65.5 81l10 16l29 -3q7 -1 17 -1q12 0 17 3.5t9 3.5q6 0 21.5 7t22.5 7q20 0 59.5 31t60.5 63q12 19 21 28
q7 6 12.5 22t5.5 28q0 9 11.5 18.5t11.5 14.5q0 7 16.5 23t23.5 16t7 5t29 34l29 29l2 37q0 3 0.5 8t0.5 7q0 21 -4.5 27.5t-4.5 11.5q0 6 -9.5 16.5t-9.5 14.5q0 3 -10.5 9.5t-24 13.5t-17.5 10q-7 5 -29.5 10.5t-38.5 5.5q-15 0 -35 -10l-18 -10l-17 10q-15 10 -21 10
t-28 11t-25 15q-13 21 -36 21q-14 0 -21 4.5t-16 4.5q-44 0 -44 -35q0 -21 10.5 -26.5t35 -10t43.5 -17.5q49 -33 60 -33q7 0 7 -4t20 -12.5t28 -8.5q3 0 20 8t40 8q33 0 55.5 -18.5t22.5 -31.5q0 -11 -9.5 -25t-17.5 -19q-5 -3 -19 -11.5t-24.5 -15t-12.5 -6.5
q-3 0 -7.5 -9.5t-10.5 -11.5q-17 -6 -23.5 -52.5t-14.5 -55.5q-10 -10 -10 -15t-24.5 -30.5t-35.5 -31.5q-9 -5 -46 -14t-48 -9q-10 0 -12 4q-7 12 -7 76q0 25 -12 25q-7 0 -29 -10l-26 -12l3 -28q3 -26 6.5 -34t3.5 -15z" />
</svg>
