<?xml version="1.0" standalone="no"?>
<!DOCTYPE svg PUBLIC "-//W3C//DTD SVG 1.1//EN" "http://www.w3.org/Graphics/SVG/1.1/DTD/svg11.dtd" >
<svg xmlns="http://www.w3.org/2000/svg" xmlns:xlink="http://www.w3.org/1999/xlink" version="1.1" viewBox="-10 0 1077 1000">
   <path fill="currentColor"
d="M436 493q2 -21 8 -26.5t27 -5.5q16 0 21.5 4t10.5 18q2 8 2 11q0 15 -11.5 26t-24.5 11q-5 0 -7 -3q-4 -4 -16 -9q-8 -4 -10 -8t0 -18zM320 489q0 -33 33 -33q10 0 10 4q0 2 11 2q12 0 12 21q0 38 -37 38q-29 0 -29 -32zM538 777q-13 0 -35 -2t-31 -2h-10q-6 0 -41 -5.5
t-41 -5.5h-2l-2 1q-5 0 -39 -15t-39 -15q-7 0 -27 -7t-26 -7t-20.5 -12t-16.5 -13q-6 -2 -7.5 -14.5t3.5 -17.5q2 -3 7.5 -11.5t11 -12t15.5 -3.5q9 0 22 4t21 7.5t22.5 11t17.5 8.5q63 29 105 34q19 2 41.5 6t41 6t43.5 2q44 0 54 -5q7 -4 20 -4q12 0 29 -14q19 -15 23 -15
q8 0 19.5 -24t11.5 -41q0 -7 -20 -25.5t-29 -18.5q-10 0 -19 20q-15 34 -35 34q-14 0 -34 -10q-9 -5 -11.5 -8t-2.5 -12q0 -11 1 -43.5t1 -50.5q0 -22 -3 -34t-12 -27t-12 -22q-20 -42 -20 -56q0 -9 -3.5 -11.5t-20.5 -6.5q-26 -6 -53 -6q-52 0 -80 15q-8 4 -19 4
q-12 0 -12 5q0 4 -15 21q-13 16 -26 16q-5 0 -8 -4q-3 -5 -14 -5q-9 0 -17.5 -9t-8.5 -19q0 -6 10 -26q8 -15 8 -33q0 -59 -14 -87q-9 -18 -9 -24q0 -7 -31 -40.5t-37 -33.5t-6 5q0 10 -15 41q-12 26 -12 56q0 17 5 42q8 37 42 93q10 17 10 32q0 11 -6 19.5t-17 8.5
q-17 0 -36 -12.5t-19 -25.5q0 -7 -14 -30t-16 -38q-1 -7 -5 -25.5t-4 -38.5q0 -53 9 -87q4 -12 6 -26.5t5 -23.5t11 -18q15 -21 20 -32q9 -22 34 -22q18 0 39.5 11t31.5 26q14 22 34 38t32 16q13 0 43 -8t33 -12q3 -5 57 -5q31 0 55 4q21 5 25 -5q5 -13 17 -32
q24 -41 30 -62q4 -13 25 -13q16 0 22.5 14.5t13.5 63.5q13 85 28 102q28 30 34 44q6 13 13 13t7 5q0 3 14 34t14 34q0 6 5 6q4 0 7 12q3 11 19.5 31.5t24.5 24.5q4 2 45.5 8t52.5 6t20 -5q12 -8 16.5 -17.5t4.5 -32.5q0 -39 -35 -64q-14 -9 -21 -9q-15 0 -15 15q0 7 4 23
t4 21q0 34 -25 34q-18 0 -36.5 -23.5t-18.5 -46.5q0 -26 18.5 -52.5t36.5 -30.5q10 -2 17 -2q35 0 76 19t51 41q10 20 10 47q0 24 -7 51q-19 79 -51 93q-20 9 -40 9t-58 -7q-114 -20 -149 -91q-9 -17 -29.5 -44.5t-25.5 -27.5q-6 0 -5 5.5t6 10.5q9 9 9 22t-2 22
q-1 9 -5.5 12t-16.5 5q-21 4 -21 12q0 4 10 26q11 23 19 63q8 41 9 42q1 3 19 3q6 0 19 -1t18 -1q21 0 25 3q22 11 42 39t28 58q2 6 2 15q0 8 -10.5 33.5t-14.5 27.5t-4 7q0 8 -19 24t-47 32q-30 16 -43.5 20t-52.5 7q-34 2 -51 2zM431 168q-14 -11 -39 -11q-33 0 -59 17
q-13 8 -15.5 12.5t0.5 16.5q5 23 5 45q1 34 2.5 39t13.5 5h1q16 0 37 -7q44 -16 88 -16q9 0 13 2t34 5t46 3q13 0 13 -4q0 -2 -1.5 -15.5t-2.5 -23.5q-1 -24 -5.5 -29.5t-25.5 -12.5q-13 -5 -18 -4t-15 11q-17 17 -24 31q-9 18 -11 18q-6 0 -19 -9t-18 -17q-6 -9 -5.5 -13
t8.5 -16l10 -17z" />
</svg>
