<?xml version="1.0" standalone="no"?>
<!DOCTYPE svg PUBLIC "-//W3C//DTD SVG 1.1//EN" "http://www.w3.org/Graphics/SVG/1.1/DTD/svg11.dtd" >
<svg xmlns="http://www.w3.org/2000/svg" xmlns:xlink="http://www.w3.org/1999/xlink" version="1.1" viewBox="-10 0 1037 1000">
   <path fill="currentColor"
d="M439 588q0 -17 13.5 -27.5t32.5 -10.5q15 0 20 7t5 25q0 19 -6.5 25t-27.5 6q-37 0 -37 -25zM392 581q0 14 -8 27.5t-22 13.5t-29 -12.5t-15 -22.5q0 -8 17 -23t31 -15q12 0 19 9t7 23zM293 772q-62 0 -62 -41q0 -14 18 -28.5t37 -14.5q17 0 35 17q17 14 31 14
q28 0 123 21q67 15 89 15q16 0 49.5 -3t44.5 -3q35 0 49 -8q16 -8 21 -8q13 0 13 -14q0 -10 -4 -18q-18 -38 -39 -38q-14 0 -31 14t-37 14q-15 0 -24 -13t-9 -27q0 -9 5 -16q5 -6 5 -23q0 -26 -10 -49q-7 -18 0 -32q4 -7 4.5 -10t-1.5 -5.5t-10 -6.5q-15 -9 -15 -11
t-18.5 -22.5t-18.5 -23.5q0 -4 -10 -4q-14 0 -39 9t-34 11q-11 2 -18.5 7t-21.5 7q-72 8 -141 8q-6 0 -15 3t-16 3q-16 0 -50 -6.5t-37 -6.5q-35 -6 -45 -13q-13 -9 -16 -9q-5 0 -17.5 -17t-12.5 -23q0 -10 9 -33q15 -41 35.5 -66t37.5 -25q10 0 17.5 9t7.5 19q0 12 -19 41
q-16 25 -16 39q0 5 3 7.5t10.5 3t10.5 1.5q36 9 68 9q14 0 32 -4q24 -6 116 -10q51 -2 105 -23q57 -21 80 -21h3q38 0 67 -23q7 -5 51.5 -30t54.5 -35q16 -16 19 -16t49 -46q20 -20 20 -49q0 -13 -10.5 -24t-24.5 -11q-38 0 -72 16l-27 13l3 19q5 32 5 49q0 48 -32 67
q-19 12 -30 12q-7 0 -22 11q-7 5 -10.5 7t-6.5 2t-11 0.5t-18 1.5q-6 1 -16 1q-38 0 -38 -33q0 -32 62 -48q29 -8 36.5 -13.5t7.5 -21.5q0 -74 -24 -92q-4 -3 -15.5 -27.5t-22.5 -24.5q-16 0 -35 36q-20 40 -52 40q-23 0 -34.5 -7t-20.5 -26q-24 -49 -35 -49q-6 0 -7 11.5
t4 19.5q24 37 40 86t16 85q0 19 -6 33q-9 27 -14 46q-14 50 -37 50q-18 0 -31 -10t-13 -23q0 -10 5.5 -23t10.5 -17q14 -10 14 -61q0 -20 -5 -31t-7 -22q-3 -19 -15 -42t-26 -36q-13 -11 -16 -11q-4 0 -11 16q-6 17 -17 31q-8 13 -16 49.5t-8 60.5q0 25 12 39q24 27 24 63
q0 17 -1.5 20.5t-11.5 3.5q-33 0 -54 -26q-11 -14 -23.5 -51.5t-12.5 -59.5q0 -30 11 -66.5t28 -61.5q13 -19 13 -23q0 -1 25.5 -39t25.5 -40q0 -3 5.5 -4t12.5 1t10 6q6 8 15 8q16 0 37 -24q14 -16 20.5 -19.5t19.5 -3.5q42 0 47 28q7 48 25 48q11 0 30.5 -22t25.5 -35
q5 -10 15 -10q7 0 12.5 -7t11.5 -7q8 0 8 -4t11 -2q10 2 24 23q4 7 21 28.5t22 35.5t13 14q3 0 11.5 -1.5t14.5 -2.5q11 -1 32.5 -6t40.5 -5q55 0 67 10q7 7 26 13q17 5 17 10q0 4 12 16q20 20 20 44q0 38 -11 47q-6 5 -6 11t-34 33q-23 19 -23 24t-14 14q-19 12 -36 29
q-21 21 -26 21q-6 0 -16.5 8.5t-10.5 13.5q0 2 -2 2.5t-6 -0.5t-5 -1q-5 0 -5 6q0 10 13 20q9 5 36.5 34t34.5 34q21 15 76 15q13 0 16 -3q2 -2 4 -2.5t4.5 0.5t3.5 1q4 0 19 -4t20 -4q3 0 20 15q8 6 9 9t-3 14q-22 63 -143 69q-11 1 -39.5 3t-39.5 2q-19 0 -41 -7
q-23 -7 -28 -7q-9 0 -9 7q0 9 3 12.5t13 3.5q3 0 15 -1t15 -1q14 0 38 18q24 19 29 19q3 0 19 41q3 6 3 30q0 55 -8 77q-3 9 -13.5 16t-28 12t-30.5 8t-34.5 6.5t-25.5 4.5q-16 3 -45 3q-94 0 -172 -22q-12 -4 -29 -4h-9q-39 0 -68 -13q-22 -12 -44 -12zM684 430
q-9 -23 -20 -23q-4 0 -18 6t-28 13l-16 8q-8 3 5 16q7 6 14 8q11 3 24 16q8 8 36 20.5t35 18.5q13 9 31 9q11 0 11 -5q0 -4 -28 -32t-33 -30q-4 -2 -13 -25z" />
</svg>
