<?xml version="1.0" standalone="no"?>
<!DOCTYPE svg PUBLIC "-//W3C//DTD SVG 1.1//EN" "http://www.w3.org/Graphics/SVG/1.1/DTD/svg11.dtd" >
<svg xmlns="http://www.w3.org/2000/svg" xmlns:xlink="http://www.w3.org/1999/xlink" version="1.1" viewBox="-10 0 872 1000">
   <path fill="currentColor"
d="M387 496q-3 0 -8 -3.5t-9 -3.5q-12 0 -12 -21q0 -29 19 -40q13 -8 16.5 -8.5t15.5 4.5q15 6 15 28q0 16 -13 30t-24 14zM521 438q0 22 -8.5 36.5t-20.5 14.5t-27.5 -9t-15.5 -20q0 -12 19 -32t32 -20q21 0 21 30zM258 429q-22 0 -22 -27q0 -24 9 -67q5 -20 5 -32
q0 -8 -3.5 -24t-4.5 -27q-5 -50 -45 -95l-18 -21l-13 20q-7 11 -25 59q-17 45 -17 68q0 10 2.5 20.5t8 22.5t9 19.5t11 21t9.5 16.5l11 22l-16 16q-16 16 -21 16q-7 0 -19 -13.5t-18 -28.5q-17 -42 -19 -51q0 -1 -8 -30.5t-8 -43.5q0 -13 10 -51t17 -51q36 -68 37 -69
q5 -5 9 -20.5t10.5 -26t17.5 -10.5q15 0 77 61q15 15 33.5 48.5t25.5 58.5q8 33 19 33q10 0 50.5 -6t49.5 -6q16 0 53.5 13t47.5 15q23 5 30 12t13 7q10 0 31 29q28 38 36 92q5 36 7 38q1 1 27 5q52 7 79 23.5t41 48.5q7 17 7 53q0 31 -6 44q-23 49 -44 67q-13 11 -13 16
q0 8 -31.5 20t-65.5 17q-50 8 -58 12q-14 7 -36 7q-33 0 -108 -13t-102 -23q-9 -4 -30.5 -10t-39.5 -15q-7 -3 -17.5 -8t-18.5 -9t-12 -5q-13 -5 -25 -19t-12 -24q0 -12 15.5 -24t25.5 -12q13 0 36 10t34 20q21 20 84 35q8 2 26.5 6.5t23.5 5.5t19 4t24.5 3.5t27.5 1t39 0.5
q114 0 160 -31.5t46 -112.5q0 -15 -11 -23.5t-27 -8.5q-33 0 -67 26q-11 8 -16.5 9t-16.5 -3q-12 -5 -20.5 -16t-8.5 -20q0 -5 3 -8q6 -8 6 -37q0 -67 -17 -98q-16 -33 -28 -38q-11 -5 -36 -12.5t-33 -7.5l-34 -1q-34 -2 -44 -2q-20 0 -34 7q-22 11 -31 24.5t-14 45.5
q-8 49 -27 57q-13 5 -22 5z" />
</svg>
