<?xml version="1.0" standalone="no"?>
<!DOCTYPE svg PUBLIC "-//W3C//DTD SVG 1.1//EN" "http://www.w3.org/Graphics/SVG/1.1/DTD/svg11.dtd" >
<svg xmlns="http://www.w3.org/2000/svg" xmlns:xlink="http://www.w3.org/1999/xlink" version="1.1" viewBox="-10 0 862 1000">
   <path fill="currentColor"
d="M286 513q81 0 149 -0.5t113.5 -1.5t81 -2t55.5 -2t33 -2t18 -1l6 -1q20 0 32 9t12 23q0 13 -12 25q-15 17 -138 17h-91q-38 0 -83.5 0.5t-84 1.5t-71 2.5t-52.5 2.5h-20q-158 0 -158 -26q0 -2 0.5 -4t1.5 -6.5t2 -7.5q5 -17 15.5 -23t37.5 -6q8 0 19 0.5t42.5 1t91.5 0.5
zM249 413q0 -13 40.5 -58t40.5 -58q0 -12 -36 -39t-36 -34q0 -4 -7 -11t-7 -12q0 -10 13.5 -23t28.5 -13q9 0 9 6q0 5 4 8t22.5 15t41.5 30q22 18 26 11q1 -2 2 -3.5l2 -3t1 -2.5q0 -2 5.5 -10t20 -17.5t31.5 -9.5q8 0 13 1t10 9t5 23q0 14 -5 25.5t-12 11.5
q-6 0 -20.5 19.5t-14.5 28.5q0 4 3 4q9 0 42 39.5t33 58.5q0 15 -6 23t-10.5 9t-12.5 1q-11 0 -31 -19t-33.5 -36.5t-15.5 -20.5q-4 -11 -15 -11t-25 16.5t-14 29.5t-16.5 20.5t-16.5 13.5q0 7 -19 7q-21 0 -31 -8.5t-10 -20.5z" />
</svg>
