<?xml version="1.0" standalone="no"?>
<!DOCTYPE svg PUBLIC "-//W3C//DTD SVG 1.1//EN" "http://www.w3.org/Graphics/SVG/1.1/DTD/svg11.dtd" >
<svg xmlns="http://www.w3.org/2000/svg" xmlns:xlink="http://www.w3.org/1999/xlink" version="1.1" viewBox="-10 0 807 1000">
   <path fill="currentColor"
d="M328 525q0 -5 -7.5 -20t-7.5 -21q0 -10 8 -25.5t14 -17.5q9 -3 16 -3q14 0 25 24q13 27 18 14q2 -4 21 -16q15 -9 18.5 -9.5t14.5 5.5q23 14 23 33q0 22 -33.5 40.5t-54.5 18.5q-14 0 -27.5 -4.5t-13.5 -8.5t-7 -4t-7 -6zM576 376q0 6 4 11t4 27q0 74 -23 120.5t-69 77.5
q-34 23 -50.5 29.5t-41.5 6.5q-45 0 -71 -5.5t-39 -12t-19 -7.5q-13 -3 -28.5 -13t-16.5 -17q-2 -6 -6.5 -10t-9.5 -6.5t-10 -11t-7 -22.5q-4 -24 0 -29q3 -4 6.5 -29t6.5 -27l4 -11q3 -11 9 -22t13 -11q4 0 19.5 -21t19.5 -32q4 -9 23.5 -17.5t26.5 -16.5q9 -11 35 -15
t30 -6q21 -9 28 -7q1 0 16 3t35 9t41 16q61 28 61 34t4 6q5 0 5 9zM382 581q52 0 92.5 -38.5t40.5 -101.5q0 -22 -5.5 -32t-21.5 -18q-41 -21 -50.5 -24.5t-27.5 -3.5q-22 0 -35.5 7t-19 14t-8.5 7q-5 0 -5 4q0 3 -11 8.5t-24.5 15t-19.5 19.5q-29 54 -29 83q0 8 11.5 19
t22.5 17.5t13 6.5q3 0 28.5 8.5t48.5 8.5zM276 209q0 1 18.5 25t18.5 35q0 6 -15 19l-16 13l-8 -14q-5 -8 -27.5 -23.5t-22.5 -27.5q0 -8 13.5 -20.5t29.5 -12.5q9 0 9 6zM475 268q0 -22 41.5 -64.5t66.5 -42.5q23 0 23 36q0 9 -13 19t-36.5 25t-37.5 29q-16 14 -25 14
q-6 0 -12.5 -5t-6.5 -11zM415 122q21 0 21 46q0 21 -21 62q-6 11 -16 11t-18 -10t-8 -28q0 -7 3 -13t3 -9q0 -8 1 -18.5t10 -25.5t25 -15zM92 657q0 -1 -2.5 -4.5t-2.5 -9.5q0 -5 3 -15.5t7 -26t7 -62t3 -115.5q0 -14 -0.5 -26.5t-0.5 -22.5t-1 -18.5t-1.5 -14.5t-0.5 -10
t-1 -6v-3q0 -10 3.5 -29.5t3.5 -26.5q0 -5 -1.5 -10t-1.5 -14q0 -6 1 -19t1 -19q0 -3 -3 -20.5t-3 -63.5q0 -54 6 -72.5t6 -19.5q2 -21 7.5 -25.5t26.5 -5.5q28 -2 29 -3t5 0.5t11 4t13 2.5q7 0 21.5 7.5t28.5 7.5q7 0 12 -2t12 -2q15 0 30.5 7t41.5 7q19 0 37 -4.5t32 -4.5
q15 0 41 2.5t34 2.5q15 0 19 -4q5 -5 26 -6t23 -2l48 -7q19 0 34.5 4.5t17.5 4.5q4 0 14 -5.5t26 -8.5q11 -2 14 -1t3 7t7 14.5t7 26.5q0 15 -13.5 69t-15.5 81q0 8 -7 28.5t-9 85.5q-4 136 -4 168q0 31 1.5 36.5t1.5 13.5q0 10 -0.5 26.5t-1.5 30t-1 14.5q0 11 7.5 61
t7.5 86q0 11 -1.5 15t-9 7t-25.5 3q-30 0 -43.5 -3t-20.5 -7t-57 -7.5t-144 -4.5q-54 0 -180.5 -4t-126.5 -12q0 -5 -6 -5q-2 0 -6 -2t-9 -8t-5 -14q0 -13 12.5 -28.5t12.5 -18.5zM177 173l-1 1q0 1 -1 3.5t-2 6t-2 10t-2 14.5t-1.5 20.5t-0.5 26.5q0 33 3 54l3 21l-2 20
q-2 20 -2 34q0 9 2 14.5t3.5 6.5t2 3t-2.5 3q-3 2 -4 23t-2.5 77t-6.5 115q-2 32 -2 37q0 4 10.5 5.5t38 4.5t52.5 8q17 3 46 3q10 0 79 -4t111 -4q38 0 62 4.5t40 4.5h5l22 -1v-19q0 -5 -0.5 -29.5t-1 -67t-0.5 -91.5v-37q0 -9 2 -60.5t7 -122.5t11 -96q9 -34 9 -61
q0 -18 -5.5 -23t-32.5 -5h-6q-7 1 -18 2t-26 2.5t-34.5 2.5t-39.5 2t-44.5 1.5t-47.5 0.5h-6q-7 0 -17.5 -0.5t-23 -0.5h-26.5h-25h-41q-6 0 -21.5 -0.5t-28.5 -1.5h-13q-19 0 -21 2q-3 3 -3 44q0 18 1 28.5t2.5 14t1.5 4.5z" />
</svg>
