<?xml version="1.0" standalone="no"?>
<!DOCTYPE svg PUBLIC "-//W3C//DTD SVG 1.1//EN" "http://www.w3.org/Graphics/SVG/1.1/DTD/svg11.dtd" >
<svg xmlns="http://www.w3.org/2000/svg" xmlns:xlink="http://www.w3.org/1999/xlink" version="1.1" viewBox="-10 0 937 1000">
   <path fill="currentColor"
d="M73 588q0 -2 1 -6t1 -6q0 -3 -5 -13.5t-5 -31.5q0 -32 8.5 -54t16 -28.5t11.5 -6.5q8 0 8 -4q0 -5 57 -26t60 -21q8 0 2 -10q-1 -3 -5 -8q-17 -24 -17 -66q0 -13 1 -25t2.5 -21.5t4 -17.5t4.5 -13.5t3.5 -10t2.5 -6.5l1 -2q0 -9 16 -29t19 -29t12 -13.5t42 -15.5
q61 -20 87 -20q2 0 19 2t37 5t23 6q6 6 11 6q2 0 24.5 14.5t25.5 14.5t31.5 30.5t36.5 42.5q10 15 10 63q0 21 -2.5 37t-5.5 24t-3 10q0 5 71 11q51 5 64.5 8t39.5 18q17 10 27.5 17t12 10t2.5 4t5 1q5 0 5 3q0 16 11 33.5t11 49.5q0 40 -11.5 66t-24.5 33.5t-24.5 12.5
t-11.5 9q0 2 -7 6t-17.5 10.5t-15.5 13.5q-22 25 -131 25q-8 0 -32 -0.5t-39 -0.5q-27 0 -83 3.5t-98 3.5q-57 0 -96 -5t-57 -10.5t-51 -19.5q-30 -13 -33 -13q-6 0 -20 -14t-14 -19t-9 -11.5t-9 -15.5zM533 375q0 -1 12.5 -38t12.5 -54q0 -1 -2.5 -10.5t-6.5 -21.5t-8 -16
q-10 -10 -19 -22t-24 -18t-18 -8q-4 -3 -25.5 -10.5t-41.5 -13.5t-21 -6t-29 4q-104 14 -104 124q0 75 50 75q3 0 7 -0.5t8 -0.5q11 0 23 7t12 22q0 9 -7 22q-8 15 -20 21.5t-42 10.5q-44 7 -69.5 13.5t-31.5 10.5t-12.5 8.5t-15.5 7.5q-2 0 -12 5t-21.5 16.5t-11.5 24.5
q0 22 13.5 43t24.5 24q15 6 42 18q54 24 157 24q7 0 58 -3.5t124 -4.5q99 0 102 -5q1 -2 5 -2t10 1t9 1q20 0 38.5 -8.5t33.5 -20t20 -13.5q13 -6 13 -11q0 -3 14 -17.5t14 -35.5q0 -13 -8 -30.5t-14 -17.5q-7 0 -9 -9q-7 -24 -99 -24.5t-107 -11.5q-10 -7 -17 -22.5
t-7 -27.5z" />
</svg>
