<?xml version="1.0" standalone="no"?>
<!DOCTYPE svg PUBLIC "-//W3C//DTD SVG 1.1//EN" "http://www.w3.org/Graphics/SVG/1.1/DTD/svg11.dtd" >
<svg xmlns="http://www.w3.org/2000/svg" xmlns:xlink="http://www.w3.org/1999/xlink" version="1.1" viewBox="-10 0 806 1000">
   <path fill="currentColor"
d="M247 480q134 0 181 -7t56 -7q157 0 201 7q19 4 25 19t6 29q0 23 -26 26q-14 2 -19 5q-6 4 -18 -5q-13 -8 -86 -8q-81 0 -154 7.5t-184 10.5q-16 0 -35 1t-31.5 2t-15.5 1q-4 0 -15 -3t-24.5 -13t-13.5 -24q0 -29 25 -39q4 -2 50 -2h78zM73 282q0 -4 2 -12.5t10.5 -20
t22.5 -11.5q6 0 29.5 3t71 6t110.5 3q79 0 171 -5.5t157 -5.5q29 0 35 1q13 1 21.5 14t8.5 27q0 12 -7 19.5t-13 9.5l-7 1q-62 2 -114 3.5t-85.5 3t-59.5 2.5t-39.5 2t-22.5 1.5t-12 0.5l-3 1l-47 1h-4q-51 0 -107 -4q-71 -5 -94.5 -12t-23.5 -28z" />
</svg>
