<?xml version="1.0" standalone="no"?>
<!DOCTYPE svg PUBLIC "-//W3C//DTD SVG 1.1//EN" "http://www.w3.org/Graphics/SVG/1.1/DTD/svg11.dtd" >
<svg xmlns="http://www.w3.org/2000/svg" xmlns:xlink="http://www.w3.org/1999/xlink" version="1.1" viewBox="-10 0 860 1000">
   <path fill="currentColor"
d="M75 417q0 -15 3.5 -29t12.5 -30t30.5 -26t52.5 -10q29 0 64.5 4.5t42.5 4.5q30 0 102.5 -8.5t131.5 -8.5q51 0 60 3q5 2 10.5 -0.5t9.5 -2.5q13 0 35.5 6t29.5 12q12 9 32 19q17 8 32.5 25t15.5 27q0 4 7 11t3 11q-2 2 -2 8q0 15 7.5 37.5t7.5 33.5q0 9 2 29.5t2 28.5
q0 35 -13 60.5t-32 25.5q-8 0 -13 5q-3 3 -45 6.5t-68 3.5h-18q-28 0 -96.5 0.5t-100.5 0.5q-119 0 -168.5 -5.5t-74.5 -21.5q-27 -17 -33.5 -30t-11.5 -64q-8 -70 -14 -91q-4 -15 -4 -35zM342 598q23 0 48 -0.5t43 -0.5q120 0 132 5q7 3 14 -0.5t22 -1.5h6q20 0 53.5 -8
t37.5 -14q3 -6 3 -11t-2.5 -13t-2.5 -11q0 -6 6.5 -11t1.5 -11q-4 -4 -8 -18.5t-4 -21.5q0 -10 -6 -34q-7 -28 -20.5 -40.5t-54 -20t-121.5 -7.5q-7 0 -23.5 0.5t-34.5 1.5t-34.5 1.5t-27.5 1.5h-12l-25 -1q-7 0 -37.5 4t-72.5 5q-57 0 -65 4q-10 6 -10 41q0 25 6 59.5
t8 51.5q2 24 19 32t93 16q26 2 68 2zM92 179q0 -27 33 -27q17 0 45 28.5t37 34.5q16 11 16 34q0 24 -17 24q-12 0 -29.5 -21t-44.5 -34q-40 -20 -40 -39zM613 113q0 -2 4.5 -9t14.5 -14.5t21 -7.5q26 0 26 27q0 17 -22.5 41t-52 48.5t-35.5 31.5q-9 11 -18 11q-10 0 -19 -18
l-9 -17l15 -12q14 -12 14 -20q0 -6 5 -9q6 -2 31 -25t25 -27zM409 114q0 3 -1 16t-1 26q0 17 1.5 29t2.5 16.5t2.5 8t1.5 5.5q0 1 -10 27q-3 8 -17 8q-18 0 -26.5 -23t-11.5 -51t-5 -32q-3 -4 1.5 -8.5t2.5 -7.5q-4 -6 -4 -20q0 -41 33 -41q14 0 22.5 13t8.5 34z" />
</svg>
