<?xml version="1.0" standalone="no"?>
<!DOCTYPE svg PUBLIC "-//W3C//DTD SVG 1.1//EN" "http://www.w3.org/Graphics/SVG/1.1/DTD/svg11.dtd" >
<svg xmlns="http://www.w3.org/2000/svg" xmlns:xlink="http://www.w3.org/1999/xlink" version="1.1" viewBox="-10 0 811 1000">
   <path fill="currentColor"
d="M301 112q0 -44 28 -44q14 0 41 23t31 23q5 0 5 4q0 7 29.5 37t39.5 34q11 4 11 12q0 7 6 7t6 13q0 18 -8.5 32.5t-20.5 14.5q-11 0 -49 -39.5t-45 -39.5q-4 0 -4 16q0 6 0.5 13.5t1.5 14.5t1.5 13t1.5 10v4q0 8 -4.5 33t-4.5 36q0 10 4.5 33t4.5 38q0 4 -0.5 8t-0.5 8
q0 6 5.5 44.5t11.5 87.5t8 76q4 53 7 53q9 0 9 18q0 11 -7 42q-5 20 -7.5 27t-9 13t-17.5 6q-21 0 -32 -25q-7 -17 -10.5 -137t-8.5 -130q-3 -6 -8.5 -87t-5.5 -90q0 -19 1.5 -45.5t1.5 -38.5q0 -7 -6 -51t-6 -67zM84 104q0 -13 11 -25t25 -12q13 0 30 18t38 47t34 42
q14 14 17 21t3 24q0 22 -5.5 29t-22.5 7q-28 0 -35 -27q-3 -9 -10 -16t-12 -7q-6 0 -10.5 22.5t-4.5 40.5q0 7 2.5 21t6 50t4.5 94q1 49 6 90.5t9.5 64t4.5 27.5q0 4 -2 6q-4 4 -2.5 15.5t5.5 11.5q5 0 5 77q0 25 -3 32t-18 7q-13 0 -25.5 -6t-16.5 -15q-2 -6 -13 -208.5
t-14 -208.5q-3 -5 2 -8q3 -2 3 -21q0 -15 -1 -40t-3 -50.5t-4 -48.5t-3 -38zM550 108q0 -8 2 -18t9.5 -21t18.5 -11q17 0 32 14t24.5 28t12.5 14q5 0 9 8q3 8 20.5 24t29.5 21q11 5 16 18t9 15q6 2 6 14t-5 15q-10 5 -32 5q-12 0 -26 -14q-10 -11 -28 -23.5t-23 -12.5
q-2 0 -2 57q0 129 11 271q1 13 4.5 35t8 44t8.5 42.5t7 33.5l3 13q0 3 4 7.5t4 12.5q0 33 -39 33q-14 0 -23 -6q-7 -5 -12.5 -25.5t-5.5 -39.5q0 -7 1 -11q3 -20 -5 -33q-9 -16 -17 -151t-8 -171q0 -7 0.5 -25t0.5 -23q0 -34 -7.5 -75t-7.5 -65z" />
</svg>
