<?xml version="1.0" standalone="no"?>
<!DOCTYPE svg PUBLIC "-//W3C//DTD SVG 1.1//EN" "http://www.w3.org/Graphics/SVG/1.1/DTD/svg11.dtd" >
<svg xmlns="http://www.w3.org/2000/svg" xmlns:xlink="http://www.w3.org/1999/xlink" version="1.1" viewBox="-10 0 663 1000">
   <path fill="currentColor"
d="M308 774q-27 0 -52 -25.5t-25 -48.5q0 -10 10.5 -26t20.5 -21q4 -2 12 -14.5t19.5 -22t26.5 -9.5q6 0 18.5 3.5t30 22t17.5 48.5q0 26 -7.5 44.5t-17 27.5t-22.5 14t-19.5 6t-11.5 1zM60 172q0 -34 31 -34q15 0 22.5 7t16.5 30q50 119 50 140q0 6 11.5 30.5t11.5 31.5
q0 10 6 30.5t9 20.5q4 0 4 8q0 6 9 15.5t15 9.5q3 0 2 3t-2 5.5t-2 10t-1 15.5q-1 21 -8.5 28.5t-27.5 7.5q-13 0 -18 -2.5t-13 -13.5t-8 -25q0 -10 -2.5 -24t-6.5 -27.5t-8 -25t-7 -19.5l-2 -7q0 -3 -7 -20t-8 -29q0 -11 -6.5 -24.5t-6.5 -26.5q0 -18 -4 -18t-11.5 -14
t-7.5 -20q0 -3 -15.5 -25t-15.5 -38zM366 486q0 -3 12.5 -27.5t12.5 -29.5q0 -7 21 -37.5t26 -43.5q4 -10 13.5 -31t16.5 -37.5t7 -19.5q0 -5 5 -5q6 0 14.5 -22.5t9.5 -39.5q2 -21 10 -29q6 -6 13 -18q3 -6 12 -11.5t17 -8.5l7 -2q4 -1 17.5 10t13.5 14q-5 4 -8 26
q-2 18 -14 35.5t-17 32.5q-5 20 -19 40q-11 16 -27 49.5t-28 59.5t-15 28q-13 9 -13 47q0 2 0.5 4.5t0.5 3.5q2 18 -6 26q-16 14 -48 14q-15 0 -24.5 -10t-9.5 -18zM277 102q0 -14 9 -22.5t18 -9.5l9 -2q8 0 11 7q4 9 10 17q7 8 8 45.5t4 41.5q3 6 -1 9q-16 10 -16 149v32
q0 85 6 90q5 3 5 10q0 4 -2 14t-11 23.5t-24 13.5q-17 0 -27.5 -8.5t-12 -14.5t-1.5 -9q0 -1 3 -11t3 -30q0 -17 3 -57.5t3 -55.5q0 -16 -2 -22t-2 -18q0 -43 7.5 -69.5t7.5 -37.5q0 -15 -4 -44.5t-4 -40.5z" />
</svg>
