<?xml version="1.0" standalone="no"?>
<!DOCTYPE svg PUBLIC "-//W3C//DTD SVG 1.1//EN" "http://www.w3.org/Graphics/SVG/1.1/DTD/svg11.dtd" >
<svg xmlns="http://www.w3.org/2000/svg" xmlns:xlink="http://www.w3.org/1999/xlink" version="1.1" viewBox="-10 0 862 1000">
   <path fill="currentColor"
d="M87 339v-11q0 -59 14 -59q5 0 10.5 -9t17.5 -5q9 3 114 9.5t119 6.5q11 0 105 -9t110 -12t46.5 -5t53.5 -3t25 -3t8 -2q22 0 33 13q8 8 8 60q0 18 -0.5 47.5t-1 52.5t-0.5 24q0 19 4.5 38.5t9 32.5t4.5 14l-1 1v2q0 3 4.5 19t4.5 23q0 10 -6 16t-14 6q-7 0 -18 -8
t-23 -11q-11 -2 -13.5 -7t-4.5 -28q-4 -38 -5.5 -93.5t-3.5 -87t-6 -36.5q-9 -11 -39 -11q-17 0 -39 5l-29 8l2 24q0 4 15 77t15 114q0 26 -8.5 36t-30.5 10q-26 0 -30.5 -9.5t-4.5 -66.5q0 -54 -6.5 -90.5t-12.5 -53.5t-6 -24q0 -10 -3.5 -12t-23.5 -2q-18 0 -55.5 5
t-66.5 6q-41 1 -48.5 12t-7.5 74q0 37 3.5 48t3.5 33q0 38 -5.5 47.5t-25.5 9.5q-16 0 -22 -5.5t-11 -34t-8 -94.5q-4 -85 -16 -87q-16 -4 -39 -4q-25 0 -29 4q-8 8 -8 114q0 31 8.5 48t8.5 47q0 22 -7.5 31t-27.5 9q-17 0 -24 -6t-7 -22q0 -5 0.5 -13t0.5 -17q0 -13 -5 -69
t-5 -117z" />
</svg>
