<?xml version="1.0" standalone="no"?>
<!DOCTYPE svg PUBLIC "-//W3C//DTD SVG 1.1//EN" "http://www.w3.org/Graphics/SVG/1.1/DTD/svg11.dtd" >
<svg xmlns="http://www.w3.org/2000/svg" xmlns:xlink="http://www.w3.org/1999/xlink" version="1.1" viewBox="-10 0 732 1000">
   <path fill="currentColor"
d="M320 700q0 -2 5.5 -10t17.5 -17t25 -9q15 0 25 6.5t15 6.5q6 0 16.5 11t10.5 27q0 65 -43 65q-14 0 -32 -7t-18 -12q0 -2 -14.5 -17.5t-14.5 -26.5q0 -6 3.5 -8t3.5 -9zM84 149q0 -9 32.5 -45t32.5 -38q0 -4 9 -4t22 -8q17 -10 60 -15t47 -9q4 -3 29 -10.5t35 -7.5
q8 0 27.5 5t31.5 5q8 0 19 -2t17 -2q9 0 32.5 10.5t38.5 14.5q19 5 34 14.5t15 16.5t7 7q2 0 13.5 8t29.5 29.5t28 48.5t10 37q0 5 -3.5 22t-3.5 31q0 2 0.5 5t0.5 4q4 17 -1 17q-2 0 -5.5 7t-12 21.5t-20.5 27.5q-35 39 -42 50q-12 16 -18 16q-5 0 -29 12t-45.5 24
t-22.5 13t-23.5 19.5t-24.5 30.5q-2 13 -7 13q-4 0 -4 16q0 37 -46 37q-26 0 -26 -25q0 -6 4.5 -25.5t20 -51t38.5 -49.5q24 -19 30 -19q4 0 11.5 -9.5t14.5 -9.5q5 0 11.5 -5t21.5 -9q19 -6 19 -11q0 -6 17 -17q27 -17 49.5 -49t22.5 -64q0 -36 -23.5 -65t-47 -44
t-23.5 -16q0 -3 -8 -4t-18 -2t-14 -4q-10 -8 -86 -8q-62 0 -105.5 15.5t-50.5 15.5q-6 0 -16 8.5t-23.5 22t-20.5 18.5q-21 18 -21 53q0 21 7.5 48.5t7.5 30.5q0 7 -8 14t-17 7q-15 0 -30 -16q-11 -12 -13.5 -21t-2.5 -42q0 -31 2.5 -49t5.5 -21t5.5 -7t2.5 -11z" />
</svg>
