<?xml version="1.0" standalone="no"?>
<!DOCTYPE svg PUBLIC "-//W3C//DTD SVG 1.1//EN" "http://www.w3.org/Graphics/SVG/1.1/DTD/svg11.dtd" >
<svg xmlns="http://www.w3.org/2000/svg" xmlns:xlink="http://www.w3.org/1999/xlink" version="1.1" viewBox="-10 0 879 1000">
   <path fill="currentColor"
d="M525 260q0 -23 10.5 -30t30.5 -7q14 0 17 13t3 72q0 35 -1.5 54.5t-3 23.5l-3 8t-1.5 11q-6 105 -12 107q-2 1 -1.5 5t1 6.5t-2.5 3.5q-6 0 -12 68q-1 9 -18.5 40t-25.5 36q-6 4 -21 16q-10 8 -30 8q-67 0 -106 -56l-8 -12l-12 14q-12 14 -12 22q0 13 -25 24t-49 11
q-20 0 -20 -6q0 -4 -16 -15l-16 -11l-16 12q-17 13 -31 13q-5 0 -17 -2.5t-21 -3.5q-15 -2 -24 -11t-12.5 -17t-4.5 -8h-2q-6 0 -6 -6q0 -8 9 -19t17 -11q1 0 4.5 1.5t11 3.5t19.5 2q18 0 23 -2t12 -14q9 -14 9 -24q0 -3 2.5 -10.5t12.5 -17.5t26 -10q29 0 29 41
q0 1 -0.5 3.5t-0.5 3.5t-0.5 3t-0.5 3q0 11 7 18.5t14 9.5l7 1q9 0 17.5 -14t12 -28t2.5 -14q-3 0 3 -4q4 -3 10 -38t6 -59q0 -14 8.5 -25.5t15.5 -11.5q5 0 8.5 5t3.5 9q0 7 5 7t5 -5q0 -9 10 -4q4 3 6 8q1 2 1 20q0 15 -0.5 28.5t-1 23.5t-1 18t-1 13t-1 8.5t-1.5 5.5v2
q0 3 25 35q6 7 21.5 12t25.5 6t13 1q12 0 23.5 -10.5t13.5 -22.5q2 -10 6 -19.5t5 -20.5q0 -2 7.5 -30t14.5 -74.5t7 -94.5q0 -46 -5 -46q-3 0 -3 -1l1 -3q1 -3 2.5 -9t1.5 -14v-19zM738 61q32 0 32 49v10q-1 11 -1.5 27.5t-0.5 35.5t-0.5 38.5t-0.5 32.5q1 27 1 33
q0 48 -2.5 83t-2.5 43v93q0 33 7 93t7 70q0 18 9 20q9 3 6 11q-3 6 -4 23.5t-5.5 29t-16.5 11.5q-8 0 -20 -6t-16 -11.5t-6 -20.5q-14 -88 -14 -204q0 -20 2 -110.5t5 -94.5q2 -4 -1 -19t-1 -17q1 -1 1 -26q0 -27 -0.5 -50t-2 -38.5t-2.5 -28t-2.5 -20t-3 -12.5t-1.5 -8
l-1 -2q0 -13 11 -24t24 -11z" />
</svg>
