<?xml version="1.0" standalone="no"?>
<!DOCTYPE svg PUBLIC "-//W3C//DTD SVG 1.1//EN" "http://www.w3.org/Graphics/SVG/1.1/DTD/svg11.dtd" >
<svg xmlns="http://www.w3.org/2000/svg" xmlns:xlink="http://www.w3.org/1999/xlink" version="1.1" viewBox="-10 0 829 1000">
   <path fill="currentColor"
d="M728 569q0 100 -37 100q-16 0 -30.5 -15.5t-14.5 -33.5q0 -14 10 -25q7 -8 7 -44v-13q0 -113 -19 -114h-8q-7 -1 -18 -2.5t-23.5 -2.5t-26 -1.5t-22.5 -0.5q-7 0 -54 6t-139 6q-13 0 -49 -1.5t-77 -3.5t-46 -2l-23 -1l-6 42q-4 24 -4 43q0 14 3 36.5t3 32.5q0 16 -5 32
q-7 24 -12.5 32t-16.5 8q-10 0 -23 -3.5t-14 -7.5l-1 -2v-4q0 -15 5 -41.5t8 -26.5t2 -7q-1 -6 -1.5 -11t-1 -18t-0.5 -28v-5v-12.5t0.5 -16t0.5 -17v-14.5v-38q0 -22 7 -39q1 -1 2 -4q10 -11 19 -12q13 0 83 10.5t100 10.5q8 0 22 -1.5t23 -1.5q4 0 7.5 0.5t10 1t12.5 0.5
q23 2 23 -3q0 -4 7 1q5 5 42 6t83.5 2t67.5 6q16 4 26 4q6 0 12.5 -3t8.5 -4t6 4q5 5 6.5 2.5t8 -8.5t15.5 -6t21.5 6.5t12.5 16.5q0 1 -0.5 3.5t-0.5 4.5q0 5 4 13t4 12q0 1 -2.5 9.5t-2.5 29.5q0 42 -2 45q-1 2 -1 5q0 1 4 20.5t4 42.5zM459 276q0 23 -24 33t-54 10
q-13 0 -24 -6t-19 -7q-14 -2 -14 -23q0 -2 1 -11t4.5 -25.5t9 -31t16 -25t23.5 -10.5q23 0 52 31.5t29 64.5z" />
</svg>
