<?xml version="1.0" standalone="no"?>
<!DOCTYPE svg PUBLIC "-//W3C//DTD SVG 1.1//EN" "http://www.w3.org/Graphics/SVG/1.1/DTD/svg11.dtd" >
<svg xmlns="http://www.w3.org/2000/svg" xmlns:xlink="http://www.w3.org/1999/xlink" version="1.1" viewBox="-10 0 847 1000">
   <path fill="currentColor"
d="M443 495l1 14t3 35t4 43.5t3 43.5t1 32q0 23 3 23q9 0 -2 21q-6 10 -34 11l-29 1l-7 -18q-5 -11 -5 -27q0 -6 3.5 -37t3.5 -47q0 -14 -4 -20.5t-4 -12.5v-28l1 -39q0 -12 -0.5 -28t-0.5 -18q0 -23 3 -41t3 -39v-8q-1 -7 -1.5 -18t-0.5 -23t-0.5 -23.5t-0.5 -17.5
q0 -52 -2 -62q-2 -12 -1 -16.5t3 -9t2 -6.5q0 -10 -65 -10q-49 0 -160 5q-7 0 -8.5 3t-1.5 15v3q1 3 1.5 9t1.5 15t2 23.5t2 32t2 42.5t1 54q0 6 4 16.5t4 37.5v14q0 68 4 119.5t8.5 75.5t4.5 26q0 34 -32 34q-13 0 -32.5 -17t-19.5 -28q0 -1 2 -5t3 -12q4 -52 4 -64
q0 -2 -2.5 -9t-1.5 -25q0 -6 0.5 -12.5t1 -10t0.5 -7.5q0 -11 -7 -122t-10 -115q-1 -2 -1.5 -21t-2 -44t-5.5 -38q-3 -11 -3 -19q0 -17 16 -40.5t31 -23.5q10 0 18 9q6 7 28.5 9t114.5 2q362 0 396 -11q27 -9 35 -9q12 0 23.5 15.5t11.5 28.5q0 11 -10.5 30.5t-10.5 25.5
l-2 30q-1 31 -2.5 63t-1.5 36q0 55 12 208t12 155q0 12 -1.5 17t-3.5 5.5t-7 0.5q-37 0 -50 -11q-4 -3 -9 -31.5t-5 -43.5q0 -17 -4 -27l-4 -9q0 -4 5.5 -13t5.5 -12q0 -2 -1.5 -4.5t-3.5 -9.5t-2 -18q0 -9 1.5 -27t1.5 -25q0 -8 -1.5 -11t-1.5 -9v-35q0 -20 -4 -35l-3 -16
v-1q4 -8 4 -57q0 -120 -6 -125q-6 -3 -2 -10q0 -1 0.5 -1t0.5 -1q0 -3 -12 -3q-7 0 -68.5 3.5t-95.5 4.5q-19 0 -22 1.5t-1 10.5q1 3 1 8l-1 4q-1 3 -2 10t-2.5 16.5t-3 24t-2.5 31.5t-2 39.5t-1 47.5q0 37 2 37t2 11q0 18 -4.5 48.5t-4.5 35.5z" />
</svg>
