<?xml version="1.0" standalone="no"?>
<!DOCTYPE svg PUBLIC "-//W3C//DTD SVG 1.1//EN" "http://www.w3.org/Graphics/SVG/1.1/DTD/svg11.dtd" >
<svg xmlns="http://www.w3.org/2000/svg" xmlns:xlink="http://www.w3.org/1999/xlink" version="1.1" viewBox="-10 0 887 1000">
   <path fill="currentColor"
d="M379 283q4 0 20 -8t28 -8q8 0 21.5 3t31.5 9t35 17.5t32 26.5t24.5 37.5t9.5 48.5q0 20 -8 45.5t-15 25.5q-2 0 -11 16t-12 16q-2 0 -9 12t-13 12q-4 0 -12 8t-24 15.5t-40 7.5q-21 0 -41 -8.5t-27 -8.5q-18 0 -52 -21.5t-39 -43.5q-1 -6 -7 -18.5t-11 -28.5t-5 -35
q0 -22 8 -22q4 0 4 -12q0 -10 12 -27t19 -17q2 0 6.5 -1.5t9 -4t9 -5.5t7 -5.5t2.5 -3.5q0 -3 20.5 -12.5t26.5 -9.5zM426 325q-13 0 -19.5 2.5t-14.5 11.5q-14 14 -22 14q-5 0 -9 3.5t-11.5 11t-16.5 13.5q-10 8 -12 12t0 16q5 24 20.5 44t32.5 25q6 1 23.5 11.5t36.5 10.5
q31 0 59 -30t28 -66q0 -19 -14.5 -37.5t-37 -30t-43.5 -11.5zM471 726q-1 0 -16 4t-42 4q-26 0 -68.5 -7.5t-56.5 -7.5q-10 0 -21 -6.5t-69 -46.5q-14 -9 -23 -18t-11.5 -13.5t-5.5 -7t-8 -2.5q-10 0 -10 -5t-6.5 -11.5t-11.5 -6.5t-5 -14q0 -10 -5 -17t-5 -17q0 -13 -3 -13
q-4 0 -9.5 -12t-3.5 -16q2 -2 -4 -12t-2 -15q5 -5 1 -11q-3 -4 -3 -75q0 -105 18 -127q4 -5 11 -26t12 -23t14 -16t14 -14t19.5 -16.5t21.5 -16.5t25.5 -14t23.5 -14q6 0 22 -15.5t29 -15.5q8 0 19.5 -2t20.5 -5.5t11 -6.5q4 -5 27.5 -14.5t24.5 -11.5q1 -1 6 -1
q11 0 66.5 8.5t83.5 10.5q21 2 49.5 14t33.5 13q7 2 34 26.5t51.5 50.5t24.5 31q0 6 7 17.5t16 29.5t12 39q6 45 14.5 66.5t8.5 30.5t-2 17t-4.5 13t-2.5 8t1.5 5t1.5 7q0 19 -22 64t-45 71q-21 25 -26 34q-6 10 -21 18.5t-18 11.5t-11 7.5t-15.5 8t-14 7.5t-6.5 6
q0 5 -58.5 25t-58.5 24q0 2 -6 2q-3 0 -11.5 -0.5t-12.5 -0.5zM154 520q0 6 14 25.5t14 24.5q0 4 5 7t17 11.5t23 22.5q18 23 35 28q15 5 33 15q12 7 34.5 8.5t92.5 1.5q62 0 79 -8q7 -4 35.5 -14.5t55 -23.5t45.5 -30q14 -12 28.5 -26.5l22.5 -22.5l8 -8q3 -1 8 -9.5t9 -18
t4 -14.5q0 -9 4 -9t7.5 -8.5t5.5 -20t2 -21.5q0 -12 -5 -18.5t1 -15.5q5 -14 0 -30q-4 -11 -8 -39q-4 -30 -19.5 -56.5t-36 -49t-24.5 -30.5q-4 -7 -15 -13t-11 -9t-11 -10t-47 -16.5t-87 -12.5q-8 0 -16.5 -0.5t-15 -1t-12 -1t-10 -1t-7.5 -1t-5 -0.5h-2q-8 0 -13 4
t-7.5 9.5t-12.5 10.5t-26 6q-24 2 -35 6q-19 8 -27 10q-9 3 -27 14t-35 23.5t-30.5 22.5t-13.5 11t-16 19t-18 29q-16 83 -16 116q0 22 8.5 45.5t8.5 37.5t4.5 20.5t4.5 10.5z" />
</svg>
