<?xml version="1.0" standalone="no"?>
<!DOCTYPE svg PUBLIC "-//W3C//DTD SVG 1.1//EN" "http://www.w3.org/Graphics/SVG/1.1/DTD/svg11.dtd" >
<svg xmlns="http://www.w3.org/2000/svg" xmlns:xlink="http://www.w3.org/1999/xlink" version="1.1" viewBox="-10 0 826 1000">
   <path fill="currentColor"
d="M319 376q3 0 19 -8.5t32 -8.5q19 0 37.5 4t31 9t37.5 17q12 6 47 40q21 22 28.5 33t14.5 33q10 32 18 42q6 7 2 31l-4 22l-22 1q-2 0 -5 0.5t-4 0.5q-17 0 -24.5 -10t-8.5 -24t-9.5 -34t-24.5 -35q-19 -17 -23 -25q-2 -5 -21.5 -12t-21.5 -10q-3 -4 -12 -8.5t-20.5 -7.5
t-19.5 -3q-29 0 -71 44q-11 11 -19.5 34t-8.5 41q0 6 1 8q3 11 -8 24t-25 13q-12 0 -22.5 -8.5t-10.5 -17.5v-1.5v-1t0.5 -2t1 -3.5t1 -5.5t1.5 -7.5t2.5 -10.5t3 -14.5t3.5 -18.5t5 -22.5q5 -27 21 -44q13 -14 42 -34t36 -20zM85 568q0 -12 1.5 -35t1.5 -36q0 -10 -1 -16.5
t-2 -8.5t-1 -3.5t3 -4.5q3 -4 5.5 -18t4 -28t4.5 -25.5t6 -11.5q2 0 5.5 -7.5t11 -20.5t17.5 -23q14 -14 44 -46q18 -21 39 -34.5t34 -13.5q6 0 14 -9.5t15 -9.5q2 0 47 -13t73 -13q3 0 32.5 3.5t63.5 9.5t39 12q5 7 24 15q8 3 18 11t20 18t19.5 21t18 22t15 19.5t10.5 14
l4 5.5q20 19 37 53.5t17 57.5q0 11 8.5 41.5t8.5 44.5q0 9 -8 18.5t-15.5 15t-9.5 5.5q-4 0 -23 -17l-18 -16l1 -37v-9q0 -27 -7.5 -44t-8.5 -22q-3 -12 -32 -52.5t-70.5 -80t-68.5 -39.5q-2 0 -4 0.5t-6 0.5q-11 0 -35.5 -3.5t-41.5 -3.5q-60 0 -116 29q-35 18 -54.5 37
t-40.5 55q-21 38 -21 57q0 18 -8 28q-7 7 -7 48v9q0 39 -2 47q-2 7 -17 12.5t-28 5.5q-8 0 -11.5 -2t-4 -4.5t-0.5 -8.5z" />
</svg>
