<?xml version="1.0" standalone="no"?>
<!DOCTYPE svg PUBLIC "-//W3C//DTD SVG 1.1//EN" "http://www.w3.org/Graphics/SVG/1.1/DTD/svg11.dtd" >
<svg xmlns="http://www.w3.org/2000/svg" xmlns:xlink="http://www.w3.org/1999/xlink" version="1.1" viewBox="-10 0 843 1000">
   <path fill="currentColor"
d="M766 569q0 16 -6.5 24.5t-12 9.5t-16.5 1l-39 -1q-40 -1 -83.5 -2.5t-54.5 -1.5h-48l-7 -16q-6 -14 -6 -15q0 -6 9 -22l11 -20l68 3q93 3 103 3l37 -1q29 0 29 7q0 5 8 11.5t8 19.5zM64 563q0 -36 36 -36q34 0 65.5 5t66.5 6q90 1 90 39q0 19 -12.5 25.5t-45.5 6.5
q-7 0 -123 -5q-23 -1 -33 -2t-22.5 -5t-17 -12t-4.5 -22zM381 490q0 -5 2 -26.5t2 -48.5q0 -39 -3 -45.5t-3 -31.5v-26q0 -14 8.5 -27.5t21.5 -13.5q4 0 11.5 1.5t18 12.5t10.5 30q0 4 -2.5 13.5t-2.5 35.5q0 9 1 35.5t1 45.5q0 44 -6.5 62t-21.5 18q-37 0 -37 -35z" />
</svg>
