<?xml version="1.0" standalone="no"?>
<!DOCTYPE svg PUBLIC "-//W3C//DTD SVG 1.1//EN" "http://www.w3.org/Graphics/SVG/1.1/DTD/svg11.dtd" >
<svg xmlns="http://www.w3.org/2000/svg" xmlns:xlink="http://www.w3.org/1999/xlink" version="1.1" viewBox="-10 0 566 1000">
   <path fill="currentColor"
d="M138 77q0 4 7 5t14.5 12t7.5 38q0 18 -4 35t-4 69q0 116 7 125q6 4 1 12.5t-3 16.5q1 3 1 7q0 1 -3.5 17t-3.5 39q1 31 8 29q0 -7 22.5 -18t47.5 -21.5t29 -13.5q5 -5 30 -5q27 0 47.5 6t31.5 11.5t14 5.5q5 0 10 8t11 10q12 5 27.5 15.5t15.5 13.5q0 4 5.5 9.5
l11.5 11.5t11.5 25t5.5 47q0 56 -23 79q-7 7 -23 29q-11 17 -21 28t-40 25t-70 14q-33 0 -54 -10t-26 -10q-8 0 -35 -25.5t-31 -25.5q-6 0 -6 -9q0 -6 -12 -19t-12 -17t-2 -7.5t-5.5 -7.5t-9 -15t-11.5 -26q-4 -12 -10 -45t-6 -45l1 -2q0 -3 0.5 -7.5t1 -11t1 -17.5t0.5 -24
q0 -30 -2 -31q-2 -2 -2 -3t4 -13t4 -24q0 -5 -2.5 -8.5t-0.5 -8.5q6 -16 6 -143v-28t-0.5 -24t-1 -18t-0.5 -13v-4q0 -38 21 -44q19 -6 19 1zM414 569q0 -8 -27 -35.5t-36 -30.5q-13 -6 -41 -6q-47 0 -67 17q-10 8 -25 18q-12 8 -18 21.5t-11 18.5q-7 7 -7 16q0 13 16.5 28
t21.5 26q8 16 14 16q7 0 7 6q0 9 21.5 15.5t50.5 6.5q48 0 54 -7q3 -5 17 -12q10 -5 16 -14t19 -39q7 -16 7.5 -20t-4.5 -11q-8 -10 -8 -14z" />
</svg>
