<?xml version="1.0" standalone="no"?>
<!DOCTYPE svg PUBLIC "-//W3C//DTD SVG 1.1//EN" "http://www.w3.org/Graphics/SVG/1.1/DTD/svg11.dtd" >
<svg xmlns="http://www.w3.org/2000/svg" xmlns:xlink="http://www.w3.org/1999/xlink" version="1.1" viewBox="-10 0 508 1000">
   <path fill="currentColor"
d="M178 484h2q1 0 3 -3t11 -11t26 -16q31 -16 31 -17q6 -10 21 -10q35 0 60 21q27 23 57 54.5t30 36.5q0 4 2.5 8.5t5.5 19.5t3 44q0 40 -17 58q-4 4 -16 23t-33 34l-27 19h-55q-54 0 -60 -6t-22 -6q-15 0 -15 -4q0 -1 -37.5 -43t-37.5 -58q0 -4 -8 -22t-16.5 -56t-8.5 -90
q0 -64 15.5 -106t15.5 -45q3 -23 17 -49.5t16 -38.5q2 -14 9 -25.5t12 -27.5q6 -21 21 -37.5t31 -16.5q19 0 29 24q6 13 5.5 17t-7.5 9q-8 5 -8.5 14t-7.5 13q-14 8 -14 15.5t-2 8.5q-3 3 -2.5 7.5t0.5 9t-3 4.5q-5 0 -5 9q0 6 -9.5 16.5t-9.5 14.5t-6 12.5t-7 13.5
q-2 17 -10 43t-14 32q-6 5 -6 57q0 22 5 29q6 7 1 7q-4 0 -4 18t6 18q4 0 16 -11t17 -11zM270 676q16 0 26.5 -0.5t29.5 -5t30.5 -12.5t20.5 -25t9 -41q0 -12 -7 -17.5t-7 -12.5q0 -8 -12.5 -24t-18.5 -16q-2 0 -9 -5.5t-19.5 -11t-27.5 -5.5q-10 0 -28.5 9t-31.5 25
q-10 13 -24 27q-11 11 -11 21q0 7 -9 15.5t-9 11.5q0 7 14 28q25 39 84 39z" />
</svg>
