<?xml version="1.0" standalone="no"?>
<!DOCTYPE svg PUBLIC "-//W3C//DTD SVG 1.1//EN" "http://www.w3.org/Graphics/SVG/1.1/DTD/svg11.dtd" >
<svg xmlns="http://www.w3.org/2000/svg" xmlns:xlink="http://www.w3.org/1999/xlink" version="1.1" viewBox="-10 0 666 1000">
   <path fill="currentColor"
d="M510 354q33 0 55.5 27t22.5 51q0 23 -17 40t-26 17q-11 0 -29 -8t-27 -17q-12 -11 -21.5 -29.5t-9.5 -29.5q0 -9 7.5 -23.5t17.5 -22.5l3 -1q4 -2 10.5 -3t13.5 -1zM360 247q0 18 -3.5 26t-7.5 14.5t-7.5 55t-3.5 138.5q0 26 0.5 51.5t1 46.5t1.5 39.5t1.5 33t1 24.5
t0.5 16l1 6q0 27 -12 34.5t-54 7.5q-28 0 -58.5 -7.5t-41.5 -7.5l-3 1q-2 0 -6.5 0.5t-10.5 1t-15.5 1t-19.5 0.5q-41 0 -52 -9q-14 -11 -14 -20q0 -5 6.5 -13t6.5 -15t12.5 -12.5t16.5 -9.5q3 -4 4 -4l4 2q3 3 12.5 5.5t24.5 2.5q9 0 17 -2t11 -2t22 5.5t51 8.5l37 3
l-3 -54q-4 -62 -4 -80q0 -19 4.5 -47t4.5 -38t-4.5 -31t-4.5 -35q0 -1 6 -40t11.5 -87t5.5 -71q0 -16 -3 -18l-96 -6q-95 -5 -109 -24q-5 -6 -5 -22t6 -20t22 -4q20 0 61 5t70 5q36 0 68.5 -5t36.5 -5q7 0 13 3t8.5 6t1.5 4q-1 3 5.5 9.5t2.5 10.5q-3 4 -6 26.5t-5 25.5
q-10 16 -10 70z" />
</svg>
