<?xml version="1.0" standalone="no"?>
<!DOCTYPE svg PUBLIC "-//W3C//DTD SVG 1.1//EN" "http://www.w3.org/Graphics/SVG/1.1/DTD/svg11.dtd" >
<svg xmlns="http://www.w3.org/2000/svg" xmlns:xlink="http://www.w3.org/1999/xlink" version="1.1" viewBox="-10 0 686 1000">
   <path fill="currentColor"
d="M144 530q-4 0 -11.5 2t-16.5 2q-21 0 -39 -13l-16 -12l9 -19q7 -16 22.5 -26t27.5 -13.5t12 -6.5q0 -2 -9 -31t-9 -34q0 -7 -4 -7q-8 0 -8 -62q0 -94 65 -151q19 -18 33.5 -26t43.5 -20q38 -14 71.5 -20t35.5 -7q32 -8 47 -8q30 0 59 10t43 26q8 9 18 9q11 0 21.5 15
t21.5 36t17 28q18 20 4 20l-3 2q9 10 9 27q0 12 4.5 28.5t4.5 41.5q0 79 -16 97q-6 6 -6.5 13.5t1 11t-2.5 4.5q-4 0 -4 8q0 6 -21 33.5t-21 29.5q0 3 -17.5 22.5t-17.5 26.5q0 2 2 9.5t2 15.5q0 26 -12.5 48t-24.5 31.5t-16 9.5q-5 0 -21.5 8.5t-16.5 10.5q0 6 -46 6
q-12 0 -21.5 -0.5t-15.5 -1.5t-10 -2t-6 -2t-3 -2l-1.5 -1.5t-1.5 -0.5t-3 1q-1 1 -2 1t-2 -0.5t-1.5 -1t-2 -1.5t-3.5 -2t-5 -2t-7 -2q-11 -2 -27 -14t-16 -19q0 -3 -16.5 -21t-16.5 -35q0 -13 10 -33l9 -17q-49 -20 -73 -20zM334 461q22 0 41.5 4t33 9.5t24 10.5t16 9
t6.5 4q4 0 12 -9.5t8 -13.5q0 -5 8 -5q7 0 14 -7t4 -11l-1 -2q0 -1 3.5 -2.5t9 -7.5t10.5 -19q10 -27 14 -33q6 -9 6 -52q0 -82 -35 -138q-15 -24 -50.5 -38t-52.5 -15.5t-28 -1.5q-2 0 -28 5.5t-57.5 14.5t-40.5 15q-35 23 -49 35t-25 34t-11 55q0 27 5 47t9.5 30t4.5 13
t22 36q2 3 6 -6q4 -8 4 -15q0 -12 9 -30.5t15 -18.5t24.5 14.5t18.5 25.5q0 1 -3 19.5t-3 36.5q0 21 4 21l14 -7q13 -7 38 -7zM302 634q4 0 10.5 6t26.5 6q21 0 41 -8.5t27 -9.5q11 -2 18 -12t9 -18l1 -9q0 -7 -12.5 -22.5t-12.5 -19.5t-12 -12t-24 -8q-5 0 -20 3t-25 3
q-8 0 -12 -1h-6q-19 0 -30 23t-15 25q-5 2 -5 7q0 12 16 29.5t25 17.5z" />
</svg>
