<?xml version="1.0" standalone="no"?>
<!DOCTYPE svg PUBLIC "-//W3C//DTD SVG 1.1//EN" "http://www.w3.org/Graphics/SVG/1.1/DTD/svg11.dtd" >
<svg xmlns="http://www.w3.org/2000/svg" xmlns:xlink="http://www.w3.org/1999/xlink" version="1.1" viewBox="-10 0 937 1000">
   <path fill="currentColor"
d="M615 441q5 0 9 -1.5t6 -3.5l2 -2q0 -1 -4.5 -3t-13.5 -8.5t-17 -18.5q-16 -23 -21 -26q-12 -9 -12 -37q0 -20 22 -32t38 -14.5t23 -2.5q41 0 41 36q0 26 -31 26h-5q-2 -1 -6 -1t-4 3q0 7 15 17t30.5 27t15.5 41q0 31 -11.5 41.5t-42.5 17.5q-17 4 -35 4
q-24 0 -48.5 -12.5t-24.5 -28.5q0 -11 9 -22t17 -11q7 0 23.5 5.5t24.5 5.5zM68 419q0 -11 8.5 -26t27.5 -15q8 0 25 4t24 4q3 0 15 -4t27 -2q20 2 40 2h16q20 0 31 6t23 6q16 0 36 -4.5t46 -4.5h23q23 0 28.5 -6.5t9.5 -36.5q3 -22 14 -46t11 -31q0 -10 5 -10q3 0 8 -11
t24 -14q16 -3 32 -16.5t26 -13.5q2 0 10 1t24 2t36 2q67 3 79 13l8 4q8 5 20 13t25.5 18t27.5 22.5t24 24.5q31 39 31 110q0 29 -9.5 51t-9.5 25l-1 8l-2 -2q-2 6 -3 12q0 7 -25 29t-31 22q-17 0 -77 32q-26 14 -109 14q-22 0 -48 -13q-27 -14 -36 -20.5t-12 -16.5
q-3 -8 -12 -15.5t-9 -11.5q0 -3 -7 -8.5t-9 -17.5q-4 -15 -13 -30l-10 -14l-78 -1q-12 0 -34 -0.5t-45.5 -1.5t-45 -2t-35.5 -1l-15 -1q-6 0 -21 0.5t-28 0.5l-12 1q-48 0 -48 -30zM794 389q0 -17 -10.5 -31t-10.5 -16q0 -4 -19.5 -24.5t-23.5 -20.5l-4 -3q-3 -2 -9 -5.5
t-14.5 -8t-19.5 -9t-23.5 -8t-27 -6t-29.5 -2.5q-14 0 -20 3.5t-10 17.5q-2 8 -5.5 10t-16.5 2h-9q-12 0 -21 11t-12 20.5t-3 11.5t-9.5 29t-9.5 64q0 23 5 30t5 12q0 9 7 9t7 4q0 3 12 16.5t32.5 26.5t38.5 13q59 0 124 -25t65 -61q0 -11 4 -11q7 0 7 -49z" />
</svg>
