<?xml version="1.0" standalone="no"?>
<!DOCTYPE svg PUBLIC "-//W3C//DTD SVG 1.1//EN" "http://www.w3.org/Graphics/SVG/1.1/DTD/svg11.dtd" >
<svg xmlns="http://www.w3.org/2000/svg" xmlns:xlink="http://www.w3.org/1999/xlink" version="1.1" viewBox="-10 0 816 1000">
   <path fill="currentColor"
d="M213 466h-31q-22 0 -29 -2.5t-30 -17.5q-30 -19 -42 -44q-10 -21 -10 -34q0 -10 3 -37q8 -69 14 -91t30 -72q10 -21 38 -53t37 -34q18 -2 47 -18.5t35 -23.5q5 -6 28 -8q120 -5 125 -10q2 -2 11 -2q51 0 88 15q26 10 29 10q7 0 7 4q0 3 22 16q39 22 64 60q13 19 31.5 54
t18.5 41q0 2 12 35t12 39q0 2 -0.5 5t-1 5.5t0 6t1.5 6.5q7 17 7 45q0 17 -3 18q-5 3 -5 14q0 12 -20 32q-19 20 -49 28q-32 8 -40 8t-16.5 4.5t-15.5 5.5q-11 1 -10 11q1 7 4.5 73.5t5.5 78.5q4 27 0 34q-4 8 -4 17q0 11 -12 33q-10 20 -22 26.5t-40 6.5q-13 0 -38 -1.5
t-51.5 -3.5t-29.5 -2q-47 -2 -86 -33q-17 -14 -24 -43q-7 -28 -12 -36q-8 -11 -11 -106q0 -12 -0.5 -26.5t-1 -22t-0.5 -8.5q0 -3 -36 -3zM564 124q-66 -52 -167 -52q-19 0 -32.5 4t-28.5 10.5t-27 9.5q-31 9 -100 45q-10 5 -33.5 28.5t-23.5 32.5q0 19 -4 24q-15 20 -15 87
q0 25 4 40q6 27 25 37.5t72 14.5q36 2 54 2q7 0 20 -1t19 -1q10 0 19 3q17 7 66 7q125 0 179 -22q17 -7 28 -9q17 -3 30.5 -19t13.5 -37q0 -6 -3.5 -15t-3.5 -17q0 -10 -7.5 -28.5t-8.5 -25.5q-5 -27 -28 -63t-48 -55zM385 679q9 0 30.5 -2t35.5 -2h21l39 3l3 -14
q2 -8 8 -16.5t6 -15.5q0 -8 -4 -17q-16 -44 -16 -77q0 -26 10 -42q8 -11 4 -13q-2 -1 -67 -3q-58 -2 -86 -6q-20 -4 -35 -4t-15 12q0 11 -4 13q-3 1 -3 50q0 68 15 94q12 23 19 23q4 0 18 8.5t21 8.5z" />
</svg>
