<?xml version="1.0" standalone="no"?>
<!DOCTYPE svg PUBLIC "-//W3C//DTD SVG 1.1//EN" "http://www.w3.org/Graphics/SVG/1.1/DTD/svg11.dtd" >
<svg xmlns="http://www.w3.org/2000/svg" xmlns:xlink="http://www.w3.org/1999/xlink" version="1.1" viewBox="-10 0 862 1000">
   <path fill="currentColor"
d="M524 407q-17 0 -26 3.5t-25 3.5h-23l-1 44q-2 96 -2 122q0 91 6 101q5 6 5 26q0 34 -18 34q-6 0 -35 -6q-16 -4 -20.5 -10t-4.5 -27q0 -76 5 -86q6 -9 6 -30q0 -7 -3 -14t-1 -20q1 -5 1 -24q0 -17 -2 -51l-3 -55l-86 1q-15 0 -36.5 0.5t-28.5 0.5q-48 0 -64 -3t-36 -15
q-30 -18 -62 -57q-3 -3 -3 -17q0 -7 9 -64q3 -17 22.5 -51t36.5 -52q24 -26 24 -28q0 -6 15.5 -19.5t25.5 -15.5q14 -4 28 -19q15 -17 34 -21q10 -2 29 -8.5t35.5 -10t35.5 -3.5q4 0 14 1t14 1q7 0 12 -4t16 -4q46 0 94 15.5t69 36.5q9 9 16 9q5 0 17 9t18 9q12 0 56 42
q2 2 10.5 7t15.5 10.5t7 9.5q0 6 7 11q6 5 26 37q14 23 18.5 39.5t4.5 45.5q0 17 -6 30q-8 18 -8 21q0 5 -22 17t-33 13q-10 0 -20 5q-4 3 -61.5 5.5t-61.5 4.5l-2 1h-4.5h-5.5q-4 0 -14 -0.5t-15 -0.5zM131 303q0 5 9 15t9 14q0 10 19.5 15t46.5 8.5t35 6.5q4 2 17 2
q23 0 68 -3.5t69 -4.5q63 -2 71 -7q7 -5 40 -5q24 -1 71.5 -6.5t59.5 -6.5q27 -2 32 -7q4 -4 15.5 -2t15.5 -2q7 -7 7 -21q0 -16 -7 -23t-7 -16q0 -10 -8 -18q-12 -12 -22 -28q-13 -20 -17 -20q-3 0 -12 -5.5t-19 -12.5t-11 -8q-20 -13 -48 -34q-13 -11 -21 -11q-6 0 -20 -6
q-36 -19 -134 -19q-65 0 -86 11q-11 6 -18 7q-27 5 -63 39q-60 55 -60 64q0 7 -9 12q-8 4 -9.5 25.5t-5.5 27.5q-8 13 -8 19z" />
</svg>
