<?xml version="1.0" standalone="no"?>
<!DOCTYPE svg PUBLIC "-//W3C//DTD SVG 1.1//EN" "http://www.w3.org/Graphics/SVG/1.1/DTD/svg11.dtd" >
<svg xmlns="http://www.w3.org/2000/svg" xmlns:xlink="http://www.w3.org/1999/xlink" version="1.1" viewBox="-10 0 813 1000">
   <path fill="currentColor"
d="M550 358q25 0 28 -2.5t9 -2.5q8 0 15 -11q1 -2 2 -1t1 2q2 6 7 6q7 0 20.5 13.5t13.5 29.5q0 10 -6 20q-10 14 -10 119q0 57 5.5 81t5.5 48q0 15 -2.5 20.5t-1.5 15.5q2 13 2 35q0 51 -26 51q-13 0 -68 -11.5t-114 -11.5l-31 1h-61.5h-34.5q-63 0 -96.5 -3.5t-44 -9.5
t-10.5 -17q0 -4 2 -14q4 -13 2.5 -22.5t2.5 -10.5q4 -5 4 -20q0 -4 -0.5 -12t-0.5 -11q0 -6 2 -6q3 0 5.5 -81t2.5 -97q0 -30 -4.5 -46t-4.5 -21q0 -2 0.5 -5t3.5 -10t7.5 -12.5t14.5 -10t23 -4.5l5 1q6 0 15 1t20 2t24 1.5t24 0.5q67 1 89 5q16 2 19 2q5 0 9.5 -1t6.5 -1.5
t3.5 -1.5t2.5 -1l1 3q1 2 3.5 3t10.5 -2q8 -2 37 -2q1 0 34 1h33zM223 476q0 1 3 15.5t3 28.5q0 13 -5 47t-5 64q0 21 3.5 25.5t3.5 10.5q0 10 5 10q4 0 4 6t11 13q9 6 40 6q6 0 35 -1t74.5 -1.5t92.5 -0.5h17q50 0 63 -1.5t13 -9.5q0 -1 -3 -15.5t-1 -18.5q1 -1 1 -8
q0 -3 -5.5 -108t-6.5 -106q-3 -8 -65 -12t-88 -4q-12 0 -20.5 2t-15.5 2q-8 0 -21.5 -1.5t-19.5 -1.5q-12 0 -21.5 3t-11.5 3l-5 -1q-5 -2 -16 -3.5t-25 -1.5q-18 0 -22 2.5t-2 10.5q0 1 0.5 2.5t0.5 2.5q0 7 -5.5 21t-5.5 20zM58 156q0 -27 33 -27q10 0 26.5 13.5
t23.5 26.5q7 14 33.5 43t26.5 39q0 26 -15 26q-16 0 -35.5 -15.5t-21.5 -15.5q-6 0 -6 -5t-18.5 -23.5t-29.5 -25.5q-17 -11 -17 -36zM707 92q18 0 27 4t10.5 8t1.5 12q0 15 -21 37.5t-21 25.5q0 2 -5 4t-18 10t-27 21q-24 22 -27 22t-13 8q-9 8 -27 -1l-18 -8l7 -21
q7 -20 11 -20q1 0 21.5 -16.5t41.5 -35.5t21 -23q0 -3 1 -7.5t10 -12t25 -7.5zM354 75q0 -19 7.5 -32.5t14.5 -17.5t11 -4q10 0 24 11.5t14 25.5l-3 8q-2 7 -5 18.5t-6.5 25t-6 27.5t-2.5 24q0 9 4 22t4 19q0 8 -7 13.5t-12.5 7t-7.5 1.5q-16 0 -27.5 -20.5t-11.5 -46.5
q0 -5 2 -20.5t4 -29.5l2 -14q2 0 2 -6v-12z" />
</svg>
