<?xml version="1.0" standalone="no"?>
<!DOCTYPE svg PUBLIC "-//W3C//DTD SVG 1.1//EN" "http://www.w3.org/Graphics/SVG/1.1/DTD/svg11.dtd" >
<svg xmlns="http://www.w3.org/2000/svg" xmlns:xlink="http://www.w3.org/1999/xlink" version="1.1" viewBox="-10 0 746 1000">
   <path fill="currentColor"
d="M125 341q27 0 53.5 19t26.5 48q0 19 -13.5 31.5t-34.5 12.5q-10 0 -26 -5t-29 -7t-22 -12.5t-11.5 -18t-2.5 -9.5q0 -8 18 -31.5t25 -25.5q5 -2 16 -2zM415 714q-34 0 -53 10.5t-22 10.5q-18 0 -41.5 -16t-27.5 -28q-3 -8 -8 -12.5t-7.5 -7t-0.5 -4.5q2 -3 -2 -6.5
t2 -16.5q8 -15 10.5 -50t4.5 -154q3 -141 3 -200q0 -76 -5 -82q-1 -2 -1 -7q0 -11 8 -26t15 -17q2 -1 23 -1l17 1h41t52.5 0.5t55.5 1t46 0.5h100l13 13q13 13 13 26q0 5 -5 19t-7 39q-2 22 -5.5 32t-3.5 24l2 41l4.5 94.5t3.5 76.5q4 106 11 111q0 1 -2 3.5t-4 10.5t-2 21
q0 15 2.5 48.5t2.5 42.5q0 21 -14 21q-3 0 -9.5 -1t-9.5 -1q-6 0 -11 3t-9 3q-5 0 -14 -4t-14 -4t-67.5 -7.5t-84.5 -7.5zM327 618q0 6 3 11t3 11q0 9 16 11t81 2q146 0 149 -5q3 -6 3 -70q0 -36 -0.5 -71t-2 -63t-2.5 -53.5t-2.5 -44t-3 -32t-1.5 -20.5l-1 -8
q0 -11 3.5 -20t3.5 -10q0 -3 -4 -7.5t-4 -6.5l3 -6q3 -6 3 -16q0 -9 -1 -15l-3 -23h-40q-7 0 -49 -1.5t-81 -2.5l-40 -2q-24 0 -25 4q-6 18 -6 201v40q0 17 -1.5 65t-1.5 68q0 29 2 29t2 5q0 3 -1.5 14t-1.5 16z" />
</svg>
