<?xml version="1.0" standalone="no"?>
<!DOCTYPE svg PUBLIC "-//W3C//DTD SVG 1.1//EN" "http://www.w3.org/Graphics/SVG/1.1/DTD/svg11.dtd" >
<svg xmlns="http://www.w3.org/2000/svg" xmlns:xlink="http://www.w3.org/1999/xlink" version="1.1" viewBox="-10 0 970 1000">
   <path fill="currentColor"
d="M66 624q0 -14 9.5 -27t22.5 -13q14 0 27 13l13 13l1 88v24q0 36 -1.5 49.5t-8 22t-22.5 8.5q-31 0 -31 -43q0 -4 1 -16.5t1 -27.5q0 -37 -6 -62.5t-6 -28.5zM233 612q0 -5 4.5 -13.5t4.5 -12.5q0 -12 15 -12q5 0 13 5.5t17.5 25.5t9.5 50q0 19 -3.5 53t-3.5 45q0 10 4 18
t-1 15q-6 16 -29 16q-2 0 -5 -0.5l-12 -2t-13.5 -4.5t-8.5 -9t2 -15q12 -22 12 -94q0 -26 -3 -45zM420 582q0 -12 18 -12q11 0 20 5t9 12q0 6 6.5 11t6.5 12q0 6 -7 25t-7 34q0 12 -3 26.5t-3 43.5q0 14 0.5 22.5t1.5 10.5t1.5 3.5t0.5 2.5q0 6 -9 12.5t-19 6.5
q-2 0 -10.5 -1.5t-12.5 -1.5q-19 0 -19 -35q0 -29 4 -35q5 -8 9 -66.5t8 -62.5q5 -5 5 -13zM394 274q22 0 46 21.5t24 40.5q0 21 -23 33q-20 10 -25 15t-19 6t-16 -3q-1 -1 -20.5 -14.5t-19.5 -28.5q0 -16 12.5 -41t21.5 -26q2 0 8.5 -1.5t10.5 -1.5zM518 323
q0 -21 11.5 -41.5t30.5 -20.5q13 0 35 11q14 7 17.5 15.5t3.5 39.5q0 18 -13 31q-14 14 -39 14q-11 0 -19 -1.5t-17.5 -13.5t-9.5 -34zM597 562h14q58 0 98 -21q19 -10 57 -47.5t46 -54.5q8 -16 8 -53q0 -38 -5.5 -57.5t-14 -34t-12.5 -30.5q-3 -13 -33.5 -44.5t-48.5 -39.5
q-10 -4 -18.5 -9.5t-12.5 -9.5t-8 -6.5t-8 -2.5q-7 0 -12 -5q-8 -8 -129 -11.5t-170 -3.5q-11 0 -49.5 2t-73.5 4l-35 2l-78 4l-13 -14q-11 -12 -11 -22q0 -9 11 -20q9 -9 32 -11t152 -3q16 0 30.5 -0.5t25 -1t20 -0.5t15.5 -0.5t10.5 -1t6.5 -0.5h2q10 0 65 2t124 6.5
t82 9.5q17 7 20 4q3 -2 3 3t6 5q4 0 24 12t28 14t18 14t15 12q7 0 7 6t21 23q16 13 30.5 36.5t14.5 36.5q0 4 4 10t9.5 21t8.5 38q2 11 4 18.5t3 14.5t1 25v21q0 28 4 34q5 6 0 6q-3 0 -5.5 4t-11 18.5t-19.5 29.5q-6 9 -10.5 15.5t-6 9.5t-2 5t-1 3t-1 1.5t-3.5 1.5
q-5 2 -4 7t-6 7q-6 2 -34 29.5t-39 30.5q-9 2 -15 7t-14 5q-6 0 -21 6.5t-41 9.5q-29 3 -34 9.5t-8 46.5q-1 18 -3 32.5t-3.5 21t-1.5 8.5q0 3 2 4q3 2 2.5 16t-4.5 18q-3 3 -34 3q-14 0 -22.5 -7.5t-9.5 -14.5l-1 -7q0 -6 5 -32t5 -34v-2q-1 -3 -1.5 -8t-1 -12.5t-1 -19
t-0.5 -25.5q0 -15 0.5 -21t3 -17t8 -16t17 -9t28.5 -4z" />
</svg>
