<?xml version="1.0" standalone="no"?>
<!DOCTYPE svg PUBLIC "-//W3C//DTD SVG 1.1//EN" "http://www.w3.org/Graphics/SVG/1.1/DTD/svg11.dtd" >
<svg xmlns="http://www.w3.org/2000/svg" xmlns:xlink="http://www.w3.org/1999/xlink" version="1.1" viewBox="-10 0 812 1000">
   <path fill="currentColor"
d="M608 760q-2 0 -4 1t-6 1q-11 0 -48 -5t-44 -5q-1 0 -40 -0.5t-88 -1t-73 -0.5q-97 0 -122 4q-18 3 -30 3q-3 0 -7.5 -1.5t-6.5 -2t-4 0.5q-1 1 -4 -1.5t-8 -7.5t-10 -12q-17 -21 -17 -32q0 -19 9 -33q3 -4 3 -49v-12q0 -43 5 -46q3 -1 3 -52q0 -94 -5 -104q-4 -6 -4 -46
q0 -2 0.5 -7t0.5 -7q0 -30 -3.5 -48.5t-4.5 -46.5q-3 -86 -9 -128q-1 -9 -1 -19q0 -12 11.5 -20t24.5 -8q15 0 36 9q19 8 60.5 12.5t110 7t82.5 3.5q76 4 105 4q55 0 82 -5q17 -3 24 -3q9 0 27.5 5.5t28.5 5.5q16 0 22.5 5t10.5 22q4 16 -10 29q-18 17 -25 41.5t-9 78.5
q-1 16 -1 44q0 19 2.5 67t2.5 111q0 136 5 139q3 2 2 8t1 10q4 4 4 30q0 10 -1 32t-1 24q0 12 -35 18h-2q-4 0 -19.5 -6.5t-20.5 -6.5zM569 259q9 0 15.5 -8.5t6.5 -19.5q0 -19 -15 -36q-8 -8 -24.5 -15.5t-26.5 -7.5q-2 0 -5 1t-5.5 1t-5.5 -3q-5 -5 -24 -5q-3 0 -51 -0.5
t-105 -1t-79 -0.5q-95 0 -96 9q0 1 -3 10q-1 3 1 35q0 3 1.5 22.5t3 37.5t4 38t6 32.5t7.5 12.5t8 -4q2 -2 33.5 -18t33.5 -19q1 -1 21.5 -11t20.5 -12q0 -4 17 -7q7 -1 20 -8t18 -7q4 0 23.5 -8t21.5 -8q8 0 8 -4q0 -5 13 -5q1 0 36 -1t50 -1q35 0 50 5q15 6 21 6zM324 428
q6 0 14 9.5t12 9.5q7 0 12 10q6 10 18 23.5t17 20.5q9 13 31 35q17 17 17 23q0 3 19 24.5t19 24.5q0 2 8 16.5t8 18.5q0 13 18 22.5t36 9.5q14 0 29 -4t18.5 -13t3.5 -45q0 -10 0.5 -41.5t0.5 -45.5q0 -43 -4 -59q-5 -7 -2 -17t3 -18q0 -45 -12 -84q-3 -11 -8 -16t-19 -10
q-6 -2 -14.5 -5.5t-12.5 -5t-11.5 -3t-15.5 -1.5q-12 0 -32.5 5t-31.5 6q-18 2 -43 11q-26 10 -29 10q-6 0 -13 7q-6 6 -27 12q-14 4 -35 21t-21 25q0 4 19.5 14t27.5 10zM250 473q-26 -12 -51 -14l-25 -2l2 94q1 81 3.5 98t12.5 20q1 0 93 4.5t94 5.5q5 2 19 -3
q18 -6 18 -22q0 -10 -6 -21q-2 -4 -8 -15.5t-9.5 -18t-10 -14.5t-13.5 -12q-15 -9 -31 -29t-39 -33q-22 -13 -22 -19t-27 -19z" />
</svg>
