<?xml version="1.0" standalone="no"?>
<!DOCTYPE svg PUBLIC "-//W3C//DTD SVG 1.1//EN" "http://www.w3.org/Graphics/SVG/1.1/DTD/svg11.dtd" >
<svg xmlns="http://www.w3.org/2000/svg" xmlns:xlink="http://www.w3.org/1999/xlink" version="1.1" viewBox="-10 0 850 1000">
   <path fill="currentColor"
d="M85 65q23 0 50 42.5t27 61.5q0 7 14 24.5t14 34.5q0 13 5 13t5 8q0 7 9 21t9 16q0 6 47 97t47 98q0 5 12 29t12 29q0 3 1.5 5t4 5t9 13t13.5 26q18 39 30 39q7 0 20 -31.5t16 -31.5q2 0 4 -6.5t6 -17.5t11 -18q11 -13 11 -20q0 -8 5 -8t5 -7t4 -7q3 0 34.5 -62.5
t31.5 -69.5q0 -6 25.5 -40.5t25.5 -37.5q0 -4 15 -23.5t36 -48t31 -49.5q8 -15 22.5 -36t16.5 -33q4 -27 40 -27q13 0 21.5 11t8.5 25q0 15 -11 29.5t-11 15.5q0 2 -6 8.5t-13.5 15.5t-10.5 13q-14 22 -29 43t-22.5 31t-7.5 13q0 6 -3 6q-2 0 -5 6t-10.5 19t-17.5 25
q-15 18 -15 24q0 5 -10 13q-8 8 -22.5 36t-14.5 37q0 6 -6.5 13.5t-5.5 9.5q1 1 1 3q0 1 -3.5 5.5t-15.5 24t-27 50.5q-7 14 -12.5 22.5t-7 10.5t-2.5 4t-1 5q0 5 -7 14t-5 14q2 4 -4.5 9t-6.5 13q0 7 -10 22t-14 25q-30 78 -38 86q-5 5 -11 5q-8 0 -26 -8q-15 -6 -19 -11.5
t-8 -29.5q-5 -24 -12 -37.5t-7 -17.5q0 -17 -2 -17q-3 0 -5 -4.5t-7.5 -15t-12.5 -19.5q-9 -12 -9 -19q0 -4 -20 -46t-22 -53q-3 -14 -11 -31.5t-11 -17.5q-4 0 -11.5 -17t-7.5 -25q0 -9 -5 -11t-27 -45.5t-26 -58.5q-3 -11 -14.5 -30t-15.5 -19q-2 0 -5.5 -9t-8.5 -20.5
t-10 -16.5q-9 -7 -9 -17q0 -7 -7 -14.5t-8 -11.5q-1 -5 -9 -15t-8 -20q0 -14 10.5 -26t19.5 -12z" />
</svg>
