<?xml version="1.0" standalone="no"?>
<!DOCTYPE svg PUBLIC "-//W3C//DTD SVG 1.1//EN" "http://www.w3.org/Graphics/SVG/1.1/DTD/svg11.dtd" >
<svg xmlns="http://www.w3.org/2000/svg" xmlns:xlink="http://www.w3.org/1999/xlink" version="1.1" viewBox="-10 0 833 1000">
   <path fill="currentColor"
d="M197 349q0 -9 0.5 -16t1.5 -10.5t1.5 -5.5t1.5 -3q0 -4 -51 -4l-49 2q-12 0 -26.5 -9t-14.5 -21q0 -7 5.5 -12.5t10.5 -5.5q8 0 13 -9q6 -10 49 -10q32 0 123.5 4.5t118.5 4.5h223h26h23.5h20.5t17.5 -0.5t13 -0.5h8.5h3q27 0 36 11q9 10 9 14t-10 13q-24 23 -76 23
q-8 0 -19.5 -0.5t-21.5 -0.5q-58 0 -58 10q0 20 11 73.5t11 63.5v7q0 21 4.5 32t4.5 38q0 13 -0.5 18t-3.5 12.5t-11 10.5t-22 3q-22 0 -29 -9.5t-7 -39.5q0 -17 3 -34.5t3 -23.5q0 -10 -14.5 -63.5t-17.5 -55.5q-4 -2 -4 -21q0 -12 -2.5 -16t-10.5 -7q-13 -5 -25 -2
q-9 3 -95 3h-7l-90 -1l-2 15q-2 11 -2 26q0 8 -10 48t-10 76l1 33q0 27 -11 43.5t-28 16.5q-6 0 -12.5 -1.5t-16 -10.5t-9.5 -26q0 -15 7.5 -38.5t7.5 -27.5q0 -1 -0.5 -2.5t-0.5 -3.5q0 -1 4.5 -33t4.5 -61v-16z" />
</svg>
