<?xml version="1.0" standalone="no"?>
<!DOCTYPE svg PUBLIC "-//W3C//DTD SVG 1.1//EN" "http://www.w3.org/Graphics/SVG/1.1/DTD/svg11.dtd" >
<svg xmlns="http://www.w3.org/2000/svg" xmlns:xlink="http://www.w3.org/1999/xlink" version="1.1" viewBox="-10 0 839 1000">
   <path fill="currentColor"
d="M345 431q-15 0 -34.5 -19t-19.5 -30q1 -7 3 -6q2 -6 3 -11q0 -3 2.5 -7t10.5 -8.5t20 -4.5q36 0 48 16q14 17 14 34q0 19 -16.5 27.5t-30.5 8.5zM151 407q0 -1 1 -7.5t4 -17t7.5 -20t13 -16.5t18.5 -7q19 0 30.5 13.5t14.5 25.5t3 21q0 15 -6.5 22t-14 8t-24.5 1
q-27 0 -37 -5t-10 -18zM492 339q0 -11 -4 -25t-9.5 -26t-11 -22.5t-9.5 -17.5l-4 -6q0 -4 -23 -29.5t-23 -27.5t-8 -8t-33.5 -14.5t-60.5 -11.5q-33 -2 -64 -7t-61 -5q-41 0 -81 5q-24 4 -34 -6q-9 -9 -9 -21q0 -6 1 -9.5t7 -10.5t17.5 -11t35.5 -7.5t58 -3.5q30 0 49.5 1.5
t28 3.5t12.5 2h9q4 0 15 4t27 5q66 2 112 37q27 22 40 29t26 28q6 9 16.5 22.5t16.5 22.5t6 14q0 7 12 27.5t15 30.5t9.5 14.5t31.5 13.5q47 16 49 16q10 2 30 18.5t23 16.5q6 0 26 22.5t24 34.5q9 20 11 22q7 8 7 42q0 73 -16 79q-6 2 -6 11q0 14 -29 37.5t-50 25.5
q-14 1 -30 7.5t-30 7.5q-111 8 -146 8q-13 0 -31.5 -0.5t-36.5 -1t-33.5 -1t-25.5 -1.5h-10q-26 0 -55 3.5t-69 3.5q-31 0 -44 -0.5t-26.5 -3.5t-19 -10t-8.5 -19q0 -1 -0.5 -3t-0.5 -3q0 -13 13 -25.5t27 -12.5q4 0 12.5 3.5t16.5 3.5t18.5 6t18.5 6q4 0 18 -2.5t41 -4.5
t62 -2q5 0 71.5 1t73.5 1q75 0 129.5 -13t73.5 -35q4 -5 11 -12.5t8 -9.5q4 -5 4 -18q0 -28 -15 -61.5t-32 -33.5q-4 0 -10 -4.5t-15 -10.5t-40 -15t-79 -16q-12 -2 -16 -10.5t-4 -37.5z" />
</svg>
