<?xml version="1.0" standalone="no"?>
<!DOCTYPE svg PUBLIC "-//W3C//DTD SVG 1.1//EN" "http://www.w3.org/Graphics/SVG/1.1/DTD/svg11.dtd" >
<svg xmlns="http://www.w3.org/2000/svg" xmlns:xlink="http://www.w3.org/1999/xlink" version="1.1" viewBox="-10 0 1006 1000">
   <path fill="currentColor"
d="M520 636q-7 0 -17 -3t-22.5 -10.5t-21 -24.5t-8.5 -41q0 -15 3 -19.5t20 -15.5q22 -14 38 -14q7 0 12 4.5t11 4.5q8 0 23 24t15 37q0 25 -15.5 41.5t-37.5 16.5zM170 164q0 -1 6.5 -12t16.5 -22t18 -11q18 0 81.5 70t67.5 70q2 0 23 17q9 8 13 12t8 16.5t4 30.5
q0 23 -20 23q-15 0 -25.5 -10t-17 -21.5t-9.5 -12.5q-7 -2 -7 -10q0 -7 -3 -7t-18.5 -14t-17.5 -14t-31.5 -28.5t-38.5 -28.5q-8 0 -16.5 15t-18.5 35t-18 27q-9 8 -21 40.5t-22 33.5q-2 0 -5.5 0.5t-5.5 0.5q-19 0 -31.5 -7t-15.5 -13t-3 -8q0 -4 11 -19t11 -17
q0 -1 8 -10.5t17 -21t11 -17.5q3 -10 6 -10q4 0 14 -20t10 -27q0 -6 9.5 -17.5t9.5 -12.5zM685 142q3 0 14 -16.5t23 -16.5q11 0 24.5 9.5t16.5 19.5q4 9 9 9q7 0 7 8q0 7 12 19.5t12 15.5q0 8 24 40t26 38q2 10 8 10q4 0 13.5 19t16.5 23q9 5 21.5 27t12.5 34q0 10 -6.5 15
t-13.5 1q-1 -1 -18 -4t-21 -10q-2 -2 -26.5 -29.5t-32.5 -44.5q-6 -12 -16.5 -27t-18 -25t-7.5 -13q0 -5 -18 -20.5t-25 -15.5q-5 0 -12 9.5t-16.5 24t-17.5 22.5q-13 13 -16 26q-4 16 -21.5 41t-30.5 25q-8 0 -23.5 -5.5t-15.5 -14.5q0 -25 27 -54q18 -18 27 -38t16 -30
q14 -19 14 -24q0 -3 14 -20.5t14 -21.5q0 -6 4 -6z" />
</svg>
