<?xml version="1.0" standalone="no"?>
<!DOCTYPE svg PUBLIC "-//W3C//DTD SVG 1.1//EN" "http://www.w3.org/Graphics/SVG/1.1/DTD/svg11.dtd" >
<svg xmlns="http://www.w3.org/2000/svg" xmlns:xlink="http://www.w3.org/1999/xlink" version="1.1" viewBox="-10 0 858 1000">
   <path fill="currentColor"
d="M126 217q5 0 25.5 -21t26.5 -21q7 0 10 -5q4 -7 37.5 -27.5t41.5 -20.5q15 0 33.5 -8.5t53.5 -11.5q76 -6 83 -13q2 -2 10 -2q30 0 70.5 12.5t69.5 25.5t32 13q4 0 9.5 6t19 20t30.5 28t26 26t11.5 19t4.5 8q9 6 33 69q11 28 11 94q0 20 -2 22q-5 8 -9 32t-13.5 54
t-29.5 54q-23 29 -23 32q0 8 -41 49q-6 6 -23.5 12.5t-42 15t-41.5 16.5q-55 25 -157 25q-33 0 -48 -9q-12 -7 -21.5 -8.5t-22.5 -10.5q-2 -2 -53.5 -28.5t-56.5 -37.5q-1 -3 -19 -17t-18 -17q0 -2 -7 -14t-14.5 -28.5t-9.5 -28.5q-2 -15 -13.5 -35t-11.5 -40
q0 -16 -4.5 -23.5t-4.5 -9.5t2 -25.5t5 -49.5t5 -29q6 -9 13 -30t7 -29q0 -12 4 -20t8 -10zM528 624q19 0 65.5 -24t46.5 -37q0 -2 18 -21.5t22 -41.5q2 -8 9 -26.5t8 -33.5q1 -13 3 -26t2 -23q0 -28 -5.5 -49.5t-12.5 -34t-8 -15.5q-3 -11 -21 -33.5t-35 -39t-19 -16.5
q-3 0 -8.5 -6t-19.5 -14.5t-36 -14.5q-15 -4 -31.5 -9t-27 -8t-18.5 -3q-13 0 -27.5 11t-19.5 11q-7 0 -31.5 13.5t-35.5 22.5q-21 18 -21 60q0 29 30.5 52.5t73 44t56.5 36.5q44 48 55.5 71t11.5 61q0 29 -8 37q-6 6 -14 26t-8 26q0 4 6 4zM422 625q18 0 27.5 -33t13.5 -33
t13 -20t9 -30q0 -8 -16 -28t-16 -21q0 -6 -17.5 -19t-25.5 -13q-7 0 -32.5 -11t-35.5 -20q-13 -13 -25 -18q-18 -8 -40.5 -39.5t-22.5 -52.5q0 -1 3 -21.5t7.5 -43.5t7.5 -27q3 -5 -1 -5l-26 9q-17 7 -34.5 21.5t-25.5 16.5q-21 5 -36.5 50.5t-15.5 75.5q0 9 5 43.5t5 43.5
q0 10 23.5 55.5t41.5 53.5q12 6 17 15t9 9q7 0 14 11q12 17 54.5 32t75.5 15q21 0 29 -8t15 -8z" />
</svg>
