<?xml version="1.0" standalone="no"?>
<!DOCTYPE svg PUBLIC "-//W3C//DTD SVG 1.1//EN" "http://www.w3.org/Graphics/SVG/1.1/DTD/svg11.dtd" >
<svg xmlns="http://www.w3.org/2000/svg" xmlns:xlink="http://www.w3.org/1999/xlink" version="1.1" viewBox="-10 0 756 1000">
   <path fill="currentColor"
d="M449 684q0 -14 7.5 -24t14.5 -13t9 -3q9 0 31.5 15t24.5 23q2 9 7 9q3 0 7 6.5t4 14.5q0 21 -20 33.5t-52 12.5q-13 0 -22.5 -5t-12.5 -12.5t-4 -12t-1 -8.5t3.5 -14t3.5 -22zM225 709q0 -22 35 -48t49 -26q13 0 35 30.5t22 45.5q0 11 -13 22t-44 11q-84 0 -84 -35z
M316 65q16 0 48 -4.5t39 -4.5q3 0 27 2.5t54.5 7.5t37.5 10q5 4 26 7q16 2 33.5 14t17.5 20q0 3 21.5 28t22.5 30q1 14 11 36.5t10 38.5q0 5 -1.5 29.5t-5.5 57.5t-9 40t-12 28.5t-7 31.5q0 24 -15 24q-6 0 -6 10q0 8 -13 27.5t-13 21.5q0 1 -0.5 6t-0.5 8q-1 10 -35 26
t-67 16q-26 0 -47 -8.5t-24 -20.5q-1 -3 -1 -13q0 -13 4.5 -47.5t4.5 -82.5q0 -42 -8 -55.5t-38 -13.5q-15 0 -28 13q-9 8 -11.5 13t-2.5 18q0 61 15 92.5t15 63.5q0 9 -5 16.5t-10 10.5l-5 2q-1 0 -8 0.5t-20.5 1t-24.5 0.5l-49 2l-22 -23q-18 -18 -20 -27t-4 -11
q-5 -5 -21 -27.5t-19 -26.5q-3 -3 -12.5 -31t-18.5 -38q-12 -12 -12 -19q0 -4 -5 -10t-7 -19q-2 -12 -13 -29t-11 -31q0 -4 4 -10.5t-2 -16.5q-5 -12 -5 -17q0 -9 15 -24.5t19 -24.5q17 -36 26 -36q4 0 14.5 -9.5t18.5 -9.5q10 0 12 -7q1 -6 28 -16.5t40 -10.5q12 0 14 -5
q4 -8 11 -8q6 0 17 -8t22 -8h5h6zM479 400q0 5 1 14.5t1 15.5q0 11 -6.5 18t-6.5 25q0 19 10 23q9 3 15.5 -3.5t8.5 -4.5h2q5 0 19.5 -15t14.5 -21q0 -5 9.5 -13t9.5 -15t4.5 -12t4.5 -9q0 -15 27 -66q4 -7 4 -53q0 -58 -9 -63q-5 -3 -5 -14q0 -7 -14.5 -27.5t-27.5 -31.5
q-8 -7 -41.5 -15t-60.5 -12t-30 -4q-13 0 -65 7.5t-71 11.5q-10 3 -33 15.5t-41 20.5q-15 7 -23.5 14t-10 11.5t-4 7.5t-7.5 3q-3 0 -7 2.5t-10.5 21t-6.5 49.5q0 14 17 50.5t36 56.5q10 11 19 30t15 27q5 6 16 26q6 13 14 13q9 0 18 3q8 2 8 0q1 -1 -3 -11q-3 -9 -3 -35
q0 -11 2 -44t2 -48q1 -37 42 -61.5t71 -24.5q36 0 52 14q11 9 29 44t18 57q0 4 -2 9t-2 13z" />
</svg>
