<?xml version="1.0" standalone="no"?>
<!DOCTYPE svg PUBLIC "-//W3C//DTD SVG 1.1//EN" "http://www.w3.org/Graphics/SVG/1.1/DTD/svg11.dtd" >
<svg xmlns="http://www.w3.org/2000/svg" xmlns:xlink="http://www.w3.org/1999/xlink" version="1.1" viewBox="-10 0 868 1000">
   <path fill="currentColor"
d="M705 373q0 -3 2.5 -9t2.5 -11q0 -9 -5 -21t-10 -19t-6 -7q-3 0 -12 -16.5t-15 -16.5t-6 -4q0 -5 -85 -44q-25 -11 -88 -11q-39 0 -45 3q-12 6 -34 12.5t-30 6.5q-7 0 -26 11t-21 16q-1 2 -19 14.5t-20 19.5q-4 9 -7 9q-8 0 -25.5 47t-17.5 78q0 25 16 25q13 0 18 -8
q4 -4 26 -15.5t30 -25.5q10 -16 18 -16q7 0 27 10q15 8 17.5 11t0.5 13q-2 12 -14.5 22.5t-24.5 11.5q-7 1 -19 11.5t-19 21.5q-2 3 -29.5 17.5t-32.5 27.5q-4 11 -14.5 15t-10.5 9q0 3 -16 3q-48 0 -48 -19q0 -6 -4.5 -11t-4.5 -10q0 -4 -42 -51t-42 -66q0 -10 9.5 -18.5
t20.5 -8.5q10 0 24.5 12.5t16.5 12.5q4 0 4 5q0 8 8.5 16.5t16.5 8.5q14 0 14 -30q0 -24 2 -24t7 -13t14 -36t16 -38q9 -19 26.5 -38.5t24.5 -19.5q4 0 14 -9.5t16 -9.5t40 -21.5t47 -21.5q11 -1 11 -3q0 -1 6 -3t27.5 -4.5t53.5 -2.5q51 0 62 7q10 7 54.5 11t71.5 29
q18 18 34 30q38 28 53 72t15 138q0 14 -18.5 55t-30.5 54q-14 14 -14 23q0 26 -25 26q-17 0 -17 -4q0 -1 -14 -9.5t-14 -26.5q0 -16 26 -48t26 -38q0 -2 7.5 -19.5t7.5 -49.5q0 -20 -4 -29z" />
</svg>
