<?xml version="1.0" standalone="no"?>
<!DOCTYPE svg PUBLIC "-//W3C//DTD SVG 1.1//EN" "http://www.w3.org/Graphics/SVG/1.1/DTD/svg11.dtd" >
<svg xmlns="http://www.w3.org/2000/svg" xmlns:xlink="http://www.w3.org/1999/xlink" version="1.1" viewBox="-10 0 584 1000">
   <path fill="currentColor"
d="M404 294q0 -4 3 -8t3 -8q0 -2 -2 -13t-2 -24q0 -8 2 -28t2 -37q0 -22 -3 -47.5t-3 -29.5q0 -11 12 -23t21 -12q2 0 8.5 3t10.5 4q19 6 19 70q0 34 -4.5 75.5t-4.5 68.5q0 41 8 135t8 97q0 14 -4 31t-4 23t2.5 12.5t2.5 9.5q0 1 -1.5 9t-1.5 19q0 8 1 21t1 22q0 49 -29 49
q-17 0 -32 -12.5t-15 -27.5q0 -10 7 -58t7 -65q0 -8 -1.5 -15t-3 -10t-1.5 -5.5t3 -4.5q3 -1 3 -10q0 -6 -2 -21t-2 -19q0 -3 1.5 -7t1.5 -7q2 -9 0 -11t-12 -2q-12 0 -88.5 -2.5t-96.5 -2.5q-19 1 -22 1q-121 0 -121 -27q0 -7 -5 -7q-4 0 -4 -7t4 -7q1 0 8.5 -18t22.5 -18
q1 0 11 2t30.5 4.5t47.5 2.5h4q26 0 36 4.5t24 4.5q6 0 24.5 -1t35.5 -1h58q29 0 34 -3t5 -19t-3.5 -32t-3.5 -18z" />
</svg>
