<?xml version="1.0" standalone="no"?>
<!DOCTYPE svg PUBLIC "-//W3C//DTD SVG 1.1//EN" "http://www.w3.org/Graphics/SVG/1.1/DTD/svg11.dtd" >
<svg xmlns="http://www.w3.org/2000/svg" xmlns:xlink="http://www.w3.org/1999/xlink" version="1.1" viewBox="-10 0 949 1000">
   <path fill="currentColor"
d="M303 711q0 1 -0.5 5t-2 11t-4.5 13.5t-9 11t-14 4.5q-12 0 -51 -11.5t-44 -11.5q-4 0 -9 -4t-20 -14t-37 -21q-55 -28 -55 -49q0 -9 14 -18.5t17 -25.5q2 -14 15.5 -24t18.5 -20q5 -11 17.5 -26t33.5 -58q5 -11 17.5 -26.5t16.5 -30.5q6 -21 9 -21q4 0 9 -12.5t5 -20.5
q0 -9 5 -9q2 0 4 -4.5t5.5 -13t9.5 -15.5q7 -8 33 -50.5t31 -47.5q17 -18 34 -47.5t22 -47.5q3 -13 15.5 -22t23 -13.5t10.5 -6.5q0 -4 10 -15.5t18 -11.5q4 0 18 7q12 6 15 14.5t7 34t14 54.5l18 54q7 23 46 98t44 99q3 15 16.5 44t13.5 35q0 4 9.5 20.5t9.5 21.5
q0 4 14.5 36t16.5 47q5 32 25 34q13 0 66 5q55 5 67 7.5t12 9.5q0 5 9 5t9 25q0 9 -4 17t-4 13q0 11 -36 11q-23 0 -37 -7t-46 -7q-35 0 -56 4.5t-22 4.5q-16 0 -29 -13t-13 -29q0 -6 1 -12t1 -12q0 -12 -5 -22t-5 -17q0 -8 -15.5 -50.5t-20.5 -48.5q-9 -11 -14 -33.5
t-18 -47.5q-1 -3 -1.5 -5.5t-0.5 -4.5t0.5 -3.5t0.5 -3t-1.5 -2.5t-3.5 -2q-7 -2 -7 -11q0 -17 -14 -53t-25 -49t-25 -40t-18 -43q-3 -14 -16 -43.5t-16 -29.5t-10 14t-9 14q-1 0 -16.5 23t-15.5 24q0 4 -17 21q-14 15 -31 40.5t-26.5 44.5t-9.5 22t-9.5 16.5t-9.5 20.5
q0 9 -4 9q-5 0 -5 7q0 5 -11.5 25.5t-13.5 27.5q-3 10 -8 10t-5 5q0 3 -2.5 7t-7.5 13.5t-10 22.5q-7 18 -29.5 42.5t-22.5 37.5q0 10 8.5 20.5t16.5 10.5q7 0 30 9.5t25 9.5q7 0 30 8.5t23 11.5q0 5 6 10.5t6 13.5z" />
</svg>
