<?xml version="1.0" standalone="no"?>
<!DOCTYPE svg PUBLIC "-//W3C//DTD SVG 1.1//EN" "http://www.w3.org/Graphics/SVG/1.1/DTD/svg11.dtd" >
<svg xmlns="http://www.w3.org/2000/svg" xmlns:xlink="http://www.w3.org/1999/xlink" version="1.1" viewBox="-10 0 619 1000">
   <path fill="currentColor"
d="M75 48q0 -4 2.5 -12.5t13.5 -20t29 -11.5q14 0 28 10t28 10q2 0 5 -0.5t10.5 -1t21 -1t41 -1t64.5 -0.5q105 0 138.5 2.5t73.5 13.5q19 4 19 34q0 15 -11 18t-55 3q-39 0 -142.5 -3.5t-145.5 -3.5q-37 0 -37 10q0 6 5 19q3 8 5.5 45t3.5 65.5t1 33.5v11.5t-0.5 15
t-0.5 14.5v12v4q0 39 5 46q2 2 2.5 5t-1.5 4q-3 1 -3 76q0 86 3 89q4 4 4 16q0 35 -22 49q-7 5 -12.5 4.5t-19.5 -6.5q-16 -7 -22 -15.5t-6 -25.5v-8q1 -8 2.5 -23t2.5 -35t1.5 -49t0.5 -60q0 -209 -21 -283q-11 -39 -11 -50z" />
</svg>
