<?xml version="1.0" standalone="no"?>
<!DOCTYPE svg PUBLIC "-//W3C//DTD SVG 1.1//EN" "http://www.w3.org/Graphics/SVG/1.1/DTD/svg11.dtd" >
<svg xmlns="http://www.w3.org/2000/svg" xmlns:xlink="http://www.w3.org/1999/xlink" version="1.1" viewBox="-10 0 701 1000">
   <path fill="currentColor"
d="M499 426q0 -5 3 -17.5t18.5 -29t39.5 -16.5q14 0 31.5 13t19.5 27q2 11 5 15q4 5 -2 24q-7 23 -30.5 26t-24.5 7q-2 5 -6 5q-5 0 -27 -9.5t-22 -18.5l-2 -23l-1 2q-2 -1 -2 -5zM265 727q-3 0 -13.5 -3t-21.5 -3q-10 0 -31 3t-33 3q-23 0 -33 -9t-13.5 -22.5t-9.5 -18.5
q-6 -4 -4 -23q4 -28 4 -47q0 -13 -3.5 -42.5t-3.5 -42.5q0 -22 -7 -51l-8 -29v-2q1 -2 1.5 -6.5t1 -12t1 -19.5t1 -27.5t1 -38t0.5 -49.5v-26.5t-0.5 -25t-1 -22.5t-0.5 -19.5t-0.5 -15t-0.5 -10.5v-4q0 -54 39 -54q6 0 33.5 6t78.5 11.5t115 5.5q35 0 52 -1l27 -2l5 19
q10 38 10 61q0 1 -2 21.5t-4 56.5t-2 75q0 41 3 43q2 0 2 2q0 1 -2 5.5t-4.5 13t-2.5 19.5q0 5 1 18t1 17q0 8 -1.5 21t-1.5 22q0 16 4 41t4 44q0 6 -0.5 12t-0.5 11q0 19 5.5 40t5.5 25q0 5 -6 13q-5 6 -13 8t-36 2h-42q-35 0 -56 2t-28.5 3.5t-9.5 1.5zM301 193
q-71 0 -109 -2l-35 -2l-1 69q0 15 -1 34.5t-2 37t-2.5 32.5t-2.5 24v9q0 29 11 110.5t12 100.5q3 50 20 50q1 0 6 -1t12.5 -1.5t16.5 -0.5q18 1 56 1q96 0 102 -8q4 -6 4 -23q0 -7 -4.5 -198t-5.5 -192q-3 -3 -3 -21v-18z" />
</svg>
