<?xml version="1.0" standalone="no"?>
<!DOCTYPE svg PUBLIC "-//W3C//DTD SVG 1.1//EN" "http://www.w3.org/Graphics/SVG/1.1/DTD/svg11.dtd" >
<svg xmlns="http://www.w3.org/2000/svg" xmlns:xlink="http://www.w3.org/1999/xlink" version="1.1" viewBox="-10 0 778 1000">
   <path fill="currentColor"
d="M491 605q-15 0 -26 1.5t-16 2.5q-6 2 -6 -2q0 -5 -11 -5q-7 0 -20 -7t-25 -10q-14 -3 -35 -12.5t-21 -13.5q0 -9 -40 -15.5t-53 -6.5t-47 17.5t-34 24.5q0 4 -6 4q-3 0 -12.5 7t-23.5 7q-22 0 -26 -11l1 -3q2 -1 0.5 -2t-5 -7t-3.5 -12q0 -11 25 -34t53 -36
q38 -19 101 -19q13 0 20.5 1t10.5 3t12.5 5.5t23.5 6.5q20 5 34.5 13.5t23.5 15.5t38 12t79 5q31 0 55.5 -9.5t33 -17.5t8.5 -10q4 -9 7 -9t22.5 -18.5t38.5 -18.5q14 0 22 6.5t9 11t1 7.5q0 21 -23 55.5t-42 34.5q-10 0 -13.5 1t-4 2.5t-6 5.5t-16.5 9q-18 9 -27 18
q-10 10 -28 6q-24 -4 -49 -4zM106 376q-6 0 -19.5 -17t-13.5 -32q0 -13 15.5 -35t26.5 -26q14 -6 25 -15q18 -14 51.5 -23.5t48.5 -9.5q22 0 69.5 22t57.5 32q6 6 14 6q1 0 32.5 16t58.5 16q79 0 102 -30q7 -8 20 -14t22 -6q10 0 10 6q0 5 14 11.5t14 10.5q0 15 -7 22.5
t-14 9.5t-7 5q0 5 -7 5q-5 0 -10.5 7t-13.5 9q-11 2 -11 7t-6 5q-4 0 -24.5 10t-59.5 10t-53.5 -4.5t-21.5 -4.5q-12 0 -58 -26.5t-50 -26.5q-7 0 -32 -14t-41 -14q-32 0 -56 14t-34.5 30t-21.5 30t-20 14z" />
</svg>
