<?xml version="1.0" standalone="no"?>
<!DOCTYPE svg PUBLIC "-//W3C//DTD SVG 1.1//EN" "http://www.w3.org/Graphics/SVG/1.1/DTD/svg11.dtd" >
<svg xmlns="http://www.w3.org/2000/svg" xmlns:xlink="http://www.w3.org/1999/xlink" version="1.1" viewBox="-10 0 627 1000">
   <path fill="currentColor"
d="M409 806q-30 0 -68.5 -8.5t-49.5 -6.5q-1 0 -4 0.5t-5 0.5q-15 0 -39 -8t-37 -8q-9 0 -45 5.5t-52 5.5t-35 -11l-20 -12l7 -19q7 -19 11 -24q5 -6 127 -6q15 0 81 4.5t91 4.5q16 0 26.5 -1.5t26.5 -6.5t24.5 -19.5t8.5 -36.5q0 -4 -2 -13t-2 -23q0 -11 2 -28t2 -33
q0 -84 -13 -273l-3 -52l15 -15q15 -15 18 -15q4 0 18 14q10 9 12.5 15.5t2.5 22.5q0 5 7 260q4 113 18 147q8 20 2 24q-5 3 -5 23v14q0 24 -5.5 40t-13.5 16t-15 7q-6 6 -17.5 7t-14.5 -4q-6 -10 -20 4q-8 8 -34 8z" />
</svg>
