<?xml version="1.0" standalone="no"?>
<!DOCTYPE svg PUBLIC "-//W3C//DTD SVG 1.1//EN" "http://www.w3.org/Graphics/SVG/1.1/DTD/svg11.dtd" >
<svg xmlns="http://www.w3.org/2000/svg" xmlns:xlink="http://www.w3.org/1999/xlink" version="1.1" viewBox="-10 0 726 1000">
   <path fill="currentColor"
d="M471 439q0 11 27.5 41.5t27.5 32.5q0 3 23.5 28.5t23.5 27.5q0 5 15 16.5t21 11.5q9 0 19 10q10 9 10 35q0 18 -1.5 25.5t-10.5 14t-29 6.5q-17 0 -17 -5q0 -7 -15 -23t-21 -16q-9 0 -9 -9q0 -5 -9 -16.5t-24 -28t-22 -26.5q-43 -59 -64 -59q-2 0 -54 11.5t-98 11.5
q-29 0 -41 -4q-20 -7 -57 -33.5t-56 -48.5q-13 -15 -30 -55t-17 -57q0 -1 1 -5t2.5 -14t2.5 -24q3 -32 24 -73q17 -34 25.5 -44t28.5 -23q20 -12 24 -19q8 -11 51.5 -18.5t76.5 -7.5q25 0 37 5q28 10 46 14q10 2 29.5 18.5t23.5 16.5q7 0 7 4q0 2 9 12.5t20 24t14 21.5
q6 13 11 13q7 0 7 15q0 13 7.5 49.5t7.5 47.5q0 4 -2.5 8.5t-0.5 12.5q2 11 -7.5 17t-7.5 9t-4.5 10.5t-6.5 10.5q0 5 -9 13t-9 15zM135 351q0 2 -1 3.5t-1 5.5q0 15 17.5 39t29.5 24q6 0 11 9.5t11 9.5q7 0 15 6.5t12 5.5q6 -2 8 5q3 6 44 6q45 0 66 -7q22 -7 44 -21.5
t30 -28.5q32 -58 32 -85q0 -21 -5.5 -37.5t-5.5 -21.5q0 -9 -35.5 -44.5t-44.5 -35.5q-5 0 -19.5 -8t-25.5 -9q-12 0 -29.5 -2t-22.5 -2q-11 0 -21.5 4.5t-17.5 5.5q-10 2 -25 15q-21 19 -23 20q-22 16 -32 34t-13 33.5t-6 19.5q-4 5 -4 22q0 11 2 18t4 9t4 3.5t2 3.5z" />
</svg>
