<?xml version="1.0" standalone="no"?>
<!DOCTYPE svg PUBLIC "-//W3C//DTD SVG 1.1//EN" "http://www.w3.org/Graphics/SVG/1.1/DTD/svg11.dtd" >
<svg xmlns="http://www.w3.org/2000/svg" xmlns:xlink="http://www.w3.org/1999/xlink" version="1.1" viewBox="-10 0 738 1000">
   <path fill="currentColor"
d="M135 505q0 -35 12.5 -60.5t12.5 -26.5q0 -13 19 -39.5t34 -34.5q17 -9 25.5 -19t10 -16t8.5 -11t23 -7q19 -3 34.5 -7.5t26.5 -4.5q17 0 59.5 9t52.5 9q12 0 32 7t37 14.5t19 8.5q13 4 13 10t7 10t7 8t6.5 10.5t15.5 18.5t14 25q10 24 12 26q4 4 4 18q0 8 2.5 16.5
t3.5 10.5t-1 6q-3 2 -5 11t-6.5 24.5t-13.5 28.5t-16 30.5t-17 27.5q-7 7 -9 12.5t-1.5 8.5t-3 6t-13.5 7q-19 8 -19 12q0 5 -21 13t-48 16t-34 11q-16 8 -47 8q-38 0 -68 -9t-44 -17.5t-15 -8.5q-8 0 -25 -9.5t-19 -14.5q-2 -8 -9 -10q-13 -5 -29 -50.5t-19 -47.5
q-8 -5 -8 -30zM497 372q-2 0 -13 -8t-37 -16.5t-66 -8.5q-34 0 -62.5 8.5t-44 17.5t-28.5 23.5t-15 18.5t-5 9q-4 10 -10 10q-5 0 -12.5 22.5t-7.5 38.5q0 24 31 77t64 59q20 4 25 7q14 7 58 7q36 0 50.5 -6t16.5 -6q5 0 20.5 -5.5t40 -25t38.5 -48.5q22 -46 22 -64
q0 -31 -10 -52q-6 -13 -27.5 -35.5t-27.5 -22.5zM57 188q0 -10 7.5 -20.5t21.5 -10.5q9 0 30 18.5t25 18.5q3 0 7 7t9 7t15 13t10 24q0 10 -8.5 15.5t-17.5 6.5l-8 1q-9 0 -27.5 -18.5t-25.5 -18.5q-6 0 -11 -7t-9 -7q-18 -12 -18 -29zM536 164q22 -9 54 -35.5t49 -26.5
q31 0 31 31q0 13 -4.5 18.5t-17.5 12.5t-34.5 21t-38 23.5t-23.5 11.5q-10 3 -15.5 7t-14.5 4q-29 0 -29 -20q0 -12 12.5 -26t30.5 -21zM314 200q0 -1 3 -15t6 -37t3 -45q0 -9 -2 -15q-5 -17 18 -30q19 -9 20 2q0 6 10 10q8 2 8 22q0 35 -5 56.5t-5 43.5q0 13 -12.5 25
t-24.5 12q-19 0 -19 -29z" />
</svg>
