<?xml version="1.0" standalone="no"?>
<!DOCTYPE svg PUBLIC "-//W3C//DTD SVG 1.1//EN" "http://www.w3.org/Graphics/SVG/1.1/DTD/svg11.dtd" >
<svg xmlns="http://www.w3.org/2000/svg" xmlns:xlink="http://www.w3.org/1999/xlink" version="1.1" viewBox="-10 0 839 1000">
   <path fill="currentColor"
d="M336 618q-6 0 -23 -8t-23 -8q-7 0 -35.5 -15t-28.5 -19q0 -2 -9.5 -6t-9.5 -10q0 -7 -3 -7q-5 0 -19 -24q-15 -26 -17 -66t-7 -52q-4 -13 0 -19q3 -4 14.5 -51t16.5 -55q4 -6 4.5 -8.5t-2 -5.5t-10.5 -9q-9 -7 -25.5 -23t-29.5 -27.5t-20 -13.5q-16 -5 -32 -14
q-13 -7 -16.5 -12t-3.5 -17q0 -20 6 -25.5t27 -5.5h4q22 0 26.5 8t10.5 8q4 0 14 10t24.5 23t26.5 19q30 16 37 21q13 9 25 9q15 0 25 -13q7 -8 40 -11.5t38 -7.5q7 -5 53 -5q42 0 74 11t49.5 22.5t23.5 11.5q13 0 49.5 -31t38.5 -31q4 0 4 -6q0 -2 14 -15t34.5 -26.5
t33.5 -13.5q16 0 26.5 11t10.5 24q0 22 -22 31q-11 5 -37 23.5t-30 18.5q-5 0 -12.5 11.5t-11.5 13.5q-6 3 -6 10q0 4 -3.5 6t-11 6.5t-15.5 13.5q-13 14 -8 22q30 55 30 121q0 26 -11.5 57t-21 46.5t-12.5 18.5q-4 3 -9.5 12.5t-11.5 18.5t-27.5 20.5t-55.5 18.5
q-33 7 -40 14t-8 92q-1 64 -3.5 81t-14.5 17q-5 0 -15.5 -2t-25 -11t-14.5 -23q0 -6 1 -9q3 -16 -1 -20q-5 -5 -1 -5q14 0 14 -51v-13q-3 -40 -8 -48.5t-30 -8.5q-3 0 -7.5 0.5t-6.5 0.5zM458 241h-3q-5 0 -18 -4.5t-25 -4.5q-26 0 -63 18t-46 18q-1 0 -3 -0.5t-3 -0.5h-5
q-25 0 -49 41t-24 58q0 6 4 6q5 0 5 30v10q0 30 6.5 49.5t6.5 21.5v4q0 6 13.5 15t13.5 14t9 9q16 8 25 14q23 14 99 14q32 0 38 -3q10 -4 49 -14q28 -7 36.5 -12.5t25.5 -26.5q32 -39 32 -72q0 -5 -1 -7q-1 -4 2 -14.5t-1 -10.5q-4 -3 -4 -15q0 -17 -31 -73
q-5 -10 -25.5 -28t-25.5 -18q-2 0 -17 -9t-21 -9z" />
</svg>
