<?xml version="1.0" standalone="no"?>
<!DOCTYPE svg PUBLIC "-//W3C//DTD SVG 1.1//EN" "http://www.w3.org/Graphics/SVG/1.1/DTD/svg11.dtd" >
<svg xmlns="http://www.w3.org/2000/svg" xmlns:xlink="http://www.w3.org/1999/xlink" version="1.1" viewBox="-10 0 468 1000">
   <path fill="currentColor"
d="M76 128q0 -13 1 -19t9 -12t24 -6q22 0 30 23.5t10 69.5q3 58 9 113t6 76q0 11 -3.5 21t1.5 12q4 8 4 41v20q0 59 6 107q1 5 6.5 12.5t5.5 18.5q0 6 -2 22t-12 37t-26 21q-12 0 -24 -12q-11 -10 -13 -26.5t-2 -88.5v-15.5v-22.5t0.5 -23t0.5 -19v-7q0 -16 -3.5 -52.5
t-4.5 -86.5q-2 -85 -12.5 -130.5t-10.5 -73.5zM295 607q0 -6 -2 -14.5t-2 -23.5q0 -44 6.5 -87t6.5 -49q0 -55 -9.5 -159t-16.5 -111q-3 -3 -3 -24q0 -17 1 -27t9.5 -21.5t25.5 -11.5q31 0 36 87q0 1 4 52t8 121.5t4 120.5q0 36 -6 47q-7 14 -4 17q2 2 4 29t3.5 53t3.5 26
l1 44q0 27 -8 42.5t-14 18t-11 2.5q-2 0 -5 -0.5t-10 -4.5t-12.5 -11.5t-10 -23t-4.5 -36.5q0 -13 2.5 -31.5t2.5 -24.5z" />
</svg>
