<?xml version="1.0" standalone="no"?>
<!DOCTYPE svg PUBLIC "-//W3C//DTD SVG 1.1//EN" "http://www.w3.org/Graphics/SVG/1.1/DTD/svg11.dtd" >
<svg xmlns="http://www.w3.org/2000/svg" xmlns:xlink="http://www.w3.org/1999/xlink" version="1.1" viewBox="-10 0 815 1000">
   <path fill="currentColor"
d="M454 269q-24 0 -41.5 -21.5t-17.5 -39.5q0 -20 20.5 -43t28.5 -23q3 0 12 4.5t21 23.5t12 47q0 24 -7 36.5t-13 14t-15 1.5zM89 496l1 -14q1 -15 2.5 -36.5t3.5 -45.5t3 -47t1 -36q0 -23 -3 -45t4 -22q4 0 11 -9.5t25 -9.5q12 0 19 -4t21 -4q2 0 7 0.5t8 0.5q2 0 7.5 0.5
t8.5 0.5q21 0 45 -4q22 -4 26 -6.5t6 -16.5q1 -15 1 -17t-2 -8q0 -3 2 -3q3 0 3 -11q0 -14 -4 -37t-4 -29q0 -8 5.5 -14t5.5 -10q0 -5 11 -16t21 -15q3 -1 24 -1q62 0 119 10.5t71 10.5q17 0 27 -6.5t16 -6.5q18 0 32 13t14 31q0 7 -2.5 13t-6 13.5t-10.5 34t-14 67.5
q-22 122 -20 180l1 27l28 -3l15 -3q15 -2 30.5 -4t18.5 -2q22 0 42 14l21 14l-2 42q-2 52 -2 148v22v16.5t0.5 11t0.5 6.5v2q0 42 -32 42q-20 0 -34 -15.5t-14 -29.5q0 -5 4 -9q3 -3 7 -58.5t4 -74.5q0 -66 -5 -66q-1 0 -6.5 2.5t-16 5.5t-24.5 4l-25 2l1 57q1 28 2.5 46.5
t3 24.5t1.5 7t-1.5 4.5t-1.5 8.5q0 7 9 63q2 14 0.5 18.5t-12.5 13.5q-15 13 -22 11q-12 -3 -16 -3q-8 0 -16.5 -16.5t-11.5 -18.5l-1.5 -1.5t-0.5 -1t0.5 -2t1 -4t1.5 -6.5t1.5 -9.5t1 -14.5t0.5 -20q0 -10 0.5 -21.5t0.5 -21.5t0.5 -18.5t1.5 -13.5v-5q0 -19 -8.5 -56.5
t-8.5 -68.5q0 -65 8.5 -122t8.5 -64q0 -30 3 -30q2 0 2 -5t0.5 -11.5t2.5 -9.5q3 -5 3 -35l2 -38q0 -11 -41 -18.5t-68 -7.5q-72 0 -79 5q-5 3 -5 38t-5 35q-4 0 -4 22q0 35 -5 69t-5 47v6q0 5 0.5 12.5t0.5 16.5v17.5v13.5q0 30 -2 50t-4.5 29t-2.5 12q0 4 2.5 8.5t2.5 6.5
q0 1 -1 4.5t-2.5 11.5t-1.5 20q-5 83 -6 83q-2 0 -2 20q0 29 3 34q3 6 0 11t-6 8t-1 5q1 2 1 3q0 7 -7 14t-23 7q-49 0 -49 -51q0 -12 3 -12q2 0 7.5 -9t12.5 -38t7 -70q1 -31 4.5 -62.5t3.5 -35.5t-0.5 -11t-0.5 -10q0 -12 3 -69l2 -55h-39q-40 0 -44 3q-5 4 -10 20.5
t-5 30.5v8q0 19 -6.5 35t-6.5 17q0 2 1 3q2 4 -4.5 16.5t-4.5 16.5q2 3 2 49q0 15 -0.5 38t-1.5 45t-2 42t-2 33v13q0 14 1.5 19t1.5 11q0 32 -14 43q-5 4 -16 4q-44 0 -44 -25q0 -13 1.5 -32t3.5 -37.5t3.5 -35l2.5 -27.5l2 -10q0 -12 -1.5 -36.5t-1.5 -35.5z" />
</svg>
