<?xml version="1.0" standalone="no"?>
<!DOCTYPE svg PUBLIC "-//W3C//DTD SVG 1.1//EN" "http://www.w3.org/Graphics/SVG/1.1/DTD/svg11.dtd" >
<svg xmlns="http://www.w3.org/2000/svg" xmlns:xlink="http://www.w3.org/1999/xlink" version="1.1" viewBox="-10 0 795 1000">
   <path fill="currentColor"
d="M275 436q0 -4 2.5 -13t2.5 -13q0 -7 -4 -11t-10.5 -6.5t-7.5 -3.5q-10 -7 -39 -17q-19 -7 -26.5 -12t-17.5 -17q-17 -23 -27 -23q-5 0 -10.5 -4.5t-10 -12.5t-8 -15.5t-8 -18t-7.5 -15.5q-9 -18 -9 -44q0 -8 0.5 -23t0.5 -27q0 -14 3.5 -22.5t19.5 -30.5q17 -23 30 -32.5
t32 -16.5q10 -3 16 -3q56 0 114 23q27 11 39 20.5t30 34.5l11 17l38 -35q30 -27 57 -36.5t75 -9.5q4 0 7.5 0.5t5.5 0.5h3q6 7 17 7q13 0 40 17t40 35l17 23l-2 37q-1 8 -1.5 15t-1.5 11.5t-3 10.5t-2.5 8.5t-3.5 8.5t-3.5 7.5t-4.5 8t-5 8.5q-12 20 -21 29.5t-24.5 19
t-26.5 18.5l-19 13q-9 2 -18 9.5t-20 10.5l-23 7l3 28q2 17 7 34.5t7 42.5q4 43 9 52q2 4 -1 9q-5 6 -5 30q0 32 -8 40q-6 5 -6 19q0 6 -7 12.5t-7 17.5q0 19 -57 53q-27 16 -54 16t-39 -10q-21 -14 -25 -15q-11 -4 -29.5 -33t-18.5 -43q0 -1 0.5 -3t0.5 -5q0 -9 -5.5 -39
t-5.5 -39t2.5 -40t2.5 -42q0 -4 -0.5 -12t-0.5 -11zM274 125q-27 -9 -65 -9q-22 0 -31 5.5t-19 23.5q-10 20 -10 34q0 59 51 102q19 16 45 28t43 12q15 0 25.5 -20t18 -49.5t10.5 -35.5q7 -11 7 -22q0 -12 -28.5 -37.5t-46.5 -31.5zM457 247q0 10 7 15.5t7 6.5
q0 15 5.5 27.5t16.5 12.5q17 0 30 -11q12 -10 74 -50q10 -6 10 -18l1 -3q5 -1 10.5 -12.5t9.5 -23.5l5 -12q4 -5 4 -14q0 -16 -17 -18q-5 -2 -13 -9q-13 -13 -64 -13q-29 0 -66 18.5t-37 47.5q0 17 10 37q7 16 7 19zM416 315q0 -7 -6 -20t-11.5 -21.5t-6.5 -9.5h-3
q-8 0 -17.5 26.5t-9.5 34.5q0 7 10 7q13 0 28.5 -4.5t15.5 -12.5zM405 658q30 0 50.5 -46t20.5 -90q0 -18 -5.5 -42t-5.5 -39q-2 -50 -36 -50q-8 0 -30 6t-31 6h-12q-16 0 -19 18q-3 19 -3 60q0 40 1.5 62.5t7.5 53.5t21.5 46t40.5 15z" />
</svg>
