<?xml version="1.0" standalone="no"?>
<!DOCTYPE svg PUBLIC "-//W3C//DTD SVG 1.1//EN" "http://www.w3.org/Graphics/SVG/1.1/DTD/svg11.dtd" >
<svg xmlns="http://www.w3.org/2000/svg" xmlns:xlink="http://www.w3.org/1999/xlink" version="1.1" viewBox="-10 0 614 1000">
   <path fill="currentColor"
d="M159 242q13 0 18 4t14 4q19 0 37 -9.5t21 -9.5q6 0 15 -9q8 -10 5 -34q-2 -18 -7.5 -26t-31.5 -31q-46 -41 -46 -55q0 -13 18 -24t31 -11q5 0 9 4q2 2 3 1.5t3 -3.5q3 -5 23.5 -13.5t30.5 -8.5q4 0 9 2.5t12 3.5q33 3 54.5 9t27.5 10.5t10 8t6 3.5q12 0 31.5 29t30.5 62
q3 8 3 41q0 78 -22 102q-10 11 -10 15q0 7 -19 32q-17 22 -37 37t-38 24t-21 11l-14 11l9 18q26 50 36 61q6 6 9 15.5t6 14.5t9 5q5 0 6 1.5t0 4t1 8t8 12.5q12 12 12 17q37 74 63 100q40 40 40 55q0 9 7 11q5 2 10.5 18.5t5.5 31.5q0 20 -28 20q-1 0 -14.5 -3.5t-36.5 -3.5
q-18 0 -30 2t-16.5 4t-6.5 2q-1 0 -5 -2q-7 -4 -132.5 -8.5t-135.5 -7.5q-3 -1 -26 -1q-14 0 -31.5 -12t-17.5 -29q0 -10 8 -26.5t8 -21.5q0 -3 9 -14.5t20.5 -27.5t16.5 -27q6 -12 14.5 -18t17.5 -23q30 -54 53 -78q36 -37 39 -78l2 -21l-22 -7q-13 -4 -24 -10t-16.5 -9.5
t-7.5 -3.5q-3 0 -22 -13.5t-26 -15.5q-4 -1 -6 -3.5t-2 -5.5t-3 -9.5t-10 -13.5q-21 -22 -21 -38q0 -27 20.5 -38.5t43.5 -11.5zM285 293q-9 0 -9 3q0 4 -21.5 12t-31.5 8q-7 0 -7 4q0 5 8 11.5t26 11.5t40 5q29 0 71 -28q27 -18 43 -52l2 -6q3 -6 6.5 -14.5t7.5 -19
t6.5 -21t2.5 -17.5q0 -11 -12 -36q-9 -20 -16 -30.5t-25.5 -20.5t-46.5 -10q-23 0 -23 9q0 3 4 7q10 8 17 35.5t7 56.5q0 41 -12 58q-24 34 -37 34zM174 726l11 1q11 1 28.5 3t37 4t41 3t36.5 1q13 0 63 -4.5t50 -10.5q0 -1 -5.5 -4t-5.5 -8q0 -12 -18.5 -34t-24.5 -33
q-6 -12 -17.5 -24.5t-21.5 -28.5q-15 -22 -17 -22l-15 -26q-14 -26 -22 -26q-3 0 -38 50.5t-35 54.5q0 10 -8 20t-8 13q0 6 -10 14q-8 7 -22.5 29t-14.5 27q0 2 2 2l4 -1h10z" />
</svg>
