<?xml version="1.0" standalone="no"?>
<!DOCTYPE svg PUBLIC "-//W3C//DTD SVG 1.1//EN" "http://www.w3.org/Graphics/SVG/1.1/DTD/svg11.dtd" >
<svg xmlns="http://www.w3.org/2000/svg" xmlns:xlink="http://www.w3.org/1999/xlink" version="1.1" viewBox="-10 0 899 1000">
   <path fill="currentColor"
d="M448 226h33q39 0 39 -4q0 -5 10 -5q11 0 46.5 12.5t38.5 17.5t3 22q0 10 -5 18t-11.5 11.5t-14.5 6t-12 3t-5 0.5q-7 0 -21 -10q-12 -9 -22.5 -11t-42.5 -2q-44 0 -54 6t-16 6q-7 0 -14 4.5t-19 6.5q-26 5 -82 37.5t-56 50.5q0 5 -8.5 15.5t-17.5 32t-9 52.5q0 65 33 101
q25 28 52 52t36 26t15 6.5t16 4.5q11 0 27 8.5t39 8.5q6 0 39.5 -1t74.5 -4t48 -7q9 -5 18 -7q6 -2 10.5 -11.5t9.5 -7.5q6 2 18 -5t12 -13l6 -17q7 -16 13.5 -38.5t6.5 -35.5q0 -10 -11 -31t-11 -24q0 -8 -34 -38t-43 -30q-5 0 -10 -3t-10.5 -6.5t-24.5 -7t-50 -5.5l-51 -3
l-30 17q-37 22 -45.5 31.5t-15.5 42.5l-6 27l15 19q15 19 15 23q0 1 4.5 6.5t16.5 11.5t26 6q47 0 69 -18q22 -19 22 -32q0 -14 -15.5 -24t-34.5 -14t-34.5 -12t-15.5 -19q0 -16 12.5 -25.5t31.5 -9.5q20 0 41 14.5t25 15.5q10 3 31 30.5t21 47.5q0 11 -8.5 30t-8.5 23
t-18 19.5t-23 15.5q-4 0 -25 12t-36 12q-18 0 -34.5 -3t-26.5 -6.5t-12 -3.5h-1q-4 1 -6.5 0t-7 -5t-10.5 -6q-9 -3 -20.5 -19.5t-18.5 -20.5q-10 -7 -10 -14q0 -5 -13 -33.5t-13 -36.5q0 -1 1.5 -4t3.5 -9.5t3 -16.5q3 -26 27 -55.5t50 -39.5q11 -4 22 -14.5t28 -18
t48 -7.5q113 0 189 59q23 18 46.5 44t31.5 43q23 48 23 82q-14 35 -21 77q0 2 -6.5 12.5t-22.5 28t-38.5 33.5t-60.5 27.5t-82 11.5q-15 0 -28 7t-14 7t-3 -2q-1 -1 -62 -13t-70 -13q-30 -3 -30 -9q0 -12 -23 -12q-9 0 -9 -5q0 -4 -9 -8q-17 -7 -46 -40t-33 -50
q-3 -14 -7 -14t-4 -12q0 -11 -4 -11q-5 0 -10 -20t-5 -38q0 -15 -3 -21.5t-3 -11.5q0 -18 8 -49t14 -35q7 -5 27 -44q18 -35 25.5 -44t28.5 -19q9 -4 36.5 -24t52.5 -25q28 -4 54 -25q7 -6 45 -6zM86 86q0 -8 10.5 -18t22.5 -10q15 0 36.5 20.5t37.5 42.5t18 23q5 2 10.5 19
t5.5 29q0 25 -21 25q-16 0 -23.5 -5t-15.5 -22q-11 -22 -17.5 -30t-41.5 -42q-22 -21 -22 -32zM662 179q-20 0 -20 -21q0 -15 9 -29.5t21 -14.5t12 -4q0 -2 5 -5t13 -9t14 -15q16 -27 54 -27q20 0 25 5t5 22q0 10 -4.5 15.5t-21.5 17.5q-21 14 -36 26q-51 39 -76 39z
M434 115q0 34 -5 46.5t-23 12.5q-24 0 -29 -12q-5 -13 -5 -71q0 -25 5 -33t21 -10q25 -3 31 7q5 8 5 60z" />
</svg>
