<?xml version="1.0" standalone="no"?>
<!DOCTYPE svg PUBLIC "-//W3C//DTD SVG 1.1//EN" "http://www.w3.org/Graphics/SVG/1.1/DTD/svg11.dtd" >
<svg xmlns="http://www.w3.org/2000/svg" xmlns:xlink="http://www.w3.org/1999/xlink" version="1.1" viewBox="-10 0 789 1000">
   <path fill="currentColor"
d="M141 497q0 -3 -12.5 -29t-25 -61.5t-12.5 -61.5q0 -9 1 -13q2 -8 -1 -13t-3 -7q0 -13 12 -29.5t33 -19.5q1 0 8 -0.5t13 -0.5q46 0 84 3t100 3q274 0 323 -8h1q12 0 20.5 11t8.5 18q0 1 -0.5 2t-0.5 3t6 12t6 25q0 19 -12 52.5t-13 44.5q-1 13 -11 28.5t-10 17.5t-7 10
t-7 15q0 10 -31 44.5t-38 34.5q-6 0 -29 13t-28 13q-22 2 -45.5 11.5t-48.5 9.5q-90 0 -111 -11q-7 -4 -39 -20q-49 -24 -81.5 -48.5t-41 -35t-8.5 -13.5zM605 337q-4 -3 -84.5 -4t-176.5 -1.5t-123 -2.5q-28 -2 -40 -2q-19 0 -24 2t-5 9q0 8 1 14q4 35 13 58t15.5 32
t6.5 13q0 10 27.5 32t68.5 43q55 30 128 30q16 0 38 -7q66 -20 88 -35t66 -71q15 -19 25.5 -44.5t10.5 -42.5q0 -18 -18 -19q-9 0 -17 -4z" />
</svg>
