<?xml version="1.0" standalone="no"?>
<!DOCTYPE svg PUBLIC "-//W3C//DTD SVG 1.1//EN" "http://www.w3.org/Graphics/SVG/1.1/DTD/svg11.dtd" >
<svg xmlns="http://www.w3.org/2000/svg" xmlns:xlink="http://www.w3.org/1999/xlink" version="1.1" viewBox="-10 0 738 1000">
   <path fill="currentColor"
d="M356 688q-17 0 -27 -11t-11.5 -18.5t-1.5 -11.5q0 -10 12.5 -33t19.5 -26q9 -3 29 2t25 18q1 2 13 16.5t12 30.5q0 9 -7.5 16t-17 10t-21.5 5t-17 2h-8zM508 191q6 0 21 -1t31 -2t31.5 -2t26.5 -2l10 -1q13 0 22.5 22t9.5 31q0 8 -6 14.5t-5 10.5l1 1v3q0 20 -17 63
t-34.5 79t-17.5 38q0 7 -7 7q-4 0 -12.5 8.5t-21 19.5t-23.5 16q-75 33 -97 33q-3 0 -30 -4t-66 -12t-64 -15q-15 -4 -39 -16t-27 -17q-2 -4 -12 -4q-9 0 -9 -5q0 -6 -9.5 -15.5t-17.5 -12.5q-11 -4 -27 -27.5t-19 -40.5q-2 -13 -8 -27.5t-7 -26.5q-2 -14 -10.5 -45.5
t-8.5 -39.5q0 -13 21.5 -30t45.5 -17q8 0 12 1q15 4 129.5 8t119.5 7q4 2 7 2q2 0 12 -2.5t20 -2.5t32.5 2t42.5 2zM526 252q-34 -1 -92.5 -3t-100.5 -4l-42 -2q-141 0 -147 6q-1 1 -1 5t2.5 23t10.5 46.5t18 38.5q10 10 15 22q2 8 21.5 21.5t28.5 13.5q4 0 14.5 7.5
t35.5 13.5q102 25 110 25q9 0 25 -2t42 -11t41 -22q8 -7 29.5 -40.5t30.5 -50.5q11 -24 11 -55q0 -21 -8.5 -26t-43.5 -6z" />
</svg>
