<?xml version="1.0" standalone="no"?>
<!DOCTYPE svg PUBLIC "-//W3C//DTD SVG 1.1//EN" "http://www.w3.org/Graphics/SVG/1.1/DTD/svg11.dtd" >
<svg xmlns="http://www.w3.org/2000/svg" xmlns:xlink="http://www.w3.org/1999/xlink" version="1.1" viewBox="-10 0 786 1000">
   <path fill="currentColor"
d="M100 145q0 -26 33 -26q14 0 29.5 11t23.5 21t8 11q0 2 27 42.5t31 40.5q3 0 8 9t12 20.5t13 16.5q7 6 21.5 24t14.5 21q0 4 10.5 15t14.5 11t15 -14.5t11 -19.5q0 -6 18 -41.5t23 -39.5q4 -3 4 -11t11 -21q10 -12 23.5 -37.5t25.5 -37.5q11 -11 17.5 -14t23.5 -3h26l3 20
q2 13 0 18.5t-11 14.5q-14 14 -14 18q0 2 -32 51t-32 57q0 10 -10 20t-10 15q0 7 -5 7t-14 20q-7 15 -19 37l-10 17l20 32q9 16 18 27t14.5 15t10 8t5.5 7q7 22 53 77t57 55q4 0 14 -11t10 -15t10.5 -9.5t16.5 -18.5q8 -17 28.5 -35.5t31.5 -18.5q35 0 35 33q0 15 -10 26.5
t-19 16t-11 4.5q-7 0 -7 9q0 4 -1 6t-4.5 7t-9 12t-16.5 25.5t-25 43.5q-8 15 -14 19t-24 4q-41 0 -51 -29q-4 -12 -9 -18.5t-18 -22.5t-30 -43q-8 -13 -16.5 -22.5t-13.5 -13t-8 -7t-3 -7.5q0 -6 -14 -25.5t-20 -21.5q-4 -2 -4 -7q0 -4 -18 -26l-19 -21l-10 11q-9 13 -9 17
q0 3 -12 21t-12 29q0 13 -4 13t-16 31.5t-12 36.5q0 12 -15.5 50.5t-20.5 39.5q-7 2 -7 6t-13 4.5t-21 -2.5q-6 -2 -21 -22.5t-15 -25.5q0 -4 -51 -53l-51 -49l5 -19q4 -14 10.5 -19.5t23.5 -5.5q10 0 22.5 10t12.5 18q0 5 7 11t20.5 16t23.5 19q15 15 22 15q4 0 21.5 -33
t17.5 -40q0 -6 29 -63.5t29 -65.5q0 -11 -28.5 -48t-32.5 -46q-4 -8 -16 -16t-18 -20q-5 -9 -14.5 -19.5t-16 -17.5t-6.5 -9t-7.5 -8.5t-17.5 -17t-15 -20.5q-8 -17 -12 -17q-5 0 -12 -14.5t-7 -24.5z" />
</svg>
