<?xml version="1.0" standalone="no"?>
<!DOCTYPE svg PUBLIC "-//W3C//DTD SVG 1.1//EN" "http://www.w3.org/Graphics/SVG/1.1/DTD/svg11.dtd" >
<svg xmlns="http://www.w3.org/2000/svg" xmlns:xlink="http://www.w3.org/1999/xlink" version="1.1" viewBox="-10 0 534 1000">
   <path fill="currentColor"
d="M443 696q0 4 1 9t1 10q0 21 -14 38t-49 17q-17 0 -95 -25l-23 -7l-9 12q-32 44 -59 44q-17 0 -52 -22q-34 -23 -42 -40t-8 -68q0 -45 4 -55.5t4 -17.5q0 -5 14 -13t22 -8q6 0 15 10t9 21q0 8 -5 37t-5 43q0 20 10 32.5t18 15t11 2.5q1 0 4 -1t8.5 -5t10 -11.5t8 -23.5
t3.5 -37q0 -35 3 -40q3 -4 22 -10q13 -4 17.5 -3t13.5 10q10 10 12.5 22.5t4.5 13.5q3 2 7 16q3 13 25.5 29.5t35.5 16.5q19 0 19 -37q0 -28 -9.5 -55t-9.5 -33q0 -15 13.5 -26t25.5 -11q8 0 16.5 9.5t12.5 23.5q5 19 5.5 36.5t1 26.5t3.5 13q3 5 3 11q0 4 -2 14.5t-2 15.5z
M317 451q-5 0 -10 -3t-16 -3q-9 0 -18 -9t-9 -18q0 -2 0.5 -3t1.5 -2.5t2 -6t2 -11t1.5 -20.5t0.5 -33q0 -70 -7 -129t-7 -73q0 -40 -2 -40q-4 0 -4 -14q0 -29 21 -41q13 -8 33 2q19 9 19 25l-3 12q-2 2 -2 32q0 10 1 42.5t5.5 79.5t10.5 59q5 5 1.5 8t-3.5 20q0 16 2 49
t2 44q0 33 -22 33z" />
</svg>
