<?xml version="1.0" standalone="no"?>
<!DOCTYPE svg PUBLIC "-//W3C//DTD SVG 1.1//EN" "http://www.w3.org/Graphics/SVG/1.1/DTD/svg11.dtd" >
<svg xmlns="http://www.w3.org/2000/svg" xmlns:xlink="http://www.w3.org/1999/xlink" version="1.1" viewBox="-10 0 688 1000">
   <path fill="currentColor"
d="M309 576q13 0 19 -3.5t12 -3.5q8 0 8 -16q0 -5 -4 -39.5t1 -34.5q4 -12 4 -65q0 -23 1 -43t2 -30.5t1.5 -18.5t0 -11.5t-2.5 -4.5q-4 -2 -4 -45q0 -16 -2.5 -23.5t-4.5 -7.5t-3 -5.5t2 -15.5q4 -16 4 -34q0 -22 -10.5 -40t-10.5 -28q0 -11 8 -28t15 -22q30 -14 46 16
q10 19 13 140t3.5 231t4.5 110t17.5 -2.5t37.5 -12t39 -24.5t27 -34t12 -27q0 -1 0.5 -2.5t2 -4.5t4 -5t7.5 -1.5t11 4.5q12 8 20 6q3 -1 5 0t4 8t2 21q0 32 -20 52q-32 32 -42 32q-5 0 -11 7.5t-6 13.5q0 4 -0.5 5t-2 1t-4.5 -0.5t-7.5 -1t-12.5 2t-17 7.5q-24 12 -33 12
q-29 0 -29 49q0 33 10 59.5t10 37.5q0 20 -12.5 37.5t-23.5 17.5q-5 0 -13.5 -2.5t-21.5 -16t-13 -36.5q0 -2 0.5 -13t1 -29.5t0.5 -36.5q0 -30 -1 -31q-2 -2 -67.5 -6.5t-75.5 -15.5q-7 -9 -17 -9q-9 0 -9 -5t-9 -5q-10 0 -10 -4q0 -2 -18.5 -11.5t-36.5 -32.5t-18 -58
q0 -28 6.5 -51t13 -35.5t6.5 -15.5t1 -4l2.5 -2.5t6.5 -8.5t12 -18q4 -6 12 -18.5t10 -16.5q15 -22 15 -35v-5q-2 -5 3 -9.5t5 -12.5q0 -16 -14 -33q-9 -10 -16.5 -12.5t-38.5 -5.5q-40 -4 -53 -8.5t-13 -16.5q0 -18 25.5 -28t54.5 -10q9 0 15.5 3.5t23.5 3.5q23 0 39 16
q14 14 29 42t15 40q0 1 -4 19t-10.5 41t-12.5 32q-8 13 -8 25q0 11 -9 13q-7 1 -18 19t-11 27q0 7 -6 7q-12 0 -12 40q0 22 14 37t31.5 24t20.5 13q5 7 32.5 13.5t49.5 6.5z" />
</svg>
