<?xml version="1.0" standalone="no"?>
<!DOCTYPE svg PUBLIC "-//W3C//DTD SVG 1.1//EN" "http://www.w3.org/Graphics/SVG/1.1/DTD/svg11.dtd" >
<svg xmlns="http://www.w3.org/2000/svg" xmlns:xlink="http://www.w3.org/1999/xlink" version="1.1" viewBox="-10 0 882 1000">
   <path fill="currentColor"
d="M227 404q0 -10 -41.5 -30t-83.5 -43.5t-42 -41.5q0 -10 12 -24t20 -14q2 0 12.5 3t23 9.5t15.5 12.5q3 7 13.5 12t26 11t24.5 11q17 8 35 15q16 5 20 4.5t12 -11.5q11 -15 11 -18q0 -2 11.5 -20t11.5 -25t12 -28t14 -30q4 -13 7 -13t17 -28.5t14 -34.5q0 -2 4.5 -9.5
t18 -16.5t30.5 -9q16 0 29.5 6t13.5 14q0 5 18.5 31.5t18.5 30.5q0 3 9.5 13.5t11.5 21.5q2 10 13 26.5t20 35.5q13 27 17 27t4 7q0 4 6.5 9.5t16.5 5.5q23 0 70 -34.5t62 -34.5q9 0 25 6.5t16 16.5q0 4 -3 10l-4 8t2 5q5 2 5.5 8.5t-5.5 6.5q-4 0 -29 11.5t-28 11.5
q-12 0 -61 41l-18 15l9 15q60 103 63 103q1 0 2 0.5t2 2t2 3.5t4 6.5t6.5 10t10.5 13.5t15 18q22 26 31.5 46t15.5 29q14 20 14 38q0 21 -14 21q-6 0 -12.5 6.5t-37.5 6.5q-24 0 -56 5t-37 5h-1l-24 1q-23 1 -59 3t-75.5 3.5t-78.5 2.5t-63 1q-15 0 -30.5 -0.5t-28.5 -1.5
t-25.5 -2t-22.5 -1.5t-17.5 -1.5t-11.5 -2h-4q-20 0 -45 16.5t-29 16.5q-3 0 -12 -2t-20.5 -11.5t-11.5 -24.5q0 -9 17 -61t27 -68q9 -13 9 -24v-6q0 -4 4 -5q6 -2 36 -62.5t32 -61.5q8 -5 8 -19zM397 654q39 0 73.5 -1t59 -2t45 -3t34 -3.5l22.5 -2.5t13 -2l5 -1
q13 0 37.5 -7t24.5 -11q0 -8 -16 -32t-36 -51t-24 -35q-10 -19 -17.5 -31.5t-10.5 -17l-6 -9t-5 -12.5q-4 -14 -21.5 -34t-17.5 -25q0 -8 -12 -26.5t-27 -39.5t-20 -30q-5 -10 -15.5 -25.5t-17.5 -26t-7 -13.5t-3.5 -6t-9.5 -10t-10 -16l-7 -16l-11 11q-10 10 -10 21
q0 7 -5 13t-5 11t-14 24t-14 25q0 8 -4 10q-5 3 -18 31.5t-13 35.5q0 6 -6 9t-6 8q0 8 -14 32.5t-20 26.5q-8 4 -8 7q0 7 -47 101t-47 109q0 7 5 10.5t10 -1.5q3 -3 4 -3t5.5 2t16 3.5t29.5 1.5h19h19t31 0.5t33.5 0.5h27.5h11z" />
</svg>
