<?xml version="1.0" standalone="no"?>
<!DOCTYPE svg PUBLIC "-//W3C//DTD SVG 1.1//EN" "http://www.w3.org/Graphics/SVG/1.1/DTD/svg11.dtd" >
<svg xmlns="http://www.w3.org/2000/svg" xmlns:xlink="http://www.w3.org/1999/xlink" version="1.1" viewBox="-10 0 881 1000">
   <path fill="currentColor"
d="M68 602q0 -16 7.5 -25.5t13.5 -11t11 -1.5q15 0 21 15t10 72q5 60 5 75q0 23 -7 29.5t-7 9.5q0 7 -10.5 11t-18.5 -1q-16 -9 -16 -27l3 -6q2 -6 2 -27q0 -30 -7 -63.5t-7 -49.5zM218 603q0 -8 -2.5 -9t-2.5 -6q0 -10 8 -22t18 -12q12 0 24 13t15.5 29t4.5 69q1 55 6 68
t5 19q0 23 -12 38q-6 7 -10 8t-17 -3l-19 -5l-1 -42q-1 -29 -5.5 -59t-4.5 -35q0 -4 1 -7t1 -6q0 -7 -4.5 -21.5t-4.5 -16.5zM390 772q-13 0 -23 -24.5t-11 -24.5q-2 0 -2 -16.5t-3.5 -49.5t-12.5 -64q-6 -20 4 -34t25 -14q17 0 22 7q12 14 16.5 79.5t6.5 68.5q5 12 5 24
q0 48 -27 48zM494 316q0 -3 3.5 -5.5t3.5 -6.5q0 -6 15.5 -13.5t24.5 -7.5q12 0 24.5 17t12.5 28q0 13 -16.5 24.5t-26.5 11.5q-5 0 -12 -5.5t-14 -5.5q-5 0 -5.5 -0.5t-0.5 -4.5q0 -3 -4.5 -15.5t-4.5 -16.5zM448 372q-4 0 -10.5 1.5t-7.5 1.5q-12 0 -26.5 -16t-14.5 -29
t16.5 -28.5t27.5 -15.5q3 0 9 2t14 14.5t8 32.5q0 37 -16 37zM232 67q5 0 8.5 3t9.5 3q5 0 32.5 -3.5t49.5 -3.5q18 0 59 1.5t59 1.5q22 0 42.5 -5t37.5 -5q8 0 32 18t24 25q0 4 9 14t9 17q0 6 10 16.5t25.5 30.5t25.5 44q14 31 20 40.5t19 19.5q18 14 18 22q0 6 18 25
t36.5 43.5t18.5 44.5q0 7 -1 10t-1 6q0 7 6 18t6 21q0 15 -8 22q-19 17 -133 17q-48 0 -72 -2l-47 -4l-3 19q-3 14 6.5 90.5t9.5 100.5q0 45 -7 50q-11 6 -20 6q-45 0 -45 -49q0 -9 1.5 -24.5t1.5 -19.5l-5 -42q-6 -43 -11.5 -88.5t-5.5 -54.5q0 -22 5.5 -27.5t5.5 -10.5
q0 -11 10 -14t33 -3q46 0 75 5.5t40 5.5q30 0 60 -6.5t30 -13.5q0 -4 -16 -24.5t-19 -28.5q-3 -10 -15 -29t-16 -19q-2 0 -18.5 -23t-21.5 -26q-6 -4 -6 -12q0 -7 -12 -21t-12 -18q0 -6 -44.5 -56t-56.5 -50q-3 0 -4.5 0.5t-2 1.5t-1.5 2t-6 2t-13 2t-24.5 1.5t-38.5 0.5
q-150 0 -178 -11q-17 -7 -17 -22q0 -12 9 -23t19 -11z" />
</svg>
