<?xml version="1.0" standalone="no"?>
<!DOCTYPE svg PUBLIC "-//W3C//DTD SVG 1.1//EN" "http://www.w3.org/Graphics/SVG/1.1/DTD/svg11.dtd" >
<svg xmlns="http://www.w3.org/2000/svg" xmlns:xlink="http://www.w3.org/1999/xlink" version="1.1" viewBox="-10 0 692 1000">
   <path fill="currentColor"
d="M169 387q0 47 -49 47q-8 0 -16 -5.5t-17 -5.5q-20 0 -20 -28q0 -16 4.5 -25t19.5 -27q14 -17 25 -17q53 0 53 61zM226 368q0 -22 12 -36.5t29 -14.5q19 0 36 18q15 15 15 43q0 25 -10.5 34t-38.5 9q-27 0 -32 -5q-11 -11 -11 -48zM374 536q7 0 18 3t20 3q10 0 46.5 -7
t46.5 -15q7 -5 7 -8.5t-6 -17.5q-9 -19 -12 -19q-2 0 -7.5 -9.5t-13.5 -23t-14 -20.5q-8 -8 -26.5 -43.5t-21.5 -39.5q-30 -34 -30 -54q0 -5 -1 -7.5t-4 -5.5t-11 -15.5t-18 -31.5q-8 -16 -15.5 -29t-12 -19.5t-7.5 -11t-4 -7t-1 -4.5q0 -3 -18.5 -32.5t-18.5 -46.5
q0 -11 6.5 -18.5t18.5 -7.5q33 0 47 24q23 34 34.5 65t30.5 65q14 24 37 70q13 27 25 45.5t18 24.5t9 10t3 8q0 3 2 5t9 11t15 25q10 20 20 33t13 21q6 12 33.5 43.5t27.5 56.5q0 18 -10 25t-35 7q-11 0 -51.5 12t-113.5 12q-19 0 -39 -1t-26 -1q-24 0 -46 5t-33 5h-15l3 55
q4 81 4 85q0 40 -25 40q-9 0 -19.5 -4.5t-17 -9t-6.5 -5.5q0 -2 -7 -61t-7 -74q0 -6 -4 -27t-4 -31q0 -22 14 -31t48 -9q7 0 17.5 0.5t18.5 0.5q20 0 30.5 -3t17.5 -3h17q11 0 24 -3.5t20 -3.5z" />
</svg>
