<?xml version="1.0" standalone="no"?>
<!DOCTYPE svg PUBLIC "-//W3C//DTD SVG 1.1//EN" "http://www.w3.org/Graphics/SVG/1.1/DTD/svg11.dtd" >
<svg xmlns="http://www.w3.org/2000/svg" xmlns:xlink="http://www.w3.org/1999/xlink" version="1.1" viewBox="-10 0 952 1000">
   <path fill="currentColor"
d="M463 763q-3 0 -11 -3.5t-16 -3.5t-22 -8.5t-20 -8.5q-8 0 -25 -11t-17 -16q0 -4 -7 -12.5t-9 -20.5t-9.5 -21t-7.5 -12q0 -5 -2 -7t-4 -3t-4 -9t-2 -25q0 -46 4.5 -74t10 -38t16.5 -25q19 -27 19 -32q0 -11 50.5 -57t79.5 -46q16 0 42 17q22 14 37 33.5t42 70.5
q32 60 32 90q0 9 -3.5 52.5t-7.5 44.5q-5 2 -5 11q0 6 -5 11q-1 1 -1 12t-59 56q-32 24 -50 24q-14 0 -28 5.5t-18 5.5zM367 581q0 7 4.5 22.5t4.5 22.5q0 4 25 31l26 28h37q35 -1 60 -17t25 -20q0 -2 9.5 -6.5t9.5 -14.5q0 -2 5.5 -19t5.5 -44q0 -64 -20 -79
q-11 -8 -27 -38.5t-35 -38.5q-19 -7 -24 -7q-9 0 -17 8.5t-44 55.5q-37 48 -37 77q0 13 -4 23.5t-4 15.5zM785 419q0 1 1 4t1 4t-2 4.5t-4 11t-2 20.5q-3 132 -24 137q-9 2 -9 7q0 2 -7 2q-49 0 -49 -32q0 -13 9 -33q14 -28 19 -84.5t9 -61.5q2 -3 6 -28t8 -29
q5 -6 12.5 -50t11.5 -48t4 -14q0 -6 10 -28.5t12 -43.5q3 -41 12.5 -58t30.5 -17q17 0 34.5 17.5t17.5 27.5q0 7 -8 9q-7 2 -21 29t-15 42q-1 9 -21.5 80t-21.5 79q-2 17 -5.5 29t-6 17t-2.5 7zM56 89q0 -14 10 -24.5t22 -10.5q20 0 34 29.5t14 43.5q0 11 47 124.5t47 120.5
q0 11 5 19l9 18q3 6 8 46t10 51q4 8 6 25t3.5 37t1.5 24q1 8 -2.5 10t-22.5 2q-26 0 -31 -5q-4 -4 -7.5 -34.5t-4.5 -32.5q-1 -1 -9 -46.5t-21 -97t-27 -68.5q-3 -4 -14.5 -31.5t-11.5 -29.5q0 -5 -8 -23.5t-8 -22.5q0 -9 -6 -12t-6 -7q0 -3 -19 -45.5t-19 -59.5z" />
</svg>
