<?xml version="1.0" standalone="no"?>
<!DOCTYPE svg PUBLIC "-//W3C//DTD SVG 1.1//EN" "http://www.w3.org/Graphics/SVG/1.1/DTD/svg11.dtd" >
<svg xmlns="http://www.w3.org/2000/svg" xmlns:xlink="http://www.w3.org/1999/xlink" version="1.1" viewBox="-10 0 847 1000">
   <path fill="currentColor"
d="M124 686q-14 0 -25 -9.5t-11 -16.5q0 -10 9 -27.5t16 -19.5q6 -2 18.5 -15t25.5 -18q15 -6 31.5 -17t29.5 -20.5t14 -10.5q7 -4 7 -27q0 -28 -2.5 -47.5t-5.5 -25.5l-5.5 -11t-2.5 -8q0 -6 9 -32t9 -34q0 -10 5.5 -15t7.5 -16t19.5 -29t17.5 -28q0 -13 -23.5 -41.5
t-42.5 -42.5q-33 -23 -33 -53q0 -22 22 -22q19 0 47 29.5t49 59t23 29.5t4.5 0.5t3.5 0.5q7 0 19 -4.5t29 -4.5q35 0 59 4t27 4q7 0 16.5 -2t14.5 -2q38 0 71 23q10 7 12.5 7t6.5 -6q3 -5 52.5 -57t55.5 -64q11 -26 24 -16q2 2 6 2q2 0 5 -0.5t5 -0.5q8 0 14.5 11.5
t6.5 19.5t-8.5 20.5t-8.5 19.5t-5 7q-4 0 -26 18.5t-25 18.5q-1 0 -5.5 13.5t-15 29t-25.5 20.5q-11 3 -9 10q0 2 4 2q1 0 9 12.5t17.5 36.5t12.5 47q2 19 6 34t4 22q0 20 -6 48t-13 35t-7 19q0 11 5.5 19t16 19.5t16.5 22.5q9 17 22 23q10 6 25.5 24.5t15.5 25.5
q0 2 -26 11l-22 6l-42 -41q-47 -47 -59 -47q-9 0 -40.5 14.5t-41.5 14.5q-16 0 -39 4.5t-62 4.5q-41 0 -77.5 -13t-47 -21t-16.5 -14q-4 -6 -15.5 -6.5t-13.5 5.5q-2 4 -10.5 8t-22 11t-24.5 18q-18 18 -21 18q-1 0 -23 16.5t-38 16.5zM612 509q0 -1 12 -20.5t12 -46.5
q0 -32 -11.5 -61t-22.5 -43.5t-31 -35.5q-28 -29 -41 -29q-12 0 -38 -4.5t-44 -4.5q-19 0 -41 7t-33 7q-22 1 -38.5 16t-26 33t-10.5 19q-15 13 -15 45q0 18 -5.5 31t-5.5 15q0 6 10 19q5 7 7 11t1.5 6.5t0.5 10.5t5 19q6 19 21 35.5t26 16.5q5 0 13 9t29 12q15 2 31 5.5
t23 3.5q4 0 30 -4.5t60.5 -15t44.5 -22.5q5 -7 11 -7q5 0 15.5 -11t10.5 -16z" />
</svg>
