<?xml version="1.0" standalone="no"?>
<!DOCTYPE svg PUBLIC "-//W3C//DTD SVG 1.1//EN" "http://www.w3.org/Graphics/SVG/1.1/DTD/svg11.dtd" >
<svg xmlns="http://www.w3.org/2000/svg" xmlns:xlink="http://www.w3.org/1999/xlink" version="1.1" viewBox="-10 0 836 1000">
   <path fill="currentColor"
d="M150 243q0 -5 7 -9.5t7 -8.5q0 -6 20 -25.5t26 -19.5q7 0 24 -17q22 -23 96 -47q50 -16 71 -16q16 0 35 19q18 18 25 18q3 0 3 -4q0 -7 20 -7q56 0 116 35q9 5 41 23q22 13 30 20.5t14 21.5q9 21 20 38q11 18 19 54.5t8 64.5q0 13 -3.5 34t-4.5 29q-2 20 -10 41
q-33 83 -47 88q-6 2 -20 20.5t-14 24.5t-9.5 12t-14.5 6q-14 0 -45 23q-10 8 -26 13.5t-38.5 11t-31.5 8.5q-28 8 -46 8q-42 0 -125 -18q-18 -4 -38 -14.5t-22 -16.5q-1 -7 -18 -11t-25 -12q-10 -10 -14 -10q-5 0 -15 -10t-10 -15t-9.5 -22.5t-14.5 -17.5q-2 0 -13 -19
q-10 -18 -16.5 -61t-6.5 -85q0 -33 5 -58q1 -4 2 -11.5t2 -11.5t5 -8q1 -1 9 -14t16 -25t11 -12q5 0 5 -7zM618 277h11.5t6.5 -1t4 -3t1 -5q0 -9 -9.5 -21.5t-21.5 -18.5q-19 -11 -23 -17q-5 -8 -13 -8q-7 0 -15 -4q-53 -29 -96 -29q-19 0 -37 3.5t-39 10t-26 7.5
q-10 2 -14.5 0.5t-11.5 -9.5l-10 -12l-17 12q-18 12 -21 12q-5 0 -25 18t-36 26q-11 5 -21 17t-10 18q0 13 193 13q126 0 140 -8q3 -2 34 -2q8 0 29 0.5t27 0.5zM590 355l10 -20h-50q-67 0 -67 7q0 1 25 36q24 31 33 31q8 0 23 -16t26 -38zM254 344q-23 0 -6 9q3 1 27 31
t32 30q6 0 9 -10l8 -12q9 -13 16.5 -25.5t7.5 -15.5q0 -7 -94 -7zM419 641q31 0 68.5 -11t37.5 -20q0 -4 7 -4q6 0 21.5 -7t22.5 -14q54 -46 64 -67q9 -16 9 -22t3 -7q3 -2 7.5 -18t6.5 -18q3 -4 1.5 -12.5t1.5 -10.5q2 -2 3 -16.5t2 -30.5t1 -18v-15q-1 -10 -5 -11
q-3 0 -4 4q-1 2 -1 5q0 10 -4 10q-5 0 -17 17q-39 58 -59 79q-17 18 -23.5 22.5t-18.5 4.5q-19 0 -26.5 -3t-18.5 -16q-15 -19 -15 -24q0 -4 -7.5 -8.5t-7.5 -10.5q0 -4 -5.5 -10.5t-10.5 -11.5t-14 -11l-8 -7q-9 -8 -19 -1q-13 8 -29 33q-18 27 -22 27t-11 16
q-6 15 -21.5 25t-32.5 10q-25 0 -50 -40q-6 -9 -16 -20.5t-14 -17.5q-2 -3 -19.5 -17.5t-19.5 -21.5q-4 -10 -8 -10q-7 0 -14 -7q-2 -2 -4 -2q-4 0 -4 47t4 49t4 15q0 9 5 19q3 5 8.5 20t11.5 27t12 17q12 10 22 20q15 15 36 29.5t32 16.5q14 3 14 7q0 6 44 13.5t80 7.5z
" />
</svg>
