<?xml version="1.0" standalone="no"?>
<!DOCTYPE svg PUBLIC "-//W3C//DTD SVG 1.1//EN" "http://www.w3.org/Graphics/SVG/1.1/DTD/svg11.dtd" >
<svg xmlns="http://www.w3.org/2000/svg" xmlns:xlink="http://www.w3.org/1999/xlink" version="1.1" viewBox="-10 0 727 1000">
   <path fill="currentColor"
d="M546 479q-2 0 -13.5 -8t-23 -22.5t-11.5 -27.5q0 -19 10 -41t21 -26q13 -5 25 -5q3 0 7.5 0.5t15.5 4t19.5 9t15.5 17.5t7 29q0 28 -13.5 41.5t-32.5 18t-22 7.5t-5 3zM286 416q0 -24 19.5 -45.5t36.5 -21.5q16 0 28.5 7t19 16.5t10.5 20.5t5 16.5t1 7.5q0 15 -21 35.5
t-38 20.5t-39 -15.5t-22 -41.5zM145 462q-47 0 -47 -43q0 -28 20 -51t32 -23q6 0 19.5 7t13.5 13q0 5 14.5 15.5t14.5 24.5q0 11 -7 21.5t-14 15.5t-10 5t-12.5 7.5t-23.5 7.5z" />
</svg>
