<?xml version="1.0" standalone="no"?>
<!DOCTYPE svg PUBLIC "-//W3C//DTD SVG 1.1//EN" "http://www.w3.org/Graphics/SVG/1.1/DTD/svg11.dtd" >
<svg xmlns="http://www.w3.org/2000/svg" xmlns:xlink="http://www.w3.org/1999/xlink" version="1.1" viewBox="-10 0 850 1000">
   <path fill="currentColor"
d="M93 699q0 -1 -3 -11.5t-3 -15.5q0 -10 7 -17.5t16 -12t19 -7t16 -3.5t7 -1t27.5 8t33.5 8q6 0 12 -7.5t9.5 -17t9 -22t10.5 -19.5q4 -5 6.5 -11.5t3.5 -12.5t2.5 -11.5t3.5 -11.5t6 -11q9 -13 9 -20q0 -4 1 -6t3 -4.5t6 -11t8 -21.5q15 -42 38.5 -74t29.5 -47
q5 -10 9.5 -17.5t7.5 -11.5t5.5 -6.5t3.5 -4.5t1 -5t1 -3.5t5 -0.5t21 -9t25 -9q11 0 28.5 8.5t17.5 19.5q0 4 -3 7.5t-3 5.5q0 6 7 22.5t16 34.5t17.5 32.5t10.5 16.5q5 4 9.5 18.5t9.5 18.5q6 4 6 12q0 3 7.5 11.5t9.5 21.5q4 16 6 16q3 0 8.5 11.5t11.5 26t13 28.5t12 18
q7 5 7 12q0 5 17.5 27t17.5 31q0 12 -19.5 27.5t-53.5 15.5q-13 0 -38.5 11.5t-39.5 23.5q-9 9 -25 9q-19 0 -35.5 -13.5t-16.5 -27.5q0 -9 15 -27q11 -13 20 -15t24.5 -3t33.5 -11q24 -13 28 -13q1 0 4 -1t6.5 -5t3.5 -9q0 -13 -19.5 -41.5t-22.5 -38.5q-1 -5 -4.5 -13
t-7.5 -15t-8 -12t-6 -5q-1 0 -2.5 -3.5t-4 -9.5t-5 -13t-7 -15t-9.5 -15q-9 -13 -15.5 -28.5t-13.5 -21.5q-9 -9 -9 -19q0 -14 -8 -14q-6 0 -13 7.5t-10 15.5q-2 7 -16 23t-14 19t-3 6.5t-9 14.5t-13 30q-4 13 -8.5 23.5t-7.5 16t-5 9t-2 5.5q0 1 0.5 2t0.5 2q0 2 -6.5 15
t-8.5 26q-1 8 -2.5 13.5t-2.5 7.5t-2 5t-1 8q0 11 -11 18q-4 3 -9 12t-8 20t-3 18q0 3 1 6t1 5q0 12 -14 29.5t-39 17.5q-10 0 -15.5 -3t-10.5 -5.5t-12 -2.5q-6 0 -8.5 -1.5t-11.5 -5t-26 -7.5q-59 -14 -59 -20zM722 105q5 -9 13 -8t12 11q2 5 8.5 10t11 11t4.5 16t-6.5 16
t-12.5 8l-7 1q-4 0 -11.5 4t-13.5 9.5t-6 8.5q0 4 -15 19.5t-20 15.5t-5 11q0 9 -7.5 13t-21 11.5t-24.5 23.5q-9 13 -13.5 16.5t-15.5 3.5q-13 0 -26.5 -11.5t-13.5 -24.5q0 -22 21 -38q6 -4 14.5 -12t14.5 -14t7 -6v1q0 1 1 1q4 0 16 -12t18 -22q9 -15 32.5 -34.5
t31.5 -19.5q9 0 14 -9zM250 275q-14 0 -47 -31.5t-36 -31.5q-4 0 -14.5 -9.5t-25.5 -23.5t-27 -21q-30 -20 -21.5 -41t35.5 -21q17 0 28 10.5t24.5 27.5t28.5 27q23 14 51.5 47.5t28.5 40.5q0 2 -2.5 6t-6 8.5t-8 8t-8.5 3.5z" />
</svg>
