<?xml version="1.0" standalone="no"?>
<!DOCTYPE svg PUBLIC "-//W3C//DTD SVG 1.1//EN" "http://www.w3.org/Graphics/SVG/1.1/DTD/svg11.dtd" >
<svg xmlns="http://www.w3.org/2000/svg" xmlns:xlink="http://www.w3.org/1999/xlink" version="1.1" viewBox="-10 0 872 1000">
   <path fill="currentColor"
d="M196 613q12 -7 53.5 -54t64.5 -47q12 0 24 9q8 7 9 11t-3 18t-15 24t-19.5 15t-8.5 8q0 4 -64 68l-63 64l-23 -3q-31 -4 -31 -22q0 -12 11 -28t21 -21q8 -4 18 -18.5t26 -23.5zM554 486q37 2 37 19q0 3 12 11.5t31 22t30 23.5t26 19t24 14t9 7q0 4 42 27q11 6 17 10.5
t12 15t6 25.5q0 12 -9 19t-15.5 8t-10.5 1q-26 0 -32 -13q-4 -9 -21.5 -23t-33.5 -24l-16 -10q0 -4 -7 -4t-7 -4q0 -2 -6 -5t-25 -15.5t-42 -34.5q-20 -16 -33 -25q-25 -18 -25 -33q0 -2 2.5 -8.5t11.5 -14.5t23 -8zM293 285q-9 0 -14.5 -3.5t-11.5 -3.5q-7 0 -22.5 -10
t-19.5 -17q-4 -6 -11 -6q-4 0 -8 -3.5t-14 -12.5t-25 -19q-46 -30 -78.5 -59.5t-32.5 -42.5q0 -9 12 -21.5t25 -12.5q11 0 19 7t30.5 28t54.5 43q45 31 67 53q12 12 23 12t26 17q10 11 12 16t-1 14q-7 21 -31 21zM624 117q0 -5 30.5 -29t30.5 -29q0 -6 17 -6q13 0 26 11.5
t13 23.5q0 9 -9.5 24.5t-15.5 15.5q-4 0 -7.5 3.5t-10 10.5t-15.5 12q-53 33 -65 54q-25 41 -55 41q-11 0 -23.5 -6t-12.5 -17q0 -6 3.5 -13t9.5 -15t14 -16t16 -15.5t16 -14.5t14 -12t10 -8l4 -3q10 -5 10 -12z" />
</svg>
