<?xml version="1.0" standalone="no"?>
<!DOCTYPE svg PUBLIC "-//W3C//DTD SVG 1.1//EN" "http://www.w3.org/Graphics/SVG/1.1/DTD/svg11.dtd" >
<svg xmlns="http://www.w3.org/2000/svg" xmlns:xlink="http://www.w3.org/1999/xlink" version="1.1" viewBox="-10 0 747 1000">
   <path fill="currentColor"
d="M519 389q-11 0 -31 -7t-20 -11q0 -5 -10 -14t-22 -15q-17 -9 -27.5 -46t-10.5 -63q0 -25 9 -54q7 -21 13 -30t21 -21q25 -19 31 -19t23.5 -6t21.5 -6t24.5 8t36.5 11q40 7 40 26q0 7 14 32.5t14 28.5t8.5 19.5t8.5 21.5l-1 1v1q-1 2 -4 54t-9 68q-4 11 -9 37t-12 36
t-12.5 32t-9.5 26q-7 5 -7 11t-16 34.5t-21 31.5q-3 2 -2.5 6.5t-5.5 18.5q-32 54 -40 56q-4 2 -4 7q0 22 -39 22q-45 0 -45 -26q0 -9 4.5 -22t8.5 -13t28.5 -23t24.5 -27q0 -6 4 -7q10 -4 46 -63.5t43 -95.5l9 -36q3 -11 2 -12.5t-9 2.5q-11 5 -11 9q0 2 -11 6t-25 7.5
t-21 3.5zM518 313q8 0 20 -5.5t16 -5.5q9 0 26.5 -22t17.5 -42q0 -13 -8 -33.5t-16 -27.5q-11 -11 -42 -11q-24 0 -39.5 8t-21.5 20.5t-8 19.5t-2 13q0 5 3.5 17t3.5 17q0 11 15 31.5t35 20.5zM183 691q-13 0 -26.5 -13.5t-13.5 -25.5q0 -18 31 -30q19 -8 32 -34t22 -35
q7 -7 18 -37t19 -42q8 -14 13.5 -39t7 -39t1.5 -19q0 -13 -6 -13q-1 0 -10.5 3.5t-17.5 2.5h-6q-3 0 -12 1.5t-22 1.5q-95 0 -132 -56q-12 -18 -13 -26.5t-4 -15.5q-5 -9 -5 -25q0 -21 9 -46t14 -27q4 -2 2.5 -11.5t9.5 -13.5t20.5 -15t27.5 -20.5t57 -15.5q34 -4 35 -4
q6 0 17.5 3t29 13.5t26.5 27.5q11 21 16 27q6 7 8.5 33.5t7.5 33.5q4 4 4 58q0 31 -1.5 50.5t-3 25.5t-3 11t-1.5 10v10q0 12 -5.5 32t-5.5 24q0 5 -5.5 16.5t-5.5 15.5q0 2 2 4q2 1 3 2t0 2l-2 2t-3 2.5t-3.5 4t-2.5 6.5t-1 9q0 3 -10 18t-12 29t-7 21t-7 13
q-3 8 -14.5 22.5t-11.5 18.5q0 3 -9.5 14.5t-24 23t-26.5 11.5zM205 163q-22 0 -46 24.5t-24 33.5q0 6 -4.5 12.5t-4.5 18.5q0 13 10 23t18.5 13.5t10.5 3.5q3 0 10 4t33 4q32 0 41.5 -5.5t12.5 -16t14 -16.5l13 -7l-8 -34q-7 -30 -17 -42.5t-27 -12.5q-10 0 -19.5 -1.5
t-12.5 -1.5z" />
</svg>
