<?xml version="1.0" standalone="no"?>
<!DOCTYPE svg PUBLIC "-//W3C//DTD SVG 1.1//EN" "http://www.w3.org/Graphics/SVG/1.1/DTD/svg11.dtd" >
<svg xmlns="http://www.w3.org/2000/svg" xmlns:xlink="http://www.w3.org/1999/xlink" version="1.1" viewBox="-10 0 971 1000">
   <path fill="currentColor"
d="M241 150q0 -7 16.5 -21.5t26.5 -14.5q7 0 19.5 11t12.5 18q0 8 -14 33t-20 28q-9 4 -9 10q0 3 -3.5 5.5t-16 14.5t-27.5 34q-12 17 -22.5 31t-15 19t-8 10t-4.5 11t-13 34t-14 43q-2 13 -8 40.5t-6 41.5q0 12 3 33q4 26 7.5 35.5t15.5 21.5q18 18 23 18t5 7
q0 6 14.5 14.5t39 15.5t48.5 7q25 0 40.5 -7t35.5 -27q22 -21 27 -35t17 -76q2 -12 17 -26q10 -9 14.5 -10t15.5 3q24 10 24 37q0 4 -1.5 17.5t-1.5 23.5q0 19 9 34t16.5 21t9.5 6q4 1 10 5l7 4q19 12 56.5 20.5t66.5 8.5q14 0 45.5 -13.5t55 -26.5t24.5 -14
q8 -5 16.5 -15.5t18 -36.5t9.5 -58q0 -48 -25 -105.5t-37 -65.5q-8 -5 -9.5 -8t-2.5 -7t-18.5 -24.5t-51.5 -54.5q-34 -35 -34 -43q0 -2 2.5 -9t11 -15t20.5 -8q24 0 63 41t50 63q7 15 16 25.5t14 15.5t5 8q0 2 0.5 3.5t1.5 2.5t3.5 5t5.5 10t7.5 18.5t10.5 29.5
q33 95 33 130q0 14 -8 33.5t-12 36.5q-4 15 -7.5 22t-9.5 14.5t-11 17.5q-7 13 -27 27t-31 14q-3 0 -30 20.5t-53 24.5q-67 10 -82 10q-12 0 -42 -11t-42 -11q-11 0 -42 -18t-31 -24q0 -7 -15 -7q-22 0 -47 32q-30 39 -131 39q-21 0 -48 -13t-31 -13q-5 0 -5 -5t-9 -5
q-14 0 -41.5 -23.5t-37.5 -44.5q-21 -44 -21 -104q0 -23 6 -32q3 -5 6.5 -37.5t7.5 -37.5q1 -2 6.5 -17.5t12.5 -22.5q9 -9 9 -23q0 -10 5 -16.5t5 -11.5q0 -6 15.5 -28t15.5 -27q0 -7 6 -8q8 -2 20.5 -18t12.5 -24q0 -4 19 -25t19 -31z" />
</svg>
