<?xml version="1.0" standalone="no"?>
<!DOCTYPE svg PUBLIC "-//W3C//DTD SVG 1.1//EN" "http://www.w3.org/Graphics/SVG/1.1/DTD/svg11.dtd" >
<svg xmlns="http://www.w3.org/2000/svg" xmlns:xlink="http://www.w3.org/1999/xlink" version="1.1" viewBox="-10 0 817 1000">
   <path fill="currentColor"
d="M70 564q0 -2 3 -9t3 -24q0 -21 9 -41t9 -23q0 -5 21.5 -43t21.5 -41q0 -2 18.5 -28t18.5 -29q0 -5 10 -10q13 -8 44 -53.5t33 -46.5q7 -4 7 -9q0 -7 16.5 -26.5t16.5 -22.5q0 -6 7 -6t7 -5q0 -7 20 -29.5t26 -22.5q5 0 14.5 -7t23.5 -7t23.5 7.5t29.5 34.5q9 12 62 65
t78 85q10 13 31.5 36t35.5 39.5t14 19.5q0 11 12.5 31.5t24.5 53.5t12 77q0 43 -6.5 60.5t-6.5 20.5q0 10 -15.5 33t-22.5 23q-5 0 -5 6q0 4 -7.5 11.5t-17.5 15t-12 9.5q-11 10 -44.5 19.5t-58.5 9.5q-34 0 -57.5 -9.5t-36 -19t-20.5 -9.5q-5 0 -20 13.5t-42.5 27
t-60.5 13.5q-13 0 -33 -3.5t-39 -3.5q-29 0 -29 -4q0 -5 -12 -10q-19 -10 -50.5 -34.5t-33.5 -32.5q-1 -3 -5.5 -16t-8 -24.5t-3.5 -18.5t-2.5 -23t-2.5 -20zM467 236q-10 0 -36.5 -34.5t-38.5 -34.5q-9 0 -21 12q-7 7 -27 25t-34 31.5t-14 17.5q0 6 -5 6q-3 0 -5 5.5
t-5.5 15t-9.5 17.5q-6 7 -16.5 22t-20.5 26q-13 15 -13 20t-20.5 29.5t-23.5 41.5q-2 12 -14 23t-21.5 34t-9.5 67q0 22 10 52q9 28 15 36.5t19 11.5q8 2 22 9t31.5 12t40.5 5q30 0 44 -7q15 -7 29 -25t19 -35q11 -39 43 -39q12 0 23 6t11 14q0 2 -0.5 3t-0.5 2q0 4 1 9.5
t6.5 15.5t15 18t30 14t47.5 6q24 0 34.5 -7.5t12.5 -7.5q17 0 44 -32.5t27 -52.5q0 -15 1 -16q4 -3 4 -17q0 -18 -4.5 -39t-9.5 -21q-4 0 -4 -15q0 -14 -10 -30q-13 -20 -20 -35q-7 -13 -24 -33.5t-31 -35.5t-14 -16q0 -5 -36 -39.5t-41 -34.5z" />
</svg>
