<?xml version="1.0" standalone="no"?>
<!DOCTYPE svg PUBLIC "-//W3C//DTD SVG 1.1//EN" "http://www.w3.org/Graphics/SVG/1.1/DTD/svg11.dtd" >
<svg xmlns="http://www.w3.org/2000/svg" xmlns:xlink="http://www.w3.org/1999/xlink" version="1.1" viewBox="-10 0 845 1000">
   <path fill="currentColor"
d="M686 392q0 3 8.5 16.5t8.5 18.5q0 11 -19 18q-13 6 -37.5 27t-31.5 25q-25 17 -25 33q0 1 2 5q3 6 113 124q27 29 40 37q28 18 28 47q0 10 -2.5 13.5t-10.5 3.5t-14 -1q-16 -2 -26.5 -9.5t-42.5 -39.5q-25 -25 -46 -44.5t-42 -41.5q-26 -26 -36 -31q-12 -6 -21 3
q-10 10 -15 10t-7 11q-2 10 -18 21q-10 7 -13 11.5t-1 13.5q4 14 -2 14q-5 0 -7 12q-1 9 -4.5 11.5t-19.5 4.5q-5 1 -13 1q-14 0 -26 -5q-9 -4 -11 -8t-2 -14v-5q0 -9 -5.5 -16.5t-28.5 -29.5q-36 -35 -44.5 -42.5t-18.5 -9.5q-12 -3 -20 7q-8 8 -30 21q-16 9 -46 38t-30 35
q0 4 -8 6q-7 2 -20 20.5t-15 20.5q-4 4 -12 6.5t-14 2t-6 -4.5q0 -5 -7 -5t-16 -11t-9 -20q0 -16 57 -61q13 -9 13 -14q0 -4 21 -17q19 -12 23 -22q1 -5 6 -9.5t12.5 -9t9.5 -5.5q1 -1 4 -3t7 -5t7 -5l13 -10l-27 -28q-26 -27 -49 -43q-25 -15 -25 -32q0 -7 5 -20
q5 -11 30.5 -35.5t32.5 -24.5q3 0 20.5 -25t17.5 -29q0 -5 -36.5 -39.5t-73.5 -63.5q-38 -28 -46 -40l-9 -13l16 -16q15 -15 25 -15q16 0 59 42q24 23 56 55q8 8 20 14t19 13q9 9 13 9t12 -8t16.5 -18.5t9.5 -11.5q8 -10 8 -11q0 -2 15.5 -16t26.5 -22q15 -10 35 -10
q11 0 33 21q48 44 54 51q4 6 30 29q22 20 31 14q9 -5 9 -12q0 -5 12 -10q13 -6 15 -14q2 -10 6 -10q3 0 19 -22q13 -18 21 -25.5t17 -13.5t19 -16q16 -16 31 -16q18 0 18 28q0 23 -10 30q-9 5 -20 17t-11 17q0 3 -12.5 17.5t-26.5 29.5t-15 16q-30 38 -30 46q0 6 21 24
t41 28q27 14 27 20zM346 264q-4 0 -9 9.5t-9 9.5t-29 37t-25 43q0 4 -5 4t-5 5t-16 21q-17 17 -17 24q0 8 12 21t53 50q39 36 54 51q30 30 35 30t16 16q8 12 12 14t15 0q16 -4 20 -9q1 -1 12.5 -14t22.5 -25.5t11 -14.5q0 -3 9 -8q6 -4 24.5 -30t25.5 -30q11 -7 11 -14
t13 -14q15 -9 20 -22q4 -10 2.5 -14.5t-12.5 -17.5q-14 -18 -20 -18q-7 -2 -74 -74q-21 -23 -37 -37q-19 -17 -21 -21q-3 -5 -13 -12t-16 -7q-11 0 -37 29q-16 18 -23 18z" />
</svg>
