<?xml version="1.0" standalone="no"?>
<!DOCTYPE svg PUBLIC "-//W3C//DTD SVG 1.1//EN" "http://www.w3.org/Graphics/SVG/1.1/DTD/svg11.dtd" >
<svg xmlns="http://www.w3.org/2000/svg" xmlns:xlink="http://www.w3.org/1999/xlink" version="1.1" viewBox="-10 0 686 1000">
   <path fill="currentColor"
d="M77 169q0 -16 7.5 -26t14.5 -12t14 -2q16 0 22.5 14.5t6 34t1.5 44.5t10 39q10 17 10 27q0 31 51 73t97 42q7 0 12.5 -1.5t8 -2.5t4.5 -1t3 2q2 3 9 3q15 0 42 -14t45 -32q40 -40 53 -57t17 -32q10 -43 10 -102q0 -15 -2 -25.5t-2 -12.5q0 -14 11 -21.5t20 -7.5
q20 0 34 23q11 17 12 100t8 121q6 34 6 39q0 30 4 54.5t4 53.5q0 31 -12 78.5t-24 56.5q-2 2 -0.5 11t-8.5 15q-12 8 -17 18q-2 4 -24 21.5t-60 37t-71 22.5q-21 2 -52 8t-50 6q-41 0 -67 -13q-45 -22 -55 -29.5t-10 -19.5q0 -17 13 -27t32 -10q20 0 42 13t50 13
q53 0 97.5 -12t62 -22.5t19.5 -13.5q1 -1 22 -16q23 -15 37 -53.5t14 -86.5q0 -39 -7 -100.5t-12 -61.5q-7 0 -29.5 29t-24.5 40q-2 10 -6.5 15t-16.5 10q-20 9 -25 9q-6 0 -15 9q-8 8 -41 18t-52 10q-11 0 -19.5 -2t-25.5 -7.5t-36 -10.5q-24 -6 -34.5 -12t-30.5 -25
q-28 -26 -49 -59t-26 -55q-2 -11 -8 -29.5t-9.5 -41t-3.5 -54.5z" />
</svg>
