<?xml version="1.0" standalone="no"?>
<!DOCTYPE svg PUBLIC "-//W3C//DTD SVG 1.1//EN" "http://www.w3.org/Graphics/SVG/1.1/DTD/svg11.dtd" >
<svg xmlns="http://www.w3.org/2000/svg" xmlns:xlink="http://www.w3.org/1999/xlink" version="1.1" viewBox="-10 0 746 1000">
   <path fill="currentColor"
d="M202 618q0 -3 -6.5 -6t-6.5 -7q0 -6 -28 -24t-40 -20q-6 -1 -37 -8l-23 -6l-1 -43l36 -13q29 -10 49 -10q10 0 39 2.5t43 2.5q33 0 39 -18q6 -20 22 -49.5t27 -50t8 -24.5q-1 -1 -1 -3q0 -11 17 -22.5t30 -11.5q9 0 18 14.5t9 28.5q0 11 7 25.5t9 31.5q0 7 14 37l14 31
l26 -2q21 -2 68 -8.5t84.5 -12t39.5 -5.5q24 0 24 16q0 12 -10 17q-6 3 -15 10.5t-15.5 12.5t-8.5 5t-26 11t-51.5 23.5t-35.5 15.5q-8 2 -16.5 11t-8.5 20q0 9 9 23t9 19q0 1 25.5 31.5t25.5 50.5q0 5 -4 14t0 11q4 7 -1 16t-13 9q-15 0 -43.5 -12t-34.5 -13
q-20 -5 -34.5 -10.5t-20 -9.5t-9.5 -6.5t-7 -2.5q-4 0 -25 -11t-32 -11q-10 0 -22 9t-14 9t-18.5 11.5t-19.5 11.5q-2 0 -35 28.5t-53 28.5q-12 0 -26 -9.5t-14 -20.5q0 -13 16.5 -34t16.5 -23q0 -6 9.5 -26t9.5 -26q0 -7 6 -16.5t6 -11.5zM466 654q0 -2 -15.5 -34.5
t-15.5 -45.5q0 -17 28 -33l24 -14l-29 3q-9 1 -23 1q-17 0 -25.5 -6t-20.5 -24q-17 -26 -17 -30q0 -5 -8.5 -22t-12.5 -17q-2 0 -2 6q0 3 -12 18.5t-16 36.5q-6 30 -13 37t-38 7q-4 0 -14 -0.5t-17 -0.5l-42 -1l33 23q40 27 40 44q0 11 -13.5 40.5t-13.5 32.5q0 1 1 1
q5 0 45 -28.5t49 -28.5q12 0 59.5 19.5t61.5 19.5q7 0 7 -4zM113 124q9 0 13.5 7t9.5 7q7 0 7 4q0 3 2.5 4.5t11.5 7.5t20 17q18 18 22 18t11 14q5 10 5 13.5t-7 11.5q-9 13 -18 13q-6 0 -39 -29.5t-42 -32.5q-13 -5 -13 -14t-5 -9q-3 0 -8 -3.5t-8 -7.5t-2 -5
q23 -16 40 -16zM551 227q-2 0 -9.5 3.5t-21.5 6.5t-32 3q-22 0 -22 -9q0 -5 8 -13.5t15.5 -14t8.5 -5.5q4 0 32.5 -28t30.5 -34q4 -8 9 -8q4 0 23.5 -16.5t31.5 -16.5q13 0 24 17l10 17l-25 22q-23 21 -28 21q-4 0 -25 21t-21 28q0 6 -9 6zM368 202q-20 0 -27 -7t-10.5 -38
t-3.5 -110q0 -34 3 -42t18 -8q31 0 31 55q0 14 -3 27t-3 19q0 7 8 34.5t8 47.5q0 8 -0.5 11.5t-5.5 7t-15 3.5z" />
</svg>
