<svg xmlns="http://www.w3.org/2000/svg" xmlns:xlink="http://www.w3.org/1999/xlink" version="1.1" viewBox="41 113 461 656">
  <path fill="currentColor" d="M209 503q7 0 26 -7t34 -7q18 0 30 10t16 11q10 3 26 21t18 28q4 19 12 31.5t31 35.5q20 20 28.5 26.5t27.5 14.5l23 10l-2 22q-2 17 -4.5 21t-18.5 8q-11 4 -17 4t-16 -10q-10 -11 -39 -33t-33 -22q-3 0 -14 -9.5t-13 -9.5q-3 0 -26 17.5t-36 29.5q-47 44 -109 44 q-25 0 -33.5 -3.5t-27.5 -22.5q-30 -30 -30 -54q0 -33 12 -49q3 -3 9.5 -16.5t12 -24t8.5 -10.5q4 0 9.5 -6.5t18 -16.5t31.5 -16q13 -4 21.5 -8t11 -5.5t5.5 -2.5t8 -1zM292 585q0 -13 -5.5 -20.5t-9.5 -8.5t-6 -1q-4 0 -31 7t-39 7q-4 0 -15 3t-30.5 18t-29.5 38l-11 27 l15 13q12 11 26 11q30 0 45 -11q14 -9 24 -15q23 -13 44 -31.5t22 -26.5q0 -2 0.5 -5.5t0.5 -4.5zM272 215q0 -12 4.5 -19t4.5 -11q0 -8 15 -25l14 -17l20 9q24 11 24 24q0 2 -6 7t-6 18q0 12 -7 21.5t-7 16.5q0 9 -4.5 13t-2.5 7q1 2 -7.5 11.5t-8.5 14.5q0 4 -7 12t-7 13 q0 4 -6.5 11.5t-20 29t-27.5 52.5h-4t-9 -1l-12 -2q-15 -3 -19.5 -6t-4.5 -10q0 -12 34 -54q6 -7 21 -41.5t15 -40.5q0 -4 7 -12.5t7 -20.5z"/>
</svg>