<svg xmlns="http://www.w3.org/2000/svg" xmlns:xlink="http://www.w3.org/1999/xlink" version="1.1" viewBox="19 41 758 764">
  <path fill="currentColor" d="M604 704q0 32 -40 32q-57 0 -89 -10q-36 -11 -42 -11t-14.5 8.5t-8.5 13.5q0 4 -25 18q-24 15 -41 15q-24 0 -59 -35q-25 -26 -25 -41q0 -36 29 -96q6 -13 25 -30.5t27 -17.5q4 0 13 -7q6 -6 28 -10.5t35 -4.5q10 0 25 15t15 25q0 8 7 26t7 28v11q0 19 21.5 31t49.5 12 h28q34 0 34 28zM405 646q0 -1 6.5 -23t6.5 -31q0 -7 -4 -7q-9 0 -39.5 19t-40.5 32q-12 15 -12 24q0 15 6 27t15 12q18 0 40 -20t22 -33zM640 314q0 5 -12 21.5t-12 20.5q0 6 -11 17q-11 10 -21 28.5t-10 29.5q0 9 -14 19t-26 10q-8 0 -9 -5q-2 -6 -15 -10q-8 -2 -9.5 -5.5 t0.5 -15.5q3 -19 24 -41q21 -23 21 -28q0 -8 15 -26q20 -26 68 -102q5 -9 38.5 -40t42.5 -31q10 0 21.5 13.5t11.5 24.5q0 14 -12 20q-33 17 -64 66q-17 26 -23 26q-4 0 -4 8zM54 162q0 -24 30 -24q29 0 45 34q9 20 13 22t20 32.5t23 51.5q5 15 24 34q18 18 18 24q0 5 15 22 q46 48 46 61q0 5 9 18q9 12 9 24q0 20 -15 20q-9 0 -36.5 -18.5t-29.5 -24.5q-7 -25 -35 -49q-15 -15 -15 -17q0 -4 -15 -28.5t-18 -26.5q-5 -2 -26 -47q-25 -53 -53 -85q-9 -11 -9 -23zM441 430q0 9 -3.5 18t-9.5 9q-8 0 -28 -8q-6 -2 -18 -20.5t-13 -28.5q-1 -4 -3 -93 q-2 -87 -17 -181q-2 -14 -2 -16q0 -12 10.5 -23t22.5 -11t21 10t9 27q0 15 5 27q4 13 -1 19q-5 7 0 31q5 22 5 58v26q0 61 7 74q7 14 7 35q0 10 4 25t4 22z"/>
</svg>