<svg xmlns="http://www.w3.org/2000/svg" xmlns:xlink="http://www.w3.org/1999/xlink" version="1.1" viewBox="-2 17 468 1043">
  <path fill="currentColor" d="M188.846 643.086c-11.6279 -30.3359 5.53027 -182.481 24.8594 -220.155c8.73242 -16.9512 40.2578 -60.3623 70.1807 -96.3828c62.377 -75.2461 66.666 -99.2246 23.2031 -129.716c-71.9375 -50.3359 -181.396 -7.13281 -204.135 80.6201 c-13.0225 50.2324 -43.5137 58.8633 -58.5 16.5889c-24.7041 -69.7158 57.6221 -191.989 141.704 -210.439c86.874 -19.0693 206.564 34.3154 235.971 105.271c22.9971 55.4521 10.7998 96.0205 -53.127 177.365c-72.7139 92.4541 -72.5586 92.1445 -87.0293 181.137 c-7.02734 43.2568 -20.1035 87.4424 -28.9912 98.1914c-21.6035 26.0459 -53.6445 24.8066 -64.1357 -2.48047zM235.874 802.949c0 -16.666 -1.5625 -31.7695 -3.64648 -32.8125c-7.8125 -4.6875 -56.25 31.25 -70.3125 51.5625 c-7.8125 10.9375 -17.709 31.7715 -22.3965 45.834c-8.33203 24.4785 -8.33203 26.041 1.5625 35.416c9.375 9.89648 10.418 9.89648 30.209 0.521484c42.1875 -19.2715 64.584 -54.6875 64.584 -100.521zM187.956 708.68c13.543 -4.6875 28.6465 -9.375 33.8555 -9.375 c16.1445 -1.04297 45.832 16.1445 51.5625 28.6445c3.125 6.77148 13.0195 14.584 22.3945 17.709c21.875 7.29102 28.6465 15.1035 54.6875 65.1035c11.9805 22.918 28.125 50 35.9375 59.8965c28.6465 36.9785 37.5 56.25 35.9375 76.5625 c-1.04102 15.1035 -4.6875 21.3535 -15.1035 26.041c-21.3535 10.418 -44.2715 2.60547 -75 -25c-15.1035 -14.0625 -30.209 -25.5195 -33.334 -25.5195s-14.0625 9.375 -24.4785 20.832c-39.584 43.75 -121.354 68.75 -163.541 50 c-24.4805 -10.9375 -31.7715 -17.707 -48.4375 -42.1875c-27.6055 -40.625 -14.584 -113.02 30.207 -174.479c20.834 -28.125 57.293 -54.166 95.3125 -68.2285z"/>
</svg>