<svg xmlns="http://www.w3.org/2000/svg" xmlns:xlink="http://www.w3.org/1999/xlink" version="1.1" viewBox="40 -38 394 869">
  <path fill="currentColor" d="M160 580q16 -10 38 -10t34 12q3 3 9.5 6.5t9 7.5t2.5 12q0 12 8 12t20 12q13 13 13 33q0 23 6 34t23 19q22 10 31 10q8 0 13.5 -5t8.5 -5q4 0 14 6q26 16 26 37q0 13 -9.5 18t-25 6.5t-21.5 5.5q-1 1 -4 1q-16 0 -60 -20q-24 -11 -28 -11t-9 -7q-6 -7 -20 0q-6 3 -19 13 t-27 15.5t-33 5.5q-26 0 -55 -10q-18 -6 -24.5 -10.5t-10.5 -15.5q-7 -15 -7 -34q0 -31 26 -72t46 -51zM235 666l3 -26h-26q-28 1 -47 13q-17 11 -31 27.5t-14 25.5q0 19 41 19q46 0 63 -22q7 -9 11 -37zM185 79v-43q0 -21 4.5 -27.5t20.5 -6.5q23 0 36 13q9 9 5 29 q-3 16 -5 65l-1 45l18 10q12 6 28.5 13t27 13.5t26.5 21.5q17 16 17 32q0 20 -10.5 39.5t-24.5 27.5q-18 10 -33 25q-17 17 -21 17q-6 0 -24 20q-12 13 -15 20t-3 23t-7.5 35t-13.5 19q-5 0 -20 -5q-37 -10 -37 -45q0 -13 8 -24q7 -10 12 -155l1 -31l-23 -1h-8q-10 0 -21 4 t-26 4q-21 0 -31 -12q-7 -9 -7 -14q0 -8 15 -23q8 -8 40 -17.5t53 -9.5h1l19 1zM293 260q0 -9 -19.5 -19t-30.5 -10q-6 0 -6 4q-2 20 -2 30q0 32 5 32q1 0 3 -5q1 -4 9 -6q41 -8 41 -26z"/>
</svg>