<svg xmlns="http://www.w3.org/2000/svg" xmlns:xlink="http://www.w3.org/1999/xlink" version="1.1" viewBox="43 152 728 500">
  <path fill="currentColor" d="M340 569q0 -18 8 -30t21 -17t23 -7t20 -2q6 0 14.5 2t21.5 7.5t22 21t9 38.5q0 9 -8 19.5t-15.5 16.5t-9.5 6h-2q-4 0 -17.5 2.5t-19.5 2.5q-20 0 -45 -23q-15 -13 -18.5 -19.5t-3.5 -17.5zM644 355q12 0 12 -16q0 -20 -3.5 -44.5t-7 -41.5t-3.5 -19q0 -6 11 -23 q8 -13 13 -16t16 -2q14 1 21.5 10.5t9 19.5t1.5 26v11q0 22 5 32q3 7 7 36t7 32q3 6 5 18.5t-1 14.5q-4 2 -4 12q0 14 -56 14q-49 0 -81 -3t-42 -6.5t-19.5 -6.5t-19.5 -3q-16 0 -22.5 -4t-11.5 -1q-3 2 -41 2q-13 0 -42 -1t-42 -1q-10 0 -92 8t-113 8q-67 0 -67 -37 q0 -2 1.5 -14t1.5 -34q0 -32 -3 -73.5t-4 -50.5q-3 -12 -1.5 -15t10.5 -6q16 -6 28 -6q21 0 30 14t9 28q0 13 -7.5 28.5t-7.5 36.5q0 24 5 43l4 16h98q99 -1 115 -8q11 -5 17 -5q2 0 9.5 3t29 6t58.5 3l32 -1q26 0 37.5 4.5t23.5 4.5q7 0 19.5 -1t19.5 -1q14 0 23 4.5 t12 4.5z"/>
</svg>