<svg xmlns="http://www.w3.org/2000/svg" xmlns:xlink="http://www.w3.org/1999/xlink" version="1.1" viewBox="163 -2 673 854">
  <path fill="currentColor" d="M729 304q17 -11 36 -11t31 11q8 9 9 28.5t-3 92.5q-5 105 -6 236q-1 130 -11 141q-8 10 -31 11t-31 -9q-9 -11 -12.5 -103t-0.5 -217q1 -41 -7 -44q-10 -3 -56 44q-98 99 -217 187q-70 52 -109 88q-36 34 -45 34q-14 0 -27 -13.5t-13 -29.5q0 -20 27 -49t90 -76 q57 -43 88 -69t103 -93q67 -61 90 -80q24 -20 50 -43q32 -27 45 -36zM729 48q16 -11 20 -11t22 9q20 11 25 28q2 11 -13 29t-76 76q-97 94 -137 134.5t-88 93.5q-51 58 -75 82.5t-66 61.5q-39 35 -62 40t-44 -18q-12 -13 -14.5 -34.5t-5.5 -123.5q-4 -141 -8 -147 q-4 -8 -9 -73q-4 -50 -2 -60t15 -18q65 -43 71 69q4 55 10 66q6 12 6 106q0 93 9 98q8 6 78 -70q96 -104 205 -210.5t139 -127.5z"/>
</svg>