<svg xmlns="http://www.w3.org/2000/svg" xmlns:xlink="http://www.w3.org/1999/xlink" version="1.1" viewBox="61 43 662 732">
  <path fill="currentColor" d="M616 95q0 -6 15 -12t24 -6q17 0 29 16q9 11 9.5 15.5t-5.5 14.5q-10 15 -30 24q-23 11 -23 17t-11 18t-17 12q-8 0 -44 37q-83 84 -83 93q0 6 -4 6q-5 0 -10 12t-13 14q-11 3 -20.5 18.5t-9.5 29.5q0 20 -4 23q-6 5 -6 78q0 77 6 106q9 45 9 72q0 13 -15 29 q-17 19 -17 22q0 2 -7 0.5t-7 2.5q0 5 -14 5q-13 0 -22 -15q-7 -14 -7 -18q0 -5 5 -23q7 -24 7 -86v-8q0 -61 4 -61q5 0 0 -6q-5 -7 -5 -41q-1 -63 -33 -105q-15 -19 -38 -42t-33 -29q-14 -9 -14 -19q0 -11 -4 -11q-5 0 -26 -21t-23 -28q-4 -9 -21 -21t-40 -35 q-17 -17 -21.5 -27.5t-4.5 -34.5q0 -11 13 -20q16 -10 24 -10q11 0 24 10t13 18q0 9 6 13t27.5 33.5t25.5 33.5q12 10 12 17t10 12q8 5 33.5 27.5t35.5 34.5q42 48 54 54q4 3 8 3q7 0 28.5 -22.5t23.5 -28.5q4 -9 14 -12q11 -5 38 -32t27 -34q0 -8 13 -13q13 -6 22 -20 t14 -14q6 0 19 -17q9 -12 26 -31q13 -15 13 -18z"/>
</svg>