<svg xmlns="http://www.w3.org/2000/svg" xmlns:xlink="http://www.w3.org/1999/xlink" version="1.1" viewBox="4 120 563 561">
  <path fill="currentColor" d="M219 146.98c7 1 17 5 31 13c15 8 28 16 29 19s7 9 15 14s20 16 28 23c18 15 52 39 77 51c12 6 30 20 50 40c33 33 57 54 75 66c12 8 17 17 17 27c0 4 -11 19 -32 41c-18 19 -39 42 -48 51s-21 21 -27 25s-21 15 -31 25s-28 25 -39 33s-21 18 -22 20s-10 11 -20 19 s-21 18 -26 22c-11 9 -17 10 -25 2c-9 -9 -8 -19 6 -32c28 -27 42 -38 66 -57c14 -11 26 -22 28 -24s17 -15 34 -30s45 -43 63 -62c28 -30 33 -34 28 -37c-12 -7 -44 -36 -60 -54c-17 -20 -31 -30 -57 -46c-14 -8 -22 -14 -52 -33c-7 -4 -20 -14 -29 -22 c-41 -36 -52 -44 -72 -55c-22 -12 -27 -20 -21 -31c3 -6 7 -9 14 -8zM53 190.98c6 0 14 3 24 9s22 14 26 18c18 16 35 28 56 43c12 9 28 20 35 26c27 22 37 32 42 38c17 20 77 76 84 80c5 2 9 7 10 10c2 7 -3 20 -8 20c-2 0 -3 1 -3 4c0 5 -11 16 -64 64 c-36 32 -46 40 -71 55c-12 7 -34 23 -48 34s-31 24 -39 29s-21 14 -30 21c-18 14 -22 14 -31 5c-3 -3 -6 -8 -6 -11c0 -7 24 -30 42 -40c14 -8 40 -27 68 -51c8 -7 15 -12 17 -12c9 0 41 -24 92 -71l38 -35l-7 -9c-3 -5 -7 -9 -8 -9c-3 0 -31 -27 -53 -51 c-15 -16 -23 -23 -58 -51c-18 -14 -53 -41 -65 -49c-6 -4 -14 -11 -18 -15s-15 -11 -23 -16c-16 -9 -21 -17 -16 -27c3 -6 8 -9 14 -9z"/>
</svg>