<svg xmlns="http://www.w3.org/2000/svg" xmlns:xlink="http://www.w3.org/1999/xlink" version="1.1" viewBox="27 17 766 764">
  <path fill="currentColor" d="M351 84q0 -7 16 -19.5t35 -12.5q10 0 10 5q0 3 9.5 9t24 17t22.5 23t23.5 29t26.5 29t11 15t9.5 11t9.5 11t6.5 8.5t17.5 15t18 20.5q9 13 36 32.5t39 30.5q15 14 43.5 30.5t37.5 26.5q12 12 12 27q0 7 -2.5 14t-5.5 10l-2 4q-4 3 -15 3q-18 0 -37 -15t-32 -30t-16 -15 q-4 0 -16.5 -12t-15.5 -12q-6 0 -67 -54t-64 -54t-3 -7t-27 -33.5t-34 -26.5q-4 0 -5 13t-3.5 50t-9.5 77q-6 38 -6 191q0 187 9 213q5 15 -6 28q-8 9 -11.5 10t-12.5 -2q-6 -2 -26 -8q-16 -2 -16 -35q0 -8 1.5 -13.5t4 -7.5t4 -4t1.5 -3t-2 -3q-7 -7 -7 -234v-5 q1 -5 1.5 -12.5t1 -16l1 -17t0.5 -14.5q0 -9 1 -38t5 -70t10 -50q4 -8 3 -11.5t-5 -4.5l-4 -1q-8 0 -24 15.5t-20 15.5q-6 0 -16 10t-10 16q0 4 -12.5 17t-16.5 13t-27 23t-23 27q0 3 -16.5 12.5t-18.5 18.5q-3 12 -26.5 31t-33.5 19q-4 0 -4 -4q0 -2 -20 -7t-20 -19 q0 -22 37 -49q23 -17 61.5 -55t66.5 -67t31 -29q2 0 11 -14t16 -16t12 -11.5t9 -9.5q5 0 22.5 -20.5t18.5 -21.5q4 -2 4 -7z"/>
</svg>