<svg xmlns="http://www.w3.org/2000/svg" xmlns:xlink="http://www.w3.org/1999/xlink" version="1.1" viewBox="26 7 746 777">
  <g>
    <path fill="currentColor" d="M 250.0,339.0 Q 255.0,339.0 264.0,332.5 Q 273.0,326.0 284.5,319.0 Q 296.0,312.0 328.5,305.5 Q 361.0,299.0 409.0,299.0 Q 433.0,299.0 446.5,302.5 Q 460.0,306.0 463.5,309.5 Q 467.0,313.0 471.0,316.5 Q 475.0,320.0 481.0,320.0 Q 492.0,320.0 513.0,336.5 Q 534.0,353.0 548.0,373.0 Q 566.0,400.0 571.0,400.0 Q 574.0,400.0 580.0,422.0 Q 586.0,444.0 589.0,445.0 Q 593.0,447.0 652.0,447.0 Q 695.0,447.0 704.5,449.0 Q 714.0,451.0 725.0,462.0 Q 738.0,475.0 738.0,481.0 Q 738.0,485.0 736.0,491.0 Q 734.0,497.0 720.5,506.0 Q 707.0,515.0 683.0,515.0 Q 671.0,515.0 650.0,513.0 Q 629.0,511.0 621.0,511.0 Q 605.0,511.0 599.5,516.5 Q 594.0,522.0 592.0,538.0 Q 588.0,573.0 577.0,612.0 Q 566.0,651.0 560.0,655.0 Q 556.0,658.0 556.0,668.0 Q 556.0,675.0 555.0,675.0 L 554.0,674.0 L 550.0,674.0 Q 543.0,674.0 531.0,692.0 Q 520.0,709.0 479.5,719.5 Q 439.0,730.0 429.0,737.0 Q 412.0,749.0 364.0,749.0 Q 303.0,749.0 276.0,734.0 Q 267.0,730.0 254.5,713.5 Q 242.0,697.0 242.0,690.0 Q 242.0,685.0 220.5,662.0 Q 199.0,639.0 197.0,622.0 Q 195.0,605.0 182.5,576.0 Q 170.0,547.0 170.0,511.0 Q 170.0,489.0 171.5,475.5 Q 173.0,462.0 175.5,458.5 Q 178.0,455.0 179.5,452.0 Q 181.0,449.0 181.0,446.0 Q 181.0,439.0 198.0,413.5 Q 215.0,388.0 215.0,371.0 Q 215.0,344.0 230.0,344.0 Q 233.0,344.0 235.0,345.0 Q 242.0,347.0 242.0,344.0 Q 242.0,339.0 250.0,339.0 M 253.0,456.0 Q 260.0,456.0 293.0,461.5 Q 326.0,467.0 341.0,467.0 Q 377.0,467.0 431.0,463.0 Q 485.0,459.0 496.0,459.0 Q 507.0,459.0 513.0,461.0 Q 520.0,465.0 521.5,463.5 Q 523.0,462.0 523.0,451.0 Q 523.0,435.0 515.0,425.0 Q 506.0,414.0 473.5,390.5 Q 441.0,367.0 434.0,367.0 Q 430.0,367.0 419.0,360.5 Q 408.0,354.0 386.0,354.0 Q 354.0,354.0 317.0,363.0 Q 293.0,369.0 265.5,398.0 Q 238.0,427.0 238.0,445.0 Q 238.0,456.0 251.0,456.0 L 252.0,456.0 L 253.0,456.0 M 240.0,577.0 Q 240.0,578.0 239.0,579.5 Q 238.0,581.0 238.0,582.0 Q 238.0,585.0 244.5,596.5 Q 251.0,608.0 253.0,617.0 Q 256.0,628.0 275.0,642.0 Q 294.0,656.0 296.0,660.0 Q 298.0,667.0 305.0,667.0 Q 307.0,667.0 323.0,677.0 Q 339.0,687.0 362.0,687.0 Q 397.0,687.0 462.0,653.0 Q 488.0,640.0 494.5,633.0 Q 501.0,626.0 514.0,601.0 Q 539.0,553.0 539.0,526.0 Q 539.0,518.0 531.0,518.0 Q 527.0,518.0 514.0,521.0 Q 501.0,524.0 494.0,524.0 Q 487.0,524.0 481.5,521.0 Q 476.0,518.0 468.0,518.0 Q 461.0,518.0 443.0,521.0 Q 425.0,524.0 418.0,524.0 Q 410.0,524.0 408.0,522.0 Q 405.0,520.0 403.5,520.0 Q 402.0,520.0 400.5,521.0 Q 399.0,522.0 392.5,523.5 Q 386.0,525.0 375.0,525.0 Q 359.0,525.0 359.0,522.0 Q 359.0,518.0 352.0,516.0 Q 345.0,514.0 343.0,516.0 Q 341.0,518.0 303.5,520.5 Q 266.0,523.0 243.0,523.0 L 238.0,523.0 L 222.0,522.0 L 225.0,544.0 Q 226.0,554.0 229.0,560.5 Q 232.0,567.0 234.0,569.5 Q 236.0,572.0 238.0,574.0 Q 240.0,576.0 240.0,577.0 M 60.0,150.0 Q 60.0,134.0 72.5,127.0 Q 85.0,120.0 94.0,120.0 Q 107.0,120.0 128.0,148.0 Q 138.0,162.0 156.0,183.0 Q 174.0,204.0 183.5,217.5 Q 193.0,231.0 193.0,239.0 Q 193.0,263.0 177.0,269.0 Q 161.0,276.0 134.5,242.0 Q 108.0,208.0 98.0,208.0 Q 93.0,208.0 91.5,207.5 Q 90.0,207.0 90.0,205.0 Q 90.0,203.0 89.5,200.0 Q 89.0,197.0 86.0,192.0 Q 83.0,187.0 76.0,181.0 Q 60.0,166.0 60.0,150.0 M 550.0,283.0 Q 535.0,283.0 522.0,271.0 Q 509.0,259.0 509.0,241.0 Q 509.0,209.0 546.0,178.0 Q 564.0,162.0 592.0,134.0 Q 611.0,115.0 619.0,110.0 Q 627.0,105.0 637.0,105.0 Q 668.0,105.0 668.0,137.0 Q 668.0,154.0 648.0,174.0 Q 600.0,220.0 589.5,231.5 Q 579.0,243.0 579.0,254.0 Q 579.0,267.0 570.5,275.0 Q 562.0,283.0 550.0,283.0 M 313.0,177.0 Q 313.0,170.0 319.0,156.0 Q 325.0,142.0 325.0,136.0 Q 325.0,132.0 321.0,118.5 Q 317.0,105.0 317.0,88.0 Q 317.0,43.0 347.0,43.0 Q 359.0,43.0 369.0,53.0 Q 383.0,69.0 383.0,158.0 Q 383.0,221.0 352.0,221.0 Q 342.0,221.0 331.5,213.5 Q 321.0,206.0 321.0,198.0 Q 321.0,192.0 317.0,187.0 Q 313.0,182.0 313.0,177.0"/>
  </g>
</svg>