<svg xmlns="http://www.w3.org/2000/svg" xmlns:xlink="http://www.w3.org/1999/xlink" version="1.1" viewBox="-1 -12 998 1019">
  <path fill="currentColor" d="M649 46q20 -11 30 -1q19 19 -13 47q-29 25 -68 65t-60 67q-112 136 -164 213q-11 17 -23 34.5t-19.5 29t-8.5 12.5q-2 5 -42 63q-28 40 -53 77q-7 11 -10 18t-1 7q3 2 24 -13t30 -25q5 -5 96.5 -82t111.5 -92q36 -28 157 -126q108 -86 148 -115.5t98 -65.5 q35 -21 48 -24.5t21 6t0.5 26.5t-32.5 51q-85 114 -140.5 198.5t-113.5 187.5q-35 61 -58 96t-66 91q-47 63 -42 65q6 1 93 -65q19 -14 69 -52t64 -49q55 -42 80 -52.5t37 2.5q14 18 -21 40q-31 19 -190 140q-184 141 -203 141q-20 0 -23 -21.5t12 -50.5q8 -17 54 -82 t52 -70t33 -45t46 -72q45 -77 64 -112q14 -25 64 -102.5t54 -80.5t25.5 -35t21.5 -35q-2 -2 -7 -0.5t-25.5 17t-50.5 39t-80 64.5q-75 60 -91 73q-51 37 -227 188q-63 54 -97 79q-78 60 -106.5 80t-38.5 20q-12 0 -19.5 -6t-7.5 -15t68 -107q84 -124 139 -205 q96 -146 167 -232q38 -45 35.5 -48t-60.5 30q-109 61 -169 90q-125 61 -176 61q-25 0 -32.5 -7.5t-7.5 -29.5q0 -26 5 -35q1 -2 4.5 -9.5t9 -18.5t9.5 -20q38 -78 78.5 -133t59.5 -55q8 0 9.5 3t-1.5 14q-2 13 -9.5 26.5t-39.5 66.5q-27 44 -53 95t-23 54t20 -2q17 -7 24 -7 q12 0 90 -38.5t168 -89.5q66 -38 157 -93q84 -52 96 -58z"/>
</svg>