<svg xmlns="http://www.w3.org/2000/svg" xmlns:xlink="http://www.w3.org/1999/xlink" version="1.1" viewBox="50 8 901 997">
  <path fill="currentColor" d="M600 340q8 -9 23.5 -9t25.5 8q9 9 10 35.5t-8 34.5q-8 7 -8 39q0 54 -31 54q-19 0 -25.5 -15t-6.5 -63q0 -57 5.5 -57t5.5 -9t9 -18zM376 326q9 -10 23.5 -10t24.5 9q10 10 11 43t-8 41q-8 7 -8 40q0 30 -8 42.5t-26 7.5q-20 -5 -24 -16.5t-4 -57.5q0 -58 5 -58t5 -16 t9 -25zM591 125q-6 -8 -34 -8t-31 8t-39 8q-37 0 -39 5q-3 5 -31 5t-34 8q-7 8 -13.5 8t-22.5 8t-19 13q-4 5 -14 5t-10 8.5t-13 21.5t-13 27t-7.5 21t-7.5 13t-8 13t-8 21q0 15 -5 18t-5 26t5 26t5 40q0 36 8 39t8 25t7.5 29t7.5 19q0 14 17 43q6 13 9 18q5 12 18.5 26 t19.5 14q8 0 20 13q9 9 21.5 11t78.5 2q55 0 72 -1.5t18 -6.5q4 -8 34 -8t34 -5q2 -5 22.5 -5t26.5 -8q7 -8 13 -8q19 0 50 -28t31 -44q0 -15 8 -22q7 -6 7 -34t6 -31q5 -3 5 -40q0 -35 -5.5 -35t-5.5 -19q0 -18 -7 -21q-8 -3 -8 -20t-5 -21q-5 -3 -13 -19t-8 -22 q0 -7 -26 -32q-26 -26 -26 -31q0 -6 -13 -18.5t-13 -21.5q0 -10 -9 -13t-18 -8q-10 -4 -22 -4t-19 -8zM487 59.5q0 -5.5 64.5 -5.5t68.5 6q3 5 23 5q13 0 21.5 5t27.5 23q29 29 29 36t34 40t34 42t13 19.5t13 18.5q0 7 7.5 14t7.5 21.5t6 17.5q5 2 5 25t8 30q8 6 8 73 q0 68 -8 70q-8 3 -8 26t-5 26q-6 3 -6 17.5t-7.5 21.5t-7.5 14.5t-13 19.5t-13 19.5t13 19.5t13 19t13 19t13 20t8 15t8 16q0 10 5 10t5 17t13 28q13 9 13 27q0 17 8 19q9 6 7.5 18t-12 24.5t-22.5 12.5q-10 0 -24 -12.5t-20 -26.5q-5 -12 -9 -19q-7 -10 -13 -26 q-3 -4 -5.5 -9.5t-5 -10.5t-2.5 -6q-7 -9 -13 -27q-9 -19 -14 -22t-5 -13q0 -9 -13 -21t-13 -22q0 -9 -18 -9q-19 0 -21 5q-3 5 -27 5q-23 0 -26 8t-25 8t-28 6t-127 5.5t-123 -6.5q-4 -6 -12 -4.5t-17 8.5t-9 14q0 6 -13 18t-13 21t-20.5 29t-20.5 27t-21 26 q-21 20 -21 27.5t-27 34.5q-42 43 -68 19q-8 -8 -8.5 -22t7.5 -21t8 -14t18 -25t18 -25t21 -27t21 -27q0 -6 18 -24t18 -26q0 -7 13 -19.5t13 -18.5q0 -7 9 -15q6 -7 6 -9t-6 -5q-9 -5 -9 -14.5t-13 -21.5t-13 -26q0 -16 -5 -18q-5 -3 -5 -17.5t-8 -21.5t-8 -29 q0 -23 -5 -23t-5 -31t-8 -37q-8 -7 -8 -57t8 -58q8 -6 8 -24q0 -17 5 -17t5 -18q0 -19 8 -22q8 -4 8 -12q0 -10 5 -13t5 -14q0 -10 8 -13q8 -4 8 -11q0 -9 9 -18t17 -9q9 0 18.5 -13t27.5 -13q17 0 19 -8q4 -8 13 -8q10 0 13 -5q3 -6 26 -6t27 -7q3 -8 41 -8q39 0 39 -5.5z "/>
</svg>