<svg xmlns="http://www.w3.org/2000/svg" xmlns:xlink="http://www.w3.org/1999/xlink" version="1.1" viewBox="49 115 567 591">
   <path fill="currentColor" d="M346 401q0 -28 29 -28q36 0 36 31q0 15 -8.5 26.5t-20.5 11.5q-15 0 -25.5 -13t-10.5 -28zM220 411q0 -16 9.5 -26t25.5 -10q24 0 24 36v8l-1 21l-25 1q-18 1 -22 -0.5t-8 -10.5q-3 -9 -3 -19zM238 159q21 -17 43 -17q16 0 34 5t38 5q16 0 26 1.5t14.5 3t15 7.5t19.5 10 q31 15 43 23.5t38 34.5q43 44 43 48q0 2 7 18q11 22 21 60.5t10 67.5q0 58 -5 70q-24 51 -30 57q-7 7 -31 35q-44 50 -67 62q-55 29 -133 29q-82 0 -82 -16q0 -3 -16 -10q-19 -8 -24 -15q-6 -8 -14 -8q-7 0 -7 -5t-5 -5q-8 0 -28 -23.5t-31 -45.5q-42 -81 -42 -163 q0 -57 20 -97q11 -22 11 -26q0 -11 34 -51q14 -16 49.5 -30.5t48.5 -24.5zM350 611q9 0 15.5 -4.5t12.5 -4.5q9 0 36 -11q29 -10 64 -47q60 -61 60 -114q0 -32 -19 -84q-27 -73 -65 -93q-2 -1 -17 -11t-28 -17.5t-21 -7.5q-12 0 -17 -5q-8 -8 -35 -8q-15 0 -19 4 q-17 16 -38 16q-3 0 -11 -0.5t-12 -0.5q-17 0 -29.5 6t-19 12.5t-16.5 19t-17 19.5q-23 22 -32 50.5t-9 76.5q0 41 2.5 53.5t14.5 37.5q17 32 17 41q0 5 16 17q5 4 17.5 15.5t23.5 20.5t19 13q24 11 69 11q8 0 19 -2.5t19 -2.5z"/>
</svg>