<svg xmlns="http://www.w3.org/2000/svg" xmlns:xlink="http://www.w3.org/1999/xlink" version="1.1" viewBox="12 -54 927 917">
  <g>
    <path fill="currentColor" d="M 350.0,84.0 Q 350.0,68.0 346.5,47.5 Q 343.0,27.0 343.0,25.0 Q 343.0,6.0 363.0,-3.0 Q 383.0,-12.0 392.0,-9.0 Q 394.0,-8.0 408.5,-4.5 Q 423.0,-1.0 428.0,3.0 Q 434.0,8.0 434.0,25.0 Q 434.0,34.0 432.0,39.5 Q 430.0,45.0 430.0,47.0 Q 430.0,56.0 435.5,72.5 Q 441.0,89.0 445.0,93.0 Q 448.0,96.0 493.0,96.0 Q 538.0,96.0 538.0,100.0 Q 538.0,105.0 546.0,105.0 Q 557.0,105.0 580.5,112.5 Q 604.0,120.0 609.0,125.0 Q 617.0,133.0 664.0,163.0 Q 684.0,176.0 726.5,244.0 Q 769.0,312.0 774.0,341.0 Q 778.0,358.0 780.0,358.0 Q 782.0,358.0 813.5,350.0 Q 845.0,342.0 857.0,342.0 Q 874.0,342.0 882.0,357.0 Q 897.0,386.0 897.0,390.0 Q 897.0,394.0 890.0,401.0 Q 879.0,412.0 830.0,415.0 Q 781.0,418.0 779.0,420.0 Q 777.0,422.0 770.0,466.5 Q 763.0,511.0 756.0,517.0 Q 752.0,520.0 752.0,530.0 Q 752.0,540.0 735.0,556.0 Q 721.0,569.0 712.0,586.0 Q 703.0,603.0 699.0,609.0 L 689.0,623.0 L 698.0,642.0 Q 705.0,657.0 717.5,668.5 Q 730.0,680.0 730.0,685.0 Q 730.0,691.0 741.5,710.5 Q 753.0,730.0 753.0,735.0 Q 753.0,736.0 769.5,756.5 Q 786.0,777.0 786.0,795.0 Q 786.0,821.0 752.0,821.0 Q 706.0,821.0 706.0,789.0 Q 706.0,780.0 701.5,773.5 Q 697.0,767.0 697.0,760.0 Q 697.0,754.0 692.5,745.5 Q 688.0,737.0 678.5,720.5 Q 669.0,704.0 661.0,687.0 Q 648.0,659.0 638.0,659.0 Q 633.0,659.0 627.5,662.5 Q 622.0,666.0 612.5,671.0 Q 603.0,676.0 565.5,680.5 Q 528.0,685.0 466.0,686.0 L 462.0,686.0 Q 436.0,686.0 399.0,680.5 Q 362.0,675.0 356.0,671.0 Q 345.0,670.0 345.0,689.0 Q 345.0,715.0 350.0,748.0 Q 355.0,781.0 355.0,785.0 Q 355.0,799.0 337.5,801.0 Q 320.0,803.0 320.0,810.0 L 319.0,810.0 Q 313.0,810.0 287.0,797.0 Q 268.0,788.0 268.0,771.0 Q 268.0,767.0 273.5,740.5 Q 279.0,714.0 279.0,682.0 Q 279.0,654.0 277.0,645.5 Q 275.0,637.0 266.0,631.0 Q 249.0,620.0 219.5,587.5 Q 190.0,555.0 181.0,538.0 Q 174.0,523.0 170.5,519.5 Q 167.0,516.0 160.0,516.0 Q 144.0,516.0 121.5,524.5 Q 99.0,533.0 86.0,533.0 Q 55.0,533.0 55.0,514.0 Q 55.0,502.0 86.0,478.5 Q 117.0,455.0 143.0,455.0 L 145.0,455.0 Q 149.0,455.0 149.0,447.0 Q 149.0,437.0 145.0,424.5 Q 141.0,412.0 138.5,406.5 Q 136.0,401.0 139.0,397.0 Q 144.0,394.0 144.0,383.0 Q 144.0,376.0 146.5,370.5 Q 149.0,365.0 153.5,356.5 Q 158.0,348.0 162.0,337.0 Q 167.0,323.0 176.5,307.0 Q 186.0,291.0 186.0,286.0 Q 186.0,280.0 191.0,275.0 Q 196.0,270.0 196.0,265.0 Q 196.0,262.0 198.0,254.0 Q 200.0,246.0 207.5,235.0 Q 215.0,224.0 226.0,222.0 Q 241.0,219.0 242.0,209.0 Q 244.0,199.0 268.0,174.5 Q 292.0,150.0 301.0,150.0 Q 312.0,150.0 316.5,144.0 Q 321.0,138.0 332.0,136.0 Q 350.0,131.0 350.0,84.0 M 569.0,173.0 Q 566.0,173.0 548.0,169.0 Q 530.0,165.0 513.0,161.0 L 496.0,157.0 Q 489.0,157.0 489.0,164.0 Q 489.0,174.0 500.0,202.5 Q 511.0,231.0 521.5,255.5 Q 532.0,280.0 531.0,282.0 Q 529.0,285.0 552.0,329.5 Q 575.0,374.0 581.0,382.0 Q 591.0,394.0 598.0,389.0 Q 599.0,388.0 599.0,386.0 Q 599.0,381.0 680.0,374.0 L 716.0,371.0 L 713.0,359.0 Q 710.0,350.0 704.0,339.5 Q 698.0,329.0 695.0,320.0 Q 693.0,311.0 679.5,292.5 Q 666.0,274.0 657.0,255.0 Q 644.0,230.0 639.0,226.0 Q 633.0,222.0 605.5,198.5 Q 578.0,175.0 569.0,173.0 M 428.0,195.0 Q 419.0,176.0 413.0,176.0 Q 403.0,176.0 400.0,207.0 Q 400.0,211.0 394.0,232.5 Q 388.0,254.0 388.0,269.0 L 388.0,279.0 Q 388.0,311.0 384.0,334.5 Q 380.0,358.0 378.0,362.0 Q 376.0,366.0 379.0,379.0 Q 383.0,391.0 379.0,395.0 Q 375.0,399.0 372.0,412.0 L 368.0,427.0 L 393.0,423.0 Q 409.0,421.0 432.0,415.0 Q 441.0,412.0 462.0,411.0 Q 483.0,410.0 500.0,409.0 Q 517.0,408.0 518.0,407.0 Q 520.0,405.0 509.5,381.5 Q 499.0,358.0 486.0,328.5 Q 473.0,299.0 470.0,288.0 Q 468.0,278.0 461.0,262.5 Q 454.0,247.0 443.5,226.5 Q 433.0,206.0 428.0,195.0 M 290.0,437.0 Q 321.0,437.0 321.0,356.0 Q 321.0,336.0 316.0,333.0 Q 312.0,330.0 316.0,330.0 Q 323.0,330.0 327.5,297.0 Q 332.0,264.0 333.0,232.0 L 334.0,199.0 Q 325.0,209.0 315.0,220.0 Q 301.0,235.0 287.0,242.5 Q 273.0,250.0 267.0,261.0 Q 261.0,270.0 253.5,278.5 Q 246.0,287.0 242.0,292.0 Q 238.0,297.0 238.0,301.0 Q 238.0,302.0 218.0,349.0 Q 198.0,396.0 198.0,428.0 Q 198.0,450.0 209.0,450.0 L 214.0,448.0 Q 220.0,447.0 228.0,445.5 Q 236.0,444.0 246.5,442.0 Q 257.0,440.0 268.5,438.5 Q 280.0,437.0 290.0,437.0 M 641.0,541.0 Q 641.0,555.0 648.0,555.0 Q 656.0,555.0 678.0,524.0 Q 700.0,493.0 700.0,481.0 Q 700.0,470.0 703.0,470.0 Q 707.0,470.0 710.5,459.5 Q 714.0,449.0 714.0,439.0 Q 714.0,423.0 705.0,424.0 Q 702.0,424.0 664.0,428.0 Q 603.0,433.0 603.0,440.0 Q 603.0,451.0 612.5,475.0 Q 622.0,499.0 631.5,519.0 Q 641.0,539.0 641.0,541.0 M 608.0,589.0 Q 608.0,586.0 594.0,562.5 Q 580.0,539.0 580.0,532.0 Q 580.0,525.0 568.5,509.0 Q 557.0,493.0 555.0,483.0 Q 547.0,448.0 526.0,448.0 Q 519.0,448.0 499.5,455.5 Q 480.0,463.0 463.0,466.0 Q 379.0,482.0 363.0,490.0 Q 356.0,494.0 357.5,505.0 Q 359.0,516.0 355.0,526.0 Q 350.0,535.0 350.0,576.0 Q 350.0,604.0 353.0,606.0 Q 358.0,611.0 394.0,616.0 Q 430.0,621.0 462.0,621.0 Q 510.0,621.0 559.0,610.5 Q 608.0,600.0 608.0,589.0 M 293.0,566.0 Q 297.0,566.0 298.0,530.0 L 299.0,498.0 L 281.0,499.0 Q 230.0,501.0 235.0,516.0 Q 237.0,520.0 244.0,526.0 Q 256.0,535.0 256.0,542.0 Q 256.0,547.0 271.0,556.5 Q 286.0,566.0 293.0,566.0"/>
  </g>
</svg>