<svg xmlns="http://www.w3.org/2000/svg" xmlns:xlink="http://www.w3.org/1999/xlink" version="1.1" viewBox="39 86 643 649">
  <path fill="currentColor" d="M344 142q11 0 27.5 -7t21.5 -7q9 0 14 -7q3 -4 9.5 -5t13.5 -0.5t15 1.5t14 3t10.5 3l4.5 1q4 2 22 6.5t32 13.5q16 12 22 12t27 15t21 19q0 3 6.5 13.5t15 26.5t11.5 29q3 11 5.5 17.5t4 7.5t3 3.5t2.5 6t2.5 13.5t3.5 28q1 7 1 18q0 10 -4.5 20t-8 15.5t-1.5 7.5t-3 12 t-12.5 22.5t-9.5 16.5q-1 6 -22.5 14t-25.5 11q-6 4 -30 10l-24 5l-6 30q-7 44 -27 82.5t-41 45.5q-8 4 -8 10q0 4 -6 6t-17 6t-19 11q-33 27 -115 27q-38 0 -70.5 -6t-42.5 -15q-15 -15 -36 -33q-19 -17 -24 -26.5t-12 -42.5q-3 -15 -11 -32t-6 -27q2 -9 -1 -24t-1 -24 q13 -41 17 -50t9 -16q6 -7 14.5 -18.5t13.5 -17.5t8 -6q4 0 24.5 -19t32.5 -19q14 0 34 -10q15 -8 18 -13t5 -25q3 -25 8.5 -47t8.5 -22t5 -6q1 -3 14.5 -18t32.5 -30.5t30 -15.5zM561 253q0 -5 -12 -12t-12 -11q0 -5 -10.5 -12t-18.5 -7q-9 0 -11.5 -1.5t-10 -7 t-23.5 -12.5q-21 -9 -44 -9q-11 0 -17 3q-19 10 -67 28q-11 4 -23.5 19.5t-12.5 25.5q0 14 -2.5 18t-2.5 17v18l26 5q25 5 36 5q7 0 24.5 12t23.5 14q7 2 30 23.5t25 21.5q4 0 4 6q0 5 9 12.5t19 7.5q14 0 49 -17t35 -29q0 -4 5.5 -13t5.5 -21q0 -20 -12.5 -50.5 t-12.5 -33.5zM305 372h-4q-16 0 -37.5 -2t-23.5 -2q-8 0 -13.5 4.5t-17.5 15.5t-31 22q-16 10 -23.5 17.5t-15.5 25.5q-12 24 -12 38q0 5 3.5 22t17.5 50t35 55l18 19l54 1q4 0 11 0.5t10 0.5q34 0 47 -5q51 -19 61 -31q2 -2 22 -18.5t26 -31.5q9 -19 9 -46q0 -22 -7 -31 t-14 -21q-7 -14 -18.5 -25t-42.5 -33q-22 -16 -31.5 -20.5t-22.5 -4.5z"/>
</svg>