<svg xmlns="http://www.w3.org/2000/svg" xmlns:xlink="http://www.w3.org/1999/xlink" version="1.1" viewBox="31 27 791 747">
   <path fill="currentColor" d="M396 679q0 -6 3.5 -10.5t3.5 -8.5q0 -8 9 -26q8 -18 8 -42q0 -52 -6 -76q-3 -9 -3 -84q0 -71 -6 -77q-5 -5 -39 -14.5t-51 -9.5q-14 0 -42.5 -14t-36.5 -16q-21 -6 -32 -15t-18 -9q-9 0 -45 -33.5t-43 -49.5q-9 -20 -20 -55t-11 -46t7.5 -15t37.5 -11q28 -6 70 -6 q108 0 136 23q49 40 75 67q20 21 30 21q8 0 18 -17q24 -42 80 -69q35 -17 52.5 -20.5t56.5 -3.5q136 0 152 16q4 4 4 12q0 12 -8 41.5t-12 34.5q-7 7 -7 10q0 13 -42.5 55.5t-59.5 47.5q-10 3 -10 9q0 4 -8 4q-10 0 -32 13q-11 7 -20.5 10.5t-23.5 7.5t-21 7q-5 2 -21.5 5 t-29 6.5t-15.5 8.5q-2 3 -7 49.5t-5 55.5q0 5 3 16q9 27 9 184v28q0 32 -7 44.5t-34 12.5q-17 0 -24 -8q-5 -6 -10 -23.5t-5 -29.5zM714 124q0 -6 -48 -6h-23q-26 0 -38.5 1.5t-17 2t-18.5 8.5t-25 13l-36 18l-18 37q-21 43 -21 55q0 17 34 17q59 0 89 -25q10 -8 23 -17 t19 -14q2 -2 21.5 -14t23.5 -20q2 -5 18.5 -26.5t16.5 -29.5zM310 152q-12 -10 -45 -20t-51 -10q-4 0 -14.5 2.5t-24.5 2.5q-30 0 -30 6t14.5 29.5t28.5 40.5q15 21 42 28q15 4 22.5 7t17 8t23.5 11q29 11 34 16q4 4 28 4q23 0 31 -9q6 -6 5.5 -11.5t-10.5 -19.5 q-7 -11 -23 -31q-4 -4 -9.5 -16t-11.5 -20.5t-13 -8.5q-5 0 -14 -9z"/>
</svg>