<svg xmlns="http://www.w3.org/2000/svg" xmlns:xlink="http://www.w3.org/1999/xlink" version="1.1" viewBox="40 31 410 746">
   <path fill="currentColor" d="M59 540q0 -11 11.5 -21.5t25.5 -10.5q18 0 63 23.5t46 23.5t1 -6q0 -23 -7 -51.5t-7 -35.5q0 -18 4.5 -24t20.5 -10q25 -6 35 2q1 1 2 27.5t2.5 53t3.5 26.5q3 0 13 -8t23 -19t23 -15q8 -4 24 -16t29 -12q16 0 24 13.5t8 22.5q0 13 -25.5 28.5t-28.5 23.5q-2 5 -7.5 8.5 t-16 9.5t-18.5 12l-13 11q20 6 29.5 12.5t28.5 9.5q27 4 51 16q18 8 22.5 13t4.5 19q0 35 -50 35q-18 0 -30 -8.5t-18 -17t-10 -8.5q-5 0 -20.5 -7t-22.5 -7q-5 0 -6 2.5t1 12.5q5 26 5 47q0 28 -20 28q-42 0 -42 -25q0 -5 3 -20t3 -27q0 -23 -7 -23t-31 19.5t-25 26.5 q-3 23 -38 23q-24 0 -31.5 -7.5t-7.5 -23.5q0 -20 7.5 -31.5t13 -13.5t8.5 -2q7 0 29 -11.5t22 -20.5q0 -4 -7.5 -5.5t-22 -6t-27.5 -13.5q-19 -13 -24 -13q-1 0 -6.5 -3.5t-11.5 -10.5t-6 -15zM356 96q0 7 -6.5 16t-6.5 15q0 7 -9 16t-9 16q0 3 -4 10t-10.5 19t-11.5 24 q-28 71 -36 71q-3 0 -9 26l-5 25h-23q-23 0 -30 -2.5t-7 -13.5q0 -9 5 -31.5t14 -25.5q10 -3 28 -39.5t18 -52.5q0 -23 20 -63.5t44 -40.5q15 0 26.5 9t11.5 22z"/>
</svg>