<svg xmlns="http://www.w3.org/2000/svg" xmlns:xlink="http://www.w3.org/1999/xlink" version="1.1" viewBox="28 92 670 578">
  <path fill="currentColor" d="M668 591q0 24 -55 24q-22 0 -22 -3q0 -4 -13 -9.5t-21 -5.5q-10 0 -17 -9q-8 -10 -45 -22q-89 -30 -106 -49q-2 -2 -6 -4.5t-9.5 -5t-7.5 -3.5q-31 -18 -44 -18q-5 0 -10.5 19t-9.5 20q-7 2 -7 8q0 8 -17 40q-13 25 -20 32.5t-32 20.5q-34 18 -64 18q-37 0 -59 -30 q-13 -17 -13 -31q0 -92 73 -163q24 -22 24 -33t-20 -20q-22 -11 -22 -15t-14 -23.5t-23 -26.5q-5 -5 -11 -21.5t-10 -21.5t-10 -18t-11 -18q-7 -7 -6 -33q2 -21 12.5 -34.5t35.5 -26.5q20 -10 51 -10q23 0 39 8q22 11 55 55q42 58 42 85q0 8 5 15.5t3 14.5q-1 6 2 7.5 t16 1.5t24 -3.5t28.5 -13.5t19.5 -11q19 -9 22 -14t13 -5q6 0 21 -9t20 -9t20 -9.5t21 -9.5q10 0 10 -4q0 -3 23 -10.5t44 -11.5q17 -2 24 8q8 12 8 23q0 10 -11 16.5t-45 15.5q-20 5 -45 16.5t-28 16.5t-13 5q-9 0 -22 9q-14 10 -17 10q-5 0 -16 4.5t-24 11t-14 7.5 q-24 11 -46.5 25t-22.5 19q0 9 16.5 28t26.5 21q12 2 12 8q0 4 13 10q12 5 44 26q11 8 21 8q4 0 18.5 9.5t17.5 9.5q4 0 24 9l16 6q15 6 24.5 11t9.5 8t15.5 3.5t40 6t41.5 20.5q13 13 13 24zM219 227q-3 -11 -29.5 -29t-39.5 -18q-10 0 -19 9q-8 9 -8 13.5t8 15.5 q8 10 14 25q14 31 46.5 66t48.5 35q15 0 15 -19q0 -15 -9.5 -42t-15.5 -35q-7 -7 -11 -21zM265 456q0 -11 -6 -19t-16 -8q-12 0 -19 11q-4 7 -10 7q-10 0 -36.5 43t-29.5 65q-3 20 8 34q7 10 12 11t19 -3q30 -8 44 -42q34 -68 34 -99z"/>
</svg>