<svg xmlns="http://www.w3.org/2000/svg" xmlns:xlink="http://www.w3.org/1999/xlink" version="1.1" viewBox="35 21 924 954">
  <path fill="currentColor" d="M402 150q-26 -17 -41.5 -10t-34.5 45q-26 50 -44.5 131t-9.5 102q3 9 31 41q31 36 38.5 47.5t8.5 24.5q1 33 -8.5 48.5t-40.5 29.5q-28 13 -35 13q-15 0 -57.5 23t-48.5 35q-6 9 -6 18t8 40q6 28 12 40t18 25q22 22 36.5 24.5t43.5 -12.5q36 -16 62 -24q21 -7 32 -7t44 6 q43 9 56 9q9 0 53.5 10.5t69.5 18.5t57 12q32 5 47 10q11 5 70 9q58 4 64 -3q4 -5 0 -11.5t-19 -21.5q-28 -30 -50 -49q-14 -13 -62 -54q-62 -55 -69 -101q-5 -38 8.5 -63.5t50.5 -50.5q59 -39 86 -68q14 -14 16.5 -22t2.5 -30t-3 -31t-15 -25l-18 -24l-88 1h-12 q-63 1 -80 -5t-53 -42q-4 -4 -6 -5q-89 -86 -114 -104zM329 70q14 -5 43 -4t39 7q8 4 21 11q10 5 50 38.5t71 63.5q37 37 52 48q23 15 92 0q27 -7 36.5 -6.5t31.5 9.5q46 17 74 57.5t28 90.5q0 84 -92 146q-30 20 -47 33.5t-26.5 23.5t-8.5 16.5t7 12.5q8 7 8 12q0 8 57 55 q39 31 90 85t56 69q6 18 3 36t-15 29q-23 22 -75 29t-103 -5q-31 -7 -60 -10q-31 -4 -54 -11q-41 -11 -105 -24q-24 -5 -56 -13q-26 -7 -61 -11q-21 -2 -32.5 1t-42.5 18q-30 16 -43 19.5t-36 2.5q-26 0 -42 -7t-41 -29q-22 -19 -38.5 -53.5t-21.5 -70.5q-11 -79 24 -116 q14 -16 50 -35.5t64 -27.5q18 -4 31.5 -12.5t13.5 -14.5q0 -5 -27 -32q-25 -27 -39 -53q-9 -18 -10 -27.5t2 -39.5q12 -93 24 -121q7 -16 11 -34q3 -17 10 -28q8 -10 8 -19q0 -20 29.5 -60.5t49.5 -48.5z"/>
</svg>