<svg xmlns="http://www.w3.org/2000/svg" xmlns:xlink="http://www.w3.org/1999/xlink" version="1.1" viewBox="19 72 808 849">
   <path fill="currentColor" d="M486 167l21 -8l32 -14l48 -11l58 9l50 40l31 57l6 72l-19 52l-31 51l-8 33l9 30l21 28l51 45l26 49l9 74l-13 57l-32 43l-46 19l-48 2l-46 -10l-54 -20l-23 -2l-22 19l-16 31l-38 40l-63 29h-65l-57 -18l-32 -32l-15 -47l2 -42l4 -26l-3 -15l-16 -16l-46 -11l-51 -24 l-39 -50l-15 -69l6 -59l31 -48l48 -33l48 -14l11 -9l1 -11l-11 -30l-7 -36l6 -56l24 -61l43 -46l57 -18l58 8l53 34l31 14h31zM500 251l-50 4l-44 -15l-62 -39l-23 -3l-18 6l-18 20l-13 35l-5 34l10 40l7 32l-3 37l-24 34l-33 20l-45 14l-24 17l-12 14l-4 27l9 37l16 20 l25 12l60 17l34 25l20 38l4 38l-5 43l1 19l13 15l22 6h34l33 -13l19 -21l30 -53l29 -25l38 -7l41 4l66 23l35 8l24 -4l17 -15l6 -30l-5 -34l-14 -29l-46 -39l-36 -48l-14 -36l-2 -42l8 -33l35 -63l13 -37l-4 -37l-13 -26l-21 -16l-21 -4l-39 8z"/>
</svg>