<svg xmlns="http://www.w3.org/2000/svg" xmlns:xlink="http://www.w3.org/1999/xlink" version="1.1" viewBox="22 25 776 745">
  <path fill="currentColor" d="M301 240q0 -26 8 -44.5t8 -22.5t-0.5 -12.5t-0.5 -11.5q0 -7 3 -7t7 -22q2 -22 7 -50q1 -3 10.5 -7t20.5 -4q15 0 15 6q0 2 -1 3q-2 3 1 2q11 -2 11 2t2.5 7.5t8 12.5t10.5 22q22 57 36 72q9 9 9 15q0 4 6 14t14 24.5t12 25.5q4 13 9.5 18t25 8t62.5 3q38 0 42 -7.5 t42 -7.5q30 -1 40.5 -5.5t11.5 -4.5q11 0 26.5 17.5t15.5 27.5q0 7 -8 15.5t-49 46.5q-14 13 -43.5 37.5t-50 42t-20.5 19.5q0 3 27.5 62.5t32.5 59.5q3 0 6.5 6.5t10 18t14.5 20.5q14 15 14 32q0 16 -13 25.5t-21 9.5q-12 0 -74.5 -36t-62.5 -43q0 -2 -9 -9t-25.5 -19.5 t-27.5 -21.5l-19 -15l-19 11q-50 27 -52 36q-4 12 -54.5 41t-51.5 40q-1 20 -28 31.5t-44 11.5q-40 0 -40 -40q0 -10 4 -11q8 -3 21 -33t22 -57.5t9 -29.5q0 -5 11.5 -31t11.5 -38q0 -10 6 -22.5t6 -26.5q0 -11 -10.5 -16.5t-35 -15.5t-45.5 -27q-15 -12 -22.5 -16t-18.5 -8 t-27 -12q-30 -16 -30 -30q0 -8 12 -19q10 -8 25 -9.5t92 -1.5h104l5 -16q5 -16 5 -36zM614 349q-6 0 -38.5 4.5t-60.5 4.5q-40 0 -46 -7q-28 -34 -48.5 -75.5t-32.5 -56.5q-12 -16 -12 -20q0 -7 -4 -7q-3 0 -8 15.5t-5 23.5q0 15 -6.5 33.5t-7.5 34.5q-6 61 -32 61 q-1 0 -13.5 -2.5t-33.5 -2.5q-33 1 -33 5q0 2 13.5 11t15.5 15q2 5 24 16.5t22 26.5q0 6 -17 55t-20 73q-2 15 -5.5 26t-6 16t-2.5 6t1 1q5 0 28.5 -16t30.5 -24q6 -8 28 -20.5t42 -31.5q27 -25 36 -25q8 0 22.5 9.5t24.5 20.5q5 5 40.5 24t44.5 19q3 0 3 -2 q0 -13 -18.5 -60t-18.5 -62t12 -15q4 0 7 -2.5t11.5 -8.5t21.5 -12q16 -8 34 -23.5t18 -22.5q0 -5 -11 -5z"/>
</svg>