<svg xmlns="http://www.w3.org/2000/svg" xmlns:xlink="http://www.w3.org/1999/xlink" version="1.1" viewBox="7 222 661 357">
  <path fill="currentColor" d="M156.054 551.518c-32.8711 -13.2275 -44.8389 -21.0645 -65.3027 -42.7002c-34.4238 -36.4014 -48.6475 -79.834 -51.3135 -156.738c-1.9043 -55.3125 2.10938 -76.2451 17.915 -93.3105l8.21777 -8.8623h162.29c89.2676 0 177.466 -1.4502 196.011 -3.20801 s64.8486 -4.2334 102.905 -5.47852l69.1846 -2.27051l10.0342 10.0195c14.5605 14.5605 24.0234 48.9111 28.5352 103.564c3.28125 39.7998 3.01758 50.8887 -1.97754 80.2734c-12.0117 70.5762 -40.1807 104.78 -101.177 122.886 c-21.46 6.35742 -59.2822 7.22168 -75.1025 1.71387c-14.7656 -5.15625 -39.5215 -36.2109 -55.5762 -69.7559c-7.19238 -15.0439 -20.2441 -53.54 -28.9893 -85.5176c-8.73047 -31.9922 -16.2451 -58.5791 -16.6699 -59.0771 c-0.439453 -0.512695 -8.80371 0.791016 -18.6182 2.88574c-21.1523 4.54102 -19.5117 1.34766 -35.9326 69.873c-14.1943 59.1943 -30.1465 96.0059 -50.918 117.437c-18.2227 18.8379 -28.1396 23.9502 -50.8154 26.25 c-14.9561 1.52344 -22.6611 0.0878906 -42.7002 -7.9834zM222.104 509.096c5.96191 -5.63965 14.8389 -19.1748 19.7461 -30.1025c11.499 -25.6201 33.0469 -112.09 44.502 -178.638l2.21191 -12.8174h-102.861h-102.861l-3.69141 9.4043 c-2.3291 5.93262 -3.03223 25.8398 -1.9043 53.877c1.99219 49.0576 10.7959 89.458 24.7412 113.408c12.2461 21.0059 36.2402 40.3564 62.3291 50.2295c27.8613 10.5615 42.3926 9.21387 57.7881 -5.36133zM529.12 516.581 c41.5869 -12.8467 55.957 -32.5781 65.6982 -90.249c4.73145 -28.0078 5.00977 -39.3311 1.78711 -73.2275c-2.09473 -22.0605 -6.21094 -48.1787 -9.14062 -58.0664l-5.33203 -17.959l-55.4297 1.96289c-47.7539 1.68457 -136.743 7.89551 -137.915 9.62402 c-2.8418 4.16016 8.71582 64.1748 20.8594 108.34c16.5527 60.1904 32.5928 97.4268 49.7021 115.444c9.3457 9.84375 12.6562 11.1182 28.8428 11.1182c10.0488 0 28.4766 -3.14941 40.9277 -6.9873zM351.845 303.622 c0.307617 -0.380859 1.62598 -4.16016 2.92969 -8.39355c2.19727 -7.17773 1.34766 -7.69043 -12.876 -7.69043c-14.4287 0 -15.3223 0.556641 -16.7871 10.6055l-1.56738 10.6201l13.8721 -2.22656c7.63184 -1.21582 14.1211 -2.53418 14.4287 -2.91504z"/>
</svg>