<svg xmlns="http://www.w3.org/2000/svg" xmlns:xlink="http://www.w3.org/1999/xlink" version="1.1" viewBox="59 78 307 632">
  <path fill="currentColor" d="M185 553q-11 0 -19 -10.5t-8 -23.5q0 -23 19 -33q7 -3 15 -5t13 -1t5 4q0 4 32 4h16q17 0 24 -4.5t7 -19.5q0 -10 -3.5 -14.5t-15.5 -11.5q-13 -7 -19 -7q-3 0 -12 3.5t-20 3.5q-16 0 -30.5 -10.5t-14.5 -26.5t20.5 -31.5t54.5 -25.5q33 -9 35 -23q1 -10 -11 -13t-12 -6 t-18.5 -7t-29.5 -4q-31 0 -31 11q0 2 -6 2q-4 0 -29 21t-27 21q-1 0 -6 -1t-8 -1q-23 -2 -23 -72v-12q0 -47 -8 -106q-2 -16 -2 -20q0 -10 6 -19.5t13 -7.5q8 2 13 2q19 0 27 82q5 48 15 48q3 0 4 -3q3 -5 41 -5q18 0 25.5 1.5t16.5 5.5t22 7q56 14 78 48q10 16 10 23 t-5.5 22.5t-7.5 17.5q-4 2 -4 11q0 7 -10 17q-9 8 -2 12q8 4 22.5 36t14.5 53q0 15 -15 35q-11 14 -12 60q-1 44 -12 66q-11 21 -27 24q-15 4 -15 8q0 3 -19 3q-56 0 -80 -11q-49 -23 -49 -40q0 -27 25 -27q10 0 48 6t44 6q23 0 23 -19q0 -16 -18.5 -30t-41.5 -14 q-4 0 -10 0.5t-8 0.5z"/>
</svg>