<svg xmlns="http://www.w3.org/2000/svg" xmlns:xlink="http://www.w3.org/1999/xlink" version="1.1" viewBox="36 29 489 787">
  <path fill="currentColor" d="M179 488q-17 0 -17 -13q0 -15 23.5 -59t23.5 -51q0 -8 2 -9q4 -2 2.5 -12.5t-6.5 -16.5q-4 -5 2.5 -15t17.5 -10q1 0 5.5 1t12.5 4t15 8t12.5 15.5t5.5 23.5t-6.5 29.5t-11.5 16.5t-10 14q-4 11 -20.5 29t-21.5 18q-4 0 -11 13.5t-18 13.5zM369 147q-1 0 -7 -5.5 t-24.5 -11.5t-49.5 -6q-28 0 -50 7t-27 7q-22 0 -69 30.5t-47 44.5q0 10 -8 14t-19 0q-8 -4 -9.5 -8t0.5 -16q2 -16 10.5 -28.5t8.5 -24.5q0 -5 13.5 -13.5t34.5 -19.5t31 -18q17 -11 52.5 -22.5t76.5 -11.5q28 0 47.5 6t31.5 6q10 0 36.5 18.5t47.5 39.5q32 33 43 66.5 t11 83.5q0 24 -3 40t-6.5 21.5t-6.5 11.5t-3 12q0 7 -3 13.5t-4 17.5q-1 9 -7.5 20t-12.5 19t-6 9t-16.5 30t-34 59t-20.5 33t-11 13.5t-14 18.5t-9 8q-6 0 -48.5 44t-42.5 49q0 4 -19 18t-19 16q0 3 -18 23l-18 19l-21 -8q-30 -11 -30 -21q0 -9 14 -27.5t22 -18.5q4 0 4 -7 q0 -4 14 -12t16 -17q4 -11 9 -11t19.5 -16.5t41.5 -49t51 -57.5q23 -23 34 -41t14.5 -26t8.5 -12q4 -3 24.5 -45t20.5 -48q0 -4 2 -7t4.5 -6t6 -16.5t5.5 -34.5q2 -30 2 -32q0 -15 -6.5 -24.5t-6.5 -26.5q0 -15 -26.5 -42t-34.5 -27z"/>
</svg>