<svg xmlns="http://www.w3.org/2000/svg" xmlns:xlink="http://www.w3.org/1999/xlink" version="1.1" viewBox="38 168 670 443">
  <path fill="currentColor" d="M69 556q0 -20 12 -25t45 -5q26 0 96.5 6t94.5 6q25 0 57.5 -3t63.5 -3q19 0 72 0.5t78 0.5q62 0 76 4.5t14 24.5q0 15 -9.5 20t-43.5 5q-14 0 -95.5 -4t-101.5 -4q-18 0 -50.5 6t-47.5 6q-12 0 -19 -1q-50 -5 -187 -7q-33 0 -44 -4.5t-11 -22.5zM280 432q0 -4 -9.5 -12 t-9.5 -12q0 -7 -8 -15q-5 -5 -16 -31t-15 -31q-4 -4 -4 -33q0 -26 16 -53t24 -35t8 -12q0 -9 30 -6q80 10 102 14.5t35 15.5q18 15 35.5 56.5t17.5 69.5q0 13 -10 40.5t-18 36.5q-9 11 -33.5 20.5t-48.5 9.5q-19 0 -57.5 -8t-38.5 -15zM436 339q0 -41 -23 -66t-62 -25 q-13 0 -35 15q-45 31 -45 46q0 12 17 42.5t28 37.5q20 14 53 14q67 0 67 -64z"/>
</svg>