<svg xmlns="http://www.w3.org/2000/svg" xmlns:xlink="http://www.w3.org/1999/xlink" version="1.1" viewBox="37 45 711 659">
  <path fill="currentColor" d="M545 612q0 57 -40 57q-25 0 -53 -22q-14 -11 -14 -43q0 -15 15 -23t32 -10.5t18 -3.5h2q3 0 11 3t18.5 14t10.5 28zM692 538q0 14 7 32t7 27q0 15 5 27q5 14 -7 23q-11 8 -19 8q-16 0 -29 -16t-13 -28q-2 -47 -13 -80t-25 -33q-8 0 -13.5 -4t-9.5 -3l-1 1h-1l-2 -2 q-3 -2 -14.5 -4.5t-33.5 -2.5q-27 0 -49.5 7.5t-31.5 14.5l-9 7q-6 15 -40 36t-36 28q-4 10 -26 29.5t-29 19.5t-12 5q-27 23 -50.5 31.5t-37 8t-15.5 1.5q-3 3 -11 3q-15 0 -33.5 -10t-22.5 -22q-1 -3 -13 -12.5t-22 -31t-10 -60.5q0 -35 12.5 -66t23.5 -44.5t13 -13.5 q3 0 17.5 -10t33.5 -22t29 -15q19 -6 20 -9q4 -6 30 -20t38 -16q25 -5 40 -24t18 -33.5t3 -26.5q0 -6 -2 -12.5t-6 -13t-9 -13.5t-10.5 -13t-11 -11t-10.5 -10t-9 -8t-6 -5l-3 -2q-4 -6 -56 -6q-62 0 -78 16q-30 29 -56 29q-33 -2 -33 -24q0 -15 18 -33t32 -21l45 -18 q45 -18 73 -18q14 0 29.5 8.5t33.5 10.5q17 2 23.5 6.5t10.5 4.5q15 1 43 35.5t28 44.5q0 4 9.5 20.5t9.5 34.5q0 11 -2.5 26.5t-20.5 47.5t-49 57q-13 10 -39.5 19t-38.5 19q-16 14 -25 14q-12 0 -41.5 23.5t-50.5 49.5q-5 7 -10 26t-5 31q0 1 2.5 7.5t7.5 15t10 13.5 q13 13 41 13q24 0 31.5 -5t9.5 -5q6 0 39 -25.5t33 -30.5q0 -3 5.5 -6.5t15.5 -9.5t17 -13q14 -13 31 -23t26.5 -15.5t11.5 -10.5t20.5 -9.5t26.5 -15.5q11 -14 38 -14h8q13 0 17 -3h2q1 -1 2 -1q16 0 52.5 16t38.5 16q15 0 39 35t24 56z"/>
</svg>