<svg xmlns="http://www.w3.org/2000/svg" xmlns:xlink="http://www.w3.org/1999/xlink" version="1.1" viewBox="6 189 675 615">
  <path fill="currentColor" d="M167 527c-80 0 -130 -63 -130 -145c0 -50 20 -102 65 -135c27 -19 54 -30 81 -30s52 11 71 28c38 34 58 91 58 153c0 23 -3 46 -8 69c0 1 -1 1 -1 2c-11 47 -20 104 -27 155c36 -58 81 -122 134 -161c27 -20 58 -35 91 -35c7 0 15 1 22 2c79 16 127 76 127 141 c0 61 -43 121 -126 147c-3 1 -5 1 -7 1c-14 0 -26 -11 -26 -25c0 -11 8 -21 18 -24c67 -21 91 -63 91 -99c0 -39 -29 -80 -88 -92c-4 -1 -7 -1 -11 -1c-18 0 -39 8 -61 25c-28 21 -56 54 -82 89c-58 80 -99 169 -99 169c-4 9 -13 15 -23 15c-14 0 -26 -12 -25 -27 c0 0 12 -129 33 -239c-27 12 -53 17 -77 17zM183 267c-14 0 -31 5 -51 20c-29 21 -45 58 -45 95c0 17 4 35 10 49c14 33 39 46 69 46c28 0 60 -12 91 -30c3 -16 5 -33 5 -48c0 -52 -18 -96 -41 -117c-11 -10 -24 -15 -38 -15zM546 574c0 28 -22 50 -50 50s-50 -22 -50 -50 s22 -50 50 -50s50 22 50 50z"/>
</svg>