<svg xmlns="http://www.w3.org/2000/svg" xmlns:xlink="http://www.w3.org/1999/xlink" version="1.1" viewBox="182 241 636 516">
  <path fill="currentColor" d="M512 614q21 -7 34.5 3.5t17.5 36.5q7 51 -17 66q-20 14 -49 -13q-16 -15 -16 -34q0 -20 9 -37.5t21 -21.5zM426 312q11 -13 30 -1q9 6 7.5 49t-12.5 71q-36 96 -104 103q-29 2 -47.5 -9t-40.5 -46q-19 -28 -33.5 -59.5t-14.5 -46t7 -26t17 -13.5q15 -4 21.5 3.5t3.5 26.5 q-2 14 1 25t15 34q19 36 33.5 50.5t30.5 14.5q30 0 52.5 -37t26.5 -91q1 -41 7 -48zM751 283q17 -18 31 5q6 8 6.5 19t-3.5 44q-15 142 -84 177q-38 20 -67.5 1t-52.5 -79q-17 -44 -22 -75q-4 -20 -3 -29t7 -23q10 -20 23 -22t19.5 7t0.5 20q-9 17 4 68.5t35 81.5 q24 35 55 -6q38 -48 42 -136q1 -7 1 -13q0 -32 8 -40z"/>
</svg>