<svg xmlns="http://www.w3.org/2000/svg" xmlns:xlink="http://www.w3.org/1999/xlink" version="1.1" viewBox="25 19 812 799">
  <path fill="currentColor" d="M400 168q0 2 8.5 7.5t13.5 5.5q7 0 36 -28q32 -30 36 -38q3 -9 56 -34q2 -1 12 -3.5t18 -5.5t10 -6t16.5 -4.5t31.5 -2.5t20 -2q4 -1 20 -1q65 0 96 9q26 7 26 60q0 48 -24 69q-6 6 -18 25.5t-22 26.5q-17 12 -26 25q-21 25 -70 52q-31 18 -70 23q-33 4 -42 10 q-5 4 -14 4q-8 0 -26 8t-26 15q-8 8 -8 33q0 26 20 54q18 26 70 82q13 14 37 43t45 52q48 51 48 78q0 17 -15 27t-31 10q-14 0 -28 -7q-18 -9 -102 -9q-75 0 -110 8q-36 8 -46 8q-8 0 -41 10t-43 10q-14 0 -22 -9q-5 -7 -14 -7q-10 0 -16 -9t-6 -22q0 -11 6 -23 q2 -3 20.5 -32t21.5 -40q4 -13 12 -21q10 -8 10 -12t16 -22q17 -19 24 -38q23 -56 52 -91q14 -15 22 -29q4 -8 4 -14q0 -17 -20 -27q-16 -7 -16 -11q0 -3 -22 -3q-20 0 -30 -8q-5 -4 -32.5 -16t-33.5 -16q-10 -9 -46 -28q-22 -12 -60 -50.5t-46 -57.5q-20 -46 -20 -88 q0 -29 13 -36t71 -9q15 -1 34 -1q28 0 64 14q39 15 44 15q8 0 31 13t27 20q6 9 30 25q24 15 24 19zM184 231q3 0 35.5 26.5t36.5 26.5q6 0 11.5 4.5t12.5 4.5q10 0 20 7q7 5 29.5 10t36.5 5t22 -7.5t8 -20.5q0 -12 -8 -26q-11 -22 -61.5 -67.5t-64.5 -45.5q-5 0 -10 -4.5 t-12 -4.5q-13 0 -18 -5q-8 -8 -52 -8q-17 0 -23.5 5t-6.5 20q0 22 16.5 51t27.5 29zM728 146q-1 -10 -5.5 -12t-26.5 -3h-10q-96 0 -146 27q-6 3 -18 19.5t-25 36.5t-15 23q-12 15 -12 37v22l20 1h6q11 0 22 -3t23 -8t19 -7q58 -15 74 -28q15 -11 20 -11t30.5 -22t25.5 -27 q0 -4 10 -18q10 -13 8 -27zM536 697q11 0 18.5 -7t7.5 -19q0 -10 -20 -34q-31 -36 -42 -50q-17 -24 -30 -34q-10 -8 -16.5 -16t-13.5 -15q-19 -17 -32 -8q-7 5 -27 31t-25 36q-25 48 -46 77q-14 19 -14 42q0 17 12 17q10 0 26 -3q36 -6 94 -8q64 -2 74 -7q4 -2 34 -2z"/>
</svg>