<svg xmlns="http://www.w3.org/2000/svg" xmlns:xlink="http://www.w3.org/1999/xlink" version="1.1" viewBox="63 129 875 741">
  <path fill="currentColor" d="M514 270.5q0 -7.5 -7 -12.5q-8 -6 -15 3q-26 31 -61 146q-18 58 -27.5 79t-23.5 35q-24 21 -56.5 6.5t-80.5 -67.5q-52 -57 -61 -67l-22 -24v170v175q-1 3 45 13q37 7 85 20q41 11 107 27q26 6 106 6t157 -6q98 -8 127 -10q47 -3 52 -7q4 -5 -4 -32q-14 -49 -24 -103 q-5 -32 -10 -58q-23 -128 -12 -212q4 -30 5 -50t0 -30t-4 -10q-5 0 -30 38q-20 31 -45 87t-40 107q-15 47 -35.5 63.5t-40.5 -3.5q-11 -9 -19.5 -34t-21.5 -83q-29 -129 -40 -150q-4 -9 -4 -16.5zM791 175q15 -11 24.5 -11.5t21.5 9.5l13 10l-2 156q-2 155 3 184q6 29 12 67 q6 40 22 100q13 52 12 73.5t-16 36.5q-12 12 -38 16t-117 9q-92 4 -97 8q-7 4 -114 3t-124 -5q-38 -10 -54 -14q-37 -9 -52 -14q-41 -11 -113 -23q-33 -5 -33 -31q0 -12 -13 -31q-15 -23 -19.5 -70t-3.5 -176q1 -113 3 -136t9 -29q10 -7 25 -7.5t29 6.5q11 6 44 39t70 76 q32 37 46 44q10 6 13.5 5t9.5 -9q9 -13 15 -36q24 -91 53 -150q25 -52 44 -74t37 -22q19 0 29.5 6.5t19.5 23.5q9 18 27.5 78.5t27.5 99.5q8 37 14 53q4 12 9 11.5t5 -12.5q0 -14 45 -107q18 -39 56 -91t57 -66z"/>
</svg>