<svg xmlns="http://www.w3.org/2000/svg" xmlns:xlink="http://www.w3.org/1999/xlink" version="1.1" viewBox="29 114 701 519">
   <path fill="currentColor" d="M280 342q10 0 28 4.5t30 4.5q11 0 36.5 -2t26.5 -2l23 -1l-1 -28q-6 -132 -6 -140q0 -19 9 -28q10 -10 20 -10q7 0 50 6.5t58 6.5q28 0 32 -6q2 -3 28.5 -6t43.5 -3q15 0 27.5 10.5t12.5 22.5q0 6 -8 16q-9 9 -41 10q-22 0 -51.5 5t-55.5 5q-8 0 -25 -0.5t-22 -0.5 q-17 0 -20 4t-3 19q0 27 12 97q5 30 5 54v10q0 16 -6 20.5t-32 4.5q-6 0 -30 -0.5t-36 -0.5q-64 0 -64 23q0 38 8.5 80t8.5 45q0 20 -10 26q-16 9 -109 9h-33q-43 0 -65 7q-14 5 -31 5q-20 0 -24.5 -8t-4.5 -33q0 -17 2 -21t15 -9q17 -8 36 -3q12 3 48 3q95 0 105 -8 q3 -2 3 -21q0 -23 -5.5 -51t-12.5 -37q-5 -7 -5 -36q0 -26 6 -34.5t27 -8.5z"/>
</svg>