<svg xmlns="http://www.w3.org/2000/svg" xmlns:xlink="http://www.w3.org/1999/xlink" version="1.1" viewBox="-381 -62 1278 1246">
   <path fill="currentColor" d="M104.046 413.521c3.64648 -4.16602 14.0625 -7.8125 23.4375 -7.8125c15.625 0 19.793 3.64648 42.1875 37.5c14.0625 20.834 26.5625 39.0625 28.125 40.625s7.29297 11.459 13.0215 21.875c5.72852 10.9375 11.459 19.791 13.541 19.791 c2.08398 0 4.6875 4.16797 6.77148 8.85547c5.20898 15.1035 21.3535 39.582 27.6035 41.666c3.125 1.04102 9.89648 -6.77148 15.1055 -17.709c27.6035 -60.416 95.3125 -152.604 111.979 -152.604c13.0215 0 30.7285 17.709 30.7285 30.7285 c0 15.1055 -53.6445 124.48 -90.1035 183.334c-9.89648 15.625 -0.521484 23.959 29.6875 27.084c39.0625 3.64453 57.291 13.541 59.375 30.207c2.60352 21.875 -10.9375 30.7305 -47.3965 31.25c-17.707 0 -76.5625 2.08398 -131.25 4.16797 c-118.229 4.6875 -135.416 1.5625 -135.416 -25c0 -15.1055 2.08398 -17.709 20.834 -24.4805c11.457 -3.64453 32.8125 -7.29102 47.916 -7.29102c44.791 0 45.3125 -1.04102 17.709 -45.834c-13.543 -21.875 -27.6055 -48.4375 -31.25 -58.332 c-4.16797 -9.89648 -16.1465 -36.9805 -27.084 -59.8965c-11.459 -23.4375 -20.3125 -45.834 -20.3125 -50s-2.60352 -10.416 -6.25 -14.0625c-4.16602 -4.16602 -4.16602 -7.8125 1.04102 -14.0625z"/>
</svg>