<svg xmlns="http://www.w3.org/2000/svg" xmlns:xlink="http://www.w3.org/1999/xlink" version="1.1" viewBox="172 311 354 361">
  <path fill="currentColor" d="M228 336c0 -2 1.5 -3.83203 4.5 -5.49902s6.5 -2.5 10.5 -2.5c8 0 17.5 11.833 28.5 35.5s29.833 73.834 56.5 150.501c14.667 41.333 23.667 62 27 62s22.333 -35 57 -105c26.667 -54 44.834 -87.833 54.501 -101.5s18.167 -18.167 25.5 -13.5c6 3.33301 6 12.5 0 27.5 s-24.333 52.167 -55 111.5c-37.333 70 -54 106 -50 108c2.66699 1.33301 22.334 5.66602 59.001 12.999c43.333 8 64.333 18 63 30c0 2.66699 -1 5 -3 7c-2.66699 2.66699 -28.334 -0.333008 -77.001 -9c-30.667 -6 -53.834 -9.33301 -69.501 -10s-35.167 1 -58.5 5 c-74.667 12 -112 11 -112 -3c0 -0.666992 0.333008 -1.33398 1 -2.00098c0.666992 -6 5.66699 -10.333 15 -13s27.666 -5.33398 54.999 -8.00098c44.667 -4 68.334 -7.33301 71.001 -10c2 -1.33301 0.333008 -5.66602 -5 -12.999c-6 -6.66699 -20 -42 -42 -106 c-20 -56.667 -35 -96 -45 -118c-7.33301 -14 -11 -24 -11 -30z"/>
</svg>