<svg xmlns="http://www.w3.org/2000/svg" xmlns:xlink="http://www.w3.org/1999/xlink" version="1.1" viewBox="55 -37 587 854">
   <path fill="currentColor" d="M165 699q0 23 -10 45.5t-27 22.5q-10 0 -20 -8t-14 -17q-3 -9 -3 -85q0 -17 0.5 -58.5t0.5 -59.5q0 -73 -3 -76q-4 -3 -4 -35q0 -30 4 -37q2 -4 2.5 -7.5t-1.5 -4.5q-5 -3 -5 -58q0 -28 12 -51q8 -16 13 -20.5t15 -4.5q15 0 17 -6q2 -5 47.5 -11t105.5 -8q23 -1 40.5 -3 t24.5 -2q21 0 60 3t43 5q6 4 6 0q0 -2 20 -2q56 0 75 7q11 5 17 20t14 59q2 15 9 31q3 5 5 60.5t3 59.5q3 8 -2 18q-12 25 -12 82q0 24 7.5 59t7.5 78q0 15 -5 19q-8 6 -8 11q0 6 -17 20t-38 14h-21l3 -25q4 -28 8 -35q5 -9 0 -24q-3 -9 -4 -49t-3 -74.5t-7 -34.5 q-4 0 -15 11q-2 2 -11 8.5t-16.5 12.5t-7.5 9q0 2 -6 6.5t-12 8.5t-5 5t-2 2.5t-7.5 3.5t-9.5 3.5t-9 3t-5 1.5q-10 4 -25 0l-15 -4l3 18q3 18 3 21q0 11 -4.5 45.5t-6.5 41.5q-1 2 -2.5 15.5t-4 25t-5.5 11.5q-6 0 -6 4q0 3 -10 5.5t-17 2.5q-10 0 -38 -16l1 -3 q1 -3 2.5 -7t1.5 -7q0 -5 -1 -14.5t-1 -13.5q0 -14 11.5 -38t11.5 -39q0 -4 -5 -20.5t-5 -21.5q0 -11 -3 -13q-4 -3 -4 -13q0 -15 7.5 -34t16.5 -22q6 -3 -8 -9q-6 -2 -9 -2q-5 0 -46.5 18t-44.5 18q-11 0 -15 6q-5 6 -19 10q-13 2 -15 23q-1 7 -1 32q0 16 1.5 34t1.5 28v25 zM411 512q16 0 41.5 -21.5t25.5 -28.5q0 -4 8 -18q8 -11 27 -10l19 1l1 -37v-9q0 -20 -2.5 -31t-8.5 -24t-9 -25l-7 -27l-16 3q-14 3 -25 -1q-14 -8 -49 -8q-10 0 -20 3.5t-19 3.5q-10 0 -21 5t-23 5q-6 0 -12.5 -1.5t-11.5 -1.5q-2 0 -16 2q-7 1 -24.5 3t-31.5 4.5t-21 6.5 q-3 1 -31 5.5t-31 6.5t1 18q2 12 2 35q0 7 -0.5 20t-0.5 21q0 23 2 51l2 36l14 -17q14 -16 23 -16t14 -7q5 -6 22 -10q7 -1 31.5 -13t35.5 -12q27 0 36.5 8t35.5 47q23 33 39 33zM553 38q9 -4 12.5 -2.5t6.5 9.5q3 10 11 14t8 11q0 8 -18 25.5t-32 22.5q-11 4 -38 27t-35 27 q-16 9 -30 2q-9 -5 -11.5 -9t-1.5 -16t6.5 -20t28.5 -30q43 -42 93 -61zM205 190q-9 0 -22.5 -8t-13.5 -14q0 -4 -14 -20t-14 -19q0 -6 -14 -11q-16 -6 -30.5 -29t-14.5 -40q0 -14 10 -14h23h3q10 0 27.5 15.5t21.5 23.5q2 7 8 14t9 7q5 0 20.5 18t19.5 28q4 11 4 22 q0 27 -23 27zM277 42q0 -16 7 -28t20 -12q9 0 17 7.5t5 15.5q-3 9 3 13q21 13 21 54q0 17 -8.5 28.5t-23.5 11.5q-11 0 -19 -7.5t-8 -19.5q0 -9 -7 -31t-7 -32z"/>
</svg>