<svg xmlns="http://www.w3.org/2000/svg" xmlns:xlink="http://www.w3.org/1999/xlink" version="1.1" viewBox="-31 -3 1050 1006">
  <path fill="currentColor" d="M39 59l10 -14h113h112l18 19q35 39 40 88q3 26 6 207q3 183 6 188q4 6 12 92q6 67 23 112q26 69 72 105q43 35 97 -2q28 -18 33 -31q6 -12 10 -12t19 -32.5t26 -62.5q8 -20 9.5 -63.5t1.5 -257.5v-293l15 -18q19 -24 38.5 -29t117.5 -8l119 -4l17 15q17 14 17.5 31 t-16.5 31q-12 10 -26.5 12t-87.5 2q-99 0 -103 6q-4 7 -4 285q0 185 -1.5 234.5t-7.5 57.5q-7 12 -11 35q-3 23 -10 32q-9 8 -12 24q-3 15 -12 26q-8 9 -24 33q-13 19 -40.5 44t-35.5 25t-28 10q-20 11 -55 11q-37 0 -67 -14.5t-62 -47.5q-33 -33 -33 -39q0 -4 -10.5 -17.5 t-10.5 -21.5t-9 -21q-10 -14 -13 -36q-3 -21 -11 -34q-7 -12 -11 -64q-5 -66 -6 -73q-10 -112 -15 -306q-2 -134 -8 -142q-6 -7 -43 -7q-39 0 -88 -4q-33 -2 -44 -5t-22 -13q-27 -25 -5 -53z"/>
</svg>