<svg xmlns="http://www.w3.org/2000/svg" xmlns:xlink="http://www.w3.org/1999/xlink" version="1.1" viewBox="36 73 688 674">
   <path fill="currentColor" d="M375 716q-46 0 -74.5 -18t-28.5 -54q0 -32 8 -37q5 -3 5 -19q0 -17 7 -26q8 -10 8 -16q0 -5 -24 -12.5t-49 -11.5q-17 -2 -41 -17t-31 -18q-32 -14 -71 -86q-11 -20 -13.5 -30.5t-2.5 -36.5q0 -57 10 -77q5 -11 9 -27t12 -27q1 -2 10 -15.5t13.5 -19.5t13.5 -13t18 -8 l1 -1q1 -1 3 -2t4 -2.5t5 -3.5t5 -4q16 -12 92 -26q19 -4 89 -4q64 0 79 4q2 0 20 3t32 5.5t15 5.5q1 2 19 2q13 0 39 15.5t29 16.5q17 6 56 49q23 26 31.5 38.5t13.5 31.5q6 21 6 46q0 58 -23 83q-6 6 -6.5 10.5t-8.5 10.5q-4 3 -37.5 32t-43.5 33q-9 4 -23.5 12t-30.5 13 q-23 7 -27 11q-6 4 -16 4t-23.5 8t-13.5 13q0 3 14 9q11 4 21.5 21t10.5 32q0 7 -3 27q-5 31 -10 41t-17 17q-35 18 -81 18zM625 309q0 -14 -13.5 -35t-27 -35.5t-16.5 -14.5q-5 0 -24 -19q-47 -44 -211 -44q-30 0 -41.5 2.5t-23.5 10t-28 12.5q-27 9 -34 16t-13 7 q-11 0 -52 41q-14 14 -14 84q0 24 4 39q5 17 26 41.5t44 37.5q6 3 12 5.5t9 4t3 0.5l27 9q46 18 114 18q75 0 107 -21q13 -9 18 -9q8 0 41.5 -17.5t43.5 -26.5q10 -10 16 -10t19.5 -37.5t13.5 -58.5zM331 631q0 26 49 26q17 0 30.5 -6t13.5 -17q0 -12 -19 -26t-36 -21 q-2 -2 -18 11q-20 18 -20 33z"/>
</svg>