<svg xmlns="http://www.w3.org/2000/svg" xmlns:xlink="http://www.w3.org/1999/xlink" version="1.1" viewBox="57 72 578 649">
  <path fill="currentColor" d="M92 362q0 -8 -4 -14.5t-4 -13.5q0 -16 9 -35q6 -13 6 -20q0 -1 -0.5 -4.5t-0.5 -6.5q0 -35 31 -66q54 -53 78 -68.5t61 -21.5q15 -2 25.5 -5t16.5 -4t17 -1q67 0 96 14q53 24 53 30q0 5 11 14q9 9 18 27q28 58 46 78q5 7 5 13q0 5 -3 17.5t-3 19.5q0 4 0.5 15t0.5 16 q0 13 -3 14q-6 4 -6 11t-11.5 30t-18.5 31q-2 2 -8.5 16t-15.5 16q-11 2 -11 8q0 5 -19 18t-26 13q-5 0 -10 4.5t-11 4.5q-8 0 -24 8l-14 8l3 33q4 35 9 40q9 9 50 9q21 0 26 -4q5 -3 11 -3q2 0 7 0.5t8 0.5q4 0 12.5 -3.5t14.5 -2.5h5q7 0 26 -5t24 -5q15 0 27.5 13 t12.5 28q0 46 -49 46q-13 0 -41 -1.5t-40 -1.5q-76 0 -99 14q-10 6 -17 6q-13 0 -29.5 -7.5t-18.5 -14.5q-3 -9 -5 -67q-1 -46 -6.5 -61t-21.5 -15h-5q-23 0 -53 -9q-13 -4 -19 -4q-9 0 -32.5 -20t-23.5 -28q0 -5 -9.5 -14t-9.5 -13t-9.5 -11t-9.5 -12t-9.5 -26t-9.5 -28z M289 464q16 0 20 -6.5t4 -25.5q0 -13 -4 -13q-7 0 -7 -103q0 -39 8 -45q8 -7 17 -7q31 0 39 91q0 2 3.5 23t3.5 32q0 12 -4 16q-6 8 -1 16.5t14 8.5q11 0 29 -7q42 -16 42 -35q0 -8 10 -26q22 -38 22 -72q0 -22 -15 -57.5t-24 -39.5q-7 -2 -7 -8t-27 -26q-26 -19 -42 -19 q-12 0 -24 14q-14 15 -30 15q-4 0 -25 -2t-29 -2q-15 0 -21 6q-8 6 -8 5l-9 5l-20 10l-9 5q-4 0 -4 7q0 3 -15.5 21.5t-15.5 22.5q0 6 -2 8q-8 5 -8 61q0 8 7 18.5t7 18.5q0 12 8 14t21 26q28 50 96 50z"/>
</svg>