<svg xmlns="http://www.w3.org/2000/svg" xmlns:xlink="http://www.w3.org/1999/xlink" version="1.1" viewBox="-13 88 860 810">
  <path fill="currentColor" d="M80 833c0 18 -13 28 -26 28s-27 -10 -27 -28v-340c0 -214 185 -368 391 -368s390 155 390 368v340c0 18 -13 28 -27 28s-27 -10 -27 -28v-340c0 -182 -161 -312 -336 -312s-338 129 -338 312v340zM430 762c-11 -15 -18 -5 -22 0c-20 25 -49 44 -101 44 c-74 0 -123 -33 -123 -138c0 -44 14 -69 32 -92c-28 -29 -32 -73 -32 -111c0 -91 102 -164 188 -200c20 -8 37 -11 52 -11c19 0 33 5 42 9c72 35 190 107 190 208v7c0 39 -18 72 -40 94c17 28 40 49 40 95c0 81 -50 139 -130 139c-55 0 -72 -16 -96 -44zM442 312 c0 0 -10 -5 -24 -5c-8 0 -16 1 -25 6c-57 28 -160 83 -160 152c0 57 13 90 70 90h15c25 0 55 -18 63 -43l12 -16c1 -3 3 -6 5 -9c0 0 9 -14 21 -14c6 0 13 4 20 14c22 34 29 68 88 68c53 0 74 -39 74 -95c0 -63 -109 -124 -159 -148zM427 562c-10 -14 -15 -4 -18 1 c-20 27 -51 46 -95 46h-12c-15 0 -29 -4 -43 -6c-17 17 -26 40 -26 71c0 53 22 80 75 80h6c51 0 67 -41 84 -70c0 0 9 -14 21 -14c6 0 13 4 20 14c22 32 33 70 88 70h2c46 0 72 -42 72 -88v-3c0 -31 -12 -48 -25 -63c-12 5 -25 9 -44 9h-4c-53 0 -81 -20 -101 -47z"/>
</svg>