<svg xmlns="http://www.w3.org/2000/svg" xmlns:xlink="http://www.w3.org/1999/xlink" version="1.1" viewBox="58 1 770 785">
   <path fill="currentColor" d="M573 525q0 28 -15.5 61t-26.5 33q-1 0 -14.5 12t-28 29t-15.5 27q-1 6 -18 22.5t-28 16.5q-6 0 -18.5 -9.5t-22.5 -11.5q-7 -2 -19 -8t-21 -11.5t-10 -5.5q-4 0 -30.5 -31t-33.5 -44t-23 -39q-16 -27 -16 -66q0 -20 11 -37t20.5 -24t11.5 -7q4 0 15 -14l10 -13l-11 -17 q-12 -18 -12 -19l-13 -29q-13 -29 -13 -52q0 -15 5 -33q5 -17 11 -23t29 -18q32 -17 52 -17q11 0 21 7q5 4 12 6t12.5 1t5.5 -4q0 -6 25 -11.5t51 -5.5q28 0 39 3.5t27 14.5q44 30 44 87q0 28 -13 51q-36 62 -46 69q-15 10 10 22q15 7 24 30t10.5 37t1.5 21zM303 502 q0 11 6.5 25.5t6.5 17.5q0 5 7 13.5t7 14.5q0 17 32.5 40t54.5 23q6 0 10.5 -6.5t11.5 -8.5q22 -7 43 -43t21 -57q0 -10 -6 -10q-8 0 -8 -6q0 -5 -5.5 -8.5t-12.5 -3.5q-1 0 -8.5 15.5t-22.5 31t-33 15.5q-13 0 -21.5 -9t-8.5 -23t-12.5 -23t-21.5 -10.5t-13 -1.5 q-27 0 -27 14zM336 278q-21 0 -21 20q0 23 42.5 80.5t51.5 57.5q6 -2 15 -7.5t9 -7.5q0 -3 11.5 -8.5t11.5 -10.5q0 -6 20 -22q15 -12 30.5 -40.5t15.5 -42.5q0 -6 -5 -6q-4 0 -4 -7q0 -17 -42 -17q-15 0 -18.5 4.5t-4.5 22.5q-1 20 -11.5 32.5t-25.5 12.5t-26.5 -11.5 t-14.5 -23.5q-2 -8 -12.5 -17t-21.5 -9zM99 694q0 -5 -3 -10.5t-3 -11.5q0 -3 2 -15.5t2 -25.5q0 -6 -0.5 -25t-0.5 -32v-24q0 -5 -0.5 -18t-1 -27t-0.5 -27.5v-23.5l-1 -9q0 -28 13.5 -87.5t14.5 -67.5q0 -2 7.5 -23t24.5 -54t36 -53q15 -15 23 -37q4 -13 15.5 -25 t19.5 -12q5 0 43 -19t65 -19q17 0 33 -5.5t47 -5.5q41 0 75 14q16 6 40 14q21 7 53 30t39 37q2 4 10.5 11t21 22.5t24.5 42.5q19 43 28 77.5t11.5 52t5.5 23.5q2 3 3 17.5t5 54.5t12 89q0 9 7.5 52.5t15.5 83.5l7 39q0 13 -8.5 31t-24.5 18q-13 0 -28 -16q-8 -9 -14.5 -89 t-12.5 -88q-3 -4 -5 -26t-3 -41.5t-3 -19.5t-2 -16.5t-2 -46t-9 -52.5l-15 -57q-1 -2 -7.5 -24t-14.5 -30q-6 -6 -15.5 -24t-17.5 -22q-9 -4 -9 -11q0 -5 -14.5 -13t-32.5 -17t-23 -16q-5 -9 -15 -9q-1 0 -32 -10t-58 -10q-5 0 -14 3t-28 3q-11 0 -18.5 1t-10 3t-4 3t-3.5 1 q-1 0 -4 -1t-4 -1q-6 0 -15 9t-14 9q-10 0 -27 13.5t-23 25.5q-5 9 -10.5 15.5t-8 10t-2.5 6.5q0 4 -5 8t-13 14t-13 28q-4 15 -8.5 26.5t-6 16t-1.5 11.5q0 9 -4.5 14t-4.5 11q0 2 -5.5 13t-10.5 46t-5 94q0 135 11 153q4 7 4.5 27t2.5 25t-2.5 11.5t-4.5 18.5 q0 13 -4.5 16t-28.5 7q-4 1 -10 1q-10 0 -21.5 -16t-11.5 -30v-10z"/>
</svg>