<svg xmlns="http://www.w3.org/2000/svg" xmlns:xlink="http://www.w3.org/1999/xlink" version="1.1" viewBox="58 1 770 785">
  <g>
    <path fill="currentColor" d="M 573.0,525.0 Q 573.0,553.0 557.5,586.0 Q 542.0,619.0 531.0,619.0 Q 530.0,619.0 516.5,631.0 Q 503.0,643.0 488.5,660.0 Q 474.0,677.0 473.0,687.0 Q 472.0,693.0 455.0,709.5 Q 438.0,726.0 427.0,726.0 Q 421.0,726.0 408.5,716.5 Q 396.0,707.0 386.0,705.0 Q 379.0,703.0 367.0,697.0 Q 355.0,691.0 346.0,685.5 Q 337.0,680.0 336.0,680.0 Q 332.0,680.0 305.5,649.0 Q 279.0,618.0 272.0,605.0 Q 265.0,592.0 249.0,566.0 Q 233.0,539.0 233.0,500.0 Q 233.0,480.0 244.0,463.0 Q 255.0,446.0 264.5,439.0 Q 274.0,432.0 276.0,432.0 Q 280.0,432.0 291.0,418.0 L 301.0,405.0 L 290.0,388.0 Q 278.0,370.0 278.0,369.0 L 265.0,340.0 Q 252.0,311.0 252.0,288.0 Q 252.0,273.0 257.0,255.0 Q 262.0,238.0 268.0,232.0 Q 274.0,226.0 297.0,214.0 Q 329.0,197.0 349.0,197.0 Q 360.0,197.0 370.0,204.0 Q 375.0,208.0 382.0,210.0 Q 389.0,212.0 394.5,211.0 Q 400.0,210.0 400.0,207.0 Q 400.0,201.0 425.0,195.5 Q 450.0,190.0 476.0,190.0 Q 504.0,190.0 515.0,193.5 Q 526.0,197.0 542.0,208.0 Q 586.0,238.0 586.0,295.0 Q 586.0,323.0 573.0,346.0 Q 537.0,408.0 527.0,415.0 Q 512.0,425.0 537.0,437.0 Q 552.0,444.0 561.0,467.0 Q 570.0,490.0 571.5,504.0 Q 573.0,518.0 573.0,525.0 M 303.0,502.0 Q 303.0,513.0 309.5,527.5 Q 316.0,542.0 316.0,545.0 Q 316.0,550.0 323.0,558.5 Q 330.0,567.0 330.0,573.0 Q 330.0,590.0 362.5,613.0 Q 395.0,636.0 417.0,636.0 Q 423.0,636.0 427.5,629.5 Q 432.0,623.0 439.0,621.0 Q 461.0,614.0 482.0,578.0 Q 503.0,542.0 503.0,521.0 Q 503.0,511.0 497.0,511.0 Q 489.0,511.0 489.0,505.0 Q 489.0,500.0 483.5,496.5 Q 478.0,493.0 471.0,493.0 Q 470.0,493.0 462.5,508.5 Q 455.0,524.0 440.0,539.5 Q 425.0,555.0 407.0,555.0 Q 394.0,555.0 385.5,546.0 Q 377.0,537.0 377.0,523.0 Q 377.0,509.0 364.5,500.0 Q 352.0,491.0 343.0,489.5 Q 334.0,488.0 330.0,488.0 Q 303.0,488.0 303.0,502.0 M 336.0,278.0 Q 315.0,278.0 315.0,298.0 Q 315.0,321.0 357.5,378.5 Q 400.0,436.0 409.0,436.0 Q 415.0,434.0 424.0,428.5 Q 433.0,423.0 433.0,421.0 Q 433.0,418.0 444.5,412.5 Q 456.0,407.0 456.0,402.0 Q 456.0,396.0 476.0,380.0 Q 491.0,368.0 506.5,339.5 Q 522.0,311.0 522.0,297.0 Q 522.0,291.0 517.0,291.0 Q 513.0,291.0 513.0,284.0 Q 513.0,267.0 471.0,267.0 Q 456.0,267.0 452.5,271.5 Q 449.0,276.0 448.0,294.0 Q 447.0,314.0 436.5,326.5 Q 426.0,339.0 411.0,339.0 Q 396.0,339.0 384.5,327.5 Q 373.0,316.0 370.0,304.0 Q 368.0,296.0 357.5,287.0 Q 347.0,278.0 336.0,278.0 M 99.0,694.0 Q 99.0,689.0 96.0,683.5 Q 93.0,678.0 93.0,672.0 Q 93.0,669.0 95.0,656.5 Q 97.0,644.0 97.0,631.0 Q 97.0,625.0 96.5,606.0 Q 96.0,587.0 96.0,574.0 L 96.0,550.0 Q 96.0,545.0 95.5,532.0 Q 95.0,519.0 94.5,505.0 Q 94.0,491.0 94.0,477.5 L 94.0,454.0 L 93.0,445.0 Q 93.0,417.0 106.5,357.5 Q 120.0,298.0 121.0,290.0 Q 121.0,288.0 128.5,267.0 Q 136.0,246.0 153.0,213.0 Q 170.0,180.0 189.0,160.0 Q 204.0,145.0 212.0,123.0 Q 216.0,110.0 227.5,98.0 Q 239.0,86.0 247.0,86.0 Q 252.0,86.0 290.0,67.0 Q 328.0,48.0 355.0,48.0 Q 372.0,48.0 388.0,42.5 Q 404.0,37.0 435.0,37.0 Q 476.0,37.0 510.0,51.0 Q 526.0,57.0 550.0,65.0 Q 571.0,72.0 603.0,95.0 Q 635.0,118.0 642.0,132.0 Q 644.0,136.0 652.5,143.0 Q 661.0,150.0 673.5,165.5 Q 686.0,181.0 698.0,208.0 Q 717.0,251.0 726.0,285.5 Q 735.0,320.0 737.5,337.5 Q 740.0,355.0 743.0,361.0 Q 745.0,364.0 746.0,378.5 Q 747.0,393.0 751.0,433.0 Q 755.0,473.0 763.0,522.0 Q 763.0,531.0 770.5,574.5 Q 778.0,618.0 786.0,658.0 L 793.0,697.0 Q 793.0,710.0 784.5,728.0 Q 776.0,746.0 760.0,746.0 Q 747.0,746.0 732.0,730.0 Q 724.0,721.0 717.5,641.0 Q 711.0,561.0 705.0,553.0 Q 702.0,549.0 700.0,527.0 Q 698.0,505.0 697.0,485.5 Q 696.0,466.0 694.0,466.0 Q 692.0,466.0 692.0,449.5 Q 692.0,433.0 690.0,403.5 Q 688.0,374.0 681.0,351.0 L 666.0,294.0 Q 665.0,292.0 658.5,270.0 Q 652.0,248.0 644.0,240.0 Q 638.0,234.0 628.5,216.0 Q 619.0,198.0 611.0,194.0 Q 602.0,190.0 602.0,183.0 Q 602.0,178.0 587.5,170.0 Q 573.0,162.0 555.0,153.0 Q 537.0,144.0 532.0,137.0 Q 527.0,128.0 517.0,128.0 Q 516.0,128.0 485.0,118.0 Q 454.0,108.0 427.0,108.0 Q 422.0,108.0 413.0,111.0 Q 404.0,114.0 385.0,114.0 Q 374.0,114.0 366.5,115.0 Q 359.0,116.0 356.5,118.0 Q 354.0,120.0 352.5,121.0 Q 351.0,122.0 349.0,122.0 Q 348.0,122.0 345.0,121.0 Q 342.0,120.0 341.0,120.0 Q 335.0,120.0 326.0,129.0 Q 317.0,138.0 312.0,138.0 Q 302.0,138.0 285.0,151.5 Q 268.0,165.0 262.0,177.0 Q 257.0,186.0 251.5,192.5 Q 246.0,199.0 243.5,202.5 Q 241.0,206.0 241.0,209.0 Q 241.0,213.0 236.0,217.0 Q 231.0,221.0 223.0,231.0 Q 215.0,241.0 210.0,259.0 Q 206.0,274.0 201.5,285.5 Q 197.0,297.0 195.5,301.5 Q 194.0,306.0 194.0,313.0 Q 194.0,322.0 189.5,327.0 Q 185.0,332.0 185.0,338.0 Q 185.0,340.0 179.5,351.0 Q 174.0,362.0 169.0,397.0 Q 164.0,432.0 164.0,491.0 Q 164.0,626.0 175.0,644.0 Q 179.0,651.0 179.5,671.0 Q 180.0,691.0 182.0,696.0 Q 184.0,701.0 179.5,707.5 Q 175.0,714.0 175.0,726.0 Q 175.0,739.0 170.5,742.0 Q 166.0,745.0 142.0,749.0 Q 138.0,750.0 132.0,750.0 Q 122.0,750.0 110.5,734.0 Q 99.0,718.0 99.0,704.0 L 99.0,694.0"/>
  </g>
</svg>