<svg xmlns="http://www.w3.org/2000/svg" xmlns:xlink="http://www.w3.org/1999/xlink" version="1.1" viewBox="64 67 872 865">
  <path fill="currentColor" d="M431 556q-11 -11 -19 -14t-25 -3q-26 0 -32 8q-7 8 -17 8q-9 0 -9 4.5t-12 6.5q-11 2 -14 17.5t7 23.5q8 6 8 16t5.5 10t5.5 10q0 9 7.5 16t7.5 15q0 9 13 18t13 19q0 9 13 21t13 19t36 43l36 36l37 -37q37 -38 37 -45t18.5 -25t18.5 -25q0 -6 13 -18t13 -22q0 -8 7 -15 q8 -6 8 -47v-41h-18q-18 0 -34 15.5t-16 22.5t-22.5 28.5t-29.5 21.5t-16.5 -9t-9.5 -16q0 -6 -13 -18.5t-13 -19.5t-17 -24zM331 492q3 -5 56 -5h54l33 33l33 34l25 -27l25 -28l41 1q30 0 38 2.5t20 14.5l16 17v67q0 67 -8 70q-7 3 -7 13t-13 22t-13 20q0 6 -19 25 q-18 17 -18 23.5t-56 62.5q-33 34 -47.5 45t-22.5 11q-9 0 -22 -10t-42 -39q-49 -49 -49 -56t-18.5 -25t-18.5 -24q0 -8 -13 -20t-13 -19.5t-8 -14.5t-8 -16q0 -10 -5 -10t-5 -10q0 -9 -8 -16t-8 -15.5t-7 -12.5q-8 -3 -8 -19t8 -19q7 -4 7 -11q0 -9 17 -26t25.5 -17 t12.5 -8q2 -8 13 -8q10 0 13 -5zM639 340q62 -61 71 -61q11 0 18 8.5t7 21.5q0 10 -9 22.5t-38 40.5q-48 47 -54 47q-7 0 -14 8t-13.5 8t-17 -10.5t-10.5 -16.5q0 -7 60 -68zM259 288q9 -9 17 -9q7 0 48.5 41t49.5 56q13 24 -2 36q-15 11 -34.5 5.5t-19.5 -20.5 q0 -7 -34 -40q-27 -27 -32 -41t7 -28zM470 249q11 -11 17 -11.5t17 10.5q8 7 10 15.5t2 31.5q0 36 5 36t5 18t-5 18t-5 9q0 7 -11 20t-17 13q-5 0 -17 -12q-9 -7 -10.5 -18t-1.5 -56q0 -42 1.5 -54t9.5 -20zM394 112q3 -5 166.5 -5t163.5 5t23 5q22 0 29 8t14.5 8t30.5 23 q23 22 23 38.5t5.5 16.5t5.5 49t7.5 55.5t7.5 67.5t5.5 64.5t5.5 178.5q0 112 1 143.5t6 33.5q8 3 8 24t-16 39q-15 15 -22.5 16t-18.5 -10q-8 -7 -9 -35.5t-1 -166.5q0 -193 -5.5 -196.5t-5.5 -69.5q0 -67 -8 -73.5t-8 -50t-5 -43.5t-5 -15q0 -12 -9.5 -24.5t-18.5 -12.5 q-7 0 -14 -8t-29 -8q-23 0 -23 -5t-138 -5t-138 5t-31 5q-32 0 -34 8q-4 8 -19 8q-24 0 -51 24q-15 12 -24 13q-10 2 -11.5 12.5t-12.5 21.5q-18 20 -28 43q0 2 -2 5.5t-3.5 6.5l-2.5 5q-5 10 -5 43t-8 36q-7 3 -7 52q0 50 -6 53q-5 3 -5 39q0 35 -7.5 41.5t-7.5 91.5t7 91 q8 7 8 29q0 23 5.5 23t5.5 18q0 19 7 22q17 6 4 24q-11 14 -29 14q-15 0 -24.5 -9t-9.5 -23q0 -15 -6 -17q-5 -3 -5 -25.5t-8 -29.5t-8 -120t8 -116t8 -39q0 -37 5 -40q6 -3 6 -51.5t7.5 -55t7.5 -34.5t5 -31q6 -3 6 -18q0 -14 13 -26t13 -18t37 -43.5t43 -37.5q7 0 19 -13 t26 -13t21 -8q6 -8 34 -8q27 0 31 -5z"/>
</svg>