<svg xmlns="http://www.w3.org/2000/svg" xmlns:xlink="http://www.w3.org/1999/xlink" version="1.1" viewBox="40 40 561 695">
  <path fill="currentColor" d="M164 166q0 -6 12 -15t12 -16q0 -9 6 -17q6 -7 23 -18t22 -11q7 0 21 -6t19 -7q16 -4 19 -3.5t11 7.5q8 6 54 19t52 16q16 8 24 8q4 0 20 13.5t33 30.5t18 17q17 15 34 44.5t17 41.5q0 14 4 22q11 20 11 85q0 21 -10 33q-14 21 -21 38q-6 15 -21.5 30t-27.5 17 q-5 2 -20 12.5t-21 12.5q-13 4 -40 18q-20 11 -24.5 15.5t-6.5 20.5q-2 17 -13.5 39t-23.5 33q-9 9 -9 14q0 6 -23 22t-31 16q-21 0 -22 1q-4 4 -31 4q-42 0 -59 -7q-23 -9 -57 -39q-9 -9 -12 -9q-5 0 -21 -16.5t-16 -21.5q0 -13 14 -28t28 -15q20 0 29 21q7 16 43 34 q33 17 48 17q28 0 39 -4.5t29 -22.5q24 -24 24 -43q0 -23 -9.5 -32t-34.5 -12q-12 -1 -22 -5t-20.5 -10t-16.5 -9q-7 -3 -30 -25t-37 -38q-6 -8 -18.5 -36.5t-14.5 -32.5q-6 -11 -6 -20q0 -7 4.5 -34t4.5 -36q0 -4 -0.5 -9.5t-0.5 -8t1 -6t4 -6.5q5 -5 8 -19t7 -20 q6 -8 6 -16q0 -5 9.5 -13.5t9.5 -14.5zM369 348q0 10 4 45t4 46q0 3 -0.5 7.5t-0.5 6.5t0.5 4.5t2.5 4.5t6 4q13 6 25 5q16 -1 49 -17.5t33 -22.5q0 -7 8 -11q5 -3 7 -18.5t5 -18.5q2 -2 2 -19q0 -23 -4 -49.5t-9 -29.5q-4 -2 -4 -13q0 -8 -10 -20.5t-11 -16.5 q-2 -8 -13.5 -20t-16.5 -12t-7 -7q-2 -5 -25 -17t-31 -12q-9 0 -14 -5q-6 -5 -18.5 -7.5t-30.5 -3t-24 -1.5q-19 -3 -22 4q-2 7 -16 7q-28 0 -28 14q0 5 -7 10t-7 11q0 4 -16.5 35t-16.5 35q0 7 -7 23q-7 19 -7 36q0 13 5 16q3 2 2 8t1 10q5 7 10 23q6 18 34.5 46t41.5 28 q4 0 20 6.5t24 6.5q18 0 14 -16q-2 -6 -5 -47t-6 -48q-4 -8 -4 -15q0 -16 9 -26.5t24 -10.5h2q7 0 17.5 13.5t10.5 21.5v7z"/>
</svg>