<svg xmlns="http://www.w3.org/2000/svg" xmlns:xlink="http://www.w3.org/1999/xlink" version="1.1" viewBox="73 -47 854 1083">
  <path fill="currentColor" d="M694 325q-21 0 -30 -8q-6 -5 -8.5 -5t-7.5 5q-6 8 -21 8t-18 5t-13 5q-8 0 -12 8q-3 8 -13.5 8t-10.5 9t-13 22q-13 12 -13 19q0 6 -8 12.5t-8 26.5t-12.5 43.5t-24.5 23.5t-26.5 -22t-14.5 -40q0 -14 -8 -18q-8 -3 -8 -12q0 -10 -13 -22t-13 -19.5t-7.5 -15t-14.5 -7.5 t-14 -8t-27.5 -7.5t-29.5 10.5q-11 10 -11 18t-5 10q-5 4 -5 30q0 25 5 25t5 10q0 9 8 16t8 21.5t5 17.5t5 17.5t8 21.5t8 16q0 10 5 10t5 10t8 16q8 7 8 16q0 7 11 23q10 17 13 24q17 40 23 44q5 3 5 13q0 9 16 24q11 11 14.5 11.5t11.5 -6.5q10 -10 10 -16q0 -7 39 -46 q39 -40 39 -46q0 -8 34 -41t34 -42q0 -10 5 -10t5 -9q0 -10 13 -22t13 -22q0 -9 8 -12q8 -4 8 -13q0 -10 5 -13q5 -2 5 -13q0 -10 8 -13q8 -4 8 -13q0 -10 5 -13q6 -3 6 -18q0 -14 7.5 -21t7.5 -16q0 -6 -4 -8t-18 -2zM622 265q7 -8 34.5 -8t33.5 8t27 8t36 14q11 9 13 16.5 t2 32.5q0 36 -5 38q-5 4 -5 14t-8 13q-8 4 -8 21q0 18 -4 18t-14 21q-15 36 -20.5 47t-15.5 20q-14 13 -14 19q0 8 -13 22t-13 19t-31 36.5t-31 38.5q0 8 -35 43l-35 36h50q50 0 56.5 7.5t92.5 7.5h87l17 17q17 17 17 26t5 9t5 57t-5 61q-5 3 -5 24q0 25 -15 36.5t-30 -3.5 q-6 -6 -7 -43t5 -40q5 -4 5 -29.5t-4 -35.5q-6 -9 -8 -18q-2 -6 -16.5 -7.5t-70.5 -1.5q-83 0 -83 -5t-148 -5q-95 0 -122.5 -1.5t-31.5 -6.5t-17.5 -6t-52.5 -1l-63 2l-1 75q-2 76 -10 85q-17 18 -34 -3q-6 -7 -7.5 -20t-2.5 -53q0 -61 -5 -61t-5 -36.5t9 -46.5 q8 -9 23 -10t18 7q2 5 18.5 6.5t66.5 1.5q83 0 86 5q3 6 16 6t13 -10.5t-8 -13.5q-8 -4 -8 -13q0 -10 -5 -13t-5 -13t-8 -13q-8 -4 -8 -13q0 -10 -5 -13t-5 -13q0 -11 -8 -13q-8 -4 -8 -13q0 -10 -5 -13t-5 -17.5t-8 -21.5t-8 -24q0 -18 -5 -18t-5 -10q0 -9 -8 -16t-8 -15.5 t-8 -12.5q-7 -2 -7 -49t7 -53q8 -7 8 -14q0 -6 22 -30l22 -24h48q48 0 54 8q7 8 14 8t28 21t21 27.5t12 19.5q11 9 20 8t9 -11q0 -8 36.5 -44.5t44 -36.5t10.5 -5t18 -5t21 -8zM225 84q8 -9 17 -9q7 0 29.5 22t22.5 29t21 27t21 31q0 12 -8.5 22t-18.5 10q-8 0 -37.5 -28 t-29.5 -36t-7.5 -14.5t-7.5 -16.5t-6 -10q-4 0 -5 -4.5t1.5 -11t7.5 -11.5zM481 64q23 -23 42 -6q10 8 11 23t-8 18q-8 3 -8 21q0 17 -5 17t-5 30q0 33 -14 44.5t-33 -4.5q-7 -6 -8.5 -15t-1.5 -35q0 -41 7 -43q8 -4 8 -20q0 -17 15 -30zM849 12q6 -9 22.5 -1t16.5 21 q0 7 -75.5 82.5t-82.5 75.5t-14 7.5t-12 7.5t-17.5 -11t-12.5 -16q0 -6 79 -83t86 -77t10 -6z"/>
</svg>