<svg xmlns="http://www.w3.org/2000/svg" xmlns:xlink="http://www.w3.org/1999/xlink" version="1.1" viewBox="50 155 915 445">
  <path fill="currentColor" d="M569 442q0 -13 12.5 -32t27.5 -19q13 0 23 13.5t10 27.5q0 15 -9.5 25.5t-24.5 10.5q-12 0 -25.5 -8.5t-13.5 -17.5zM703 391q0 -11 19 5q13 13 17 13t7.5 11t3.5 22q0 17 -8 22.5t-31 7.5q-12 1 -16.5 -1.5t-12.5 -13.5q-11 -16 -11 -33q0 -10 3 -14t13 -8q16 -7 16 -11 zM558 263q20 0 46 6t27 6q8 0 9.5 -6.5t1.5 -26.5q0 -28 15.5 -41.5t57.5 -22.5q12 -2 16.5 -0.5t15.5 12.5q9 9 17.5 13t13 4.5t9.5 6t10 19.5q7 17 18.5 29t14.5 25q5 17 19 30.5t26.5 22t13.5 12.5q2 3 18 26.5t16 38.5q0 23 -17 50.5t-41 41.5q-7 4 -11.5 8.5t-6.5 7.5 t-4 4.5t-5 1.5l-8.5 3.5t-23 9t-32.5 11.5t-42 10t-47 5q-13 0 -22 3t-10 3.5t-7 -1.5q-6 -5 -18.5 -5t-15.5 4q-1 3 -5.5 2.5t-10.5 -1t-16 2.5q-6 2 -13 2q-20 0 -39.5 -9t-32 -17.5t-16.5 -8.5q-6 0 -19.5 -9t-17.5 -9q-3 0 -12 -13.5t-20.5 -30t-18.5 -21.5 q-11 -9 -11 -17q0 -11 -7 -28t-22.5 -37.5t-46 -34.5t-70.5 -14q-23 0 -41.5 4t-18.5 9q0 3 -18.5 21t-18.5 30q0 3 4.5 15t17 31.5t29.5 30.5q17 10 17 42q0 10 -4.5 13.5t-15.5 3.5q-10 0 -20 -6.5t-33 -30.5l-36 -37l-1 -29q0 -19 -3 -33.5t0 -21.5q3 -18 26 -44t23 -28 t9.5 -5.5t21 -7.5t13.5 -6q11 -7 59 -7q32 0 65 13t48 23t18 14l18 16l34 -29q46 -39 81 -39q9 0 22.5 -5t27.5 -5zM806 475q11 0 24 -11.5t16 -11.5q8 0 13.5 -8.5t5.5 -17.5q0 -12 -17.5 -31t-24.5 -19q-5 0 -24 -20t-19 -25l0.5 -1.5t0.5 -3.5q0 -6 -2 -17.5t-5 -21 t-5 -9.5q-3 0 -4.5 -6t-7 -14t-19.5 -12q-16 -5 -21 -5q-6 0 -10.5 8t-5.5 16l-1 8q0 8 10.5 23.5t10.5 21.5q0 5 -6 15.5t-12 18.5l-6 8q-7 10 -10.5 10.5t-9.5 -4.5q-6 -6 -20 -11t-19 -8q-16 -12 -34 -17.5t-53 -5.5q-26 0 -35 6q-6 4 -18.5 9t-20.5 8.5t-8 6.5 q0 2 -20 25q-7 7 -4 7q4 0 2 7q-1 1 -1 5q0 19 26 53q28 37 62 47.5t117 10.5q65 0 94 -5.5t41 -19.5q8 -9 20 -9z"/>
</svg>