<svg xmlns="http://www.w3.org/2000/svg" xmlns:xlink="http://www.w3.org/1999/xlink" version="1.1" viewBox="35 78 865 577">
   <path fill="currentColor" d="M616 448q0 -21 12.5 -30.5t24.5 -9.5q15 0 24 14t8.5 28t-5.5 22q-7 8 -9 12q0 3 -7.5 5.5t-13.5 2.5q-15 0 -24.5 -13.5t-9.5 -30.5zM537 410q17 -10 18 -9q1 0 3.5 1.5t7.5 3t8 3.5q20 7 20 25q0 15 -12 31t-23 16h-3q-20 -8 -25 -14.5t-8 -29.5q-1 -12 1 -16t13 -11z M508 130q0 -8 24 -16.5t42 -8.5q21 0 50 12.5t29 20.5q0 2 6 5t22 15t34 32q40 45 41 46q38 41 38 68q0 12 5 20.5t21 26.5q25 27 25 36q0 8 4 8q12 8 12 36q0 41 -15 59q-24 31 -51 48t-45.5 24t-23.5 13q-3 3 -17 10.5t-49 18.5t-74 12q-22 1 -60 1q-71 0 -86 -6 q-13 -5 -17 -5q-2 0 -8.5 -7t-16 -16.5t-17.5 -12.5q-14 -5 -14 -10t-7 -5q-5 0 -12 -12.5t-13 -16.5q-6 -5 -13 -20t-13 -24q-8 -11 -8 -27q0 -15 -11 -27t-23.5 -19t-14.5 -11q-2 -7 -11 -7q-5 0 -14.5 -6t-20.5 -6q-19 0 -34 9q-11 6 -22 31.5t-11 46.5q0 42 32 71.5 t55 29.5q8 0 15.5 -8.5t18.5 -8.5q21 0 21 23t-15.5 39.5t-39.5 16.5q-6 0 -10 -1.5t-15.5 -5.5t-29.5 -8q-53 -12 -66 -54q-3 -10 -11 -22t-14 -19t-5 -8t2.5 -20.5t4.5 -42.5t7 -31q3 -6 7 -19t14 -26q13 -15 13 -22q0 -3 1.5 -3.5t3 0t5.5 -1t7 -5.5q20 -23 60 -23 q24 0 43.5 9.5t33 19.5t21.5 10q6 0 11 -13q3 -9 26 -32t35 -29q19 -9 56 -12t64 -2.5t27 -1t-6.5 -16t-13.5 -36t-7 -39.5q0 -15 3.5 -26t7.5 -11q7 0 7 -8zM667 220q0 -10 -35 -32t-50 -22q-6 0 -13.5 7t-7.5 21q0 16 11 37.5t12 28.5q8 32 42 42q20 5 44.5 29.5 t24.5 39.5q0 7 -3 11.5t-7 6.5t-8 2.5t-7 0l-3 -0.5q0 -4 -21 -14.5t-30 -11.5q-2 0 -36.5 -13t-49.5 -13q-10 0 -24 -4t-46 -4q-34 0 -44 2.5t-26 16.5q-24 21 -24 30q0 13 7 27.5t3 21.5q-2 6 -2 10q0 29 43 70q22 22 33.5 28t38.5 11t35 5q9 -3 45 -5q82 -6 100 -14 q12 -6 32 -14q18 -7 18 -11q0 -5 20 -11.5t40 -19t20 -29.5q0 -19 -9.5 -36t-22 -31t-15.5 -22q-3 -11 -10.5 -17t-6.5 -20q1 -10 0 -14t-4 -9.5t-5 -15.5q-2 -14 -12 -25t-20 -16.5t-18.5 -11.5t-8.5 -11z"/>
</svg>