<svg xmlns="http://www.w3.org/2000/svg" xmlns:xlink="http://www.w3.org/1999/xlink" version="1.1" viewBox="43 300 789 239">
   <path fill="currentColor" d="M206 350q0 -30 21 -30q10 0 24.5 14t14.5 24t-10 16.5t-22 6.5q-28 0 -28 -31zM540 385q-8 0 -25.5 1.5t-29.5 1.5h-20l-38 -3l-15 17q-10 11 -17.5 29t-17.5 29q-4 5 -10.5 14t-11 12t-15.5 6q-17 4 -27 11q-23 15 -77 22q-23 3 -27 -5t-15 -8q-8 0 -13 -2t-11 -5.5 t-14 -5.5t-15.5 -8.5t-11 -10.5t-10.5 -15t-8 -13q-19 -28 -25.5 -48.5t-6.5 -55.5q0 -37 22 -37q15 0 20.5 10t9.5 37q6 37 12 51t16 26t16 12q4 0 24 9q18 9 44 9q42 0 64 -20q9 -7 14 -7q9 0 22 -18t17 -35q10 -47 15 -54q5 -6 203 -6q199 0 203 6q1 1 10 22q5 11 4 15.5 t-10 11.5q-13 10 -36 10q-24 0 -46 -4.5t-45 -4.5q-37 0 -58 4q-16 3 -26 3q-7 0 -17.5 -1.5t-16.5 -1.5z"/>
</svg>