<svg xmlns="http://www.w3.org/2000/svg" xmlns:xlink="http://www.w3.org/1999/xlink" version="1.1" viewBox="82 51 834 894">
  <path fill="currentColor" d="M361 112q0 -19 4 -19t20 17.5t20 25.5q3 8 9 16q7 9 1 18q-5 9 -4 35q6 95 -2 125q-4 14 -1 32q3 17 4 60q3 112 12 123q6 7 -1 20q-7 14 -1 23q7 10 7 20.5t5 13.5t5 14q0 10 10 29q11 20 11 28t8 15t15 3.5t4 -13.5q-2 -10 11.5 -23.5t15 -30.5t4.5 -25 q14 -40 8.5 -45.5t9.5 -12.5q15 -6 17 -22q1 -15 6 -21q5 -5 5 -14.5t5 -9.5t5 -10t10.5 -10t10.5 -13q0 -29 30 -62q6 -7 0.5 -13t5.5 -11q11 -6 11 -14q0 -10 19 -31q18 -23 15 -28q-3 -4 8 -14q11 -9 8 -15q-2 -7 8 -23q10 -17 10 -24q0 -8 15 -27q16 -16 16 -27 t12.5 -11t15.5 -14q2 -13 21 -35l19 -20l19 18q24 21 33.5 55t9.5 101q0 71 -5 75q-6 4 1 11q6 7 0 13q-10 13 -14 210q-4 162 -0.5 225t15.5 72q10 8 8.5 16t-14.5 8q-8 -1 -14 -6t-16 -19q-16 -25 -19.5 -41t-4.5 -59q0 -104 11 -118q6 -7 0.5 -10.5t-5 -13t6.5 -11.5 t-4 -13q-6 -8 -7 -16t1 -30q4 -39 7 -48q3 -11 -6 -11q-8 0 -8.5 -8t5.5 -19t0 -14q-6 -5 -0.5 -43t8.5 -48q2 -8 -3 -12q-6 -2 -3 -7q3 -7 5 -76q2 -45 1 -60t-7 -20q-5 -5 -10.5 -2t-22.5 22q-26 27 -26 31t-13 22.5t-13 29t-9 12.5q-10 3 -7 19q2 16 -6 16t-13.5 10.5 t-5.5 23.5t-8 16q-8 4 -8 10q0 8 -9 24.5t-15 18.5q-7 3 -7 10t-10 21q-11 13 -8 20q3 6 -6 10q-8 3 -5 8q2 4 -5 11q-8 7 -8 13q0 8 -4 8t-11 26t-11.5 26t-4.5 11t-10 24q-10 15 -12 39q-4 25 -12 33q-8 9 -8 13q0 6 -10 27q-11 21 -11 33t-7 12q-8 0 -20 16 q-11 16 -17 16q-5 0 -9.5 -12t-5.5 -25q-1 -8 -7 -22q-6 -15 -6 -27t-8 -18.5t-8 -18.5q0 -13 -6 -15q-5 -4 -3 -10q2 -7 -3 -19q-9 -27 -11 -109q0 -28 -4 -32q-4 -3 -5.5 -27t1.5 -33q2 -7 -2 -20t-9 -13q-2 0 -2.5 -37.5t1 -76t3.5 -42.5q3 -4 1 -5t-8 0q-7 1 -9.5 3.5 t-1.5 7.5q1 9 -5 9q-5 0 -5 13t-7 16t-10 28q-3 24 -8 28q-3 4 -3 8q-1 3 -10 20q-9 18 -9 27q0 7 -10 32t-20 41q-8 14 -13.5 36.5t-1.5 24.5q5 4 -2 9q-12 10 -11 37q1 15 -9 17t-7 10q4 9 -6 15q-9 8 -6 8q5 0 -1 6q-4 6 -15.5 46.5t-13.5 58.5q-2 14 2 17q4 1 2 19 q-1 17 -4 58q-3 37 -9.5 46t-25.5 2q-6 -2 -9.5 -4.5t-2.5 -4.5q2 -4 -6 -7q-9 -3 -4 -10q5 -6 9 -24.5t7 -23.5q7 -11 11 -74q4 -53 10 -59.5t6 -23.5q0 -18 8 -20q8 -4 5 -7q-3 -6 3 -8q5 -4 2 -14t4 -12q6 -3 7 -18q1 -14 11 -37t14 -43q5 -21 11 -34q8 -14 8 -25t13 -22 q13 -12 10 -18q-3 -7 5 -14q8 -6 2 -16q-4 -7 -3.5 -10t6.5 -6q9 -5 9 -20q0 -14 8 -23q7 -8 7 -15t9 -20q10 -14 22 -49t17 -63q4 -30 10 -40q5 -8 5 -27z"/>
</svg>