<svg xmlns="http://www.w3.org/2000/svg" xmlns:xlink="http://www.w3.org/1999/xlink" version="1.1" viewBox="36 50 709 698">
  <path fill="currentColor" d="M385 298q0 -19 -4.5 -97.5t-4.5 -86.5q0 -15 2 -19.5t8 -7.5q10 -5 20 -5t14 4q3 5 42 5q19 0 53 2.5t54 2.5q12 0 42.5 -1.5t41.5 -1.5q27 0 27 18q0 7 -12 21q-13 14 -48 19q-58 8 -77 8q-11 0 -27 -3.5t-25 -3.5q-6 0 -22 2l-25 5v138q0 61 -0.5 139.5t-0.5 111.5 q0 48 1.5 61.5t8.5 18.5q8 7 21 5q24 -4 53 -4q34 0 65.5 3.5t34.5 7.5q2 4 34 4q31 0 43 9q8 6 9 10.5t-2 20.5q-4 18 -13 25t-29 7q-18 0 -44 -13q-10 -5 -84 -5q-87 0 -114 6q-15 4 -21 4q-5 0 -6.5 -1.5t-4 -6.5t-5.5 -9q-12 -14 -12 -47q0 -13 3 -25q4 -17 4 -112 q0 -60 -3 -87q-2 -18 -5 -23.5t-17 -13.5q-24 -14 -44 -14q-32 0 -58 45q-15 26 -29 40q-13 13 -33.5 26.5t-27 13.5t-35 -21.5t-35.5 -31.5q-17 -24 -26 -70q-3 -11 -2 -15.5t8 -10.5q13 -12 23 -12q19 0 30 37q4 16 21 36.5t27 20.5q4 0 12.5 -9.5t17 -21t10.5 -12.5 q5 -5 12 -19q6 -12 32 -38q17 -17 24.5 -21t22.5 -4q13 0 19.5 1.5t13.5 5t18 5.5q12 3 15.5 3t5.5 -2t2.5 -5.5t0.5 -11.5z"/>
</svg>