<svg xmlns="http://www.w3.org/2000/svg" xmlns:xlink="http://www.w3.org/1999/xlink" version="1.1" viewBox="-58 28 1152 944">
  <path fill="currentColor" d="M355 610q-21 -19 -25.5 -19t-15.5 14t-14 25q-4 12 -14 21t-10 17q0 6 -12.5 26.5t-22.5 30.5q-7 7 -7 16q0 7 -11 20q-8 8 -8 10.5t6 4.5q9 4 13.5 -4t19.5 -12q14 -3 26 -14q14 -9 22 -9q9 0 13 -5q3 -6 27 -21.5t29 -15.5t20 -14.5t15 -18.5t-16 -18q-25 -24 -35 -34z M708 593q-10 -25 -40 -1q-17 14 -38 27q-23 16 -26 19t-15 9q-29 16 24 51q32 22 40.5 30.5t14.5 8.5t37 20q29 21 33 21q2 0 26 11q29 14 29 2q0 -13 -31 -67q-7 -11 -7 -23q0 -15 -27 -63q-7 -14 -20 -45zM820 365q-10 -3 -55 -3q-37 0 -48 5.5t-6 21.5q4 12 17 28.5 t19 16.5q7 0 32 -20q24 -19 38 -26q10 -5 11 -12.5t-8 -10.5zM539 361q-57 -4 -68 -7q-10 -3 -24 9q-11 10 -26 34.5t-15 34.5q0 8 -10.5 21.5t-10.5 22.5t-7.5 16t-7.5 12q0 7 26 33t62 55q13 11 31.5 14t23.5 -5q2 -4 33 -24q32 -22 35 -25q7 -7 34 -26q28 -19 35 -31 t1 -32.5t-16 -32.5t-10 -24q0 -10 -14 -26q-10 -11 -20 -14t-52 -5zM176 312q-13 -7 -16.5 -7.5t-6.5 5.5t51 58q55 53 71.5 65t25.5 7t26.5 -38.5t15.5 -43.5q-3 -15 -119 -33q-34 -6 -48 -13zM539 222q-4 -17 -11 -16t-19 21q-20 29 -12.5 41t42.5 9q13 -1 16.5 -3t2.5 -9 q-2 -10 -9 -18q-6 -8 -10 -25zM492 79q15 -8 22 -8t24 7q16 6 30.5 22.5t14.5 26.5t5 13q6 4 25 43q19 41 24 48q7 9 11 26l6 19l164 3q164 3 165 3q59 53 -40 119q-15 9 -32 21q-38 33 -45 33q-5 0 -14.5 10.5t-16.5 10.5t-12.5 10.5t-12.5 10.5q-8 0 -21 12t-13 20 q0 9 15 42.5t21 36.5q4 4 8 25t14 38t10 23q0 7 10 20t10 25q0 10 11 30q10 19 10 26t11 26q8 15 9.5 31t-3.5 24q-7 8 -22 19q-16 12 -36 13t-38 -10q-17 -10 -27 -10t-27 -11q-15 -10 -23 -10q-10 0 -15 -8q-7 -8 -22 -10q-15 -4 -22 -14t-21 -13q-13 -3 -19 -10 q-6 -8 -13 -8t-14 -10.5t-11 -10.5q-6 0 -27.5 -15t-27.5 -23q-7 -8 -15 -8q-10 0 -22 -9q-8 -6 -13 -5.5t-20 8.5q-24 14 -43 29q-20 17 -35 21q-14 4 -20 11q-8 9 -18 13q-12 6 -18 10q-11 7 -21 10q-11 5 -36 21t-57 31q-34 16 -42 21q-21 13 -44 22t-34 9q-21 0 -29 -11 t-8 -41q0 -25 3 -34t18 -28q21 -26 21 -28q0 -3 13 -23t19 -27q8 -8 27.5 -40t26.5 -48q11 -22 27 -46q16 -27 20 -40q3 -13 11 -16q7 -3 7 -9t-6.5 -14.5t-18.5 -17.5q-29 -22 -48 -44q-24 -27 -68 -61q-45 -38 -66 -59q-22 -22 -26 -22q-5 0 -16 -18.5t-11 -26.5 q0 -11 15 -35l16 -24h62q64 0 83 8q18 8 54 13q35 4 51 13q16 8 71 6l56 -1l5 -18q5 -19 12 -27q7 -7 7 -13q0 -4 13 -33q7 -13 25 -54q11 -24 27 -31z"/>
</svg>