<svg xmlns="http://www.w3.org/2000/svg" xmlns:xlink="http://www.w3.org/1999/xlink" version="1.1" viewBox="38 99 598 633">
   <path fill="currentColor" d="M467 450q0 -20 -6.5 -57.5t-6.5 -56.5q0 -2 -6 -2q-7 0 -12 -8q-6 -10 -26 -18q-14 -6 -18.5 -11t-7.5 -17q-5 -20 -5 -34q0 -23 12 -47q8 -16 14.5 -22t24.5 -14q1 0 50 -23q28 -12 35 -12q8 0 17.5 4t16 8.5t16.5 12.5t13 10q31 23 31 72q0 17 -3.5 32.5t-7.5 15.5 t-4 7q0 14 -45 40q-16 9 -20.5 16.5t-4.5 26.5q0 14 3.5 32.5t3.5 34.5q0 53 -8 72q-4 12 -4 30q0 16 -21 56t-33 47q-11 7 -18 15q-8 9 -59 26t-71 17q-27 0 -55.5 -19t-42.5 -40q-3 -4 -11.5 -15t-15 -21t-8.5 -18q-4 -15 -12 -28q-19 -32 -19 -66q0 -17 -7 -32 q-4 -9 -4 -19q0 -6 3 -21t3 -25q0 -45 -19 -61q-8 -7 -17 -12t-15 -11t-15 -20q-16 -27 -16 -63q0 -9 10 -26t16 -17q5 0 12 -14q7 -13 21.5 -26t25.5 -17q11 -3 27 -3q55 0 86 27t31 81q0 64 -63 91q-11 5 -12.5 13.5t-1.5 62.5v19q0 52 5 77t22 62q12 26 24.5 40t37.5 30 l20 13l28 -8q30 -8 39 -14q10 -7 18 -7t26 -25q14 -19 18.5 -37t9.5 -78q1 -9 1 -26zM237 224q0 -4 -11 -18t-11 -17q0 -5 -2 -5q-6 -2 -21 -2q-28 0 -46.5 16t-18.5 39q0 19 15 30t34 11q41 0 56 -36q5 -11 5 -18zM529 197q-9 -5 -19 -5.5t-12 3.5q-2 5 -18 7 q-14 1 -27.5 16t-13.5 29q0 19 26 36l20 14l28 -13q39 -18 39 -42q0 -5 -9.5 -24t-13.5 -21z"/>
</svg>