<svg xmlns="http://www.w3.org/2000/svg" xmlns:xlink="http://www.w3.org/1999/xlink" version="1.1" viewBox="34 10 868 830">
  <path fill="currentColor" d="M126 780q-11 0 -21.5 -11t-10.5 -24q0 -7 3 -23q10 -56 10 -125q0 -16 11 -33q1 -1 13.5 -22t22 -31.5t19.5 -14.5q21 -7 54 -7q51 0 70 32q4 7 13.5 16t14.5 21q4 9 19 29t18 30q2 8 6 11t8.5 0t7.5 -10q5 -12 21 -12q30 0 30 27q0 19 -19 40q-9 11 -9 18q0 6 -7 15.5 t-7 16.5q0 8 -7.5 14t-9.5 10q-2 7 -11 13.5t-17 6.5q-9 0 -24 -9.5t-15 -20.5q0 -5 4 -29t4 -30q0 -12 -6 -33.5t-7 -26.5q-3 -16 -7 -24t-18 -26q-23 -29 -51 -29q-7 0 -25 3t-19 4q-2 3 -6.5 14.5t-9.5 24.5t-6 15q-5 12 -5 31q0 27 8 38q5 8 5 19q0 36 -10.5 64 t-33.5 28zM636 747q0 12 -17.5 27t-29.5 15q-13 0 -22.5 -12.5t-18.5 -34.5t-13 -29q-11 -18 -11 -21q0 -4 -13 -17q-14 -14 -12 -31q3 -32 32 -32q5 0 11 1t7 1q7 0 13 -18q4 -12 18 -39t17 -37q4 -12 35 -29q25 -14 40 -14q39 0 75 31q4 4 13 4q8 0 10 9q5 12 16 23 q32 33 49 140q1 11 10.5 31.5t14.5 24.5q3 3 3 9q0 23 -17 43q-7 9 -11.5 10t-16.5 -3q-14 -5 -20.5 -13.5t-16.5 -33.5q-6 -15 -6 -25q0 -5 2.5 -18t2.5 -18q0 -11 -9 -29q-10 -21 -10 -37q0 -4 0.5 -14.5t0.5 -13.5q0 -13 -10.5 -28t-12.5 -19q-5 -14 -11 -14t-8 -5 q-2 -7 -39 -7q-24 0 -36 13t-25 50q-5 12 -5 47q0 61 12 88q9 22 9 25zM701 103q-2 0 -10 -2t-12 -2q-23 0 -41.5 54t-18.5 86q0 18 -6 31q-9 20 -9 34q0 16 -7.5 36t-15.5 25q-10 5 -21 5q-25 0 -25 -17q0 -1 0.5 -3t0.5 -4q0 -5 -9 -18t-19.5 -26t-11.5 -15q-5 -9 -12 -9 q-4 0 -5 -3t-1.5 -10t-1.5 -12q-2 -6 -2 -18q0 -18 8 -18q2 0 11 -6.5t14 -3.5q8 5 26.5 28t18.5 28q0 9 7 3q4 -3 5 -10q0 -9 7 -18q5 -6 8 -30t7 -30q10 -14 18 -48q7 -25 12 -34.5t19 -21.5q21 -18 46 -21q5 -1 11.5 -2t11 -2t8.5 -1q8 0 14 6t24 14q14 7 28 25.5 t16 33.5q4 24 5 32q10 61 10 191q0 60 -4 71q-5 12 -21 12t-30 -18q-15 -19 -15 -28q0 -7 -4.5 -13.5t-4.5 -15.5q0 -20 8 -30q12 -14 12 -96q0 -62 -18 -80q-6 -6 -2 -17q5 -10 -8 -23q-9 -9 -17 -9h-4zM185 56q6 0 6 -2q0 -5 21 -5q15 0 34.5 6.5t19.5 11.5t11 7 q9 2 19 19q9 16 13 16q6 0 16.5 21.5t12.5 34.5q4 39 18 54q6 7 8.5 7t11.5 -6q6 -4 10 -10t9 -9t17 -3q25 0 25 26q0 14 -20 37q-22 25 -41 63q-16 36 -40 36q-8 0 -19 -6q-11 -7 -13.5 -11.5t-1.5 -16.5q2 -30 2 -52q0 -62 -5 -69q-6 -9 -8 -28q-4 -37 -42 -58 q-19 -11 -35 -8q-25 5 -51 19.5t-26 24.5q0 11 -2 13q-4 6 -4 24q0 25 6 47t6 48q0 33 -4 36q-4 4 -4 11q0 9 -7.5 15t-18.5 6q-8 0 -17 -5t-11 -10q-4 -8 -4 -35q0 -22 3 -22q2 0 2 -12q0 -33 -6 -81l-2 -33l21 -31q21 -30 21 -35q0 -6 29 -20.5t40 -14.5z"/>
</svg>