<svg xmlns="http://www.w3.org/2000/svg" xmlns:xlink="http://www.w3.org/1999/xlink" version="1.1" viewBox="75 85 429 732">
   <path fill="currentColor" d="M144 470q9 0 12.5 0.5t6 3t2.5 8.5q0 14 4 23l5 13l20 -16q15 -11 22 -18q8 -8 43 -18t56 -10q14 0 14 -4q0 -5 12 -5q38 0 76 37q33 33 42 45.5t12 29.5q4 22 6 25q1 1 4.5 74.5t3.5 77.5t-2 13.5t-13 22t-29 12.5q-8 0 -14 -4.5t-9 -10t-4.5 -12t-2 -10t-0.5 -4.5l2 -6 q2 -6 4 -24t2 -48q0 -27 -10 -82q-2 -14 -7.5 -21.5t-24.5 -23.5q-27 -23 -40 -23q-26 0 -68 13q-22 7 -30.5 12t-15.5 16q-9 14 -22 21.5t-13 14.5q0 10 -4 10q-9 0 -13 34t-5.5 71t-5.5 42q-7 7 -30 7q-9 0 -15 -1.5t-13 -14.5t-7 -37q0 -17 6 -36t6 -71v-57q0 -58 4 -62 q6 -7 33 -7zM327 350q-9 0 -21 -8.5t-12 -21.5q0 -9 4.5 -20.5t7.5 -11.5t27 -39.5t24 -44.5q0 -6 4 -6q1 0 6 -13.5t15 -32t21 -27.5q8 -6 25 -6q15 0 23 10.5t9 17t1 11.5q-1 7 -34.5 60t-42.5 62q-8 8 -8 15t-5 7q-2 0 -15.5 24t-28.5 24z"/>
</svg>