<svg xmlns="http://www.w3.org/2000/svg" xmlns:xlink="http://www.w3.org/1999/xlink" version="1.1" viewBox="35 316 860 179">
  <path fill="currentColor" d="M457 392q-6 0 -16 4t-14 4q-7 0 -32 20q-25 21 -33 42q-9 25 -15 25t-21 -9q-14 -8 -25.5 -25t-11.5 -30q0 -7 -13 -22q-19 -21 -51 -21q-17 0 -28 5q-14 5 -36 22.5t-22 22.5q0 3 -3 7.5t-7.5 9t-5.5 6.5q-2 4 -3 4.5t-2.5 2t-3 0.5t-4 -2t-6.5 -4q-29 -18 -29 -32 q0 -15 19.5 -35.5t34.5 -25.5q10 -3 10 -8q0 -3 33 -14q30 -9 59 -9q49 0 68 21q9 11 15 11t13 11q6 7 9 7.5t14 -3.5q14 -5 14 -10q0 -4 16 -12t76 -8q5 0 12.5 -0.5t10.5 -0.5q27 0 35.5 2t19.5 11q16 12 23 12q4 0 22 -13q44 -33 68 -33q9 0 20.5 3.5t19.5 7t21 12.5 t17.5 12t18.5 14l14 11q18 13 68 27q17 5 23.5 10.5t6.5 15.5q0 16 -7 28q-5 9 -8.5 10.5t-15.5 0.5q-15 -1 -28 -8q-53 -27 -79 -55q-31 -31 -55 -31q-30 0 -49 25q-4 5 -13.5 15.5t-16 19.5t-9.5 17q-3 10 -8 10q-4 0 -17.5 -11t-20.5 -19q-11 -13 -20 -24 q-21 -24 -52 -24z"/>
</svg>