<svg xmlns="http://www.w3.org/2000/svg" xmlns:xlink="http://www.w3.org/1999/xlink" version="1.1" viewBox="33 70 667 648">
   <path fill="currentColor" d="M341 497q0 -36 33 -36q15 0 21 8q6 7 11.5 25t5.5 27v1.5t-0.5 5.5t-1.5 10.5t-2 19.5t-2 30q-2 60 -6 80.5t-15 20.5q-2 0 -11.5 -3t-21 -12t-11.5 -22q0 -8 4.5 -26.5t4.5 -31.5t-4.5 -48.5t-4.5 -48.5zM523 362q40 0 70.5 -6.5t37.5 -6.5q27 0 34 27q4 13 3 17.5 t-8 8.5q-8 7 -22 7q-3 0 -6.5 1t-6 2t-3.5 2l-3 3q-4 3 -4 -2q0 -4 -12 -4q-17 0 -37 7.5t-31 7.5q-11 1 -29 3.5t-22 2.5q-12 0 -24.5 -14t-15.5 -23q-1 -7 1.5 -11t12.5 -11q12 -7 23.5 -9t41.5 -2zM241 409q-10 0 -18.5 5.5t-28 10.5t-56.5 5q-35 0 -43.5 -2t-19.5 -13 q-10 -10 -11.5 -14t2.5 -15q11 -24 38 -24q12 0 28 4t20 4q6 0 30 -12.5t48 -12.5q5 0 10 1t15.5 4t16.5 12t6 22q0 25 -37 25zM322 137q0 -13 3.5 -21.5t10 -11.5t10.5 -3.5t10 -0.5q14 0 20 8t9 34.5t3 84.5q0 15 -0.5 23.5t-3 21t-10 19t-19.5 6.5q-9 0 -19.5 -7.5 t-10.5 -20.5q0 -3 2 -22.5t2 -39.5q0 -27 -3.5 -47t-3.5 -23z"/>
</svg>