<svg xmlns="http://www.w3.org/2000/svg" xmlns:xlink="http://www.w3.org/1999/xlink" version="1.1" viewBox="-54 -77 1103 1152">
  <path fill="currentColor" d="M508 -20q31 -4 72 -0.5t57 12.5q19 9 27 9q9 0 42.5 34.5t43.5 54.5q12 22 15 52q1 18 6 133.5t5 130.5v21q0 16 3 56q4 55 8 138q5 103 13 149q7 50 8 100q0 46 3 55q8 19 95 9q41 -4 57 -0.5t22 18.5q14 37 -23 56q-13 7 -30.5 9.5t-60.5 3.5q-59 2 -78 -2.5t-36 -26.5 q-25 -32 -29.5 -48.5t-6.5 -84.5q-2 -82 -10 -110q-5 -19 -11 -112.5t-7 -165.5q0 -49 -3 -54t-5 -120q-1 -50 -1.5 -76.5t-3.5 -52.5t-6.5 -37t-12 -23t-17.5 -17t-26 -13q-20 -11 -32 -13t-42 1q-44 2 -53 10q-10 9 -15 9q-11 0 -41 29t-40 49q-21 39 -22 42q-8 13 -8 26 q0 12 -8 24q-8 13 -11 47q-3 35 -13 54q-5 11 -7 31t-2 75q-1 86 -8 159q-8 69 -2 79q5 9 0 29q-6 19 -2 24q4 7 5 66t-3 73q-1 5 -5.5 19.5t-5.5 20.5q-6 23 -11 23t-12 15q-11 19 -34 25t-88 6q-71 0 -94 -3.5t-37 -16.5q-30 -29 -3 -55q9 -10 22 -11.5t77 -1.5 q58 0 73.5 -1.5t22.5 -8.5q9 -9 13 -34.5t-2 -39.5q-5 -14 -2 -17q4 -4 2 -41.5t-6 -47.5q-6 -12 -2 -22q4 -8 5.5 -32.5t6.5 -156.5q6 -141 11 -162q6 -24 11 -50q6 -29 12 -44q8 -22 11 -42q4 -24 11 -30q7 -7 7 -12q0 -6 17.5 -40.5t24.5 -41.5q10 -12 18 -23 q10 -12 26 -24q14 -8 37 -25q21 -15 34 -19t20 -10t34 -9z"/>
</svg>