<svg xmlns="http://www.w3.org/2000/svg" xmlns:xlink="http://www.w3.org/1999/xlink" version="1.1" viewBox="32 211 722 376">
  <g>
    <path fill="currentColor" d="M 549.0,541.0 Q 545.0,541.0 524.0,555.5 Q 503.0,570.0 490.0,570.0 Q 483.0,570.0 474.0,559.0 Q 465.0,548.0 465.0,541.0 Q 465.0,533.0 475.0,512.0 Q 485.0,491.0 490.0,491.0 Q 499.0,491.0 514.0,485.0 Q 529.0,479.0 541.5,471.5 Q 554.0,464.0 556.0,463.0 Q 580.0,457.0 557.0,450.0 Q 533.0,443.0 448.0,440.0 Q 447.0,440.0 393.5,437.5 L 340.0,435.0 Q 311.0,435.0 267.5,441.0 Q 224.0,447.0 220.0,451.0 Q 219.0,452.0 195.0,452.0 Q 146.0,452.0 120.0,449.5 Q 94.0,447.0 88.0,444.0 Q 82.0,441.0 77.0,435.0 Q 65.0,421.0 68.0,411.0 Q 71.0,398.0 79.5,393.0 Q 88.0,388.0 114.0,388.0 L 138.0,388.5 Q 138.0,388.5 165.0,389.0 Q 186.0,389.0 198.0,386.0 Q 210.0,383.0 245.0,382.0 L 311.5,379.5 Q 311.5,379.5 380.0,377.0 Q 402.0,377.0 475.0,379.0 Q 548.0,381.0 569.0,381.0 Q 603.0,381.0 603.0,376.0 Q 603.0,373.0 597.5,365.5 Q 592.0,358.0 587.5,358.0 Q 583.0,358.0 569.5,344.0 Q 556.0,330.0 553.0,330.0 Q 545.0,330.0 512.0,301.5 Q 479.0,273.0 479.0,257.0 Q 479.0,250.0 490.0,239.0 Q 498.0,231.0 502.0,230.0 Q 506.0,229.0 519.0,234.0 Q 533.0,241.0 542.0,250.5 Q 551.0,260.0 588.0,278.0 Q 607.0,288.0 633.0,311.5 Q 659.0,335.0 671.0,352.0 Q 679.0,366.0 692.5,377.0 Q 706.0,388.0 713.5,397.0 Q 721.0,406.0 721.0,418.0 Q 721.0,431.0 712.0,440.0 Q 703.0,449.0 698.0,450.0 Q 693.0,451.0 656.0,473.5 Q 619.0,496.0 611.0,504.0 Q 603.0,512.0 589.5,519.0 Q 576.0,526.0 567.0,530.5 Q 558.0,535.0 558.0,537.0 Q 558.0,541.0 549.0,541.0"/>
  </g>
</svg>