<svg xmlns="http://www.w3.org/2000/svg" xmlns:xlink="http://www.w3.org/1999/xlink" version="1.1" viewBox="32 213 722 374">
   <path fill="currentColor" d="M549 541q-4 0 -25 14.5t-34 14.5q-7 0 -16 -11t-9 -18q0 -8 10 -29t15 -21q9 0 24 -6t27.5 -13.5t14.5 -8.5q24 -6 1 -13q-24 -7 -109 -10q-1 0 -54.5 -2.5l-53.5 -2.5q-29 0 -72.5 6t-47.5 10q-1 1 -25 1q-49 0 -75 -2.5t-32 -5.5t-11 -9q-12 -14 -9 -24q3 -13 11.5 -18 t34.5 -5l24 0.5t27 0.5q21 0 33 -3t47 -4l66.5 -2.5t68.5 -2.5q22 0 95 2t94 2q34 0 34 -5q0 -3 -5.5 -10.5t-10 -7.5t-18 -14t-16.5 -14q-8 0 -41 -28.5t-33 -44.5q0 -7 11 -18q8 -8 12 -9t17 4q14 7 23 16.5t46 27.5q19 10 45 33.5t38 40.5q8 14 21.5 25t21 20t7.5 21 q0 13 -9 22t-14 10t-42 23.5t-45 30.5t-21.5 15t-22.5 11.5t-9 6.5q0 4 -9 4z"/>
</svg>