<svg xmlns="http://www.w3.org/2000/svg" xmlns:xlink="http://www.w3.org/1999/xlink" version="1.1" viewBox="33 213 721 374">
   <path fill="currentColor" d="M238 259q4 0 24.5 -14.5t34.5 -14.5q7 0 16 11t9 18q0 8 -10.5 29t-14.5 21q-9 0 -24 6.5t-28 14t-14 7.5q-24 6 -1 13q24 7 109 10l53.5 2.5t54.5 2.5q29 0 72.5 -6t47.5 -10q1 -1 25 -1q48 0 74.5 2.5t32.5 5.5t11 9q11 14 9 24q-3 14 -11.5 18.5t-34.5 4.5l-24.5 -0.5 t-26.5 -0.5q-21 0 -33.5 3t-46.5 4l-66.5 2.5t-68.5 2.5q-23 0 -95.5 -2t-93.5 -2q-34 0 -34 5q0 3 5.5 10.5t9.5 7.5t18 14t17 14q8 0 41 29t33 44q0 7 -11 18q-9 8 -12.5 9t-16.5 -4q-14 -6 -23 -16t-46 -28q-20 -10 -46 -33t-37 -41q-9 -13 -22 -24.5t-20.5 -20 t-7.5 -21.5t8.5 -22t14.5 -10q5 -1 42 -23.5t45 -30.5q8 -7 21.5 -14.5t22.5 -12t9 -6.5q0 -4 9 -4z"/>
</svg>