<svg xmlns="http://www.w3.org/2000/svg" xmlns:xlink="http://www.w3.org/1999/xlink" version="1.1" viewBox="46 101 372 688">
   <path fill="currentColor" d="M180 483q7 0 11 -3.5t6.5 -7.5t14 -7.5t32.5 -3.5q34 0 60 13q31 15 43 25t23 30q31 55 31 100q0 18 -13 36t-24.5 26.5t-13.5 8.5q-8 0 -13 8q-5 7 -29.5 19.5t-44.5 18.5q-12 4 -76 8l-60 4l-27 -28q-37 -38 -37 -70q0 -35 29.5 -107.5t62.5 -72.5q5 0 13.5 1.5 t11.5 1.5zM328 588q0 -21 -33.5 -45.5t-64.5 -24.5q-3 0 -10 0.5t-22.5 4t-28 9.5t-23.5 17.5t-12 27.5q-1 9 -7 33t-6 33q0 18 17.5 36.5t31.5 18.5q3 0 26.5 -4t55.5 -13t44 -19q31 -25 36.5 -31t5.5 -16q0 -13 -5 -13t-5 -14zM355 164q0 3 -4 11t-4 12q0 7 -6 7 q-5 0 -16 14t-11 21t-4 7q-5 0 -12 17.5t-20.5 44t-30.5 42.5q-25 25 -37 25q-7 0 -16 -5.5t-9 -13.5q0 -6 8 -14q15 -13 45.5 -76.5t33.5 -83.5t19 -29.5t26 -9.5q11 0 24.5 10t13.5 21z"/>
</svg>