<svg xmlns="http://www.w3.org/2000/svg" xmlns:xlink="http://www.w3.org/1999/xlink" version="1.1" viewBox="50 50 1100 1100">
  <path fill="currentColor" d="M200 100h800c55 0 100 45 100 100c0 178 -95 344 -250 433l-1 1c32 48 51 105 51 166c0 164 -136 300 -300 300s-300 -136 -300 -300c0 -61 19 -118 51 -166l-1 -1c-155 -89 -250 -254 -250 -433c0 -55 45 -100 100 -100zM327 300c24 65 61 124 123 160c16 9 33 17 50 23 v-183h-173zM700 300v183c17 -6 34 -14 50 -23c62 -36 99 -95 123 -160h-173zM600 700c-56 0 -100 44 -100 100s44 100 100 100s100 -44 100 -100s-44 -100 -100 -100z"/>
</svg>