<svg xmlns="http://www.w3.org/2000/svg" xmlns:xlink="http://www.w3.org/1999/xlink" version="1.1" viewBox="52 108 394 570">
  <path fill="currentColor" d="M378 435q-17 0 -28.5 -8.5t-11.5 -24.5q0 -18 24 -38q11 -10 14 -10.5t17 5.5q30 13 30 36q0 40 -45 40zM391 134q11 0 17.5 11.5t6.5 26.5q0 17 -7.5 24t-40.5 22q-10 4 -20 18t-41 33q-32 20 -32 24t-6 4q-7 0 -23 14q-25 22 -36 25q-6 2 -26.5 19t-26.5 19q-9 2 -9 8 q0 10 45.5 48t69.5 49q15 8 16 9q7 9 37.5 32.5t40.5 27.5q16 7 16 11t23 15q33 15 33 41q0 37 -22 37q-10 0 -23 -5.5t-14 -10.5q-3 -9 -19.5 -23t-34.5 -24q-22 -13 -22 -16q0 -2 -12 -6q-13 -4 -59 -46q-11 -9 -13 -9t-15 -11.5t-16 -11.5q-4 0 -15 -9.5t-14 -9.5 q-7 0 -8 -6q-2 -7 -20 -16q-27 -14 -39 -29t-12 -40q0 -14 6 -23t22 -18t19 -12q13 -10 19 -10q7 0 12 -9q4 -6 17 -11.5t17 -9.5q8 -8 38 -26.5t34 -18.5q6 0 6 -4t12 -11q13 -7 28.5 -21.5t15.5 -19.5t13 -12q14 -8 34 -23q20 -16 28 -16z"/>
</svg>