<svg xmlns="http://www.w3.org/2000/svg" xmlns:xlink="http://www.w3.org/1999/xlink" version="1.1" viewBox="87 91 825 814">
  <path fill="currentColor" d="M715 619q15 -17 32.5 -8.5t17.5 32.5q0 39 -52.5 74.5t-111.5 35.5q-24 0 -60 -8.5t-60 -19.5q-23 -11 -35.5 -29.5t-4.5 -30.5q6 -9 30.5 -7.5t49.5 12.5q29 12 72 12q30 1 42 -1.5t30 -13.5q28 -15 34 -25q4 -10 16 -23zM710 431q-39 -15 -71 -8t-90 43 q-55 35 -143.5 112.5t-88.5 90.5q1 18 63 55t126 58q37 12 55.5 15t54 3t49.5 -2t32 -11q35 -18 67.5 -64t43.5 -94q13 -54 -18.5 -117t-79.5 -81zM595 367q30 -10 69 -9.5t70 11.5q20 7 33 15.5t32 27.5q76 76 76 183q0 61 -25 116.5t-71 98.5q-40 36 -93.5 51.5 t-106.5 6.5q-84 -15 -150.5 -43.5t-130.5 -77.5q-33 -25 -36 -25q-4 0 -33 28q-27 26 -41 31t-26 -9q-13 -14 -8 -30t31 -41q28 -28 28 -33.5t-21 -36.5q-31 -47 -55 -111q-11 -29 -12 -47t8 -41q5 -13 9.5 -17.5t10.5 -4.5q10 0 17.5 12t16.5 42q10 32 32.5 78.5t34.5 60.5 q8 10 15.5 8.5t22.5 -17.5q16 -18 77 -71t95 -80q72 -55 131 -76zM199 183q9 -12 19.5 -12.5t30.5 9.5t50 39.5t37 46.5q16 37 0 58q-8 11 -22 3.5t-40 -37.5q-33 -36 -55 -50q-43 -29 -20 -57zM794 160q20 -10 35 -11q21 0 34.5 22.5t-0.5 33.5q-7 5 -28 11q-22 7 -44 29 q-43 45 -57 10q-6 -14 -3 -30q3 -15 22 -34.5t41 -30.5zM518 138q9 -9 23.5 -9.5t22.5 9.5q13 15 17 58t-6 62q-6 14 -16 15.5t-20 -8.5q-16 -15 -25 -64q-5 -29 -4.5 -41.5t8.5 -21.5z"/>
</svg>