<svg xmlns="http://www.w3.org/2000/svg" xmlns:xlink="http://www.w3.org/1999/xlink" version="1.1" viewBox="55 152 641 572">
  <path fill="currentColor" d="M253 190q10 0 34 1.5t30 1.5q5 0 12 -0.5t19.5 -1t23.5 -0.5q77 -4 100 -11q6 -2 27 -2q11 0 34 2t33 2q43 0 58 30q5 11 7 78t3 69q1 1 0.5 7.5t-2.5 12.5q-6 16 -1 25q4 7 7 45.5t4 44.5q2 7 6 44t9 47q10 21 10 47q0 35 -15 35q-6 0 -22 8q-15 8 -65 9q-31 1 -74.5 7 t-112.5 6q-15 0 -74 -3t-76 -3q-28 0 -33 3q-7 4 -22 4q-22 0 -37 -10.5t-15 -27.5q0 -9 -12 -19q-11 -10 -11 -22q0 -14 3 -51t3 -53q0 -30 -1.5 -69.5t-3.5 -67t-3 -28.5v-29q0 -12 -5.5 -42t-5.5 -41q0 -34 28 -34q8 0 24 2t25 2q43 0 60 -10q12 -8 31 -8zM427 452 q-3 0 -11 7t-13 7q-8 0 -32 17.5t-32 28.5q-10 15 -20 15q-8 0 -9.5 3.5t-0.5 19.5v13q0 7 -1.5 15.5t-1.5 25.5q0 23 4.5 27.5t23.5 4.5q37 0 84 -11q36 -7 158 -9h18l-1 -23q-1 -15 -3.5 -26t-2.5 -24q-7 -71 -14 -236q-2 -37 -8 -51.5t-21 -14.5q-16 0 -32 -3 q-14 -2 -17 -0.5t-5 13.5q-1 5 -1 22q0 62 7 76q2 6 -1 11t-3 10q0 30 12 50q2 4 2 29q0 55 -5 60q-1 3 -1 6t1 9.5t1 8.5q0 12 -10.5 22t-21.5 10q-15 0 -28 -9.5t-13 -21.5q0 -4 4 -16q6 -15 6 -39q0 -27 -12 -27zM302 403q0 36 20 36q21 0 33 -21q7 -12 19 -16 q14 -4 30 -21q19 -19 23 -19q1 0 1 -30q0 -80 -4 -84q-6 -4 -32 -4q-13 0 -25.5 2.5t-27.5 2.5q-7 0 -23 -1t-22 -1q-11 0 -20.5 2.5t-21.5 3.5q-16 1 -34 9t-32 10q-22 3 -25 10q-5 17 -5 124q0 42 10 142q4 28 7 33q4 5 -1 15t-3.5 13t15.5 11q17 10 36 10h19l-2 -21 q0 -1 -0.5 -4t-0.5 -4q0 -13 9 -34.5t9 -34.5q0 -1 -1 -7.5t-2.5 -17t-1.5 -20.5q-2 -41 -9 -71q-4 -19 -4 -28q0 -11 8 -20.5t18 -9.5q9 0 25 11.5t16 20.5q0 2 -0.5 6.5t-0.5 6.5z"/>
</svg>