<svg xmlns="http://www.w3.org/2000/svg" xmlns:xlink="http://www.w3.org/1999/xlink" version="1.1" viewBox="50 -20 610 834">
  <path fill="currentColor" d="M97 610q0 -52 -4 -157.5t-4 -110.5q0 -42 26 -42q3 0 11 2q17 5 114 10t124 5q5 0 145 -8q11 -1 30 -3.5t26 -2.5q17 0 29.5 11t12.5 27q0 6 -1 15.5t-1 17.5q0 10 1 32t1 31q0 13 -2 29t-2 39q0 76 5 104q2 12 6.5 22t6.5 24q1 5 6 26.5t5 31.5q0 32 -26 37 q-16 4 -19 11q-4 9 -25 3q-14 -3 -41 -3q-18 0 -64 1.5t-62 1.5q-14 0 -41 -0.5t-37 -0.5q-74 0 -87 8q-10 5 -20 5t-34 -2.5t-34 -2.5q-24 0 -22 -5q3 -5 -3 -5t-20 -10q-12 -9 -12 -26q0 -4 0.5 -16t0.5 -17q0 -24 -3 -29q-5 -6 5 -14q9 -7 9 -39zM543 503 q0 -15 1.5 -41.5t1.5 -39.5q0 -45 -7 -52t-51 -7q-7 0 -18.5 3t-26.5 4q-16 1 -37 5t-43 4q-9 0 -55 -3t-67 -3q-22 0 -22 10q0 6 6 18q4 8 19 33t20 36q4 9 10.5 16.5t15.5 16.5t14 16l15 18l8 -25q12 -38 36 -63q10 -10 25 -7q13 3 33 16t20 18q0 6 16.5 28.5t20.5 22.5 q6 0 6 7t3 7q5 0 15 21q7 13 21 28t20 30q9 19 12 19q4 0 3 -7q-1 -4 -6 -22q-9 -35 -9 -107zM505 679q0 -3 -6 -11t-6 -12q0 -8 -4 -10t-18.5 -23t-14.5 -25q0 -3 -17 -20q-19 -19 -23 -28q-6 -12 -15.5 -22.5t-14.5 -10.5q-2 0 -8 12t-12 25.5t-7 14.5q-7 7 -7 12 q0 4 -18 24l-17 19l-16 -7q-16 -7 -25 -28q-9 -20 -13 -20t-7 -12t-15 -22q-5 -5 -20 -26.5t-22 -25.5q-6 -4 -6 -11q0 -4 -18 -31t-22 -27q-5 0 -5 90q0 124 10 181q0 2 1 7t1.5 5.5t2.5 3.5t6.5 3.5t11.5 1t18 0.5q15 0 119.5 -3t123.5 -3q23 0 33 -5q1 -1 9.5 -3 t14.5 -5.5t6 -7.5zM90 132q0 -10 5.5 -18.5t13.5 -8.5q13 0 29 15q5 5 19 16.5t25.5 21.5t17.5 16q4 4 18 8q10 2 20.5 11.5t10.5 15.5q0 30 -18 30q-9 0 -23.5 -6t-14.5 -10q0 -3 -20 -12q-18 -7 -50.5 -38.5t-32.5 -40.5zM478 204q-13 0 -23.5 -10t-10.5 -26q0 -21 21 -21 q7 0 16 -14q22 -36 44 -40q15 -4 22 -12q7 -9 16 -9q8 0 20 12t12 19q0 8 -10 19t-16 11t-6 4t-17 8q-17 3 -22 15q-19 44 -46 44zM329 29q17 -11 33 5q9 9 10 56v29q0 52 -11 69q-9 15 -20 15q-7 0 -11 -5q-2 -2 -4.5 -50.5t-2.5 -73.5q0 -40 6 -45z"/>
</svg>