<svg xmlns="http://www.w3.org/2000/svg" xmlns:xlink="http://www.w3.org/1999/xlink" version="1.1" viewBox="25 5 869 767">
  <path fill="currentColor" d="M506 353q0 -9 4.5 -11.5t18.5 -1.5q11 1 14.5 4.5t3.5 14.5q0 36 -20 64.5t-48 28.5t-41.5 -6t-25.5 -25q-16 -23 -16 -43q0 -10 0.5 -14t4 -8t11.5 -7q6 -2 8 -2q5 0 11.5 9t22.5 39q3 7 17 9q9 1 13 -2.5t11 -18.5q11 -22 11 -30zM500 737q-24 0 -33.5 -13t-9.5 -41 q0 -49 17 -71q5 -7 12.5 -5.5t13.5 9.5q8 13 13.5 38.5t5.5 47.5q0 19 -4 27t-15 8zM773 663q0 16 -3 21t-12 5t-16 -6t-9 -15q-4 -14 -17 -29.5t-25 -20.5q-9 -4 -13.5 -6.5t-8 -8.5t-3.5 -14q0 -24 12 -33q8 -6 10 -6q4 0 14 8t10 12q0 5 26 24q21 15 28 29t7 40zM185 640 q-11 0 -18.5 -9t-7.5 -21q0 -14 8 -20q0 -1 12 -11.5t23 -20.5t22.5 -18.5t15.5 -8.5q9 0 15.5 9.5t6.5 21.5q0 10 -6 18.5t-24 27.5q-32 32 -47 32zM781 424q-31 0 -31 -47q0 -11 6.5 -17t16.5 -6q3 0 11 3t12.5 4t9.5 -2q6 -6 17 -6q12 0 22 7t10 18q0 5 -3 11 q-10 18 -59 33q-8 2 -12 2zM153 414q-7 0 -29 -4.5t-30 -4.5q-10 0 -14 -3t-9 -14q-6 -13 -6 -16t9 -10q11 -10 28 -7q23 3 47 4q20 1 26 3.5t11 11.5q4 9 3 12.5t-10 13.5q-14 14 -26 14zM372 550q-3 0 -17.5 -11.5t-17.5 -11.5q-4 0 -22.5 -23.5t-19.5 -24.5 q-4 -2 -13 -19q-8 -15 -8 -32q0 -40 7 -63q4 -14 4 -29t5 -18t5 -10q0 -9 25 -34q40 -41 72.5 -55.5t89.5 -14.5q16 0 45 6t39 7q5 1 32 28t44 49q2 3 4.5 6.5t4 6.5t3 7.5t2.5 6.5t2.5 7.5t2 7t1.5 7.5t1.5 7.5t1.5 8.5t2 8q2 9 2 30q0 12 -2 24.5t-6 30.5t-4 21 q-6 25 -19.5 40t-43.5 31q-39 19 -59 23q-22 4 -23 7q-2 4 -14 4q-8 0 -18.5 3.5t-17.5 3.5q-17 0 -37.5 -6t-31.5 -15q-16 -14 -21 -14zM456 517q12 0 30 -7t27 -7q12 0 46 -16q22 -11 29.5 -17t15.5 -21q11 -22 11 -45q0 -20 -11.5 -49t-21.5 -41q-2 -3 -8 -11.5 t-11.5 -13t-13.5 -6.5t-25.5 -12.5t-28.5 -10.5q-10 0 -22 6q-6 3 -38 9.5t-38 12.5q-9 9 -15 9q-15 0 -29 33.5t-14 66.5q0 21 4.5 33t18.5 30q26 34 44 45.5t50 11.5zM154 171q0 -10 12 -19t27 -9q7 0 21 15q18 21 35 39q21 22 21 29q0 4 -9 7t-19 3q-13 0 -13 -4t-23 -15 q-22 -10 -37 -23.5t-15 -22.5zM644 211q0 -6 17.5 -30.5t22.5 -24.5q4 0 17 -9q13 -10 30 -10q19 0 19 13q0 10 -6.5 20.5t-14.5 14.5q-12 6 -19 20q-11 20 -18.5 27.5t-21.5 7.5q-10 0 -18 -8.5t-8 -20.5zM430 63q0 -23 16 -23t32 28.5t16 57.5q0 26 -22 35q-10 4 -14 3.5 t-10.5 -7.5t-9 -16t-3.5 -26t-2 -24q-3 -16 -3 -28z"/>
</svg>