<svg xmlns="http://www.w3.org/2000/svg" xmlns:xlink="http://www.w3.org/1999/xlink" version="1.1" viewBox="47 62 521 658">
  <path fill="currentColor" d="M340 541q0 -10 -1.5 -17t-3 -9.5t-3 -4t-1.5 -2.5q0 -2 5.5 -9t5.5 -12t-4 -9q-5 -6 -55.5 -8.5t-107.5 -3.5t-70 -4q-16 -4 -25 -16q-9 -11 -5 -25t12.5 -24.5t17.5 -21.5t9 -17q0 -10 4 -10t19 -20.5t15 -26.5q0 -8 20 -36.5t25 -28.5q4 0 7.5 -6.5t12 -19t21.5 -23.5 q18 -15 37 -40.5t33 -40t30 -14.5q14 0 20 4t6 9t4 11.5t13 10.5q19 8 19 25q0 3 -2.5 9.5t-4.5 25.5t-2 52t6.5 99.5t18.5 66.5q3 0 26 -3.5t36 -3.5q31 0 48.5 11.5t17.5 31.5q0 22 -13 27.5t-47 5.5l-38 -1q-37 0 -40 5q-3 4 -3 25q0 38 6.5 90t6.5 61q0 12 -1.5 18 t-9 12t-22.5 6q-32 0 -37.5 -22t-5.5 -127zM213 325q0 7 -7 12t-7 8t-15 22l-14 18l11 6q8 5 65 7t71 6q18 5 21 4q6 -4 6 -65q0 -11 -5.5 -42.5t-6.5 -56.5q-1 -21 -3 -31t-4 -12.5t-6 -2.5q-6 0 -23 18t-24 32q-5 9 -32 39.5t-27 37.5z"/>
</svg>