<svg xmlns="http://www.w3.org/2000/svg" xmlns:xlink="http://www.w3.org/1999/xlink" version="1.1" viewBox="37 182 804 469">
   <path fill="currentColor" d="M342 408q0 23 -37.5 44t-51.5 21q-25 0 -44.5 -26.5t-19.5 -40.5q0 -9 19.5 -56.5t33.5 -47.5q8 0 33.5 14t37.5 25q11 10 20 31t9 36zM258 402q9 7 16 -5q5 -11 -5 -14q-6 -2 -11 7t0 12zM368 348q0 -18 25 -33.5t40 -15.5q4 0 36 10q20 7 30 15.5t16 24.5q9 27 9 49 q0 19 -6 33t-13.5 21t-20 10.5t-20.5 4t-20 0.5q-35 0 -50 -7t-15 -25v-8q0 -3 -5.5 -33t-5.5 -46zM445 409q23 0 23 -14q0 -8 -7 -15.5t-13 -7.5q-8 0 -13 6t-5 14q0 17 15 17zM596 469q-3 0 -8.5 -2t-14.5 -8.5t-16.5 -16t-13 -28t-5.5 -42.5q0 -11 3 -21t3 -14 q0 -12 4.5 -14.5t9.5 -2t5 -4.5q0 -4 9.5 -16t12.5 -12q11 0 39.5 6t36.5 10q13 7 23.5 38t10.5 65q0 15 -8 30.5t-17 17.5t-9 8q0 4 -13 8t-25 4q-11 0 -16 -4t-9 -3q-1 0 -1.5 0.5zM636 395q-1 -4 -2 -9.5t-7 -16t-16 -12.5t-12 0.5t-2 15.5q0 12 2.5 16.5t13.5 9.5 q10 5 15 5q8 0 8 -9zM717 271q0 -67 43 -67q13 0 19.5 11.5t6.5 23.5q0 11 -4.5 36t-4.5 29q0 3 3.5 52t9 104t9.5 63q6 13 6 35q0 18 -6 28q-8 14 -51 14q-4 0 -30.5 -5t-86.5 -6q-22 -1 -39.5 -1.5t-27.5 -1t-16.5 -1t-9 -0.5h-2.5q-29 0 -87 8.5t-66 8.5q-17 0 -73 9 t-86 9h-6q-27 0 -38.5 5t-32.5 5q-30 0 -38 -8q-18 -16 -18 -34l0.5 -2.5t1 -7.5t1.5 -12.5t2 -19.5t2 -26t1.5 -34t0.5 -43q0 -45 -5.5 -84.5t-10.5 -56.5t-6 -18q-3 -2 -3.5 -5.5t0.5 -20.5q0 -8 10.5 -12t19.5 1q8 5 11 0q3 -8 9 -5.5t11 12.5q11 25 16 151.5t8 130.5 q7 13 57 13q8 0 77 -3t149 -8t90 -10q4 -3 12 -3q5 0 25 3.5t41 3.5q7 0 15.5 -0.5t15.5 -0.5q16 0 28.5 4.5t21.5 4.5q1 0 4.5 -0.5t10.5 -2.5t12.5 -5.5t9.5 -11t3 -17.5q0 -22 -7.5 -115t-7.5 -117z"/>
</svg>