<svg xmlns="http://www.w3.org/2000/svg" xmlns:xlink="http://www.w3.org/1999/xlink" version="1.1" viewBox="29 -55 829 899">
   <path fill="currentColor" d="M510 537q12 0 20.5 9t8.5 21q0 13 -9.5 23t-22.5 10q-22 0 -33 -16q-5 -8 -5 -12t6 -15q11 -20 35 -20zM409 601q-34 0 -34 -30q0 -12 4.5 -17t20.5 -11q9 -3 16 -3q24 0 24 25q0 16 -8.5 26t-22.5 10zM615 344q-7 0 -22.5 -12.5t-15.5 -20.5t4 -25.5t4 -20.5 q0 -5 -17 -14t-33 -12q-10 -2 -13.5 0t-4.5 9q-2 11 -7 11q-3 0 -9 19q-4 14 -12 18.5t-24 4.5q-12 0 -21.5 -16t-8.5 -31v-19l-17 4q-21 4 -27 9q-9 7 -17 7q-6 0 -11 7t-10 7q-16 0 -16 41q0 19 -19 57q-18 38 -33 38q-10 0 -25.5 -10t-15.5 -20q0 -9 14 -42 q13 -31 13 -54q0 -53 -7.5 -81.5t-31.5 -59.5q-10 -14 -15 -23.5t-11 -19.5q-9 -13 -17 -13t-15 19.5t-9 21.5q-10 7 -19 39.5t-9 58.5q0 11 3.5 30t3.5 21q0 8 15 25q28 31 28 56q0 8 -11 21q-8 9 -12 10t-18 -3q-16 -5 -26 -18t-33 -58q-13 -26 -16.5 -41.5t-3.5 -47.5 q0 -29 10 -54q12 -32 12 -39q0 -11 11 -26q12 -16 12 -19q0 -2 19 -36.5t19 -37.5q0 -6 11 -12t20 -6q13 0 30.5 16t51.5 59q9 11 17 23.5t16.5 27t12.5 21.5q23 37 23 59q0 12 12 12q9 0 28 -8q41 -17 68 -20q42 -4 42 -18q0 -5 12 -13q9 -5 36 -51.5t30 -49.5 q3 -4 11.5 -18t16.5 -23.5t16 -9.5q24 0 24 24q0 19 6 35q12 37 21 131q3 26 9 28q8 4 21 12.5t32 19.5q12 6 23.5 18.5t24.5 29t19 22.5q13 15 20 35q1 4 8.5 18t7.5 21q0 9 -11 16q-8 6 -41 6h-47q-95 0 -101 6q-3 3 19 25t22 28q0 3 6 19q1 2 5.5 12.5t8 18t9.5 14.5 t11 7q12 0 39.5 20.5t32.5 33.5q6 13 6 42q0 28 -7 56q-5 17 -15.5 36.5t-15.5 19.5q-3 0 -18 14t-18 14q-6 0 -22 9q-36 19 -104 19q-20 0 -99 -7q-40 -3 -54 -6t-26 -12q-24 -18 -50 -20q-12 -1 -37 -14t-34 -14q-19 -3 -38 -13t-19 -16q0 -9 5.5 -24t11.5 -19 q10 -5 25 -5q16 0 19 5q3 4 12 4q6 0 13 7q9 10 125 43q15 4 32 12.5t39 11.5q28 4 33 7q5 5 26 1q15 -3 41 -3q2 0 6 0.5t6 0.5q21 0 34 -12q15 -11 19 -11q5 0 26 -21q26 -26 26 -69q0 -11 -10 -15.5t-35 -4.5h-13q-22 0 -28.5 -6t-6.5 -26q0 -17 -5 -20q-3 -2 -7 -26 q-4 -23 -10 -28t-6 -12q0 -6 -22 -39l-21 -33l-34 3q-58 4 -76 21q-7 7 -31 15q-20 7 -63.5 35.5t-43.5 35.5t-9 13t-19 6q-1 0 -2 -0.5t-2 -0.5q-28 -4 -36 -7t-12 -10q-2 -4 -2 -9q0 -14 10.5 -30t22.5 -19t38.5 -18.5t34.5 -18.5q16 -6 28 -15q6 -6 13 -6q5 0 5 -5 q0 -8 23.5 -19.5t44.5 -13.5q18 -2 59 -10t70 -10q44 -2 58 -7q12 -4 27 -4q5 0 16.5 1t15.5 1q16 0 16 -5q0 -3 -10 -11t-10 -12q0 -6 -10 -15.5t-18 -9.5q-11 0 -14 15q-1 6 -14 20.5t-18 14.5zM585 168q0 -12 -4 -26q-3 -10 -6 -4q-2 3 -8 15q-8 18 -8 22q0 7 15 7 q7 0 9 -2.5t2 -11.5z"/>
</svg>