<svg xmlns="http://www.w3.org/2000/svg" xmlns:xlink="http://www.w3.org/1999/xlink" version="1.1" viewBox="25 74 872 652">
  <g>
    <path fill="currentColor" d="M 73.0,588.0 Q 73.0,586.0 74.0,582.0 Q 75.0,578.0 75.0,576.0 Q 75.0,573.0 70.0,562.5 Q 65.0,552.0 65.0,531.0 Q 65.0,499.0 73.5,477.0 Q 82.0,455.0 89.5,448.5 Q 97.0,442.0 101.0,442.0 Q 109.0,442.0 109.0,438.0 Q 109.0,433.0 166.0,412.0 Q 223.0,391.0 226.0,391.0 Q 234.0,391.0 228.0,381.0 Q 227.0,378.0 223.0,373.0 Q 206.0,349.0 206.0,307.0 Q 206.0,294.0 207.0,282.0 Q 208.0,270.0 209.5,260.5 Q 211.0,251.0 213.5,243.0 Q 216.0,235.0 218.0,229.5 Q 220.0,224.0 221.5,219.5 Q 223.0,215.0 224.0,213.0 L 225.0,211.0 Q 225.0,202.0 241.0,182.0 Q 257.0,162.0 260.0,153.0 Q 263.0,144.0 272.0,139.5 Q 281.0,135.0 314.0,124.0 Q 375.0,104.0 401.0,104.0 Q 403.0,104.0 420.0,106.0 Q 437.0,108.0 457.0,111.0 Q 477.0,114.0 480.0,117.0 Q 486.0,123.0 491.0,123.0 Q 493.0,123.0 515.5,137.5 Q 538.0,152.0 541.0,152.0 Q 544.0,152.0 572.5,182.5 Q 601.0,213.0 609.0,225.0 Q 619.0,240.0 619.0,288.0 Q 619.0,309.0 616.5,325.0 Q 614.0,341.0 611.0,349.0 Q 608.0,357.0 608.0,359.0 Q 608.0,364.0 679.0,370.0 Q 730.0,375.0 743.5,378.0 Q 757.0,381.0 783.0,396.0 Q 800.0,406.0 810.5,413.0 Q 821.0,420.0 822.5,423.0 Q 824.0,426.0 825.0,427.0 Q 826.0,428.0 830.0,428.0 Q 835.0,428.0 835.0,431.0 Q 835.0,447.0 846.0,464.5 Q 857.0,482.0 857.0,514.0 Q 857.0,554.0 845.5,580.0 Q 834.0,606.0 821.0,613.5 Q 808.0,621.0 796.5,626.0 Q 785.0,631.0 785.0,635.0 Q 785.0,637.0 778.0,641.0 Q 771.0,645.0 760.5,651.5 Q 750.0,658.0 745.0,665.0 Q 723.0,690.0 614.0,690.0 Q 606.0,690.0 582.0,689.5 Q 558.0,689.0 543.0,689.0 Q 516.0,689.0 460.0,692.5 Q 404.0,696.0 362.0,696.0 Q 305.0,696.0 266.0,691.0 Q 227.0,686.0 209.0,680.5 Q 191.0,675.0 158.0,661.0 Q 128.0,648.0 125.0,648.0 Q 119.0,648.0 105.0,634.0 Q 91.0,620.0 91.0,615.0 Q 91.0,610.0 82.0,603.5 Q 73.0,597.0 73.0,588.0 M 533.0,375.0 Q 533.0,374.0 545.5,337.0 Q 558.0,300.0 558.0,283.0 Q 558.0,282.0 555.5,272.5 Q 553.0,263.0 549.0,251.0 Q 545.0,239.0 541.0,235.0 Q 531.0,225.0 522.0,213.0 Q 513.0,201.0 498.0,195.0 Q 483.0,189.0 480.0,187.0 Q 476.0,184.0 454.5,176.5 Q 433.0,169.0 413.0,163.0 Q 393.0,157.0 392.0,157.0 Q 391.0,157.0 363.0,161.0 Q 259.0,175.0 259.0,285.0 Q 259.0,360.0 309.0,360.0 Q 312.0,360.0 316.0,359.5 Q 320.0,359.0 324.0,359.0 Q 335.0,359.0 347.0,366.0 Q 359.0,373.0 359.0,388.0 Q 359.0,397.0 352.0,410.0 Q 344.0,425.0 332.0,431.5 Q 320.0,438.0 290.0,442.0 Q 246.0,449.0 220.5,455.5 Q 195.0,462.0 189.0,466.0 Q 183.0,470.0 176.5,474.5 Q 170.0,479.0 161.0,482.0 Q 159.0,482.0 149.0,487.0 Q 139.0,492.0 127.5,503.5 Q 116.0,515.0 116.0,528.0 Q 116.0,550.0 129.5,571.0 Q 143.0,592.0 154.0,595.0 Q 169.0,601.0 196.0,613.0 Q 250.0,637.0 353.0,637.0 Q 360.0,637.0 411.0,633.5 Q 462.0,630.0 535.0,629.0 Q 634.0,629.0 637.0,624.0 Q 638.0,622.0 642.0,622.0 Q 646.0,622.0 652.0,623.0 Q 658.0,624.0 661.0,624.0 Q 681.0,624.0 699.5,615.5 Q 718.0,607.0 733.0,595.5 Q 748.0,584.0 753.0,582.0 Q 766.0,576.0 766.0,571.0 Q 766.0,568.0 780.0,553.5 Q 794.0,539.0 794.0,518.0 Q 794.0,505.0 786.0,487.5 Q 778.0,470.0 772.0,470.0 Q 765.0,470.0 763.0,461.0 Q 756.0,437.0 664.0,436.5 Q 572.0,436.0 557.0,425.0 Q 547.0,418.0 540.0,402.5 Q 533.0,387.0 533.0,375.0"/>
  </g>
</svg>