<svg xmlns="http://www.w3.org/2000/svg" xmlns:xlink="http://www.w3.org/1999/xlink" version="1.1" viewBox="60 151 731 493">
   <path fill="currentColor" d="M94 591q0 -17 12 -30t29 -13q23 0 41.5 2.5t46.5 3.5q33 0 57 4q12 2 17 -3q5 -3 127 -3q163 0 214 4q2 0 6.5 0.5t7.5 0.5q11 0 31 -2t29 -2q46 0 46 35q0 15 -12 27q-7 7 -53 7q-40 0 -60 -3q-36 -4 -135 -4q-45 0 -153 2.5t-146 2.5q-91 0 -101 -15q-4 -5 -4 -14z M431 443q-24 0 -82 -0.5t-90 -0.5q-72 0 -78 -3q-9 -2 -16 5q-8 7 -30 0q-16 -5 -22.5 -13t-6.5 -24q0 -24 19 -30l10 -5t14.5 -6.5t9.5 -1.5q1 1 3 1q4 0 15 -7.5t16 -7.5t7 5q2 7 13 7q9 0 21 8q10 7 42 7q12 0 37.5 -0.5t26.5 -0.5q7 0 109 3t110 3q6 0 46 -5 q70 -9 103 -9q16 0 24.5 10.5t8.5 26.5q0 17 -15 26q-11 6 -34 7.5t-115 2.5q-35 0 -70 0.5t-53 1t-23 0.5zM585 255q-17 0 -77 2.5t-81 2.5q-22 0 -110 -5t-107 -7q-23 -3 -36 4q-8 8 -15.5 3t-13.5 -5q-9 0 -20.5 -10t-11.5 -18q0 -9 10 -22q8 -11 12.5 -13.5t17.5 -1.5 q19 2 23 -2q9 -9 21 3q6 6 256 6q187 0 219 -4q21 -3 29 -3q10 0 17 7t7 18q0 21 -24.5 35.5t-47.5 14.5q-5 0 -11 -2q-9 -3 -57 -3z"/>
</svg>