<svg xmlns="http://www.w3.org/2000/svg" xmlns:xlink="http://www.w3.org/1999/xlink" version="1.1" viewBox="12 82 601 978">
  <path fill="currentColor" d="M375.938 732.68c-9.89648 -3.64648 -17.709 -5.73047 -18.2285 -5.73047c-0.521484 0.521484 -11.9805 3.64648 -26.5625 6.77148c-30.209 6.77148 -60.9375 20.834 -71.875 33.334c-17.1875 19.2695 -34.8965 58.332 -34.8965 76.5625 c0 23.4375 11.9785 45.3125 31.25 56.7695c23.4375 13.543 82.291 11.459 115.625 -4.6875c36.9785 -17.707 48.4375 -28.125 56.25 -50.5195c5.72852 -16.1465 5.72852 -22.918 0 -41.668c-14.584 -44.2695 -28.125 -63.0195 -51.5625 -70.832zM255.625 132.68 c25.5215 -6.25 166.666 -3.64648 179.688 3.64453c5.72852 3.125 19.791 9.89648 31.25 15.1055c10.9375 5.72852 31.7715 20.832 45.3125 34.375c66.1465 66.666 73.959 158.854 21.3535 261.457c-27.6035 54.6875 -52.6035 85.9375 -130.207 160.938 c-20.834 20.3125 -38.0215 38.543 -38.0215 40.625c0 1.5625 10.416 5.20898 23.4375 7.29297c45.3125 6.76953 93.2285 42.707 117.709 88.541c8.85352 17.1875 11.457 30.7285 11.9785 72.916l0.521484 52.084l-24.4805 36.459 c-13.541 19.791 -30.207 40.625 -36.9785 45.3125c-71.875 51.041 -158.854 63.541 -223.959 32.8125c-35.9375 -16.668 -74.4785 -54.168 -88.0195 -84.8965c-12.5 -29.166 -14.584 -77.6035 -5.20898 -110.416c21.875 -73.4375 60.9375 -126.562 184.375 -249.48 c120.312 -119.27 149.479 -164.062 150 -228.645c0 -25.5215 -1.5625 -29.168 -21.875 -49.4805c-28.125 -27.6035 -51.5625 -34.8945 -115.104 -34.8945c-68.75 0 -133.334 18.2285 -182.293 51.5625c-35.416 24.4785 -36.9785 65.1035 -5.72852 127.082 c22.916 46.3555 11.459 81.7715 -27.6035 81.7715c-22.918 0 -38.0215 -15.1035 -61.9805 -63.541c-18.2285 -36.459 -19.2695 -40.625 -19.791 -92.709c0 -41.666 2.08398 -58.334 8.33398 -70.834c19.2695 -34.8945 65.1035 -72.3945 121.354 -98.4375 c29.6875 -13.541 43.2285 -18.2285 85.9375 -28.6445z"/>
</svg>