<svg xmlns="http://www.w3.org/2000/svg" xmlns:xlink="http://www.w3.org/1999/xlink" version="1.1" viewBox="30 53 570 663">
  <path fill="currentColor" d="M248 380q0 -13 14 -25t30 -12q12 0 20.5 8.5t8.5 23.5q0 20 -11.5 34t-28.5 14q-12 0 -16 -2.5t-9 -12.5q-8 -18 -8 -28zM520 333q18 -8 24 -8q13 0 21.5 12.5t8.5 28.5q0 15 -7 26l-9 16q-9 -2 -27 -7.5t-27 -8.5v-25q0 -19 2 -23.5t14 -10.5zM88 92q12 0 44 2t57 2 q97 0 104 -5q9 -7 30 -7h43q42 0 53.5 4t11.5 22q0 5 -2 23q-3 33 -3 115q0 93 3.5 181t7.5 88q3 0 3 26q0 8 -2 48q-4 72 -9 83q-7 12 -35 12q-8 0 -38 -2q-160 -7 -167 -13q-4 -4 -54 -6q-48 -1 -54 -10q-6 -7 -6 -24q0 -19 7 -29q4 -7 12 -8.5t33 -1.5q38 0 50 8 q15 10 147 18q12 1 26 1q15 0 20 -9q8 -13 8 -61q0 -22 -3 -37q-7 -39 -9 -323q0 -19 -5 -27t-18 -8q-5 0 -19 2q-19 4 -96 4q-100 0 -126 -5q-30 -5 -38 -11t-8 -22q0 -30 32 -30z"/>
</svg>