<svg xmlns="http://www.w3.org/2000/svg" xmlns:xlink="http://www.w3.org/1999/xlink" version="1.1" viewBox="59 58 582 712">
   <path fill="currentColor" d="M267 380q6 -2 65 -2h36q93 1 101 9q7 7 7 21q0 17 -10 27q-8 8 -17.5 9.5t-45.5 1.5q-22 0 -67 2.5t-63 2.5q-15 0 -30 -11q-17 -13 -17 -19q0 -5 15.5 -20.5t25.5 -20.5zM338 107q17 0 34.5 4t36.5 4q45 0 67 -17q10 -7 64 -7q38 0 48 1.5t16 7.5q11 13 11 62 q0 25 -5 66.5t-6 67.5q-1 33 -5 55.5t-4 64.5q0 130 7 162q3 14 6 60.5t4 54.5q1 14 -15 29q-16 16 -24 13q-8 -4 -124 -6q-225 -4 -234 -8l-2 -1h-3q-7 0 -23.5 5.5t-21.5 5.5q-27 0 -47 -36q-5 -10 -5 -18q0 -15 13 -28q8 -7 9.5 -20t1.5 -80q0 -135 -11 -269 q-2 -22 -9 -44q-7 -20 -3 -29q4 -7 4 -13q0 -8 -16 -30q-16 -20 -16 -35q0 -13 14.5 -21.5t29.5 -8.5q6 0 8 1q9 4 62 6q21 1 52.5 4t43.5 3q8 0 18.5 -3t23.5 -3zM525 157q-3 0 -22 7t-26 7q-5 0 -17 -1.5t-21 -1.5q-15 0 -19 4q-1 1 -39 1q-18 0 -66 -1t-67 -1 q-43 0 -49 2q-10 5 -30 6q-8 1 1 10t9 33q0 25 5 45q9 45 9 258q0 88 6 112t29 24q2 0 8 -0.5t9 -0.5q16 0 53.5 5.5t58.5 5.5q19 0 65 -2t67 -2h54l-1 -34q0 -19 -4 -92t-4 -101q0 -37 6 -118.5t6 -132.5q0 -17 -9 -26q-6 -6 -12 -6z"/>
</svg>