<svg xmlns="http://www.w3.org/2000/svg" xmlns:xlink="http://www.w3.org/1999/xlink" version="1.1" viewBox="32 73 725 651">
  <path fill="currentColor" d="M362 497q10 -2 14 -2q22 0 26 28q12 80 12 111q0 22 -5 29.5t-18 7.5q-21 0 -27 -15t-8 -68q-2 -55 -5 -62q-3 -5 1 -16.5t10 -12.5zM91 493q8 -6 17 -6q11 0 18 7q8 8 8 72q0 16 -2 36q-4 31 -5 40.5t-6 19.5t-8 12t-16 8q-25 12 -26 10q-6 -9 -6 -28q0 -14 5 -29 q7 -22 9 -78q2 -38 3.5 -48.5t8.5 -15.5zM213 621q0 -17 5 -42.5t5 -46.5q0 -35 9 -48q8 -12 12 -12.5t17 8.5l13 10l-1 78q-1 81 -7 91q-7 13 -9 13t-23 -14q-15 -10 -18 -15.5t-3 -21.5zM452 298q0 -47 27 -47q14 0 28.5 16.5t14.5 34.5q0 26 -37 38q-11 4 -15 3t-10 -9 q-8 -9 -8 -36zM164 109q19 0 67.5 -3t74.5 -3q60 0 104 4q30 2 78 10.5t53 12.5q8 6 26 15q13 6 45 28.5t40 27.5q15 9 15 12q0 2 19 21q38 38 38 105q0 25 -3 35.5t-20 37.5q-35 58 -78 87q-41 28 -62 28q-28 0 -28 38q0 2 0.5 6t0.5 6q6 58 6 79t-10 29t-32 8 q-15 0 -19 -19.5t-6 -88.5q-1 -25 -1 -56q0 -32 9 -40q9 -9 23 -9q12 0 38.5 -7.5t34.5 -8.5q20 -4 27 -12q16 -18 37.5 -61t21.5 -58q0 -9 -9.5 -28t-19.5 -30q-31 -36 -82.5 -65.5t-83.5 -29.5q-10 0 -13 -5q-6 -10 -146 -10q-54 0 -136 2l-61 1l-1 -19q-2 -20 10 -30 t38 -10h5z"/>
</svg>