<svg xmlns="http://www.w3.org/2000/svg" xmlns:xlink="http://www.w3.org/1999/xlink" version="1.1" viewBox="34 -51 730 845">
  <path fill="currentColor" d="M290 597q0 -39 6 -57t25 -18q13 0 22.5 11.5t9.5 25.5q0 11 -7 21q-7 11 -10 75q-3 55 -8 69t-24 14q-13 0 -18 -2.5t-5 -11.5q0 -12 4 -29q6 -27 6 -55q0 -7 -0.5 -21.5t-0.5 -21.5zM86 603q0 -6 -2 -22.5t-2 -24.5q0 -13 5 -20t9.5 -8t18.5 -5q4 0 9 7q6 8 6 73v15 q0 66 -5.5 89.5t-22.5 31.5q-6 2 -9 2q-12 0 -18.5 -13.5t-6.5 -29.5q0 -14 9 -48t9 -47zM194 525q6 -5 19 -5t19 6q5 5 5 116q0 66 -3 75q-5 14 -17 14q-14 0 -23 -16q-2 -4 -5.5 -66.5t-3.5 -87.5q0 -30 9 -36zM418 262q0 9 -16 23t-27 14q-16 0 -26.5 -11.5t-10.5 -27.5 q0 -38 40 -38q12 0 16.5 3.5t12.5 15.5q11 18 11 21zM461 247q0 -20 9 -33t24 -13q12 0 21 16t9 32q0 17 -8.5 30t-20.5 13q-10 0 -22 -16t-12 -29zM513 100q8 0 25.5 4t32 8t15.5 4q8 0 21.5 -26.5t18.5 -28.5q9 -5 16 -18q9 -18 32 -43q12 -12 24 -12q11 0 18 8t7 22 q0 17 -11 43t-24 39q-16 16 -16 22q0 5 -12 20t-12 27q0 6 5 6q3 0 17 14t18 14q8 0 33 58q10 21 10 39q0 30 -11 71t-18 49q-9 11 -18 27t-49 55t-48 39t-11 4q-3 5 -24 5q-22 0 -30 5l-19 9q-8 5 -19 5q-9 0 -9 3q0 5 -16 10q-15 5 -18 11.5t-3 27.5q0 11 1.5 47t1.5 46 q0 20 -7 30q-9 12 -16 12q-9 0 -18 -11q-16 -16 -16 -42q0 -7 2.5 -24.5t2.5 -24.5q0 -14 -6 -42.5t-6 -43.5q0 -11 11 -21q26 -25 42.5 -33.5t44.5 -11.5q64 -6 80 -18q13 -9 19 -9q4 0 16.5 -9.5t15.5 -9.5q4 0 10 -11q5 -11 34 -45q9 -10 17 -38.5t8 -50.5 q0 -20 -5.5 -40.5t-11.5 -20.5q-3 0 -7 -11q-3 -10 -22 -23q-18 -13 -18 -18q0 -4 -5 -4q-3 0 -28 -14t-29 -14q-9 0 -9 -4q0 -3 -23 -5.5t-57.5 -8t-55.5 -15.5q-8 -4 -73 -4q-53 0 -55 3q-4 6 -15 6t-11 4t-34 10.5t-56 6.5q-15 0 -24.5 -8t-9.5 -19q0 -7 2 -10 q7 -13 16.5 -17.5t31.5 -4.5q28 0 42 -7q33 -18 132 -18q93 0 128 16q20 9 35 9z"/>
</svg>