<svg xmlns="http://www.w3.org/2000/svg" xmlns:xlink="http://www.w3.org/1999/xlink" version="1.1" viewBox="44 15 601 725">
   <path fill="currentColor" d="M255 466q2 -34 10 -37q2 -1 4 -1q6 0 14 6t9 62l1 56l-13 7q-10 5 -12.5 4.5t-9.5 -8.5q-8 -9 -8 -21q0 -11 2.5 -35.5t2.5 -32.5zM299 426q4 -4 13 -2.5t14 6.5q17 17 17 79q0 36 -8 43q-7 7 -16 7t-13 -6q-3 -4 -6 -42t-3 -65q0 -18 2 -20zM207 426q11 -8 18 -3 q8 4 12 64q2 40 2 43q0 18 -8 26q-7 6 -9 6t-11 -7q-8 -7 -9.5 -15.5t-3.5 -49.5q0 -8 -0.5 -19t-0.5 -14q0 -24 10 -31zM357 354q0 -12 9 -20.5t21 -8.5q8 0 14 5.5t6 13.5q0 11 -11 19t-24 8q-15 0 -15 -17zM315 372q-8 0 -15 -9.5t-7 -18.5q0 -19 17 -19q10 0 19 9 q14 14 1 29q-9 9 -15 9zM216 313q-22 0 -22 -13q0 -9 8 -22.5t14 -13.5q7 0 13 -6q5 -5 84 -7q34 -1 49 -1.5t26 -3.5t13.5 -5t11.5 -9t20 -14q17 -10 20 -24q6 -26 29 -26q12 0 20.5 7.5t8.5 18.5q0 8 -14 28t-29 33l-15 13l17 18q27 27 27 75q0 27 -4.5 39.5t-22.5 32.5 q-19 22 -39 28q-25 8 -25 29q0 8 3.5 33t3.5 30q0 25 -20 25q-15 0 -23 -14.5t-10 -32.5t-2 -46v-28q0 -26 6 -32.5t30 -10.5t38 -14t14 -35t-5 -28t-5 -12q0 -10 -10 -15.5t-38 -10.5q-31 -6 -68 -6q-72 0 -90 16q-4 4 -14 4zM568 703q-37 0 -124.5 -2.5t-144.5 -2.5 q-156 0 -159 4q-3 5 -25 5q-16 0 -31 -16q-11 -12 -12 -15t5 -15q16 -30 29 -193q3 -33 3 -100q0 -94 -4 -114q-4 -21 -6 -50t-5 -48q-8 -58 -8 -67q0 -16 9.5 -28.5t22.5 -12.5q14 0 14 5t11 5q12 0 13 4q2 6 34 6q19 0 61 -4.5t63 -4.5q15 0 48.5 1.5t44.5 1.5 q10 0 59.5 -2.5t69.5 -2.5q82 0 82 31q0 12 -8 24q-7 10 -8 40t-3 178q0 14 -0.5 40.5t-0.5 39.5q0 144 3 178q5 62 5 77q0 27 -6 32.5t-32 5.5zM149 136q0 28 4 117t4 132q0 105 -4 177q-2 48 -2 54q0 22 4 25q8 5 217 5q173 0 176 -4q3 -3 3 -40q0 -41 -5 -141.5 t-5 -158.5q0 -21 0.5 -65t0.5 -64q0 -61 -2 -63q-5 -8 -25 -8q-14 0 -43 3t-53 3q-15 0 -47.5 -1t-46.5 -1q-24 0 -47 2.5t-39 2.5q-10 0 -29.5 -1.5t-28.5 -1.5q-13 0 -17 1q-8 1 -9.5 2t-3.5 6.5t-2 18.5z"/>
</svg>