<svg xmlns="http://www.w3.org/2000/svg" xmlns:xlink="http://www.w3.org/1999/xlink" version="1.1" viewBox="50 36 660 739">
  <path fill="currentColor" d="M378 474h-7q-24 0 -33.5 -8.5t-9.5 -30.5v-21l23 3q16 3 40 3h9q27 0 42 4q17 4 22.5 10.5t5.5 23.5q0 24 -33 24q-9 0 -28 -4t-31 -4zM333 386q0 -22 9 -27.5t40 -5.5q68 0 88 21q7 8 7.5 12.5t-6.5 15.5t-21 11q-35 0 -92 -6l-25 -3v-18zM80 139q0 -66 39 -66q9 0 15 1 q73 7 199 7q113 0 162 -6q38 -5 91 -5q62 0 68 10q9 15 9 29q0 10 -4 21q-7 18 -7 135q0 60 7.5 182t8.5 141q2 46 7 63q5 16 5 41q0 16 -5 32.5t-14 16.5q-1 0 -5 -2q-27 -17 -129 -17q-5 0 -16 0.5t-17 0.5q-119 0 -321 -21q-36 -2 -53 -17q-14 -11 -14 -20q0 -5 3 -14 q6 -19 6 -93q0 -60 -5 -63q-3 -2 -8 -44t-7 -45q-3 -6 -6.5 -112.5t-4.5 -111.5q-4 -16 -4 -43zM581 372q3 -3 8 -105t5 -120q0 -13 -8.5 -16t-31.5 -3h-6q-35 0 -41 6q-5 5 -30 7q-52 3 -64 12q-4 3 -4 18q0 14 1 25q6 59 28 59q7 0 19 7t17 7q9 0 25 20q5 6 16 18.5 t12 13.5q12 12 12 18q0 5 5 5q3 0 8 13q4 10 12.5 15t16.5 0zM317 139q-46 -3 -105 -3q-37 0 -45 1l-19 3l2 105q1 47 2 69t4 37t7.5 18t13.5 3t23 -4.5t25 -5.5q19 -1 26 -15t7 -22q0 -13 11 -26t28 -21q22 -11 22 -14q0 -2 19.5 -9.5t20.5 -8.5q3 -6 3 -62q0 -29 -7 -36 t-38 -9zM431 306q-8 -1 -19.5 -4t-15.5 -3q-11 0 -30 6t-19 10q0 3 -11 7q-10 2 -27.5 36t-17.5 51q0 31 28 73q26 40 85 40q29 0 58 -10q21 -7 28 -12t14 -18q12 -20 12 -38q0 -10 -5.5 -28t-6.5 -29q-3 -29 -24 -53t-49 -28zM260 470q-1 -2 -3.5 -9t-3 -9t-3 -7t-5 -7 t-6 -4.5t-8 -3.5t-10.5 -1h-9q-30 0 -43 3q-8 1 -10 2t-4 6t-2 18q0 19 3 76q4 90 15 100q6 5 33.5 12t39.5 7q14 0 17 5q4 4 27 4q31 0 41 -5q5 -2 18 1t16 3q23 0 23 -24q0 -43 -15 -57q-13 -11 -17 -11q-8 0 -24 -9.5t-23 -17.5q-35 -40 -47 -72zM606 639 q0 -201 -21 -201q-6 0 -14 14t-8 24q0 7 -7.5 21.5t-13.5 19.5q-7 5 -7 17q0 21 -41 28q-21 4 -37.5 12t-18.5 16v10q0 8 2 32l3 33l30 3q7 1 22 1q13 0 33.5 -3t30.5 -3q17 0 20 4q1 3 7.5 4t12.5 0t6 -3q0 -3 0.5 -12.5t0.5 -16.5z"/>
</svg>