<svg xmlns="http://www.w3.org/2000/svg" xmlns:xlink="http://www.w3.org/1999/xlink" version="1.1" viewBox="-5 -3 1007 1021">
  <path fill="currentColor" d="M847.5 46.5q2.5 -2.5 46.5 -1.5l44 1l10 21q8 14 8 23t-6 44q-22 111 -140 332q-23 42 -67 130q-58 114 -99 185q-8 14 -45 86q-34 64 -45 77q-25 28 -62 -11q-47 -51 -79 -110q-76 -142 -106 -193.5t-83 -130.5q-43 -64 -104.5 -181.5t-73.5 -160.5q-5 -13 1.5 -22 t19.5 -7q10 1 25 27.5t55 112.5q48 102 132 231q63 96 77 123q4 6 14 24.5t14 24.5q23 42 46 86q29 55 57 95.5t38 40.5q9 0 21 -27q15 -32 41 -77q23 -42 43 -79q14 -24 66 -125q33 -67 88 -172q79 -152 79 -158q0 -2 10 -25q11 -26 13 -35q3 -11 11 -39q16 -63 7 -66 q-8 -3 -153 19q-101 16 -179 26q-31 4 -63 8q-326 43 -371 24q-15 -7 -18.5 -14.5t5.5 -13.5q7 -5 157 -17q80 -7 185 -21q11 -1 42 -5t44 -5q50 -6 133 -19q99 -15 122 -18q37 -5 39.5 -7.5z"/>
</svg>