<svg xmlns="http://www.w3.org/2000/svg" xmlns:xlink="http://www.w3.org/1999/xlink" version="1.1" viewBox="28 91 636 654">
   <path fill="currentColor" d="M59 687q0 -13 11 -26t24 -13q7 0 30 5q17 3 67 3q53 0 105.5 -6t99.5 -6q128 -2 128 -7q0 -9 -8.5 -20t-13.5 -11q-7 0 -9 -8q-2 -5 -17.5 -17.5t-16.5 -17.5q-2 -8 -9 -10t-23 -29q-7 -11 -15.5 -21t-18.5 -21t-17.5 -17.5t-21 -19t-19.5 -18.5l-28 -27l8 -15 q12 -22 36 -47.5t41 -33.5q11 -6 28 -28q17 -23 24 -24q9 -2 9 -6t26 -22t26 -26q0 -3 -4 -6q-6 -3 -205 -5q-197 -2 -221 -8q-18 -5 -18 -22q0 -13 9 -23.5t22 -11.5q5 -1 29 -1q45 0 192 4.5t201 5.5q83 2 88 4q16 5 16 22q0 2 -2 9t-3 11t2 7q1 0 1 1q0 6 -25 29t-44 34 q-49 30 -62 47q-10 14 -27.5 31.5t-20.5 17.5q-4 0 -22.5 18t-18.5 22q0 5 17 26t31 33q21 19 31 39q11 22 24 30q14 7 14 14q0 16 84 90q42 36 42 61q0 9 -6 13q-7 6 -60.5 13.5t-86.5 7.5q-15 0 -18 -3q-2 -1 -53 -1q-33 0 -121 1.5t-112 1.5q-8 0 -17 -0.5t-15 -0.5 q-28 0 -32 3t-12 3q-17 0 -30 -7t-13 -21z"/>
</svg>