<svg xmlns="http://www.w3.org/2000/svg" xmlns:xlink="http://www.w3.org/1999/xlink" version="1.1" viewBox="43 55 755 697">
  <g>
    <path fill="currentColor" d="M 126.0,217.0 Q 131.0,217.0 151.5,196.0 Q 172.0,175.0 178.0,175.0 Q 185.0,175.0 188.0,170.0 Q 192.0,163.0 225.5,142.5 Q 259.0,122.0 267.0,122.0 Q 282.0,122.0 300.5,113.5 Q 319.0,105.0 354.0,102.0 Q 430.0,96.0 437.0,89.0 Q 439.0,87.0 447.0,87.0 Q 477.0,87.0 517.5,99.5 Q 558.0,112.0 587.0,125.0 Q 616.0,138.0 619.0,138.0 Q 623.0,138.0 628.5,144.0 Q 634.0,150.0 647.5,164.0 Q 661.0,178.0 678.0,192.0 Q 695.0,206.0 704.0,218.0 Q 713.0,230.0 715.5,237.0 Q 718.0,244.0 720.0,245.0 Q 729.0,251.0 753.0,314.0 Q 764.0,342.0 764.0,408.0 Q 764.0,428.0 762.0,430.0 Q 757.0,438.0 753.0,462.0 Q 749.0,486.0 739.5,516.0 Q 730.0,546.0 710.0,570.0 Q 687.0,599.0 687.0,602.0 Q 687.0,610.0 646.0,651.0 Q 640.0,657.0 622.5,663.5 Q 605.0,670.0 580.5,678.5 Q 556.0,687.0 539.0,695.0 Q 484.0,720.0 382.0,720.0 Q 349.0,720.0 334.0,711.0 Q 322.0,704.0 312.5,702.5 Q 303.0,701.0 290.0,692.0 Q 288.0,690.0 236.5,663.5 Q 185.0,637.0 180.0,626.0 Q 179.0,623.0 161.0,609.0 Q 143.0,595.0 143.0,592.0 Q 143.0,590.0 136.0,578.0 Q 129.0,566.0 121.5,549.5 Q 114.0,533.0 112.0,521.0 Q 110.0,506.0 98.5,486.0 Q 87.0,466.0 87.0,446.0 Q 87.0,430.0 82.5,422.5 Q 78.0,415.0 78.0,413.0 Q 78.0,411.0 80.0,387.5 Q 82.0,364.0 85.0,338.0 Q 88.0,312.0 90.0,309.0 Q 96.0,300.0 103.0,279.0 Q 110.0,258.0 110.0,250.0 Q 110.0,238.0 114.0,230.0 Q 118.0,222.0 122.0,220.0 L 126.0,217.0 M 528.0,624.0 Q 547.0,624.0 593.5,600.0 Q 640.0,576.0 640.0,563.0 Q 640.0,561.0 658.0,541.5 Q 676.0,522.0 680.0,500.0 Q 682.0,492.0 689.0,473.5 Q 696.0,455.0 697.0,440.0 Q 698.0,427.0 700.0,414.0 Q 702.0,401.0 702.0,391.0 Q 702.0,363.0 696.5,341.5 Q 691.0,320.0 684.0,307.5 Q 677.0,295.0 676.0,292.0 Q 673.0,281.0 655.0,258.5 Q 637.0,236.0 620.0,219.5 Q 603.0,203.0 601.0,203.0 Q 598.0,203.0 592.5,197.0 Q 587.0,191.0 573.0,182.5 Q 559.0,174.0 537.0,168.0 Q 522.0,164.0 505.5,159.0 Q 489.0,154.0 478.5,151.0 Q 468.0,148.0 460.0,148.0 Q 447.0,148.0 432.5,159.0 Q 418.0,170.0 413.0,170.0 Q 406.0,170.0 381.5,183.5 Q 357.0,197.0 346.0,206.0 Q 325.0,224.0 325.0,266.0 Q 325.0,295.0 355.5,318.5 Q 386.0,342.0 428.5,362.5 Q 471.0,383.0 485.0,399.0 Q 529.0,447.0 540.5,470.0 Q 552.0,493.0 552.0,531.0 Q 552.0,560.0 544.0,568.0 Q 538.0,574.0 530.0,594.0 Q 522.0,614.0 522.0,620.0 Q 522.0,624.0 528.0,624.0 M 422.0,625.0 Q 440.0,625.0 449.5,592.0 Q 459.0,559.0 463.0,559.0 Q 467.0,559.0 476.0,539.0 Q 485.0,519.0 485.0,509.0 Q 485.0,501.0 469.0,481.0 Q 453.0,461.0 453.0,460.0 Q 453.0,454.0 435.5,441.0 Q 418.0,428.0 410.0,428.0 Q 403.0,428.0 377.5,417.0 Q 352.0,406.0 342.0,397.0 Q 329.0,384.0 317.0,379.0 Q 299.0,371.0 276.5,339.5 Q 254.0,308.0 254.0,287.0 Q 254.0,286.0 257.0,265.5 Q 260.0,245.0 264.5,222.0 Q 269.0,199.0 272.0,195.0 Q 275.0,190.0 271.0,190.0 Q 266.0,191.0 245.0,199.0 Q 228.0,206.0 210.5,220.5 Q 193.0,235.0 185.0,237.0 Q 164.0,242.0 148.5,287.5 Q 133.0,333.0 133.0,363.0 Q 133.0,372.0 138.0,406.5 Q 143.0,441.0 143.0,450.0 Q 143.0,460.0 166.5,505.5 Q 190.0,551.0 208.0,559.0 Q 220.0,565.0 225.0,574.0 Q 230.0,583.0 234.0,583.0 Q 241.0,583.0 248.0,594.0 Q 260.0,611.0 302.5,626.0 Q 345.0,641.0 378.0,641.0 Q 399.0,641.0 407.0,633.0 Q 415.0,625.0 422.0,625.0"/>
  </g>
</svg>