<svg xmlns="http://www.w3.org/2000/svg" xmlns:xlink="http://www.w3.org/1999/xlink" version="1.1" viewBox="51 -26 522 660">
  <g>
    <path fill="currentColor" d="M 75.0,48.0 Q 75.0,44.0 77.5,35.5 Q 80.0,27.0 91.0,15.5 Q 102.0,4.0 120.0,4.0 Q 134.0,4.0 148.0,14.0 Q 162.0,24.0 176.0,24.0 Q 178.0,24.0 181.0,23.5 Q 184.0,23.0 191.5,22.5 Q 199.0,22.0 212.5,21.5 Q 226.0,21.0 253.5,20.5 Q 281.0,20.0 318.0,20.0 Q 423.0,20.0 456.5,22.5 Q 490.0,25.0 530.0,36.0 Q 549.0,40.0 549.0,70.0 Q 549.0,85.0 538.0,88.0 Q 527.0,91.0 483.0,91.0 Q 444.0,91.0 340.5,87.5 Q 237.0,84.0 195.0,84.0 Q 158.0,84.0 158.0,94.0 Q 158.0,100.0 163.0,113.0 Q 166.0,121.0 168.5,158.0 Q 171.0,195.0 172.0,223.5 Q 173.0,252.0 173.0,257.0 L 173.0,268.5 Q 173.0,268.5 172.5,283.5 Q 172.0,298.5 172.0,298.0 L 172.0,310.0 L 172.0,314.0 Q 172.0,353.0 177.0,360.0 Q 179.0,362.0 179.5,365.0 Q 180.0,368.0 178.0,369.0 Q 175.0,370.0 175.0,445.0 Q 175.0,531.0 178.0,534.0 Q 182.0,538.0 182.0,550.0 Q 182.0,585.0 160.0,599.0 Q 153.0,604.0 147.5,603.5 Q 142.0,603.0 128.0,597.0 Q 112.0,590.0 106.0,581.5 Q 100.0,573.0 100.0,556.0 L 100.0,548.0 Q 101.0,540.0 102.5,525.0 Q 104.0,510.0 105.0,490.0 Q 106.0,470.0 106.5,441.0 Q 107.0,412.0 107.0,381.0 Q 107.0,172.0 86.0,98.0 Q 75.0,59.0 75.0,48.0"/>
  </g>
</svg>