<svg xmlns="http://www.w3.org/2000/svg" xmlns:xlink="http://www.w3.org/1999/xlink" version="1.1" viewBox="29 178 535 658">
  <g>
    <path fill="currentColor" d="M 409.0,806.0 Q 379.0,806.0 340.5,797.5 Q 302.0,789.0 291.0,791.0 Q 290.0,791.0 287.0,791.5 Q 284.0,792.0 282.0,792.0 Q 267.0,792.0 243.0,784.0 Q 219.0,776.0 206.0,776.0 Q 197.0,776.0 161.0,781.5 Q 125.0,787.0 109.0,787.0 Q 93.0,787.0 74.0,776.0 L 54.0,764.0 L 61.0,745.0 Q 68.0,726.0 72.0,721.0 Q 77.0,715.0 199.0,715.0 Q 214.0,715.0 280.0,719.5 Q 346.0,724.0 371.0,724.0 Q 387.0,724.0 397.5,722.5 Q 408.0,721.0 424.0,716.0 Q 440.0,711.0 448.5,696.5 Q 457.0,682.0 457.0,660.0 Q 457.0,656.0 455.0,647.0 Q 453.0,638.0 453.0,624.0 Q 453.0,613.0 455.0,596.0 Q 457.0,579.0 457.0,563.0 Q 457.0,479.0 444.0,290.0 L 441.0,238.0 L 456.0,223.0 Q 471.0,208.0 474.0,208.0 Q 478.0,208.0 492.0,222.0 Q 502.0,231.0 504.5,237.5 Q 507.0,244.0 507.0,260.0 Q 507.0,265.0 514.0,520.0 Q 518.0,633.0 532.0,667.0 Q 540.0,687.0 534.0,691.0 Q 529.0,694.0 529.0,714.0 L 529.0,728.0 Q 529.0,752.0 523.5,768.0 Q 518.0,784.0 510.0,784.0 Q 502.0,784.0 495.0,791.0 Q 489.0,797.0 477.5,798.0 Q 466.0,799.0 463.0,794.0 Q 457.0,784.0 443.0,798.0 Q 435.0,806.0 409.0,806.0"/>
  </g>
</svg>