<svg xmlns="http://www.w3.org/2000/svg" xmlns:xlink="http://www.w3.org/1999/xlink" version="1.1" viewBox="-10 282 643 546">
  <path fill="currentColor" d="M291.896 311.092c0.826172 -2.06445 5.78418 -3.30566 11.1562 -3.30566c10.7441 0 40.082 20.6611 113.635 80.5781c28.5117 23.1396 76.0312 60.3291 105.37 82.2295c57.1055 43.0205 81.9424 65.3457 81.9424 72.1465c0 0.581055 -0.181641 1.04883 -0.539062 1.40625 c-0.171875 0.171875 -0.482422 0.254883 -0.922852 0.254883c-4.86914 0 -25.583 -10.167 -49.0762 -23.8086c-25.6191 -14.876 -46.6934 -26.8584 -47.1064 -26.8584c-0.414062 0 0.826172 61.9824 2.47949 137.602c0.892578 38.0391 1.32227 69.5947 1.32227 93.7334 c0 31.7119 -0.741211 50.6221 -2.14941 54.6113c-2.89258 7.43652 -7.85059 11.1553 -17.7686 13.2227c-39.6689 7.23145 -102.064 10.8467 -165.751 10.8467c-63.6875 0 -128.666 -3.61523 -173.499 -10.8467c-9.91797 -1.65332 -17.3555 -5.78613 -20.2471 -11.1582 c-2.84668 -5.03613 -4.30078 -56.6094 -4.30078 -114.62c0 -51.4531 1.14355 -107.972 3.47461 -141.573l2.8916 -36.7764l-47.1074 31.4043c-30.9443 20.835 -52.1211 31.6738 -61.002 31.6738c-3.09668 0 -4.69824 -1.31738 -4.69824 -3.98828 c0 -2.8916 164.46 -145.452 245.863 -213.22c13.6357 -11.5693 25.6201 -21.9004 26.0332 -23.5537zM326.193 359.852c-7.85156 -8.26367 -16.5293 -14.875 -19.0078 -14.875c-2.47949 0 -13.6367 9.50391 -24.793 21.0742 c-11.5703 11.5703 -42.1484 38.4287 -68.5947 59.5029l-47.9326 38.8418l-2.47949 136.774c-0.860352 38.0527 -1.29102 68.6445 -1.29102 91.7734c0 32.377 0.84375 50.1328 2.53125 53.2656c10.3301 19.0078 16.9404 19.835 140.906 22.7266 c28.6611 0.711914 52.4482 1.09766 72.251 1.09766c60.71 0 83.9863 -3.63184 95.5146 -12.667c2.66309 -2.07129 3.84277 -20.8838 3.84277 -68.2725c0 -18.7861 -0.18457 -42.0625 -0.537109 -70.5684c-0.827148 -74.3789 -2.47949 -138.428 -4.13184 -142.146 c-1.65332 -3.71973 -10.3311 -11.9844 -19.835 -18.1816c-30.9912 -20.248 -111.981 -83.4707 -126.443 -98.3467z"/>
</svg>