<svg xmlns="http://www.w3.org/2000/svg" xmlns:xlink="http://www.w3.org/1999/xlink" version="1.1" viewBox="137 2 733 852">
  <path fill="currentColor" d="M621 569l-2 -134h-17q-20 -1 -97.5 5t-103.5 11l-32 5l1 31q2 52 7.5 122t9.5 88l7 26l40 -4q42 -4 64 -10q24 -6 75 -6h50zM477 139q0 -6 -10 -6q-7 0 -28.5 24t-44.5 60q-15 22 -21 27.5t-21 27.5q-14 20 -54 68q-36 43 -36 51q0 7 53 4t103 -12q36 -6 176 -12 q90 -2 111.5 -4.5t21.5 -10.5q0 -12 -21.5 -30t-93.5 -66q-56 -37 -95.5 -72.5t-39.5 -48.5zM421 83q42 -42 63 -39.5t45 51.5q16 32 37 51t105 76q62 42 94.5 75.5t52.5 77.5q19 41 3 53.5t-82 8.5l-50 -2v155q0 103 -2 130.5t-11 35.5q-7 8 -29.5 11t-84.5 7 q-77 3 -111 8.5t-55 16.5q-30 16 -51 0t-21 -54t-7 -101q-7 -64 -11 -124l-4 -53h-55q-40 0 -48.5 -3t-16.5 -18q-11 -21 -11 -31q0 -21 89 -131q44 -55 81 -108q35 -50 80 -93z"/>
</svg>