<svg xmlns="http://www.w3.org/2000/svg" xmlns:xlink="http://www.w3.org/1999/xlink" version="1.1" viewBox="46 83 503 664">
   <path fill="currentColor" d="M275 144q0 -30 33 -30q19 0 34 7q15 6 52 6q9 0 36 -0.5t34 -0.5q27 0 40 10q12 10 12 32q0 2 -0.5 5t-0.5 5q0 17 5.5 43t5.5 41q0 96 -29 96q-6 0 -18.5 -12.5t-16.5 -22.5q-5 -12 -7 -53q-2 -42 -5 -42q-9 0 -35.5 36t-26.5 55q0 10 8 21q37 49 37 84q0 22 -30 56 q-23 27 -23 33q0 9 -3 12q-4 4 -36.5 14.5t-40.5 10.5q-9 0 -15 6t-6 14q0 9 8 11.5t40 3.5q25 1 37.5 2.5t23 9.5t10.5 24q0 4 -2 14l-4 16l-32 1q-33 0 -51 5q-14 4 -17.5 8.5t-7.5 20.5q-7 31 -24 31q-31 0 -41 -31q-2 -7 -2 -29q0 -12 -40 -12q-11 0 -22 3t-16 3 q-7 0 -19 -3q-21 -5 -26 -10t-5 -21q0 -11 3.5 -15.5t16.5 -10.5q11 -5 21 -5q3 0 10 1t11 1q6 0 22.5 -3.5t22.5 -3.5q12 0 17 -3.5t2 -12.5q-3 -6 -23 -6q-21 0 -31.5 -4.5t-21 -15t-19.5 -16.5q-14 -10 -19 -17.5t-11 -26.5q-10 -32 -16 -41q-5 -8 -5 -23q0 -9 2.5 -42 t2.5 -34q0 -7 9 -16q9 -12 14 -21q7 -13 28 -29t31 -16t16 -4q11 -8 38 -8q34 0 72 12q36 11 44 11q10 0 16 -12q11 -19 30 -41q24 -28 24 -32t-37 -4q-6 0 -24.5 0.5t-26.5 0.5q-33 0 -33 -36zM262 310q-3 -3 -32 -3q-31 0 -40 3q-10 3 -41 54q-5 8 -5 33q0 12 4.5 19.5 t6.5 15.5q5 17 19 33q12 14 22 18t31 4q49 0 83 -13q14 -5 34 -25t20 -29q0 -11 -26 -55q-9 -15 -16 -29q-4 -9 -29 -14.5t-31 -11.5z"/>
</svg>