<svg xmlns="http://www.w3.org/2000/svg" xmlns:xlink="http://www.w3.org/1999/xlink" version="1.1" viewBox="-6 -8 1016 1014">
  <path fill="currentColor" d="M113 61q39 -5 92 -6q41 -1 55.5 5.5t14.5 24.5q0 15 -14 19t-82 10l-73 5l-1 73q-2 111 -24 116q-5 0 -11 -2q-10 -4 -15.5 -22t-9.5 -63q-4 -52 0 -93.5t14 -51.5q8 -9 54 -15zM470 289q-7 -12 -36 -0.5t-48 33.5q-33 37 -46.5 92t-1.5 101q7 27 16.5 42.5t27.5 32.5 q45 42 114.5 52.5t122.5 -15.5q36 -18 69.5 -62.5t41.5 -84.5q9 -37 -34 -82t-118 -79q-36 -16 -43 -21q-10 -4 -35 -4q-26 0 -30 -5zM859 42q17 -3 22.5 -2.5t15.5 4.5q15 5 21 22.5t9 65.5q3 61 17 102q20 63 7 83q-8 10 -20.5 6.5t-20.5 -17.5q-6 -10 -22.5 -64.5 t-19.5 -75.5q-2 -9 -17 10q-3 5 -8 11q-21 29 -70.5 78.5t-57.5 49.5q-15 0 8 28q5 6 13 14q29 32 40 57t11 58q0 65 -63 139q-39 44 -78 64.5t-98 27.5l-28 4l8 14q8 15 8 41v27h27q33 0 75 6t54 12q15 8 15 23q0 18 -14.5 22.5t-56.5 -0.5q-46 -6 -73 -6h-27v51 q0 41 -5 52t-22 11q-16 0 -21.5 -12t-7.5 -52q-3 -50 -10 -50q-13 0 -37.5 -7t-29.5 -12q-17 -16 24 -27q3 0 6 -1q7 -1 14.5 -3t13.5 -3.5t7 -1.5q9 -3 14 -33q4 -19 9 -43q3 -10 -1.5 -13t-30.5 -9q-37 -9 -63 -23q-29 -14 -57.5 -42.5t-39.5 -53.5q-19 -41 -22 -92 t11 -96q6 -20 2 -27t-26 -18q-14 -7 -29 -22q-15 -13 -21.5 -14t-22.5 9t-23 7q-7 -2 -7 -14.5t7 -25.5q7 -14 3.5 -22t-29.5 -30q-28 -25 -28 -39q0 -18 9 -24t25 0t36 24l29 27l23 -21q17 -15 33 -21.5t23 -2.5q10 6 1.5 29.5t-25.5 39.5q-14 14 -14 20q0 4 12 22.5 t24 35.5t14 15q4 -4 22 -28q20 -28 40 -44q16 -12 45 -22t36 -6q5 3 53 5q34 2 49 6.5t59 25.5q59 30 65 32q1 1 1.5 0t1 -3.5t0.5 -5.5q0 -11 53 -65q91 -93 93 -114q0 -2 -2 -3q-6 -1 -47 7q-50 10 -68 6.5t-18 -22.5q0 -22 47 -33q50 -12 67 -16q54 -11 58 -12z"/>
</svg>