<svg xmlns="http://www.w3.org/2000/svg" xmlns:xlink="http://www.w3.org/1999/xlink" version="1.1" viewBox="41 47 811 698">
   <path fill="currentColor" d="M229 201q0 -4 9 -12t9 -13q0 -8 8.5 -16t15.5 -8q8 0 19 -9q3 -3 15.5 -9.5t22 -13t11.5 -11.5q3 -9 10.5 -14t29.5 -11q20 -5 40 -5q63 0 133 36q65 33 68 55q1 13 17 38q5 7 6 13.5t1 17.5t1 17l1 13l59 -3q21 -1 46.5 -2.5t30.5 -1.5q13 0 23 10.5t10 24.5 q0 16 -11 27q-20 19 -55 19q-9 0 -38 -1t-37 -1q-24 0 -29.5 7t-6.5 32v11.5v8.5t-0.5 5.5t-0.5 4t-2 3.5t-2.5 3.5t-4.5 5t-6 6.5q-14 16 -14 21q-1 14 -38.5 40t-71.5 35q-13 4 -16.5 7.5t-5.5 16.5q-4 26 -4 34q0 24 14 52q14 25 14 40q0 24 -31 34q-12 5 -23 5 q-9 0 -24 -12q-12 -10 -14 -18q-1 -8 -1 -27q0 -6 0.5 -36.5t0.5 -45.5v-22q0 -11 -3.5 -13t-21.5 -5q-55 -9 -59 -22q-2 -9 -8 -9t-15 -12q-1 -2 -13 -14.5t-21.5 -24.5t-9.5 -17q0 -4 -10 -18q-11 -15 -15 -28t-18.5 -30.5t-19.5 -17.5q-2 0 -2 1q-2 5 -18 5q-28 0 -62 -9 t-34 -25q0 -14 23 -23t45 -10q15 -1 39 -1q10 -1 21 -18t12 -34q2 -17 6 -18q5 -2 5 -8zM410 185q-4 0 -24.5 -6t-26.5 -6q-4 0 -4 2q0 5 -8 5q-6 0 -28 19t-38 39q-16 22 -5 26q178 5 234 6l68 1v-20q0 -21 -18 -46t-22 -25q-5 0 -5 -7q0 -5 -3.5 -6.5t-19.5 -2.5 q-6 0 -19 -6t-18 -6q-9 0 -26 16q-19 17 -37 17zM559 328q-30 0 -75 8q-13 2 -17 7t-4 18q0 66 1.5 84t8.5 18q2 0 16 -6q8 -4 35 -16q23 -10 36.5 -33t13.5 -51v-12q0 -11 -2.5 -14t-12.5 -3zM392 361q0 -17 -5.5 -24t-23.5 -7q-13 0 -19 1t-13 2.5t-21 2.5q-13 1 -18.5 2 t-8 3.5t-2.5 7.5q0 9 9 27.5t13 18.5q5 0 5 6q0 9 31 33.5t43 26.5q2 0 5.5 0.5t4.5 0.5q9 0 9 -10q0 -9 -1 -16q-8 -51 -8 -75z"/>
</svg>