<svg xmlns="http://www.w3.org/2000/svg" xmlns:xlink="http://www.w3.org/1999/xlink" version="1.1" viewBox="71 39 450 744">
   <path fill="currentColor" d="M254 131q0 -5 -2 -15t-2 -13q0 -13 19 -23q13 -7 20 -7q9 0 19 17q8 14 8 18t-7 14q-7 11 -7 23l5 43q0 1 6 -1.5t16 -7.5t21 -11q40 -20 53 -20q8 0 16 8q5 6 5.5 10.5t-3.5 18.5q-6 21 -18 22q-26 3 -54 26l-14 12l19 18q17 17 27 21q8 3 8 8q0 3 11.5 10t26 14t15.5 7 q8 4 8 20q0 14 -6 26t-15 12q-29 0 -83 -50q-32 -30 -41 -30q-4 0 -4 5t2.5 18t3.5 22q1 23 12 31t49 16q38 7 74 42q28 27 35 40t15 52q9 44 9 68q0 27 -11 46.5t-39 48.5q-39 41 -39 43q0 5 -35 10.5t-71 5.5q-81 0 -92 -19q-5 -7 -11 -7q-8 0 -25 -15q-6 -6 -23.5 -18.5 t-28 -23.5t-17.5 -26q-17 -39 -17 -63q0 -6 3.5 -17.5t4.5 -21.5q2 -22 14 -48.5t24 -37.5q12 -10 12 -16q0 -3 9.5 -11t9.5 -12q0 -5 27.5 -20.5t37.5 -15.5q19 0 19 -51v-8q0 -33 -7 -33q-4 0 -28 12q-31 14 -53 14q-29 0 -29 -17q0 -9 13 -21q12 -11 38.5 -26t35.5 -16 q9 0 2 -3q-7 -2 -14 -11q-6 -8 -19 -15q-40 -21 -47 -39q-3 -10 -2 -13.5t9 -10.5q14 -11 28 -11q20 0 38 19q19 19 23 19q5 0 9 -11t4 -24zM446 569q0 -27 -24.5 -67.5t-39.5 -40.5q-7 0 -19 -7q-12 -6 -39 -6q-9 0 -73 6l-47 5l-22 21q-34 34 -34 83q0 17 4 32 q3 12 16 28.5t26 24.5q17 11 19 17q2 7 10 7q9 0 23 9q21 13 86 13q30 0 32 -5q4 -8 7 -8q5 0 23 -14.5t18 -18.5q0 -2 17 -28t17 -51z"/>
</svg>