<svg xmlns="http://www.w3.org/2000/svg" xmlns:xlink="http://www.w3.org/1999/xlink" version="1.1" viewBox="50 8 786 806">
  <g>
    <path fill="currentColor" d="M 448.0,226.0 L 481.0,226.0 Q 520.0,226.0 520.0,222.0 Q 520.0,217.0 530.0,217.0 Q 541.0,217.0 576.5,229.5 Q 612.0,242.0 615.0,247.0 Q 618.0,252.0 618.0,269.0 Q 618.0,279.0 613.0,287.0 Q 608.0,295.0 601.5,298.5 Q 595.0,302.0 587.0,304.5 Q 579.0,307.0 575.0,307.5 Q 571.0,308.0 570.0,308.0 Q 563.0,308.0 549.0,298.0 Q 537.0,289.0 526.5,287.0 Q 516.0,285.0 484.0,285.0 Q 440.0,285.0 430.0,291.0 Q 420.0,297.0 414.0,297.0 Q 407.0,297.0 400.0,301.5 Q 393.0,306.0 381.0,308.0 Q 355.0,313.0 299.0,345.5 Q 243.0,378.0 243.0,396.0 Q 243.0,401.0 234.5,411.5 Q 226.0,422.0 217.0,443.5 Q 208.0,465.0 208.0,496.0 Q 208.0,561.0 241.0,597.0 Q 266.0,625.0 293.0,649.0 Q 320.0,673.0 329.0,675.0 Q 338.0,677.0 344.0,681.5 Q 350.0,686.0 360.0,686.0 Q 371.0,686.0 387.0,694.5 Q 403.0,703.0 426.0,703.0 Q 432.0,703.0 465.5,702.0 Q 499.0,701.0 540.0,698.0 Q 581.0,695.0 588.0,691.0 Q 597.0,686.0 606.0,684.0 Q 612.0,682.0 616.5,672.5 Q 621.0,663.0 626.0,665.0 Q 632.0,667.0 644.0,660.0 Q 656.0,653.0 656.0,647.0 L 662.0,630.0 Q 669.0,614.0 675.5,591.5 Q 682.0,569.0 682.0,556.0 Q 682.0,546.0 671.0,525.0 Q 660.0,504.0 660.0,501.0 Q 660.0,493.0 626.0,463.0 Q 592.0,433.0 583.0,433.0 Q 578.0,433.0 573.0,430.0 Q 568.0,427.0 562.5,423.5 Q 557.0,420.0 538.0,416.5 Q 519.0,413.0 488.0,411.0 L 437.0,408.0 L 407.0,425.0 Q 370.0,447.0 361.5,456.5 Q 353.0,466.0 346.0,499.0 L 340.0,526.0 L 355.0,545.0 Q 370.0,564.0 370.0,568.0 Q 370.0,569.0 374.5,574.5 Q 379.0,580.0 391.0,586.0 Q 403.0,592.0 417.0,592.0 Q 464.0,592.0 486.0,574.0 Q 508.0,555.0 508.0,542.0 Q 508.0,528.0 492.5,518.0 Q 477.0,508.0 458.0,504.0 Q 439.0,500.0 423.5,492.0 Q 408.0,484.0 408.0,473.0 Q 408.0,457.0 420.5,447.5 Q 433.0,438.0 452.0,438.0 Q 472.0,438.0 493.0,452.5 Q 514.0,467.0 518.0,468.0 Q 528.0,471.0 549.0,498.5 Q 570.0,526.0 570.0,546.0 Q 570.0,557.0 561.5,576.0 Q 553.0,595.0 553.0,599.0 Q 553.0,603.0 535.0,618.5 Q 517.0,634.0 512.0,634.0 Q 508.0,634.0 487.0,646.0 Q 466.0,658.0 451.0,658.0 Q 433.0,658.0 416.5,655.0 Q 400.0,652.0 390.0,648.5 Q 380.0,645.0 378.0,645.0 L 377.0,645.0 Q 373.0,646.0 370.5,645.0 Q 368.0,644.0 363.5,640.0 Q 359.0,636.0 353.0,634.0 Q 344.0,631.0 332.5,614.5 Q 321.0,598.0 314.0,594.0 Q 304.0,587.0 304.0,580.0 Q 304.0,575.0 291.0,546.5 Q 278.0,518.0 278.0,510.0 Q 278.0,509.0 279.5,506.0 Q 281.0,503.0 283.0,496.5 Q 285.0,490.0 286.0,480.0 Q 289.0,454.0 313.0,424.5 Q 337.0,395.0 363.0,385.0 Q 374.0,381.0 385.0,370.5 Q 396.0,360.0 413.0,352.5 Q 430.0,345.0 461.0,345.0 Q 574.0,345.0 650.0,404.0 Q 673.0,422.0 696.5,448.0 Q 720.0,474.0 728.0,491.0 Q 751.0,539.0 751.0,573.0 Q 737.0,608.0 730.0,650.0 Q 730.0,652.0 723.5,662.5 Q 717.0,673.0 701.0,690.5 Q 685.0,708.0 662.5,724.0 Q 640.0,740.0 602.0,751.5 Q 564.0,763.0 520.0,763.0 Q 505.0,763.0 492.0,770.0 Q 479.0,777.0 478.0,777.0 Q 477.0,777.0 475.0,775.0 Q 474.0,774.0 413.0,762.0 Q 352.0,750.0 343.0,749.0 Q 313.0,746.0 313.0,740.0 Q 313.0,728.0 290.0,728.0 Q 281.0,728.0 281.0,723.0 Q 281.0,719.0 272.0,715.0 Q 255.0,708.0 226.0,675.0 Q 197.0,642.0 193.0,625.0 Q 190.0,611.0 186.0,611.0 Q 182.0,611.0 182.0,599.0 Q 182.0,588.0 178.0,588.0 Q 173.0,588.0 168.0,568.0 Q 163.0,548.0 163.0,530.0 Q 163.0,515.0 160.0,508.5 Q 157.0,502.0 157.0,497.0 Q 157.0,479.0 165.0,448.0 Q 173.0,417.0 179.0,413.0 Q 186.0,408.0 206.0,369.0 Q 224.0,334.0 231.5,325.0 Q 239.0,316.0 260.0,306.0 Q 269.0,302.0 296.5,282.0 Q 324.0,262.0 349.0,257.0 Q 377.0,253.0 403.0,232.0 Q 410.0,226.0 448.0,226.0 M 86.0,86.0 Q 86.0,78.0 96.5,68.0 Q 107.0,58.0 119.0,58.0 Q 134.0,58.0 155.5,78.5 Q 177.0,99.0 193.0,121.0 Q 209.0,143.0 211.0,144.0 Q 216.0,146.0 221.5,163.0 Q 227.0,180.0 227.0,192.0 Q 227.0,217.0 206.0,217.0 Q 190.0,217.0 182.5,212.0 Q 175.0,207.0 167.0,190.0 Q 156.0,168.0 149.5,160.0 Q 143.0,152.0 108.0,118.0 Q 86.0,97.0 86.0,86.0 M 662.0,179.0 Q 642.0,179.0 642.0,158.0 Q 642.0,143.0 651.0,128.5 Q 660.0,114.0 672.0,114.0 Q 684.0,114.0 684.0,110.0 Q 684.0,108.0 689.0,105.0 Q 694.0,102.0 702.0,96.0 Q 710.0,90.0 716.0,81.0 Q 732.0,54.0 770.0,54.0 Q 790.0,54.0 795.0,59.0 Q 800.0,64.0 800.0,81.0 Q 800.0,91.0 795.5,96.5 Q 791.0,102.0 774.0,114.0 Q 753.0,128.0 738.0,140.0 Q 687.0,179.0 662.0,179.0 M 434.0,115.0 Q 434.0,149.0 429.0,161.5 Q 424.0,174.0 406.0,174.0 Q 382.0,174.0 377.0,162.0 Q 372.0,149.0 372.0,91.0 Q 372.0,66.0 377.0,58.0 Q 382.0,50.0 398.0,48.0 Q 423.0,45.0 429.0,55.0 Q 434.0,63.0 434.0,115.0"/>
  </g>
</svg>