<svg xmlns="http://www.w3.org/2000/svg" xmlns:xlink="http://www.w3.org/1999/xlink" version="1.1" viewBox="68 35 587 779">
   <path fill="currentColor" d="M518 536q0 -5 -7 -14t-7 -24q0 -14 6 -18t15 -4.5t13 -4.5q5 -5 6 -5q2 0 20.5 19t18.5 21t10.5 15t11.5 21q1 9 3.5 22.5t6 26.5t6.5 24.5t5 18.5l2 8q0 4 -6 21t-6 26q0 13 -10 23q-25 27 -36 34.5t-34 15.5q-32 11 -32 14t-8 3q-19 0 -50.5 -13t-42.5 -23 q-33 -29 -44 -29q-5 0 -19 13.5t-18 22.5q-10 18 -69 18q-73 0 -73 -8l-11 -5q-11 -5 -29 -22.5t-31 -45.5q-14 -30 -14 -36q0 -96 20 -147q4 -12 29 -12q11 0 16 1t10.5 6.5t5.5 16.5q0 10 -8 30t-10 56l-2 40l20 24q20 25 26 25q4 0 20.5 9t28.5 9q23 0 38.5 -24.5 t15.5 -54.5q0 -10 -3 -19t-3 -14q0 -13 10.5 -22.5t24.5 -9.5q31 0 46 53q9 31 22.5 43t60.5 35q7 4 25 4q17 0 23.5 -4.5t11.5 -4.5q11 0 22 -12t12 -25q1 -11 3 -15.5t2 -5.5q0 -11 -13.5 -42t-22.5 -39q-8 -6 -8 -16zM360 123q0 -13 14 -32.5t34 -19.5q10 0 18.5 7.5 t8.5 22.5q0 31 -22 65t-22 46q0 7 -7 12.5t-7 13.5q0 5 -7 27.5t-8 48.5l-1 33l-21 10q-19 9 -35 4q-25 -8 -25 -20q0 -5 8 -29.5t16 -32.5q8 -10 8 -15q0 -14 18.5 -62t18.5 -49q0 -3 6.5 -10.5t4.5 -14.5v-5z"/>
</svg>