<svg xmlns="http://www.w3.org/2000/svg" xmlns:xlink="http://www.w3.org/1999/xlink" version="1.1" viewBox="63 40 365 719">
   <path fill="currentColor" d="M80 326q0 -7 12.5 -20.5t19.5 -13.5q15 0 24 10.5t9 25.5q0 14 -6.5 24.5t-18.5 10.5t-26 -12.5t-14 -24.5zM133 726q-3 0 -11.5 -3.5t-10.5 -3.5q-3 0 -15 -7q-6 -5 -7.5 -23.5t-2.5 -97.5v-38q0 -77 5 -82q4 -3 26 -8.5t32 -5.5q7 0 22 4.5t21 4.5q9 0 19 -5 q5 -3 58 -15t58 -14q9 -4 10 -13t-7 -16q-7 -7 -7 -11q0 -7 -11.5 -28t-16.5 -23q-7 -2 -30.5 -29.5t-36.5 -48.5q-7 -13 -14 -13q-3 0 -18.5 -28t-17.5 -28q-4 0 -18.5 -31.5t-16.5 -44.5q-3 -16 7 -31q8 -13 11 -14t13 4q7 3 15 14.5t8 19.5q0 6 15.5 35t18.5 29t3 6 q0 8 9 15q10 8 15 21q5 14 12 14q6 0 10 9q2 7 25 33q14 16 14 20q0 2 10 14q6 6 25 33.5t25 34.5q10 12 10 16q0 5 7 7q15 7 15 48q0 29 -11 29q-4 0 -21.5 9.5t-22.5 9.5q-7 0 -27 9t-38 9q-19 0 -21 4q-1 2 -60.5 8t-60.5 7q-3 3 -3 26q0 61 9 101q3 17 3 27 q0 12 -7.5 26.5t-17.5 14.5z"/>
</svg>