<svg xmlns="http://www.w3.org/2000/svg" xmlns:xlink="http://www.w3.org/1999/xlink" version="1.1" viewBox="10 90 409 616">
  <path fill="currentColor" d="M121.777 671.471c-5.49316 -4.01367 -6.29883 -12.3486 -7.63184 -79.5264c-0.820312 -41.2793 -2.94434 -83.2764 -4.7168 -93.3105c-3.64746 -20.625 1.59668 -36.0498 13.5791 -39.8438c8.20312 -2.60742 19.0576 2.72461 22.207 10.8984 c2.19727 5.74219 8.4375 127.939 8.64258 169.644c0.0878906 16.5674 -1.27441 21.2109 -8.29102 28.2275c-9.49219 9.49219 -14.9414 10.3857 -23.7891 3.91113zM215.908 662.638c-5.43457 -5.41992 -6.87012 -14.0771 -9.00879 -53.877 c-3.14941 -58.6377 0.219727 -125.083 7.0166 -138.208c2.73926 -5.30273 8.29102 -10.6787 12.3486 -11.9678s29.3262 -1.24512 56.1475 0.102539c26.8213 1.33301 51.9434 1.4209 55.8252 0.19043c6.94336 -2.21191 6.91406 -2.49023 -2.22656 -17.1387 c-8.55469 -13.6963 -39.4336 -51.665 -69.5068 -85.459c-6.78223 -7.61719 -19.248 -23.3203 -27.7002 -34.8926c-14.5459 -19.9219 -15.4688 -22.5439 -17.4023 -49.5996c-2.98828 -41.6162 -13.0957 -71.2207 -29.2969 -85.8691 c-20.9033 -18.8672 -39.7705 -24.4482 -75 -22.1484c-16.4209 1.06934 -37.3389 4.49707 -46.4941 7.61719c-19.0137 6.47461 -31.0986 4.70215 -36.46 -5.30273c-4.74609 -8.8623 -1.4502 -19.2041 8.04199 -25.3564c4.08691 -2.65137 22.8369 -7.80762 41.6455 -11.4404 c56.5283 -10.9277 91.0986 -4.18945 129.756 25.3418c24.7852 18.9258 41.5576 58.3594 45.249 106.392c2.40234 31.2744 4.70215 35.4053 47.3584 85.2832c47.3438 55.3711 59.4434 70.7227 74.3994 94.4824c17.7686 28.2422 19.5703 36.8555 9.77051 46.6699 c-5.27344 5.25879 -13.9453 6.94336 -46.1426 8.9502c-21.8262 1.3623 -52.6025 1.40625 -68.4082 0.0878906l-28.7402 -2.3877l-2.47559 24.6826c-1.3623 13.5791 -1.37695 49.7314 -0.0292969 80.3174c2.3584 53.6572 2.19727 55.8838 -4.74609 62.8125 c-8.8916 8.90625 -15.542 9.11133 -23.9209 0.732422v-0.0146484zM44.2285 340.973c-15.4541 -15.4688 -13.5938 -37.5 3.94043 -46.5674c23.7744 -12.3047 44.2236 -1.8457 44.2236 22.6172c0 16.9482 -14.5605 33.9551 -29.0771 33.9551 c-5.47852 0 -13.0518 -3.96973 -19.0869 -10.0049zM149.756 338.966c-8.68652 -5.90332 -13.9307 -12.876 -16.7285 -22.251c-5.625 -18.75 -0.541992 -29.1943 16.4941 -33.9258c19.1016 -5.30273 24.375 -4.57031 33.6768 4.74609 c6.72363 6.70898 8.39355 11.8799 8.39355 25.8105s-1.66992 19.1016 -8.39355 25.8105c-10.6055 10.6055 -17.6074 10.5762 -33.4424 -0.19043z"/>
</svg>