<svg xmlns="http://www.w3.org/2000/svg" xmlns:xlink="http://www.w3.org/1999/xlink" version="1.1" viewBox="34 62 772 729">
   <path fill="currentColor" d="M93 699q0 -1 -3 -11.5t-3 -15.5q0 -10 7 -17.5t16 -12t19 -7t16 -3.5t7 -1t27.5 8t33.5 8q8 0 14.5 -11t13.5 -29t13 -26q7 -9 11 -29t11 -29q9 -13 9 -20q0 -4 1 -6t3 -4.5t6 -11t8 -21.5q15 -42 38.5 -74t29.5 -47q6 -12 11.5 -21t8.5 -12t5 -6t2 -6t1 -3.5t5 -0.5 t21 -9t25 -9q11 0 28.5 8.5t17.5 19.5q0 4 -3 7.5t-3 5.5q0 11 23 56t28 50q5 4 9.5 18.5t9.5 18.5q6 4 6 12q0 3 7.5 11.5t9.5 21.5q4 16 6 16q3 0 11.5 18.5t18 39.5t15.5 26q7 5 7 12q0 5 17.5 27t17.5 31q0 12 -19.5 27.5t-53.5 15.5q-13 0 -38.5 11.5t-39.5 23.5 q-9 9 -25 9q-19 0 -35.5 -13.5t-16.5 -27.5q0 -9 15 -27q11 -13 20 -15t24.5 -3t33.5 -11q24 -13 28 -13q1 0 4 -1t6.5 -5t3.5 -9q0 -13 -19.5 -41.5t-22.5 -38.5q-3 -11 -12.5 -28t-13.5 -17q-2 0 -5 -8.5t-9 -23t-14 -24.5q-9 -13 -15.5 -28.5t-13.5 -21.5q-9 -9 -9 -19 q0 -14 -8 -14q-6 0 -13 7.5t-10 15.5q-2 7 -16 23t-14 19t-3 6.5t-9 14.5t-13 30q-5 16 -11 29t-9 18t-3 7q0 1 0.5 2t0.5 2q0 2 -6.5 15t-8.5 26q-1 13 -4.5 20t-3.5 14q0 11 -11 18q-6 4 -13 21.5t-7 28.5q0 3 1 6t1 5q0 12 -14 29.5t-39 17.5q-12 0 -21 -5.5t-17 -5.5 q-6 0 -8.5 -1.5t-11.5 -5t-26 -7.5q-59 -14 -59 -20zM722 105q5 -9 13 -8t12 11q2 4 13 14t11 23q0 10 -6.5 16t-12.5 8l-7 1q-6 0 -18.5 9t-12.5 13t-15 19.5t-20 15.5t-5 11q0 9 -7.5 13t-21 11.5t-24.5 23.5q-9 13 -13.5 16.5t-15.5 3.5q-13 0 -26.5 -11.5t-13.5 -24.5 q0 -22 21 -38q6 -4 14.5 -12t14.5 -14t7 -6v1q0 1 1 1q4 0 16 -12t18 -22q9 -15 32.5 -34.5t31.5 -19.5q9 0 14 -9zM250 275q-14 0 -47 -31.5t-36 -31.5q-4 0 -14.5 -9.5t-25.5 -23.5t-27 -21q-30 -20 -21.5 -41t35.5 -21q17 0 28 10.5t24.5 27.5t28.5 27q23 14 51.5 47.5 t28.5 40.5q0 5 -8.5 15.5t-16.5 10.5z"/>
</svg>