<svg xmlns="http://www.w3.org/2000/svg" xmlns:xlink="http://www.w3.org/1999/xlink" version="1.1" viewBox="50 65 587 732">
  <g>
    <path fill="currentColor" d="M 77.0,169.0 Q 77.0,153.0 84.5,143.0 Q 92.0,133.0 99.0,131.0 Q 106.0,129.0 113.0,129.0 Q 129.0,129.0 135.5,143.5 Q 142.0,158.0 141.5,177.5 Q 141.0,197.0 143.0,222.0 Q 145.0,247.0 153.0,261.0 Q 163.0,278.0 163.0,288.0 Q 163.0,319.0 214.0,361.0 Q 265.0,403.0 311.0,403.0 Q 318.0,403.0 323.5,401.5 Q 329.0,400.0 331.5,399.0 Q 334.0,398.0 336.0,398.0 Q 338.0,398.0 339.0,400.0 Q 341.0,403.0 348.0,403.0 Q 363.0,403.0 390.0,389.0 Q 417.0,375.0 435.0,357.0 Q 475.0,317.0 488.0,300.0 Q 501.0,283.0 505.0,268.0 Q 515.0,225.0 515.0,166.0 Q 515.0,151.0 513.0,140.5 Q 511.0,130.0 511.0,128.0 Q 511.0,114.0 522.0,106.5 Q 533.0,99.0 542.0,99.0 Q 562.0,99.0 576.0,122.0 Q 587.0,139.0 588.0,222.0 Q 589.0,305.0 596.0,343.0 Q 602.0,377.0 602.0,382.0 Q 602.0,412.0 606.0,436.5 Q 610.0,461.0 610.0,490.0 Q 610.0,521.0 598.0,568.5 Q 586.0,616.0 574.0,625.0 Q 572.0,627.0 573.5,636.0 Q 575.0,645.0 565.0,651.0 Q 553.0,659.0 548.0,669.0 Q 546.0,673.0 524.0,690.5 Q 502.0,708.0 464.0,727.5 Q 426.0,747.0 393.0,750.0 Q 372.0,752.0 341.0,758.0 Q 310.0,764.0 291.0,764.0 Q 250.0,764.0 224.0,751.0 Q 179.0,729.0 169.0,721.5 Q 159.0,714.0 159.0,702.0 Q 159.0,685.0 172.0,675.0 Q 185.0,665.0 204.0,665.0 Q 224.0,665.0 246.0,678.0 Q 268.0,691.0 296.0,691.0 Q 349.0,691.0 393.5,679.0 Q 438.0,667.0 455.5,656.5 Q 473.0,646.0 475.0,643.0 Q 476.0,642.0 497.0,627.0 Q 520.0,612.0 534.0,573.5 Q 548.0,535.0 548.0,487.0 Q 548.0,448.0 541.0,386.5 Q 534.0,325.0 529.0,325.0 Q 522.0,325.0 499.5,354.0 Q 477.0,383.0 475.0,394.0 Q 473.0,404.0 468.5,409.0 Q 464.0,414.0 452.0,419.0 Q 432.0,428.0 427.0,428.0 Q 421.0,428.0 412.0,437.0 Q 404.0,445.0 371.0,455.0 Q 338.0,465.0 319.0,465.0 Q 308.0,465.0 299.5,463.0 Q 291.0,461.0 274.0,455.5 Q 257.0,450.0 238.0,445.0 Q 214.0,439.0 203.5,433.0 Q 193.0,427.0 173.0,408.0 Q 145.0,382.0 124.0,349.0 Q 103.0,316.0 98.0,294.0 Q 96.0,283.0 90.0,264.5 Q 84.0,246.0 80.5,223.5 Q 77.0,201.0 77.0,169.0"/>
  </g>
</svg>